<svg xmlns="http://www.w3.org/2000/svg" viewBox="0 0 18.49 18.49"><defs><style>.cls-1{fill:#3e3a39;}</style></defs><g id="圖層_2" data-name="圖層 2"><g id="圖層_1-2" data-name="圖層 1"><path class="cls-1" d="M14.14,3.3a1.09,1.09,0,1,0,1.08,1.09A1.08,1.08,0,0,0,14.14,3.3Z"/><path class="cls-1" d="M9.32,4.69a4.56,4.56,0,1,0,4.55,4.56A4.56,4.56,0,0,0,9.32,4.69Zm0,7.47a2.92,2.92,0,1,1,2.92-2.91A2.92,2.92,0,0,1,9.32,12.16Z"/><path class="cls-1" d="M12.94,18.49H5.55A5.56,5.56,0,0,1,0,12.94V5.55A5.56,5.56,0,0,1,5.55,0h7.39a5.56,5.56,0,0,1,5.55,5.55v7.39A5.56,5.56,0,0,1,12.94,18.49ZM5.55,1.74A3.82,3.82,0,0,0,1.74,5.55v7.39a3.82,3.82,0,0,0,3.81,3.81h7.39a3.82,3.82,0,0,0,3.81-3.81V5.55a3.82,3.82,0,0,0-3.81-3.81Z"/></g></g></svg>