<svg xmlns="http://www.w3.org/2000/svg" viewBox="0 0 64.53 54.39"><defs><style>.cls-1{fill:none;stroke:#254179;stroke-miterlimit:10;stroke-width:0.5px;}</style></defs><title>資產 9</title><g id="圖層_2" data-name="圖層 2"><g id="圖層_1-2" data-name="圖層 1"><path class="cls-1" d="M44.31,18.14a9.27,9.27,0,0,0,4,.89A9.39,9.39,0,1,0,38.89,9.5,11.64,11.64,0,0,1,44.31,18.14Z"/><path class="cls-1" d="M52.26,19.67H44.35a11.5,11.5,0,0,1-3.57,8.06A14.3,14.3,0,0,1,51,41.41v3c7.8-.28,12.3-2.5,12.6-2.65l.63-.32h.06V31.7A12,12,0,0,0,52.26,19.67Z"/><circle class="cls-1" cx="32.74" cy="19.34" r="9.39"/><path class="cls-1" d="M36.72,29.37h-8a12,12,0,0,0-12,12v9.75l0,.15.67.21a54.6,54.6,0,0,0,16.35,2.64c8.83,0,14-2.52,14.27-2.68l.63-.32h.07V41.39A12,12,0,0,0,36.72,29.37Z"/><path class="cls-1" d="M16.26,19a9.23,9.23,0,0,0,5-1.45,11.63,11.63,0,0,1,4.37-7.41c0-.18,0-.35,0-.53A9.39,9.39,0,1,0,16.26,19Z"/><path class="cls-1" d="M24.69,27.73a11.59,11.59,0,0,1-3.57-8c-.29,0-.58,0-.88,0h-8a12,12,0,0,0-12,12v9.74l0,.16.68.21a56.46,56.46,0,0,0,13.54,2.54V41.41A14.3,14.3,0,0,1,24.69,27.73Z"/></g></g></svg>