<svg xmlns="http://www.w3.org/2000/svg" viewBox="0 0 57.25 54.32"><defs><style>.cls-1{fill:none;stroke:#254179;stroke-miterlimit:10;stroke-width:0.5px;}</style></defs><title>資產 13</title><g id="圖層_2" data-name="圖層 2"><g id="圖層_1-2" data-name="圖層 1"><path class="cls-1" d="M50.43,30.54A43.68,43.68,0,0,0,57,15.64L40.06.3l-3,1.39L18.59,5.31a5.51,5.51,0,0,0-2.73,2.31c-1.4,2.34.82,4.87,3,5.64,1.35.49,2.73.16,4.12,0L26,13c.45,0,2.6-.52,2.9-.26L50,31.29Z"/><polyline class="cls-1" points="20.06 4.85 16.96 2.1 0.33 18.73 6.91 27.17 7.95 29.7"/><path class="cls-1" d="M36.66,29.7l10.85,9.73C50.13,42.05,51,41.21,51,41.21c4.86-3.46,1-8.14,1-8.14L28.54,12.34"/><path class="cls-1" d="M50,41.25s3.13,3.94,0,7.07c0,0-1.39,2-6.16,0L31.14,35.48"/><path class="cls-1" d="M42.71,47.16a5.47,5.47,0,0,1-.64,2.3,4.77,4.77,0,0,1-3.92,2.25c-1.36.15-2.44-.87-3.36-1.78l-9.06-9"/><rect class="cls-1" x="6.94" y="27.01" width="6.85" height="10.61" rx="3.33" transform="translate(28.58 3.68) rotate(50.25)"/><rect class="cls-1" x="12.72" y="29.59" width="6.85" height="13.38" rx="3.33" transform="translate(33.72 0.67) rotate(50.25)"/><rect class="cls-1" x="17.44" y="35.56" width="6.28" height="11.48" rx="3.05" transform="translate(39.18 -0.93) rotate(50.25)"/><path class="cls-1" d="M30.64,46.7l.19-.18L25.64,41l-4.35,4.09A3.78,3.78,0,0,0,26.05,51"/><path class="cls-1" d="M30.64,46.7l-4.17,3.91a2.72,2.72,0,0,1-.42.34,3.74,3.74,0,1,0,4.59-4.25Z"/></g></g></svg>