<svg xmlns="http://www.w3.org/2000/svg" viewBox="0 0 43.28 53.03"><defs><style>.cls-1,.cls-2{fill:none;stroke-miterlimit:10;stroke-width:0.5px;}.cls-1{stroke:#254179;}.cls-2{stroke:#223f74;}</style></defs><title>資產 3</title><g id="圖層_2" data-name="圖層 2"><g id="圖層_1-2" data-name="圖層 1"><path class="cls-1" d="M36.09,40.87a24.49,24.49,0,0,0-3.85-1.57l-.46-.25a22,22,0,0,1-3.91-2.58V33.84a13.16,13.16,0,0,0,6.26-9.39c1.86-.53,3.48-2.28,3.48-3.89s-1.22-2.71-3.25-2.94V16.5h3.8v-.82c0-1-.91-5.07-2.93-5.14a14.33,14.33,0,0,0-8.45-8.8V.25H16.5V1.74A14.37,14.37,0,0,0,8,10.54c-2,.08-2.92,4.1-2.92,5.14v.82H8.91v1.12c-2,.23-3.24,1.31-3.24,2.94s1.62,3.36,3.48,3.89a13.16,13.16,0,0,0,6.26,9.39v2.63a22,22,0,0,1-3.91,2.58L11,39.3a25.42,25.42,0,0,0-3.84,1.59C.41,44.37.25,49,.25,49.24v3.54H43V49.25C43,49.05,42.93,44.34,36.09,40.87ZM26.78,3.49a12.7,12.7,0,0,1,6.72,7H26.78ZM18.12,1.87h7v8.67h-7ZM16.5,3.49v7H9.77A12.78,12.78,0,0,1,16.5,3.49ZM6.85,14.87a5.28,5.28,0,0,1,1.27-2.71h27a5.36,5.36,0,0,1,1.27,2.71ZM12.7,40.24a25.71,25.71,0,0,0,3.5-2.3,8.22,8.22,0,0,0,5.44,2.38,8.22,8.22,0,0,0,5.44-2.38,26.24,26.24,0,0,0,3.49,2.3v6.58H12.7ZM36.53,50.88a.27.27,0,0,1-.27.27H7a.27.27,0,0,1-.27-.27V48.71A.28.28,0,0,1,7,48.44H36.26a.28.28,0,0,1,.27.27Z"/><line class="cls-2" x1="11.03" y1="39.3" x2="11.03" y2="48.44"/><line class="cls-2" x1="8.39" y1="40.31" x2="8.39" y2="48.44"/><line class="cls-2" x1="32.44" y1="39.3" x2="32.44" y2="48.44"/><line class="cls-2" x1="35.08" y1="40.31" x2="35.08" y2="48.44"/></g></g></svg>