<svg xmlns="http://www.w3.org/2000/svg" viewBox="0 0 34.28 41.97"><defs><style>.cls-1,.cls-2{fill:none;stroke-miterlimit:10;stroke-width:0.5px;}.cls-1{stroke:#254179;}.cls-2{stroke:#223f74;}</style></defs><g id="圖層_2" data-name="圖層 2"><g id="圖層_1-2" data-name="圖層 1"><path class="cls-1" d="M28.55,32.32a20.46,20.46,0,0,0-3-1.24l-.37-.2a17,17,0,0,1-3.08-2V26.77A10.4,10.4,0,0,0,27,19.36a3.72,3.72,0,0,0,2.75-3.08c0-1.28-1-2.14-2.56-2.31v-.89h3v-.64c0-.83-.72-4-2.31-4.06a11.29,11.29,0,0,0-6.67-7V.25H13.08V1.43a11.33,11.33,0,0,0-6.68,7c-1.59.06-2.3,3.23-2.3,4.06v.64h3V14c-1.6.17-2.56,1-2.56,2.31a3.72,3.72,0,0,0,2.75,3.08,10.37,10.37,0,0,0,4.94,7.41v2.08a16.81,16.81,0,0,1-3.09,2l-.37.2a19.77,19.77,0,0,0-3,1.26C.38,35.09.25,38.78.25,38.93v2.79H34V38.94C34,38.78,34,35.06,28.55,32.32ZM21.2,2.81a10.09,10.09,0,0,1,5.31,5.56H21.2ZM14.36,1.53h5.56V8.37H14.36ZM13.08,2.81V8.37H7.77A10.05,10.05,0,0,1,13.08,2.81Zm-7.62,9a4.13,4.13,0,0,1,1-2.13H27.81a4.12,4.12,0,0,1,1,2.13Zm4.62,20A19.26,19.26,0,0,0,12.84,30a6.48,6.48,0,0,0,4.3,1.88A6.48,6.48,0,0,0,21.44,30a19.74,19.74,0,0,0,2.75,1.81V37H10.08ZM28.9,40.23a.22.22,0,0,1-.22.21H5.59a.22.22,0,0,1-.21-.21V38.52a.22.22,0,0,1,.21-.22H28.68a.22.22,0,0,1,.22.22Z"/><line class="cls-2" x1="8.76" y1="31.08" x2="8.76" y2="38.3"/><line class="cls-2" x1="6.68" y1="31.88" x2="6.68" y2="38.3"/><line class="cls-2" x1="25.66" y1="31.08" x2="25.66" y2="38.3"/><line class="cls-2" x1="27.75" y1="31.88" x2="27.75" y2="38.3"/></g></g></svg>