<svg xmlns="http://www.w3.org/2000/svg" viewBox="0 0 253.85 77.77"><defs><style>.cls-1{fill:#28437e;}.cls-2{fill:#b39354;}</style></defs><g id="圖層_2" data-name="圖層 2"><g id="圖層_3" data-name="圖層 3"><path class="cls-1" d="M34.92,53.92h6.27a.26.26,0,0,1,.26.25v8.06h4.76v-11a.25.25,0,0,0-.25-.25h-11Z"/><path class="cls-1" d="M60.71,50.94h-11v3h4.49a.25.25,0,0,1,.25.25v8.06H61v-11a.25.25,0,0,0-.25-.25"/><path class="cls-1" d="M31.55,53.92V51.19a.25.25,0,0,0-.25-.25h-11v3h8.07a.25.25,0,0,1,.25.25v8.06h3Z"/><path class="cls-1" d="M46,65.29H35v3h6.23a.26.26,0,0,1,.26.26v9.25h4.81V65.54a.26.26,0,0,0-.26-.25"/><path class="cls-1" d="M60.71,65.29h-11v3h4.49a.26.26,0,0,1,.25.26v9.25H61V65.54a.25.25,0,0,0-.25-.25"/><path class="cls-1" d="M31.55,68.26V65.54a.25.25,0,0,0-.25-.25h-11v3h8.07a.26.26,0,0,1,.25.26v9.25h3Z"/><path class="cls-2" d="M86.1.27l.79,2.11a5.43,5.43,0,0,0,3.18,3.18l2.11.78a.42.42,0,0,1,0,.79l-2.11.78a5.43,5.43,0,0,0-3.18,3.18L86.1,13.2a.42.42,0,0,1-.78,0l-.78-2.11a5.42,5.42,0,0,0-3.19-3.18l-2.1-.78a.42.42,0,0,1,0-.79l2.1-.78a5.42,5.42,0,0,0,3.19-3.18L85.32.27a.42.42,0,0,1,.78,0"/><polygon class="cls-1" points="0 77.77 15.56 77.77 15.56 46.8 65.66 46.8 65.66 77.77 73.84 77.77 73.84 32.14 0 44.9 0 77.77"/><path class="cls-1" d="M232.52,53.42a18.83,18.83,0,0,1-2.49.18h-7.89a23.5,23.5,0,0,1-2.58-.18,12.56,12.56,0,0,1,.18,2.18v5.93a8,8,0,0,1-.18,2.25,22.52,22.52,0,0,1,2.58-.19H230a17.31,17.31,0,0,1,2.49.19,14.8,14.8,0,0,1-.18-2.25V55.6a12.56,12.56,0,0,1,.18-2.18m-3.77,8.2h-5.34v-6h5.34Zm5.09-20.09h-15.6V39.71h6.91a32.78,32.78,0,0,0-3.37-4l4.11-1.59a24,24,0,0,1,1.42,5.61h6.53Zm-1.41,4.39H219.65V44.1h12.78Zm-12.78,2.6h12.78v1.81H219.65ZM241,42.26c0,2.7-1.87,4.71-6.49,4.68l-.62-3c3.33-.14,3.83-.3,3.83-2V35.62H249v6.29c0,1.71.72,1.87,4.05,2L252.33,47c-4.23,0-6.64-2-6.64-4.72v-5H241v5m12.83,18.33a11.64,11.64,0,0,0-1.82,3.6,22.69,22.69,0,0,1-8.29-3.54,24.41,24.41,0,0,1-9,3.54l-1.27-3.53A28.2,28.2,0,0,0,241,58.33a21.47,21.47,0,0,1-4.5-6.8h3a18.25,18.25,0,0,0,4.19,5.16,11.48,11.48,0,0,0,4.27-6.35H235.49V48.52h15.42a14.22,14.22,0,0,1-4.46,9.94,25.7,25.7,0,0,0,7.4,2.13"/><path class="cls-1" d="M161.94,58.08a35.39,35.39,0,0,0,6.43-3.21l-3-2.94a26.94,26.94,0,0,1-5.19,5.29,15,15,0,0,1-5.92-5.88h17.52v-2H144.23V46.89h23v-2h-23V42.5h23v-2h-23V38.08h24.36v-2H140.5V49.34h-4.23v2h4.23v8.59c-1.15.08-2.22.15-3.14.18l.94,3.8a60.15,60.15,0,0,0,15.51-4.27l-.65-1.37c-2.73.53-5.93,1-8.93,1.31V51.34h7.35C155,59.7,163,63.28,168.84,64a37,37,0,0,1,3-3.75,32.72,32.72,0,0,1-9.93-2.21"/><path class="cls-1" d="M120,57.08a29.28,29.28,0,0,0,10.53,3l-2.76,4.09c-4.6-1.15-7.7-4.52-8.38-6Zm-23.15,3,2.76,4.09c4.6-1.15,7.7-4.52,8.38-6l-.61-1.11a29,29,0,0,1-10.53,3m34.67-5.72v2.19H96V54.38H99.1V38.07h8.5c0-3.11-.18-3.18-.18-3.18h4s-.18.07-.18,3.18h4.83c0-3.11-.18-3.18-.18-3.18h4s-.19.07-.19,3.18h8.59V54.38Zm-11.75-8.11h5v-6h-5Zm5,2.09h-5v6h5Zm-13.5-2.09h4.83v-6h-4.83Zm4.83,2.09h-4.83v6h4.83Zm-13.41-2.09h4.93v-6h-4.93Zm0,8.11h4.93v-6h-4.93Z"/><path class="cls-1" d="M197.23,59.69h4.22a30.59,30.59,0,0,1-.35-3.89h10.16V54H201.08V51.53h8.32V49.71h-8.32V47.17h8.32V42.69h3.12V40.94H209.4V36.66h-8.25a14.3,14.3,0,0,1,.3-2.32h-4.22s.17.94.28,2.32h-7.06v1.82h7.14v2.46h-8.85v1.75h8.85v2.66h-7.14v1.82h7.14v2.54h-7.43v1.82h7.43V54H188.7V55.8h8.87a32,32,0,0,1-.34,3.89m3.85-21c0-.06,0-.12,0-.18h5.1v2.46h-5.11Zm0,4h5.11v2.66h-5.11Zm-.69,17.92c4.34,0,8.34-.12,12.32-.5a11.63,11.63,0,0,0-1.3,3.8c-3.41.19-6.6.32-10.25.23-5.47-.16-12.4-.2-17.27-4.34A27.06,27.06,0,0,1,179,64.22l-2.37-3.38a21.37,21.37,0,0,0,4.85-3.69,18.54,18.54,0,0,1-2.78-6.56H181A13.62,13.62,0,0,0,183,55.28a16.19,16.19,0,0,0,2.77-8.13h-3.9a15.28,15.28,0,0,1-2.57,1l-1.41-2.71c4.56-1.6,7.19-4,7.88-7.24h-7.88V36.4h10.74a11.43,11.43,0,0,1-4,8.92h4.06c-.35,5.43-1.35,9.24-3.27,12.36,4.22,3.11,10.25,2.92,15,2.92"/><path class="cls-1" d="M204.86,74.06h-1A5.12,5.12,0,0,1,202.6,76a9.21,9.21,0,0,1-2.23-1.83c1-.52,2-1.07,2-1.91S201.71,71,200.62,71s-2,.67-2,1.53a2.78,2.78,0,0,0,.58,1.51c-.9.46-1.73,1-1.73,1.87,0,1,1.08,1.8,2.68,1.8a4.37,4.37,0,0,0,2.54-.75,10.62,10.62,0,0,0,2,.85l.39-.86a10.9,10.9,0,0,1-1.69-.53,6.46,6.46,0,0,0,1.54-2.32m-4.24-2.52c.6,0,.84.33.84.71,0,.58-.7,1-1.5,1.37a2.17,2.17,0,0,1-.42-1.14,1,1,0,0,1,1.08-.94M200.25,77c-1,0-1.74-.47-1.74-1.19,0-.5.48-.89,1.1-1.26a11.67,11.67,0,0,0,2.32,1.93,3.16,3.16,0,0,1-1.68.52"/><path class="cls-1" d="M160.92,76.81a.57.57,0,0,1-.19-.47v-4a8.2,8.2,0,0,1,.1-1.3h-1.35a8.2,8.2,0,0,1,.1,1.3v4a1.15,1.15,0,0,0,.36.87,1.81,1.81,0,0,0,1.26.35h3.27V77h-3a.94.94,0,0,1-.58-.15"/><path class="cls-1" d="M157.58,71h-1.34a9.09,9.09,0,0,1,.09,1.3v4a8.92,8.92,0,0,1-.09,1.3h1.34a9.09,9.09,0,0,1-.09-1.3v-4a9.09,9.09,0,0,1,.09-1.3"/><path class="cls-1" d="M170.86,71.74a2.07,2.07,0,0,0-1-.54,5.36,5.36,0,0,0-1.44-.17h-2.81V77.6h2.81a5.4,5.4,0,0,0,1.44-.16,2.17,2.17,0,0,0,1-.55,2.43,2.43,0,0,0,.53-1,7.68,7.68,0,0,0,0-3.12,2.47,2.47,0,0,0-.53-1m-.69,4.18a1.32,1.32,0,0,1-.63.8,2.7,2.7,0,0,1-1.2.23h-1.53V71.69h1.53a2.56,2.56,0,0,1,1.2.24,1.32,1.32,0,0,1,.63.8,5.15,5.15,0,0,1,.19,1.58,5.33,5.33,0,0,1-.19,1.6"/><path class="cls-1" d="M173.77,71.33a1,1,0,0,0-.42.83v4.31a1,1,0,0,0,.42.83,1.82,1.82,0,0,0,1.1.3h3.55V77H175.2a.77.77,0,0,1-.52-.15.62.62,0,0,1-.16-.48V74.51h3.41v-.65h-3.41V72.3a.61.61,0,0,1,.16-.47.77.77,0,0,1,.52-.15h3.22V71h-3.55a1.82,1.82,0,0,0-1.1.3"/><path class="cls-1" d="M145.17,74.16a1.36,1.36,0,0,0,1.28-1.46A1.58,1.58,0,0,0,144.66,71h-3.43V77.6h3.46c1.1,0,2.06-.39,2.06-1.79a1.54,1.54,0,0,0-1.58-1.65m0-2a1.17,1.17,0,0,1,.16.67,1.24,1.24,0,0,1-.15.66.71.71,0,0,1-.48.32,3.13,3.13,0,0,1-.85.1h-1.44V71.72h1.74a1.18,1.18,0,0,1,1,.4m-1,4.79h-1.81V74.49h1.45a4.33,4.33,0,0,1,1,.12.89.89,0,0,1,.54.38,1.5,1.5,0,0,1,.16.77c0,.89-.56,1.15-1.37,1.15"/><path class="cls-1" d="M190.92,74.13l-1.58-.4a2,2,0,0,1-.76-.31.89.89,0,0,1-.23-.7c0-1,.58-1.08,1-1.08h2.74V71h-3c-.7,0-1.93.19-1.93,1.63a1.83,1.83,0,0,0,.34,1.17,2.07,2.07,0,0,0,1.21.62l1.53.36c.6.14.94.35.94,1s0,1.17-.94,1.17h-2.9v.67h3.37c1.12,0,1.65-.63,1.65-1.8,0-1-.5-1.45-1.45-1.67"/><path class="cls-1" d="M153,71h-.09a6.89,6.89,0,0,1,.09,1.12v3a2.79,2.79,0,0,1-.17,1.1,1.13,1.13,0,0,1-.59.59,4.88,4.88,0,0,1-2.06,0,1.1,1.1,0,0,1-.59-.59,2.62,2.62,0,0,1-.17-1.1v-3a5.4,5.4,0,0,1,.09-1.12h-1.27a6.22,6.22,0,0,1,.1,1.12V75a3.32,3.32,0,0,0,.29,1.52,1.71,1.71,0,0,0,.92.83,4.73,4.73,0,0,0,1.71.26,4.48,4.48,0,0,0,1.66-.26,1.65,1.65,0,0,0,.89-.83,3.63,3.63,0,0,0,.27-1.52V72.15a4.88,4.88,0,0,1,.1-1.12H153Z"/><path class="cls-1" d="M184.16,74.59a2.49,2.49,0,0,0,.87-.26,1.13,1.13,0,0,0,.46-.55,2.24,2.24,0,0,0,.15-.88,2,2,0,0,0-.26-1.14,1.37,1.37,0,0,0-.81-.57,5.47,5.47,0,0,0-1.48-.16H180.2V76.3a8.92,8.92,0,0,1-.09,1.3h1.29a8,8,0,0,1-.1-1.3V74.83h1.56a1.05,1.05,0,0,1,1.11.68c.1.28.72,2.09.72,2.09h1.24s-.65-1.72-.77-2a1.45,1.45,0,0,0-1-1m-.34-.52a3.54,3.54,0,0,1-.92.11h-1.6V71.69h1.55a3.67,3.67,0,0,1,.92.1.81.81,0,0,1,.49.37,1.79,1.79,0,0,1,.2.79,1.56,1.56,0,0,1-.15.75.82.82,0,0,1-.49.37"/><path class="cls-1" d="M252.32,71.74a2,2,0,0,0-.95-.54,5.34,5.34,0,0,0-1.43-.17h-2.82V77.6h2.82a5.37,5.37,0,0,0,1.43-.16,2.12,2.12,0,0,0,.95-.55,2.32,2.32,0,0,0,.53-1,7.69,7.69,0,0,0,0-3.12,2.36,2.36,0,0,0-.53-1m-.68,4.18a1.37,1.37,0,0,1-.64.8,2.7,2.7,0,0,1-1.2.23h-1.52V71.69h1.52a2.56,2.56,0,0,1,1.2.24,1.37,1.37,0,0,1,.64.8,5.48,5.48,0,0,1,.19,1.58,5.68,5.68,0,0,1-.19,1.6"/><path class="cls-1" d="M217.7,71.33a1,1,0,0,0-.42.83v4.31a1,1,0,0,0,.42.83,1.83,1.83,0,0,0,1.11.3h3.55V77h-3.22a.75.75,0,0,1-.52-.15.62.62,0,0,1-.17-.48V74.51h3.41v-.65h-3.41V72.3a.61.61,0,0,1,.17-.47.75.75,0,0,1,.52-.15h3.22V71h-3.55a1.83,1.83,0,0,0-1.11.3"/><path class="cls-1" d="M214,74.16a1.36,1.36,0,0,0,1.27-1.46A1.58,1.58,0,0,0,213.5,71h-3.42V77.6h3.45c1.1,0,2.07-.39,2.07-1.79A1.54,1.54,0,0,0,214,74.16m0-2a1.5,1.5,0,0,1,0,1.33.73.73,0,0,1-.49.32,3,3,0,0,1-.84.1h-1.45V71.72H213a1.2,1.2,0,0,1,1,.4m-1,4.79h-1.81V74.49h1.46a4.4,4.4,0,0,1,1,.12.87.87,0,0,1,.53.38,1.49,1.49,0,0,1,.17.77c0,.89-.57,1.15-1.38,1.15"/><path class="cls-1" d="M236.61,71.68a2,2,0,0,0-1-.56,7.8,7.8,0,0,0-3.24,0,2.08,2.08,0,0,0-1,.56,2.33,2.33,0,0,0-.53,1,6.58,6.58,0,0,0-.16,1.6,6.69,6.69,0,0,0,.16,1.6,2.38,2.38,0,0,0,.53,1,2.16,2.16,0,0,0,1,.56,7.8,7.8,0,0,0,3.24,0,2.06,2.06,0,0,0,1-.56,2.37,2.37,0,0,0,.52-1,6.65,6.65,0,0,0,.17-1.6,6.53,6.53,0,0,0-.17-1.6,2.32,2.32,0,0,0-.52-1m-.72,4.2a1.35,1.35,0,0,1-.64.82,3.27,3.27,0,0,1-2.46,0,1.39,1.39,0,0,1-.64-.82,6.54,6.54,0,0,1,0-3.13,1.42,1.42,0,0,1,.64-.82,3.27,3.27,0,0,1,2.46,0,1.38,1.38,0,0,1,.64.82,6.54,6.54,0,0,1,0,3.13"/><path class="cls-1" d="M230,71h-1.15l-2,3.38L224.78,71h-1.15l2.62,4.2V76.3a8.92,8.92,0,0,1-.09,1.3h1.36a8,8,0,0,1-.1-1.3v-1Z"/><path class="cls-1" d="M244.17,71h-.1a8.2,8.2,0,0,1,.1,1.3v4.44l-3.3-5.48a.64.64,0,0,0-.17-.19.47.47,0,0,0-.28-.07h-1.34v3.7h0V76.3a8.92,8.92,0,0,1-.09,1.3h1.36a8,8,0,0,1-.1-1.3V72l3.25,5.37a.59.59,0,0,0,.18.2.51.51,0,0,0,.27.06h1.39V72.33a9.09,9.09,0,0,1,.09-1.3h-1.26Z"/><path class="cls-1" d="M133.25,71h-1.06c-.24,0-.31,0-.38.23-.2.51-2.54,6.34-2.54,6.34h1.21l.79-2.11h2.89c.44,1.15.8,2.11.8,2.11h1.21l-2.54-6.34c-.08-.19-.14-.23-.38-.23m-1.73,3.81c.58-1.52,1.18-3.13,1.2-3.17s.62,1.65,1.2,3.17Z"/><path class="cls-1" d="M119.38,71h-1.06c-.24,0-.31,0-.38.23-.2.51-2.54,6.34-2.54,6.34h1.2s.37-1,.8-2.11h2.89l.8,2.11h1.21s-2.47-6.16-2.55-6.34-.13-.23-.37-.23m-1.73,3.81c.58-1.52,1.18-3.13,1.2-3.17s.62,1.65,1.2,3.17Z"/><path class="cls-1" d="M106.91,71h-1.35a9.09,9.09,0,0,1,.09,1.3v4a8.92,8.92,0,0,1-.09,1.3h1.35a8.2,8.2,0,0,1-.1-1.3v-4a8.2,8.2,0,0,1,.1-1.3"/><path class="cls-1" d="M110.7,76.71a1.37,1.37,0,0,1-.64-.8,5.6,5.6,0,0,1-.19-1.59,5.68,5.68,0,0,1,.19-1.6,1.37,1.37,0,0,1,.64-.8,2.57,2.57,0,0,1,1.21-.24H114V71h-2.16a4.35,4.35,0,0,0-1.81.32,1.9,1.9,0,0,0-1,1,5,5,0,0,0-.31,1.94,4.89,4.89,0,0,0,.31,1.93,1.9,1.9,0,0,0,1,1,4.19,4.19,0,0,0,1.81.32h2.21V77h-2.14a2.57,2.57,0,0,1-1.21-.24"/><path class="cls-1" d="M127,74.13l-1.58-.4a2,2,0,0,1-.76-.31.89.89,0,0,1-.23-.7c0-1,.58-1,1-1h2.73V71h-3c-.7,0-1.93.19-1.93,1.63a1.78,1.78,0,0,0,.35,1.17,2,2,0,0,0,1.2.62l1.54.36c.59.14.93.35.93,1s0,1.19-.94,1.19h-2.9v.65h3.37c1.12,0,1.65-.63,1.65-1.8,0-1-.5-1.45-1.45-1.67"/><path class="cls-1" d="M103.4,74.32V71.38c0-.23-.14-.35-.41-.35h-1a.41.41,0,0,0-.44.28S99.8,76,99.75,76.15C99.69,76,98,71.31,98,71.31a.4.4,0,0,0-.42-.28h-1c-.27,0-.41.12-.42.35V76.3a8.2,8.2,0,0,1-.1,1.3h1.29a8,8,0,0,1-.1-1.3V71.72L99,76.51a.43.43,0,0,0,.45.28h.7a.41.41,0,0,0,.44-.28l1.76-4.79V76.3a8.2,8.2,0,0,1-.1,1.3h1.29a8.92,8.92,0,0,1-.09-1.3Z"/></g></g></svg>