<svg xmlns="http://www.w3.org/2000/svg" viewBox="0 0 73.84 45.64"><defs><style>.cls-1{fill:#28437e;}</style></defs><title>資產 2</title><g id="圖層_2" data-name="圖層 2"><g id="圖層_1-2" data-name="圖層 1"><path class="cls-1" d="M34.92,21.78h6.27a.26.26,0,0,1,.26.26V30.1h4.76v-11A.26.26,0,0,0,46,18.8h-11Z"/><path class="cls-1" d="M60.71,18.8h-11v3h4.49a.25.25,0,0,1,.25.26V30.1H61v-11a.26.26,0,0,0-.25-.26"/><path class="cls-1" d="M31.55,21.78V19.06a.26.26,0,0,0-.25-.26h-11v3h8.07a.25.25,0,0,1,.25.26V30.1h3Z"/><path class="cls-1" d="M46,33.15H35v3h6.23a.26.26,0,0,1,.26.25v9.26h4.81V33.4a.26.26,0,0,0-.26-.25"/><path class="cls-1" d="M60.71,33.15h-11v3h4.49a.25.25,0,0,1,.25.25v9.26H61V33.4a.25.25,0,0,0-.25-.25"/><path class="cls-1" d="M31.55,36.13V33.4a.25.25,0,0,0-.25-.25h-11v3h8.07a.25.25,0,0,1,.25.25v9.26h3Z"/><polygon class="cls-1" points="0 45.63 15.56 45.63 15.56 14.66 65.66 14.66 65.66 45.63 73.84 45.63 73.84 0 0 12.76 0 45.63"/></g></g></svg>