<?xml version="1.0" encoding="UTF-8"?>
<svg id="_圖層_2" data-name="圖層 2" xmlns="http://www.w3.org/2000/svg" viewBox="0 0 79.49 43.56">
  <defs>
    <style>
      .cls-1 {
        fill: #0080c0;
      }
    </style>
  </defs>
  <g id="_圖層_1-2" data-name="圖層 1">
    <g>
      <g>
        <path class="cls-1" d="M58.18,14.24c-1.42,.09-2.2,.45-2.49,.99-.15,.27-.23,.83-.23,.83,0,0-2.85-5.5-4.1-7.86-.47-.85-1.23-1.34-2.18-1.68h0c-3.95-.96-7.95-1.06-11.96-1.04v2.41c3.7,.02,7.4,.05,11.02,.74,.5,.08,.88,.35,1.12,.81,1.38,2.62,2.82,5.46,4.02,7.95-5.39-.56-10.78-.85-16.17-.84v13.17h5.65c.31,0,.57,.25,.57,.57v3.01c0,.31-.25,.57-.57,.57h-5.65v5.21c2.4,0,8.41,0,13.62,0v3.13c0,.73,.59,1.33,1.33,1.33h5.15c.73,0,1.33-.59,1.33-1.33v-3.3c.69-.3,1.2-.96,1.28-1.75,.34-3.36,.93-10.06,.94-12.12,.12-2.76-1.87-4.51-3.54-6.46-.04-.04-.13-.15-.13-.15,0,0,4.62-.62,4.51-2.68h0c-.25-1.79-2.05-1.63-3.52-1.53Zm-.42,11.76c-.73,2.33-4.11,2.25-5.01,2.27-.9,.02-5.44,.04-4.93-2.87,.35-1.8,4.44-3.43,6.7-3.47,2.23-.04,3.9,1.98,3.24,4.08Z"/>
        <g>
          <path class="cls-1" d="M79.45,7.46c-.12-.37-.26-.74-.37-1.11-.06-.18-.14-.2-.31-.15-1.05,.36-2.11,.71-3.16,1.06-.79,.26-1.46,.71-2,1.34-.61,.69-1.92,2.18-1.96,2.23,0-.02-.21-.06-.3,.03-.26,.27-1.14,1.3-1.14,1.3,0,0-.16-.15-.41-.15-1.29,.02-2.36,1.1-2.37,2.46-.01,2.02-.02,4.04-.03,6.06,0,.33,.15,.45,.54,.41,0,0,0,0,0,0v1.69c0,.34,.12,.66,.33,.9v3.7h2.04v-3.59c.27-.26,.44-.62,.44-1.02v-1.69c.43,0,.86,0,1.29,0,1.02,0,1.72-.7,1.72-1.72,0-1.21,0-2.42,.01-3.63,0-.17-.06-.28-.18-.39-.58-.5-1.84-1.62-1.84-1.62,0,0,.94-1.08,1.17-1.34,.17-.2,.07-.37,.07-.37,0,0,1.15-1.3,1.69-1.93,.48-.56,1.06-.94,1.76-1.17,.94-.31,1.88-.63,2.82-.95,.24-.08,.26-.13,.18-.36Zm-7.02,11.67c-.2-.44-.41-.87-.61-1.31-.27-.57-.19-1.03,.26-1.48,.07-.07,.73-.55,1.09-.49,0,1.17,0,2.34-.02,3.5,0,.53-.41,.93-.93,.95-.47,.01-1.28,0-1.74,0-.18,0-.33-.15-.33-.34v-3.82c.01-.19,.16-.34,.35-.33,.34,0,.85,0,1.18,0-.12,.16-.24,.3-.34,.45-.34,.53-.38,1.1-.14,1.67,.21,.49,.45,.97,.68,1.45,.09,.2,.27,.26,.44,.18,.16-.08,.22-.24,.13-.44Z"/>
          <path class="cls-1" d="M68.27,25.86v6.59c0,1.41-1.14,2.55-2.55,2.55s-2.55-1.14-2.55-2.55v-5.09c0-2.53-2.06-4.59-4.59-4.59v2.04c1.41,0,2.55,1.14,2.55,2.55v5.09c0,2.53,2.06,4.59,4.59,4.59s4.59-2.06,4.59-4.59v-6.59h-2.04Z"/>
        </g>
      </g>
      <g>
        <path class="cls-1" d="M26.2,8.65c3.63-.69,7.32-.72,11.02-.74v-2.41c-4-.02-8.01,.08-11.96,1.04h0c-.95,.34-1.71,.82-2.18,1.68-1.25,2.35-4.1,7.86-4.1,7.86,0,0-.08-.57-.23-.83-.29-.54-1.07-.9-2.49-.99-1.47-.09-3.27-.25-3.52,1.53h0c-.11,2.06,4.51,2.68,4.51,2.68,0,0-.1,.1-.13,.15-1.67,1.95-3.66,3.7-3.54,6.46,0,2.06,.6,8.75,.94,12.12,.08,.79,.59,1.45,1.28,1.75v3.3c0,.73,.59,1.33,1.33,1.33h5.15c.73,0,1.33-.59,1.33-1.33v-3.13c5.21,0,11.22,0,13.62,0v-5.21h-5.65c-.31,0-.57-.25-.57-.57v-3.01c0-.31,.25-.57,.57-.57h5.65v-13.17c-5.39,0-10.78,.28-16.17,.84,1.2-2.48,2.64-5.33,4.02-7.95,.24-.46,.62-.73,1.12-.81Zm.43,16.76c.5,2.91-4.04,2.88-4.93,2.87-.9-.02-4.28,.06-5.01-2.27-.66-2.09,1.01-4.12,3.24-4.08,2.26,.04,6.35,1.67,6.7,3.47Z"/>
        <g>
          <path class="cls-1" d="M4.59,33.87c-1.41,0-2.55-1.14-2.55-2.55s1.14-2.55,2.55-2.55h2.81c2.53,0,4.58-2.05,4.59-4.58h0V10.83h-2.04v13.35h0c0,1.41-1.14,2.55-2.55,2.55h-2.81c-2.53,0-4.59,2.06-4.59,4.59s2.06,4.59,4.59,4.59h12.65v-2.04H4.59Z"/>
          <path class="cls-1" d="M8.69,8.71h-.02v1.14c0,.34,.07,.7,.21,1.02,.23,.56,.78,.92,1.39,.93h1.4c.55,.02,1.06-.26,1.33-.74,.2-.36,.32-.78,.32-1.21v-1.14h-.02c.72-.64,1.17-1.57,1.17-2.6,0-.02,0-.04,0-.06h0v-1.22h.09c.17,0,.31-.14,.31-.31v-.61c0-.17-.14-.31-.31-.31h-1.03V.65C13.52,.32,13.27,.02,12.93,0c-.37-.02-.67,.27-.67,.63V3.6h-2.54V.65C9.72,.32,9.47,.02,9.13,0c-.37-.02-.67,.27-.67,.63V3.6h-1.03c-.17,0-.31,.14-.31,.31v.61c0,.17,.14,.31,.31,.31h.09v1.22h0s0,.04,0,.06c0,1.04,.45,1.97,1.17,2.6Z"/>
        </g>
      </g>
    </g>
  </g>
</svg>