<?xml version="1.0" encoding="UTF-8"?>
<svg id="_圖層_2" data-name="圖層 2" xmlns="http://www.w3.org/2000/svg" viewBox="0 0 48.87 42.43">
  <defs>
    <style>
      .cls-1 {
        fill: #0080c0;
      }
    </style>
  </defs>
  <g id="_圖層_1-2" data-name="圖層 1">
    <g>
      <path class="cls-1" d="M46.04,8V2.07c0-.62-.55-1.12-1.22-1.12h-.58c-.67,0-1.22,.5-1.22,1.12v5.93h-5.07V2.07c0-.62-.55-1.12-1.22-1.12h-.57c-.67,0-1.22,.5-1.22,1.12v5.93h-2.7v6.36c0,3.49,2.67,6.35,6.08,6.67h.03c.04,3.38-.92,6.7-2.82,9.6-5.19,7.9-15.83,10.1-23.73,4.91C3.91,30.35,1.71,19.71,6.9,11.81c2.51-3.81,6.34-6.42,10.81-7.36,2.64-.55,5.41-.47,8,.23,1.09,.3,2.21-.35,2.51-1.44,.24-.88-.13-1.77-.85-2.24-.18-.12-.37-.21-.59-.26-3.21-.88-6.64-.98-9.91-.29C11.34,1.61,6.58,4.85,3.48,9.57-2.95,19.34-.22,32.53,9.56,38.95c9.78,6.43,22.96,3.7,29.39-6.08,2.35-3.57,3.54-7.66,3.49-11.84,3.45-.28,6.43-3.15,6.43-6.67v-6.36h-2.83Z"/>
      <path class="cls-1" d="M28.1,18.64c-.11-.2-.31-.31-.57-.31h-5.52l1.6-8.53c.03-.14,.05-.34-.09-.5-.08-.1-.2-.15-.33-.15-.26,0-.4,.22-.46,.3l-8.59,12.64c-.15,.21-.17,.45-.06,.65,.1,.2,.31,.31,.57,.31h5.32l-1.64,9.56c-.02,.14-.04,.34,.09,.5,.08,.1,.2,.15,.33,.15h0c.26,0,.41-.23,.46-.31l8.83-13.66c.14-.22,.16-.45,.05-.65Z"/>
    </g>
  </g>
</svg>