<?xml version="1.0" encoding="UTF-8"?>
<svg id="_圖層_2" data-name="圖層 2" xmlns="http://www.w3.org/2000/svg" viewBox="0 0 46.38 46.62">
  <defs>
    <style>
      .cls-1 {
        fill: #0080c0;
      }
    </style>
  </defs>
  <g id="_圖層_1-2" data-name="圖層 1">
    <g>
      <path class="cls-1" d="M34.55,46.62H0c0-2.49,2.02-4.51,4.51-4.51H30.04c2.49,0,4.51,2.02,4.51,4.51h0Z"/>
      <path class="cls-1" d="M26.12,0H8.43c-2.44,0-4.43,1.99-4.43,4.43V40.02H30.55V4.43c0-2.44-1.99-4.43-4.43-4.43Zm.34,17.17H8.1V4.25H26.45v12.92Z"/>
      <path class="cls-1" d="M36.86,44.54c-1.96-1.94-2.6-6.05-1.4-10.45,1.01-3.71,.9-6.51-.33-8.12-1.19-1.56-3.15-1.61-3.17-1.61v-3.17c.15,0,3.53,.03,5.69,2.85,1.87,2.46,2.16,6.12,.86,10.88-1.04,3.78-.43,6.63,.47,7.27,.69,.49,3.16-3.18,4.07-11.66,.43-4.05-.03-8.78-1.33-13.66l3.06-.82c1.4,5.26,1.89,10.38,1.41,14.82-.89,8.27-2.89,13.29-5.86,14.36-1.17,.42-2.63,.15-3.49-.7Z"/>
      <path class="cls-1" d="M40.26,6.75h0c-.4-.83-1.26-2.29-2.88-3.69-2.61-2.25-5.56-2.28-5.68-2.28V3s2.28,.05,4.24,1.74c1.61,1.39,2.29,2.83,2.46,3.26l-4.11,2.75,4.51,5.81,5.66-1.72-4.19-8.1Z"/>
    </g>
  </g>
</svg>