<?xml version="1.0" encoding="UTF-8"?>
<svg id="_圖層_2" data-name="圖層 2" xmlns="http://www.w3.org/2000/svg" viewBox="0 0 94.08 40.11">
  <defs>
    <style>
      .cls-1 {
        fill: #0080c0;
      }

      .cls-2 {
        opacity: .4;
      }
    </style>
  </defs>
  <g id="_圖層_1-2" data-name="圖層 1">
    <g class="cls-2">
      <circle class="cls-1" cx="16.94" cy="31.23" r="8.89" transform="translate(-18.17 36.63) rotate(-70.27)"/>
      <circle class="cls-1" cx="81.1" cy="31.23" r="8.89"/>
      <path class="cls-1" d="M90.99,9.7l-8.27-5.89-.1-2.66L53.92,0s-12.45,.19-28.71,11.22l-17.16,3.23S.68,17.11,.21,22.34c-.47,5.23,0,6.56,0,6.56,0,0-.27,3.48,6.1,3.52-.04-.39-.07-.79-.07-1.19,0-5.9,4.8-10.7,10.7-10.7s10.7,4.8,10.7,10.7c0,.24-.01,.47-.03,.7,14.61-.36,33-.84,42.79-1.09,.21-5.72,4.92-10.31,10.69-10.31,5.09,0,9.35,3.57,10.43,8.33l2.49-1.58s.67-14.54-3.04-17.58Zm-39.93,2.13l-20.62,1.58s-3.61-.95,1.33-3.61c4.94-2.66,14.98-7.89,21.08-7.79l-1.79,9.83Zm22.91-1.75l-17.58,1.34,.66-9.41c6.75-.01,16.26-.08,19.49,.84,0,0-2.57,2.57-2.57,7.22Z"/>
    </g>
  </g>
</svg>