<?xml version="1.0" encoding="UTF-8"?>
<svg id="_圖層_2" data-name="圖層 2" xmlns="http://www.w3.org/2000/svg" viewBox="0 0 94.08 37.41">
  <defs>
    <style>
      .cls-1 {
        fill: #0080c0;
      }
    </style>
  </defs>
  <g id="_圖層_1-2" data-name="圖層 1">
    <g>
      <circle class="cls-1" cx="13.5" cy="30.2" r="7.21" transform="translate(-19.57 31.11) rotate(-67.5)"/>
      <circle class="cls-1" cx="78.99" cy="30.2" r="7.21"/>
      <path class="cls-1" d="M94.08,29.23s-.08-19.98-2.61-25.96c0,0-.59-3.29-4.3-3.2-3.71,.08-52.26,0-52.26,0,0,0-1.69-.67-7.42,2.36C21.76,5.46,2.2,15.41,.94,22.4c0,0-2.11,.76,0,9.44l3.97-.04c-.1-.52-.15-1.06-.15-1.61,0-4.82,3.92-8.74,8.73-8.74s8.73,3.92,8.73,8.74c0,.49-.04,.98-.12,1.45l48.21-.44c-.04-.33-.06-.67-.06-1.01,0-4.82,3.92-8.74,8.74-8.74s8.73,3.92,8.73,8.74c0,.06,0,.12,0,.19,1.54-.52,3.83-1.11,6.36-1.16ZM35.07,11.36c-2.61,.93-14.37,3.96-14.37,3.96,0,0-.8,.17-.8-1.01v-3.96s.25-1.18,2.36-2.61c2.11-1.43,7.33-5.73,10.2-5.73s5.06-.08,5.06,1.85v5.06s.17,1.52-2.44,2.44Z"/>
    </g>
  </g>
</svg>