<?xml version="1.0" encoding="UTF-8"?>
<svg id="_圖層_2" data-name="圖層 2" xmlns="http://www.w3.org/2000/svg" viewBox="0 0 94.08 33.2">
  <defs>
    <style>
      .cls-1 {
        fill: #0080c0;
      }

      .cls-2 {
        opacity: .4;
      }
    </style>
  </defs>
  <g id="_圖層_1-2" data-name="圖層 1">
    <g class="cls-2">
      <circle class="cls-1" cx="17.37" cy="26.62" r="6.58"/>
      <circle class="cls-1" cx="75.3" cy="26.62" r="6.58"/>
      <path class="cls-1" d="M94.07,22.37c-.1-1.55,.29-3-1.35-3.68,0,0,.58-5.13-1.84-8.61-2.42-3.48-3.48-7.25-9.96-8.41l-6.48-1.16S47.45-1.91,34.1,3.8c-13.35,5.71-15.76,8.1-23.98,10.29C1.9,16.27-.42,20.14,.06,23.82c.48,3.68,.1,4.35,2.61,4.35h6.74c-.1-.5-.15-1.02-.15-1.55,0-4.47,3.64-8.11,8.11-8.11s8.11,3.64,8.11,8.11c0,.53-.05,1.05-.15,1.55h42.02c-.1-.5-.15-1.02-.15-1.55,0-4.47,3.64-8.11,8.11-8.11s8.11,3.64,8.11,8.11c0,.53-.05,1.05-.15,1.55h.17s6.09-1.93,8.12-1.55c2.03,.39,2.61-2.71,2.51-4.26ZM20.83,14.08l-1.01-1.36C30.75,5.7,39.2,2.96,48.82,1.96l-1.78,10.16-26.21,1.97Zm56.58-4.25l-25.7,1.93V1.71c2.38-.16,4.84-.24,7.45-.27,14.5-.13,22.73,3.49,22.73,3.49l-4.47,4.9Z"/>
    </g>
  </g>
</svg>