<?xml version="1.0" encoding="UTF-8"?>
<svg id="_圖層_2" data-name="圖層 2" xmlns="http://www.w3.org/2000/svg" viewBox="0 0 39 21.37">
  <defs>
    <style>
      .cls-1 {
        fill: #fff;
      }
    </style>
  </defs>
  <g id="_圖層_1-2" data-name="圖層 1">
    <g>
      <g>
        <path class="cls-1" d="M28.54,6.99c-.7,.04-1.08,.22-1.22,.49-.07,.13-.11,.41-.11,.41,0,0-1.4-2.7-2.01-3.85-.23-.42-.61-.66-1.07-.82h0c-1.94-.47-3.9-.52-5.87-.51v1.18c1.82,.01,3.63,.02,5.41,.36,.25,.04,.43,.17,.55,.4,.68,1.29,1.38,2.68,1.97,3.9-2.64-.28-5.29-.41-7.93-.41v6.46h2.77c.15,0,.28,.12,.28,.28v1.48c0,.15-.12,.28-.28,.28h-2.77v2.56c1.18,0,4.13,0,6.68,0v1.53c0,.36,.29,.65,.65,.65h2.53c.36,0,.65-.29,.65-.65v-1.62c.34-.15,.59-.47,.63-.86,.17-1.65,.46-4.93,.46-5.94,.06-1.35-.92-2.21-1.74-3.17-.02-.02-.07-.07-.07-.07,0,0,2.27-.3,2.21-1.31h0c-.12-.88-1.01-.8-1.73-.75Zm-.21,5.77c-.36,1.14-2.02,1.1-2.46,1.11-.44,0-2.67,.02-2.42-1.41,.17-.88,2.18-1.68,3.29-1.7,1.09-.02,1.91,.97,1.59,2Z"/>
        <g>
          <path class="cls-1" d="M38.98,3.66c-.06-.18-.13-.36-.18-.54-.03-.09-.07-.1-.15-.07-.52,.18-1.03,.35-1.55,.52-.39,.13-.71,.35-.98,.66-.3,.34-.94,1.07-.96,1.1,0,0-.1-.03-.15,.02-.13,.13-.56,.64-.56,.64,0,0-.08-.08-.2-.07-.63,0-1.16,.54-1.16,1.21,0,.99,0,1.98-.01,2.97,0,.16,.08,.22,.26,.2,0,0,0,0,0,0v.83c0,.17,.06,.32,.16,.44v1.82h1v-1.76c.13-.13,.22-.3,.22-.5v-.83c.21,0,.42,0,.63,0,.5,0,.84-.34,.85-.85,0-.59,0-1.19,0-1.78,0-.08-.03-.14-.09-.19-.28-.25-.9-.79-.9-.79,0,0,.46-.53,.57-.66,.08-.1,.03-.18,.03-.18,0,0,.57-.64,.83-.95,.23-.27,.52-.46,.86-.57,.46-.15,.92-.31,1.38-.46,.12-.04,.13-.06,.09-.18Zm-3.45,5.72c-.1-.22-.2-.43-.3-.64-.13-.28-.09-.51,.13-.73,.03-.03,.36-.27,.53-.24,0,.58,0,1.15,0,1.72,0,.26-.2,.46-.46,.47-.23,0-.63,0-.85,0-.09,0-.16-.07-.16-.17v-1.88c0-.09,.08-.16,.17-.16,.17,0,.42,0,.58,0-.06,.08-.12,.15-.17,.22-.16,.26-.19,.54-.07,.82,.1,.24,.22,.48,.33,.71,.05,.1,.13,.13,.21,.09,.08-.04,.11-.12,.06-.22Z"/>
          <path class="cls-1" d="M33.49,12.69v3.23c0,.69-.56,1.25-1.25,1.25s-1.25-.56-1.25-1.25v-2.5c0-1.24-1.01-2.25-2.25-2.25v1c.69,0,1.25,.56,1.25,1.25v2.5c0,1.24,1.01,2.25,2.25,2.25s2.25-1.01,2.25-2.25v-3.23h-1Z"/>
        </g>
      </g>
      <g>
        <path class="cls-1" d="M12.85,4.24c1.78-.34,3.59-.35,5.41-.36v-1.18c-1.96-.01-3.93,.04-5.87,.51h0c-.46,.16-.84,.4-1.07,.82-.62,1.16-2.01,3.85-2.01,3.85,0,0-.04-.28-.11-.41-.14-.26-.53-.44-1.22-.49-.72-.05-1.6-.12-1.73,.75h0c-.06,1.01,2.21,1.31,2.21,1.31,0,0-.05,.05-.07,.07-.82,.95-1.79,1.81-1.74,3.17,0,1.01,.29,4.3,.46,5.94,.04,.39,.29,.71,.63,.86v1.62c0,.36,.29,.65,.65,.65h2.53c.36,0,.65-.29,.65-.65v-1.53c2.55,0,5.5,0,6.68,0v-2.56h-2.77c-.15,0-.28-.12-.28-.28v-1.48c0-.15,.12-.28,.28-.28h2.77v-6.46c-2.65,0-5.29,.14-7.93,.41,.59-1.22,1.3-2.61,1.97-3.9,.12-.23,.3-.36,.55-.4Zm.21,8.22c.25,1.43-1.98,1.41-2.42,1.41-.44,0-2.1,.03-2.46-1.11-.32-1.03,.5-2.02,1.59-2,1.11,.02,3.11,.82,3.29,1.7Z"/>
        <g>
          <path class="cls-1" d="M2.25,16.62c-.69,0-1.25-.56-1.25-1.25s.56-1.25,1.25-1.25h1.38c1.24,0,2.25-1.01,2.25-2.25h0V5.32h-1v6.55h0c0,.69-.56,1.25-1.25,1.25h-1.38c-1.24,0-2.25,1.01-2.25,2.25s1.01,2.25,2.25,2.25h6.21v-1H2.25Z"/>
          <path class="cls-1" d="M4.26,4.27h-.01v.56c0,.17,.04,.34,.1,.5,.11,.27,.38,.45,.68,.45h.69c.27,0,.52-.13,.65-.36,.1-.18,.16-.38,.16-.59v-.56h-.01c.35-.31,.58-.77,.58-1.28,0,0,0-.02,0-.03h0v-.6h.04c.08,0,.15-.07,.15-.15v-.3c0-.08-.07-.15-.15-.15h-.51V.32C6.63,.16,6.51,.01,6.34,0c-.18-.01-.33,.13-.33,.31V1.76h-1.25V.32C4.77,.16,4.64,.01,4.48,0c-.18-.01-.33,.13-.33,.31V1.76h-.51c-.08,0-.15,.07-.15,.15v.3c0,.08,.07,.15,.15,.15h.04v.6h0s0,.02,0,.03c0,.51,.22,.96,.58,1.28Z"/>
        </g>
      </g>
    </g>
  </g>
</svg>