<?xml version="1.0" encoding="UTF-8"?>
<svg id="_圖層_2" data-name="圖層 2" xmlns="http://www.w3.org/2000/svg" viewBox="0 0 39.05 33.91">
  <defs>
    <style>
      .cls-1 {
        fill: #fff;
      }
    </style>
  </defs>
  <g id="_圖層_1-2" data-name="圖層 1">
    <g>
      <path class="cls-1" d="M36.79,6.39V1.65c0-.49-.44-.89-.97-.89h-.46c-.54,0-.97,.4-.97,.89V6.39h-4.05V1.65c0-.49-.44-.89-.97-.89h-.46c-.54,0-.97,.4-.97,.89V6.39h-2.16v5.08c0,2.79,2.13,5.08,4.86,5.33h.02c.04,2.7-.73,5.36-2.25,7.67-4.15,6.31-12.65,8.07-18.96,3.92C3.12,24.25,1.37,15.75,5.51,9.44c2-3.05,5.07-5.13,8.64-5.88,2.11-.44,4.32-.38,6.4,.18,.87,.24,1.77-.28,2.01-1.15,.19-.7-.1-1.42-.68-1.79-.14-.09-.3-.17-.47-.21-2.57-.7-5.31-.78-7.92-.23C9.06,1.29,5.26,3.87,2.78,7.64-2.35,15.46-.17,25.99,7.64,31.13c7.81,5.14,18.35,2.96,23.48-4.86,1.87-2.85,2.83-6.12,2.79-9.46,2.75-.23,5.13-2.52,5.13-5.33V6.39h-2.26Z"/>
      <path class="cls-1" d="M22.46,14.89c-.09-.16-.25-.25-.46-.25h-4.41l1.28-6.81c.02-.11,.04-.27-.07-.4-.07-.08-.16-.12-.26-.12-.21,0-.32,.17-.37,.24l-6.86,10.1c-.12,.17-.13,.36-.05,.52,.08,.16,.25,.25,.46,.25h4.25l-1.31,7.64c-.02,.11-.03,.27,.08,.4,.07,.08,.16,.12,.26,.12h0c.21,0,.33-.18,.37-.25l7.05-10.91c.11-.17,.13-.36,.04-.52Z"/>
    </g>
  </g>
</svg>