<?xml version="1.0" encoding="UTF-8"?>
<svg id="_圖層_2" data-name="圖層 2" xmlns="http://www.w3.org/2000/svg" viewBox="0 0 21.81 23.39">
  <defs>
    <style>
      .cls-1 {
        fill: #fff;
      }
    </style>
  </defs>
  <g id="_圖層_1-2" data-name="圖層 1">
    <g>
      <path class="cls-1" d="M11.38,0H2.28C1.02,0,0,1.02,0,2.28V20.6H13.66V2.28c0-1.26-1.02-2.28-2.28-2.28Zm.17,8.84H2.11V2.19H11.55v6.65Z"/>
      <path class="cls-1" d="M16.91,22.93c-1.01-1-1.34-3.11-.72-5.38,.52-1.91,.46-3.35-.17-4.18-.61-.81-1.62-.83-1.63-.83v-1.63c.07,0,1.82,.02,2.93,1.47,.96,1.26,1.11,3.15,.44,5.6-.53,1.94-.22,3.41,.24,3.74,.35,.25,1.63-1.64,2.1-6,.22-2.09-.01-4.52-.68-7.03l1.58-.42c.72,2.71,.97,5.34,.73,7.63-.46,4.26-1.49,6.84-3.02,7.39-.6,.21-1.35,.08-1.79-.36Z"/>
      <path class="cls-1" d="M18.66,3.48h0c-.21-.43-.65-1.18-1.48-1.9-1.34-1.16-2.86-1.17-2.93-1.17V1.55s1.17,.03,2.18,.89c.83,.72,1.18,1.46,1.27,1.68l-2.12,1.42,2.32,2.99,2.91-.88-2.15-4.17Z"/>
    </g>
  </g>
</svg>