<?xml version="1.0" encoding="UTF-8"?>
<svg xmlns="http://www.w3.org/2000/svg" viewBox="0 0 249.03 98.16">
  <defs>
    <style>
      .cls-1 {
        fill: #0e0e0e;
        opacity: .95;
      }

      .cls-1, .cls-2, .cls-3, .cls-4, .cls-5, .cls-6, .cls-7, .cls-8, .cls-9, .cls-10, .cls-11, .cls-12, .cls-13, .cls-14, .cls-15, .cls-16, .cls-17, .cls-18, .cls-19, .cls-20, .cls-21, .cls-22, .cls-23, .cls-24, .cls-25, .cls-26, .cls-27, .cls-28, .cls-29, .cls-30, .cls-31, .cls-32, .cls-33, .cls-34, .cls-35, .cls-36, .cls-37, .cls-38, .cls-39, .cls-40, .cls-41, .cls-42, .cls-43, .cls-44, .cls-45, .cls-46, .cls-47, .cls-48, .cls-49, .cls-50, .cls-51, .cls-52, .cls-53, .cls-54, .cls-55, .cls-56, .cls-57, .cls-58, .cls-59, .cls-60, .cls-61, .cls-62, .cls-63, .cls-64, .cls-65, .cls-66, .cls-67, .cls-68, .cls-69, .cls-70, .cls-71, .cls-72, .cls-73, .cls-74, .cls-75, .cls-76, .cls-77, .cls-78, .cls-79, .cls-80, .cls-81, .cls-82, .cls-83, .cls-84, .cls-85, .cls-86, .cls-87, .cls-88, .cls-89, .cls-90, .cls-91, .cls-92, .cls-93, .cls-94, .cls-95, .cls-96, .cls-97, .cls-98, .cls-99, .cls-100, .cls-101, .cls-102, .cls-103, .cls-104, .cls-105, .cls-106, .cls-107, .cls-108, .cls-109, .cls-110, .cls-111, .cls-112, .cls-113, .cls-114, .cls-115, .cls-116, .cls-117, .cls-118, .cls-119, .cls-120, .cls-121, .cls-122, .cls-123, .cls-124, .cls-125, .cls-126, .cls-127, .cls-128, .cls-129, .cls-130, .cls-131, .cls-132, .cls-133, .cls-134, .cls-135, .cls-136, .cls-137, .cls-138, .cls-139, .cls-140, .cls-141, .cls-142, .cls-143, .cls-144, .cls-145, .cls-146, .cls-147, .cls-148, .cls-149, .cls-150, .cls-151, .cls-152, .cls-153, .cls-154, .cls-155, .cls-156, .cls-157, .cls-158, .cls-159, .cls-160, .cls-161, .cls-162, .cls-163, .cls-164, .cls-165, .cls-166, .cls-167, .cls-168, .cls-169, .cls-170, .cls-171, .cls-172, .cls-173, .cls-174, .cls-175, .cls-176, .cls-177, .cls-178, .cls-179, .cls-180, .cls-181, .cls-182, .cls-183, .cls-184, .cls-185, .cls-186, .cls-187, .cls-188, .cls-189, .cls-190, .cls-191, .cls-192, .cls-193, .cls-194, .cls-195, .cls-196, .cls-197, .cls-198, .cls-199, .cls-200, .cls-201, .cls-202, .cls-203, .cls-204, .cls-205, .cls-206, .cls-207, .cls-208, .cls-209, .cls-210, .cls-211, .cls-212, .cls-213, .cls-214, .cls-215, .cls-216, .cls-217, .cls-218, .cls-219, .cls-220, .cls-221, .cls-222, .cls-223, .cls-224, .cls-225, .cls-226, .cls-227, .cls-228, .cls-229, .cls-230, .cls-231, .cls-232, .cls-233, .cls-234, .cls-235, .cls-236, .cls-237, .cls-238, .cls-239, .cls-240, .cls-241, .cls-242, .cls-243, .cls-244, .cls-245, .cls-246, .cls-247, .cls-248, .cls-249, .cls-250, .cls-251, .cls-252, .cls-253, .cls-254, .cls-255, .cls-256, .cls-257 {
        mix-blend-mode: multiply;
      }

      .cls-2 {
        fill: #757575;
        opacity: .54;
      }

      .cls-3 {
        fill: #1f1f1f;
        opacity: .88;
      }

      .cls-4 {
        fill: #080808;
        opacity: .97;
      }

      .cls-5 {
        fill: #f0f0f0;
        opacity: .06;
      }

      .cls-6 {
        fill: #acacac;
        opacity: .33;
      }

      .cls-7 {
        fill: #6a6a6a;
        opacity: .58;
      }

      .cls-8 {
        fill: #898989;
        opacity: .46;
      }

      .cls-9 {
        fill: #575757;
        opacity: .66;
      }

      .cls-10 {
        fill: #1c1c1c;
        opacity: .89;
      }

      .cls-11 {
        fill: #393939;
        opacity: .78;
      }

      .cls-12 {
        fill: #272727;
        opacity: .85;
      }

      .cls-13 {
        fill: #b1b1b1;
        opacity: .31;
      }

      .cls-14 {
        fill: #a2a2a2;
        opacity: .36;
      }

      .cls-258, .cls-255 {
        fill: #fff;
      }

      .cls-15 {
        fill: #4a4a4a;
        opacity: .71;
      }

      .cls-16 {
        fill: #bbb;
        opacity: .27;
      }

      .cls-17 {
        fill: #505050;
        opacity: .69;
      }

      .cls-18 {
        fill: #d5d5d5;
        opacity: .16;
      }

      .cls-19 {
        fill: #959595;
        opacity: .42;
      }

      .cls-20 {
        fill: #f6f6f6;
        opacity: .04;
      }

      .cls-21 {
        fill: #f9f9f9;
        opacity: .02;
      }

      .cls-22 {
        fill: #4e4e4e;
        opacity: .69;
      }

      .cls-23 {
        fill: #efefef;
        opacity: .06;
      }

      .cls-24 {
        fill: #737373;
        opacity: .55;
      }

      .cls-25 {
        fill: #969696;
        opacity: .41;
      }

      .cls-26 {
        fill: #9b9b9b;
        opacity: .39;
      }

      .cls-27 {
        fill: #858585;
        opacity: .48;
      }

      .cls-28 {
        fill: #121212;
        opacity: .93;
      }

      .cls-29 {
        fill: #a6a6a6;
        opacity: .35;
      }

      .cls-30 {
        fill: #242424;
        opacity: .86;
      }

      .cls-31 {
        fill: #eaeaea;
        opacity: .08;
      }

      .cls-32 {
        fill: #181818;
        opacity: .91;
      }

      .cls-33 {
        fill: #ddd;
        opacity: .13;
      }

      .cls-34 {
        fill: #8f8f8f;
        opacity: .44;
      }

      .cls-35 {
        fill: #585858;
        opacity: .65;
      }

      .cls-36 {
        fill: #c5c5c5;
        opacity: .23;
      }

      .cls-37 {
        fill: #343434;
        opacity: .8;
      }

      .cls-38 {
        fill: #1b1b1b;
        opacity: .89;
      }

      .cls-39 {
        fill: #626262;
        opacity: .62;
      }

      .cls-40 {
        fill: #b8b8b8;
        opacity: .28;
      }

      .cls-41 {
        fill: #363636;
        opacity: .79;
      }

      .cls-42 {
        fill: #3f3f3f;
        opacity: .75;
      }

      .cls-43 {
        fill: #2f2f2f;
        opacity: .82;
      }

      .cls-44 {
        fill: #7a7a7a;
        opacity: .52;
      }

      .cls-45 {
        fill: #f8f8f8;
        opacity: .03;
      }

      .cls-46 {
        fill: #151515;
        opacity: .92;
      }

      .cls-47 {
        fill: #c3c3c3;
        opacity: .24;
      }

      .cls-48 {
        fill: #e0e0e0;
        opacity: .12;
      }

      .cls-49 {
        fill: #4d4d4d;
        opacity: .7;
      }

      .cls-50 {
        fill: #d6d6d6;
        opacity: .16;
      }

      .cls-51 {
        fill: #8e8e8e;
        opacity: .44;
      }

      .cls-52 {
        fill: #010101;
        opacity: 1;
      }

      .cls-53 {
        fill: #3a3a3a;
        opacity: .77;
      }

      .cls-54 {
        fill: #dbdbdb;
        opacity: .14;
      }

      .cls-55 {
        fill: #fdfdfd;
        opacity: 0;
      }

      .cls-56 {
        fill: #1a1a1a;
        opacity: .9;
      }

      .cls-57 {
        fill: #bcbcbc;
        opacity: .26;
      }

      .cls-259 {
        isolation: isolate;
      }

      .cls-58 {
        fill: #7e7e7e;
        opacity: .51;
      }

      .cls-59 {
        fill: #f4f4f4;
        opacity: .04;
      }

      .cls-60 {
        fill: #9d9d9d;
        opacity: .38;
      }

      .cls-61 {
        fill: #d3d3d3;
        opacity: .17;
      }

      .cls-62 {
        fill: #5d5d5d;
        opacity: .64;
      }

      .cls-63 {
        fill: #d1d1d1;
        opacity: .18;
      }

      .cls-64 {
        fill: #e8e8e8;
        opacity: .09;
      }

      .cls-65 {
        fill: silver;
        opacity: .25;
      }

      .cls-66 {
        fill: #383838;
        opacity: .78;
      }

      .cls-67 {
        fill: #a8a8a8;
        opacity: .34;
      }

      .cls-68 {
        fill: #d4d4d4;
        opacity: .17;
      }

      .cls-69 {
        fill: #2b2b2b;
        opacity: .83;
      }

      .cls-70 {
        fill: #030303;
        opacity: .99;
      }

      .cls-71 {
        fill: #797979;
        opacity: .53;
      }

      .cls-72 {
        fill: #929292;
        opacity: .43;
      }

      .cls-73 {
        fill: #101010;
        opacity: .94;
      }

      .cls-74 {
        fill: #5f5f5f;
        opacity: .63;
      }

      .cls-75 {
        fill: #070707;
        opacity: .97;
      }

      .cls-76 {
        fill: #d2d2d2;
        opacity: .18;
      }

      .cls-77 {
        fill: #f2f2f2;
        opacity: .05;
      }

      .cls-78 {
        fill: #1d1d1d;
        opacity: .89;
      }

      .cls-79 {
        fill: #a0a0a0;
        opacity: .37;
      }

      .cls-80 {
        fill: #aeaeae;
        opacity: .32;
      }

      .cls-81 {
        fill: #c9c9c9;
        opacity: .21;
      }

      .cls-82 {
        fill: #838383;
        opacity: .49;
      }

      .cls-83 {
        fill: #6f6f6f;
        opacity: .56;
      }

      .cls-84 {
        fill: #3d3d3d;
        opacity: .76;
      }

      .cls-85 {
        fill: #747474;
        opacity: .55;
      }

      .cls-86 {
        fill: #a7a7a7;
        opacity: .35;
      }

      .cls-87 {
        fill: #9e9e9e;
        opacity: .38;
      }

      .cls-88 {
        fill: #b7b7b7;
        opacity: .28;
      }

      .cls-89 {
        fill: #5b5b5b;
        opacity: .64;
      }

      .cls-90 {
        fill: #434343;
        opacity: .74;
      }

      .cls-91 {
        fill: #6d6d6d;
        opacity: .57;
      }

      .cls-92 {
        fill: #111;
        opacity: .93;
      }

      .cls-93 {
        fill: #bebebe;
        opacity: .25;
      }

      .cls-94 {
        fill: #202020;
        opacity: .87;
      }

      .cls-95 {
        fill: #0f0f0f;
        opacity: .94;
      }

      .cls-96 {
        fill: #e9e9e9;
        opacity: .09;
      }

      .cls-97 {
        fill: #4c4c4c;
        opacity: .7;
      }

      .cls-98 {
        fill: #dfdfdf;
        opacity: .13;
      }

      .cls-99 {
        fill: #292929;
        opacity: .84;
      }

      .cls-100 {
        fill: #696969;
        opacity: .59;
      }

      .cls-101 {
        fill: #aaa;
        opacity: .33;
      }

      .cls-102 {
        fill: #a4a4a4;
        opacity: .36;
      }

      .cls-103 {
        fill: #474747;
        opacity: .72;
      }

      .cls-104 {
        fill: #919191;
        opacity: .43;
      }

      .cls-105 {
        fill: #c2c2c2;
        opacity: .24;
      }

      .cls-106 {
        fill: #c1c1c1;
        opacity: .24;
      }

      .cls-107 {
        fill: #d7d7d7;
        opacity: .16;
      }

      .cls-108 {
        fill: #3b3b3b;
        opacity: .77;
      }

      .cls-109 {
        fill: #f7f7f7;
        opacity: .03;
      }

      .cls-110 {
        fill: #888;
        opacity: .47;
      }

      .cls-111 {
        fill: #515151;
        opacity: .68;
      }

      .cls-112 {
        fill: #494949;
        opacity: .71;
      }

      .cls-113 {
        fill: #2d2d2d;
        opacity: .82;
      }

      .cls-114 {
        fill: #5e5e5e;
        opacity: .63;
      }

      .cls-115 {
        fill: #646464;
        opacity: .61;
      }

      .cls-116 {
        fill: #131313;
        opacity: .93;
      }

      .cls-117 {
        fill: #818181;
        opacity: .49;
      }

      .cls-118 {
        fill: #787878;
        opacity: .53;
      }

      .cls-119 {
        fill: #f1f1f1;
        opacity: .05;
      }

      .cls-120 {
        fill: #6e6e6e;
        opacity: .57;
      }

      .cls-121 {
        fill: #555;
        opacity: .67;
      }

      .cls-122 {
        fill: #999;
        opacity: .4;
      }

      .cls-123 {
        fill: #b5b5b5;
        opacity: .29;
      }

      .cls-124 {
        fill: #424242;
        opacity: .74;
      }

      .cls-125 {
        fill: #0c0c0c;
        opacity: .95;
      }

      .cls-126 {
        fill: #afafaf;
        opacity: .31;
      }

      .cls-127 {
        fill: #f3f3f3;
        opacity: .05;
      }

      .cls-128 {
        fill: #a9a9a9;
        opacity: .34;
      }

      .cls-129 {
        fill: #c7c7c7;
        opacity: .22;
      }

      .cls-130 {
        fill: #484848;
        opacity: .72;
      }

      .cls-131 {
        fill: #535353;
        opacity: .67;
      }

      .cls-132 {
        fill: #3c3c3c;
        opacity: .76;
      }

      .cls-133 {
        fill: #bdbdbd;
        opacity: .26;
      }

      .cls-134 {
        fill: #656565;
        opacity: .6;
      }

      .cls-135 {
        fill: #d8d8d8;
        opacity: .15;
      }

      .cls-136 {
        fill: #e1e1e1;
        opacity: .12;
      }

      .cls-137 {
        fill: #3e3e3e;
        opacity: .76;
      }

      .cls-138 {
        fill: #c6c6c6;
        opacity: .22;
      }

      .cls-260 {
        fill: #021a35;
      }

      .cls-139 {
        fill: #dcdcdc;
        opacity: .14;
      }

      .cls-140 {
        fill: #e4e4e4;
        opacity: .11;
      }

      .cls-141 {
        fill: #444;
        opacity: .73;
      }

      .cls-142 {
        fill: #b4b4b4;
        opacity: .29;
      }

      .cls-143 {
        fill: #6c6c6c;
        opacity: .58;
      }

      .cls-144 {
        fill: #7b7b7b;
        opacity: .52;
      }

      .cls-145 {
        fill: #262626;
        opacity: .85;
      }

      .cls-146 {
        opacity: .3;
      }

      .cls-147 {
        fill: #b0b0b0;
        opacity: .31;
      }

      .cls-148 {
        fill: #161616;
        opacity: .91;
      }

      .cls-149 {
        fill: #ccc;
        opacity: .2;
      }

      .cls-150 {
        fill: #e7e7e7;
        opacity: .09;
      }

      .cls-261 {
        fill: #e07a1e;
      }

      .cls-151 {
        fill: #373737;
        opacity: .78;
      }

      .cls-152 {
        fill: #f5f5f5;
        opacity: .04;
      }

      .cls-153 {
        fill: #464646;
        opacity: .73;
      }

      .cls-154 {
        fill: #2e2e2e;
        opacity: .82;
      }

      .cls-155 {
        fill: #909090;
        opacity: .44;
      }

      .cls-156 {
        fill: #fbfbfb;
        opacity: .02;
      }

      .cls-157 {
        fill: #040404;
        opacity: .98;
      }

      .cls-158 {
        fill: #060606;
        opacity: .98;
      }

      .cls-159 {
        fill: #b3b3b3;
        opacity: .3;
      }

      .cls-160 {
        fill: #848484;
        opacity: .48;
      }

      .cls-161 {
        fill: #606060;
        opacity: .62;
      }

      .cls-162 {
        fill: #adadad;
        opacity: .32;
      }

      .cls-163 {
        fill: #4f4f4f;
        opacity: .69;
      }

      .cls-164 {
        fill: #989898;
        opacity: .4;
      }

      .cls-165 {
        fill: #454545;
        opacity: .73;
      }

      .cls-166 {
        fill: #404040;
        opacity: .75;
      }

      .cls-167 {
        fill: #e6e6e6;
        opacity: .1;
      }

      .cls-168 {
        fill: #6b6b6b;
        opacity: .58;
      }

      .cls-169 {
        fill: #090909;
        opacity: .96;
      }

      .cls-170 {
        fill: #b9b9b9;
        opacity: .27;
      }

      .cls-171 {
        fill: #d9d9d9;
        opacity: .15;
      }

      .cls-172 {
        fill: #717171;
        opacity: .56;
      }

      .cls-173 {
        fill: #2a2a2a;
        opacity: .84;
      }

      .cls-174 {
        fill: #686868;
        opacity: .59;
      }

      .cls-175 {
        fill: #0a0a0a;
        opacity: .96;
      }

      .cls-176 {
        fill: #cfcfcf;
        opacity: .19;
      }

      .cls-177 {
        fill: #c4c4c4;
        opacity: .23;
      }

      .cls-178 {
        fill: #5c5c5c;
        opacity: .64;
      }

      .cls-179 {
        fill: #bababa;
        opacity: .27;
      }

      .cls-180 {
        fill: #7f7f7f;
        opacity: .5;
      }

      .cls-181 {
        fill: #2c2c2c;
        opacity: .83;
      }

      .cls-182 {
        fill: #ececec;
        opacity: .07;
      }

      .cls-183 {
        fill: #1e1e1e;
        opacity: .88;
      }

      .cls-184 {
        fill: #222;
        opacity: .87;
      }

      .cls-185 {
        fill: #8d8d8d;
        opacity: .45;
      }

      .cls-186 {
        fill: #676767;
        opacity: .6;
      }

      .cls-187 {
        fill: #777;
        opacity: .53;
      }

      .cls-188 {
        fill: #fefefe;
        opacity: 0;
      }

      .cls-189 {
        fill: #333;
        opacity: .8;
      }

      .cls-190 {
        fill: #ebebeb;
        opacity: .08;
      }

      .cls-191 {
        fill: #e3e3e3;
        opacity: .11;
      }

      .cls-192 {
        fill: #878787;
        opacity: .47;
      }

      .cls-193 {
        fill: #9a9a9a;
        opacity: .4;
      }

      .cls-194 {
        fill: #e5e5e5;
        opacity: .1;
      }

      .cls-195 {
        fill: #282828;
        opacity: .84;
      }

      .cls-196 {
        fill: #767676;
        opacity: .54;
      }

      .cls-197 {
        fill: #141414;
        opacity: .92;
      }

      .cls-198 {
        fill: #636363;
        opacity: .61;
      }

      .cls-199 {
        fill: #979797;
        opacity: .41;
      }

      .cls-200 {
        fill: #191919;
        opacity: .9;
      }

      .cls-201 {
        fill: #939393;
        opacity: .42;
      }

      .cls-202 {
        fill: #a3a3a3;
        opacity: .36;
      }

      .cls-203 {
        fill: #a1a1a1;
        opacity: .37;
      }

      .cls-204 {
        fill: #e2e2e2;
        opacity: .11;
      }

      .cls-205 {
        fill: #dadada;
        opacity: .15;
      }

      .cls-206 {
        fill: #666;
        opacity: .6;
      }

      .cls-207 {
        fill: #7d7d7d;
        opacity: .51;
      }

      .cls-208 {
        fill: #fcfcfc;
        opacity: .01;
      }

      .cls-209 {
        fill: gray;
        opacity: .5;
      }

      .cls-210 {
        fill: #cecece;
        opacity: .19;
      }

      .cls-211 {
        fill: #ababab;
        opacity: .33;
      }

      .cls-212 {
        fill: #616161;
        opacity: .62;
      }

      .cls-213 {
        fill: #5a5a5a;
        opacity: .65;
      }

      .cls-214 {
        fill: #353535;
        opacity: .79;
      }

      .cls-215 {
        fill: #727272;
        opacity: .55;
      }

      .cls-216 {
        fill: #171717;
        opacity: .91;
      }

      .cls-217 {
        fill: #707070;
        opacity: .56;
      }

      .cls-218 {
        fill: #eee;
        opacity: .07;
      }

      .cls-219 {
        fill: #313131;
        opacity: .81;
      }

      .cls-220 {
        fill: #212121;
        opacity: .87;
      }

      .cls-221 {
        fill: #9f9f9f;
        opacity: .38;
      }

      .cls-222 {
        fill: #b6b6b6;
        opacity: .29;
      }

      .cls-223 {
        fill: #cacaca;
        opacity: .21;
      }

      .cls-224 {
        fill: #595959;
        opacity: .65;
      }

      .cls-225 {
        fill: #9c9c9c;
        opacity: .39;
      }

      .cls-226 {
        fill: #525252;
        opacity: .68;
      }

      .cls-227 {
        fill: #020202;
        opacity: .99;
      }

      .cls-228 {
        fill: #cbcbcb;
        opacity: .2;
      }

      .cls-229 {
        fill: #232323;
        opacity: .86;
      }

      .cls-230 {
        fill: #303030;
        opacity: .81;
      }

      .cls-231 {
        fill: #bfbfbf;
        opacity: .25;
      }

      .cls-232 {
        fill: #fafafa;
        opacity: .02;
      }

      .cls-233 {
        fill: #323232;
        opacity: .8;
      }

      .cls-234 {
        fill: #7c7c7c;
        opacity: .51;
      }

      .cls-235 {
        fill: #d0d0d0;
        opacity: .18;
      }

      .cls-236 {
        fill: #dedede;
        opacity: .13;
      }

      .cls-237 {
        fill: #8c8c8c;
        opacity: .45;
      }

      .cls-238 {
        fill: #ededed;
        opacity: .07;
      }

      .cls-239 {
        fill: #4b4b4b;
        opacity: .71;
      }

      .cls-240 {
        fill: #0b0b0b;
        opacity: .96;
      }

      .cls-241 {
        fill: #949494;
        opacity: .42;
      }

      .cls-242 {
        fill: #8a8a8a;
        opacity: .46;
      }

      .cls-244 {
        fill: #828282;
        opacity: .49;
      }

      .cls-245 {
        fill: #8b8b8b;
        opacity: .45;
      }

      .cls-246 {
        fill: #c8c8c8;
        opacity: .22;
      }

      .cls-247 {
        fill: #414141;
        opacity: .75;
      }

      .cls-248 {
        fill: #a5a5a5;
        opacity: .35;
      }

      .cls-249 {
        fill: #0d0d0d;
        opacity: .95;
      }

      .cls-250 {
        fill: #050505;
        opacity: .98;
      }

      .cls-251 {
        fill: #545454;
        opacity: .67;
      }

      .cls-252 {
        fill: #868686;
        opacity: .47;
      }

      .cls-253 {
        fill: #b2b2b2;
        opacity: .3;
      }

      .cls-262 {
        fill: #fca829;
      }

      .cls-254 {
        fill: #cdcdcd;
        opacity: .2;
      }

      .cls-255 {
        opacity: 0;
      }

      .cls-256 {
        fill: #252525;
        opacity: .85;
      }

      .cls-257 {
        fill: #565656;
        opacity: .66;
      }
    </style>
  </defs>
  <g class="cls-259">
    <g id="_圖層_2" data-name="圖層 2">
      <g id="_圖層_1-2" data-name="圖層 1">
        <g>
          <g class="cls-146">
            <path class="cls-255" d="M239.59,21.67H104.43l-13.87-12.28H10.11V57.93c0,22.37,18.25,40.44,40.62,40.23h0c12.12-.12,22.95-5.59,30.25-14.16H219.73c5.37,0,10.21-3.27,12.2-8.27l16.42-41.14c2.47-6.19-2.09-12.92-8.75-12.92Z"/>
            <path class="cls-188" d="M239.55,21.63H104.39l-13.87-12.28H10.07V57.89c0,22.37,18.25,40.44,40.62,40.23h0c12.12-.12,22.95-5.59,30.25-14.16H219.69c5.37,0,10.21-3.27,12.2-8.27l16.42-41.14c2.47-6.19-2.09-12.92-8.75-12.92Z"/>
            <path class="cls-55" d="M239.51,21.6H104.35l-13.87-12.28H10.03V57.85c0,22.37,18.25,40.44,40.62,40.23h0c12.12-.12,22.95-5.59,30.25-14.16H219.65c5.37,0,10.21-3.27,12.2-8.27l16.42-41.14c2.47-6.19-2.09-12.92-8.75-12.92Z"/>
            <path class="cls-208" d="M239.47,21.56H104.31l-13.87-12.28H9.99V57.82c0,22.37,18.25,40.44,40.62,40.23h0c12.12-.12,22.95-5.59,30.25-14.16H219.61c5.37,0,10.21-3.27,12.2-8.27l16.42-41.14c2.47-6.19-2.09-12.92-8.75-12.92Z"/>
            <path class="cls-156" d="M239.44,21.52H104.27l-13.87-12.28H9.95V57.78c0,22.37,18.25,40.44,40.62,40.23h0c12.12-.12,22.95-5.59,30.25-14.16H219.57c5.37,0,10.21-3.27,12.2-8.27l16.42-41.14c2.47-6.19-2.09-12.92-8.75-12.92Z"/>
            <path class="cls-232" d="M239.4,21.49H104.23l-13.87-12.28H9.91V57.74c0,22.37,18.25,40.44,40.62,40.23h0c12.12-.12,22.95-5.59,30.25-14.16H219.53c5.37,0,10.21-3.27,12.2-8.27l16.42-41.14c2.47-6.19-2.09-12.92-8.75-12.92Z"/>
            <path class="cls-21" d="M239.36,21.45H104.19l-13.87-12.28H9.87V57.71c0,22.37,18.25,40.44,40.62,40.23h0c12.12-.12,22.95-5.59,30.25-14.16H219.5c5.37,0,10.21-3.27,12.2-8.27l16.42-41.14c2.47-6.19-2.09-12.92-8.75-12.92Z"/>
            <path class="cls-45" d="M239.32,21.41H104.15l-13.87-12.28H9.83V57.67c0,22.37,18.25,40.44,40.62,40.23h0c12.12-.12,22.95-5.59,30.25-14.16H219.46c5.37,0,10.21-3.27,12.2-8.27l16.42-41.14c2.47-6.19-2.09-12.92-8.75-12.92Z"/>
            <path class="cls-109" d="M239.28,21.38H104.12l-13.87-12.28H9.79V57.63c0,22.37,18.25,40.44,40.62,40.23h0c12.12-.12,22.95-5.59,30.25-14.16H219.42c5.37,0,10.21-3.27,12.2-8.27l16.42-41.14c2.47-6.19-2.09-12.92-8.75-12.92Z"/>
            <path class="cls-20" d="M239.24,21.34H104.08l-13.87-12.28H9.75V57.6c0,22.37,18.25,40.44,40.62,40.23h0c12.12-.12,22.95-5.59,30.25-14.16H219.38c5.37,0,10.21-3.27,12.2-8.27l16.42-41.14c2.47-6.19-2.09-12.92-8.75-12.92Z"/>
            <path class="cls-152" d="M239.2,21.3H104.04l-13.87-12.28H9.71V57.56c0,22.37,18.25,40.44,40.62,40.23h0c12.12-.12,22.95-5.59,30.25-14.16H219.34c5.37,0,10.21-3.27,12.2-8.27l16.42-41.14c2.47-6.19-2.09-12.92-8.75-12.92Z"/>
            <path class="cls-59" d="M239.16,21.27H104l-13.87-12.28H9.67V57.52c0,22.37,18.25,40.44,40.62,40.23h0c12.12-.12,22.95-5.59,30.25-14.16H219.3c5.37,0,10.21-3.27,12.2-8.27l16.42-41.14c2.47-6.19-2.09-12.92-8.75-12.92Z"/>
            <path class="cls-127" d="M239.12,21.23H103.96l-13.87-12.28H9.63V57.49c0,22.37,18.25,40.44,40.62,40.23h0c12.12-.12,22.95-5.59,30.25-14.16H219.26c5.37,0,10.21-3.27,12.2-8.27l16.42-41.14c2.47-6.19-2.09-12.92-8.75-12.92Z"/>
            <path class="cls-77" d="M239.08,21.19H103.92l-13.87-12.28H9.59V57.45c0,22.37,18.25,40.44,40.62,40.23h0c12.12-.12,22.95-5.59,30.25-14.16H219.22c5.37,0,10.21-3.27,12.2-8.27l16.42-41.14c2.47-6.19-2.09-12.92-8.75-12.92Z"/>
            <path class="cls-119" d="M239.04,21.16H103.88l-13.87-12.28H9.55V57.41c0,22.37,18.25,40.44,40.62,40.23h0c12.12-.12,22.95-5.59,30.25-14.16H219.18c5.37,0,10.21-3.27,12.2-8.27l16.42-41.14c2.47-6.19-2.09-12.92-8.75-12.92Z"/>
            <path class="cls-5" d="M239,21.12H103.84l-13.87-12.28H9.51V57.38c0,22.37,18.25,40.44,40.62,40.23h0c12.12-.12,22.95-5.59,30.25-14.16H219.14c5.37,0,10.21-3.27,12.2-8.27l16.42-41.14c2.47-6.19-2.09-12.92-8.75-12.92Z"/>
            <path class="cls-23" d="M238.96,21.08H103.8l-13.87-12.28H9.47V57.34c0,22.37,18.25,40.44,40.62,40.23h0c12.12-.12,22.95-5.59,30.25-14.16H219.1c5.37,0,10.21-3.27,12.2-8.27l16.42-41.14c2.47-6.19-2.09-12.92-8.75-12.92Z"/>
            <path class="cls-218" d="M238.92,21.05H103.76l-13.87-12.28H9.43V57.3c0,22.37,18.25,40.44,40.62,40.23h0c12.12-.12,22.95-5.59,30.25-14.16H219.06c5.37,0,10.21-3.27,12.2-8.27l16.42-41.14c2.47-6.19-2.09-12.92-8.75-12.92Z"/>
            <path class="cls-238" d="M238.88,21.01H103.72l-13.87-12.28H9.39V57.27c0,22.37,18.25,40.44,40.62,40.23h0c12.12-.12,22.95-5.59,30.25-14.16H219.02c5.37,0,10.21-3.27,12.2-8.27l16.42-41.14c2.47-6.19-2.09-12.92-8.75-12.92Z"/>
            <path class="cls-182" d="M238.84,20.97H103.68l-13.87-12.28H9.35V57.23c0,22.37,18.25,40.44,40.62,40.23h0c12.12-.12,22.95-5.59,30.25-14.16H218.98c5.37,0,10.21-3.27,12.2-8.27l16.42-41.14c2.47-6.19-2.09-12.92-8.75-12.92Z"/>
            <path class="cls-190" d="M238.8,20.94H103.64l-13.87-12.28H9.31V57.19c0,22.37,18.25,40.44,40.62,40.23h0c12.12-.12,22.95-5.59,30.25-14.16H218.94c5.37,0,10.21-3.27,12.2-8.27l16.42-41.14c2.47-6.19-2.09-12.92-8.75-12.92Z"/>
            <path class="cls-31" d="M238.76,20.9H103.6l-13.87-12.28H9.27V57.15c0,22.37,18.25,40.44,40.62,40.23h0c12.12-.12,22.95-5.59,30.25-14.16H218.9c5.37,0,10.21-3.27,12.2-8.27l16.42-41.14c2.47-6.19-2.09-12.92-8.75-12.92Z"/>
            <path class="cls-96" d="M238.72,20.86H103.56l-13.87-12.28H9.24V57.12c0,22.37,18.25,40.44,40.62,40.23h0c12.12-.12,22.95-5.59,30.25-14.16H218.86c5.37,0,10.21-3.27,12.2-8.27l16.42-41.14c2.47-6.19-2.09-12.92-8.75-12.92Z"/>
            <path class="cls-64" d="M238.68,20.82H103.52l-13.87-12.28H9.2V57.08c0,22.37,18.25,40.44,40.62,40.23h0c12.12-.12,22.95-5.59,30.25-14.16H218.82c5.37,0,10.21-3.27,12.2-8.27l16.42-41.14c2.47-6.19-2.09-12.92-8.75-12.92Z"/>
            <path class="cls-150" d="M238.64,20.79H103.48l-13.87-12.28H9.16V57.04c0,22.37,18.25,40.44,40.62,40.23h0c12.12-.12,22.95-5.59,30.25-14.16H218.78c5.37,0,10.21-3.27,12.2-8.27l16.42-41.14c2.47-6.19-2.09-12.92-8.75-12.92Z"/>
            <path class="cls-167" d="M238.6,20.75H103.44l-13.87-12.28H9.12V57.01c0,22.37,18.25,40.44,40.62,40.23h0c12.12-.12,22.95-5.59,30.25-14.16H218.74c5.37,0,10.21-3.27,12.2-8.27l16.42-41.14c2.47-6.19-2.09-12.92-8.75-12.92Z"/>
            <path class="cls-194" d="M238.56,20.71H103.4l-13.87-12.28H9.08V56.97c0,22.37,18.25,40.44,40.62,40.23h0c12.12-.12,22.95-5.59,30.25-14.16H218.7c5.37,0,10.21-3.27,12.2-8.27l16.42-41.14c2.47-6.19-2.09-12.92-8.75-12.92Z"/>
            <path class="cls-140" d="M238.52,20.68H103.36l-13.87-12.28H9.04V56.93c0,22.37,18.25,40.44,40.62,40.23h0c12.12-.12,22.95-5.59,30.25-14.16H218.66c5.37,0,10.21-3.27,12.2-8.27l16.42-41.14c2.47-6.19-2.09-12.92-8.75-12.92Z"/>
            <path class="cls-191" d="M238.48,20.64H103.32l-13.87-12.28H9V56.9c0,22.37,18.25,40.44,40.62,40.23h0c12.12-.12,22.95-5.59,30.25-14.16H218.62c5.37,0,10.21-3.27,12.2-8.27l16.42-41.14c2.47-6.19-2.09-12.92-8.75-12.92Z"/>
            <path class="cls-204" d="M238.44,20.6H103.28l-13.87-12.28H8.96V56.86c0,22.37,18.25,40.44,40.62,40.23h0c12.12-.12,22.95-5.59,30.25-14.16H218.58c5.37,0,10.21-3.27,12.2-8.27l16.42-41.14c2.47-6.19-2.09-12.92-8.75-12.92Z"/>
            <path class="cls-136" d="M238.4,20.57H103.24l-13.87-12.28H8.92V56.82c0,22.37,18.25,40.44,40.62,40.23h0c12.12-.12,22.95-5.59,30.25-14.16H218.54c5.37,0,10.21-3.27,12.2-8.27l16.42-41.14c2.47-6.19-2.09-12.92-8.75-12.92Z"/>
            <path class="cls-48" d="M238.37,20.53H103.2l-13.87-12.28H8.88V56.79c0,22.37,18.25,40.44,40.62,40.23h0c12.12-.12,22.95-5.59,30.25-14.16H218.5c5.37,0,10.21-3.27,12.2-8.27l16.42-41.14c2.47-6.19-2.09-12.92-8.75-12.92Z"/>
            <path class="cls-98" d="M238.33,20.49H103.16l-13.87-12.28H8.84V56.75c0,22.37,18.25,40.44,40.62,40.23h0c12.12-.12,22.95-5.59,30.25-14.16H218.46c5.37,0,10.21-3.27,12.2-8.27l16.42-41.14c2.47-6.19-2.09-12.92-8.75-12.92Z"/>
            <path class="cls-236" d="M238.29,20.46H103.12l-13.87-12.28H8.8V56.71c0,22.37,18.25,40.44,40.62,40.23h0c12.12-.12,22.95-5.59,30.25-14.16H218.42c5.37,0,10.21-3.27,12.2-8.27l16.42-41.14c2.47-6.19-2.09-12.92-8.75-12.92Z"/>
            <path class="cls-33" d="M238.25,20.42H103.08l-13.87-12.28H8.76V56.68c0,22.37,18.25,40.44,40.62,40.23h0c12.12-.12,22.95-5.59,30.25-14.16H218.39c5.37,0,10.21-3.27,12.2-8.27l16.42-41.14c2.47-6.19-2.09-12.92-8.75-12.92Z"/>
            <path class="cls-139" d="M238.21,20.38H103.04l-13.87-12.28H8.72V56.64c0,22.37,18.25,40.44,40.62,40.23h0c12.12-.12,22.95-5.59,30.25-14.16H218.35c5.37,0,10.21-3.27,12.2-8.27l16.42-41.14c2.47-6.19-2.09-12.92-8.75-12.92Z"/>
            <path class="cls-54" d="M238.17,20.35H103.01l-13.87-12.28H8.68V56.6c0,22.37,18.25,40.44,40.62,40.23h0c12.12-.12,22.95-5.59,30.25-14.16H218.31c5.37,0,10.21-3.27,12.2-8.27l16.42-41.14c2.47-6.19-2.09-12.92-8.75-12.92Z"/>
            <path class="cls-205" d="M238.13,20.31H102.97l-13.87-12.28H8.64V56.57c0,22.37,18.25,40.44,40.62,40.23h0c12.12-.12,22.95-5.59,30.25-14.16H218.27c5.37,0,10.21-3.27,12.2-8.27l16.42-41.14c2.47-6.19-2.09-12.92-8.75-12.92Z"/>
            <path class="cls-171" d="M238.09,20.27H102.93l-13.87-12.28H8.6V56.53c0,22.37,18.25,40.44,40.62,40.23h0c12.12-.12,22.95-5.59,30.25-14.16H218.23c5.37,0,10.21-3.27,12.2-8.27l16.42-41.14c2.47-6.19-2.09-12.92-8.75-12.92Z"/>
            <path class="cls-135" d="M238.05,20.24H102.89l-13.87-12.28H8.56V56.49c0,22.37,18.25,40.44,40.62,40.23h0c12.12-.12,22.95-5.59,30.25-14.16H218.19c5.37,0,10.21-3.27,12.2-8.27l16.42-41.14c2.47-6.19-2.09-12.92-8.75-12.92Z"/>
            <path class="cls-107" d="M238.01,20.2H102.85l-13.87-12.28H8.52V56.46c0,22.37,18.25,40.44,40.62,40.23h0c12.12-.12,22.95-5.59,30.25-14.16H218.15c5.37,0,10.21-3.27,12.2-8.27l16.42-41.14c2.47-6.19-2.09-12.92-8.75-12.92Z"/>
            <path class="cls-50" d="M237.97,20.16H102.81l-13.87-12.28H8.48V56.42c0,22.37,18.25,40.44,40.62,40.23h0c12.12-.12,22.95-5.59,30.25-14.16H218.11c5.37,0,10.21-3.27,12.2-8.27l16.42-41.14c2.47-6.19-2.09-12.92-8.75-12.92Z"/>
            <path class="cls-18" d="M237.93,20.13H102.77l-13.87-12.28H8.44V56.38c0,22.37,18.25,40.44,40.62,40.23h0c12.12-.12,22.95-5.59,30.25-14.16H218.07c5.37,0,10.21-3.27,12.2-8.27l16.42-41.14c2.47-6.19-2.09-12.92-8.75-12.92Z"/>
            <path class="cls-68" d="M237.89,20.09H102.73l-13.87-12.28H8.4V56.34c0,22.37,18.25,40.44,40.62,40.23h0c12.12-.12,22.95-5.59,30.25-14.16H218.03c5.37,0,10.21-3.27,12.2-8.27l16.42-41.14c2.47-6.19-2.09-12.92-8.75-12.92Z"/>
            <path class="cls-61" d="M237.85,20.05H102.69l-13.87-12.28H8.36V56.31c0,22.37,18.25,40.44,40.62,40.23h0c12.12-.12,22.95-5.59,30.25-14.16H217.99c5.37,0,10.21-3.27,12.2-8.27l16.42-41.14c2.47-6.19-2.09-12.92-8.75-12.92Z"/>
            <path class="cls-76" d="M237.81,20.01H102.65l-13.87-12.28H8.32V56.27c0,22.37,18.25,40.44,40.62,40.23h0c12.12-.12,22.95-5.59,30.25-14.16H217.95c5.37,0,10.21-3.27,12.2-8.27l16.42-41.14c2.47-6.19-2.09-12.92-8.75-12.92Z"/>
            <path class="cls-63" d="M237.77,19.98H102.61l-13.87-12.28H8.28V56.23c0,22.37,18.25,40.44,40.62,40.23h0c12.12-.12,22.95-5.59,30.25-14.16H217.91c5.37,0,10.21-3.27,12.2-8.27l16.42-41.14c2.47-6.19-2.09-12.92-8.75-12.92Z"/>
            <path class="cls-235" d="M237.73,19.94H102.57l-13.87-12.28H8.24V56.2c0,22.37,18.25,40.44,40.62,40.23h0c12.12-.12,22.95-5.59,30.25-14.16H217.87c5.37,0,10.21-3.27,12.2-8.27l16.42-41.14c2.47-6.19-2.09-12.92-8.75-12.92Z"/>
            <path class="cls-176" d="M237.69,19.9H102.53l-13.87-12.28H8.2V56.16c0,22.37,18.25,40.44,40.62,40.23h0c12.12-.12,22.95-5.59,30.25-14.16H217.83c5.37,0,10.21-3.27,12.2-8.27l16.42-41.14c2.47-6.19-2.09-12.92-8.75-12.92Z"/>
            <path class="cls-210" d="M237.65,19.87H102.49l-13.87-12.28H8.17V56.12c0,22.37,18.25,40.44,40.62,40.23h0c12.12-.12,22.95-5.59,30.25-14.16H217.79c5.37,0,10.21-3.27,12.2-8.27l16.42-41.14c2.47-6.19-2.09-12.92-8.75-12.92Z"/>
            <path class="cls-254" d="M237.61,19.83H102.45l-13.87-12.28H8.13V56.09c0,22.37,18.25,40.44,40.62,40.23h0c12.12-.12,22.95-5.59,30.25-14.16H217.75c5.37,0,10.21-3.27,12.2-8.27l16.42-41.14c2.47-6.19-2.09-12.92-8.75-12.92Z"/>
            <path class="cls-149" d="M237.57,19.79H102.41l-13.87-12.28H8.09V56.05c0,22.37,18.25,40.44,40.62,40.23h0c12.12-.12,22.95-5.59,30.25-14.16H217.71c5.37,0,10.21-3.27,12.2-8.27l16.42-41.14c2.47-6.19-2.09-12.92-8.75-12.92Z"/>
            <path class="cls-228" d="M237.53,19.76H102.37l-13.87-12.28H8.05V56.01c0,22.37,18.25,40.44,40.62,40.23h0c12.12-.12,22.95-5.59,30.25-14.16H217.67c5.37,0,10.21-3.27,12.2-8.27l16.42-41.14c2.47-6.19-2.09-12.92-8.75-12.92Z"/>
            <path class="cls-223" d="M237.49,19.72H102.33l-13.87-12.28H8.01V55.98c0,22.37,18.25,40.44,40.62,40.23h0c12.12-.12,22.95-5.59,30.25-14.16H217.63c5.37,0,10.21-3.27,12.2-8.27l16.42-41.14c2.47-6.19-2.09-12.92-8.75-12.92Z"/>
            <path class="cls-81" d="M237.45,19.68H102.29l-13.87-12.28H7.97V55.94c0,22.37,18.25,40.44,40.62,40.23h0c12.12-.12,22.95-5.59,30.25-14.16H217.59c5.37,0,10.21-3.27,12.2-8.27l16.42-41.14c2.47-6.19-2.09-12.92-8.75-12.92Z"/>
            <path class="cls-246" d="M237.41,19.65H102.25l-13.87-12.28H7.93V55.9c0,22.37,18.25,40.44,40.62,40.23h0c12.12-.12,22.95-5.59,30.25-14.16H217.55c5.37,0,10.21-3.27,12.2-8.27l16.42-41.14c2.47-6.19-2.09-12.92-8.75-12.92Z"/>
            <path class="cls-129" d="M237.37,19.61H102.21l-13.87-12.28H7.89V55.87c0,22.37,18.25,40.44,40.62,40.23h0c12.12-.12,22.95-5.59,30.25-14.16H217.51c5.37,0,10.21-3.27,12.2-8.27l16.42-41.14c2.47-6.19-2.09-12.92-8.75-12.92Z"/>
            <path class="cls-138" d="M237.33,19.57H102.17l-13.87-12.28H7.85V55.83c0,22.37,18.25,40.44,40.62,40.23h0c12.12-.12,22.95-5.59,30.25-14.16H217.47c5.37,0,10.21-3.27,12.2-8.27l16.42-41.14c2.47-6.19-2.09-12.92-8.75-12.92Z"/>
            <path class="cls-36" d="M237.29,19.54H102.13l-13.87-12.28H7.81V55.79c0,22.37,18.25,40.44,40.62,40.23h0c12.12-.12,22.95-5.59,30.25-14.16H217.43c5.37,0,10.21-3.27,12.2-8.27l16.42-41.14c2.47-6.19-2.09-12.92-8.75-12.92Z"/>
            <path class="cls-177" d="M237.26,19.5H102.09l-13.87-12.28H7.77V55.76c0,22.37,18.25,40.44,40.62,40.23h0c12.12-.12,22.95-5.59,30.25-14.16H217.39c5.37,0,10.21-3.27,12.2-8.27l16.42-41.14c2.47-6.19-2.09-12.92-8.75-12.92Z"/>
            <path class="cls-47" d="M237.22,19.46H102.05l-13.87-12.28H7.73V55.72c0,22.37,18.25,40.44,40.62,40.23h0c12.12-.12,22.95-5.59,30.25-14.16H217.35c5.37,0,10.21-3.27,12.2-8.27l16.42-41.14c2.47-6.19-2.09-12.92-8.75-12.92Z"/>
            <path class="cls-105" d="M237.18,19.43H102.01l-13.87-12.28H7.69V55.68c0,22.37,18.25,40.44,40.62,40.23h0c12.12-.12,22.95-5.59,30.25-14.16H217.32c5.37,0,10.21-3.27,12.2-8.27l16.42-41.14c2.47-6.19-2.09-12.92-8.75-12.92Z"/>
            <path class="cls-106" d="M237.14,19.39H101.97l-13.87-12.28H7.65V55.65c0,22.37,18.25,40.44,40.62,40.23h0c12.12-.12,22.95-5.59,30.25-14.16H217.28c5.37,0,10.21-3.27,12.2-8.27l16.42-41.14c2.47-6.19-2.09-12.92-8.75-12.92Z"/>
            <path class="cls-65" d="M237.1,19.35H101.94l-13.87-12.28H7.61V55.61c0,22.37,18.25,40.44,40.62,40.23h0c12.12-.12,22.95-5.59,30.25-14.16H217.24c5.37,0,10.21-3.27,12.2-8.27l16.42-41.14c2.47-6.19-2.09-12.92-8.75-12.92Z"/>
            <path class="cls-231" d="M237.06,19.32H101.9l-13.87-12.28H7.57V55.57c0,22.37,18.25,40.44,40.62,40.23h0c12.12-.12,22.95-5.59,30.25-14.16H217.2c5.37,0,10.21-3.27,12.2-8.27l16.42-41.14c2.47-6.19-2.09-12.92-8.75-12.92Z"/>
            <path class="cls-93" d="M237.02,19.28H101.86l-13.87-12.28H7.53V55.53c0,22.37,18.25,40.44,40.62,40.23h0c12.12-.12,22.95-5.59,30.25-14.16H217.16c5.37,0,10.21-3.27,12.2-8.27l16.42-41.14c2.47-6.19-2.09-12.92-8.75-12.92Z"/>
            <path class="cls-133" d="M236.98,19.24H101.82l-13.87-12.28H7.49V55.5c0,22.37,18.25,40.44,40.62,40.23h0c12.12-.12,22.95-5.59,30.25-14.16H217.12c5.37,0,10.21-3.27,12.2-8.27l16.42-41.14c2.47-6.19-2.09-12.92-8.75-12.92Z"/>
            <path class="cls-57" d="M236.94,19.2H101.78l-13.87-12.28H7.45V55.46c0,22.37,18.25,40.44,40.62,40.23h0c12.12-.12,22.95-5.59,30.25-14.16H217.08c5.37,0,10.21-3.27,12.2-8.27l16.42-41.14c2.47-6.19-2.09-12.92-8.75-12.92Z"/>
            <path class="cls-16" d="M236.9,19.17H101.74l-13.87-12.28H7.41V55.42c0,22.37,18.25,40.44,40.62,40.23h0c12.12-.12,22.95-5.59,30.25-14.16H217.04c5.37,0,10.21-3.27,12.2-8.27l16.42-41.14c2.47-6.19-2.09-12.92-8.75-12.92Z"/>
            <path class="cls-179" d="M236.86,19.13H101.7l-13.87-12.28H7.37V55.39c0,22.37,18.25,40.44,40.62,40.23h0c12.12-.12,22.95-5.59,30.25-14.16H217c5.37,0,10.21-3.27,12.2-8.27l16.42-41.14c2.47-6.19-2.09-12.92-8.75-12.92Z"/>
            <path class="cls-170" d="M236.82,19.09H101.66l-13.87-12.28H7.33V55.35c0,22.37,18.25,40.44,40.62,40.23h0c12.12-.12,22.95-5.59,30.25-14.16H216.96c5.37,0,10.21-3.27,12.2-8.27l16.42-41.14c2.47-6.19-2.09-12.92-8.75-12.92Z"/>
            <path class="cls-40" d="M236.78,19.06H101.62l-13.87-12.28H7.29V55.31c0,22.37,18.25,40.44,40.62,40.23h0c12.12-.12,22.95-5.59,30.25-14.16H216.92c5.37,0,10.21-3.27,12.2-8.27l16.42-41.14c2.47-6.19-2.09-12.92-8.75-12.92Z"/>
            <path class="cls-88" d="M236.74,19.02H101.58l-13.87-12.28H7.25V55.28c0,22.37,18.25,40.44,40.62,40.23h0c12.12-.12,22.95-5.59,30.25-14.16H216.88c5.37,0,10.21-3.27,12.2-8.27l16.42-41.14c2.47-6.19-2.09-12.92-8.75-12.92Z"/>
            <path class="cls-222" d="M236.7,18.98H101.54l-13.87-12.28H7.21V55.24c0,22.37,18.25,40.44,40.62,40.23h0c12.12-.12,22.95-5.59,30.25-14.16H216.84c5.37,0,10.21-3.27,12.2-8.27l16.42-41.14c2.47-6.19-2.09-12.92-8.75-12.92Z"/>
            <path class="cls-123" d="M236.66,18.95H101.5l-13.87-12.28H7.17V55.2c0,22.37,18.25,40.44,40.62,40.23h0c12.12-.12,22.95-5.59,30.25-14.16H216.8c5.37,0,10.21-3.27,12.2-8.27l16.42-41.14c2.47-6.19-2.09-12.92-8.75-12.92Z"/>
            <path class="cls-142" d="M236.62,18.91H101.46l-13.87-12.28H7.13V55.17c0,22.37,18.25,40.44,40.62,40.23h0c12.12-.12,22.95-5.59,30.25-14.16H216.76c5.37,0,10.21-3.27,12.2-8.27l16.42-41.14c2.47-6.19-2.09-12.92-8.75-12.92Z"/>
            <path class="cls-159" d="M236.58,18.87H101.42l-13.87-12.28H7.09V55.13c0,22.37,18.25,40.44,40.62,40.23h0c12.12-.12,22.95-5.59,30.25-14.16H216.72c5.37,0,10.21-3.27,12.2-8.27l16.42-41.14c2.47-6.19-2.09-12.92-8.75-12.92Z"/>
            <path class="cls-253" d="M236.54,18.84H101.38l-13.87-12.28H7.06V55.09c0,22.37,18.25,40.44,40.62,40.23h0c12.12-.12,22.95-5.59,30.25-14.16H216.68c5.37,0,10.21-3.27,12.2-8.27l16.42-41.14c2.47-6.19-2.09-12.92-8.75-12.92Z"/>
            <path class="cls-13" d="M236.5,18.8H101.34l-13.87-12.28H7.02V55.06c0,22.37,18.25,40.44,40.62,40.23h0c12.12-.12,22.95-5.59,30.25-14.16H216.64c5.37,0,10.21-3.27,12.2-8.27l16.42-41.14c2.47-6.19-2.09-12.92-8.75-12.92Z"/>
            <path class="cls-147" d="M236.46,18.76H101.3l-13.87-12.28H6.98V55.02c0,22.37,18.25,40.44,40.62,40.23h0c12.12-.12,22.95-5.59,30.25-14.16H216.6c5.37,0,10.21-3.27,12.2-8.27l16.42-41.14c2.47-6.19-2.09-12.92-8.75-12.92Z"/>
            <path class="cls-126" d="M236.42,18.73H101.26l-13.87-12.28H6.94V54.98c0,22.37,18.25,40.44,40.62,40.23h0c12.12-.12,22.95-5.59,30.25-14.16H216.56c5.37,0,10.21-3.27,12.2-8.27l16.42-41.14c2.47-6.19-2.09-12.92-8.75-12.92Z"/>
            <path class="cls-80" d="M236.38,18.69H101.22l-13.87-12.28H6.9V54.95c0,22.37,18.25,40.44,40.62,40.23h0c12.12-.12,22.95-5.59,30.25-14.16H216.52c5.37,0,10.21-3.27,12.2-8.27l16.42-41.14c2.47-6.19-2.09-12.92-8.75-12.92Z"/>
            <path class="cls-162" d="M236.34,18.65H101.18l-13.87-12.28H6.86V54.91c0,22.37,18.25,40.44,40.62,40.23h0c12.12-.12,22.95-5.59,30.25-14.16H216.48c5.37,0,10.21-3.27,12.2-8.27l16.42-41.14c2.47-6.19-2.09-12.92-8.75-12.92Z"/>
            <path class="cls-6" d="M236.3,18.62H101.14l-13.87-12.28H6.82V54.87c0,22.37,18.25,40.44,40.62,40.23h0c12.12-.12,22.95-5.59,30.25-14.16H216.44c5.37,0,10.21-3.27,12.2-8.27l16.42-41.14c2.47-6.19-2.09-12.92-8.75-12.92Z"/>
            <path class="cls-211" d="M236.26,18.58H101.1l-13.87-12.28H6.78V54.84c0,22.37,18.25,40.44,40.62,40.23h0c12.12-.12,22.95-5.59,30.25-14.16H216.4c5.37,0,10.21-3.27,12.2-8.27l16.42-41.14c2.47-6.19-2.09-12.92-8.75-12.92Z"/>
            <path class="cls-101" d="M236.22,18.54H101.06l-13.87-12.28H6.74V54.8c0,22.37,18.25,40.44,40.62,40.23h0c12.12-.12,22.95-5.59,30.25-14.16H216.36c5.37,0,10.21-3.27,12.2-8.27l16.42-41.14c2.47-6.19-2.09-12.92-8.75-12.92Z"/>
            <path class="cls-128" d="M236.19,18.5H101.02l-13.87-12.28H6.7V54.76c0,22.37,18.25,40.44,40.62,40.23h0c12.12-.12,22.95-5.59,30.25-14.16H216.32c5.37,0,10.21-3.27,12.2-8.27l16.42-41.14c2.47-6.19-2.09-12.92-8.75-12.92Z"/>
            <path class="cls-67" d="M236.15,18.47H100.98l-13.87-12.28H6.66V54.72c0,22.37,18.25,40.44,40.62,40.23h0c12.12-.12,22.95-5.59,30.25-14.16H216.28c5.37,0,10.21-3.27,12.2-8.27l16.42-41.14c2.47-6.19-2.09-12.92-8.75-12.92Z"/>
            <path class="cls-86" d="M236.11,18.43H100.94l-13.87-12.28H6.62V54.69c0,22.37,18.25,40.44,40.62,40.23h0c12.12-.12,22.95-5.59,30.25-14.16H216.24c5.37,0,10.21-3.27,12.2-8.27l16.42-41.14c2.47-6.19-2.09-12.92-8.75-12.92Z"/>
            <path class="cls-29" d="M236.07,18.39H100.9l-13.87-12.28H6.58V54.65c0,22.37,18.25,40.44,40.62,40.23h0c12.12-.12,22.95-5.59,30.25-14.16H216.21c5.37,0,10.21-3.27,12.2-8.27l16.42-41.14c2.47-6.19-2.09-12.92-8.75-12.92Z"/>
            <path class="cls-248" d="M236.03,18.36H100.86l-13.87-12.28H6.54V54.61c0,22.37,18.25,40.44,40.62,40.23h0c12.12-.12,22.95-5.59,30.25-14.16H216.17c5.37,0,10.21-3.27,12.2-8.27l16.42-41.14c2.47-6.19-2.09-12.92-8.75-12.92Z"/>
            <path class="cls-102" d="M235.99,18.32H100.83l-13.87-12.28H6.5V54.58c0,22.37,18.25,40.44,40.62,40.23h0c12.12-.12,22.95-5.59,30.25-14.16H216.13c5.37,0,10.21-3.27,12.2-8.27l16.42-41.14c2.47-6.19-2.09-12.92-8.75-12.92Z"/>
            <path class="cls-202" d="M235.95,18.28H100.79l-13.87-12.28H6.46V54.54c0,22.37,18.25,40.44,40.62,40.23h0c12.12-.12,22.95-5.59,30.25-14.16H216.09c5.37,0,10.21-3.27,12.2-8.27l16.42-41.14c2.47-6.19-2.09-12.92-8.75-12.92Z"/>
            <path class="cls-14" d="M235.91,18.25H100.75l-13.87-12.28H6.42V54.5c0,22.37,18.25,40.44,40.62,40.23h0c12.12-.12,22.95-5.59,30.25-14.16H216.05c5.37,0,10.21-3.27,12.2-8.27l16.42-41.14c2.47-6.19-2.09-12.92-8.75-12.92Z"/>
            <path class="cls-203" d="M235.87,18.21H100.71l-13.87-12.28H6.38V54.47c0,22.37,18.25,40.44,40.62,40.23h0c12.12-.12,22.95-5.59,30.25-14.16H216.01c5.37,0,10.21-3.27,12.2-8.27l16.42-41.14c2.47-6.19-2.09-12.92-8.75-12.92Z"/>
            <path class="cls-79" d="M235.83,18.17H100.67l-13.87-12.28H6.34V54.43c0,22.37,18.25,40.44,40.62,40.23h0c12.12-.12,22.95-5.59,30.25-14.16H215.97c5.37,0,10.21-3.27,12.2-8.27l16.42-41.14c2.47-6.19-2.09-12.92-8.75-12.92Z"/>
            <path class="cls-221" d="M235.79,18.14H100.63l-13.87-12.28H6.3V54.39c0,22.37,18.25,40.44,40.62,40.23h0c12.12-.12,22.95-5.59,30.25-14.16H215.93c5.37,0,10.21-3.27,12.2-8.27l16.42-41.14c2.47-6.19-2.09-12.92-8.75-12.92Z"/>
            <path class="cls-87" d="M235.75,18.1H100.59l-13.87-12.28H6.26V54.36c0,22.37,18.25,40.44,40.62,40.23h0c12.12-.12,22.95-5.59,30.25-14.16H215.89c5.37,0,10.21-3.27,12.2-8.27l16.42-41.14c2.47-6.19-2.09-12.92-8.75-12.92Z"/>
            <path class="cls-60" d="M235.71,18.06H100.55l-13.87-12.28H6.22V54.32c0,22.37,18.25,40.44,40.62,40.23h0c12.12-.12,22.95-5.59,30.25-14.16H215.85c5.37,0,10.21-3.27,12.2-8.27l16.42-41.14c2.47-6.19-2.09-12.92-8.75-12.92Z"/>
            <path class="cls-225" d="M235.67,18.03H100.51l-13.87-12.28H6.18V54.28c0,22.37,18.25,40.44,40.62,40.23h0c12.12-.12,22.95-5.59,30.25-14.16H215.81c5.37,0,10.21-3.27,12.2-8.27l16.42-41.14c2.47-6.19-2.09-12.92-8.75-12.92Z"/>
            <path class="cls-26" d="M235.63,17.99H100.47l-13.87-12.28H6.14V54.25c0,22.37,18.25,40.44,40.62,40.23h0c12.12-.12,22.95-5.59,30.25-14.16H215.77c5.37,0,10.21-3.27,12.2-8.27l16.42-41.14c2.47-6.19-2.09-12.92-8.75-12.92Z"/>
            <path class="cls-193" d="M235.59,17.95H100.43l-13.87-12.28H6.1V54.21c0,22.37,18.25,40.44,40.62,40.23h0c12.12-.12,22.95-5.59,30.25-14.16H215.73c5.37,0,10.21-3.27,12.2-8.27l16.42-41.14c2.47-6.19-2.09-12.92-8.75-12.92Z"/>
            <path class="cls-122" d="M235.55,17.92H100.39l-13.87-12.28H6.06V54.17c0,22.37,18.25,40.44,40.62,40.23h0c12.12-.12,22.95-5.59,30.25-14.16H215.69c5.37,0,10.21-3.27,12.2-8.27l16.42-41.14c2.47-6.19-2.09-12.92-8.75-12.92Z"/>
            <path class="cls-164" d="M235.51,17.88H100.35l-13.87-12.28H6.02V54.14c0,22.37,18.25,40.44,40.62,40.23h0c12.12-.12,22.95-5.59,30.25-14.16H215.65c5.37,0,10.21-3.27,12.2-8.27l16.42-41.14c2.47-6.19-2.09-12.92-8.75-12.92Z"/>
            <path class="cls-199" d="M235.47,17.84H100.31l-13.87-12.28H5.99V54.1c0,22.37,18.25,40.44,40.62,40.23h0c12.12-.12,22.95-5.59,30.25-14.16H215.61c5.37,0,10.21-3.27,12.2-8.27l16.42-41.14c2.47-6.19-2.09-12.92-8.75-12.92Z"/>
            <path class="cls-25" d="M235.43,17.81H100.27l-13.87-12.28H5.95V54.06c0,22.37,18.25,40.44,40.62,40.23h0c12.12-.12,22.95-5.59,30.25-14.16H215.57c5.37,0,10.21-3.27,12.2-8.27l16.42-41.14c2.47-6.19-2.09-12.92-8.75-12.92Z"/>
            <path class="cls-19" d="M235.39,17.77H100.23l-13.87-12.28H5.91V54.03c0,22.37,18.25,40.44,40.62,40.23h0c12.12-.12,22.95-5.59,30.25-14.16H215.53c5.37,0,10.21-3.27,12.2-8.27l16.42-41.14c2.47-6.19-2.09-12.92-8.75-12.92Z"/>
            <path class="cls-241" d="M235.35,17.73H100.19l-13.87-12.28H5.87V53.99c0,22.37,18.25,40.44,40.62,40.23h0c12.12-.12,22.95-5.59,30.25-14.16H215.49c5.37,0,10.21-3.27,12.2-8.27l16.42-41.14c2.47-6.19-2.09-12.92-8.75-12.92Z"/>
            <path class="cls-201" d="M235.31,17.69H100.15l-13.87-12.28H5.83V53.95c0,22.37,18.25,40.44,40.62,40.23h0c12.12-.12,22.95-5.59,30.25-14.16H215.45c5.37,0,10.21-3.27,12.2-8.27l16.42-41.14c2.47-6.19-2.09-12.92-8.75-12.92Z"/>
            <path class="cls-72" d="M235.27,17.66H100.11l-13.87-12.28H5.79V53.91c0,22.37,18.25,40.44,40.62,40.23h0c12.12-.12,22.95-5.59,30.25-14.16H215.41c5.37,0,10.21-3.27,12.2-8.27l16.42-41.14c2.47-6.19-2.09-12.92-8.75-12.92Z"/>
            <path class="cls-104" d="M235.23,17.62H100.07l-13.87-12.28H5.75V53.88c0,22.37,18.25,40.44,40.62,40.23h0c12.12-.12,22.95-5.59,30.25-14.16H215.37c5.37,0,10.21-3.27,12.2-8.27l16.42-41.14c2.47-6.19-2.09-12.92-8.75-12.92Z"/>
            <path class="cls-155" d="M235.19,17.58H100.03l-13.87-12.28H5.71V53.84c0,22.37,18.25,40.44,40.62,40.23h0c12.12-.12,22.95-5.59,30.25-14.16H215.33c5.37,0,10.21-3.27,12.2-8.27l16.42-41.14c2.47-6.19-2.09-12.92-8.75-12.92Z"/>
            <path class="cls-34" d="M235.15,17.55H99.99l-13.87-12.28H5.67V53.8c0,22.37,18.25,40.44,40.62,40.23h0c12.12-.12,22.95-5.59,30.25-14.16H215.29c5.37,0,10.21-3.27,12.2-8.27l16.42-41.14c2.47-6.19-2.09-12.92-8.75-12.92Z"/>
            <path class="cls-51" d="M235.11,17.51H99.95l-13.87-12.28H5.63V53.77c0,22.37,18.25,40.44,40.62,40.23h0c12.12-.12,22.95-5.59,30.25-14.16H215.25c5.37,0,10.21-3.27,12.2-8.27l16.42-41.14c2.47-6.19-2.09-12.92-8.75-12.92Z"/>
            <path class="cls-185" d="M235.08,17.47H99.91l-13.87-12.28H5.59V53.73c0,22.37,18.25,40.44,40.62,40.23h0c12.12-.12,22.95-5.59,30.25-14.16H215.21c5.37,0,10.21-3.27,12.2-8.27l16.42-41.14c2.47-6.19-2.09-12.92-8.75-12.92Z"/>
            <path class="cls-237" d="M235.04,17.44H99.87l-13.87-12.28H5.55V53.69c0,22.37,18.25,40.44,40.62,40.23h0c12.12-.12,22.95-5.59,30.25-14.16H215.17c5.37,0,10.21-3.27,12.2-8.27l16.42-41.14c2.47-6.19-2.09-12.92-8.75-12.92Z"/>
            <path class="cls-245" d="M235,17.4H99.83l-13.87-12.28H5.51V53.66c0,22.37,18.25,40.44,40.62,40.23h0c12.12-.12,22.95-5.59,30.25-14.16H215.14c5.37,0,10.21-3.27,12.2-8.27l16.42-41.14c2.47-6.19-2.09-12.92-8.75-12.92Z"/>
            <path class="cls-242" d="M234.96,17.36H99.79l-13.87-12.28H5.47V53.62c0,22.37,18.25,40.44,40.62,40.23h0c12.12-.12,22.95-5.59,30.25-14.16H215.1c5.37,0,10.21-3.27,12.2-8.27l16.42-41.14c2.47-6.19-2.09-12.92-8.75-12.92Z"/>
            <path class="cls-8" d="M234.92,17.33H99.76l-13.87-12.28H5.43V53.58c0,22.37,18.25,40.44,40.62,40.23h0c12.12-.12,22.95-5.59,30.25-14.16H215.06c5.37,0,10.21-3.27,12.2-8.27l16.42-41.14c2.47-6.19-2.09-12.92-8.75-12.92Z"/>
            <path class="cls-110" d="M234.88,17.29H99.72l-13.87-12.28H5.39V53.55c0,22.37,18.25,40.44,40.62,40.23h0c12.12-.12,22.95-5.59,30.25-14.16H215.02c5.37,0,10.21-3.27,12.2-8.27l16.42-41.14c2.47-6.19-2.09-12.92-8.75-12.92Z"/>
            <path class="cls-192" d="M234.84,17.25H99.68l-13.87-12.28H5.35V53.51c0,22.37,18.25,40.44,40.62,40.23h0c12.12-.12,22.95-5.59,30.25-14.16H214.98c5.37,0,10.21-3.27,12.2-8.27l16.42-41.14c2.47-6.19-2.09-12.92-8.75-12.92Z"/>
            <path class="cls-252" d="M234.8,17.22H99.64l-13.87-12.28H5.31V53.47c0,22.37,18.25,40.44,40.62,40.23h0c12.12-.12,22.95-5.59,30.25-14.16H214.94c5.37,0,10.21-3.27,12.2-8.27l16.42-41.14c2.47-6.19-2.09-12.92-8.75-12.92Z"/>
            <path class="cls-27" d="M234.76,17.18H99.6l-13.87-12.28H5.27V53.44c0,22.37,18.25,40.44,40.62,40.23h0c12.12-.12,22.95-5.59,30.25-14.16H214.9c5.37,0,10.21-3.27,12.2-8.27l16.42-41.14c2.47-6.19-2.09-12.92-8.75-12.92Z"/>
            <path class="cls-160" d="M234.72,17.14H99.56l-13.87-12.28H5.23V53.4c0,22.37,18.25,40.44,40.62,40.23h0c12.12-.12,22.95-5.59,30.25-14.16H214.86c5.37,0,10.21-3.27,12.2-8.27l16.42-41.14c2.47-6.19-2.09-12.92-8.75-12.92Z"/>
            <path class="cls-82" d="M234.68,17.11H99.52l-13.87-12.28H5.19V53.36c0,22.37,18.25,40.44,40.62,40.23h0c12.12-.12,22.95-5.59,30.25-14.16H214.82c5.37,0,10.21-3.27,12.2-8.27l16.42-41.14c2.47-6.19-2.09-12.92-8.75-12.92Z"/>
            <path class="cls-244" d="M234.64,17.07H99.48l-13.87-12.28H5.15V53.33c0,22.37,18.25,40.44,40.62,40.23h0c12.12-.12,22.95-5.59,30.25-14.16H214.78c5.37,0,10.21-3.27,12.2-8.27l16.42-41.14c2.47-6.19-2.09-12.92-8.75-12.92Z"/>
            <path class="cls-117" d="M234.6,17.03H99.44l-13.87-12.28H5.11V53.29c0,22.37,18.25,40.44,40.62,40.23h0c12.12-.12,22.95-5.59,30.25-14.16H214.74c5.37,0,10.21-3.27,12.2-8.27l16.42-41.14c2.47-6.19-2.09-12.92-8.75-12.92Z"/>
            <path class="cls-209" d="M234.56,17H99.4l-13.87-12.28H5.07V53.25c0,22.37,18.25,40.44,40.62,40.23h0c12.12-.12,22.95-5.59,30.25-14.16H214.7c5.37,0,10.21-3.27,12.2-8.27l16.42-41.14c2.47-6.19-2.09-12.92-8.75-12.92Z"/>
            <path class="cls-180" d="M234.52,16.96H99.36l-13.87-12.28H5.03V53.22c0,22.37,18.25,40.44,40.62,40.23h0c12.12-.12,22.95-5.59,30.25-14.16H214.66c5.37,0,10.21-3.27,12.2-8.27l16.42-41.14c2.47-6.19-2.09-12.92-8.75-12.92Z"/>
            <path class="cls-58" d="M234.48,16.92H99.32l-13.87-12.28H4.99V53.18c0,22.37,18.25,40.44,40.62,40.23h0c12.12-.12,22.95-5.59,30.25-14.16H214.62c5.37,0,10.21-3.27,12.2-8.27l16.42-41.14c2.47-6.19-2.09-12.92-8.75-12.92Z"/>
            <path class="cls-207" d="M234.44,16.88H99.28l-13.87-12.28H4.95V53.14c0,22.37,18.25,40.44,40.62,40.23h0c12.12-.12,22.95-5.59,30.25-14.16H214.58c5.37,0,10.21-3.27,12.2-8.27l16.42-41.14c2.47-6.19-2.09-12.92-8.75-12.92Z"/>
            <path class="cls-234" d="M234.4,16.85H99.24l-13.87-12.28H4.91V53.1c0,22.37,18.25,40.44,40.62,40.23h0c12.12-.12,22.95-5.59,30.25-14.16H214.54c5.37,0,10.21-3.27,12.2-8.27l16.42-41.14c2.47-6.19-2.09-12.92-8.75-12.92Z"/>
            <path class="cls-144" d="M234.36,16.81H99.2l-13.87-12.28H4.88V53.07c0,22.37,18.25,40.44,40.62,40.23h0c12.12-.12,22.95-5.59,30.25-14.16H214.5c5.37,0,10.21-3.27,12.2-8.27l16.42-41.14c2.47-6.19-2.09-12.92-8.75-12.92Z"/>
            <path class="cls-44" d="M234.32,16.77H99.16l-13.87-12.28H4.84V53.03c0,22.37,18.25,40.44,40.62,40.23h0c12.12-.12,22.95-5.59,30.25-14.16H214.46c5.37,0,10.21-3.27,12.2-8.27l16.42-41.14c2.47-6.19-2.09-12.92-8.75-12.92Z"/>
            <path class="cls-71" d="M234.28,16.74H99.12l-13.87-12.28H4.8V52.99c0,22.37,18.25,40.44,40.62,40.23h0c12.12-.12,22.95-5.59,30.25-14.16H214.42c5.37,0,10.21-3.27,12.2-8.27l16.42-41.14c2.47-6.19-2.09-12.92-8.75-12.92Z"/>
            <path class="cls-118" d="M234.24,16.7H99.08l-13.87-12.28H4.76V52.96c0,22.37,18.25,40.44,40.62,40.23h0c12.12-.12,22.95-5.59,30.25-14.16H214.38c5.37,0,10.21-3.27,12.2-8.27l16.42-41.14c2.47-6.19-2.09-12.92-8.75-12.92Z"/>
            <path class="cls-187" d="M234.2,16.66H99.04l-13.87-12.28H4.72V52.92c0,22.37,18.25,40.44,40.62,40.23h0c12.12-.12,22.95-5.59,30.25-14.16H214.34c5.37,0,10.21-3.27,12.2-8.27l16.42-41.14c2.47-6.19-2.09-12.92-8.75-12.92Z"/>
            <path class="cls-196" d="M234.16,16.63H99l-13.87-12.28H4.68V52.88c0,22.37,18.25,40.44,40.62,40.23h0c12.12-.12,22.95-5.59,30.25-14.16H214.3c5.37,0,10.21-3.27,12.2-8.27l16.42-41.14c2.47-6.19-2.09-12.92-8.75-12.92Z"/>
            <path class="cls-2" d="M234.12,16.59H98.96l-13.87-12.28H4.64V52.85c0,22.37,18.25,40.44,40.62,40.23h0c12.12-.12,22.95-5.59,30.25-14.16H214.26c5.37,0,10.21-3.27,12.2-8.27l16.42-41.14c2.47-6.19-2.09-12.92-8.75-12.92Z"/>
            <path class="cls-85" d="M234.08,16.55H98.92l-13.87-12.28H4.6V52.81c0,22.37,18.25,40.44,40.62,40.23h0c12.12-.12,22.95-5.59,30.25-14.16H214.22c5.37,0,10.21-3.27,12.2-8.27l16.42-41.14c2.47-6.19-2.09-12.92-8.75-12.92Z"/>
            <path class="cls-24" d="M234.04,16.52H98.88l-13.87-12.28H4.56V52.77c0,22.37,18.25,40.44,40.62,40.23h0c12.12-.12,22.95-5.59,30.25-14.16H214.18c5.37,0,10.21-3.27,12.2-8.27l16.42-41.14c2.47-6.19-2.09-12.92-8.75-12.92Z"/>
            <path class="cls-215" d="M234.01,16.48H98.84l-13.87-12.28H4.52V52.74c0,22.37,18.25,40.44,40.62,40.23h0c12.12-.12,22.95-5.59,30.25-14.16H214.14c5.37,0,10.21-3.27,12.2-8.27l16.42-41.14c2.47-6.19-2.09-12.92-8.75-12.92Z"/>
            <path class="cls-172" d="M233.97,16.44H98.8l-13.87-12.28H4.48V52.7c0,22.37,18.25,40.44,40.62,40.23h0c12.12-.12,22.95-5.59,30.25-14.16H214.1c5.37,0,10.21-3.27,12.2-8.27l16.42-41.14c2.47-6.19-2.09-12.92-8.75-12.92Z"/>
            <path class="cls-217" d="M233.93,16.41H98.76l-13.87-12.28H4.44V52.66c0,22.37,18.25,40.44,40.62,40.23h0c12.12-.12,22.95-5.59,30.25-14.16H214.06c5.37,0,10.21-3.27,12.2-8.27l16.42-41.14c2.47-6.19-2.09-12.92-8.75-12.92Z"/>
            <path class="cls-83" d="M233.89,16.37H98.72l-13.87-12.28H4.4V52.63c0,22.37,18.25,40.44,40.62,40.23h0c12.12-.12,22.95-5.59,30.25-14.16H214.03c5.37,0,10.21-3.27,12.2-8.27l16.42-41.14c2.47-6.19-2.09-12.92-8.75-12.92Z"/>
            <path class="cls-120" d="M233.85,16.33H98.68l-13.87-12.28H4.36V52.59c0,22.37,18.25,40.44,40.62,40.23h0c12.12-.12,22.95-5.59,30.25-14.16H213.99c5.37,0,10.21-3.27,12.2-8.27l16.42-41.14c2.47-6.19-2.09-12.92-8.75-12.92Z"/>
            <path class="cls-91" d="M233.81,16.3H98.65l-13.87-12.28H4.32V52.55c0,22.37,18.25,40.44,40.62,40.23h0c12.12-.12,22.95-5.59,30.25-14.16H213.95c5.37,0,10.21-3.27,12.2-8.27l16.42-41.14c2.47-6.19-2.09-12.92-8.75-12.92Z"/>
            <path class="cls-143" d="M233.77,16.26H98.61l-13.87-12.28H4.28V52.52c0,22.37,18.25,40.44,40.62,40.23h0c12.12-.12,22.95-5.59,30.25-14.16H213.91c5.37,0,10.21-3.27,12.2-8.27l16.42-41.14c2.47-6.19-2.09-12.92-8.75-12.92Z"/>
            <path class="cls-168" d="M233.73,16.22H98.57l-13.87-12.28H4.24V52.48c0,22.37,18.25,40.44,40.62,40.23h0c12.12-.12,22.95-5.59,30.25-14.16H213.87c5.37,0,10.21-3.27,12.2-8.27l16.42-41.14c2.47-6.19-2.09-12.92-8.75-12.92Z"/>
            <path class="cls-7" d="M233.69,16.19H98.53l-13.87-12.28H4.2V52.44c0,22.37,18.25,40.44,40.62,40.23h0c12.12-.12,22.95-5.59,30.25-14.16H213.83c5.37,0,10.21-3.27,12.2-8.27l16.42-41.14c2.47-6.19-2.09-12.92-8.75-12.92Z"/>
            <path class="cls-100" d="M233.65,16.15H98.49l-13.87-12.28H4.16V52.41c0,22.37,18.25,40.44,40.62,40.23h0c12.12-.12,22.95-5.59,30.25-14.16H213.79c5.37,0,10.21-3.27,12.2-8.27l16.42-41.14c2.47-6.19-2.09-12.92-8.75-12.92Z"/>
            <path class="cls-174" d="M233.61,16.11H98.45l-13.87-12.28H4.12V52.37c0,22.37,18.25,40.44,40.62,40.23h0c12.12-.12,22.95-5.59,30.25-14.16H213.75c5.37,0,10.21-3.27,12.2-8.27l16.42-41.14c2.47-6.19-2.09-12.92-8.75-12.92Z"/>
            <path class="cls-186" d="M233.57,16.07H98.41l-13.87-12.28H4.08V52.33c0,22.37,18.25,40.44,40.62,40.23h0c12.12-.12,22.95-5.59,30.25-14.16H213.71c5.37,0,10.21-3.27,12.2-8.27l16.42-41.14c2.47-6.19-2.09-12.92-8.75-12.92Z"/>
            <path class="cls-206" d="M233.53,16.04H98.37l-13.87-12.28H4.04V52.29c0,22.37,18.25,40.44,40.62,40.23h0c12.12-.12,22.95-5.59,30.25-14.16H213.67c5.37,0,10.21-3.27,12.2-8.27l16.42-41.14c2.47-6.19-2.09-12.92-8.75-12.92Z"/>
            <path class="cls-134" d="M233.49,16H98.33l-13.87-12.28H4V52.26c0,22.37,18.25,40.44,40.62,40.23h0c12.12-.12,22.95-5.59,30.25-14.16H213.63c5.37,0,10.21-3.27,12.2-8.27l16.42-41.14c2.47-6.19-2.09-12.92-8.75-12.92Z"/>
            <path class="cls-115" d="M233.45,15.96H98.29l-13.87-12.28H3.96V52.22c0,22.37,18.25,40.44,40.62,40.23h0c12.12-.12,22.95-5.59,30.25-14.16H213.59c5.37,0,10.21-3.27,12.2-8.27l16.42-41.14c2.47-6.19-2.09-12.92-8.75-12.92Z"/>
            <path class="cls-198" d="M233.41,15.93H98.25l-13.87-12.28H3.92V52.18c0,22.37,18.25,40.44,40.62,40.23h0c12.12-.12,22.95-5.59,30.25-14.16H213.55c5.37,0,10.21-3.27,12.2-8.27l16.42-41.14c2.47-6.19-2.09-12.92-8.75-12.92Z"/>
            <path class="cls-39" d="M233.37,15.89H98.21l-13.87-12.28H3.88V52.15c0,22.37,18.25,40.44,40.62,40.23h0c12.12-.12,22.95-5.59,30.25-14.16H213.51c5.37,0,10.21-3.27,12.2-8.27l16.42-41.14c2.47-6.19-2.09-12.92-8.75-12.92Z"/>
            <path class="cls-212" d="M233.33,15.85H98.17l-13.87-12.28H3.84V52.11c0,22.37,18.25,40.44,40.62,40.23h0c12.12-.12,22.95-5.59,30.25-14.16H213.47c5.37,0,10.21-3.27,12.2-8.27l16.42-41.14c2.47-6.19-2.09-12.92-8.75-12.92Z"/>
            <path class="cls-161" d="M233.29,15.82H98.13l-13.87-12.28H3.81V52.07c0,22.37,18.25,40.44,40.62,40.23h0c12.12-.12,22.95-5.59,30.25-14.16H213.43c5.37,0,10.21-3.27,12.2-8.27l16.42-41.14c2.47-6.19-2.09-12.92-8.75-12.92Z"/>
            <path class="cls-74" d="M233.25,15.78H98.09l-13.87-12.28H3.77V52.04c0,22.37,18.25,40.44,40.62,40.23h0c12.12-.12,22.95-5.59,30.25-14.16H213.39c5.37,0,10.21-3.27,12.2-8.27l16.42-41.14c2.47-6.19-2.09-12.92-8.75-12.92Z"/>
            <path class="cls-114" d="M233.21,15.74H98.05l-13.87-12.28H3.73V52c0,22.37,18.25,40.44,40.62,40.23h0c12.12-.12,22.95-5.59,30.25-14.16H213.35c5.37,0,10.21-3.27,12.2-8.27l16.42-41.14c2.47-6.19-2.09-12.92-8.75-12.92Z"/>
            <path class="cls-62" d="M233.17,15.71H98.01l-13.87-12.28H3.69V51.96c0,22.37,18.25,40.44,40.62,40.23h0c12.12-.12,22.95-5.59,30.25-14.16H213.31c5.37,0,10.21-3.27,12.2-8.27l16.42-41.14c2.47-6.19-2.09-12.92-8.75-12.92Z"/>
            <path class="cls-178" d="M233.13,15.67H97.97l-13.87-12.28H3.65V51.93c0,22.37,18.25,40.44,40.62,40.23h0c12.12-.12,22.95-5.59,30.25-14.16H213.27c5.37,0,10.21-3.27,12.2-8.27l16.42-41.14c2.47-6.19-2.09-12.92-8.75-12.92Z"/>
            <path class="cls-89" d="M233.09,15.63H97.93l-13.87-12.28H3.61V51.89c0,22.37,18.25,40.44,40.62,40.23h0c12.12-.12,22.95-5.59,30.25-14.16H213.23c5.37,0,10.21-3.27,12.2-8.27l16.42-41.14c2.47-6.19-2.09-12.92-8.75-12.92Z"/>
            <path class="cls-213" d="M233.05,15.6H97.89l-13.87-12.28H3.57V51.85c0,22.37,18.25,40.44,40.62,40.23h0c12.12-.12,22.95-5.59,30.25-14.16H213.19c5.37,0,10.21-3.27,12.2-8.27l16.42-41.14c2.47-6.19-2.09-12.92-8.75-12.92Z"/>
            <path class="cls-224" d="M233.01,15.56H97.85l-13.87-12.28H3.53V51.82c0,22.37,18.25,40.44,40.62,40.23h0c12.12-.12,22.95-5.59,30.25-14.16H213.15c5.37,0,10.21-3.27,12.2-8.27l16.42-41.14c2.47-6.19-2.09-12.92-8.75-12.92Z"/>
            <path class="cls-35" d="M232.97,15.52H97.81l-13.87-12.28H3.49V51.78c0,22.37,18.25,40.44,40.62,40.23h0c12.12-.12,22.95-5.59,30.25-14.16H213.11c5.37,0,10.21-3.27,12.2-8.27l16.42-41.14c2.47-6.19-2.09-12.92-8.75-12.92Z"/>
            <path class="cls-9" d="M232.93,15.49H97.77l-13.87-12.28H3.45V51.74c0,22.37,18.25,40.44,40.62,40.23h0c12.12-.12,22.95-5.59,30.25-14.16H213.07c5.37,0,10.21-3.27,12.2-8.27l16.42-41.14c2.47-6.19-2.09-12.92-8.75-12.92Z"/>
            <path class="cls-257" d="M232.9,15.45H97.73l-13.87-12.28H3.41V51.71c0,22.37,18.25,40.44,40.62,40.23h0c12.12-.12,22.95-5.59,30.25-14.16H213.03c5.37,0,10.21-3.27,12.2-8.27l16.42-41.14c2.47-6.19-2.09-12.92-8.75-12.92Z"/>
            <path class="cls-121" d="M232.86,15.41H97.69l-13.87-12.28H3.37V51.67c0,22.37,18.25,40.44,40.62,40.23h0c12.12-.12,22.95-5.59,30.25-14.16H212.99c5.37,0,10.21-3.27,12.2-8.27l16.42-41.14c2.47-6.19-2.09-12.92-8.75-12.92Z"/>
            <path class="cls-251" d="M232.82,15.38H97.65l-13.87-12.28H3.33V51.63c0,22.37,18.25,40.44,40.62,40.23h0c12.12-.12,22.95-5.59,30.25-14.16H212.96c5.37,0,10.21-3.27,12.2-8.27l16.42-41.14c2.47-6.19-2.09-12.92-8.75-12.92Z"/>
            <path class="cls-131" d="M232.78,15.34H97.61l-13.87-12.28H3.29V51.59c0,22.37,18.25,40.44,40.62,40.23h0c12.12-.12,22.95-5.59,30.25-14.16H212.92c5.37,0,10.21-3.27,12.2-8.27l16.42-41.14c2.47-6.19-2.09-12.92-8.75-12.92Z"/>
            <path class="cls-226" d="M232.74,15.3H97.58l-13.87-12.28H3.25V51.56c0,22.37,18.25,40.44,40.62,40.23h0c12.12-.12,22.95-5.59,30.25-14.16H212.88c5.37,0,10.21-3.27,12.2-8.27l16.42-41.14c2.47-6.19-2.09-12.92-8.75-12.92Z"/>
            <path class="cls-111" d="M232.7,15.26H97.54l-13.87-12.28H3.21V51.52c0,22.37,18.25,40.44,40.62,40.23h0c12.12-.12,22.95-5.59,30.25-14.16H212.84c5.37,0,10.21-3.27,12.2-8.27l16.42-41.14c2.47-6.19-2.09-12.92-8.75-12.92Z"/>
            <path class="cls-17" d="M232.66,15.23H97.5l-13.87-12.28H3.17V51.48c0,22.37,18.25,40.44,40.62,40.23h0c12.12-.12,22.95-5.59,30.25-14.16H212.8c5.37,0,10.21-3.27,12.2-8.27l16.42-41.14c2.47-6.19-2.09-12.92-8.75-12.92Z"/>
            <path class="cls-163" d="M232.62,15.19H97.46l-13.87-12.28H3.13V51.45c0,22.37,18.25,40.44,40.62,40.23h0c12.12-.12,22.95-5.59,30.25-14.16H212.76c5.37,0,10.21-3.27,12.2-8.27l16.42-41.14c2.47-6.19-2.09-12.92-8.75-12.92Z"/>
            <path class="cls-22" d="M232.58,15.15H97.42l-13.87-12.28H3.09V51.41c0,22.37,18.25,40.44,40.62,40.23h0c12.12-.12,22.95-5.59,30.25-14.16H212.72c5.37,0,10.21-3.27,12.2-8.27l16.42-41.14c2.47-6.19-2.09-12.92-8.75-12.92Z"/>
            <path class="cls-49" d="M232.54,15.12H97.38l-13.87-12.28H3.05V51.37c0,22.37,18.25,40.44,40.62,40.23h0c12.12-.12,22.95-5.59,30.25-14.16H212.68c5.37,0,10.21-3.27,12.2-8.27l16.42-41.14c2.47-6.19-2.09-12.92-8.75-12.92Z"/>
            <path class="cls-97" d="M232.5,15.08H97.34l-13.87-12.28H3.01V51.34c0,22.37,18.25,40.44,40.62,40.23h0c12.12-.12,22.95-5.59,30.25-14.16H212.64c5.37,0,10.21-3.27,12.2-8.27l16.42-41.14c2.47-6.19-2.09-12.92-8.75-12.92Z"/>
            <path class="cls-239" d="M232.46,15.04H97.3l-13.87-12.28H2.97V51.3c0,22.37,18.25,40.44,40.62,40.23h0c12.12-.12,22.95-5.59,30.25-14.16H212.6c5.37,0,10.21-3.27,12.2-8.27l16.42-41.14c2.47-6.19-2.09-12.92-8.75-12.92Z"/>
            <path class="cls-15" d="M232.42,15.01H97.26l-13.87-12.28H2.93V51.26c0,22.37,18.25,40.44,40.62,40.23h0c12.12-.12,22.95-5.59,30.25-14.16H212.56c5.37,0,10.21-3.27,12.2-8.27l16.42-41.14c2.47-6.19-2.09-12.92-8.75-12.92Z"/>
            <path class="cls-112" d="M232.38,14.97H97.22l-13.87-12.28H2.89V51.23c0,22.37,18.25,40.44,40.62,40.23h0c12.12-.12,22.95-5.59,30.25-14.16H212.52c5.37,0,10.21-3.27,12.2-8.27l16.42-41.14c2.47-6.19-2.09-12.92-8.75-12.92Z"/>
            <path class="cls-130" d="M232.34,14.93H97.18l-13.87-12.28H2.85V51.19c0,22.37,18.25,40.44,40.62,40.23h0c12.12-.12,22.95-5.59,30.25-14.16H212.48c5.37,0,10.21-3.27,12.2-8.27l16.42-41.14c2.47-6.19-2.09-12.92-8.75-12.92Z"/>
            <path class="cls-103" d="M232.3,14.9H97.14l-13.87-12.28H2.81V51.15c0,22.37,18.25,40.44,40.62,40.23h0c12.12-.12,22.95-5.59,30.25-14.16H212.44c5.37,0,10.21-3.27,12.2-8.27l16.42-41.14c2.47-6.19-2.09-12.92-8.75-12.92Z"/>
            <path class="cls-153" d="M232.26,14.86H97.1l-13.87-12.28H2.77V51.12c0,22.37,18.25,40.44,40.62,40.23h0c12.12-.12,22.95-5.59,30.25-14.16H212.4c5.37,0,10.21-3.27,12.2-8.27l16.42-41.14c2.47-6.19-2.09-12.92-8.75-12.92Z"/>
            <path class="cls-165" d="M232.22,14.82H97.06l-13.87-12.28H2.73V51.08c0,22.37,18.25,40.44,40.62,40.23h0c12.12-.12,22.95-5.59,30.25-14.16H212.36c5.37,0,10.21-3.27,12.2-8.27l16.42-41.14c2.47-6.19-2.09-12.92-8.75-12.92Z"/>
            <path class="cls-141" d="M232.18,14.79H97.02l-13.87-12.28H2.7V51.04c0,22.37,18.25,40.44,40.62,40.23h0c12.12-.12,22.95-5.59,30.25-14.16H212.32c5.37,0,10.21-3.27,12.2-8.27l16.42-41.14c2.47-6.19-2.09-12.92-8.75-12.92Z"/>
            <path class="cls-90" d="M232.14,14.75H96.98l-13.87-12.28H2.66V51.01c0,22.37,18.25,40.44,40.62,40.23h0c12.12-.12,22.95-5.59,30.25-14.16H212.28c5.37,0,10.21-3.27,12.2-8.27l16.42-41.14c2.47-6.19-2.09-12.92-8.75-12.92Z"/>
            <path class="cls-124" d="M232.1,14.71H96.94l-13.87-12.28H2.62V50.97c0,22.37,18.25,40.44,40.62,40.23h0c12.12-.12,22.95-5.59,30.25-14.16H212.24c5.37,0,10.21-3.27,12.2-8.27l16.42-41.14c2.47-6.19-2.09-12.92-8.75-12.92Z"/>
            <path class="cls-247" d="M232.06,14.68H96.9l-13.87-12.28H2.58V50.93c0,22.37,18.25,40.44,40.62,40.23h0c12.12-.12,22.95-5.59,30.25-14.16H212.2c5.37,0,10.21-3.27,12.2-8.27l16.42-41.14c2.47-6.19-2.09-12.92-8.75-12.92Z"/>
            <path class="cls-166" d="M232.02,14.64H96.86l-13.87-12.28H2.54V50.9c0,22.37,18.25,40.44,40.62,40.23h0c12.12-.12,22.95-5.59,30.25-14.16H212.16c5.37,0,10.21-3.27,12.2-8.27l16.42-41.14c2.47-6.19-2.09-12.92-8.75-12.92Z"/>
            <path class="cls-42" d="M231.98,14.6H96.82l-13.87-12.28H2.5V50.86c0,22.37,18.25,40.44,40.62,40.23h0c12.12-.12,22.95-5.59,30.25-14.16H212.12c5.37,0,10.21-3.27,12.2-8.27l16.42-41.14c2.47-6.19-2.09-12.92-8.75-12.92Z"/>
            <path class="cls-137" d="M231.94,14.57H96.78l-13.87-12.28H2.46V50.82c0,22.37,18.25,40.44,40.62,40.23h0c12.12-.12,22.95-5.59,30.25-14.16H212.08c5.37,0,10.21-3.27,12.2-8.27l16.42-41.14c2.47-6.19-2.09-12.92-8.75-12.92Z"/>
            <path class="cls-84" d="M231.9,14.53H96.74l-13.87-12.28H2.42V50.78c0,22.37,18.25,40.44,40.62,40.23h0c12.12-.12,22.95-5.59,30.25-14.16H212.04c5.37,0,10.21-3.27,12.2-8.27l16.42-41.14c2.47-6.19-2.09-12.92-8.75-12.92Z"/>
            <path class="cls-132" d="M231.86,14.49H96.7l-13.87-12.28H2.38V50.75c0,22.37,18.25,40.44,40.62,40.23h0c12.12-.12,22.95-5.59,30.25-14.16H212c5.37,0,10.21-3.27,12.2-8.27l16.42-41.14c2.47-6.19-2.09-12.92-8.75-12.92Z"/>
            <path class="cls-108" d="M231.83,14.45H96.66l-13.87-12.28H2.34V50.71c0,22.37,18.25,40.44,40.62,40.23h0c12.12-.12,22.95-5.59,30.25-14.16H211.96c5.37,0,10.21-3.27,12.2-8.27l16.42-41.14c2.47-6.19-2.09-12.92-8.75-12.92Z"/>
            <path class="cls-53" d="M231.79,14.42H96.62l-13.87-12.28H2.3V50.67c0,22.37,18.25,40.44,40.62,40.23h0c12.12-.12,22.95-5.59,30.25-14.16H211.92c5.37,0,10.21-3.27,12.2-8.27l16.42-41.14c2.47-6.19-2.09-12.92-8.75-12.92Z"/>
            <path class="cls-11" d="M231.75,14.38H96.58l-13.87-12.28H2.26V50.64c0,22.37,18.25,40.44,40.62,40.23h0c12.12-.12,22.95-5.59,30.25-14.16H211.88c5.37,0,10.21-3.27,12.2-8.27l16.42-41.14c2.47-6.19-2.09-12.92-8.75-12.92Z"/>
            <path class="cls-66" d="M231.71,14.34H96.54l-13.87-12.28H2.22V50.6c0,22.37,18.25,40.44,40.62,40.23h0c12.12-.12,22.95-5.59,30.25-14.16H211.85c5.37,0,10.21-3.27,12.2-8.27l16.42-41.14c2.47-6.19-2.09-12.92-8.75-12.92Z"/>
            <path class="cls-151" d="M231.67,14.31H96.51l-13.87-12.28H2.18V50.56c0,22.37,18.25,40.44,40.62,40.23h0c12.12-.12,22.95-5.59,30.25-14.16H211.81c5.37,0,10.21-3.27,12.2-8.27l16.42-41.14c2.47-6.19-2.09-12.92-8.75-12.92Z"/>
            <path class="cls-41" d="M231.63,14.27H96.47L82.6,1.99H2.14V50.53c0,22.37,18.25,40.44,40.62,40.23h0c12.12-.12,22.95-5.59,30.25-14.16H211.77c5.37,0,10.21-3.27,12.2-8.27l16.42-41.14c2.47-6.19-2.09-12.92-8.75-12.92Z"/>
            <path class="cls-214" d="M231.59,14.23H96.43L82.56,1.95H2.1V50.49c0,22.37,18.25,40.44,40.62,40.23h0c12.12-.12,22.95-5.59,30.25-14.16H211.73c5.37,0,10.21-3.27,12.2-8.27l16.42-41.14c2.47-6.19-2.09-12.92-8.75-12.92Z"/>
            <path class="cls-37" d="M231.55,14.2H96.39L82.52,1.91H2.06V50.45c0,22.37,18.25,40.44,40.62,40.23h0c12.12-.12,22.95-5.59,30.25-14.16H211.69c5.37,0,10.21-3.27,12.2-8.27l16.42-41.14c2.47-6.19-2.09-12.92-8.75-12.92Z"/>
            <path class="cls-189" d="M231.51,14.16H96.35L82.48,1.88H2.02V50.42c0,22.37,18.25,40.44,40.62,40.23h0c12.12-.12,22.95-5.59,30.25-14.16H211.65c5.37,0,10.21-3.27,12.2-8.27l16.42-41.14c2.47-6.19-2.09-12.92-8.75-12.92Z"/>
            <path class="cls-233" d="M231.47,14.12H96.31L82.44,1.84H1.98V50.38c0,22.37,18.25,40.44,40.62,40.23h0c12.12-.12,22.95-5.59,30.25-14.16H211.61c5.37,0,10.21-3.27,12.2-8.27l16.42-41.14c2.47-6.19-2.09-12.92-8.75-12.92Z"/>
            <path class="cls-219" d="M231.43,14.09H96.27L82.4,1.8H1.94V50.34c0,22.37,18.25,40.44,40.62,40.23h0c12.12-.12,22.95-5.59,30.25-14.16H211.57c5.37,0,10.21-3.27,12.2-8.27l16.42-41.14c2.47-6.19-2.09-12.92-8.75-12.92Z"/>
            <path class="cls-230" d="M231.39,14.05H96.23L82.36,1.77H1.9V50.31c0,22.37,18.25,40.44,40.62,40.23h0c12.12-.12,22.95-5.59,30.25-14.16H211.53c5.37,0,10.21-3.27,12.2-8.27l16.42-41.14c2.47-6.19-2.09-12.92-8.75-12.92Z"/>
            <path class="cls-43" d="M231.35,14.01H96.19L82.32,1.73H1.86V50.27c0,22.37,18.25,40.44,40.62,40.23h0c12.12-.12,22.95-5.59,30.25-14.16H211.49c5.37,0,10.21-3.27,12.2-8.27l16.42-41.14c2.47-6.19-2.09-12.92-8.75-12.92Z"/>
            <path class="cls-154" d="M231.31,13.98H96.15L82.28,1.69H1.82V50.23c0,22.37,18.25,40.44,40.62,40.23h0c12.12-.12,22.95-5.59,30.25-14.16H211.45c5.37,0,10.21-3.27,12.2-8.27l16.42-41.14c2.47-6.19-2.09-12.92-8.75-12.92Z"/>
            <path class="cls-113" d="M231.27,13.94H96.11L82.24,1.66H1.78V50.2c0,22.37,18.25,40.44,40.62,40.23h0c12.12-.12,22.95-5.59,30.25-14.16H211.41c5.37,0,10.21-3.27,12.2-8.27l16.42-41.14c2.47-6.19-2.09-12.92-8.75-12.92Z"/>
            <path class="cls-181" d="M231.23,13.9H96.07L82.2,1.62H1.74V50.16c0,22.37,18.25,40.44,40.62,40.23h0c12.12-.12,22.95-5.59,30.25-14.16H211.37c5.37,0,10.21-3.27,12.2-8.27l16.42-41.14c2.47-6.19-2.09-12.92-8.75-12.92Z"/>
            <path class="cls-69" d="M231.19,13.87H96.03L82.16,1.58H1.7V50.12c0,22.37,18.25,40.44,40.62,40.23h0c12.12-.12,22.95-5.59,30.25-14.16H211.33c5.37,0,10.21-3.27,12.2-8.27l16.42-41.14c2.47-6.19-2.09-12.92-8.75-12.92Z"/>
            <path class="cls-173" d="M231.15,13.83H95.99L82.12,1.55H1.66V50.09c0,22.37,18.25,40.44,40.62,40.23h0c12.12-.12,22.95-5.59,30.25-14.16H211.29c5.37,0,10.21-3.27,12.2-8.27l16.42-41.14c2.47-6.19-2.09-12.92-8.75-12.92Z"/>
            <path class="cls-99" d="M231.11,13.79H95.95L82.08,1.51H1.63V50.05c0,22.37,18.25,40.44,40.62,40.23h0c12.12-.12,22.95-5.59,30.25-14.16H211.25c5.37,0,10.21-3.27,12.2-8.27l16.42-41.14c2.47-6.19-2.09-12.92-8.75-12.92Z"/>
            <path class="cls-195" d="M231.07,13.76H95.91L82.04,1.47H1.59V50.01c0,22.37,18.25,40.44,40.62,40.23h0c12.12-.12,22.95-5.59,30.25-14.16H211.21c5.37,0,10.21-3.27,12.2-8.27l16.42-41.14c2.47-6.19-2.09-12.92-8.75-12.92Z"/>
            <path class="cls-12" d="M231.03,13.72H95.87L82,1.44H1.55V49.97c0,22.37,18.25,40.44,40.62,40.23h0c12.12-.12,22.95-5.59,30.25-14.16H211.17c5.37,0,10.21-3.27,12.2-8.27l16.42-41.14c2.47-6.19-2.09-12.92-8.75-12.92Z"/>
            <path class="cls-145" d="M230.99,13.68H95.83L81.96,1.4H1.51V49.94c0,22.37,18.25,40.44,40.62,40.23h0c12.12-.12,22.95-5.59,30.25-14.16H211.13c5.37,0,10.21-3.27,12.2-8.27l16.42-41.14c2.47-6.19-2.09-12.92-8.75-12.92Z"/>
            <path class="cls-256" d="M230.95,13.64H95.79L81.92,1.36H1.47V49.9c0,22.37,18.25,40.44,40.62,40.23h0c12.12-.12,22.95-5.59,30.25-14.16H211.09c5.37,0,10.21-3.27,12.2-8.27l16.42-41.14c2.47-6.19-2.09-12.92-8.75-12.92Z"/>
            <path class="cls-30" d="M230.91,13.61H95.75L81.88,1.33H1.43V49.86c0,22.37,18.25,40.44,40.62,40.23h0c12.12-.12,22.95-5.59,30.25-14.16H211.05c5.37,0,10.21-3.27,12.2-8.27l16.42-41.14c2.47-6.19-2.09-12.92-8.75-12.92Z"/>
            <path class="cls-229" d="M230.87,13.57H95.71L81.84,1.29H1.39V49.83c0,22.37,18.25,40.44,40.62,40.23h0c12.12-.12,22.95-5.59,30.25-14.16H211.01c5.37,0,10.21-3.27,12.2-8.27l16.42-41.14c2.47-6.19-2.09-12.92-8.75-12.92Z"/>
            <path class="cls-184" d="M230.83,13.53H95.67L81.8,1.25H1.35V49.79c0,22.37,18.25,40.44,40.62,40.23h0c12.12-.12,22.95-5.59,30.25-14.16H210.97c5.37,0,10.21-3.27,12.2-8.27l16.42-41.14c2.47-6.19-2.09-12.92-8.75-12.92Z"/>
            <path class="cls-220" d="M230.79,13.5H95.63L81.76,1.22H1.31V49.75c0,22.37,18.25,40.44,40.62,40.23h0c12.12-.12,22.95-5.59,30.25-14.16H210.93c5.37,0,10.21-3.27,12.2-8.27l16.42-41.14c2.47-6.19-2.09-12.92-8.75-12.92Z"/>
            <path class="cls-94" d="M230.75,13.46H95.59L81.72,1.18H1.27V49.72c0,22.37,18.25,40.44,40.62,40.23h0c12.12-.12,22.95-5.59,30.25-14.16H210.89c5.37,0,10.21-3.27,12.2-8.27l16.42-41.14c2.47-6.19-2.09-12.92-8.75-12.92Z"/>
            <path class="cls-3" d="M230.72,13.42H95.55L81.68,1.14H1.23V49.68c0,22.37,18.25,40.44,40.62,40.23h0c12.12-.12,22.95-5.59,30.25-14.16H210.85c5.37,0,10.21-3.27,12.2-8.27l16.42-41.14c2.47-6.19-2.09-12.92-8.75-12.92Z"/>
            <path class="cls-183" d="M230.68,13.39H95.51L81.65,1.1H1.19V49.64c0,22.37,18.25,40.44,40.62,40.23h0c12.12-.12,22.95-5.59,30.25-14.16H210.81c5.37,0,10.21-3.27,12.2-8.27l16.42-41.14c2.47-6.19-2.09-12.92-8.75-12.92Z"/>
            <path class="cls-78" d="M230.64,13.35H95.47L81.61,1.07H1.15V49.61c0,22.37,18.25,40.44,40.62,40.23h0c12.12-.12,22.95-5.59,30.25-14.16H210.78c5.37,0,10.21-3.27,12.2-8.27l16.42-41.14c2.47-6.19-2.09-12.92-8.75-12.92Z"/>
            <path class="cls-10" d="M230.6,13.31H95.43L81.57,1.03H1.11V49.57c0,22.37,18.25,40.44,40.62,40.23h0c12.12-.12,22.95-5.59,30.25-14.16H210.74c5.37,0,10.21-3.27,12.2-8.27l16.42-41.14c2.47-6.19-2.09-12.92-8.75-12.92Z"/>
            <path class="cls-38" d="M230.56,13.28H95.4L81.53,.99H1.07V49.53c0,22.37,18.25,40.44,40.62,40.23h0c12.12-.12,22.95-5.59,30.25-14.16H210.7c5.37,0,10.21-3.27,12.2-8.27l16.42-41.14c2.47-6.19-2.09-12.92-8.75-12.92Z"/>
            <path class="cls-56" d="M230.52,13.24H95.36L81.49,.96H1.03V49.5c0,22.37,18.25,40.44,40.62,40.23h0c12.12-.12,22.95-5.59,30.25-14.16H210.66c5.37,0,10.21-3.27,12.2-8.27l16.42-41.14c2.47-6.19-2.09-12.92-8.75-12.92Z"/>
            <path class="cls-200" d="M230.48,13.2H95.32L81.45,.92H.99V49.46c0,22.37,18.25,40.44,40.62,40.23h0c12.12-.12,22.95-5.59,30.25-14.16H210.62c5.37,0,10.21-3.27,12.2-8.27l16.42-41.14c2.47-6.19-2.09-12.92-8.75-12.92Z"/>
            <path class="cls-32" d="M230.44,13.17H95.28L81.41,.88H.95V49.42c0,22.37,18.25,40.44,40.62,40.23h0c12.12-.12,22.95-5.59,30.25-14.16H210.58c5.37,0,10.21-3.27,12.2-8.27l16.42-41.14c2.47-6.19-2.09-12.92-8.75-12.92Z"/>
            <path class="cls-216" d="M230.4,13.13H95.24L81.37,.85H.91V49.39c0,22.37,18.25,40.44,40.62,40.23h0c12.12-.12,22.95-5.59,30.25-14.16H210.54c5.37,0,10.21-3.27,12.2-8.27l16.42-41.14c2.47-6.19-2.09-12.92-8.75-12.92Z"/>
            <path class="cls-148" d="M230.36,13.09H95.2L81.33,.81H.87V49.35c0,22.37,18.25,40.44,40.62,40.23h0c12.12-.12,22.95-5.59,30.25-14.16H210.5c5.37,0,10.21-3.27,12.2-8.27l16.42-41.14c2.47-6.19-2.09-12.92-8.75-12.92Z"/>
            <path class="cls-46" d="M230.32,13.06H95.16L81.29,.77H.83V49.31c0,22.37,18.25,40.44,40.62,40.23h0c12.12-.12,22.95-5.59,30.25-14.16H210.46c5.37,0,10.21-3.27,12.2-8.27l16.42-41.14c2.47-6.19-2.09-12.92-8.75-12.92Z"/>
            <path class="cls-197" d="M230.28,13.02H95.12L81.25,.74H.79V49.28c0,22.37,18.25,40.44,40.62,40.23h0c12.12-.12,22.95-5.59,30.25-14.16H210.42c5.37,0,10.21-3.27,12.2-8.27l16.42-41.14c2.47-6.19-2.09-12.92-8.75-12.92Z"/>
            <path class="cls-116" d="M230.24,12.98H95.08L81.21,.7H.75V49.24c0,22.37,18.25,40.44,40.62,40.23h0c12.12-.12,22.95-5.59,30.25-14.16H210.38c5.37,0,10.21-3.27,12.2-8.27l16.42-41.14c2.47-6.19-2.09-12.92-8.75-12.92Z"/>
            <path class="cls-28" d="M230.2,12.94H95.04L81.17,.66H.71V49.2c0,22.37,18.25,40.44,40.62,40.23h0c12.12-.12,22.95-5.59,30.25-14.16H210.34c5.37,0,10.21-3.27,12.2-8.27l16.42-41.14c2.47-6.19-2.09-12.92-8.75-12.92Z"/>
            <path class="cls-92" d="M230.16,12.91H95L81.13,.63H.67V49.16c0,22.37,18.25,40.44,40.62,40.23h0c12.12-.12,22.95-5.59,30.25-14.16H210.3c5.37,0,10.21-3.27,12.2-8.27l16.42-41.14c2.47-6.19-2.09-12.92-8.75-12.92Z"/>
            <path class="cls-73" d="M230.12,12.87H94.96L81.09,.59H.63V49.13c0,22.37,18.25,40.44,40.62,40.23h0c12.12-.12,22.95-5.59,30.25-14.16H210.26c5.37,0,10.21-3.27,12.2-8.27l16.42-41.14c2.47-6.19-2.09-12.92-8.75-12.92Z"/>
            <path class="cls-95" d="M230.08,12.83H94.92L81.05,.55H.59V49.09c0,22.37,18.25,40.44,40.62,40.23h0c12.12-.12,22.95-5.59,30.25-14.16H210.22c5.37,0,10.21-3.27,12.2-8.27l16.42-41.14c2.47-6.19-2.09-12.92-8.75-12.92Z"/>
            <path class="cls-1" d="M230.04,12.8H94.88L81.01,.52H.55V49.05c0,22.37,18.25,40.44,40.62,40.23h0c12.12-.12,22.95-5.59,30.25-14.16H210.18c5.37,0,10.21-3.27,12.2-8.27l16.42-41.14c2.47-6.19-2.09-12.92-8.75-12.92Z"/>
            <path class="cls-249" d="M230,12.76H94.84L80.97,.48H.52V49.02c0,22.37,18.25,40.44,40.62,40.23h0c12.12-.12,22.95-5.59,30.25-14.16H210.14c5.37,0,10.21-3.27,12.2-8.27l16.42-41.14c2.47-6.19-2.09-12.92-8.75-12.92Z"/>
            <path class="cls-125" d="M229.96,12.72H94.8L80.93,.44H.48V48.98c0,22.37,18.25,40.44,40.62,40.23h0c12.12-.12,22.95-5.59,30.25-14.16H210.1c5.37,0,10.21-3.27,12.2-8.27l16.42-41.14c2.47-6.19-2.09-12.92-8.75-12.92Z"/>
            <path class="cls-240" d="M229.92,12.69H94.76L80.89,.41H.44V48.94c0,22.37,18.25,40.44,40.62,40.23h0c12.12-.12,22.95-5.59,30.25-14.16H210.06c5.37,0,10.21-3.27,12.2-8.27l16.42-41.14c2.47-6.19-2.09-12.92-8.75-12.92Z"/>
            <path class="cls-175" d="M229.88,12.65H94.72L80.85,.37H.4V48.91c0,22.37,18.25,40.44,40.62,40.23h0c12.12-.12,22.95-5.59,30.25-14.16H210.02c5.37,0,10.21-3.27,12.2-8.27l16.42-41.14c2.47-6.19-2.09-12.92-8.75-12.92Z"/>
            <path class="cls-169" d="M229.84,12.61H94.68L80.81,.33H.36V48.87c0,22.37,18.25,40.44,40.62,40.23h0c12.12-.12,22.95-5.59,30.25-14.16H209.98c5.37,0,10.21-3.27,12.2-8.27l16.42-41.14c2.47-6.19-2.09-12.92-8.75-12.92Z"/>
            <path class="cls-4" d="M229.8,12.58H94.64L80.77,.29H.32V48.83c0,22.37,18.25,40.44,40.62,40.23h0c12.12-.12,22.95-5.59,30.25-14.16H209.94c5.37,0,10.21-3.27,12.2-8.27l16.42-41.14c2.47-6.19-2.09-12.92-8.75-12.92Z"/>
            <path class="cls-75" d="M229.76,12.54H94.6L80.73,.26H.28V48.8c0,22.37,18.25,40.44,40.62,40.23h0c12.12-.12,22.95-5.59,30.25-14.16H209.9c5.37,0,10.21-3.27,12.2-8.27l16.42-41.14c2.47-6.19-2.09-12.92-8.75-12.92Z"/>
            <path class="cls-158" d="M229.72,12.5H94.56L80.69,.22H.24V48.76c0,22.37,18.25,40.44,40.62,40.23h0c12.12-.12,22.95-5.59,30.25-14.16H209.86c5.37,0,10.21-3.27,12.2-8.27l16.42-41.14c2.47-6.19-2.09-12.92-8.75-12.92Z"/>
            <path class="cls-250" d="M229.68,12.47H94.52L80.65,.18H.2V48.72c0,22.37,18.25,40.44,40.62,40.23h0c12.12-.12,22.95-5.59,30.25-14.16H209.82c5.37,0,10.21-3.27,12.2-8.27l16.42-41.14c2.47-6.19-2.09-12.92-8.75-12.92Z"/>
            <path class="cls-157" d="M229.65,12.43H94.48L80.61,.15H.16V48.69c0,22.37,18.25,40.44,40.62,40.23h0c12.12-.12,22.95-5.59,30.25-14.16H209.78c5.37,0,10.21-3.27,12.2-8.27l16.42-41.14c2.47-6.19-2.09-12.92-8.75-12.92Z"/>
            <path class="cls-70" d="M229.61,12.39H94.44L80.58,.11H.12V48.65c0,22.37,18.25,40.44,40.62,40.23h0c12.12-.12,22.95-5.59,30.25-14.16H209.74c5.37,0,10.21-3.27,12.2-8.27l16.42-41.14c2.47-6.19-2.09-12.92-8.75-12.92Z"/>
            <path class="cls-227" d="M229.57,12.36H94.4L80.54,.07H.08V48.61c0,22.37,18.25,40.44,40.62,40.23h0c12.12-.12,22.95-5.59,30.25-14.16H209.7c5.37,0,10.21-3.27,12.2-8.27l16.42-41.14c2.47-6.19-2.09-12.92-8.75-12.92Z"/>
            <path class="cls-52" d="M229.53,12.32H94.36L80.5,.04H.04V48.58C.04,70.95,18.29,89.02,40.66,88.8h0c12.12-.12,22.95-5.59,30.25-14.16H209.67c5.37,0,10.21-3.27,12.2-8.27l16.42-41.14c2.47-6.19-2.09-12.92-8.75-12.92Z"/>
            <path class="cls-243" d="M229.49,12.28H94.33L80.46,0H0V48.54c0,22.37,18.25,40.44,40.62,40.23h0c12.12-.12,22.95-5.59,30.25-14.16H209.63c5.37,0,10.21-3.27,12.2-8.27l16.42-41.14c2.47-6.19-2.09-12.92-8.75-12.92Z"/>
          </g>
          <g>
            <polygon class="cls-261" points="105.34 22.03 80.46 0 80.46 22.03 105.34 22.03"/>
            <path class="cls-260" d="M51.85,12.28v62.33H209.63c5.37,0,10.21-3.27,12.2-8.27l16.42-41.14c2.47-6.19-2.09-12.92-8.75-12.92H51.85Z"/>
            <path class="cls-262" d="M0,0V48.54c0,22.37,18.25,40.44,40.62,40.23h0c22.06-.21,39.84-18.16,39.84-40.23V0H0Z"/>
            <g>
              <path class="cls-258" d="M65.38,39.51c1.07-.6,1.62-3.34,.42-5.27-1.57-2.52-5.93-2.57-10.26-2.1-4.02,.44-5.39-.66-5.57-.82,.35-.77,.74-1.52,1.13-2.15,1.61-2.57,3.57-7.74,3.57-7.74,1.56-5.39,.7-8.32-.28-9.82-.99-1.52-3.05-1.71-4.22-.35-.03,.03-.05,.06-.07,.09-1.19,1.48-1.26,8.06-7.4,13.36-2.48,2.14-6.59,6.45-9.47,10.21h0c-2.15,2.36-3.65,5.19-3.65,5.19h0v21.24s3.72,.8,6.3,1.22c14.4,2.39,21.52,0,21.52,0,7.28-2.16,5.71-5.99,5.71-5.99,4.58-4.05,1.86-7.75,1.86-7.75,4.65-4.73,.4-9.31,.4-9.31Z"/>
              <path class="cls-258" d="M25.05,36.19h-7.23c-1.15,0-2.08,.96-2.08,2.15v23.13c0,1.19,.93,2.15,2.08,2.15h7.23c1.15,0,2.08-.96,2.08-2.16v-23.13c0-1.19-.93-2.15-2.08-2.15Z"/>
            </g>
            <g>
              <path class="cls-262" d="M108.41,43.8s-.03,.95-.08,1.4c-.29,5.64-.66,8.13-1.43,9.06-.66,.79-1.35,1.06-2.28,1.19-.77,.13-2.01,.16-3.34,.11-.05-1.06-.5-2.54-1.09-3.5,1.03,.11,2.04,.11,2.54,.11,.4,0,.66-.05,.93-.32,.37-.4,.64-1.7,.82-4.64h-5.85c.45-2.49,.87-6.33,1.09-9.4h4.82v-2.52h-5.25v-3.47h8.79v9.46h-5.27c-.08,.85-.16,1.7-.24,2.52h5.83Zm12.4,11.97c-.11-.45-.26-.95-.45-1.51-4.16,.34-8.5,.64-11.71,.85l-.42-3.73c1.62-.05,3.6-.13,5.75-.24v-2.46h-4.9v-7.87h4.9v-1.88h3.63v1.88h5.03v7.87h-.95c1.06,1.83,2.15,4.11,2.54,5.64l-3.42,1.46Zm.08-15.79c-.21-.48-.5-1.01-.85-1.59-8.08,.66-9.43,.79-10.36,1.14-.21-.66-.85-2.28-1.3-3.15,.5-.13,1.01-.53,1.46-1.11,.48-.56,1.85-2.62,2.62-4.69l4.03,.9c-.82,1.48-1.93,3.05-3.07,4.4l4.58-.32c-.42-.56-.87-1.09-1.32-1.56l2.7-1.64c1.67,1.7,3.63,4.05,4.45,5.77l-2.94,1.85Zm-6.91,5.64v-1.77h-1.59v1.77h1.59Zm3.63-1.77v1.77h1.56v-1.77h-1.56Zm1.35,7.05c-.24-.48-.45-.93-.69-1.35l2.15-.87h-2.81v2.28l1.35-.05Z"/>
              <path class="cls-262" d="M138.72,36.75c-1.32,6.44-4.58,10.25-9.56,12.45l3.1,.74c-.56,2.07-1.64,4.26-2.86,5.72l-3.74-1.48c1.01-1.01,2.07-2.86,2.68-4.64-.29,.11-.58,.21-.9,.32-.4-.95-1.3-2.49-2.01-3.28,2.17-.56,4.05-1.51,5.56-2.81-.56-.56-1.27-1.19-1.96-1.72-.29,.26-.56,.5-.85,.74-.66-.66-2.17-1.88-3.05-2.44,1.88-1.3,3.52-3.23,4.66-5.46h-3.39v-3.42h12.42v3.42h-4.9c-.19,.42-.37,.82-.58,1.22h2.41l.64-.11,2.33,.74Zm-7.15,2.3c-.13,.19-.26,.37-.4,.56,.69,.48,1.46,1.06,2.07,1.59,.42-.66,.79-1.38,1.11-2.15h-2.78Zm5.35,10.62c.34,1.64,.66,3.79,.69,5.11l-3.79,.56c0-1.32-.19-3.55-.48-5.24l3.58-.42Zm5.24-.08c.64,1.59,1.27,3.68,1.48,5.03l-3.87,.74c-.13-1.32-.69-3.5-1.25-5.17l3.63-.61Zm1.11-5.62h-3.81v-11.81h3.81v11.81Zm5.85,1.27c0,1.88-.37,2.83-1.62,3.42-1.22,.56-2.86,.64-5.01,.64-.19-1.03-.79-2.65-1.32-3.63,1.3,.05,2.94,.05,3.42,.05s.64-.13,.64-.53v-14.33h3.89v14.38Zm-1.7,3.68c1.14,1.64,2.6,3.89,3.26,5.4l-3.97,1.3c-.53-1.46-1.88-3.81-2.99-5.56l3.71-1.14Z"/>
              <path class="cls-262" d="M177.29,54.13h-10.6v1.56h-3.68v-13.69c-.45,.61-.93,1.17-1.4,1.67-.21-.27-.53-.64-.87-1.03l.34,2.36-2.36,.66v5.69c0,1.75-.26,2.75-1.19,3.39-.95,.64-2.2,.77-3.97,.77-.08-1.03-.53-2.68-1.01-3.76,.82,.05,1.72,.05,2.04,.03,.32,0,.42-.08,.42-.45v-4.66l-2.25,.58-.79-3.68c.87-.16,1.91-.4,3.05-.66v-4.21h-2.7v-3.52h2.7v-4.66h3.71v4.66h2.44v2.97c1.54-2.15,2.83-4.82,3.66-7.5l3.63,.98c-.4,1.11-.85,2.25-1.32,3.36h2.7c-.32-.93-.82-2.07-1.3-2.97l3.31-1.32c.69,1.09,1.38,2.57,1.7,3.58l-1.64,.72h4.79v3.5h-3.81v1.75h3.55v3.36h-3.55v1.77h3.5v3.36h-3.5v1.91h4.42v3.5Zm-17.4-12.42c-.34-.37-.69-.69-.98-.93,.64-.61,1.27-1.32,1.85-2.09h-2.04v3.31l1.17-.29Zm9.4-3.23h-2.6v1.75h2.6v-1.75Zm0,5.11h-2.6v1.77h2.6v-1.77Zm-2.6,7.05h2.6v-1.91h-2.6v1.91Z"/>
              <path class="cls-262" d="M192.21,34.63c.32,.48,.64,1.09,.85,1.62h10.2v2.52h-7.44v.82h6.38v4.93h-13.19l-.11,.66h13.46v2.38h-13.83l-.11,.69h14.46s-.03,.74-.08,1.14c-.21,3.1-.53,4.61-1.11,5.27-.53,.56-1.14,.77-1.83,.85-.58,.11-1.59,.13-2.7,.08-.05-.72-.29-1.72-.64-2.46l-1.17,.53c-.24-.66-.82-1.67-1.32-2.41l1.46-.56h-10.68l.95-6.17h-1.35c-.19,3.6-.82,7.89-2.68,10.81-.69-.56-2.28-1.51-3.15-1.85,2.15-3.34,2.33-8.19,2.33-11.55v-5.67h8.74c-.13-.27-.24-.5-.37-.74l2.91-.87Zm-8.05-.11h-4.71v-2.81h4.71v-1.25h3.68v1.25h3.07v2.81h-3.07v1.19h-3.68v-1.19Zm-1.24,19.55c.66-.85,1.32-2.2,1.67-3.28l2.68,1.19c-.4,1.17-.98,2.62-1.64,3.6l-2.7-1.51Zm1.56-15.31v.82h2.49v-.82h-2.49Zm0,3.71h2.49v-.85h-2.49v.85Zm5.85,8.93c.26,1.11,.42,2.57,.42,3.52l-2.94,.42c.05-.95-.08-2.44-.27-3.58l2.78-.37Zm2.25-12.64h-2.41v.82h2.41v-.82Zm-2.41,3.71h2.41v-.85h-2.41v.85Zm3.31,8.45c.45,.95,.87,2.25,1.03,3.13l-2.78,.87c-.11-.9-.5-2.25-.9-3.26l2.65-.74Zm10.12-19.23v2.81h-4.95v1.22h-3.68v-1.22h-3.07v-2.81h3.07v-1.22h3.68v1.22h4.95Zm-7.79,9.93v.85h2.62v-.85h-2.62Zm1.22,11.28c.4,.03,.74,.03,.98,.03,.32,0,.5-.03,.69-.24,.21-.21,.37-.79,.5-2.01h-2.46c.45,.61,.9,1.32,1.11,1.85l-.82,.37Z"/>
            </g>
          </g>
        </g>
      </g>
    </g>
  </g>
</svg>