<?xml version="1.0" encoding="UTF-8"?>
<svg id="_圖層_2" data-name="圖層 2" xmlns="http://www.w3.org/2000/svg" viewBox="0 0 24.65 51.85">
  <defs>
    <style>
      .cls-1 {
        fill: none;
        stroke: #0080c3;
        stroke-linecap: round;
        stroke-linejoin: round;
        stroke-width: .85px;
      }
    </style>
  </defs>
  <g id="_圖層_1-2" data-name="圖層 1">
    <g>
      <path class="cls-1" d="M2.12,3.82c-.94,0-1.7,.76-1.7,1.7V49.72c0,.94,.76,1.7,1.7,1.7H22.52c.94,0,1.7-.76,1.7-1.7V5.53c0-.94-.76-1.7-1.7-1.7"/>
      <path class="cls-1" d="M17.42,3.82v-1.7c0-.94-.76-1.7-1.7-1.7h-6.8c-.94,0-1.7,.76-1.7,1.7v1.7"/>
      <line class="cls-1" x1="2.12" y1="3.82" x2="7.22" y2="3.82"/>
      <line class="cls-1" x1="22.52" y1="3.82" x2="17.42" y2="3.82"/>
      <line class="cls-1" x1="7.22" y1="44.62" x2="17.42" y2="44.62"/>
      <line class="cls-1" x1="7.22" y1="37.82" x2="17.42" y2="37.82"/>
      <line class="cls-1" x1="7.22" y1="31.03" x2="17.42" y2="31.03"/>
      <line class="cls-1" x1="7.22" y1="24.22" x2="17.42" y2="24.22"/>
    </g>
  </g>
</svg>