<?xml version="1.0" encoding="UTF-8"?>
<svg id="_圖層_2" data-name="圖層 2" xmlns="http://www.w3.org/2000/svg" viewBox="0 0 253 47.46">
  <defs>
    <style>
      .cls-1 {
        fill: #fff;
      }

      .cls-2 {
        fill: #231f20;
      }
    </style>
  </defs>
  <g id="_圖層_1-2" data-name="圖層 1">
    <g>
      <path class="cls-2" d="M202.52,3.87V43.44h37.89V3.87h-37.89Zm15.21,38.57l.67-.92c1.05-1.56,1.99-3.18,2.84-4.85,.7,1.43,1.74,3.2,2.77,4.85l.57,.92h-6.85Zm21.64,0h-5.65l-7.97-11.36,9.14-12.83h-9.1l-1.61,2.56c-1.02,1.55-1.96,3.16-2.81,4.81-.82-1.66-1.75-3.27-2.77-4.81l-1.61-2.56h-9.3l9.14,13.01-8.07,11.19h-5.23V4.89h35.85V42.44Z"/>
      <g>
        <path class="cls-2" d="M239.61,47.45H4.75C2.16,47.49,.04,45.43,0,42.84c0-.02,0-.04,0-.07V4.68C0,2.1,2.09,0,4.68,0c.02,0,.04,0,.07,0H239.61c2.58-.04,4.71,2.03,4.74,4.61,0,.02,0,.04,0,.07V42.78c0,2.58-2.09,4.68-4.68,4.68-.02,0-.04,0-.07,0ZM4.75,2.01c-1.48-.04-2.7,1.13-2.74,2.61,0,.02,0,.05,0,.07V42.78c.02,1.48,1.24,2.66,2.71,2.63,0,0,.02,0,.03,0H239.61c1.48,.02,2.69-1.16,2.71-2.63h0V4.68c0-1.48-1.2-2.67-2.67-2.67-.01,0-.03,0-.04,0H4.75Z"/>
        <path class="cls-2" d="M43.84,3.92h37.89V43.51H43.84V3.92Z"/>
        <path class="cls-2" d="M83.37,3.92h37.89V43.51h-37.89V3.92Z"/>
        <path class="cls-2" d="M123.17,3.92h37.89V43.51h-37.89V3.92Z"/>
        <path class="cls-2" d="M162.96,3.92h37.89V43.51h-37.89V3.92Z"/>
        <path class="cls-2" d="M4.05,3.92H41.94V43.51H4.05V3.92Z"/>
        <path class="cls-1" d="M23.87,37.62c-7.86,0-12.03-5.81-12.03-13.65,0-8.52,4.99-13.65,12.08-13.65,6.5,0,9.07,2.79,10.88,7.78l-6.67,2.62c-.94-2.47-1.85-4.01-4.26-4.01-3.07,0-4.39,3.07-4.39,7.27s1.28,7.27,4.46,7.27c2.3,0,3.29-1.25,4.72-3.75l6.2,3.3c-1.77,3.45-4.72,6.81-10.99,6.81Zm41.21-11.2h-4.38l.49-1.74c.95-3.34,1.34-4.83,1.7-6.6,.34,1.78,.76,3.21,1.7,6.6l.49,1.74Zm11.12,10.48l-9.57-26.45h-7.41l-9.6,26.45h7.86l1.44-4.68h7.92l1.44,4.68h7.92Zm29.83-17.52c0,1.9-.94,2.95-3.34,2.95h-4.3v-5.79h4.42c2.31,0,3.21,1.18,3.21,2.84Zm7.83,17.64l-5.29-10.1c2.91-1.34,4.77-3.76,4.77-7.73,0-6.28-4.12-8.62-10.33-8.62h-11.83v26.45h7.22v-8.96h2.95l4.32,8.93,8.2,.03Zm25.07-20.22v3.69h8.27v6.19h-8.27v10.35h-7.29V10.58h20.93v6.22h-13.64Zm44.88,9.83h-4.38l.49-1.73c.94-3.34,1.34-4.83,1.7-6.61,.34,1.78,.76,3.21,1.7,6.61l.49,1.73Zm11.15,10.48l-9.57-26.41h-7.41l-9.6,26.41h7.86l1.44-4.68h7.93l1.44,4.68h7.91Z"/>
        <path class="cls-2" d="M251.98,1.16c-.65-.69-1.55-1.07-2.49-1.05-.94-.02-1.85,.36-2.5,1.05-.67,.68-1.04,1.6-1.02,2.56-.02,.95,.36,1.86,1.04,2.53,.65,.68,1.55,1.06,2.49,1.04,.94,.02,1.84-.37,2.49-1.05,.67-.67,1.04-1.58,1.02-2.53,.02-.95-.35-1.87-1.02-2.55Zm-.51,4.68l-1.26-1.69c.31-.03,.61-.15,.85-.35,.29-.24,.45-.6,.43-.98,0-.35-.13-.68-.38-.92-.31-.28-.72-.42-1.14-.39h-2.11V5.81h.77v-1.68h.62l1.26,1.68h.93c-.52,.56-1.25,.87-2.01,.86-.76,0-1.49-.31-2.01-.87-.54-.55-.83-1.3-.81-2.08-.01-.78,.29-1.54,.84-2.09,.53-.57,1.27-.89,2.05-.88,.75,0,1.46,.32,1.96,.88,.54,.55,.85,1.3,.84,2.08,0,.78-.29,1.53-.84,2.09v.05Zm-.76-3.03c0,.45-.28,.67-.86,.67h-1.22v-1.26h1.16c.61,0,.91,.19,.91,.57v.03Z"/>
      </g>
    </g>
  </g>
</svg>