<?xml version="1.0" encoding="UTF-8"?>
<svg id="_圖層_2" data-name="圖層 2" xmlns="http://www.w3.org/2000/svg" viewBox="0 0 46.01 51">
  <defs>
    <style>
      .cls-1 {
        fill: #0080c3;
      }
    </style>
  </defs>
  <g id="_圖層_1-2" data-name="圖層 1">
    <g>
      <path class="cls-1" d="M2.33,.85h.07c4.05,.13,7.12,4.69,8.79,9.2-1.62-.67-3.22-1.03-4.66-1.03s-2.81,.38-3.82,1.08L.89,2.72c-.11-.46-.01-.93,.28-1.3,.28-.36,.7-.57,1.15-.57m0-.85C.82,0-.29,1.44,.07,2.92L2.24,11.73s.07-.09,.1-.13c.88-1.12,2.36-1.73,4.19-1.73,1.69,0,3.86,.57,6.1,1.83C11,6.06,7.36,.16,2.42,0c0,0-.02,0-.03,0-.02,0-.05,0-.07,0h0Z"/>
      <path class="cls-1" d="M6.53,12.24c4.27,0,11.38,4.44,13.81,14.31l1.37,5.56c-1.95,.69-3.43,1.51-4.53,2.12-.44,.24-.87,.5-1.27,.77-.66,.43-1.06,.77-1.18,.87-1.79,1.44-3.24,3.23-4.28,5.25L3.98,14.87c-.19-.76-.11-1.37,.23-1.8,.42-.53,1.24-.82,2.32-.82m0-.85c-2.42,0-3.96,1.3-3.37,3.68l7.08,28.75c.93-2.84,2.68-5.39,5.03-7.28,.12-.1,.49-.41,1.11-.82,.38-.25,.79-.5,1.21-.73,1.27-.71,2.89-1.61,5.13-2.31l-1.56-6.32c-2.57-10.45-10.13-14.96-14.63-14.96h0Z"/>
      <path class="cls-1" d="M38.23,46.88c.61,0,1.1,.5,1.1,1.1v.4c0,.47,.38,.85,.85,.85h2.41c.25,0,.46,.21,.46,.46s-.21,.46-.46,.46H12.29c-.25,0-.46-.21-.46-.46s.21-.46,.46-.46h10.04c.47,0,.85-.38,.85-.85v-.4c0-.61,.5-1.1,1.1-1.1h13.94m0-.85h-13.94c-1.08,0-1.96,.88-1.96,1.96v.4H12.29c-.72,0-1.31,.59-1.31,1.31s.59,1.31,1.31,1.31h30.3c.72,0,1.31-.59,1.31-1.31s-.59-1.31-1.31-1.31h-2.41v-.4c0-1.08-.88-1.96-1.96-1.96h0Z"/>
      <path class="cls-1" d="M30.82,33.92c1.18,0,2.44,.06,3.79,.19,1.06,.05,6.43,.44,8.64,3.11,2.29,2.77,2.38,6.28,1.02,7.82-.68,.81-2,.99-2.68,1.03h-.12c-.49-1.33-1.78-2.26-3.24-2.26h-13.94c-1.46,0-2.75,.93-3.24,2.26H12.27c-.08,0-.12-.04-.13-.06-.03-.03-.02-.06-.02-.08,.62-2.97,2.28-5.66,4.68-7.59,0,0,.3-.26,.89-.65,.33-.22,.67-.43,1.04-.63,2.38-1.33,5.64-3.15,12.09-3.15m0-.85c-6.65,0-10.05,1.89-12.5,3.25-.38,.21-.74,.43-1.1,.66-.65,.43-.98,.72-.98,.72-2.5,2.01-4.28,4.84-4.95,8.05-.13,.61,.36,1.16,.98,1.16h0s.01,0,.01,0h9.42c.17-1.27,1.26-2.26,2.58-2.26h13.94c1.32,0,2.41,.99,2.58,2.26h.77c.93-.05,2.46-.3,3.33-1.33,1.66-1.88,1.51-5.86-1.01-8.91-2.4-2.91-7.84-3.35-9.25-3.42-1.39-.13-2.66-.19-3.83-.19h0Z"/>
    </g>
  </g>
</svg>