<?xml version="1.0" encoding="UTF-8"?>
<svg id="_圖層_2" data-name="圖層 2" xmlns="http://www.w3.org/2000/svg" viewBox="0 0 52.48 51.85">
  <defs>
    <style>
      .cls-1 {
        fill: #0080c3;
      }
    </style>
  </defs>
  <g id="_圖層_1-2" data-name="圖層 1">
    <path class="cls-1" d="M10.97,1.28c6.32,0,12.39,1.94,17.54,5.6l21.53,15.32c.73,.52,1.16,1.36,1.16,2.25,0,.68-.27,1.36-.76,1.91-5.95,6.59-7.11,18.25-7.34,22.95-.03,.71-.62,1.27-1.34,1.27H2.62c-.74,0-1.34-.6-1.34-1.34V2.62c0-.74,.6-1.34,1.34-1.34H10.97M3.98,24.13H41.51c1.12,0,2.06-.69,2.4-1.75,.34-1.06-.03-2.17-.94-2.81l-15.77-11.2c-4.7-3.34-10.23-5.1-16-5.1H3.98c-.47,0-.85,.38-.85,.85V23.28c0,.47,.38,.85,.85,.85m1.68,7.34H15.13c.55,0,1.07-.27,1.38-.72,.32-.45,.39-1.03,.21-1.54-.47-1.31-1.71-2.18-3.1-2.18H7.17c-1.39,0-2.63,.88-3.1,2.18-.19,.52-.11,1.09,.21,1.54,.32,.45,.83,.72,1.38,.72M10.97,.42H2.62C1.41,.42,.43,1.41,.43,2.62V49.23c0,1.21,.98,2.19,2.19,2.19H41.76c1.17,0,2.14-.91,2.19-2.08,.22-4.67,1.36-16.04,7.12-22.42,.62-.68,.98-1.55,.98-2.48,0-1.17-.57-2.27-1.52-2.94L29.01,6.18C23.74,2.44,17.44,.42,10.97,.42h0ZM3.98,23.28V4.12h7.22c5.59,0,10.95,1.71,15.5,4.95l15.77,11.2c1.32,.94,.66,3.02-.97,3.02H3.98Zm1.68,7.34c-.58,0-.99-.58-.79-1.12,.35-.97,1.27-1.62,2.3-1.62h6.45c1.03,0,1.95,.65,2.3,1.62,.2,.55-.21,1.12-.79,1.12H5.66Z"/>
  </g>
</svg>