<?xml version="1.0" encoding="UTF-8"?>
<svg id="_圖層_2" data-name="圖層 2" xmlns="http://www.w3.org/2000/svg" viewBox="0 0 59.7 51.85">
  <defs>
    <style>
      .cls-1 {
        fill: #0080c3;
      }

      .cls-2 {
        fill: none;
        stroke: #0080c3;
        stroke-linecap: round;
        stroke-linejoin: round;
        stroke-width: .85px;
      }
    </style>
  </defs>
  <g id="_圖層_1-2" data-name="圖層 1">
    <g>
      <path class="cls-2" d="M.42,35.73H10.23c1.08,0,1.96-.88,1.96-1.96,0-4.34-3.51-5.88-7.85-5.88H1.66"/>
      <path class="cls-2" d="M59.27,35.73h-9.81c-1.08,0-1.96-.88-1.96-1.96,0-4.34,3.51-5.88,7.85-5.88h2.69"/>
      <path class="cls-2" d="M8.27,16.12H2.39c-1.08,0-1.96,.88-1.96,1.96v1.96c0,2.17,1.75,3.92,3.92,3.92v.2C.42,28.08,.42,31.81,.42,35.73v13.73c0,1.08,.88,1.96,1.96,1.96h7.85c1.08,0,1.96-.88,1.96-1.96v-5.88H47.5v5.88c0,1.08,.88,1.96,1.96,1.96h7.85c1.08,0,1.96-.88,1.96-1.96v-13.73c0-3.92,0-7.65-3.92-11.57v-.2c2.17,0,3.92-1.75,3.92-3.92v-1.96c0-1.08-.88-1.96-1.96-1.96h-5.88"/>
      <path class="cls-1" d="M29.49,12.24l1.99,7.63c.1,.37,.44,.64,.82,.64h5.73l-7.83,11.27-1.99-7.63c-.1-.37-.44-.64-.82-.64h-5.73l7.83-11.27m.36-2l-9.81,14.12h7.36l2.45,9.42,9.81-14.12h-7.36l-2.45-9.42h0Z"/>
      <path class="cls-2" d="M51.42,16.12l-3.92-11.77c-.56-1.79-7.9-3.92-17.65-3.92S12.76,2.56,12.19,4.35l-3.92,11.77"/>
    </g>
  </g>
</svg>