<?xml version="1.0" encoding="UTF-8"?>
<svg id="_圖層_2" data-name="圖層 2" xmlns="http://www.w3.org/2000/svg" viewBox="0 0 599.04 68.44">
  <defs>
    <style>
      .cls-1, .cls-2 {
        fill: #fff;
      }

      .cls-2 {
        fill-rule: evenodd;
      }

      .cls-3 {
        fill: none;
        stroke: #fff;
        stroke-miterlimit: 10;
        stroke-width: .75px;
      }
    </style>
  </defs>
  <g id="_圖層_2-2" data-name="圖層 2">
    <g>
      <g>
        <path class="cls-2" d="M585.34,1.98l.41,1.1,7.99-2.98c.84-.31,1.77,.12,2.09,.95h0c.31,.84-.12,1.77-.95,2.09l-7.99,2.98,.99,2.66,.99,2.66,7.99-2.98c.84-.31,1.77,.12,2.08,.95h0c.31,.84-.12,1.77-.95,2.08l-7.99,2.98,.41,1.1c.49,1.31-.19,2.79-1.5,3.28l-5.72,2.13c-4.91,1.71-10.3,.29-12.78-3.99-7.53,2.95-7.84-.28-1.11-2.92-.99-4.89,2.18-9.53,7.04-11.49l5.71-2.13c1.31-.49,2.79,.18,3.28,1.5Z"/>
        <path class="cls-1" d="M449.57,46.46l-4.04,7.89c-2.07,.84-4.03,1.45-5.87,1.85-1.84,.4-3.63,.6-5.36,.6-4.27,0-7.25-1.23-8.92-3.69-1.67-2.46-1.75-5.66-.22-9.62,1.59-4.12,4.36-7.6,8.33-10.44,3.96-2.84,7.99-4.26,12.1-4.26,3.51,0,5.99,1.04,7.44,3.12,1.45,2.08,1.54,4.77,.26,8.08-.2,.51-.55,1.33-1.06,2.45l-.09,.17-1.25,1.17-17.71,.48c-.53,1.73-.35,3.13,.54,4.2,.9,1.07,2.34,1.61,4.34,1.61,1.4,0,3.08-.3,5.04-.91,1.95-.61,4.11-1.51,6.47-2.71Zm-14.7-6.07l11.27-.34,.15-.4c.52-1.35,.47-2.45-.14-3.32-.62-.86-1.65-1.3-3.09-1.3-1.61,0-3.14,.47-4.59,1.41-1.44,.94-2.64,2.26-3.6,3.95Zm20.39,5.03l2.02-5.25h9.98l-2.02,5.25h-9.98Zm47.4-15.46l-8.97,23.27c-.91,2.35-1.7,4.13-2.39,5.31-.69,1.19-1.47,2.27-2.37,3.26-1.85,2.05-4,3.6-6.44,4.66-2.44,1.05-5.1,1.58-7.99,1.58-1.73,0-3.41-.19-5.04-.57-1.63-.38-3.29-.97-4.97-1.77l2.63-7.12c1.5,1.02,2.94,1.78,4.31,2.26,1.37,.48,2.74,.73,4.11,.73,1.99,0,3.72-.48,5.19-1.42,1.47-.95,2.53-2.29,3.2-4.02l.67-1.74c-1.27,.65-2.47,1.12-3.6,1.42-1.12,.3-2.25,.46-3.37,.46-3.63,0-6.09-1.22-7.38-3.65-1.3-2.43-1.18-5.63,.35-9.6,1.59-4.12,4.17-7.53,7.74-10.24,3.57-2.71,7.28-4.06,11.14-4.06,.89,0,1.78,.12,2.65,.37,.87,.25,1.8,.63,2.78,1.14l7.74-.29Zm-11.46,6.52c-.42-.3-.84-.52-1.27-.65-.43-.13-.89-.2-1.36-.2-1.69,0-3.39,.71-5.09,2.12-1.7,1.41-2.97,3.19-3.8,5.34-.78,2.01-.91,3.69-.41,5.03,.5,1.34,1.48,2.01,2.94,2.01,.57,0,1.23-.16,2-.48,.76-.32,1.58-.8,2.47-1.42l4.52-11.74Zm10.32,6.3c1.57-4.08,4.2-7.45,7.89-10.08,3.69-2.64,7.57-3.96,11.65-3.96s6.98,1.32,8.64,3.96c1.66,2.64,1.7,6,.13,10.08-1.57,4.08-4.21,7.45-7.91,10.1-3.7,2.65-7.6,3.97-11.7,3.97s-6.92-1.32-8.58-3.97c-1.66-2.65-1.7-6.02-.12-10.1Zm9.12,0c-.84,2.18-1.05,3.94-.63,5.28,.42,1.34,1.37,2.01,2.83,2.01s2.92-.67,4.38-2.02c1.46-1.35,2.61-3.11,3.44-5.27,.83-2.15,1.03-3.9,.62-5.26-.42-1.36-1.36-2.04-2.82-2.04s-2.92,.67-4.38,2.02c-1.46,1.35-2.61,3.1-3.44,5.27Zm27.63,12.85h-9.03l15.67-40.65,9.5-1.22-16.14,41.87Zm33.31-25.67l-2.6,6.75h-6.12l-7.29,18.91h-9.12l7.29-18.91h-3.73l2.6-6.75h3.73l.88-2.28c1.23-3.19,2.78-5.93,4.64-8.2,1.87-2.28,3.78-3.78,5.75-4.5l10.61-1.22-1.08,2.79c-2.42,.55-4.46,1.6-6.13,3.15-1.67,1.55-3.02,3.65-4.04,6.31l-1.53,3.96h6.12Z"/>
      </g>
      <g>
        <path class="cls-1" d="M30.11,65.67c-14.99,0-27.28-12.34-27.28-27.34,0-3.37,.6-6.56,1.75-9.57l15.96,32.09c.18,.42,.48,.78,.96,.78s.78-.36,.96-.78l7.35-16.44c.06-.18,.18-.36,.36-.36s.24,.18,.36,.36l7.35,16.44c.18,.42,.48,.78,.96,.78s.78-.36,.96-.78l15.96-32.09c1.14,3.01,1.75,6.2,1.75,9.57-.12,14.99-12.4,27.34-27.4,27.34Zm0-33.54c-.18,0-.24-.18-.36-.36L21.2,12.5c2.77-1.02,5.78-1.57,8.91-1.57s6.14,.54,8.91,1.57l-8.55,19.27c-.12,.24-.18,.36-.36,.36Zm-8.73,19.81c-.18,0-.24-.18-.36-.36L7.17,23.64c2.47-3.79,5.78-6.98,9.81-9.21l10,22.22c.12,.36,.42,.48,.72,.48h4.82c.36,0,.6-.06,.78-.48l10-22.22c3.97,2.23,7.35,5.42,9.81,9.21l-13.97,27.94c-.06,.18-.18,.36-.36,.36s-.24-.18-.36-.36l-5.24-11.92c-.18-.42-.42-.48-.78-.48h-4.82c-.36,0-.6,.06-.78,.48l-5.06,11.92c-.06,.18-.18,.36-.36,.36Zm8.73,16.5c16.68,0,30.11-13.43,30.11-30.11S46.79,8.23,30.11,8.23,0,21.65,0,38.33s13.43,30.11,30.11,30.11Z"/>
        <g>
          <path class="cls-1" d="M212.12,47.91c.09-.17,.23-.32,.28-.5,.42-1.46,.82-2.94,1.26-4.4,.28-.94,.65-1.85,.95-2.79,.28-.86,.52-1.73,.78-2.6,.37-1.18,.75-2.36,1.13-3.54,.21-.66,.41-1.33,.62-2,.15-.48,.49-.59,.96-.59,1.97,.02,3.94,.01,5.91-.01,.93,0,1.24,.23,1.38,1.18,.03,.2,.04,.43,.14,.6,.3,.5,.38,1.06,.52,1.61,.22,.87,.55,1.72,.83,2.57,.05,.15,.12,.29,.16,.44,.42,1.33,.84,2.66,1.24,3.99,.3,.99,.55,1.99,.83,2.98,.05,.17,.15,.33,.2,.5,.12,.44,.23,.89,.34,1.34,.03,.12,0,.26,.03,.39,.06,.48,.25,.72,.57,.71,.42-.02,.49-.35,.51-.66,.14-1.67,.72-3.22,1.18-4.81,.32-1.12,.55-2.26,.85-3.38,.31-1.14,.65-2.28,.97-3.42,.07-.25,.11-.5,.18-.76,.11-.45,.24-.89,.35-1.34,.09-.35,.19-.7,.26-1.05,.13-.65,.31-.84,.98-.87,.72-.03,1.45,0,2.18,0,1.19-.01,2.38-.03,3.57-.05,.53,0,.73,.14,.72,.67,0,.33-.08,.67-.17,.99-.34,1.16-.7,2.32-1.07,3.48-.08,.27-.2,.53-.29,.8-.11,.34-.22,.69-.31,1.03-.05,.17-.06,.36-.11,.53-.42,1.36-.83,2.72-1.26,4.07-.3,.93-.65,1.85-.96,2.78-.07,.19-.07,.41-.12,.61-.09,.35-.2,.69-.32,1.03-.05,.15-.15,.28-.19,.42-.26,.97-.5,1.95-.77,2.92-.18,.64-.4,1.28-.61,1.91-.39,1.15-.79,2.3-1.17,3.45-.13,.39-.39,.49-.78,.49-2.05-.01-4.1,0-6.15-.02-.95,0-.97-.06-1.2-.95-.18-.67-.41-1.33-.63-1.99-.32-.95-.66-1.9-.97-2.86-.27-.81-.53-1.62-.79-2.43-.38-1.17-.77-2.35-1.13-3.52-.27-.86-.5-1.73-.75-2.6-.05-.17-.1-.35-.15-.52-.16-.59-.33-1.19-.48-1.79-.06-.23-.08-.49-.38-.5-.28-.02-.4,.19-.47,.43-.02,.08-.04,.15-.06,.23-.29,1.53-.84,2.97-1.35,4.43-.3,.85-.5,1.73-.77,2.59-.32,1.01-.68,2.01-1,3.02-.32,1.01-.59,2.03-.92,3.03-.31,.95-.65,1.9-.99,2.84-.17,.48-.54,.62-1.05,.61-1.94-.02-3.89,0-5.84,0-.93,0-1.21-.26-1.42-1.18-.17-.73-.39-1.44-.62-2.16-.3-.96-.62-1.92-.93-2.88-.1-.32-.17-.65-.26-.97-.07-.25-.15-.49-.22-.74-.14-.44-.27-.89-.41-1.33-.08-.27-.17-.54-.25-.81-.32-1.01-.63-2.02-.95-3.03-.11-.37-.22-.74-.34-1.11-.08-.27-.18-.54-.26-.81-.13-.42-.27-.83-.4-1.25-.08-.27-.15-.55-.23-.82-.09-.32-.19-.64-.29-.96-.05-.15-.13-.28-.17-.43-.27-.94-.51-1.89-.79-2.83-.27-.89-.54-1.78-.87-2.65-.31-.81-.09-1.2,.77-1.19,1.45,.01,2.9,.03,4.35,.04,.39,0,.78-.02,1.16-.05,.57-.04,.72,.04,.96,.57,.1,.21,.19,.43,.25,.65,.3,1.15,.58,2.3,.88,3.45,.08,.3,.17,.6,.26,.89,.06,.2,.17,.38,.22,.58,.27,1.08,.51,2.17,.79,3.24,.3,1.12,.64,2.24,.94,3.36,.25,.95,.47,1.91,.71,2.87,.07,.26,.16,.52,.24,.78,.08,0,.16,.01,.24,.02Z"/>
          <path class="cls-1" d="M296.87,44.57c0,3.42,0,6.85,0,10.27,0,1.35-.16,2.67-.46,4-.29,1.25-.74,2.42-1.37,3.51-.68,1.17-1.64,2.14-2.74,2.94-1.23,.89-2.63,1.51-4.09,1.79-2.29,.45-4.61,.63-6.96,.29-1.34-.19-2.66-.44-3.94-.84-1.05-.33-2.05-.84-3.06-1.3-.31-.14-.42-.55-.18-.96,.78-1.35,1.16-2.85,1.8-4.25,.16-.34,.36-.37,.76-.16,.39,.2,.77,.41,1.18,.57,2.3,.94,4.7,1.24,7.16,1.08,1.22-.08,2.41-.39,3.3-1.33,.67-.71,1.14-1.53,1.21-2.53,.05-.77,.08-1.55,.1-2.32,0-.16-.08-.41-.19-.45-.16-.06-.41-.02-.57,.07-.29,.17-.52,.43-.81,.6-1.58,.91-3.29,1.37-5.11,1.33-.96-.02-1.94,0-2.87-.19-2.05-.42-3.84-1.39-5.23-2.99-.58-.66-1.05-1.38-1.49-2.15-1.16-2.04-1.64-4.22-1.71-6.51-.04-1.14,.02-2.28,.05-3.42,.01-.33,.07-.67,.16-.99,.3-1.17,.53-2.37,1.02-3.49,.21-.49,.48-.96,.76-1.42,1.01-1.68,2.36-2.96,4.13-3.86,2.16-1.09,4.43-1.3,6.73-.93,1.71,.28,3.32,1,4.69,2.13,.1,.08,.19,.17,.3,.25,.62,.5,1.06,.35,1.21-.41,.23-1.11,.56-1.36,1.69-1.33,1.17,.02,2.33,.02,3.5,0,.91-.02,1.04,.06,1.04,.99,0,3.71,0,7.42-.01,11.12,0,.31,0,.62,0,.93h.01Zm-7.31-.64h-.01c0-1.61-.03-3.22,0-4.82,.02-.67-.25-1.11-.83-1.34-.67-.27-1.34-.58-2.05-.71-1.11-.21-2.22-.32-3.38-.11-1.24,.22-2.17,.85-2.91,1.76-.38,.47-.87,.97-.84,1.7,0,.19-.15,.38-.2,.58-.11,.4-.3,.8-.3,1.2-.03,1.75-.22,3.51,.46,5.22,.32,.82,.76,1.5,1.34,2.13,.83,.91,1.95,1.13,3.07,1.35,.52,.1,1.1,.12,1.61,0,1.07-.27,2.19-.37,3.2-.9,.69-.36,.86-.51,.86-1.29,0-1.58,0-3.16,0-4.74Z"/>
          <path class="cls-1" d="M90.59,56.64c-1.22,0-2.44,.02-3.66,0-.83-.02-.81-.05-1.09-.81-.29-.8-.63-1.58-.92-2.37-.32-.87-.58-1.76-.9-2.63-.32-.9-.68-1.78-1.02-2.67-.04-.1-.09-.19-.12-.29-.46-1.39-.89-2.8-1.38-4.18-.28-.8-.67-1.56-.96-2.35-.32-.87-.57-1.76-.86-2.64-.24-.71-.5-1.41-.75-2.11-.35-.99-.7-1.98-1.05-2.97-.08-.22-.19-.42-.28-.64-.11-.28-.22-.57-.32-.86-.04-.12-.03-.26-.08-.38-.54-1.4-1.1-2.78-1.61-4.18-.3-.82-.53-1.66-.81-2.49-.07-.22-.17-.43-.27-.64-.08-.19-.18-.37-.26-.56-.18-.48-.35-.96-.53-1.44-.03-.07-.07-.14-.09-.21-.16-.51,.05-.8,.59-.8,1.81,.01,3.63,.03,5.44,.04,.28,0,.58,.05,.85-.02,.82-.21,1.36,.12,1.67,1.19,.14,.47,.29,.94,.44,1.4,.3,.99,.6,1.98,.9,2.97,.07,.22,.16,.44,.23,.66,.13,.39,.26,.78,.38,1.17,.05,.17,.05,.36,.12,.53,.3,.82,.65,1.63,.93,2.46,.31,.93,.53,1.88,.82,2.81,.3,.93,.65,1.85,.97,2.77,.03,.1,.1,.19,.12,.29,.25,.87,.49,1.73,.74,2.6,.06,.2,.13,.39,.21,.58,.06,.14,.17,.27,.21,.42,.27,.88,.52,1.77,.79,2.66,.08,.27,.18,.54,.28,.8,.06,.14,.16,.27,.2,.42,.22,.82,.44,1.64,.65,2.46,.01,.05,0,.11,.03,.15,.1,.14,.2,.35,.33,.37,.11,.02,.33-.16,.37-.3,.2-.56,.35-1.14,.52-1.71,.12-.39,.25-.78,.38-1.17,.08-.25,.16-.49,.24-.73,.13-.42,.26-.83,.4-1.25,.22-.66,.46-1.31,.67-1.98,.28-.91,.54-1.83,.82-2.75,.09-.3,.21-.58,.31-.88,.11-.32,.21-.63,.31-.95,.08-.27,.16-.54,.24-.82,.13-.42,.25-.83,.38-1.25,.03-.1,.03-.21,.06-.3,.3-.82,.62-1.63,.9-2.46,.3-.91,.55-1.83,.83-2.74,.04-.12,.04-.26,.08-.38,.32-.92,.66-1.84,.98-2.77,.09-.27,.16-.54,.24-.82,.09-.3,.17-.6,.26-.89,.12-.39,.25-.78,.39-1.18,.11-.32,.2-.64,.34-.94,.17-.36,.49-.48,.89-.48,2.2,.01,4.4,.01,6.6,0,.63,0,.93,.34,.71,.93-.3,.79-.66,1.56-.96,2.35-.13,.33-.15,.71-.27,1.05-.51,1.37-1.07,2.73-1.57,4.1-.31,.84-.55,1.71-.83,2.57-.06,.17-.14,.33-.21,.5-.15,.38-.29,.77-.43,1.15-.3,.82-.61,1.64-.9,2.47-.3,.85-.6,1.7-.9,2.55-.09,.24-.17,.48-.28,.72-.05,.12-.15,.22-.19,.34-.28,.83-.55,1.66-.82,2.49-.06,.17-.1,.35-.16,.52-.34,.97-.69,1.94-1.04,2.91-.07,.19-.16,.38-.23,.57-.12,.34-.24,.67-.36,1.01-.03,.1-.03,.21-.07,.3-.29,.74-.61,1.47-.89,2.22-.34,.89-.64,1.8-.97,2.7-.42,1.14-.84,2.27-1.26,3.41-.14,.38-.45,.44-.82,.43-1.24-.02-2.49,0-3.73,0h0Z"/>
          <path class="cls-1" d="M151.24,38.37c0-5.21,0-10.43,0-15.64,0-.6,0-1.19,.02-1.79,.01-.58,.13-.69,.68-.69,1.89,0,3.79,.01,5.68,.03,.89,0,.99,.18,.97,1.07-.04,1.71-.04,3.42-.04,5.13,0,4.67,.02,9.34,.02,14,0,.3-.11,.61-.16,.91-.05,.25-.04,.53,.23,.58,.18,.03,.47-.09,.59-.24,.68-.88,1.31-1.8,1.99-2.68,.94-1.23,1.92-2.43,2.88-3.66,.34-.43,.65-.88,.98-1.3,.51-.65,1.09-1.26,1.54-1.94,.34-.51,.74-.66,1.3-.65,1.53,.02,3.06,.03,4.59,.04,.52,0,1.04-.02,1.55-.06,.32-.02,.66-.05,.83,.27,.18,.32-.03,.6-.23,.85-.83,1.03-1.66,2.06-2.5,3.08-1.08,1.32-2.17,2.65-3.26,3.96-1,1.19-2.01,2.36-3.02,3.54-.39,.46-.39,.54-.02,.98,.98,1.17,1.95,2.36,2.92,3.54,1.3,1.58,2.6,3.16,3.9,4.74,.65,.8,1.28,1.63,1.94,2.43,.18,.22,.39,.41,.6,.6,.24,.22,.29,.48,.21,.78-.09,.33-.35,.42-.66,.42-2.23,0-4.46,0-6.69,0-.51,0-.88-.2-1.19-.61-1.32-1.73-2.66-3.44-4-5.15-1.05-1.35-2.11-2.68-3.16-4.04-.2-.26-.32-.6-.53-.85-.13-.15-.38-.19-.58-.28-.06,.18-.22,.38-.17,.53,.26,.82,.12,1.65,.12,2.47,0,1.82,0,3.63,.01,5.45,0,.49,.05,.98,.08,1.47,.03,.63-.2,.91-.83,.98-.2,.02-.41,.01-.62,.01-1.66,0-3.32,0-4.98,0-.84,0-.94-.08-.94-.93,0-4.98,0-9.96,0-14.94,0-.8,0-1.61,0-2.41h0Z"/>
          <path class="cls-1" d="M266.53,45.42c0,1.79,0,3.58,0,5.37,0,.89,.15,1.04,1.04,1.02,.31,0,.62-.05,.93-.06,.45,0,.64,.14,.65,.58,.03,1.3,.03,2.59,.03,3.89,0,.36-.18,.58-.53,.66-2.08,.5-4.16,.68-6.17-.24-.52-.24-.91-.74-1.36-1.12-.04-.03-.06-.09-.09-.13-.76-1.05-.79-1.05-1.8-.32-1.12,.81-2.42,1.25-3.7,1.75-1.35,.53-2.73,.59-4.12,.52-2.22-.12-4.22-.83-5.74-2.52-.62-.68-1.04-1.49-1.4-2.37-.64-1.55-.57-3.1-.39-4.66,.23-2.06,1.24-3.7,3.04-4.79,.91-.55,1.88-.91,2.91-1.2,2.75-.79,5.55-.62,8.34-.62,1.08,0,1.26-.24,1.19-1.34-.08-1.32-.81-2.16-1.91-2.69-.52-.25-1.16-.35-1.74-.33-1.4,.05-2.81,.1-4.18,.37-1.31,.25-2.57,.76-3.85,1.18-.64,.21-.68,.22-.89-.41-.4-1.22-.78-2.45-1.18-3.67-.06-.19-.18-.37-.26-.56-.2-.44-.1-.78,.35-.94,.87-.32,1.76-.62,2.65-.86,1.05-.29,2.11-.49,3.16-.76,2.28-.57,4.6-.53,6.88-.24,1.88,.24,3.66,.94,5.14,2.21,.37,.32,.72,.68,1,1.08,.75,1.05,1.36,2.16,1.62,3.46,.28,1.36,.43,2.71,.39,4.09-.03,1.22,0,2.44,0,3.66h-.01Zm-7.25,2.55s.04,0,.05,0c0-.47,.02-.93,0-1.4-.03-.49-.22-.69-.66-.69-1.79,0-3.58,.04-5.33,.41-.61,.13-1.25,.42-1.74,.81-.42,.33-.76,.88-.91,1.4-.29,1.03,.65,2.51,1.57,2.84,1.18,.43,2.33,.37,3.51,.07,.87-.22,1.74-.45,2.58-.83,.77-.35,1-.58,.99-1.44,0-.39-.03-.78-.05-1.16Z"/>
          <path class="cls-1" d="M118.94,57.42c-1.76,.2-3.41-.33-5.05-.78-.93-.25-1.81-.75-2.65-1.25-1.12-.66-2.11-1.51-2.9-2.55-.59-.78-1.17-1.57-1.51-2.51-.23-.63-.45-1.26-.73-1.87-.32-.7-.38-1.44-.47-2.19-.18-1.55-.14-3.1,.03-4.65,.06-.53,.22-1.05,.34-1.58,.03-.13,.11-.24,.13-.36,.23-1.21,.82-2.27,1.45-3.3,1.03-1.7,2.45-2.97,4.19-3.93,3.01-1.66,6.25-1.98,9.56-1.51,2.08,.29,4.08,1,5.77,2.32,1.04,.81,2,1.72,2.69,2.88,.32,.53,.72,1.02,.95,1.59,.35,.83,.61,1.69,.85,2.55,.16,.57,.21,1.17,.33,1.75,.34,1.66,.27,3.3-.16,4.93-.05,.17-.08,.35-.1,.53-.13,1.17-.65,2.2-1.13,3.26-.65,1.43-1.67,2.54-2.8,3.58-.9,.83-1.97,1.38-3.08,1.91-.96,.46-1.97,.64-2.95,.91-.88,.24-1.84,.2-2.77,.28Zm5.72-13.12c-.03-1.84-.27-3.35-1.02-4.75-.45-.85-1.08-1.56-1.9-1.99-1.92-1-3.92-1.05-5.88-.05-1.01,.51-1.66,1.41-2.15,2.37-.43,.85-.66,1.79-.67,2.76,0,.59-.06,1.19-.06,1.78,0,1.79,.26,3.51,1.45,4.95,.83,1.01,1.83,1.76,3.2,1.85,.57,.04,1.14,.07,1.71,.05,2.47-.05,4.09-1.68,4.75-3.6,.4-1.15,.74-2.38,.57-3.38Z"/>
          <path class="cls-1" d="M316.92,46.24c-2.49,0-4.98,.02-7.47-.01-.72-.01-.94,.35-.72,.9,.43,1.07,.81,2.2,1.78,2.95,.67,.52,1.38,.94,2.24,1.17,1.53,.42,3,.28,4.53,.07,1.39-.19,2.73-.58,4.09-.89,.27-.06,.51-.24,.76-.37,.31-.17,.55-.11,.71,.21,.15,.33,.35,.65,.43,1,.23,1.09,.66,2.12,1.06,3.15,.23,.6,.13,.82-.48,1.07-1.48,.61-3.02,1.01-4.58,1.38-2.34,.55-4.68,.52-7.03,.43-.48-.02-.96-.18-1.44-.29-.2-.05-.39-.14-.59-.18-2.81-.63-4.98-2.2-6.6-4.54-.59-.85-.98-1.79-1.39-2.74-.59-1.37-.67-2.82-.9-4.23-.2-1.19-.12-2.43,.14-3.64,.14-.63,.21-1.28,.34-1.91,.06-.27,.19-.53,.3-.79,.09-.21,.17-.43,.27-.64,.29-.65,.5-1.36,.9-1.94,.67-.98,1.34-1.95,2.29-2.72,1.32-1.08,2.75-1.87,4.4-2.38,1.7-.53,3.42-.55,5.15-.52,1.79,.03,3.49,.53,5.09,1.27,1.46,.67,2.67,1.71,3.58,3.03,.77,1.12,1.38,2.34,1.59,3.75,.15,1.03,.41,2.04,.33,3.08-.1,1.27-.24,2.53-.36,3.79-.04,.38-.25,.55-.61,.56-.23,.01-.47,.01-.7,.01-2.36,0-4.72,0-7.08,0v-.04Zm-3.09-4.58h0c1.37-.01,2.75,0,4.12-.01,.99,0,1.05-.1,1.07-1.06,.02-.73-.27-1.34-.52-2-.3-.78-.83-1.28-1.47-1.75-.85-.62-1.87-.66-2.83-.69-.99-.04-2,.07-2.89,.66-1.07,.72-1.85,1.63-2.2,2.89-.05,.19-.16,.38-.27,.55-.21,.35-.35,.71-.11,1.09,.21,.33,.57,.32,.91,.32,1.4,0,2.8,0,4.2,0Z"/>
          <path class="cls-1" d="M330.75,43.98v-11.36c0-.16,0-.31,0-.47,.04-.5,.19-.66,.67-.66,1.42,0,2.85,0,4.27,0,.77,0,1.16,.37,1.29,1.15,.03,.15,.04,.31,.08,.46,.2,.62,.58,.7,1.09,.28,1.98-1.63,4.22-2.56,6.82-2.63,1.45-.04,2.85,.12,4.2,.63,1.62,.61,2.95,1.61,3.89,3.08,1.19,1.86,1.71,3.91,1.7,6.1,0,4.67-.01,9.33-.01,14,0,.41,.06,.83,.05,1.24-.01,.62-.17,.81-.78,.81-1.94,.02-3.89,.02-5.83,0-.68,0-.77-.14-.77-.95,0-4.62,0-9.23,.01-13.85,0-.44,.02-.88-.01-1.32-.09-1.37-.64-2.51-1.86-3.2-.88-.5-1.88-.53-2.87-.49-1.53,.07-2.82,.81-4.11,1.53-.46,.26-.59,.71-.59,1.19,.01,5.06,.03,10.11,.04,15.17,0,.31,.05,.62,.06,.93,0,.74-.22,.99-.97,1-1.5,.02-3.01,0-4.51,.01-.41,0-.83,.02-1.24,0-.46-.02-.59-.15-.64-.61-.02-.21-.01-.41-.01-.62,0-3.81,0-7.62,0-11.43h.02Z"/>
          <path class="cls-1" d="M189.06,30.78c1.63-.15,3.48,.31,5.33,.71,.93,.2,1.83,.57,2.72,.9,.55,.2,.6,.52,.3,1.04-.19,.33-.32,.69-.46,1.05-.39,.95-.77,1.91-1.17,2.86-.14,.33-.39,.46-.76,.33-.32-.12-.64-.21-.96-.32-.15-.05-.28-.15-.43-.19-2.26-.63-4.55-.99-6.91-.76-.82,.08-1.75,.8-2.01,1.63-.1,.31-.04,.75,.12,1.03,.47,.82,1.26,1.25,2.17,1.48,1.35,.35,2.71,.67,4.06,1.04,.82,.23,1.62,.54,2.42,.81,1.75,.59,3.08,1.78,3.95,3.34,.93,1.67,1.05,3.54,.54,5.43-.45,1.66-1.4,2.98-2.72,4.04-.26,.21-.54,.4-.84,.55-.89,.46-1.8,.85-2.78,1.13-2.05,.6-4.11,.49-6.17,.43-1.69-.05-3.33-.45-4.93-.99-.83-.28-1.65-.59-2.48-.9-.15-.05-.29-.11-.42-.19-.5-.3-.61-.69-.3-1.18,.54-.83,.8-1.78,1.16-2.68,.19-.48,.4-.95,.64-1.4,.06-.12,.3-.21,.44-.2,.19,.02,.39,.14,.57,.23,.18,.1,.34,.26,.53,.32,.9,.31,1.81,.59,2.72,.88,1.02,.31,2.05,.56,3.12,.56,.72,0,1.45-.03,2.17-.02,.69,0,1.25-.34,1.76-.74,.95-.73,.83-2.3-.17-2.97-1.02-.68-2.21-.86-3.34-1.17-1.5-.4-3.05-.6-4.49-1.21-1.57-.67-3.01-1.56-3.84-3.12-.39-.74-.86-1.47-.82-2.39,.03-.72-.01-1.45-.02-2.17-.02-1.3,.5-2.42,1.22-3.45,.78-1.12,1.82-1.97,3.06-2.55,2.14-1,4.4-1.32,7.02-1.2Z"/>
          <path class="cls-1" d="M136.43,36.21v-14.55c0-.21,0-.42,0-.62,.02-.65,.14-.77,.78-.77,1.4,0,2.8,.01,4.2,.01,.44,0,.88-.02,1.32-.02,.92,0,1.1,.18,1.1,1.08,0,5.32-.02,10.63-.02,15.95,0,3.89,0,7.78,0,11.67,0,.57-.05,1.14-.06,1.71-.02,.8,.21,1.03,.99,1.02,.54-.01,1.09-.04,1.63-.05,.76,0,.92,.17,.91,.9,0,1.09,0,2.18,0,3.27,0,.73-.15,.93-.88,.99-1.37,.1-2.74,.26-4.11,.24-1.63-.03-3.18-.44-4.33-1.73-.29-.33-.59-.69-.73-1.09-.3-.82-.53-1.67-.72-2.52-.1-.47-.08-.98-.08-1.47,0-4.67,0-9.34,0-14h0Z"/>
        </g>
      </g>
      <line class="cls-3" x1="376.12" y1="26.06" x2="408.62" y2="58.56"/>
      <line class="cls-3" x1="408.62" y1="26.06" x2="376.12" y2="58.56"/>
    </g>
  </g>
</svg>