<?xml version="1.0" encoding="UTF-8"?>
<svg id="_圖層_2" data-name="圖層 2" xmlns="http://www.w3.org/2000/svg" viewBox="0 0 154.45 44.55">
  <defs>
    <style>
      .cls-1 {
        fill: #9ccc58;
      }
    </style>
  </defs>
  <g id="_圖層_1-2" data-name="圖層 1">
    <g>
      <path class="cls-1" d="M29.5,19.57c-.11-.21-.33-.32-.6-.32h-5.79l1.68-8.95c.03-.15,.05-.36-.09-.53-.09-.1-.21-.16-.35-.16-.27,0-.42,.23-.48,.31l-9.02,13.27c-.15,.22-.18,.47-.07,.68,.11,.21,.33,.33,.6,.33h5.58l-1.72,10.04c-.02,.14-.04,.36,.1,.52,.09,.1,.21,.16,.34,.16h0c.28,0,.43-.24,.48-.32l9.27-14.34c.15-.23,.17-.47,.05-.68Z"/>
      <g>
        <path class="cls-1" d="M48.34,8.4V2.17c0-.65-.57-1.17-1.28-1.17h-.61c-.71,0-1.28,.53-1.28,1.17v6.23h-5.32V2.17c0-.65-.57-1.17-1.28-1.17h-.6c-.71,0-1.28,.53-1.28,1.17v6.23h-2.84v6.68c0,3.67,2.8,6.67,6.38,7.01h.03c.05,3.55-.96,7.04-2.96,10.07-5.45,8.29-16.62,10.6-24.91,5.15C4.11,31.86,1.79,20.69,7.24,12.4c2.63-4,6.66-6.74,11.35-7.73,2.78-.58,5.68-.5,8.4,.24,1.14,.31,2.32-.36,2.63-1.51,.25-.92-.14-1.86-.89-2.36-.18-.12-.39-.22-.62-.28-3.37-.92-6.97-1.02-10.41-.3C11.9,1.69,6.91,5.09,3.65,10.04-3.09,20.31-.23,34.15,10.04,40.9c10.27,6.75,24.11,3.88,30.85-6.39,2.46-3.75,3.72-8.04,3.67-12.43,3.62-.3,6.75-3.31,6.75-7.01v-6.68h-2.97Z"/>
        <path class="cls-1" d="M64.96,30.22c-.37,2.66-.99,5.53-1.64,7.44-.37-.22-1.27-.52-1.7-.62,.71-1.91,1.2-4.66,1.51-7.13l1.82,.31Zm6.05-8.49c.9,2.01,1.85,4.73,2.22,6.27l-1.76,.68c-.09-.52-.28-1.14-.43-1.79-7.07,1.08-7.97,1.3-8.55,1.61-.12-.4-.43-1.42-.65-1.91,.59-.12,1.36-.93,2.25-2.01,.52-.59,1.61-1.98,2.84-3.77-3.52,.43-4.23,.59-4.66,.8-.12-.43-.4-1.39-.62-1.91,.49-.12,1.05-.77,1.73-1.67,.68-.93,2.96-4.51,4.29-7.88l1.92,.8c-1.45,3-3.24,6.05-5.07,8.4l3.61-.31c.8-1.27,1.64-2.66,2.29-3.98l1.79,1.05c-2.1,3.55-4.57,7.1-7.1,9.88l5.44-.71c-.37-1.05-.77-2.1-1.14-3.06l1.61-.49Zm-2.81,8.09c.4,2.13,.77,4.91,.9,6.76l-1.76,.34c-.09-1.85-.43-4.66-.8-6.79l1.67-.31Zm3.18-.83c.68,1.82,1.42,4.14,1.76,5.65l-1.67,.59c-.31-1.54-1.02-3.92-1.67-5.74l1.58-.49Zm14.61,7.17c.49,0,1.05-.03,1.3-.12s.56-.31,.65-.71c.12-.46,.22-1.45,.25-2.81,.46,.4,1.11,.71,1.76,.9-.03,1.14-.22,2.62-.43,3.15-.25,.59-.62,.96-1.2,1.14-.59,.15-1.42,.22-2.16,.22h-2.5c-.71,0-1.61-.12-2.19-.49-.68-.37-.96-.93-.96-3.55v-4.23h-5.84v-10.28h1.79v8.37h4.05v-11.37h-6.55v-1.95h6.55v-4.11h1.88v4.11h7.44v1.95h-7.44v11.37h4.2v-8.4h1.85v12.11h-1.85v-1.79h-4.2v4.54c0,.96,.12,1.61,.46,1.79,.34,.12,.65,.19,1.11,.19h2.04Z"/>
        <path class="cls-1" d="M107.11,16.57h-9.85v5.07h-1.98v-6.58h11.83v-2.07h-10.47v-1.51h23.13v1.51h-10.65v2.07h12.08v6.58h-2.04v-5.07h-10.04v7.13h-2.01v-7.13Zm11.3,19.7c1.67,0,1.95-.56,2.13-3.71,.46,.31,1.2,.59,1.79,.68-.31,3.74-.96,4.69-3.8,4.69h-7.26c-3.24,0-4.2-.56-4.2-2.93v-1.08h-7.17v1.64h-1.98v-10.65h20.75v9.02h-9.67v1.11c0,1.02,.4,1.24,2.35,1.24h7.04Zm-20.45-14.18c1.92-.25,4.54-.62,7.32-1.02l.06,1.33c-2.41,.49-4.72,.96-6.76,1.33l-.62-1.64Zm1.36-4.79c2.01,.34,4.66,1.05,6.05,1.67l-.62,1.3c-1.39-.65-3.98-1.45-6.05-1.82l.62-1.14Zm.59,9.14v2.22h7.17v-2.22h-7.17Zm7.17,5.93v-2.29h-7.17v2.29h7.17Zm9.57-5.93h-7.63v2.22h7.63v-2.22Zm0,5.93v-2.29h-7.63v2.29h7.63Zm1.14-8.52c-1.7-.59-4.82-1.33-7.23-1.67l.53-1.27c2.35,.28,5.5,.93,7.2,1.51l-.49,1.42Zm.03-5.47c-1.79,.74-4.32,1.39-6.15,1.79l-.74-1.11c1.79-.37,4.45-1.33,5.96-1.88l.93,1.2Z"/>
        <path class="cls-1" d="M154.45,33.8h-12.85v4.63h-2.04v-4.63h-12.6v-1.88h12.6v-2.66h-9.36v-11.89h9.36v-2.41h-11.64v-1.88h11.64v-2.81h2.04v2.81h11.77v1.88h-11.77v2.41h9.6v11.89h-9.6v2.66h12.85v1.88Zm-22.27-11.33h7.38v-3.37h-7.38v3.37Zm7.38,5.06v-3.4h-7.38v3.4h7.38Zm2.04-8.43v3.37h7.54v-3.37h-7.54Zm7.54,5.03h-7.54v3.4h7.54v-3.4Z"/>
      </g>
    </g>
  </g>
</svg>