<?xml version="1.0" encoding="UTF-8"?>
<svg id="_圖層_2" data-name="圖層 2" xmlns="http://www.w3.org/2000/svg" viewBox="0 0 69.97 51.43">
  <defs>
    <style>
      .cls-1 {
        fill: #0080c3;
      }

      .cls-2 {
        fill: none;
        stroke: #0080c3;
        stroke-linecap: round;
        stroke-linejoin: round;
        stroke-width: .85px;
      }
    </style>
  </defs>
  <g id="_圖層_1-2" data-name="圖層 1">
    <g>
      <line class="cls-2" x1=".42" y1="14.33" x2=".42" y2="42.15"/>
      <g>
        <line class="cls-2" x1=".42" y1="28.24" x2="7.38" y2="28.24"/>
        <line class="cls-2" x1="32.88" y1=".43" x2="32.88" y2="7.38"/>
        <line class="cls-2" x1="23.61" y1=".43" x2="42.15" y2=".43"/>
        <path class="cls-1" d="M41.8,8.23l11.34,11.34c.16,.16,.38,.25,.6,.25h6.95c.47,0,.85-.38,.85-.85v-3.79h3.79c1.58,0,3.79,4.97,3.79,13.06s-2.21,13.06-3.79,13.06h-3.79v-3.79c0-.47-.38-.85-.85-.85h-6.95c-.47,0-.85,.38-.85,.85v13.06H30.91l-9.02-9.02c-.16-.16-.38-.25-.6-.25H8.23V15.18h8.42c.23,0,.44-.09,.6-.25l6.71-6.71h17.84m.35-.85H23.61l-6.95,6.95H7.38v27.82h13.91l9.27,9.27h23.18v-13.91h6.95v4.64h4.64c2.56,0,4.64-6.22,4.64-13.91s-2.07-13.91-4.64-13.91h-4.64v4.64h-6.95l-11.59-11.59h0Z"/>
        <line class="cls-2" x1="35.2" y1="18.97" x2="30.56" y2="28.24"/>
        <line class="cls-2" x1="39.83" y1="28.24" x2="30.56" y2="28.24"/>
        <line class="cls-2" x1="35.2" y1="37.52" x2="39.83" y2="28.24"/>
      </g>
    </g>
  </g>
</svg>