<?xml version="1.0" encoding="UTF-8"?>
<svg id="_圖層_2" data-name="圖層 2" xmlns="http://www.w3.org/2000/svg" viewBox="0 0 80.74 49.86">
  <defs>
    <style>
      .cls-1, .cls-2 {
        fill: #fff;
      }

      .cls-3 {
        fill: #0080c3;
      }

      .cls-2 {
        stroke: #0080c3;
        stroke-linecap: round;
        stroke-linejoin: round;
        stroke-width: .84px;
      }
    </style>
  </defs>
  <g id="_圖層_1-2" data-name="圖層 1">
    <g>
      <path class="cls-2" d="M.42,41.18C.42,18.67,18.31,.42,40.37,.42s39.95,18.25,39.95,40.75H.42Z"/>
      <path class="cls-3" d="M57.14,9.94c.38,.22,.75,.44,1.13,.67l-5.13,9.14c-.37-.23-.74-.46-1.13-.67l5.13-9.14m-.31-1.11l-5.93,10.58c.87,.45,1.72,.95,2.53,1.5l5.93-10.57c-.82-.54-1.66-1.04-2.53-1.51h0Z"/>
      <path class="cls-3" d="M45.67,5.89c.43,.07,.85,.14,1.27,.23l-1.78,10.41c-.42-.09-.85-.16-1.27-.23l1.78-10.41m-.67-.92l-2.06,12.03c.98,.11,1.94,.29,2.88,.52l2.06-12.03c-.95-.21-1.91-.38-2.88-.52h0Z"/>
      <path class="cls-3" d="M72.83,28.47c.16,.43,.31,.86,.46,1.29l-9.62,3.6c-.14-.43-.29-.86-.46-1.29l9.62-3.6m.47-1.05l-11.16,4.18c.39,.91,.72,1.86,1,2.83l11.16-4.18c-.3-.96-.63-1.9-1-2.82h0Z"/>
      <path class="cls-3" d="M66.57,17.78c.28,.33,.56,.68,.84,1.04l-7.84,6.77c-.27-.35-.55-.69-.85-1.03l7.85-6.78m.08-1.15l-9.1,7.86c.67,.73,1.3,1.49,1.88,2.3l9.09-7.85c-.6-.79-1.22-1.57-1.87-2.31h0Z"/>
      <path class="cls-3" d="M7.65,28.47l9.62,3.6c-.16,.42-.31,.85-.46,1.29l-9.62-3.6c.14-.43,.29-.86,.46-1.29m-.47-1.05c-.37,.92-.7,1.86-1,2.82l11.16,4.18c.28-.97,.61-1.91,1-2.83l-11.16-4.18h0Z"/>
      <path class="cls-3" d="M34.81,5.89l1.78,10.41c-.42,.06-.85,.14-1.27,.23l-1.78-10.41c.42-.08,.84-.16,1.27-.23m.67-.92c-.97,.13-1.93,.3-2.88,.52l2.06,12.03c.94-.23,1.9-.41,2.88-.52l-2.06-12.03h0Z"/>
      <path class="cls-3" d="M13.91,17.78l7.85,6.78c-.29,.34-.58,.69-.85,1.03l-7.84-6.77c.28-.36,.56-.71,.84-1.04m-.08-1.15c-.66,.74-1.28,1.51-1.87,2.31l9.09,7.85c.58-.81,1.21-1.57,1.88-2.3l-9.1-7.85h0Z"/>
      <path class="cls-3" d="M23.34,9.94l5.13,9.14c-.38,.21-.76,.44-1.13,.67l-5.13-9.14c.37-.23,.75-.46,1.12-.67m.31-1.11c-.86,.47-1.71,.97-2.53,1.51l5.93,10.57c.81-.55,1.65-1.05,2.53-1.5l-5.94-10.58h0Z"/>
      <g>
        <path class="cls-1" d="M42.41,49.43c-2.61,0-4.89-1.67-5.69-4.15-.82-2.57,.18-5.38,2.45-6.84,.16-.1,.23-.3,.17-.49l-4.42-13.75,2.36-.76,4.42,13.75c.06,.18,.22,.29,.4,.29,0,0,.21,0,.31,0,2.61,0,4.89,1.67,5.69,4.14,1.01,3.14-.72,6.51-3.86,7.52-.6,.19-1.21,.29-1.83,.29h0Z"/>
        <path class="cls-3" d="M37,23.98l4.29,13.35c.11,.35,.44,.59,.81,.59,.01,0,.03,0,.04,0,.09,0,.18,0,.27,0,2.42,0,4.54,1.55,5.28,3.85,.94,2.92-.67,6.05-3.59,6.99-.55,.18-1.13,.27-1.7,.27-2.42,0-4.54-1.55-5.29-3.86-.77-2.38,.17-5,2.28-6.36,.32-.21,.47-.61,.35-.97l-4.29-13.35,1.55-.5m.55-1.07l-3.17,1.02,4.55,14.16c-2.37,1.53-3.53,4.51-2.62,7.33,.87,2.72,3.39,4.45,6.09,4.45,.65,0,1.31-.1,1.96-.31,3.37-1.08,5.22-4.69,4.14-8.05-.87-2.71-3.39-4.44-6.09-4.44-.1,0-.21,0-.31,0l-4.55-14.16h0Z"/>
      </g>
    </g>
  </g>
</svg>