<svg xmlns="http://www.w3.org/2000/svg" viewBox="0 0 67.99 72.91"><defs><style>.cls-1{fill:#fff;}</style></defs><g id="圖層_2" data-name="圖層 2"><g id="圖層_1-2" data-name="圖層 1"><path class="cls-1" d="M27.21,62.91a1.34,1.34,0,0,0,1.45.24c.64-.19,1.63-1,1.21-1.72l.23,0a.15.15,0,0,0,.07-.29,1.33,1.33,0,0,0-.4-.12l.4-.25h0c.26.12.08.49,0,.67s.09.16.15.08.41-.59.27-.87l-.09-.11A14.65,14.65,0,0,1,35,58.77l0,0c3.83.55,7.43,1.54,9.92,4.67A57.3,57.3,0,0,1,50,72.73a.31.31,0,0,0,.57-.24A66.22,66.22,0,0,0,43,59.56a0,0,0,0,0,0,0c-1.87-2.22-1.32-6-1-8.92a.1.1,0,0,0,.2,0A8.56,8.56,0,0,1,45.56,47a1.53,1.53,0,0,0,0,.37.32.32,0,0,0,.35.27,3.28,3.28,0,0,0,1.37-.36.2.2,0,0,0,.15,0,4.74,4.74,0,0,0,1.93-2.51.29.29,0,0,0-.23-.38,3.31,3.31,0,0,0-3.5,2.08,6.63,6.63,0,0,0-3.71,4.13c0-.26.05-.51.07-.76a20.3,20.3,0,0,1,2-7.46.26.26,0,0,0,.15,0,1.62,1.62,0,0,0,.19-.13.54.54,0,0,0,.4.2c.61,0,1.16-.8,1.43-1.23A3.91,3.91,0,0,0,46.63,40a2.32,2.32,0,0,0,0-1.83.21.21,0,0,0-.24-.11,1,1,0,0,0-1-.15c-1.49.4-2.11,2.59-1.61,4a14.15,14.15,0,0,0-1.48,4c0-.12,0-.23,0-.34a11.62,11.62,0,0,0-.31-2.08c.56-1,0-2.41-.58-3.25a.22.22,0,0,0-.37,0,3.78,3.78,0,0,0,.55,3.34h0c0,.59.23,1.2.3,1.76a10.61,10.61,0,0,1,0,2.39.12.12,0,0,0,.07.1c-.16,1.17-.26,2.36-.35,3.56-.06.72-.14,1.53-.19,2.36A19.14,19.14,0,0,0,40,48.23a.24.24,0,0,0,.22-.2A4.58,4.58,0,0,0,39,43.74a.29.29,0,0,0-.44.12,4.34,4.34,0,0,0,0,2.89c.15.43.52,1.29,1.08,1.3.55,2,1.06,4,1.63,6,0,0,0,0,.09,0A10,10,0,0,0,41.8,58c-3.66-4.83-7.71-9.4-11.47-13.84l-.64-.73a23.66,23.66,0,0,1-.59-4.56,5.42,5.42,0,0,1,2.21-1.76l.87-.38a1.59,1.59,0,0,0,1.17.94,2,2,0,0,0,1.59-.45,3,3,0,0,0,1-1.31.75.75,0,0,0-.05-.79c-.79-1.09-3-.55-3.63.49a1.17,1.17,0,0,0-.17.66,7.59,7.59,0,0,0-3,2.15,50,50,0,0,1,.33-6.22,12,12,0,0,0,3.21-1.1,1.45,1.45,0,0,0,.81.58,1.11,1.11,0,0,0,.66.31.11.11,0,0,0,.08-.2l-.06,0a2.49,2.49,0,0,0,.46-.09c.67-.21,1.63-.72,1.83-1.46.27-1-1.3-.93-1.85-.72l-.21.11a3.58,3.58,0,0,0-1.86.83.27.27,0,0,0-.08.29,1,1,0,0,0,.11.21A16.26,16.26,0,0,0,29.43,32c.14-1.33.27-2.68.39-4.06a1.54,1.54,0,0,0,.6-.52c1-1.07,1.33-3.05.08-4a.24.24,0,0,0-.28,0,2.84,2.84,0,0,0-.72,1.2,3.2,3.2,0,0,0-.23,3.28.2.2,0,0,0,.08.08.11.11,0,0,0,.07.11c-.33,1.91-.67,4-.87,6A18.48,18.48,0,0,0,27,29.52a.37.37,0,0,0,.34-.24.16.16,0,0,0-.09-.2c-.28-.15-.48-.12-.7-.41a4.84,4.84,0,0,1-.63-1.16,6.13,6.13,0,0,1-.45-1.6,7.25,7.25,0,0,1,.81,1.5l-.21-.35a.06.06,0,1,0-.11.05,9.64,9.64,0,0,0,.78,1.66c.11.17.39,0,.36-.15a7.16,7.16,0,0,0-1.67-3.48.23.23,0,0,0-.4.11,5.6,5.6,0,0,0,.86,3.25,3.27,3.27,0,0,0,.63.78,50,50,0,0,1,1.95,5.51c0,.48-.06,1-.08,1.43a12.72,12.72,0,0,0-2.28-3.78.18.18,0,0,0,0-.16,3.8,3.8,0,0,0-.16-.51,2.08,2.08,0,0,0-.23-1.19c-.32-.67-1.08-1.94-2-1.6s-.28,1.62,0,2.13c.39.69,1.11,1.52,2,1.47A22.52,22.52,0,0,1,28.39,37a17.35,17.35,0,0,0,.91,6,150.32,150.32,0,0,0-11-11.56,31,31,0,0,0-1.6-3.58,17.27,17.27,0,0,1,0-3.05A19.33,19.33,0,0,1,17,22.66h0l.07,0a.12.12,0,0,0,.2-.07h0a.18.18,0,0,0,.27.09c1-.74,1.94-2.34,1.13-3.51a.25.25,0,0,0-.29-.08,3.26,3.26,0,0,0-1.74,3.41h0a12.39,12.39,0,0,0-.3,4.82c-.25-.5-.49-1-.7-1.5A24.88,24.88,0,0,1,14,20.07a.26.26,0,0,0,.34,0,2.39,2.39,0,0,0-.82-3.7.25.25,0,0,0-.31.09,2.17,2.17,0,0,0-.12,1.86,4.34,4.34,0,0,0,.49,1.12,14.79,14.79,0,0,0,.9,4.62c-.68-1-1.4-2-2.11-3a.19.19,0,0,0,0-.07c-.06-.06-.11-.13-.17-.2L12,20.58a1.77,1.77,0,0,0,0-.23.23.23,0,0,0,.36-.25,6.87,6.87,0,0,0-1.08-1.9c-.05-.08-.09-.17-.14-.26a.08.08,0,0,0-.1,0,8.5,8.5,0,0,0-.9-.9.24.24,0,0,0-.37.1,2.9,2.9,0,0,0,.48,2.33,4.64,4.64,0,0,0,1.57,1.67A40.05,40.05,0,0,0,15,25.4a51.21,51.21,0,0,0,2.91,5.68q-4.17-3.9-8.71-7.39s0,0,0-.06A17.85,17.85,0,0,1,7,20.86c-.36-.54-.69-1.14-1.05-1.7.34.13.65.15.58-.27h0a.17.17,0,0,0,.1-.18A3.71,3.71,0,0,0,4.4,15.8a.25.25,0,0,0-.33.14,2.61,2.61,0,0,0,1,2.75,13.35,13.35,0,0,0,3,4.22c-1.3-1-2.63-1.92-4-2.84C3.86,19,.94,16.63.09,18.22c-.47.88,1,1.77,1.58,2.07.28.14,2.36.88,2.5.15q2.42,2.05,4.9,4c-.52-.17-1.05-.29-1.59-.41-1-.2-1.9-.46-2.85-.68h0c-.54-1-3.32-3.09-3.88-1.1C.31,23.86,3.62,24.5,4.6,24a.31.31,0,0,0,.16-.24c.76.24,1.58.37,2.33.53A21.53,21.53,0,0,1,9.73,25c2.51,2,5,4,7.45,6.07A70.07,70.07,0,0,1,22.31,36a31.37,31.37,0,0,0-8.26-3.62v0c-.79-.76-1.59-1.69-2.47-2.45a.32.32,0,0,0,.1-.1,1.28,1.28,0,0,0,.28.07.23.23,0,0,0,.2-.36c-.75-1.21-2.26-2.36-3.76-2-.12,0-.25.14-.22.28a3.53,3.53,0,0,0,2.07,2A2.77,2.77,0,0,0,11,30c.84.76,1.66,1.55,2.53,2.24-2.2-.64-4.44-1.17-6.62-1.7l0,0A.31.31,0,0,0,7,30.24a.14.14,0,0,0-.17-.12.72.72,0,0,0-.25.07,8.36,8.36,0,0,0-2.34-1.33c-.7-.26-2.14-.43-2,.77.13,1.38,2.72,1.6,4,1.23A3.13,3.13,0,0,1,7,31.1a.17.17,0,0,0,.23-.1c2.26.69,4.52,1.27,6.76,1.92a10.39,10.39,0,0,0-3.09.73.88.88,0,0,0-.81-.46,3.25,3.25,0,0,0-2.21,2.1.28.28,0,0,0,.29.37c.69-.06,2.75-.52,2.77-1.5a.41.41,0,0,0,.07-.11,11.83,11.83,0,0,1,3.73-.9,38.35,38.35,0,0,1,7.8,3.14s.06,0,.08,0c2.52,2.67,4.9,5.46,7.3,8.26l4.32,5c-3.28-2.89-7.45-4.46-11.73-5.73a13.21,13.21,0,0,1-2-1.65,10.16,10.16,0,0,1-1.16-1.58.28.28,0,0,0,.26-.24,2.38,2.38,0,0,0-.49-1.65,4.82,4.82,0,0,0-.82-1.59A.27.27,0,0,0,18,37a.55.55,0,0,0-.57-.14,1.12,1.12,0,0,0-.56,1,2.71,2.71,0,0,0,1.29,2.42c.19.33.43.67.79.73a.12.12,0,0,0,.13-.17l0,0a8.07,8.07,0,0,0,2.58,2.75c-2-.58-4.05-1.11-6-1.7a.94.94,0,0,0-.09-.12v0a2.1,2.1,0,0,0-1.2-.79,4.67,4.67,0,0,0-2.44-.43,1.15,1.15,0,0,0-.47.19l-.33.06a.27.27,0,0,0-.11.41c.07.08.15.14.22.21a2.41,2.41,0,0,0,1.24,1.39,3.77,3.77,0,0,0,2.51.29,1.12,1.12,0,0,0,.67-.66c3.4,1.25,6.88,2.06,10.23,3.2a8.17,8.17,0,0,0-1.44.2c-1.24.28-2.45.61-3.68.88a1.79,1.79,0,0,0-.35-.29,2.22,2.22,0,0,0-3.12.52c-.24.34-.56.89-.25,1.29a1.46,1.46,0,0,0,1.24.41,5,5,0,0,0,3.57-1.45.24.24,0,0,0,0-.17c1.59-.42,3.2-1.25,4.74-1.13.59.21,1.18.43,1.75.67l.09.06a.09.09,0,0,0,.07,0,24.13,24.13,0,0,1,6.4,3.81h.06A143.4,143.4,0,0,1,44,62a13.19,13.19,0,0,0-4.59-2.68A11.2,11.2,0,0,1,35.74,56h0l0,0a.12.12,0,0,0,.14,0l.19.19c.16.23.5,0,.34-.27a1.71,1.71,0,0,0-.21-.26c.36-.46-.06-1-.61-1.34A2.43,2.43,0,0,0,34,53.65a.28.28,0,0,0-.25.32c.15.74.8,2.06,1.7,2.05a11.8,11.8,0,0,0,2.34,2.82,37.07,37.07,0,0,0-4.67-.9,18.6,18.6,0,0,1-3.78-2.6,1,1,0,0,0,.67-.62c.13-.58-.39-.9-.87-1a4.62,4.62,0,0,0-2.62-2,.27.27,0,0,0-.36.22c-.35,1.39,1,3.51,2.47,3.5h.24a11.13,11.13,0,0,0,3,2.33c-2.09-.26-4.16-.46-6.05-.77a.15.15,0,0,0-.1-.09l-.09,0a3.19,3.19,0,0,0-1.71-1.32c-.52-.18-2-.3-2.22.48s1.11,1,1.52,1.08a8.94,8.94,0,0,0,1.46.27,2.3,2.3,0,0,0,.74.13.08.08,0,0,0,.05-.13.5.5,0,0,0,.13,0,65.54,65.54,0,0,0,8.35,1.24,9.35,9.35,0,0,0-3.76,1.72l-.25,0a3.21,3.21,0,0,0-2.23.78C27.26,61.44,26.77,62.39,27.21,62.91Zm-2.12-6h0l-.78-.14h-.07a1,1,0,0,0-.46-.14.18.18,0,0,0-.16.09,3.16,3.16,0,0,1-1.38-.53l0,0h0a1.54,1.54,0,0,1,.47-.16,1.81,1.81,0,0,1,1.17.07,3.91,3.91,0,0,1,1,.6A3.24,3.24,0,0,1,25.09,56.87Zm3.49-3a.38.38,0,0,0-.22-.11h0a3.16,3.16,0,0,1-.54-.44c-.15-.17-.44.05-.28.22a1.54,1.54,0,0,0,.17.19c-.08-.08-.22,0-.15.12.25.35.52.7.79,1a1.42,1.42,0,0,1-.85-.51,3.3,3.3,0,0,1-.87-2A4.25,4.25,0,0,1,28.58,53.84Zm.32,1h-.07a1.59,1.59,0,0,0-.13-.13.05.05,0,0,0,0-.08l-.23-.33c.15,0,.3-.07.29-.21l.42.65A1.23,1.23,0,0,1,28.9,54.88Zm-9.47-7.56a.74.74,0,0,1,.2-.16,3.41,3.41,0,0,0,.9.05l.06,0a.21.21,0,0,1-.1.08h0c0-.08-.11-.09-.15,0l-.11.11-.21,0c-.06,0-.06.07,0,.1A.76.76,0,0,1,19.43,47.32Zm.86-.54h-.06a1.07,1.07,0,0,0-1.26.44.21.21,0,0,0,0,.29,2.08,2.08,0,0,0,.53.37L19,48c-.35.06-2,.35-1.66-.45a1.82,1.82,0,0,1,2.36-1.1A2.42,2.42,0,0,1,20.29,46.78Zm-6.67-4.52a.11.11,0,0,0,.18.07c.09,0,.17-.12.26-.16.31.07.62.13.94.17a.86.86,0,0,1-.73.3,4,4,0,0,1-1.78-.38,3,3,0,0,1-.27-.18.08.08,0,0,0,0-.1,5.14,5.14,0,0,1-.6-.79,5.34,5.34,0,0,1,1.14,0,.13.13,0,0,0,.08.11c.39.18.78.33,1.18.5C13.75,41.8,13.56,41.93,13.62,42.26Zm4.14-2.9a2.07,2.07,0,0,1-.47-1.08,1.31,1.31,0,0,1,.17-1,.25.25,0,0,1,.34-.05v.15a.88.88,0,0,0-.23.73A4.31,4.31,0,0,0,17.76,39.36Zm-7.32-5.55-.61.25a.12.12,0,0,0,.06.23l.16,0a.09.09,0,0,0,0,.1A3.69,3.69,0,0,1,8.55,35a3.87,3.87,0,0,1,.84-1c.2-.16.58-.49.86-.36A1.07,1.07,0,0,1,10.44,33.81ZM5.63,30.22l-.4-.1c-.13,0-.18.19-.06.23l.33.11a5.77,5.77,0,0,1-.72,0c-.45,0-2.18-.18-2-.95S4.45,29.47,5.63,30.22Zm5.43-.79.16.11a.17.17,0,0,1-.1,0A6.52,6.52,0,0,0,10,28.86c-.1-.05-.17.09-.1.16l.07.06-.05,0A3.48,3.48,0,0,1,8.77,28a3.44,3.44,0,0,1,2.74,1.43s0,0,0,0a1.43,1.43,0,0,1-.34-.14C11.06,29.23,11,29.37,11.06,29.43ZM2.49,23l.45.14s.35.14.55.24a.83.83,0,0,0,.16.12,0,0,0,0,1,0,0,.06.06,0,0,0,0,.09H3.59a5.15,5.15,0,0,1-.54-.23A3.67,3.67,0,0,1,2.49,23ZM4,23.17H3.82a.09.09,0,0,0-.07.06A1.45,1.45,0,0,0,3.33,23a2.72,2.72,0,0,1-.27-.37c0-.05-.13,0-.1.06l.11.19A7,7,0,0,0,2,22.51a.18.18,0,0,0-.16.29,3.55,3.55,0,0,0,.68.66c-.8-.18-1.48-.53-1.25-1.11C1.65,21.28,3.19,22.41,4,23.17ZM2.5,19.87a.11.11,0,0,0,.16-.13,2.06,2.06,0,0,0-.25-.4c.51.11,1.14.38,1.13.85a.65.65,0,0,1-.31,0,3.22,3.22,0,0,1-1.09-.3c-.46-.21-1.59-.74-1.61-1.36-.05-.83,1.81.2,2,.34L2.7,19a2.82,2.82,0,0,0-.65-.12.2.2,0,0,0-.21.27A1.51,1.51,0,0,0,2.5,19.87Zm2-3.49A3.47,3.47,0,0,1,6.1,18.47a.61.61,0,0,1-.28-.25c-.08-.12-.25,0-.17.14l0,.08A6.81,6.81,0,0,1,5.12,18,2.07,2.07,0,0,1,4.47,16.38Zm5.72,1.32a7.27,7.27,0,0,1,.83.93.18.18,0,0,0-.25.24c.13.19.25.38.37.57,0,0-.06.07,0,.11l.09.22A2.85,2.85,0,0,1,10.19,17.7ZM14,19.13c-.07-.17-.18-.34-.25-.5s-.13-.32-.19-.48a2.75,2.75,0,0,1,0-1.07A1.86,1.86,0,0,1,14,19.13Zm3.43,2.65A4.33,4.33,0,0,1,18,20.24,1.66,1.66,0,0,1,17.47,21.78Zm6.54,8a4.8,4.8,0,0,0,1.12,2.11s0,0,0,0a2.82,2.82,0,0,1-.77-.77c-.25-.37-.73-1.13-.55-1.61s.95.1,1.46.86a5.54,5.54,0,0,0-.83-.85A.25.25,0,0,0,24,29.78Zm6.69-3.66a5.25,5.25,0,0,0-.52-1.86l0,0a2.43,2.43,0,0,1,.24-.32A2.05,2.05,0,0,1,30.7,26.12Zm-.82,1.17c0-.18,0-.35,0-.53a.14.14,0,0,0-.2-.13,7.62,7.62,0,0,1,.22-1.93,3.94,3.94,0,0,1,.37,2.13A2.69,2.69,0,0,1,29.88,27.29Zm3.87,4a.63.63,0,0,1,.16-.7,1.9,1.9,0,0,1,.4-.35.15.15,0,0,0,.09,0,.7.7,0,0,1,.27,0,.24.24,0,0,1,0,.09.13.13,0,0,0,.18.1.29.29,0,0,0,.16.13.14.14,0,0,0,.18-.1.54.54,0,0,0-.06-.35.44.44,0,0,0-.16-.24h0l.23,0c.43,0,.9,0,.53.44A2.59,2.59,0,0,1,33.75,31.26Zm.47,3.81a1.93,1.93,0,0,0-.64.75.11.11,0,0,0-.12,0c-.28.08-.57.18-.86.29a1.76,1.76,0,0,1,1.07-.88A3.19,3.19,0,0,1,34.22,35.07ZM35,36.22c.06-.15.16-.3.09-.45s-.62-.09-.79-.06l-.07,0a1.16,1.16,0,0,1,.86-.5c.53,0,.35.57.17.87Zm-2.38.33a5.51,5.51,0,0,0,.88-.52,1.66,1.66,0,0,1-.06.16.22.22,0,0,0,.41.16,3.89,3.89,0,0,1,.3-.5.22.22,0,0,0,0,.17c0,.07.09.14.14.21a.22.22,0,0,0,.19.08.22.22,0,0,1,.08,0h-.06c-.07,0-.08.12,0,.13l.31,0h0c0,.07.1.06.11,0H35c-.54.64-1.46,1.16-2.18.47A1,1,0,0,1,32.61,36.55Zm6.33,8a4.52,4.52,0,0,1,.84,3v0A3.22,3.22,0,0,1,38.94,44.5Zm2.73-1.7a3,3,0,0,0-.08-.32.07.07,0,0,0-.09,0,2.79,2.79,0,0,1-.27-1.53A3.49,3.49,0,0,1,41.67,42.8Zm4.15-2.19c.3-.58.36-1.15-.2-1.49h-.06a2.3,2.3,0,0,1,.53-.45,1.41,1.41,0,0,1,.14.94,3.71,3.71,0,0,1-.15.64A1.9,1.9,0,0,1,45.82,40.61Zm-.53-.85c-.14.15-.27.31-.4.46a3.86,3.86,0,0,1,.55-1v0a1.38,1.38,0,0,1,.06.54A.12.12,0,0,0,45.29,39.76Zm-.66,1.67v-.16c.26-.45.54-.91.85-1.37a.1.1,0,0,0,0-.07A2.69,2.69,0,0,1,44.63,41.43Zm-.51-.16A3,3,0,0,1,45,38.58a.92.92,0,0,1,.76-.19,3.92,3.92,0,0,0-1.54,2.75ZM46.19,47a1.43,1.43,0,0,1,.13-.54l.21-.15c.07-.05,0-.13-.05-.14A2.94,2.94,0,0,1,48.7,44.9a5.72,5.72,0,0,1-.84,1.41A10,10,0,0,1,46.19,47Zm-11.3,8.22a2.52,2.52,0,0,1-.49-.93,1.77,1.77,0,0,1,1,.68l0,0a.24.24,0,0,0-.36.17A.08.08,0,0,0,34.89,55.18Zm-6.2,7.35c.11-.3,0-.65.35-.89a.94.94,0,0,1,.26-.14.68.68,0,0,1,.06.21.79.79,0,0,1-.54.76Zm-.82-.85a2.36,2.36,0,0,1,1.55-.87l.11,0-.38.3a1.11,1.11,0,0,0-.47.24,1.78,1.78,0,0,0-.27.36l-.14.12a.09.09,0,0,0,0,.15.68.68,0,0,0,.08.69.94.94,0,0,1-.6,0C27.4,62.49,27.72,61.92,27.87,61.68Z"/><path class="cls-1" d="M67.67,20.1a.27.27,0,0,0-.21-.19l-.13,0s0,0,0-.06c0-.31-.42-.44-.48-.13l0,.16c-3.71.15-7.49,7.21-9.11,9.68a40.53,40.53,0,0,0-7,21.66,36.07,36.07,0,0,0-1.19,4.3l-.12.28c-.15-5.33-.59-10.66-1-15.93a6.29,6.29,0,0,0,1.9-1.91,8.67,8.67,0,0,0,1.31-2.7,1.49,1.49,0,0,0,.56,0c1.28-.23,1.7-2.36,1.27-3.36s-1.57-.86-2.27-.26a2.39,2.39,0,0,0-.71,1.11.19.19,0,0,0-.17.18,3.4,3.4,0,0,0,.11.94,2.18,2.18,0,0,0,.85,1.24,8.77,8.77,0,0,1-2.9,4.09c-.06-.71-.11-1.43-.16-2.14a46.47,46.47,0,0,0-.93-6.38c.09.16.4.23.47,0a9,9,0,0,1,.35-.91,23.23,23.23,0,0,0,1.77-2.93,3,3,0,0,0,3.74.37c.11-.08,0-.22-.1-.23a11.25,11.25,0,0,0-1.62.16,2.92,2.92,0,0,1-1.87-.59c.3-.61.6-1.24.87-1.88,1,.2,2.43-.86,2.88-1.67a.17.17,0,0,0,.12,0,1.53,1.53,0,0,0,.68.35,1.58,1.58,0,0,0,.86.24,3.21,3.21,0,0,0,2.62-1.76,2.45,2.45,0,0,0-.53-3.06c-.88-.6-1.91-.06-2.63.53A3.68,3.68,0,0,0,53.49,22a1.31,1.31,0,0,0,.15.53,7.66,7.66,0,0,0-1.34,1,3.2,3.2,0,0,1-1.15.52c.27-.7.51-1.41.73-2.13L52,22c.13,0,.3-.08.2-.21s-.12-.15-.18-.23a27.11,27.11,0,0,0,.86-4c1.6.42,3.64-1.27,3.8-3.38a7.3,7.3,0,0,0,.61-1.87,8.76,8.76,0,0,0,.08-2.42c0-.1,0-.21.08-.31.38-1.59.74-5.42-2-4.9a2.58,2.58,0,0,0-1.35.87,3.85,3.85,0,0,0-2.14,1.83c-1.67,2.17-1.47,5.63-.75,8.22a3.14,3.14,0,0,0,.88,1.55l0,.09a.37.37,0,0,0,.21.26,21.4,21.4,0,0,1-.91,3.43,10.17,10.17,0,0,1-.92-1,7.14,7.14,0,0,1-.81-1.45,2.48,2.48,0,0,0,.61-.73,1.43,1.43,0,0,0,.17-1.17,1.31,1.31,0,0,0-1.71-.69,1.24,1.24,0,0,0-.41.31c0-.19-.38-.22-.4,0a3.78,3.78,0,0,0,0,1,.44.44,0,0,0,0,.1h0a1.37,1.37,0,0,0,.08.35c.16.54.47,1,1,1a1.15,1.15,0,0,0,.26,0,6.6,6.6,0,0,0,1.85,2.93c-1,2.79-2.45,5.45-3.5,8.26a.19.19,0,0,0-.12-.07.8.8,0,0,0-.4.08c-.37-1.61-.81-3.22-1.27-4.83a.06.06,0,0,0,0,0c-.18-.62-.35-1.24-.54-1.86-.14-.46-.3-.94-.46-1.41a28.59,28.59,0,0,0,1.19-7.13A7.85,7.85,0,0,0,48.63,10c0-.25-.35-.35-.39-.1a8.09,8.09,0,0,1-2.19,4,14,14,0,0,0-.6-3.93l.14-.06c.23-.11,0-.51-.19-.41l-.11,0c0-.14-.11-.28-.17-.42a1,1,0,0,0,.69-.33A2.7,2.7,0,0,0,46.73,8c1.28-1.83,0-4.82-1.18-6.35S42.37-.76,41,.85a2.88,2.88,0,0,0-.26.35,2.09,2.09,0,0,0-.47,1.48,10,10,0,0,0,1.1,4.76c.69,1.46,2.08,3.09,3.77,2.67a13,13,0,0,1,.24,4.59h0a.17.17,0,0,0,0,.2c-.21,2-.64,3.93-.71,6a12.49,12.49,0,0,0-3.45-5.25,1.87,1.87,0,0,0,.52-.82c.58-1.83-1.67-3.39-3-4.08C37.22,10,35,9.18,33.39,10s-.32,3.35.53,4.25C35.6,16,39,17.48,41.43,16.67c0,0,0,0,0-.05,1.94,2.2,2.85,5.16,3.74,8a14.35,14.35,0,0,1-2.17-1,8.77,8.77,0,0,1-1.5-1.23,1.54,1.54,0,0,0,.35-.51.24.24,0,0,0-.06-.24,1.19,1.19,0,0,0,0-.42A2.07,2.07,0,0,0,40.79,20a2.47,2.47,0,0,0-1.07-.54,1.15,1.15,0,0,0-.93.15h-.08a.12.12,0,0,0-.2-.05c-.57.76-.06,2.22.5,2.85a1.76,1.76,0,0,0,2,.42l.08-.05.2-.11c1.1,1.24,2.52,2.5,4.09,2.48l.13.4a59,59,0,0,1,2.33,14.16l-.34.28c-.08.06,0,.21.08.2l.28-.07,0,.28c.23,3.32.4,6.62.53,9.91a20.39,20.39,0,0,0-3.17-8.64l0-.08c.12,0,.23-.08.22-.21-.65-5.07-3.7-9-7.32-12.43a35.11,35.11,0,0,0-6.36-4.77c-2.61-1.53-5.62-1.4-8.26-2.75a.22.22,0,0,0-.29.31c2.28,5.09,5.87,9,10.13,12.55,3.29,2.74,7,6.3,11.06,7.9a29.59,29.59,0,0,1,3.37,7.63v0c.27,1.23.51,2.46.75,3.69.15,6,.11,12-.27,18.13,0,.24.39.28.42,0a86,86,0,0,0,.81-14h0l.06-.28c.3-.81.63-1.6,1-2.4a.09.09,0,0,0,.14,0c.18-.37.35-.75.52-1.12,4.19-5.64,9.8-10.16,13.28-16.3A27.26,27.26,0,0,0,67.67,20.1ZM52,32c.29-.17.62-.24.82.05a2.07,2.07,0,0,1-.6,2.48.37.37,0,0,1-.17.05,2.25,2.25,0,0,0,.39-2.21.29.29,0,0,0-.49-.11C51.92,32.18,51.93,32.1,52,32Zm-.69,2.29s-.06-.09-.1-.13a6.88,6.88,0,0,1-.07-.77,1.75,1.75,0,0,1,.38-1l0,0a14,14,0,0,0-.2,1.94ZM57,20.24a1.54,1.54,0,0,0-.26-.47l.06-.05a.23.23,0,0,0-.05-.39c.79,0,.9,1.22.74,1.78a2.15,2.15,0,0,1-.78,1.08A2.33,2.33,0,0,0,57,20.24Zm-1.29,1.55a3.1,3.1,0,0,0,.75-1.33,1.73,1.73,0,0,1-.22,1.16,2.39,2.39,0,0,1-.94.89l.21-.62A.35.35,0,0,0,55.68,21.79ZM55,20.35a3.48,3.48,0,0,1,.38-.39,6.06,6.06,0,0,0-.54,2.47,2.17,2.17,0,0,1-.45-.94.18.18,0,0,0-.05-.07A3.53,3.53,0,0,1,55,20.35Zm-1.69-6.61a4.39,4.39,0,0,1,.12-1.31,1.55,1.55,0,0,1,.42-.54.26.26,0,0,0,0-.37l0,0a2.27,2.27,0,0,1-.43,2.74A3.94,3.94,0,0,1,53.34,13.74Zm1.39,2.55a1.74,1.74,0,0,1-1.27.76,4.94,4.94,0,0,0,.79-.66,2.59,2.59,0,0,0,.57-.22Zm.06-4.22a2.7,2.7,0,0,0-.63-1.29.3.3,0,0,0-.42,0,4.07,4.07,0,0,0-.4.65h0a13.28,13.28,0,0,1,1.84-3.67A6.49,6.49,0,0,1,54.79,12.07Zm1.29-1a8.29,8.29,0,0,0,.18-2.31,5.69,5.69,0,0,1,.2.93C56.32,10.28,56.17,10.79,56.08,11.07Zm-1.5-4.93A1.84,1.84,0,0,1,56,6.31c.21.12.37-.19.18-.32a3,3,0,0,0-1-.46l.15-.07C56.76,5,57,6.32,56.79,7.84A3.82,3.82,0,0,0,56.25,7a2.14,2.14,0,0,0-1.78-.73A1.34,1.34,0,0,0,54.58,6.14ZM53.9,7.27a2.4,2.4,0,0,1,.61-.16A13.34,13.34,0,0,0,52.93,9.9,17.31,17.31,0,0,1,53.9,7.27Zm-2,3.53a4.36,4.36,0,0,1,.31-2.15c.08-.17.17-.36.28-.55h0L52.67,8A17.86,17.86,0,0,0,51.85,10.8ZM49.3,17.24c0-.22-.36-.12-.33.09s.07.29.1.44a.89.89,0,0,1-.39-.84.58.58,0,0,1,1-.25c.17.25,0,.7-.28,1A4,4,0,0,1,49.3,17.24Zm-4-14.71c.88,1.3,1.53,3.31.9,4.83h0a9,9,0,0,0-.5-2.31.14.14,0,0,0,0-.13A4.67,4.67,0,0,0,42.63.87a1.89,1.89,0,0,0-.44-.11C43.26.43,44.68,1.68,45.26,2.53Zm-4,2.88a7,7,0,0,1,0-3.7l0-.09a1.52,1.52,0,0,1,1.49.15,4.88,4.88,0,0,1,1.35,1.14,1.56,1.56,0,0,0-2.25.32A3.54,3.54,0,0,0,41.3,5.41Zm1.2,1.76a3.5,3.5,0,0,1,.23-3.66c.44-.46.86-.31,1.23.12l-.06,0a.4.4,0,0,0-.43.19,6,6,0,0,0-.08,4.26A2.31,2.31,0,0,1,42.5,7.17Zm.29,1.56a2.75,2.75,0,0,0,2,.41l.18.5A2.23,2.23,0,0,1,42.79,8.73Zm2.13-.34a.91.91,0,0,1-.43-.22,2.73,2.73,0,0,1-.59-1.71c0-.48-.19-2.43.44-1.74a.23.23,0,0,0,.28,0,11.78,11.78,0,0,1,.74,2.4c0,.21.07,1-.24,1.18Zm-4.11,5.24a1.81,1.81,0,0,1,.17.84,6,6,0,0,0-2.68-3.12A5,5,0,0,1,40.81,13.63Zm-3.37-1.84a.13.13,0,0,0,0-.06l.1,0a5.45,5.45,0,0,1,2.74,3C38.8,14.75,36.93,13.35,37.44,11.79Zm-1.57,3.05c-.94-.54-3.85-3.11-2.11-4.25a2.72,2.72,0,0,1,2.08-.12c-.91-.09-1.79.15-1.88,1.29s.8,2.28,2,3.14Zm-1.08-2.51c-.55-1.59,1.16-1.2,2.21-.79l-.06.05c-1.16,1.67.77,3.25,2.54,3.71a5.21,5.21,0,0,1-1.22-.16A4.63,4.63,0,0,1,34.79,12.33ZM39,16.15a3,3,0,0,0,1.76-.23,3.61,3.61,0,0,1,.35.33A5.57,5.57,0,0,1,39,16.15Zm2,5.7-.44-.52c-.11-.14-.36,0-.24.14l.2.26-.09-.05a1.76,1.76,0,0,1-.69-1.16.15.15,0,0,0-.06-.09.44.44,0,0,1,.3,0,1.63,1.63,0,0,1,1.12,1A.44.44,0,0,1,41,21.85ZM34.65,34.77a39.79,39.79,0,0,1-10-10.89,2,2,0,0,1-.41-1.21c2.5,3.78,6.51,6.84,9.62,10.09s6.77,5.56,10,8.56l.21.29C40.64,39.77,37.71,37.2,34.65,34.77Zm-10-12.13c1.51.76,3,1.56,4.39,2.38,4.71,4.95,9.8,9.33,13.67,14.56-2.39-2-5-3.85-7.3-6-2-1.81-3.75-3.9-5.63-5.8A58.18,58.18,0,0,1,24.6,22.64Zm5.13,2.82c6.22,3.74,11.42,8.29,14.78,15C40.54,34.72,34.41,29.84,29.73,25.46Zm-4.44-3c.86.18,2,.7,2.68.83,2.92.6,5.45,2.53,7.71,4.34,4.19,3.35,7.44,7.26,8.94,12.35C41.18,31.92,33,26,25.29,22.42Zm40.78-1.36a.81.81,0,0,1,.42.19c-.15.51-.33,1-.52,1.49C66,22.19,66.06,21.63,66.07,21.06ZM63.57,25c-.43.55-.85,1.12-1.26,1.68a20.2,20.2,0,0,1,3.29-5.22,22.06,22.06,0,0,1-.37,3,43.94,43.94,0,0,1-2.55,4.32c-2.16,3.34-4,6.91-6,10.33q-1.08,1.82-2.1,3.69c1-2.65,2.17-5.27,3.43-7.86.41-.85.85-1.69,1.28-2.53,1.5-2.37,3.06-4.74,4.53-7.22C63.89,25,63.67,24.82,63.57,25Zm.67-2.89a6.28,6.28,0,0,1,.74-.64c-2.23,2.06-3.86,5.87-5.17,8.75a58.25,58.25,0,0,0-8.26,17.65.14.14,0,0,0,.28.07,43.57,43.57,0,0,1,4.36-10.43,64.36,64.36,0,0,0-4,10.12c-.37.84-.71,1.67-1,2.52C51.67,39.8,57,29.29,64.24,22.06ZM51.77,51.16q-.59,1-1.14,2c.23-.73.48-1.44.74-2.15a.12.12,0,0,0,.22,0c.36-1.07.72-2.14,1.1-3.2a110,110,0,0,1,5.87-10.95c1.78-3,4.07-6.16,5.89-9.44a38.8,38.8,0,0,1-4.86,9.44A109.35,109.35,0,0,0,51.9,51.1.12.12,0,0,0,51.77,51.16Zm15.17-22.3a29.41,29.41,0,0,1-4.23,10.45c-2,3.22-4.8,5.84-7.4,8.59.3-.48.61-1,.92-1.43,2.46-3.71,4.91-7.42,7.17-11.25a42,42,0,0,0,3.63-7C67,28.48,67,28.7,66.94,28.86ZM61.73,37c-1.84,3.15-3.92,6.17-5.89,9.25-.68,1.07-1.33,2.17-2,3.25-.59.67-1.15,1.35-1.69,2.06l-.06,0-.09.15A119.69,119.69,0,0,1,60.83,35.8a30.31,30.31,0,0,0,4.76-10.62,22.56,22.56,0,0,0,1.29-3.36,4,4,0,0,1,.24.8C67.75,27.73,64.19,32.78,61.73,37Z"/></g></g></svg>