<svg xmlns="http://www.w3.org/2000/svg" xmlns:xlink="http://www.w3.org/1999/xlink" viewBox="0 0 1322.78 67.12"><defs><style>.cls-1{fill:#040000;}.cls-2{fill:#b4b3b3;}.cls-3{fill:url(#linear-gradient);}.cls-4{fill:url(#linear-gradient-2);}.cls-5{fill:#fff;}</style><linearGradient id="linear-gradient" x1="703.82" y1="36.51" x2="703.82" y2="30.52" gradientUnits="userSpaceOnUse"><stop offset="0" stop-color="#454444"/><stop offset="0.3" stop-color="#3d3c3c"/><stop offset="0.77" stop-color="#272727"/><stop offset="1" stop-color="#1a1a1a"/></linearGradient><linearGradient id="linear-gradient-2" x1="395" y1="36.23" x2="395" y2="31.36" gradientUnits="userSpaceOnUse"><stop offset="0" stop-color="#003543"/><stop offset="0.11" stop-color="#023b4b"/><stop offset="0.29" stop-color="#094d61"/><stop offset="0.51" stop-color="#136984"/><stop offset="0.75" stop-color="#2290b6"/><stop offset="1" stop-color="#33bdee"/></linearGradient></defs><g id="圖層_2" data-name="圖層 2"><g id="圖層_1-2" data-name="圖層 1"><rect class="cls-1" width="1322.78" height="67.12"/><path class="cls-2" d="M145.72,33.94,125.25,22.12c0,17.82,0,9.08,0,23.64Z"/><path class="cls-2" d="M217.76,33.94,197.3,22.12c0,17.82,0,9.08,0,23.64Z"/><rect class="cls-2" x="217.41" y="22.12" width="3.84" height="23.64"/><path class="cls-2" d="M53.21,33.94,73.67,45.76c0-17.82,0-9.08,0-23.64Z"/><rect class="cls-2" x="49.73" y="22.12" width="3.84" height="23.64" transform="translate(103.29 67.88) rotate(180)"/><rect class="cls-3" x="280.88" y="30.52" width="845.87" height="5.99"/><rect class="cls-4" x="280.88" y="30.52" width="228.23" height="5.99"/><path class="cls-5" d="M516.07,33.56c0,3.42-3.16,6.2-7.05,6.2S502,37,502,33.56s3.16-6.2,7.06-6.2S516.07,30.13,516.07,33.56Z"/><path class="cls-2" d="M1191.08,21.67,1178,30V37l13,8.35C1191.05,27.49,1191.08,36.24,1191.08,21.67Z"/><rect class="cls-2" x="1174.72" y="27.74" width="6.85" height="11.51" transform="translate(2356.28 66.98) rotate(180)"/><path class="cls-2" d="M1199.42,45a1.65,1.65,0,0,1-1.48-.86,1.36,1.36,0,0,1,.86-1.85,11.05,11.05,0,0,0,3.46-2,9.65,9.65,0,0,0,2.34-3.05,8.52,8.52,0,0,0,0-7.46,9.62,9.62,0,0,0-2.34-3,11.15,11.15,0,0,0-3.46-2.06,1.34,1.34,0,0,1-.85-1.84,1.68,1.68,0,0,1,2.1-.75,14.31,14.31,0,0,1,4.48,2.66,12.4,12.4,0,0,1,3,3.93,11.06,11.06,0,0,1,0,9.66,12.44,12.44,0,0,1-3,3.94,14.42,14.42,0,0,1-4.48,2.66A2,2,0,0,1,1199.42,45Z"/><path class="cls-2" d="M1196.42,39.37a1.53,1.53,0,0,1-1.39-.81,1.27,1.27,0,0,1,.8-1.73,4.42,4.42,0,0,0,1.31-.78,3.61,3.61,0,0,0,.88-1.15,3.18,3.18,0,0,0,0-2.82,3.61,3.61,0,0,0-.88-1.15,4.42,4.42,0,0,0-1.31-.78,1.27,1.27,0,0,1-.8-1.73,1.59,1.59,0,0,1,2-.7,7.32,7.32,0,0,1,2.26,1.34,6.32,6.32,0,0,1,1.53,2,5.65,5.65,0,0,1,.56,2.44,5.59,5.59,0,0,1-.56,2.44,6.11,6.11,0,0,1-1.53,2,7.13,7.13,0,0,1-2.26,1.34A1.7,1.7,0,0,1,1196.42,39.37Z"/><polygon class="cls-2" points="1277.91 44.12 1270.18 44.12 1270.18 47.52 1281.77 47.52 1281.77 37.33 1277.91 37.33 1277.91 44.12"/><polygon class="cls-2" points="1252.93 37.33 1249.07 37.33 1249.07 47.52 1260.66 47.52 1260.66 44.12 1252.93 44.12 1252.93 37.33"/><polygon class="cls-2" points="1249.07 28.96 1252.93 28.96 1252.93 22.17 1260.66 22.17 1260.66 18.78 1249.07 18.78 1249.07 28.96"/><polygon class="cls-2" points="1270.18 18.78 1270.18 22.17 1277.91 22.17 1277.91 28.96 1281.77 28.96 1281.77 18.78 1270.18 18.78"/></g></g></svg>