<svg xmlns="http://www.w3.org/2000/svg" viewBox="0 0 53.64 53.64"><defs><style>.cls-1{fill:none;stroke:#254179;stroke-miterlimit:10;stroke-width:0.5px;}</style></defs><title>資產 12</title><g id="圖層_2" data-name="圖層 2"><g id="圖層_1-2" data-name="圖層 1"><circle class="cls-1" cx="26.82" cy="26.82" r="26.57"/><line class="cls-1" x1="9.08" y1="7.04" x2="46.39" y2="44.78"/><path class="cls-1" d="M26.78,11.26h5.65a.66.66,0,0,1,.52.21l8,8a.65.65,0,0,1,.21.52c0,.85,0,1.69,0,2.54a.61.61,0,0,1-.2.49q-4,4-8,8a.67.67,0,0,1-.52.22H21.11a.65.65,0,0,1-.51-.22l-8-8a.67.67,0,0,1-.22-.55c0-.85,0-1.7,0-2.54a.6.6,0,0,1,.18-.47q4-4,8-8.06a.67.67,0,0,1,.52-.21Z"/><path class="cls-1" d="M26.8,32.19h5.35c.26,0,.33.06.33.32q0,3.6,0,7.2c0,.29-.09.34-.35.34H21.43c-.29,0-.35-.08-.34-.35q0-3.6,0-7.2c0-.27.1-.31.34-.31Z"/><path class="cls-1" d="M41.19,24.16c0,2.06,0,4,0,6a3.44,3.44,0,0,1,0,1.4,4.41,4.41,0,0,1-.94,1l-6.44,6.49a3.5,3.5,0,0,0-.24.3l-.1-.06V39c0-2.27,0-4.54,0-6.8a.55.55,0,0,1,.15-.45c2.49-2.47,5-5,7.45-7.44Z"/><path class="cls-1" d="M20.18,39.32c-.15,0-.2-.13-.28-.21q-3.64-3.66-7.28-7.33a.46.46,0,0,1-.21-.35v-7.2c.14,0,.18.09.24.15L20,31.73a.49.49,0,0,1,.18.4C20.18,34.52,20.18,36.91,20.18,39.32Z"/><path class="cls-1" d="M26.71,26.25a9.2,9.2,0,0,1-5.45-1.7,4.5,4.5,0,0,1-1.47-1.79,3.46,3.46,0,0,1,.55-3.84,6.88,6.88,0,0,1,3.72-2.22,10.15,10.15,0,0,1,7.13.62,5.92,5.92,0,0,1,2,1.55,3.65,3.65,0,0,1-.08,5A7.35,7.35,0,0,1,29.21,26,11.47,11.47,0,0,1,26.71,26.25Z"/></g></g></svg>