<svg xmlns="http://www.w3.org/2000/svg" viewBox="0 0 48.02 53.66"><defs><style>.cls-1{fill:none;stroke:#254179;stroke-miterlimit:10;stroke-width:0.5px;}</style></defs><title>資產 11</title><g id="圖層_2" data-name="圖層 2"><g id="圖層_1-2" data-name="圖層 1"><path class="cls-1" d="M47.27,50.46l-7.62-7.61a13.24,13.24,0,0,0-5.93-20.47V10.43a1.69,1.69,0,0,0-.51-1.22L24.76.76A1.69,1.69,0,0,0,23.54.25H2A1.72,1.72,0,0,0,.25,2V38.76A1.72,1.72,0,0,0,2,40.49H17.23a13.22,13.22,0,0,0,20,4.8l7.61,7.61a1.73,1.73,0,0,0,2.45-2.44Zm-22-44.31L27.82,8.7H25.27V6.15Zm-8.2,23.59A12.84,12.84,0,0,0,16.13,37H3.71V3.71h18.1v6.72a1.74,1.74,0,0,0,1.73,1.73h6.72v9.46c-.36,0-.73,0-1.1,0A13.46,13.46,0,0,0,17.07,29.74Zm3.6.25a9.73,9.73,0,0,1,8.49-5,9.88,9.88,0,0,1,3.93.82V40H20.9C17.93,33.88,20.67,30,20.67,30Zm2.26,12.32H34.24a1.15,1.15,0,0,0,1.15-1.15V27.28c.23.19.46.4.68.61a9.77,9.77,0,0,1-6.91,16.68A9.66,9.66,0,0,1,22.93,42.31Z"/><line class="cls-1" x1="8.81" y1="17.92" x2="26.3" y2="17.92"/><line class="cls-1" x1="8.81" y1="24.08" x2="21.36" y2="24.08"/><line class="cls-1" x1="8.81" y1="30.24" x2="17.15" y2="30.24"/><line class="cls-1" x1="22.13" y1="33.28" x2="30.47" y2="33.28"/></g></g></svg>