<svg xmlns="http://www.w3.org/2000/svg" viewBox="0 0 51.63 52.92"><defs><style>.cls-1{fill:none;stroke:#254179;stroke-miterlimit:10;stroke-width:0.5px;}</style></defs><title>資產 7</title><g id="圖層_2" data-name="圖層 2"><g id="圖層_1-2" data-name="圖層 1"><path class="cls-1" d="M51.1,23.82l-8.54-7.93V6H35.51v3.4l-9.7-9L.53,23.82a.88.88,0,0,0,1.2,1.29l3.81-3.54v31.1h14.1V31.46a1.72,1.72,0,0,1,1.71-1.71h8.93A1.72,1.72,0,0,1,32,31.46V52.67h14.1V21.57l3.81,3.54a.86.86,0,0,0,.6.24.85.85,0,0,0,.64-.29A.88.88,0,0,0,51.1,23.82Z"/></g></g></svg>