<svg xmlns="http://www.w3.org/2000/svg" viewBox="0 0 53.21 53.61"><defs><style>.cls-1{fill:none;stroke:#254179;stroke-miterlimit:10;stroke-width:0.5px;}</style></defs><title>資產 5</title><g id="圖層_2" data-name="圖層 2"><g id="圖層_1-2" data-name="圖層 1"><path class="cls-1" d="M.25,41.38.31,10.26C-.44,2.52,6,2.74,6,2.74V36.83"/><path class="cls-1" d="M40.4,11.65h8.44V29.47L31.22,47.09H5.82a5.94,5.94,0,0,1-5-2.78,5.17,5.17,0,0,1-.54-2.68,5.74,5.74,0,0,1,1.34-3.92A5.16,5.16,0,0,1,6,36.44"/><line class="cls-1" x1="6.47" y1="11.65" x2="30.97" y2="11.65"/><polyline class="cls-1" points="48.84 29.47 52.96 25.35 52.96 53.36 24.77 53.36 31.56 46.75"/><line class="cls-1" x1="50.19" y1="35.53" x2="52.96" y2="35.53"/><line class="cls-1" x1="50.19" y1="39.58" x2="52.96" y2="39.58"/><line class="cls-1" x1="50.19" y1="43.63" x2="52.96" y2="43.63"/><line class="cls-1" x1="50.19" y1="47.47" x2="52.96" y2="47.47"/><polygon class="cls-1" points="47.38 38.42 47.38 47.3 38.9 47.3 47.38 38.42"/><line class="cls-1" x1="13.56" y1="31.37" x2="36.93" y2="31.37"/><polyline class="cls-1" points="16.73 31.23 24.77 27.37 47.38 4.88 42.56 0.35 20.39 22.52 16.63 31.46"/><line class="cls-1" x1="40.22" y1="2.69" x2="44.89" y2="7.35"/><line class="cls-1" x1="37.52" y1="5.39" x2="42.18" y2="10.05"/><line class="cls-1" x1="20.39" y1="23.01" x2="24.77" y2="27.37"/></g></g></svg>