<svg xmlns="http://www.w3.org/2000/svg" viewBox="0 0 65.63 53.94"><defs><style>.cls-1{fill:none;stroke:#254179;stroke-miterlimit:10;stroke-width:0.5px;}</style></defs><title>資產 10</title><g id="圖層_2" data-name="圖層 2"><g id="圖層_1-2" data-name="圖層 1"><path class="cls-1" d="M.25,7.13c1,0,2.07,0,3.11,0,.35,0,.45.14.41.46,0,.14,0,.29,0,.44V47.27c0,1.34.3,1.63,1.61,1.72a70.93,70.93,0,0,1,21,4.42c.09,0,.21,0,.29.23H1c-.24,0-.47,0-.7,0Z"/><path class="cls-1" d="M31.66,53c-1.44-.57-2.82-1.14-4.21-1.68a70,70,0,0,0-13.33-3.66,71.94,71.94,0,0,0-7.62-.88c-.36,0-.49-.16-.45-.51,0-.1,0-.21,0-.31q0-22.51,0-45c0-.61.12-.77.74-.72a71.62,71.62,0,0,1,15.83,3c3,.92,5.82,2.11,8.68,3.28a.49.49,0,0,1,.37.56c0,.53,0,1.06,0,1.59V53Z"/><path class="cls-1" d="M34,53v-.6q0-22.5,0-45a.86.86,0,0,1,.66-.94A79.87,79.87,0,0,1,47.61,2,73.14,73.14,0,0,1,59,.26c.43,0,.56,0,.56.52q0,22.7,0,45.38c0,.38,0,.62-.51.65a70.45,70.45,0,0,0-22.17,5L34.07,53S34,53,34,53Z"/><path class="cls-1" d="M39,53.65a42.71,42.71,0,0,1,6.88-2.37,69.4,69.4,0,0,1,13.35-2.19c.49,0,1-.07,1.46-.12a1.19,1.19,0,0,0,1.2-1.28v-.57q0-19.65,0-39.29c0-.56.1-.79.71-.74a18.43,18.43,0,0,0,2.35,0c.41,0,.51.12.48.5a8.77,8.77,0,0,0,0,.89q0,22.21,0,44.44c0,.63-.18.74-.77.74q-12.53,0-25,0Z"/><line class="cls-1" x1="40.91" y1="19.1" x2="54.12" y2="18.09"/><line class="cls-1" x1="40.91" y1="26.62" x2="54.12" y2="25.61"/><line class="cls-1" x1="40.91" y1="34.15" x2="54.12" y2="33.13"/><line class="cls-1" x1="27.42" y1="19.61" x2="14.2" y2="18.59"/><line class="cls-1" x1="27.42" y1="27.13" x2="14.2" y2="26.12"/><line class="cls-1" x1="27.42" y1="34.65" x2="14.2" y2="33.64"/></g></g></svg>