<svg xmlns="http://www.w3.org/2000/svg" viewBox="0 0 57.95 54.73"><defs><style>.cls-1{fill:none;stroke:#254179;stroke-miterlimit:10;stroke-width:0.5px;}</style></defs><title>資產 8</title><g id="圖層_2" data-name="圖層 2"><g id="圖層_1-2" data-name="圖層 1"><polyline class="cls-1" points="24.23 53.99 26.79 27.34 55.51 27.34 57.67 54.01 0.27 53.97 2.67 13.27 39.46 13.27 40.55 27.34"/><polyline class="cls-1" points="51.85 27.34 53.68 48.11 49.74 54.01 47.35 27.34"/><line class="cls-1" x1="53.68" y1="48.11" x2="57.68" y2="54.01"/><line class="cls-1" x1="32.08" y1="13.27" x2="32.08" y2="27.16"/><line class="cls-1" x1="36.31" y1="13.27" x2="36.31" y2="27.16"/><path class="cls-1" d="M9.94,20.21V15.1c0-3.55-.65-7.11,1-10.4A7.52,7.52,0,0,1,18.3.27s7.17-.06,8,7v11.1"/><path class="cls-1" d="M31.16,33.73v1.35c0,1.66-.41,3.32.65,4.86A5.19,5.19,0,0,0,36.47,42s4.56,0,5.07-3.26V33.56"/><path class="cls-1" d="M32.08,18.35V7.25c-.81-7-8-7-8-7-2.9,0-6.57,1.53-7.32,4.63a28.88,28.88,0,0,0-.32,5l-.18,3.35"/></g></g></svg>