<?xml version="1.0" encoding="UTF-8"?>
<svg id="_圖層_2" data-name="圖層 2" xmlns="http://www.w3.org/2000/svg" viewBox="0 0 28.35 34.14">
  <defs>
    <style>
      .cls-1 {
        fill: #0080c4;
      }
    </style>
  </defs>
  <g id="_圖層_1-2" data-name="圖層 1">
    <g>
      <circle class="cls-1" cx="5.49" cy="17.07" r="5.49"/>
      <path class="cls-1" d="M28.35,5.49c0,3.03-2.46,5.49-5.49,5.49s-5.49-2.46-5.49-5.49S19.83,0,22.86,0s5.49,2.46,5.49,5.49Z"/>
      <path class="cls-1" d="M28.35,29.52c0,2.55-2.07,4.62-4.62,4.62s-4.62-2.07-4.62-4.62,2.07-4.62,4.62-4.62,4.62,2.07,4.62,4.62Z"/>
      <polygon class="cls-1" points="6.55 18.66 4.43 15.48 21.8 3.9 23.93 7.08 6.55 18.66"/>
      <polygon class="cls-1" points="22.84 30.86 8.23 21.12 10.02 18.45 24.63 28.19 22.84 30.86"/>
    </g>
  </g>
</svg>