<?xml version="1.0" encoding="UTF-8"?>
<svg id="_圖層_2" data-name="圖層 2" xmlns="http://www.w3.org/2000/svg" viewBox="0 0 43.25 27.51">
  <defs>
    <style>
      .cls-1 {
        fill: #0080c4;
      }
    </style>
  </defs>
  <g id="_圖層_1-2" data-name="圖層 1">
    <g>
      <path class="cls-1" d="M21.62,21.08c4.05,0,7.33-3.28,7.33-7.33s-3.28-7.33-7.33-7.33-7.33,3.28-7.33,7.33,3.28,7.33,7.33,7.33Zm0-10.31c1.64,0,2.98,1.34,2.98,2.98s-1.34,2.98-2.98,2.98-2.98-1.34-2.98-2.98,1.34-2.98,2.98-2.98Z"/>
      <path class="cls-1" d="M.88,12.56l-.88,1.2,.88,1.2c.37,.51,9.29,12.55,20.75,12.55s20.37-12.04,20.75-12.55l.87-1.2-.87-1.2c-.37-.51-9.29-12.56-20.75-12.56S1.25,12.04,.88,12.56ZM21.62,4.07c7.48,0,14.09,6.86,16.5,9.69-2.4,2.83-8.99,9.68-16.5,9.68S7.54,16.58,5.13,13.75c2.41-2.83,9.02-9.69,16.49-9.69Z"/>
    </g>
  </g>
</svg>