<?xml version="1.0" encoding="UTF-8"?>
<svg id="_圖層_2" data-name="圖層 2" xmlns="http://www.w3.org/2000/svg" viewBox="0 0 16.92 33.82">
  <defs>
    <style>
      .cls-1 {
        fill: #0080c4;
      }
    </style>
  </defs>
  <g id="_圖層_1-2" data-name="圖層 1">
    <path class="cls-1" d="M4.89,33.82c0-.12,.02-.24,.02-.36,0-4.79,0-9.57,0-14.36,0-.34-.09-.41-.42-.41-1.4,.02-2.8,0-4.19,.01-.24,0-.31-.06-.31-.31,.01-1.8,.01-3.61,0-5.41,0-.26,.09-.3,.32-.3,1.42,0,2.84,0,4.26,.01,.28,0,.34-.08,.34-.35,0-1.78-.08-3.57,.04-5.35,.15-2.09,.83-3.96,2.48-5.35C8.79,.5,10.39,.05,12.12,0c1.51-.04,3.01,.06,4.52,.19,.23,.02,.29,.1,.29,.33,0,1.61,0,3.21,0,4.82,0,.22-.06,.28-.28,.27-1.01,0-2.02,0-3.04,0-.44,0-.88,.07-1.29,.23-.89,.33-1.27,1.04-1.33,1.92-.11,1.57-.03,3.15-.05,4.72,0,.23,.15,.2,.29,.2,1.61,0,3.21,0,4.82,0,.3,0,.36,.07,.32,.36-.23,1.7-.43,3.4-.64,5.11-.01,.1-.04,.2-.04,.29,0,.23-.11,.26-.31,.26-1.34,0-2.69,0-4.03-.01-.33,0-.42,.08-.42,.41,.01,4.79,0,9.57,0,14.36,0,.12,.02,.24,.03,.36H4.89Z"/>
  </g>
</svg>