<?xml version="1.0" encoding="UTF-8"?>
<svg id="_圖層_2" data-name="圖層 2" xmlns="http://www.w3.org/2000/svg" viewBox="0 0 33.82 33.81">
  <defs>
    <style>
      .cls-1 {
        fill: #0080c4;
      }
    </style>
  </defs>
  <g id="_圖層_1-2" data-name="圖層 1">
    <g>
      <path class="cls-1" d="M12.75,0h8.45c.39,.09,.79,.05,1.18,.06,1.4,.03,2.79,.08,4.16,.41,2.51,.6,4.53,1.88,5.81,4.19,.84,1.52,1.24,3.17,1.32,4.89,.21,4.55,.17,9.11,.06,13.67-.03,1.1-.12,2.2-.38,3.27-.84,3.48-2.92,5.79-6.41,6.77-1.4,.39-2.84,.47-4.28,.5-3.35,.09-6.69,.06-10.04,.06-1.68,0-3.37-.06-5.03-.4-2.69-.54-4.79-1.92-6.17-4.33-.86-1.5-1.15-3.17-1.31-4.87-.05-.57-.02-1.14-.13-1.7,0-3.81,0-7.62,0-11.43,.02-.16,.05-.32,.05-.49,.04-1.01,.15-2.02,.34-3.01C1.13,3.81,3.81,1.12,7.59,.39,9.03,.1,10.48,.08,11.93,.05c.27,0,.55,.03,.82-.05ZM30.75,16.43c0-1.25,.02-2.51,0-3.76-.04-1.49-.01-2.99-.3-4.47-.47-2.37-1.81-3.96-4.17-4.62-.97-.27-1.96-.4-2.96-.47-2.33-.16-4.66-.03-7-.09-1.68-.04-3.37,0-5.05,.03-1.23,.02-2.46,.08-3.67,.39-1.98,.52-3.34,1.69-3.99,3.66-.49,1.48-.61,3.02-.62,4.56-.03,3.58-.02,7.15,0,10.73,0,1.07,.09,2.13,.32,3.18,.57,2.64,2.13,4.3,4.83,4.82,1.11,.22,2.22,.29,3.35,.32,3.2,.07,6.41,.06,9.61,.04,1.47,0,2.95-.04,4.41-.3,2.57-.45,4.29-2.05,4.87-4.54,.23-.99,.31-2,.36-3.01,.09-2.16,.05-4.31,.04-6.47Z"/>
      <path class="cls-1" d="M16.91,8.23c4.8,0,8.66,3.87,8.67,8.67,.01,4.8-3.88,8.69-8.69,8.68-4.8-.01-8.66-3.89-8.65-8.68,0-4.8,3.88-8.67,8.67-8.66Zm0,3.05c-3.12,0-5.63,2.49-5.64,5.6,0,3.12,2.49,5.64,5.6,5.65,3.13,.01,5.65-2.5,5.65-5.62,0-3.12-2.49-5.62-5.61-5.63Z"/>
    </g>
  </g>
</svg>