<svg xmlns="http://www.w3.org/2000/svg" viewBox="0 0 30.84 33.49"><defs><style>.cls-1{fill:#231815;}</style></defs><title>資產 4</title><g id="圖層_2" data-name="圖層 2"><g id="圖層_1-2" data-name="圖層 1"><path class="cls-1" d="M22.88,23.93c-1.46-.95-3-2.42-4.73-2.85s-3.6.26-5.42-.09a.06.06,0,0,0-.05.1h-.1L12.29,21a.07.07,0,0,0-.09.06l-.27,0a19.55,19.55,0,0,1,3.5-2.19A36.56,36.56,0,0,1,20,17.73c1.14-.27,1.95-1.07,3.2-1a0,0,0,0,0,0-.05,2.71,2.71,0,0,0-2.07.38,24.59,24.59,0,0,1-3.81,1.08c.41-.2.82-.44,1.22-.65A13.79,13.79,0,0,0,20,16.68s0-.08,0-.07a7.73,7.73,0,0,0-1.56.69,15.22,15.22,0,0,0-1.81,1h0A10.85,10.85,0,0,0,14,19.41a11.74,11.74,0,0,1,7-3.6c.83-.13,1.67-.08,2.5-.13.33,0,3.14-.17,2.87.24-1.3,1.92-4.35,3.13-6.54,3.6-1.73.37-3.28-.89-4.89-.29a.1.1,0,0,0,0,.2c1.25-.21,2.4.43,3.64.51a8.11,8.11,0,0,0,3-.61,10.63,10.63,0,0,0,5.24-3.61.15.15,0,0,0-.06-.23,5.47,5.47,0,0,0-2.45-.16c-1.32.1-2.65.1-4,.32-2.37.4-5.49,1.78-6.75,3.92v0c-.4.25-.79.52-1.2.82a16.63,16.63,0,0,1-2.84,1.26c.91-1.07,1.79-2.16,2.6-3.31l0,0a.17.17,0,0,0,.22,0,35.39,35.39,0,0,1,3.77-3.11,19.84,19.84,0,0,1,4.12-2.86c1.07-.52,2.2-.91,3.29-1.37a14.2,14.2,0,0,0,3.09-1.09c.06,0,0-.11,0-.09-.73.25-1.44.53-2.17.77C26,9.86,27.38,9,28.76,8.23c.09-.05,0-.21-.09-.16-1.68.88-3.3,1.86-5,2.67-1.47.68-3,1.15-4.42,1.93-.22.12-.44.25-.65.39a17.75,17.75,0,0,1,5-3.84,14.85,14.85,0,0,1,6.3-1.81c1.33,0-1,1.66-1.24,1.84-.76.53-1.6.94-2.41,1.4-1.89,1.07-4,1.07-6,1.85-.13.05-.08.26.06.23C24,11.89,28.46,11,30.81,7.63a.14.14,0,0,0-.06-.21c-1.72-.87-4.37.38-6,1A15.39,15.39,0,0,0,18,13.46v0c-.82.6-1.58,1.28-2.34,1.92s-1.94,1.42-2.83,2.21c1.15-1.68,2.23-3.41,3.32-5.13a.07.07,0,0,0,.07,0l.09-.21c.38-.6.76-1.2,1.15-1.8a22.5,22.5,0,0,0,1.25-2.19c.86-1,1.67-2,2.44-3,0,0-.05-.12-.09-.06-.62.75-1.31,1.46-1.93,2.22a40.6,40.6,0,0,1,2.76-5.17c0-.06,0-.11-.07-.06A38.83,38.83,0,0,0,18.65,8a6.15,6.15,0,0,0-.37.52s0,.08,0,.09c-.21.38-.44.75-.67,1.11-.37.55-.73,1.1-1.09,1.65a18.9,18.9,0,0,0,.34-1.93,12.42,12.42,0,0,1,1.41-4c.9-1.71,2-4.12,3.8-5.07.85-.44.28,3.5.19,3.78a11.4,11.4,0,0,1-1.84,3.21c-1.3,1.76-3.07,3.19-4.25,5a.11.11,0,0,0,.17.13C19.51,9.33,24,5,22.69.09A.15.15,0,0,0,22.53,0c-1.69.19-2.86,2.46-3.6,3.75A27.22,27.22,0,0,0,17.3,6.93c-.69,1.62-.63,3.38-1.14,5-1.37,2.09-2.73,4.18-4.15,6.23A81.16,81.16,0,0,1,5.35,26a25.21,25.21,0,0,0,1-3.38c.31-1.11.62-2.18,1-3.24,1.62-3.4,5-5.87,6-9.61,0-.09-.12-.12-.15,0-1,2.34-2.72,4.33-4.21,6.43A20.28,20.28,0,0,1,14.4,7c.48-.44-.29,2.72-.23,2.51a13.9,13.9,0,0,1-1.53,3.32A26.62,26.62,0,0,1,9,17.05c-.06.06,0,.14.1.1a14.58,14.58,0,0,0,4.67-5.81c.31-.65,1.88-4.45,1.11-5a.13.13,0,0,0-.16,0,17.18,17.18,0,0,0-3.94,4.75,15.49,15.49,0,0,0-1.35,3.29,14,14,0,0,0-.75,2.21c-.28.4-.54.8-.78,1.22.07-.18.14-.36.22-.54A9.24,9.24,0,0,0,8.9,14.1a11.18,11.18,0,0,0,1-6.28C9.53,6.15,8.73,4.15,7.13,3.35a.11.11,0,0,0-.13,0c-.93,1.6-.67,3.45-.4,5.2.16,1.08.29,2.17.54,3.23s1,2.13,1.32,3.29a8.33,8.33,0,0,1-.36,1.52c-.52,1.59-1.22,3.07-1.66,4.7-.1.37-.19.75-.29,1.14a9.64,9.64,0,0,0-1.39-4.4c-.63-1.19-1.32-2.32-1.83-3.56a11,11,0,0,0-1.16-2.76.1.1,0,0,0-.16.12c1.13,1.5,1.34,3.58,2.33,5.2v0a6.82,6.82,0,0,1-1.33-1.72s-.1,0-.08,0a4.84,4.84,0,0,0,1.65,2.09,15.51,15.51,0,0,1,1.32,2.81,21.89,21.89,0,0,1-3-4,13,13,0,0,1-1.29-5.44c0-1,2.4,1.47,2.42,1.49A8.39,8.39,0,0,1,5,14.82a18.72,18.72,0,0,1,.82,5.51.07.07,0,0,0,.14,0c.59-3.77-1.09-8.57-4.76-10.14a.13.13,0,0,0-.17.13,14.3,14.3,0,0,0,1.07,5.56,14.34,14.34,0,0,0,3.56,4.75,0,0,0,0,1,0,0A9.39,9.39,0,0,1,6,23H6a16.85,16.85,0,0,1-1.28,3.74A34,34,0,0,0,0,33.28c-.1.18.2.3.29.12A32.7,32.7,0,0,1,3.4,28.86a6.66,6.66,0,0,1,3-1.11.06.06,0,0,0,.07,0c.8-.21,1.8.58,2.4,1s.95.91,1.47,1.32c0,0,.1,0,.09-.07-.2-.73-1.36-1.39-2-1.77a4.32,4.32,0,0,0-1.31-.64l.11,0,.2,0c1.58,0,3.71,1.13,3.58,2.78,0,.48-.08,1-.76.61a5.84,5.84,0,0,1-1.25-1.18,12.32,12.32,0,0,0-1.8-1.88.09.09,0,0,0-.11.14c1.22,1.15,2.13,2.7,3.67,3.45a.11.11,0,0,0,.15-.06,2.23,2.23,0,0,0-.3-2.73,5,5,0,0,0-2.43-1.26c1.49-.24,3-.44,4.49-.64.05,0,.05-.09,0-.09a18,18,0,0,0-4.24.41c1.46-1.3,4-1.28,5.77-.78.49.14,1,.25.46.73a4.12,4.12,0,0,1-1.68.75c-1.14.28-2-.68-3.13-.52a.07.07,0,0,0,0,.14c1.1.19,2,.84,3.16.65a3.63,3.63,0,0,0,2.3-1.35.13.13,0,0,0,0-.18c-1.82-1.14-5.62-1.24-7.09.6l-2,.43a8.74,8.74,0,0,0-2.4.72c1.68-2,3.52-4,5.27-6,.75-.44,1.56-.49,2.31-.9a2.72,2.72,0,0,1,1-.14c.95.52,1.69,1.58,2.67,2.12a22.72,22.72,0,0,0,3.1,1.39,4.55,4.55,0,0,0,4.72-.64A.14.14,0,0,0,22.88,23.93ZM7.19,10.84a22.07,22.07,0,0,1-.57-5.71c.14-1.74,1-1.41,1.86-.24A9.15,9.15,0,0,1,9.71,8.24a9.55,9.55,0,0,1-.79,5v0a11.85,11.85,0,0,0-.25-1.92c.06-.31.09-.63.13-.94.09-.6.19-1.19.31-1.79,0,0-.06-.06-.08,0a9.79,9.79,0,0,0-.5,2,7.15,7.15,0,0,1,0-3.16.09.09,0,0,0-.18-.05,6.42,6.42,0,0,0-.1,3.23,17.17,17.17,0,0,1,.33,3.82C8.2,13.24,7.41,12.07,7.19,10.84ZM21.62,24.66c-1.69.8-3.86-.24-5.37-1a9.48,9.48,0,0,1-3.12-2.17L13,21.34a20.46,20.46,0,0,1,2.64.89,17.78,17.78,0,0,0,4.95,1.27.05.05,0,0,0,0-.1,30.55,30.55,0,0,1-5.34-1.46A8.38,8.38,0,0,0,17,21.73s0-.09,0-.08c-.35,0-.71,0-1.06.05s-.79,0-1.18,0h0l-.55-.21a8.11,8.11,0,0,0-.78-.28,12.62,12.62,0,0,0,2.73-.13,6.58,6.58,0,0,1,4.31,1.47C21.3,23.13,23.2,23.91,21.62,24.66Z"/><path class="cls-1" d="M20.8,2.55a15.6,15.6,0,0,0-2.3,4.77,0,0,0,1,0,.08,0,38,38,0,0,1,2.27-4.78S20.82,2.52,20.8,2.55Z"/><path class="cls-1" d="M26.58,8.47c-1.36.66-2.68,1.42-4,2.2,0,0,0,.09,0,.07a29.39,29.39,0,0,0,4-2.2S26.62,8.45,26.58,8.47Z"/><path class="cls-1" d="M21.25,18c1.05-.32,2.08-.7,3.11-1.09a.05.05,0,0,0,0-.1c-1,.38-2.1.66-3.1,1.11C21.16,17.91,21.2,18,21.25,18Z"/><path class="cls-1" d="M19.7,22.83a10.93,10.93,0,0,0-2.64-.52s0,.08,0,.09c.88.16,1.75.35,2.62.55C19.76,23,19.77,22.84,19.7,22.83Z"/><path class="cls-1" d="M11.19,27.35a3.92,3.92,0,0,0,2.49-.49c.05,0,0-.09,0-.08a8.9,8.9,0,0,1-1.25.35c-.39.08-.8.08-1.2.13C11.14,27.26,11.14,27.34,11.19,27.35Z"/><path class="cls-1" d="M7.87,5.78s-.09,0-.09,0c0,1.25-.49,2.57-.27,3.82,0,.06.12.07.13,0A28.8,28.8,0,0,0,7.87,5.78Z"/><path class="cls-1" d="M2.65,12.36a22,22,0,0,0,1.48,3.15,0,0,0,0,0,.08,0c-.27-1.15-1.17-2-1.46-3.15A.05.05,0,0,0,2.65,12.36Z"/><path class="cls-1" d="M13.53,8.64a27.48,27.48,0,0,0-1.91,3.17s.06.1.1,0c.67-1,1.26-2.11,1.9-3.15C13.66,8.64,13.57,8.57,13.53,8.64Z"/></g></g></svg>