<svg xmlns="http://www.w3.org/2000/svg" viewBox="0 0 19.42 18.49"><defs><style>.cls-1{fill:#3e3a39;}</style></defs><g id="圖層_2" data-name="圖層 2"><g id="圖層_3" data-name="圖層 3"><path class="cls-1" d="M15.67,7.52a.51.51,0,0,1,0,1H14.25v.91h1.42a.51.51,0,0,1,.51.51.52.52,0,0,1-.51.51H13.74a.52.52,0,0,1-.51-.51V6.1a.51.51,0,0,1,.51-.51h1.93a.51.51,0,0,1,0,1H14.25v.91ZM12.55,10a.51.51,0,0,1-.35.48.44.44,0,0,1-.16,0,.52.52,0,0,1-.42-.2l-2-2.68V10a.51.51,0,0,1-1,0V6.1A.5.5,0,0,1,9,5.62a.45.45,0,0,1,.16,0,.54.54,0,0,1,.4.2l2,2.7V6.1a.51.51,0,0,1,1,0ZM7.9,10a.52.52,0,0,1-.51.51.51.51,0,0,1-.5-.51V6.1a.5.5,0,0,1,.5-.51.51.51,0,0,1,.51.51Zm-2,.51H4A.52.52,0,0,1,3.47,10V6.1a.51.51,0,1,1,1,0V9.45H5.91a.51.51,0,0,1,.51.51.52.52,0,0,1-.51.51M19.42,7.88C19.42,3.54,15.06,0,9.71,0S0,3.54,0,7.88C0,11.77,3.45,15,8.12,15.65c.31.07.74.21.85.48A1.83,1.83,0,0,1,9,17l-.13.83c0,.24-.19,1,.85.52a30.94,30.94,0,0,0,7.63-5.64,7,7,0,0,0,2.07-4.83"/></g></g></svg>