<?xml version="1.0" encoding="UTF-8"?>
<svg id="_圖層_2" data-name="圖層 2" xmlns="http://www.w3.org/2000/svg" xmlns:xlink="http://www.w3.org/1999/xlink" viewBox="0 0 115.86 115.86">
  <defs>
    <style>
      .cls-1 {
        fill: #33203f;
      }

      .cls-2 {
        fill: url(#_新增漸層色票_1);
      }
    </style>
    <linearGradient id="_新增漸層色票_1" data-name="新增漸層色票 1" x1="20.59" y1="102.62" x2="112.08" y2="-6.87" gradientTransform="translate(101 -11.76) rotate(76.72)" gradientUnits="userSpaceOnUse">
      <stop offset="0" stop-color="#f9d8c0"/>
      <stop offset="1" stop-color="#a38d7e"/>
    </linearGradient>
  </defs>
  <g id="_圖層_1-2" data-name="圖層 1">
    <g>
      <circle class="cls-2" cx="57.93" cy="57.93" r="57.93" transform="translate(-11.76 101) rotate(-76.72)"/>
      <g>
        <path class="cls-1" d="M46.66,91.13V25.4c0-3.29,2.96-4.35,4.11-4.35h-16.45c1.15,0,4.11,1.09,4.11,4.35V91.13c0,3.25-2.96,4.35-4.11,4.35h16.45c-1.15,0-4.11-1.06-4.11-4.35Z"/>
        <path class="cls-1" d="M62.87,21.06h-4.98c6.41,2.6,13.26,9.11,13.26,16.45s-6.85,13.85-13.26,16.45h4.98c9.09,0,16.45-7.37,16.45-16.45s-7.37-16.45-16.45-16.45Z"/>
        <path class="cls-1" d="M63.57,56.26h-5.69c7.64,3.1,15.36,10.85,15.36,19.6s-7.72,16.51-15.36,19.61h5.53c10.81-.02,19.57-8.79,19.57-19.61s-8.68-19.5-19.42-19.6Z"/>
        <g>
          <path class="cls-1" d="M97.51,21.36c0,.3-.05,.92-.05,1.94s.03,1.72,.03,2.8c0,1.19-.4,2.98-2.48,2.98-1,0-1.83-.65-2.24-1.61-.02-.03-.05-.03-.07,0-.34,1.29-1.16,2.36-2.7,2.36s-2.47-.84-3.05-2.13c-.37-.77-.48-1.73-.48-2.63,0-.77,.09-2.83,.07-3.94,.05-.1,.51-.12,.56-.02,.03,.29,.07,.82,.16,1.11,.11,.37,.25,.5,.88,.54,.55,.03,2.26,.05,3.97,.05,2.12,0,3.29,0,3.95-.02,.48-.02,.65-.18,.72-.47,.07-.25,.12-.67,.18-.99,.07-.07,.49-.07,.55,.02Zm-.74,3.1c-.02-.07-.19-.13-.28-.13-.55-.03-2.36-.05-3.56-.05-.04,0-.11,.05-.11,.08-.02,.2-.02,.64-.02,1.1,0,.75,.09,1.11,.19,1.31,.32,.52,.93,.77,1.62,.77,1.53,0,2.2-.94,2.2-2.5,0-.15-.02-.4-.05-.59Zm-7.17,3.75c1.64,0,2.54-1.1,2.54-3.03,0-.18,.02-.69-.02-.8-.02-.05-.05-.1-.09-.1-1.11,0-3.14,0-3.84,.05-.26,.02-.62,.2-.72,.4-.19,.3-.25,.9-.25,1.31,0,1.27,.74,2.18,2.38,2.18Z"/>
          <path class="cls-1" d="M93.51,30.77c0,.67,.14,1.96,.26,2.4-.49-.07-1.53-.12-3.45-.12-.99,0-1.52,.02-1.8,.08-.56,.13-1,.52-1,1.37,0,.45,.18,.94,.56,1.36,.09,.12,.21,.17,.39,.18,.23,.03,1.34,.03,3.79,0,.21,0,.44-.07,.51-.3,.07-.24,.12-.6,.19-1.07,.12-.03,.48,.02,.55,.08,0,.9,.12,2.33,.23,2.71-.3-.03-.81-.05-1.44-.05l-4.11-.02c-.39,0-.56,.08-.58,.32-.04,.25,0,.5,.02,.75-.11,.02-.49,0-.58-.08-.26-.62-.65-1.89-.7-2.21,0-.03,.09-.08,.16-.1,.18-.02,.71-.03,.97-.03,.05,0,.07-.07,.03-.1-.83-.96-1.11-1.69-1.11-2.21,0-1.66,1.2-2.01,2.38-2.01,.86-.02,2.71,.03,3.45,0,.28-.02,.49-.08,.58-.3,.05-.13,.11-.45,.16-.75,.12-.03,.48,.02,.55,.1Z"/>
          <path class="cls-1" d="M93.68,38.73c0,.3-.05,.99-.05,1.66,0,.74,.04,1.52,.05,1.78-.07,.08-.48,.1-.58,.05-.05-.25-.09-.52-.14-.64-.05-.15-.25-.15-.32-.13-1.09,.32-3.89,1.36-4.12,1.47,0,.02-.02,.07,0,.07,1.13,.5,3.08,1.24,3.95,1.36,.19,.03,.39,.02,.49-.28,.05-.17,.11-.44,.14-.74,.12-.05,.51-.02,.58,.05,0,.22-.05,.87-.05,1.49s.04,1.14,.05,1.62c-.09,.08-.46,.08-.58,.02-.04-.27-.07-.45-.14-.64-.11-.3-.37-.5-.83-.67-3.22-1.17-6.33-2.56-8.78-3.92-.37-.2-.72-.37-.99-.5l-.07-.13c.05-.24,.32-.75,.49-.94,.05-.02,.28-.02,.32,0,.69,.54,2.41,1.83,3.75,2.41l.32-.15c1-.37,2.91-1.07,4.19-1.57,1.16-.45,1.48-.65,1.62-1.16,.05-.17,.07-.3,.11-.57,.12-.03,.53,0,.58,.07Z"/>
          <path class="cls-1" d="M97.51,50.06c0,.35-.05,1.36-.05,2.21s.05,1.77,.05,2.19c-.07,.07-.46,.08-.55,0-.05-.39-.09-.69-.14-.89-.12-.4-.33-.47-.88-.49-.74-.05-2.15-.05-3.7-.05-1.71,0-3.38,.02-4,.05-.53,.02-.79,.1-.93,.6-.05,.24-.12,.6-.19,1.04-.05,.07-.51,.03-.56-.05,0-.39,.05-1.41,.05-2.26,0-.97-.05-1.93-.05-2.4,.05-.08,.51-.08,.56,0,.05,.39,.09,.64,.16,.87,.12,.5,.37,.57,.74,.6,.51,.07,2.06,.07,4.56,.07,1.46,0,2.56,0,3.38-.03,.46-.05,.71-.08,.79-.44,.09-.27,.14-.59,.21-1.06,.07-.07,.49-.05,.55,.02Z"/>
          <path class="cls-1" d="M92.7,57.37s-.07-.07-.09-.07c-.78-.02-2.2-.02-3.1,0-.74,0-1.09,.03-1.34,.1-.48,.13-.69,.59-.69,1.02,0,.47,.07,.7,.28,1.06-.05,.05-.53-.02-.6-.07-.55-.4-.78-1.12-.78-1.69,0-.69,.3-1.22,.86-1.51,.44-.23,.9-.25,2.03-.25,1,0,2.56,.02,3.26,.02,.05,0,.14-.03,.16-.1l.07-.94c.12-.02,.55,.08,.63,.17,.03,.25,.14,.65,.19,.79,.02,.03,.07,.08,.14,.08h1.53c.14,.25,.56,.9,.79,1.11,.04,.07,.04,.27,.02,.32-.3-.03-1.11-.08-2.34-.08-.05,0-.11,.03-.11,.08,0,.79,.04,1.83,.07,2.09-.25-.05-.74-.13-1.02-.17,.02-.39,.02-1.31,.02-1.96Z"/>
        </g>
      </g>
    </g>
  </g>
</svg>