<?xml version="1.0" encoding="UTF-8"?>
<svg xmlns="http://www.w3.org/2000/svg" xmlns:xlink="http://www.w3.org/1999/xlink" viewBox="0 0 388.22 457.21">
  <defs>
    <style>
      .cls-1 {
        fill: url(#_新增漸層色票_1-6);
      }

      .cls-2 {
        isolation: isolate;
      }

      .cls-3 {
        fill: url(#_新增漸層色票_1-2);
      }

      .cls-4 {
        fill: url(#_新增漸層色票_1-5);
      }

      .cls-5 {
        fill: url(#_新增漸層色票_1-3);
      }

      .cls-6 {
        fill: url(#_新增漸層色票_1-4);
      }

      .cls-7 {
        fill: url(#_新增漸層色票_1);
      }

      .cls-8 {
        mix-blend-mode: overlay;
      }

      .cls-9 {
        fill: url(#_新增漸層色票_1-7);
      }

      .cls-10 {
        fill: url(#_新增漸層色票_1-8);
      }
    </style>
    <linearGradient id="_新增漸層色票_1" data-name="新增漸層色票 1" x1="356.03" y1="-78.86" x2="-112.01" y2="392.19" gradientUnits="userSpaceOnUse">
      <stop offset="0" stop-color="#f9d8c0"/>
      <stop offset="1" stop-color="#a38d7e"/>
    </linearGradient>
    <linearGradient id="_新增漸層色票_1-2" data-name="新增漸層色票 1" x1="357.99" y1="-76.91" x2="-110.05" y2="394.14" xlink:href="#_新增漸層色票_1"/>
    <linearGradient id="_新增漸層色票_1-3" data-name="新增漸層色票 1" x1="478.65" y1="42.98" x2="10.6" y2="514.02" xlink:href="#_新增漸層色票_1"/>
    <linearGradient id="_新增漸層色票_1-4" data-name="新增漸層色票 1" x1="404.95" y1="-30.25" x2="-63.09" y2="440.8" xlink:href="#_新增漸層色票_1"/>
    <linearGradient id="_新增漸層色票_1-5" data-name="新增漸層色票 1" x1="431.9" y1="-3.47" x2="-36.14" y2="467.58" xlink:href="#_新增漸層色票_1"/>
    <linearGradient id="_新增漸層色票_1-6" data-name="新增漸層色票 1" x1="450.68" y1="15.19" x2="-17.37" y2="486.23" xlink:href="#_新增漸層色票_1"/>
    <linearGradient id="_新增漸層色票_1-7" data-name="新增漸層色票 1" x1="490.53" y1="54.78" x2="22.48" y2="525.83" xlink:href="#_新增漸層色票_1"/>
    <linearGradient id="_新增漸層色票_1-8" data-name="新增漸層色票 1" x1="503.23" y1="67.4" x2="35.18" y2="538.45" xlink:href="#_新增漸層色票_1"/>
  </defs>
  <g class="cls-2">
    <g id="_圖層_2" data-name="圖層 2">
      <g id="_圖層_1-2" data-name="圖層 1">
        <g class="cls-8">
          <path class="cls-7" d="M75.84,430.5V26.7C75.84,6.47,94,0,101.06,0H0C7.06,0,25.23,6.72,25.23,26.7V430.5c0,19.94-18.16,26.7-25.23,26.7H101.06c-7.06,0-25.23-6.51-25.23-26.7Z"/>
          <path class="cls-3" d="M175.42,0h-30.62c39.39,16,81.49,55.95,81.49,101.08s-42.11,85.08-81.49,101.08h30.62c55.83,0,101.08-45.26,101.08-101.08S231.24,0,175.42,0Z"/>
          <path class="cls-5" d="M179.73,216.3h-34.93c46.95,19.07,94.39,66.63,94.39,120.43s-47.44,101.41-94.39,120.48h33.97c66.44-.12,120.26-54.01,120.26-120.48s-53.31-119.79-119.3-120.43Z"/>
          <g>
            <path class="cls-6" d="M388.22,1.86c0,1.85-.33,5.66-.33,11.94s.21,10.6,.21,17.18c0,7.31-2.49,18.32-15.26,18.32-6.17,0-11.26-4.01-13.75-9.88-.11-.21-.33-.21-.43,0-2.06,7.92-7.15,14.51-16.57,14.51s-15.15-5.14-18.73-13.07c-2.27-4.73-2.92-10.6-2.92-16.16,0-4.73,.54-17.39,.43-24.18,.33-.62,3.14-.72,3.47-.11,.21,1.75,.43,5.04,.97,6.79,.65,2.27,1.51,3.09,5.41,3.29,3.36,.21,13.86,.31,24.36,.31,12.99,0,20.24,0,24.25-.11,2.92-.1,4.01-1.13,4.44-2.88,.43-1.54,.76-4.11,1.08-6.07,.43-.41,3.03-.41,3.36,.11Zm-4.55,19.04c-.11-.41-1.19-.82-1.73-.82-3.36-.21-14.51-.31-21.87-.31-.22,0-.65,.31-.65,.51-.11,1.23-.11,3.91-.11,6.79,0,4.63,.54,6.79,1.2,8.03,1.95,3.19,5.74,4.73,9.96,4.73,9.42,0,13.53-5.76,13.53-15.33,0-.93-.11-2.47-.33-3.6Zm-44.07,23.05c10.07,0,15.59-6.79,15.59-18.62,0-1.14,.11-4.22-.11-4.94-.11-.31-.33-.62-.54-.62-6.82,0-19.27,0-23.6,.31-1.63,.1-3.79,1.23-4.44,2.47-1.2,1.85-1.52,5.56-1.52,8.03,0,7.82,4.55,13.37,14.62,13.37Z"/>
            <path class="cls-4" d="M363.64,59.68c0,4.11,.87,12.04,1.63,14.72-3.03-.41-9.42-.72-21.22-.72-6.07,0-9.31,.1-11.05,.51-3.46,.82-6.17,3.19-6.17,8.44,0,2.78,1.08,5.76,3.47,8.34,.54,.72,1.3,1.02,2.38,1.13,1.41,.21,8.23,.21,23.28,0,1.3,0,2.71-.41,3.14-1.85,.43-1.44,.76-3.7,1.19-6.59,.76-.21,2.92,.1,3.36,.51,0,5.56,.76,14.3,1.41,16.67-1.84-.21-4.98-.31-8.88-.31l-25.23-.11c-2.38,0-3.47,.51-3.57,1.96-.22,1.54,0,3.09,.11,4.63-.65,.1-3.03,0-3.57-.51-1.62-3.81-4.01-11.63-4.33-13.59,0-.21,.54-.51,.97-.62,1.08-.11,4.33-.21,5.96-.21,.32,0,.43-.41,.21-.62-5.09-5.87-6.82-10.4-6.82-13.59,0-10.19,7.37-12.35,14.62-12.35,5.3-.1,16.67,.21,21.22,0,1.73-.1,3.03-.51,3.57-1.85,.33-.82,.65-2.78,.98-4.63,.76-.2,2.92,.11,3.36,.62Z"/>
            <path class="cls-1" d="M364.72,108.55c0,1.85-.33,6.07-.33,10.19,0,4.53,.22,9.37,.33,10.91-.43,.51-2.92,.62-3.57,.31-.33-1.54-.54-3.19-.87-3.91-.33-.93-1.51-.93-1.95-.82-6.72,1.95-23.93,8.33-25.34,9.05,0,.1-.11,.41,0,.41,6.93,3.08,18.95,7.62,24.26,8.33,1.19,.21,2.38,.11,3.03-1.75,.33-1.03,.65-2.67,.87-4.53,.76-.31,3.14-.1,3.57,.31,0,1.34-.33,5.35-.33,9.15s.22,7,.33,9.98c-.54,.51-2.81,.51-3.57,.11-.22-1.65-.44-2.78-.87-3.91-.65-1.85-2.27-3.09-5.09-4.12-19.81-7.2-38.86-15.75-53.92-24.08-2.27-1.24-4.44-2.27-6.06-3.09l-.43-.82c.32-1.44,1.95-4.63,3.03-5.76,.33-.1,1.73-.1,1.95,0,4.22,3.3,14.83,11.22,23.06,14.82l1.95-.92c6.17-2.27,17.86-6.59,25.76-9.67,7.15-2.78,9.09-4.01,9.96-7.1,.33-1.03,.43-1.85,.65-3.5,.76-.21,3.24,0,3.57,.41Z"/>
            <path class="cls-9" d="M388.22,178.2c0,2.17-.33,8.34-.33,13.59s.33,10.91,.33,13.48c-.43,.41-2.82,.51-3.36,0-.33-2.37-.54-4.22-.87-5.45-.76-2.47-2.05-2.88-5.41-2.99-4.54-.31-13.21-.31-22.73-.31-10.5,0-20.79,.1-24.57,.31-3.25,.11-4.88,.62-5.74,3.7-.33,1.44-.76,3.7-1.19,6.38-.33,.41-3.14,.21-3.47-.31,0-2.37,.33-8.64,.33-13.89,0-5.97-.33-11.83-.33-14.72,.33-.51,3.14-.51,3.47,0,.33,2.37,.54,3.91,.97,5.35,.76,3.09,2.28,3.5,4.55,3.7,3.14,.41,12.66,.41,28.04,.41,8.98,0,15.7,0,20.79-.21,2.81-.31,4.33-.51,4.87-2.67,.54-1.65,.86-3.6,1.3-6.49,.43-.41,3.03-.31,3.36,.1Z"/>
            <path class="cls-10" d="M358.66,223.07c0-.2-.43-.41-.54-.41-4.76-.11-13.53-.11-19.05,0-4.54,0-6.71,.21-8.23,.62-2.92,.82-4.22,3.6-4.22,6.28,0,2.88,.43,4.32,1.73,6.49-.33,.31-3.25-.11-3.68-.41-3.36-2.47-4.77-6.89-4.77-10.4,0-4.22,1.84-7.51,5.31-9.26,2.7-1.44,5.52-1.54,12.45-1.54,6.17,0,15.7,.11,20.03,.11,.33,0,.86-.21,.98-.62l.43-5.76c.76-.11,3.36,.51,3.9,1.03,.21,1.54,.86,4.01,1.19,4.83,.11,.21,.43,.51,.86,.51h9.42c.86,1.54,3.47,5.56,4.87,6.79,.22,.41,.22,1.64,.11,1.95-1.84-.21-6.82-.51-14.4-.51-.33,0-.65,.21-.65,.51,0,4.83,.22,11.22,.44,12.86-1.52-.31-4.55-.82-6.28-1.03,.11-2.37,.11-8.02,.11-12.04Z"/>
          </g>
        </g>
      </g>
    </g>
  </g>
</svg>