<?xml version="1.0" encoding="UTF-8"?>
<svg id="_圖層_2" data-name="圖層 2" xmlns="http://www.w3.org/2000/svg" xmlns:xlink="http://www.w3.org/1999/xlink" viewBox="0 0 129.57 129.57">
  <defs>
    <style>
      .cls-1 {
        fill: none;
        stroke: url(#_新增漸層色票_1);
        stroke-width: 3.78px;
      }
    </style>
    <linearGradient id="_新增漸層色票_1" data-name="新增漸層色票 1" x1="25.17" y1="1.08" x2="104.4" y2="102.49" gradientTransform="translate(0 13)" gradientUnits="userSpaceOnUse">
      <stop offset="0" stop-color="#f9d8c0"/>
      <stop offset="1" stop-color="#a38d7e"/>
    </linearGradient>
  </defs>
  <g id="_圖層_1-2" data-name="圖層 1">
    <g>
      <circle class="cls-1" cx="64.79" cy="64.79" r="48.59"/>
      <path class="cls-1" d="M19.99,45.95c-.36-.02-.72-.06-1.09-.06C8.46,45.89,0,54.35,0,64.79c0,6.28,3.08,11.83,7.8,15.27"/>
      <path class="cls-1" d="M16.61,70.85c-.34,.17-.68,.33-1.02,.52-9.04,5.22-12.13,16.77-6.92,25.81,3.14,5.44,8.58,8.71,14.39,9.33"/>
      <path class="cls-1" d="M26.11,94.11c-.21,.32-.43,.63-.63,.97-5.22,9.04-2.12,20.59,6.92,25.81,5.44,3.14,11.79,3.25,17.12,.88"/>
      <path class="cls-1" d="M45.95,109.58c-.02,.36-.06,.72-.06,1.09,0,10.44,8.46,18.9,18.9,18.9,6.28,0,11.83-3.08,15.27-7.8"/>
      <path class="cls-1" d="M70.85,112.96c.17,.34,.33,.68,.52,1.02,5.22,9.04,16.77,12.13,25.81,6.92,5.44-3.14,8.71-8.58,9.33-14.39"/>
      <path class="cls-1" d="M94.11,103.47c.32,.21,.63,.43,.97,.63,9.04,5.22,20.59,2.12,25.81-6.92,3.14-5.44,3.25-11.79,.88-17.12"/>
      <path class="cls-1" d="M109.58,83.63c.36,.02,.72,.06,1.09,.06,10.44,0,18.9-8.46,18.9-18.9,0-6.28-3.08-11.83-7.8-15.27"/>
      <path class="cls-1" d="M112.96,58.73c.34-.17,.68-.33,1.02-.52,9.04-5.22,12.13-16.77,6.92-25.81-3.14-5.44-8.58-8.71-14.39-9.33"/>
      <path class="cls-1" d="M103.47,35.47c.21-.32,.43-.63,.63-.97,5.22-9.04,2.12-20.59-6.92-25.81-5.44-3.14-11.79-3.25-17.12-.88"/>
      <path class="cls-1" d="M83.63,19.99c.02-.36,.06-.72,.06-1.09,0-10.44-8.46-18.9-18.9-18.9-6.28,0-11.83,3.08-15.27,7.8"/>
      <path class="cls-1" d="M58.73,16.61c-.17-.34-.33-.68-.52-1.02-5.22-9.04-16.77-12.13-25.81-6.92-5.44,3.14-8.71,8.58-9.33,14.39"/>
      <path class="cls-1" d="M35.47,26.11c-.32-.21-.63-.43-.97-.63-9.04-5.22-20.59-2.12-25.81,6.92-3.14,5.44-3.25,11.79-.88,17.12"/>
      <rect class="cls-1" x="35.09" y="53.99" width="16.2" height="32.39"/>
      <path class="cls-1" d="M51.29,59.39l12.15-8.1s5.7-3.43,7.63-13.73c.67-3.58,2.22-5.16,4.52-5.16,3.94,0,5.4,4.33,5.4,8.1,0,5.4-2.7,10.8-2.7,10.8h9.9c3.31,0,5.84,2.95,5.34,6.22l-3.74,24.29c-.41,2.63-2.67,4.58-5.34,4.58h-16.96c-8.1,0-16.2-5.4-16.2-5.4"/>
    </g>
  </g>
</svg>