<?xml version="1.0" encoding="UTF-8"?>
<svg id="_圖層_2" data-name="圖層 2" xmlns="http://www.w3.org/2000/svg" viewBox="0 0 24.63 17.44">
  <defs>
    <style>
      .cls-1 {
        fill: #f4d3b9;
      }
    </style>
  </defs>
  <g id="_圖層_1-2" data-name="圖層 1">
    <path class="cls-1" d="M0,9.92C0,9.07,0,8.22,0,7.37c.01-.08,.03-.15,.04-.23,.03-.86,.1-1.71,.21-2.56,.08-.65,.15-1.31,.32-1.94C.88,1.43,1.95,.58,3.26,.4,4.85,.18,6.45,.12,8.06,.07c3.28-.1,6.55-.09,9.83,.05,1.26,.05,2.51,.11,3.76,.33,1.24,.22,2.3,1.23,2.49,2.37,.12,.74,.23,1.49,.31,2.24,.31,3.1,.24,6.19-.26,9.27-.24,1.46-1.18,2.42-2.63,2.67-1.2,.21-2.42,.26-3.64,.32-2.19,.1-4.39,.14-6.59,.11-2.68-.03-5.37-.05-8.04-.39-1.44-.18-2.57-1.18-2.8-2.51-.19-1.12-.32-2.25-.41-3.39C.06,10.73,.07,10.32,0,9.92ZM9.88,4.99v7.46c2.14-1.24,4.26-2.47,6.41-3.72-2.15-1.25-4.27-2.49-6.41-3.74Z"/>
  </g>
</svg>