<?xml version="1.0" encoding="utf-8"?>
<!-- Generator: Adobe Illustrator 26.5.0, SVG Export Plug-In . SVG Version: 6.00 Build 0)  -->
<svg version="1.1" id="圖層_1" xmlns="http://www.w3.org/2000/svg" xmlns:xlink="http://www.w3.org/1999/xlink" x="0px" y="0px"
	 viewBox="0 0 14.7 14.9" style="enable-background:new 0 0 14.7 14.9;" xml:space="preserve">
<style type="text/css">
	.st0{fill:#B39354;stroke:#B39354;stroke-miterlimit:10;}
</style>
<g id="圖層_2_00000039095810690841394730000013758306645978849939_">
	<g id="圖層_1-2">
		<path class="st0" d="M7.8,1l0.8,2.1c0.6,1.5,1.7,2.6,3.2,3.2l2.1,0.8c0.2,0.1,0.3,0.3,0.3,0.5c0,0.1-0.1,0.2-0.3,0.3l-2.1,0.8
			c-1.5,0.6-2.6,1.7-3.2,3.2l-0.8,2.1c-0.1,0.2-0.3,0.3-0.5,0.3C7.1,14.1,7,14,7,13.9l-0.8-2.1C5.7,10.3,4.5,9.2,3,8.6L0.9,7.9
			C0.7,7.8,0.6,7.5,0.7,7.3c0-0.1,0.1-0.2,0.3-0.3L3,6.3c1.5-0.6,2.6-1.7,3.2-3.2L7,1c0.1-0.2,0.3-0.3,0.5-0.3
			C7.7,0.8,7.8,0.9,7.8,1"/>
	</g>
</g>
</svg>
