<svg xmlns="http://www.w3.org/2000/svg" viewBox="0 0 75.62 73.23"><defs><style>.cls-1{fill:none;stroke:#254179;stroke-miterlimit:10;stroke-width:0.5px;fill-rule:evenodd;}</style></defs><g id="圖層_2" data-name="圖層 2"><g id="圖層_1-2" data-name="圖層 1"><path class="cls-1" d="M75.23,54.16c-.5-1.29-2.6-2.09-5-1.79a6.46,6.46,0,0,0-1.9.4c-2.89.89-17.85,6-17.95,6.08l-.3.1.19.2c1.7,1.4,2.5,2.89,2.1,4.19-.49,1.79-2.89,2.9-7,3.19a49.58,49.58,0,0,1-13.18-1,11.42,11.42,0,0,1,1.8.1c3.79-.1,7.39-.1,10.07-.2,4.3-.4,6.39-1.3,6.69-3,.1-1-.51-1.89-2-2.59-1.61-.9-5-1.3-8.29-1.9a52.54,52.54,0,0,1-5.78-1c-5.18-1.3-10.47-2.7-16.56-2.2a28,28,0,0,0-2.89.4A129.68,129.68,0,0,0,1,58.45l-.61.1L7.62,68.92a26.22,26.22,0,0,1,3.89-.69,24.74,24.74,0,0,1,4.88.1c2,.39,6.88,1.39,11.67,2.29,4.89,1.09,9.57,2,11.36,2.19a10.19,10.19,0,0,0,3,.1c2.4-.2,4.89-1.49,7.28-2.69.7-.5,1.5-.8,2.1-1.2L73.14,57.46c2.39-1.4,2.39-2.59,2.09-3.3Z"/><path class="cls-1" d="M54.26,16.37v-14A1.59,1.59,0,0,0,52.72.74H46.31a1.58,1.58,0,0,0-1.53,1.67V7.72c-2.52-2.37-5-4.61-7.4-6.84C36.4,0,36,0,35,.88,26.91,8,18.81,15.12,10.73,22.37A16.63,16.63,0,0,0,9.05,23.9h4v2.65c0,7.4.13,14.65,0,22.05,0,1.11.27,1.4,1.39,1.4,4.32-.15,8.51-.15,12.84,0l6-.06c-2.21-1.83-3.8-3.25-5.27-4.71-4.34-4.26-4-8.16-4-8.16h0c0-.09,0-.17,0-.25a6.23,6.23,0,0,1,6.19-6.13,6.38,6.38,0,0,1,5.63,3.66h0a6.38,6.38,0,0,1,5.63-3.66,6.23,6.23,0,0,1,6.18,6.13v.25h0s.35,3.9-4,8.16c-1.45,1.45-3,2.85-5.2,4.66l4.79,0H55.79c1.12.15,1.54-.14,1.54-1v-25h5.3C59.84,21.26,57.05,18.74,54.26,16.37Z"/></g></g></svg>