<svg xmlns="http://www.w3.org/2000/svg" viewBox="0 0 63.25 77.5"><defs><style>.cls-1,.cls-2{fill:none;stroke-miterlimit:10;stroke-width:0.75px;}.cls-1{stroke:#254179;}.cls-2{stroke:#223f74;}</style></defs><g id="圖層_2" data-name="圖層 2"><g id="圖層_1-2" data-name="圖層 1"><path class="cls-1" d="M52.74,59.72a36.13,36.13,0,0,0-5.62-2.29l-.68-.37a31.31,31.31,0,0,1-5.71-3.77V49.45a19.23,19.23,0,0,0,9.14-13.72C52.6,35,55,32.4,55,30s-1.79-4-4.75-4.28V24.11h5.54V22.92c0-1.52-1.33-7.4-4.27-7.51A21,21,0,0,0,39.14,2.55V.38h-15V2.55A21,21,0,0,0,11.76,15.41c-2.94.11-4.26,6-4.26,7.51v1.19H13v1.65c-2.95.32-4.74,1.9-4.74,4.28s2.37,4.91,5.09,5.69a19.21,19.21,0,0,0,9.15,13.72v3.84a31.84,31.84,0,0,1-5.72,3.77l-.68.37a38,38,0,0,0-5.62,2.32C.61,64.84.38,71.67.38,72v5.16h62.5V72C62.88,71.68,62.73,64.8,52.74,59.72ZM39.14,5.12A18.56,18.56,0,0,1,49,15.41H39.14ZM26.48,2.75H36.77V15.41H26.48ZM24.11,5.12V15.41H14.29A18.53,18.53,0,0,1,24.11,5.12ZM10,21.74c.37-1.71,1.32-3.75,1.86-4H51.38c.54.21,1.5,2.25,1.86,4ZM18.57,58.8a37.29,37.29,0,0,0,5.1-3.35,12,12,0,0,0,8,3.47,12,12,0,0,0,8-3.47,38.9,38.9,0,0,0,5.1,3.35v9.62H18.57ZM53.38,74.35a.4.4,0,0,1-.39.4H10.26a.4.4,0,0,1-.39-.4V71.19a.4.4,0,0,1,.39-.4H53a.4.4,0,0,1,.39.4Z"/><line class="cls-2" x1="16.13" y1="57.43" x2="16.13" y2="70.79"/><line class="cls-2" x1="12.27" y1="58.9" x2="12.27" y2="70.79"/><line class="cls-2" x1="47.4" y1="57.43" x2="47.4" y2="70.79"/><line class="cls-2" x1="51.26" y1="58.9" x2="51.26" y2="70.79"/></g></g></svg>