<svg xmlns="http://www.w3.org/2000/svg" viewBox="0 0 71.82 74"><defs><style>.cls-1{fill:none;stroke:#254179;stroke-miterlimit:10;stroke-width:0.75px;}</style></defs><g id="圖層_2" data-name="圖層 2"><g id="圖層_1-2" data-name="圖層 1"><path class="cls-1" d="M37.09,54.38H34.73a7,7,0,0,1-6.95-7V41a.49.49,0,0,1,.49-.49H43.55A.49.49,0,0,1,44,41v6.47A7,7,0,0,1,37.09,54.38Z"/><path class="cls-1" d="M27.79,41.05a15.17,15.17,0,0,0-4.63-7.85,18.91,18.91,0,0,1-5.78-15.87A19.22,19.22,0,0,1,34.23.48a9.53,9.53,0,0,1,1.68-.1,8,8,0,0,1,.86,0c.25,0,.49,0,.76,0A19.23,19.23,0,0,1,54.44,17.33,18.88,18.88,0,0,1,48.66,33.2,15.2,15.2,0,0,0,44,41.05"/><line class="cls-1" x1="27.91" y1="44.07" x2="44.04" y2="44.07"/><line class="cls-1" x1="27.91" y1="46.08" x2="44.04" y2="46.08"/><line class="cls-1" x1="27.91" y1="48.53" x2="44.04" y2="48.53"/><line class="cls-1" x1="30.47" y1="27.43" x2="35.91" y2="40.47"/><line class="cls-1" x1="41.18" y1="27.43" x2="35.75" y2="40.47"/><path class="cls-1" d="M9.4,55.05s-2.22-4.44-3.65-5.63S5,46.56,7.58,47s6.18,5.08,7.93,7.22a5.92,5.92,0,0,0,3.73,2.3c6.43,1,8.32,1.41,11.83,7,4.53,7.14,1.11,10.47-3.65,10.15a12.37,12.37,0,0,1-7.3-2.69s-6.75-4.27-9.37-5.46S2.34,52.12,1,48.86.67,34,2.58,34.1s2.93,1.19,2.93,5.4a35.14,35.14,0,0,0,.4,6.19"/><path class="cls-1" d="M62.42,55.05s2.22-4.44,3.65-5.63.79-2.86-1.82-2.46S58.06,52,56.31,54.18a5.92,5.92,0,0,1-3.73,2.3c-6.43,1-8.31,1.41-11.83,7-4.53,7.14-1.11,10.47,3.65,10.15a12.37,12.37,0,0,0,7.3-2.69s6.75-4.27,9.37-5.46,8.41-13.33,9.76-16.59S71.15,34,69.25,34.1s-2.94,1.19-2.94,5.4a35.14,35.14,0,0,1-.4,6.19"/></g></g></svg>