<?xml version="1.0" encoding="UTF-8"?>
<svg id="_圖層_2" data-name="圖層 2" xmlns="http://www.w3.org/2000/svg" viewBox="0 0 67 37.87">
  <defs>
    <style>
      .cls-1 {
        fill: #0080be;
      }
    </style>
  </defs>
  <g id="_圖層_1-2" data-name="圖層 1">
    <path class="cls-1" d="M21.38,36.84c-3.3-3.1-6.55-6.26-9.95-9.26S4.47,21.88,.87,19.19c-.62-.47-1.23,.58-.61,1.04,3.58,2.68,7.14,5.4,10.49,8.36s6.53,6.06,9.78,9.1c.57,.53,1.42-.32,.85-.85h0Z"/>
    <path class="cls-1" d="M62.69,25.09c2-8,3.16-16.17,4.31-24.33,.11-.76-1.06-1.09-1.17-.32-1.15,8.16-2.3,16.33-4.31,24.33-.19,.75,.98,1.08,1.17,.32h0Z"/>
    <g>
      <path class="cls-1" d="M26.67,19.83l-3.23,.8-1.04-4.2-4.88,1.21,1.04,4.2-3.24,.8-2.66-10.75,3.24-.8,.98,3.95,4.88-1.21-.98-3.95,3.23-.8,2.66,10.75Z"/>
      <path class="cls-1" d="M39.69,10.89c.25,1,.25,1.98,0,2.94-.25,.96-.78,1.8-1.57,2.52s-1.85,1.25-3.16,1.57c-1.33,.33-2.52,.35-3.57,.06-1.05-.29-1.9-.8-2.56-1.53-.66-.73-1.1-1.58-1.34-2.54-.24-.97-.24-1.93,0-2.88,.24-.95,.75-1.8,1.55-2.54,.8-.74,1.86-1.28,3.19-1.61,.99-.25,1.91-.32,2.77-.21,.85,.1,1.59,.34,2.22,.72,.63,.38,1.15,.87,1.58,1.48,.42,.61,.73,1.28,.91,2.02Zm-3.3,.82c-.1-.4-.25-.76-.45-1.06s-.45-.55-.75-.74-.64-.3-1.02-.36c-.38-.05-.8-.02-1.25,.09-.87,.21-1.49,.64-1.86,1.27-.37,.63-.45,1.35-.25,2.18,.2,.82,.62,1.43,1.24,1.81,.62,.39,1.37,.47,2.23,.26,.59-.15,1.07-.39,1.43-.73,.36-.34,.6-.74,.71-1.21,.11-.47,.1-.97-.03-1.51Z"/>
      <path class="cls-1" d="M50.59,5.27l-3.94,.98,2.01,8.14-3.23,.8-2.01-8.14-3.94,.98-.65-2.61,11.11-2.75,.65,2.61Z"/>
      <path class="cls-1" d="M56.21,3.48c.1,.41,.17,.93,.21,1.57,.04,.64,.05,1.28,.02,1.91s-.07,1.09-.13,1.37c-.04,.16-.09,.27-.16,.35-.07,.08-.19,.14-.37,.18-.17,.04-.3,.05-.4,.01-.09-.04-.2-.11-.32-.24-.21-.24-.47-.63-.78-1.16-.31-.53-.6-1.08-.86-1.66-.27-.58-.45-1.08-.56-1.51-.2-.82-.17-1.46,.08-1.93,.26-.47,.59-.76,1.01-.86,.42-.1,.85,0,1.28,.29s.76,.86,.96,1.68Zm1.73,6.99c.12,.47,.05,.9-.18,1.3-.24,.4-.59,.66-1.05,.78-.28,.07-.58,.06-.88-.02s-.56-.23-.78-.46c-.22-.22-.37-.48-.44-.78-.07-.3-.07-.6,.02-.89,.09-.29,.24-.55,.47-.76,.22-.21,.48-.36,.78-.43,.29-.07,.58-.06,.88,.02,.3,.08,.55,.24,.76,.45,.21,.22,.35,.48,.42,.78Z"/>
    </g>
  </g>
</svg>