<svg xmlns="http://www.w3.org/2000/svg" viewBox="0 0 231.52 210.71"><defs><style>.cls-1{fill:#fff;}</style></defs><g id="圖層_2" data-name="圖層 2"><g id="圖層_1-2" data-name="圖層 1"><path class="cls-1" d="M231,96.23h0c0-.65,0-1.3,0-2h0c.32-2.22-.75-4.3-.7-6.51a1.9,1.9,0,0,0-.7-1.49.69.69,0,0,1,0-.25h0c.42-1.33-.57-2.45-.54-3.72a.25.25,0,0,0-.24-.06c.08-1-.79-1.76-.65-2.76l-.32,0c0-.1,0-.2.07-.29a1.72,1.72,0,0,0-.54-1.47h0a3.9,3.9,0,0,0-.84-2.57h0a.33.33,0,0,0,0-.24c.16-.93-.54-1.59-.79-2.4a.26.26,0,0,0-.05-.19L225,70.62a1.14,1.14,0,0,0-.5-1.2h0l-.12-1.06a1,1,0,0,1-.54-.83l-.27,0-.87-1.7a14.64,14.64,0,0,0-1.13-2.56l-.26,0c-.21-.46-.41-.92-.62-1.37a1,1,0,0,0-.25,0h0c0-.64-.64-.9-.81-1.44a8.87,8.87,0,0,0-2-2.83l-.31-.56c-.62-.82-1-1.85-1.93-2.41h0l-.22-.21h0a4.78,4.78,0,0,0-1.55-1.9l-.54-.37a.19.19,0,0,0,0-.24,3,3,0,0,0-1.41-1.72,1.43,1.43,0,0,0-.86-.81l-2.59-2.6a12.92,12.92,0,0,0-3.37-3.18l-2.28-2-.34-.53-1.94-1.22A26.79,26.79,0,0,0,196.53,37a13.45,13.45,0,0,0-3.15-2.29,1.84,1.84,0,0,0-1.13-.81,4.36,4.36,0,0,0-2-1.43h0a17.71,17.71,0,0,0-2.34-1.67h-.53l-.24-.11-.6-.51-.83-.31a.22.22,0,0,0-.08-.2h0c-.45-.48-.88-1-1.63-.93h0c-.49-.71-1.44-.56-2-1.08l-.32-.26,0-.32c-.51-.12-.82-.7-1.42-.59-.23-.26-.42-.6-.85-.57h0l-2.49-1.43h0a2,2,0,0,1-.1-.21c-.35.05-.61-.17-.91-.3-1.24-.53-2.26-1.49-3.62-1.75-.43-.08-.65-.62-1.15-.55l-.76-.07c-.31-1-1.33-1-2.09-1.37a.19.19,0,0,0-.22-.07c-.05-.15-.1-.3-.14-.45l-4.22-2.27a.47.47,0,0,0-.13-.12,3.7,3.7,0,0,0-2.67-1.36l-1.11-.6h0c-.31-.61-1.09-.59-1.48-1.09h0c-.44-.79-1.51-.69-2-1.42a48.41,48.41,0,0,0-4.77-2.28c-.91-.33-1.76-1.46-2.93-.6h0a2.88,2.88,0,0,1-.42,0c-.15,0-.21-.11-.1-.29.54-.85-.13-.82-.65-.81a1.47,1.47,0,0,0-1.1.54h0a.57.57,0,0,1-.26,0c-.06-.42.54-.93-.09-1.25a1.28,1.28,0,0,0-1.63.43c-.85.31-.61-1-.94-.81-1.4.61-2.34-.85-3.61-.65-1.25-.65-2.67-.68-4-1.12h0c-1-.17-1.81-.91-2.86-.83l-.49,0h0a1,1,0,0,1-.13-.22c-.92-.27-1.79-.85-2.81-.52a2.08,2.08,0,0,0-1.91-.73h0c-1-.25-1.84-.95-2.93-.75h0a.29.29,0,0,0-.24,0,2.34,2.34,0,0,0-1.74-.57h0c-1.27-.12-2.38-1.07-3.74-.76h0A8,8,0,0,0,115,.54c-.57,0-1.27.21-1.62-.54H88.57L88,.55a12,12,0,0,0-4.06.82l-1.34.06a3.89,3.89,0,0,0-2,.29,2.34,2.34,0,0,0,0,.26h0l-.23,0a.36.36,0,0,0-.17-.15c-.84,0-1.73-.22-2.41.51l-.62.44a5.9,5.9,0,0,0-2.57.86l-.54,0-2.88.84A2.37,2.37,0,0,0,70,5.09h0a.28.28,0,0,0-.23,0c-1-.21-1.69.67-2.6.8,0,0,.08.07.12.11h0l-.07-.12-1.06.35a.94.94,0,0,1-.1.23h0l-.29.28a.57.57,0,0,0-.22.07l-.3,0c-.54,0-1,.34-1.43.51l-2,.88a21.88,21.88,0,0,0-4.32,2.18h0a3.41,3.41,0,0,0-1.41.67h0l-1.44.84h0L51.31,13.7a.52.52,0,0,1-.05.24C50,14.66,48.51,15,47.8,16.45h-.17c-1.44.24-2.35,1.35-3.47,2.1l-.55.29c-.77.65-1.54,1.3-2.32,1.94a20.29,20.29,0,0,0-2.86,2.28l-.49.36-.95,1a6.57,6.57,0,0,0-1.72,2h0l-.49.4-1.39,1.4a.22.22,0,0,0-.09.17.31.31,0,0,0-.26.05C31.85,30,30.4,31.25,29.54,33a1.51,1.51,0,0,0-.79.84,4.41,4.41,0,0,0-1.43,2h0a.36.36,0,0,1-.21,0c-.21.47-.68.8-.73,1.35a14.37,14.37,0,0,0-1.91,3.17c-.27.48-.79.82-.84,1.43a8.29,8.29,0,0,0-1.4,2.29h0a4.73,4.73,0,0,0-1.2,2c-.37.17-.42.53-.53.85a11.61,11.61,0,0,0-2,3.39h0a9,9,0,0,0-1.43,2.31l-.84,1.41-.23.1a.23.23,0,0,1-.05.22c-.14.49-.71.81-.54,1.42l-.32.53c-.59.29-.46,1-.88,1.43h0c-.27.59-.53,1.17-.8,1.75s-.56,1.33-.83,2c-.48,1.05-1,2.09-1.42,3.14a.37.37,0,0,0-.05.25c-.26.58-.53,1.16-.8,1.74l-.06.52a2.5,2.5,0,0,0-.6,1.15h0c0,.93-.94,1.56-.83,2.53h0a14.28,14.28,0,0,0-1.42,3.43h0a1.45,1.45,0,0,1-.22.09l-2,6.23c0,.16,0,.33-.07.5L4.5,82.53h0c-.41.51-.22,1.12-.25,1.7a1.17,1.17,0,0,0-.58,1.12h0l-.22.12c.24.93-.72,1.6-.56,2.52h0L1.45,92.55v.57l-.07.53C1,95.07.31,96.42.61,98l.22,0,.07-.06V98h0l-.07,0v0a.56.56,0,0,0-.23,0l-.06,1.7A3.84,3.84,0,0,0,0,102c0,3.31,0,6.63,0,9.94.44.26.13.87.53,1.15h0a24.72,24.72,0,0,0,.83,7.8L1.44,123c.26,1.7.51,3.39.78,5.08a2.44,2.44,0,0,0,.6,1.25c0,.46.05.91.07,1.36h0c-.24,1.21.92,2.18.58,3.41l1,3.18h0c.49,1.51,1,3,1.45,4.53H6l.63,2h0c.49.58.43,1.38.8,2h0c.55.81.7,1.84,1.4,2.57a5.37,5.37,0,0,0,1.43,2.88.37.37,0,0,0,0,.23c-.15.71.44,1,.78,1.47h0c0,.57.61.82.67,1.35s.48,1,.81,1.46h0a3,3,0,0,1,.81,1.16c.77,1.15,1.54,2.3,2.3,3.45h0l.26.27a15.55,15.55,0,0,0,1.82,2.79h0l2.15,2.6h0l1.22,1.68c0,.66.64.89.85,1.41l.32,0h0l2.25,2.31,1.35,1.47h0c.84.44,1.06,1.68,2.22,1.71h0c-.22.39,0,.56.3.78,1.37,1.14,2.72,2.31,4.08,3.47.09.31.35.24.57.28,1.53,1.76,3.62,2.84,5.39,4.31l.63.48h0c.22.19,0,.88.69.53.14-.13.13-.05.09,0,.14.65.75.67,1.23.86.26.12.46.42.81.32.26.29.43.71.94.67l.48.19c.14.38.35.62.78.35a.37.37,0,0,0,.09.2c.29.39.55.83,1.14.82h0l.31.24.29,0h0c1.24,1.16,2.87,1.71,4.23,2.67l2.78,1.45c.73.18,1.24.9,2.06.86h0a1.7,1.7,0,0,1,0,.22c1.74.59,3.21,1.82,5.07,2.09a1.15,1.15,0,0,0,.85.57h0c.79.19,1.37,1,2.3.8h0a1.19,1.19,0,0,0,.05.26l1.15.48h0c1.74.35,3.24,1.42,5,1.6l.31.26c.35.59.9.58,1.47.48a2.09,2.09,0,0,0,2,.9,3.13,3.13,0,0,0,1.66.65,1,1,0,0,1,.08-.14h0a.64.64,0,0,0-.08.14,2.5,2.5,0,0,0,1.7.8h0c.37.72,1.22.44,1.75.84h0a13.92,13.92,0,0,0,4.58,2l.55.31a5.93,5.93,0,0,0,2.7,1l.17,0L88,207l.31.27c.84,0,1.49.66,2.33.71a.38.38,0,0,0,.27-.14l.45,0h0c.06.07.1.14.15.21l1.34.36h0c1.07.17,2,.8,3.16.8l.81,0h0a27,27,0,0,0,8.87,1.35h14.8a6.71,6.71,0,0,0,3.75-.49h0l1.93-.06h1.7c1.67.26,3.17-.87,4.84-.56,1.44.24,2.7-.42,4-.81h0a18.7,18.7,0,0,0,3.46-.81.34.34,0,0,0,.24-.06c1.31.29,2.43-.51,3.68-.6h0a8.7,8.7,0,0,0,5.17-.78h0l1.38-.06a7.49,7.49,0,0,0,1.26-.07,34.91,34.91,0,0,0,5.61-1.42c1.12-.47,2.62,0,3.39-1.35.39-.1.83,0,1.18-.27h0c.74.1,1.21-.69,1.95-.59.93.15,1.59-.54,2.4-.76a.42.42,0,0,0,.22,0l2-.86a.83.83,0,0,0,.21-.06l1.78-.5h0l1.95-.9h0l1.14-.59,2-.83c.47-.48,1.15-.54,1.71-.84h0l.92-.54h0c.71,0,1.07-.69,1.7-.86h0l1.36-.64h0a19.91,19.91,0,0,0,3.46-2.21c0-.06-.1-.08-.15-.12h0l.13.12,1.32-.91h0c.38-.73,1.28-.82,1.77-1.43h0c.54-.26,1.2-.37,1.46-1h0a10.27,10.27,0,0,0,2.27-2c1.83-1.61,3.81-3.07,5.12-5.19h0a2.43,2.43,0,0,0,.91-1.12h0c.15,0,.28-.11.21-.31l.63-.84a13.46,13.46,0,0,0,3.19-3.11,2.72,2.72,0,0,0,1.62-1.69h0a16.79,16.79,0,0,0,4.51-4.91l.33-.55,1.1-1.2a.63.63,0,0,0,.27,0c.09-.43.67-.61.57-1.13l.25-.48h.06a6.21,6.21,0,0,0,2-1.89.68.68,0,0,0-.07-.2l.12-.28c.68-.62,1.52-1.15,1.26-2.28.09-.41.71-.38.72-.86,1.09-1,1.3-2.47,2-3.69h0l.25-.35c.45-.2.54-.63.65-1l.28-.28a1.49,1.49,0,0,0,.79-1.47h0c.71-.71.55-1.8,1.11-2.57,0-.17,0-.34.08-.51,1.64-2.12,2.15-4.73,3.11-7.15a11.69,11.69,0,0,0,1.66-5.45A3,3,0,0,0,225,137l.13,0,.13,0a2,2,0,0,0,.32-.51,15.32,15.32,0,0,0,1.67-4.35l.15-1.38h-.16l0-.08.13.07c.62,0,.78.33.77.89,0,.93,0,1.87,0,2.8a20.21,20.21,0,0,0-.43,4.78c0,.89.35,1.1,1,.33-.32-1.31.74-2.4.6-3.68h0c.58-3.52.08-7,0-10.54a12.56,12.56,0,0,1,.86-3.41.9.9,0,0,0,.14-.59,10.55,10.55,0,0,0,.69-4.28c0-.27,0-.55,0-.82h0l.55-.58V96.53Zm-5.73-23.62Zm5.7,28h0s0,0,0,0Zm-4.62-23.35Zm3.49,17h0ZM182.48,28.8l1.44.86a6.34,6.34,0,0,0,1.73,1,1.14,1.14,0,0,0,.1.19c.18.22.38.36.67.21h0c-.08.83.54.93,1.11,1.08a1.53,1.53,0,0,0,.48,0,8,8,0,0,0,1.91,1.19l4,2.8,2,1.43,4,3.12a6.88,6.88,0,0,0,1.94,1.49l2.3,1.94,2.6,2.52a20.49,20.49,0,0,0,3.38,3.46l1,.91h0a12.58,12.58,0,0,0,2.35,2.59h0a2.78,2.78,0,0,0,.85,1.13h0a5.81,5.81,0,0,0,1.32,1.68l1,1.4.84,1.19h0l2,3.11h0c.07.6.6.91.86,1.4,0,.49.41.73.59,1.1-.08.76.45,1.21.84,1.72l.84,1.72c0,.41.34.59.55.86-.15.94.57,1.54.87,2.3a.28.28,0,0,0,0,.24l.86,2.58h0l.51,1.2h0c-.1.74.47,1.26.65,1.91a3.6,3.6,0,0,0,.78,2.62.41.41,0,0,0,0,.24c-.16,1.33.76,2.44.79,3.73h0c0,.82.51,1.47.64,2.25-.23,1.29.38,2.44.6,3.66h0a13.59,13.59,0,0,0,.48,5.24c-.05.32-.05.65-.1,1,0,1,0,2,0,3a105.14,105.14,0,0,1,0,15.06,8.2,8.2,0,0,0,.19,3.52.29.29,0,0,0,.11.11s0,0,0,.07c-.9.4-.86,1.12-.61,1.91a.31.31,0,0,0,.14.09h0l-.06.8v0l-.08-.05c-.39.1-.44.44-.52.75a.9.9,0,0,1-.06.31c-.56.1-.44-.52-.47-1-.07-1.39.08-2.82-.82-4,0-2.37-.74-4.66-.82-7s-.77-4.63-.88-7c-.46-2.36-.46-4.82-1.39-7.1a.65.65,0,0,0-.16.17v-.08l.17-.09a3.71,3.71,0,0,0-.65-2.23,6.91,6.91,0,0,0-.84-3.42c.15-.76-.65-1.23-.61-2h0c.39-1-.54-1.68-.54-2.58a1.27,1.27,0,0,0-.28,0c-.07-.12-.15-.23-.22-.34h0l-.48-1a.78.78,0,0,0,.05-.34,5.59,5.59,0,0,0-1.38-3.19.48.48,0,0,1-.21-.07h0a.27.27,0,0,0,0-.23c0-.68-.56-1.12-.84-1.67h0c-.32-.67-1-1.2-.84-2L217,75.22h0c0-.51.07-1-.59-1.14h0l-1.92-3.75h0a1.68,1.68,0,0,0-.59-1.14c.16-.68-.58-1-.59-1.66,0-.12-.08-.17-.2-.16h0a4.25,4.25,0,0,0-1.27-2.71.34.34,0,0,1-.2,0,16.15,16.15,0,0,0-2.22-4.08.22.22,0,0,0-.1-.14h0a14.72,14.72,0,0,0-2.19-3.52l-2.35-3.34-.29-.55L202,50h0a4.19,4.19,0,0,0-1.5-1.88l-.3-.31c-.1-.28-.21-.56-.32-.85l-1.62-1.76-1.41-1.45-2.29-2.26-.32-.49-1.1-.94-2.25-2.29-2.94-3.06h0c-.28-.41-.52-.86-1.12-.87l-1.09-.9a.9.9,0,0,0-.08-.21c.11-.3-.21-.38-.29-.58-.67-.22-.89-1-1.61-1.19a9.11,9.11,0,0,0-2.6-2c0-.37.24-.51.58-.52Zm37,118.61a.75.75,0,0,0-.56.82l.08.12h0v0a.31.31,0,0,0-.11-.08c-.59.27-.7.88-1,1.38a5.07,5.07,0,0,0-.13.56,1.3,1.3,0,0,0-.45,1h0l-.84,1.13a.23.23,0,0,0,0,.26c-.12.21-.23.42-.35.62h0c-1.11.88-1.45,2.3-2.33,3.34h0c-.57.68-1.14,1.36-1.72,2a1.88,1.88,0,0,0-.88,1.06c-.51-.48.19-.91.06-1.37h0l0-.54.19-.06a1,1,0,0,0,.2-.35,3.44,3.44,0,0,0,.71-1.91l-.23.05,0,0s0,0,0,0l0,0a.06.06,0,0,1,0,0,.29.29,0,0,0,.24,0,15.65,15.65,0,0,1,1.18-3.64h0l.84-2.6a.41.41,0,0,0,0-.22h0a7.37,7.37,0,0,0,.54-1.86c.67-2.11,1.18-4.27,1.74-6.42a.28.28,0,0,0,.05-.21c.25-1.08.49-2.17.74-3.26h0a10.5,10.5,0,0,1,.23-2,33.66,33.66,0,0,0,1.21-7.72c0-.57,0-1.14,0-1.71.16-2.16.35-4.31.47-6.47a56.85,56.85,0,0,0-.45-10.67c0-1.88,0-3.76-.05-5.64-.25-1.9-.51-3.8-.76-5.7a.41.41,0,0,0-.05-.34c-.65-2-.65-4.21-1.45-6.2h0a12.92,12.92,0,0,0-1.39-4.33h0c.1-1.13-.62-2-.87-3.08h0c-.68-1.79-1.35-3.58-2-5.38h0c.05-.33,0-.7.35-.91h0a.54.54,0,0,0,.21.08h0l.26.27a5.11,5.11,0,0,0,1.17,2.26h0c.1,1.06.89,1.82,1.18,2.8.29.26-.09.82.44,1l.11-.06c.15.34.29.67.44,1a.77.77,0,0,0-.07.26,1,1,0,0,0,.35.66.93.93,0,0,1,.2.08l.06.23.42,1h0l.58,1.07a1.18,1.18,0,0,0,.56,1.2h0a2.17,2.17,0,0,0,.31,1.32,9.23,9.23,0,0,1,1.18,3.11h0c-.23,1,.56,1.74.83,2.61h0l.51.64c.59,2.25,1.17,4.51,1.76,6.76.25,1.45.51,2.91.77,4.36a.25.25,0,0,0,0,.26c-.12,1.16.56,2.19.56,3.33,0,4.49.45,9,.28,13.46-.08,2.07-.15,4.15-.22,6.22h0v.06s0,0,0,0a3.24,3.24,0,0,0,0,1.12,22.13,22.13,0,0,0-.56,3.88.28.28,0,0,0,0,.23.83.83,0,0,0-.09.49c-.07.32-.13.64-.19,1-.71.41-.55,1.1-.56,1.73a.1.1,0,0,0,0,.16c-.33.36-.68.71-.57,1.26h0l-.79,1.72a.24.24,0,0,0-.06.24,25,25,0,0,0-2,4l-.23.53Zm-15.13,19.86a.86.86,0,0,0-.22.58c-.75.37-1.61.64-1.7,1.64-.69.18-1.35.39-1.39,1.29a2.94,2.94,0,0,0-2.1,1.79,1.38,1.38,0,0,0-1.32,1.14c-.25-.07-.36.08-.45.28,0,0,0,0,0,0a8.29,8.29,0,0,0-1,.71,1.77,1.77,0,0,1-.38.15c-.44.24-1,.34-1,1a.51.51,0,0,0-.6,0c-.92.62-2,1-2.59,2.08a.5.5,0,0,0,0,.22l-.24.21-.15,0a2.87,2.87,0,0,0-2.45,1.78s0-.06-.07-.08c-.61-.23-1,.16-1.47.48a21.4,21.4,0,0,1-2.67,1.63c-.43.23-.87.45-.93,1a1.05,1.05,0,0,0-.24-.06,7.67,7.67,0,0,0-2.67,1.16c-.61.46-1.49.49-1.95,1.21a.36.36,0,0,0,.08.15,2.25,2.25,0,0,0-2.25,1.24.48.48,0,0,1-.17,0,4.49,4.49,0,0,0-3,1.21.48.48,0,0,0-.09.37h0a3.68,3.68,0,0,0-3.37,1.3.4.4,0,0,0,0,.15c-.68-.16-1.16.36-1.74.55l-.39.06h0a1,1,0,0,0-.35.19v0c-.76-.38-1.2.28-1.75.55l-.21,0a.15.15,0,0,0,0-.08,1.89,1.89,0,0,0-1.81.54c-.37,0-.74.08-1.12.1a7,7,0,0,1-2.18.47c-.3.14-.62.26-.55.68h0c-1.07-.81-1.7.42-2.57.53l0,.08c-1.11-.27-2,.72-3.08.57h-.49a1,1,0,0,0-.11.23l-.34,0-.13-.07a.39.39,0,0,0-.35.07l0,0a.84.84,0,0,0-.12-.19.77.77,0,0,0-.4-.12c-3.31.54-6.66.7-10,1-.36,0-.81.09-.84.6h-6a5.45,5.45,0,0,0-1.07-.06c-1.91,0-3.82,0-5.73,0-.14-.14-.59-.3,0-.38a28.82,28.82,0,0,1,3.09-.11h0c1.11-.66,2.4-.44,3.58-.74a.34.34,0,0,0,.21-.06l5.64-1.17.61-.25h.12l.13,0h0c1.25.17,2.25-.72,3.43-.83h0a2.14,2.14,0,0,0,1.44-.57h0l.53,0a1.36,1.36,0,0,0,1.5-.51,2.08,2.08,0,0,0,1.12-.29h0c.57.06.92-.38,1.37-.59,1.09.17,1.94-.45,2.86-.85l0,0a31.49,31.49,0,0,0,5.44-2.25c.26,0,.48,0,.59-.29l.53-.28c.54,0,1.18.15,1.32-.67h0l.67-.2,2-.85.84-.56a5.26,5.26,0,0,0,2.59-1.37,3.12,3.12,0,0,0,1.71-.89l.28-.28a12.54,12.54,0,0,0,4-2.57c.69.1,1-.47,1.45-.83h0a5.13,5.13,0,0,0,2-1.45h0l.28-.23h0a15,15,0,0,0,2.57-2,12.65,12.65,0,0,0,2.26-2h0a4.09,4.09,0,0,0,2-2h0a4.46,4.46,0,0,0,2.18-2l.32-.29a4.14,4.14,0,0,0,1.48-1.37,11.2,11.2,0,0,0,2.52-3.16,7.92,7.92,0,0,0,2-2.32c.75-.44,1-1.29,1.45-1.92.32-.36.87-.55.83-1.17l.57-.86c.84-.4.92-1.35,1.44-2,.77-1.22,1.53-2.44,2.3-3.65h0a8.6,8.6,0,0,0,1.42-2.61h0l1.42-2.55.81-1.46c.5-1,1-2.08,1.48-3.12h0c-.17-.84,1.06-1,.88-1.89h0l1.4-3.14h0c.21-.81.89-1.45.83-2.36h0l.56-1.41h0c.18-1,.89-1.79.92-2.82h0c.81-1.34.94-2.92,1.42-4.37a7.38,7.38,0,0,0,.77-3.08c0-.26.05-.51.08-.77h0a6.61,6.61,0,0,0,.81-3.45h0a4.74,4.74,0,0,0,.57-3.17.62.62,0,0,0,0-.27,43.36,43.36,0,0,0,0-17.21h0c0-.25,0-.5,0-.76a17.18,17.18,0,0,0-1.39-5.76,4.7,4.7,0,0,0-.61-2.49.71.71,0,0,1-.15-.37l.15.37a4,4,0,0,0-.81-2.86h0c-.09-.29-.18-.58-.28-.86h0l-.6-1.43a.43.43,0,0,0,0-.25l-.79-2.34a.9.9,0,0,0-.1.12h0a1.27,1.27,0,0,0,.1-.12l-.59-1.14h0c0-.8-.61-1.31-.83-2a1.69,1.69,0,0,0-.6-1.14h0a2.66,2.66,0,0,0-.84-2c.1-.34-.08-.6-.23-.9-.9-1.77-1.78-3.56-2.66-5.34h0c0-.7-.71-1.07-.84-1.71-.48-.82-.56-1.93-1.67-2.28h0a2.61,2.61,0,0,0-.83-1.75l-.33-.52a2,2,0,0,0-.89-1.64h0l-.57-.92h0a1.15,1.15,0,0,0-.87-1.11h0a.46.46,0,0,0-.19-.08,4.18,4.18,0,0,0-1.48-2.53l-.51-.59h0a4.57,4.57,0,0,0-1.43-2h0a5.57,5.57,0,0,0-1.78-2.19h0a11.47,11.47,0,0,0-2.79-2.94.29.29,0,0,0-.06-.21,5.06,5.06,0,0,0-1.9-2.07h0c-.4-.82-1.2-1.26-1.81-1.88h0c-.64-.59-1-1.48-2-1.71l-1.15-1.17a1.57,1.57,0,0,0-.84-.84L178.3,39l0,.09h0l.05-.09c-.6-1.16-1.75-1.63-2.79-2.25h0A2.41,2.41,0,0,0,174,35.58h0a30.28,30.28,0,0,0-4.29-2.83h0a3.37,3.37,0,0,0-1.4-.88l-1.06-.59h0a14.38,14.38,0,0,0-3.49-1.73L162.9,29h0l-1.71-.83-1.92-.61-.29-.27-1.17-.58c-1.53-.52-2.87-1.53-4.52-1.71a7.12,7.12,0,0,0-3.43-1.47h0l-.62-.21c-.39-.69-1.09-.51-1.69-.59h0a1.92,1.92,0,0,0-1.4-.61c-.72-.15-1.27-.76-2.05-.75l-1.72-.3-.31-.28c-.35-.48-.91-.24-1.36-.38h0c-.43-.44-.87-.82-1.49-.27l-.51-.25a3.17,3.17,0,0,0-2.3-.8c-.86-.16-1.59-.91-2.56-.57a8,8,0,0,0-3.7-.89.26.26,0,0,0-.24,0,3.38,3.38,0,0,0-2-.57h0a.18.18,0,0,0-.21,0l-1.21-.26h0a2.53,2.53,0,0,0-1.76-.82c-3.51.12-7-.46-10.46-.59s-6.76.89-10.18.57a5.61,5.61,0,0,0-3.24.82c-.67.14-1.38-.08-2,.25,0,.06.1.08.14.13h-.07L98.78,17a4.74,4.74,0,0,0-2.32.59h0l-1,.06c-1.46-.22-2.7.68-4.09.8h0l-4.21.88h0l-1.77.53h0l-.47.05-3.15.82h0l-2.26.64c-.82-.13-1.34.57-2.06.74h0c-1.13,0-2,.7-3.08.93h0l-1.16.55h0a15,15,0,0,0-4,1.45c-.88-.13-1.52.52-2.18.86-1,.51-2.33.53-3,1.69a4.73,4.73,0,0,0-2.57,1.11,5.11,5.11,0,0,0-2.85,1.45h0c-.75-.05-1.15.61-1.75.84h0l-1.42.85h0l-2.24,1.42-1.45.86h0a18.38,18.38,0,0,0-2.81,2,11.16,11.16,0,0,0-3.1,2.31h0A22.61,22.61,0,0,0,43,40.69a6.58,6.58,0,0,0-1.69,1.72c-.43.1-.6.48-.86.76a2.39,2.39,0,0,0-1.1,1l-.3.26a4.59,4.59,0,0,0-1.36,1.48.42.42,0,0,0-.08.22,7.25,7.25,0,0,0-2,2c-1.48,1.32-2.44,3.07-3.71,4.56l-2.83,4.28a20.23,20.23,0,0,0-2,3.15c-.11.28-.23.55-.35.83s-.19.54-.29.82a.82.82,0,0,0-.52.63c-.26.67-.91,1.18-.87,2h0c-.51.89-1.32,1.65-1.2,2.8l-.24.29-.22.13c0,.6-.79.94-.58,1.63h0c-.2.56-.76,1-.62,1.67L21.6,72h0c-.29.67-.59,1.33-.88,2s-.51,1.35-.77,2c-.12.37-.25.73-.37,1.1a1.51,1.51,0,0,0-.51,1.45c-.75,1-.88,2.3-1.39,3.43a.36.36,0,0,0,0,.27l-.06.41c-.79-1-.06-2,.18-2.94a4.41,4.41,0,0,0,.4-2.29,1.4,1.4,0,0,0-.1-.16,5.68,5.68,0,0,0,1.07-3.87l0-.48h0a.35.35,0,0,1,.31.07c.54-.18.69-.65.81-1.14,0,0,0-.09,0-.14a2,2,0,0,0,.55-2.2l.07,0A3.38,3.38,0,0,0,22,67.08c0-.17,0-.35.05-.52a1,1,0,0,0,.13-.65l.06-.12c0-.19,0-.38,0-.56l.21-.07h0c.78-.2.69-.79.63-1.37h0c-.06-.5.41-.75.54-1.17l.87-2a.17.17,0,0,0,0-.2.65.65,0,0,1,.22-.11c.16-.67.76-1.21.63-2h0a14.46,14.46,0,0,0,2-3.62h0a23.64,23.64,0,0,0,1.89-3.5l0-.29.27-.34h.29c.11-.26.21-.52.31-.79A3.64,3.64,0,0,0,31,48.41h0l.15-.29.22-.53c1.11-1,1.61-2.34,2.51-3.44a14.45,14.45,0,0,0,2-2.86h0l.27-.3c1.07-.57,1.47-1.75,2.32-2.52l.51-.39,1.77-1.9h0l2.56-2.28,1.73-1.39a26.5,26.5,0,0,0,3-2.35l.39-.54c.83.26,1.2-.39,1.68-.85h0l2.25-1.42c.65-.52,1.52-.69,2-1.4l.58-.59a.91.91,0,0,0,.81-.28c1.27-.45,2.18-1.51,3.4-2,.51.08.67-.5,1.11-.57l.06-.24a11.86,11.86,0,0,0,3.4-2c1.18-.19,1.94-1.23,3.08-1.5a.75.75,0,0,0,0-.26l1.44-.81,1.43-.83h0c.62-.45,1.5-.47,2-1.14a14.48,14.48,0,0,0,2.8-1.22,1.18,1.18,0,0,1,0-.25h0c.73.07,1.14-.54,1.7-.82h0a.27.27,0,0,0,.07.08,5.92,5.92,0,0,0,3-1.26l1.44-.82h0a3,3,0,0,0,1.48-.28h0L84,10.5h0c.82.09,1.39-.44,2-.78h0l.52-.06,3.16-.81h0a3.37,3.37,0,0,0,1.77-.56h0l.78-.06c1.79.11,3.44-.75,5.21-.79l.49,0a12.59,12.59,0,0,0,2.67-.26,82.49,82.49,0,0,1,23.52,1.14h0a5.59,5.59,0,0,0,2.6.23c.62.9,1.46.68,2.27.59a4.14,4.14,0,0,0,.6.09,6.06,6.06,0,0,1,1.2.23,6.66,6.66,0,0,0,1.06.29,7.37,7.37,0,0,0,1,.21,3.1,3.1,0,0,0,.42.08c.22,0,.42.08.63.12a8,8,0,0,0,1.53.38l.06,0c.76,1,2,.76,3,1.12,1.72.64,3.5,1.14,5.25,1.7a.31.31,0,0,0,.09.14.59.59,0,0,0,.73-.07c.51,1.29,1.66,1.18,2.72,1.28a1.15,1.15,0,0,0,.17-.06.48.48,0,0,0,.59.17l.11,0h.11v0c.59,1.16,1.87,1.05,2.83,1.53a.77.77,0,0,0,.36-.09s0,0,0,0l3.09,1.45h0l2,.82h0l.32.27.68.26h0c.09.18.17.37.41.24,0,0,0,0,0,0a4.44,4.44,0,0,0,1.56.83c.94.14,1.6.91,2.49,1.16l2.59,1.42.14-.05h0a.18.18,0,0,1-.15.05l1.36.89h0a18.38,18.38,0,0,0,3.44,2h0c.19.54.8.53,1.13.88h0L176,30.2l1.14.85a8.81,8.81,0,0,0,2.25,1.77h0l1.16,1.08h0l.88.82h0a.24.24,0,0,0,.19.07,3.69,3.69,0,0,0,2.29,2.3s.05,0,.07-.06h0c.92,1,1.79,2,2.78,2.84a3.39,3.39,0,0,1,.44.63A14.59,14.59,0,0,0,190,43.63a.36.36,0,0,0,.18,0h0a1.06,1.06,0,0,0,1.07,1.13.88.88,0,0,0,0,.15,3.58,3.58,0,0,0,.26.29,10.24,10.24,0,0,0,1.57,1.9,3.9,3.9,0,0,1,.25.36.91.91,0,0,0,.24.16c0,.57.54.75.85,1.1h0s0,0-.05.06c-.05.37.18.57.43.77a1.83,1.83,0,0,1,.36.32,3.15,3.15,0,0,0,.24.3c.06.1.14.19.2.31a.61.61,0,0,0,.2.19s-.05,0-.06.09a5.78,5.78,0,0,0,2.28,3.06v0a.82.82,0,0,0,0,.35,13.11,13.11,0,0,0,1.1,1.8c.27.27.51.58,1,.45v0c-.19.25-.12.44.13.59a.26.26,0,0,0,.15,0,1.74,1.74,0,0,0,.73,1.54l.17,0,.59.92a2.1,2.1,0,0,0,.38.6l.52.82A.16.16,0,0,1,203,61h0a2.65,2.65,0,0,0,.11.3.85.85,0,0,0,.11.64c.12.18.22.37.33.55a23.13,23.13,0,0,0,2.62,4.44l.27.58h0l2.82,5.72a.39.39,0,0,0,0,.26h0l.84,2c.14.32.29.63.44,1,0,0,0,0,0,0a1,1,0,0,0-.08.39,18.71,18.71,0,0,0,1.43,3.82c.83,2.15,1.25,4.44,2.41,6.47a.32.32,0,0,0,.09,0c-.29.4-.06.8,0,1.19,1,3.59,1.75,7.26,2.62,10.89a.43.43,0,0,0,.2.18,63.48,63.48,0,0,1,.64,8.15,2.16,2.16,0,0,0-.23.86c-.06,4.85,0,9.7,0,14.55a2.73,2.73,0,0,0,.32,1.63.55.55,0,0,0,.14.09s0,0,0,0c0,.46,0,.93,0,1.39v.1a1,1,0,0,0-.28,0,2.1,2.1,0,0,0-.38,1.48,57.74,57.74,0,0,1-1,7.16,1.59,1.59,0,0,0,.12.86h0c-.24,1.18-.48,2.37-.71,3.56a.43.43,0,0,0-.21.19c-.59,1.68-1,3.42-1.45,5.15a39.74,39.74,0,0,0-1.4,5.59c.06.13.12.27.19.4v.06a.59.59,0,0,0-.16-.06c-.57.45-.62,1.18-.94,1.76v0h0v0c0,.31-.08.63-.13.93a3.66,3.66,0,0,1-.46.72c-.3.44.06,1-.26,1.45a12,12,0,0,0-1.13,3.41c0,.78-.58,1.31-.85,2a2.67,2.67,0,0,0-.75,2,.45.45,0,0,0,.12.21c-.23.26-.6.43-.56.86h0a.07.07,0,0,0,0,.05l-.09-.06a1.63,1.63,0,0,0-1.12,1.38s.06.06.09.09l-.25.24h0a.74.74,0,0,0-.75.16C205.26,166.31,204.8,166.78,204.35,167.27ZM161.42,193.5l.06.1h0S161.42,193.54,161.42,193.5ZM84.76,193l.06,0a.43.43,0,0,1,0,0Zm5.09.45a.45.45,0,0,0-.15.19.68.68,0,0,0-.44-.28,2.54,2.54,0,0,1-.56-.13,1.45,1.45,0,0,0-.22-.09,2.81,2.81,0,0,1-.39-.19,1.15,1.15,0,0,0-.36-.07.67.67,0,0,0-.18.07l-2.36-.74a.5.5,0,0,0-.12-.21,2.8,2.8,0,0,0-1.58-.58,1.08,1.08,0,0,0-.3.11l-.71-.23a2.32,2.32,0,0,0-1-.32l-.52-.17a.07.07,0,0,1,0-.05c-.42-.39-.79-.88-1.47-.56a.05.05,0,0,1,0,0c-.4-.75-1.15-.82-1.86-1a.41.41,0,0,0-.2.14h0a.14.14,0,0,0-.18,0h-.06c0-.06.1-.13,0-.15a1,1,0,0,0-1.2-.5h0c-.38-.78-1.2-.8-1.88-1h0a1.76,1.76,0,0,0-2-.59.44.44,0,0,0-.06-.3c-.82-.62-1.55-1.44-2.75-1.12h0a.55.55,0,0,0-.09-.33,8.26,8.26,0,0,0-3.85-1.78l-.14.07c-.43-.28-.74-.77-1.32-.8h0l0,0a1,1,0,0,0-.76-.95.82.82,0,0,0-.35,0h0c-.44-.28-.78-.74-1.35-.77a1.13,1.13,0,0,0,0-.18,1.14,1.14,0,0,0-.8-.6c-.21-.56-.83-.58-1.31-.77a.75.75,0,0,0-.25.09c0-.55-.4-.79-.81-1a4,4,0,0,1-.46-.24,1.21,1.21,0,0,0-.51-.31,5.07,5.07,0,0,1-.45-.36c-.31-.3-.64-.59-1.1-.37a1,1,0,0,0-.69-.72,6.13,6.13,0,0,1-1.29-.62l-2.09-1.46,0,0s.06-.08.06-.14a12.87,12.87,0,0,0-4.85-3.63.45.45,0,0,0-.1.09l-.76-.57a.76.76,0,0,0,0-.16A1.63,1.63,0,0,0,44.29,169a.16.16,0,0,1-.09.09v0a.42.42,0,0,0-.33-.43c0-.05.06-.07.08-.12a3.49,3.49,0,0,0-2.35-2h0a.52.52,0,0,0-.27-.46,1.2,1.2,0,0,1-.41-.23,1.64,1.64,0,0,0-1.07-.78,4.06,4.06,0,0,0-2-2.51.43.43,0,0,0-.25,0c-.21-.88-.57-1.61-1.55-1.74,0,0,0,0,0-.06a6,6,0,0,0-2.42-2.88l-.08,0a1.12,1.12,0,0,0-.41-.72,4.67,4.67,0,0,1-.23-.51,1.53,1.53,0,0,0-1.28-.88,8.34,8.34,0,0,0-1.7-3.17.5.5,0,0,0-.32,0c0-1.23-1.15-1.89-1.6-2.9l-.19-.16a2.32,2.32,0,0,0-.35-.66l0-.07a.86.86,0,0,0-.13-.14,1.7,1.7,0,0,1,.1-.14c.07-.48-.11-.76-.63-.76l0,0a.51.51,0,0,0,.19-.22,1.58,1.58,0,0,0-.8-1.54c-.2,0,0,.15-.14,0s.09-.15.06-.24c-.33-.88-.31-2-1.28-2.48,0-.07,0-.15,0-.23a2.92,2.92,0,0,0-.93-1.9.21.21,0,0,0-.23,0,.49.49,0,0,1,.11-.14c.13-.48-.23-.79-.45-1.15l-.27-.52a2.17,2.17,0,0,0-.32-.67,4.22,4.22,0,0,1-.26-.67,1,1,0,0,0-.22-.32h0c.18-.21.12-.42,0-.64a2.54,2.54,0,0,1-.67-1.22l-.12-.14h0a.52.52,0,0,0,.12-.19,11,11,0,0,0-.91-3.06c-.12-.4-.22-.84-.8-.8a.1.1,0,0,0-.08.05h0a1,1,0,0,0-.35-1.31.51.51,0,0,0,.19-.22,2.38,2.38,0,0,0-.86-2.13.44.44,0,0,0-.2.08l0-.05h0a1.55,1.55,0,0,0-.44-1.45,1.63,1.63,0,0,1-.07-.3,2.81,2.81,0,0,0-.18-.76.74.74,0,0,0-.18-.21,1.51,1.51,0,0,0-.15-.84,6,6,0,0,1,0-.74,3.83,3.83,0,0,0-.77-2.47.47.47,0,0,0-.09-.06s0-.08,0-.12a3.69,3.69,0,0,0-.06-.88,1.34,1.34,0,0,0-.09-.45c0-.23-.11-.46-.17-.69a29.4,29.4,0,0,0-.81-3.58c-.11-.34-.1-.81-.61-.83v-.08a.19.19,0,0,0-.05-.21c.21-1.63-.61-3.12-.59-4.74,0-3.91,0-7.83,0-11.74.66-1.53.53-3.26,1.14-4.81h0c.47-.45,0-1.29.67-1.78.64,1.64.61,3.3,1,4.87h0a6.38,6.38,0,0,0,.57,2c-.21,1.18.55,2.12.79,3.19h0a2.6,2.6,0,0,0,.61,1.75h0c0,.25,0,.5.05.76s0,.37,0,.56c.25.52.51,1,.76,1.57h0l.09.71h0c.26.77.53,1.54.8,2.32h0a2.16,2.16,0,0,0,.55,1.12c-.16,1,.52,1.76.87,2.61h0a.2.2,0,0,0,0,.22,1.43,1.43,0,0,0,.56,1.16h0c-.17,1,.49,1.77.83,2.62h0a2,2,0,0,0,.61,1.35c-.08,1.21.82,2.09,1.08,3.18a34.42,34.42,0,0,0,2,4.31.16.16,0,0,0,.06.2c.27.58.55,1.15.82,1.73h0c0,.42.28.64.55.87h0c-.11.84.54,1.36.86,2h0a1.84,1.84,0,0,0,.61,1.12h0c-.06.73.5,1.17.8,1.74,0,.73.64,1.15.87,1.76h0l.87,1.68h0a8.64,8.64,0,0,0,1.2,2.19h0c0,.59.41.87.79,1.19h0a9.59,9.59,0,0,0,1.48,3.09L37,144.4a3.19,3.19,0,0,0,.93,1.36l.31.32a.36.36,0,0,0,0,.27,6.34,6.34,0,0,0,1.66,2.33h0c.22.84,1,1.28,1.44,2,0,.56.5.8.83,1.15.22.79.92,1.2,1.39,1.8h0a23.32,23.32,0,0,0,4,4.51l.57.56h0L49.33,160c0,.44.34.58.73.62h0A3,3,0,0,0,51.28,162l.78.64a8.11,8.11,0,0,0,2,1.75A9.12,9.12,0,0,0,56,166.05a18.88,18.88,0,0,0,4.29,3.47c1.23,1.38,2.91,2.16,4.26,3.38h0a27.71,27.71,0,0,0,3.49,2.5l2.83,2a63.82,63.82,0,0,0,7.62,4.86c1.17,1.14,2.71,1.68,4,2.54,1.43.65,2.66,1.7,4.25,2h0l.31.25c.52.18.88.71,1.49.7l.11.05.13,0,1.09.71h0a24.46,24.46,0,0,0,4.6,1.93c.26.17.49.45.86.28l.25.05c.67.29,1.18.95,2,.84l1.41.58h0c1,.18,1.8.86,2.82.89.94.36,1.8,1,2.9.8.83.23,1.57.81,2.5.65l.63.21h0a.61.61,0,0,0,.19.51l0,0c-1.84-.16-3.81-.16-5.76-.41-1.43-.18-2.87-.58-4.3,0a.41.41,0,0,0-.13.17l-.47,0a2.28,2.28,0,0,0-1-.11,6.54,6.54,0,0,0-4.09-.76.45.45,0,0,0-.11-.17A2.45,2.45,0,0,0,89.85,193.45Zm-63.16-45.6h0Zm-7-97.17h0v0l0,0Zm2,23.43a1.24,1.24,0,0,0,.57-1.21A15.24,15.24,0,0,0,23.56,70l.17-.06a1.67,1.67,0,0,0,.54-1.8v0c.3,0,.42-.23.51-.48a3.19,3.19,0,0,1,.5-1.27c.22-.53.7-1,.58-1.62a.56.56,0,0,0,.17-.09c.12-.2.23-.4.34-.6a2.11,2.11,0,0,0,.28-.45,6.45,6.45,0,0,1,.37-.54c.24-.37.65-.68.41-1.21a.35.35,0,0,0,.2,0c1-1,1.44-2.32,2.14-3.48a.64.64,0,0,0-.06-.74,6.53,6.53,0,0,0,2.75-4.05.37.37,0,0,0,.29,0c1-1.38,2.48-2.45,3-4.19a.75.75,0,0,1-.07-.12c.83,0,1.17-.68,1.56-1.27a1.35,1.35,0,0,1,.28-.53l.61-.55s0-.05,0-.08a.94.94,0,0,0,.1-.1.47.47,0,0,0,0-.31c.28,0,.37-.18.34-.39a3.38,3.38,0,0,0,1.82-1.38,2.66,2.66,0,0,1,.28-.38,5.11,5.11,0,0,0,.61-.62l.23-.21a1.57,1.57,0,0,1,.25-.2.22.22,0,0,0,0-.08A2.18,2.18,0,0,0,42,43a.81.81,0,0,0,0-.16c.82.17,1.14-.4,1.41-1a.87.87,0,0,1-.07-.17l.24-.21.22.08a4.41,4.41,0,0,0,2.61-2.16.41.41,0,0,0,0-.11,7.41,7.41,0,0,0,1.36-1.14.66.66,0,0,1,.24,0,1.44,1.44,0,0,0,1.36-1.21c1.44,0,2.23-1.25,3.36-1.84a.37.37,0,0,0,0-.29c.44.11.59-.12.57-.53a.47.47,0,0,0,.19.15,8.61,8.61,0,0,0,4.1-2.5,1.45,1.45,0,0,0,1.51-.68s0-.06,0-.09c.5.17.66-.14.74-.58a.59.59,0,0,0,.2.15,1.49,1.49,0,0,0,1.59-.88,1,1,0,0,0-.05-.16,1,1,0,0,0,.41-.29.65.65,0,0,0,.19,0,2.61,2.61,0,0,0,2.34-1.16h0c.74.05,1.18-.65,1.85-.8l0,0a.74.74,0,0,0,.36.09c1-.4,2.12-.5,2.81-1.47a.29.29,0,0,0,0-.13h0a.62.62,0,0,0,.17-.22h0l-.17.22h0a.93.93,0,0,0,.84-.17l.53-.05a3.55,3.55,0,0,0,2.24-.95.51.51,0,0,1,.19-.16,5.54,5.54,0,0,0,4.22-1.45s0-.05,0-.08H78a1.57,1.57,0,0,0,1.12-.17l.34-.06a2.64,2.64,0,0,0,.57-.14.59.59,0,0,0,.26-.26l.15.07a6.69,6.69,0,0,0,3.31-1,.75.75,0,0,0-.05-.16h0A1.07,1.07,0,0,0,85.21,21a.31.31,0,0,0,0-.17h.07l1-.08,3.42-.82a1.43,1.43,0,0,1,.26.19,23.62,23.62,0,0,0,4.42-.68c.77-.18,1.75,0,2.28-.86a.56.56,0,0,0-.06-.29,1.16,1.16,0,0,0,.38.2h.25c.86.22,1.63-.35,2.44-.56a20.38,20.38,0,0,0,5-.45,9.84,9.84,0,0,1,2,0c2,0,4.05,0,6.08,0a11.45,11.45,0,0,0,3.78-.23c.13-.14.2-.23.21-.31h.28l0,0a1,1,0,0,0,0,.18c1.22.67,2.55.25,3.83.36a8.36,8.36,0,0,1,1.87,0c.83.15,1.67.3,2.51.39.58.11,1.16.21,1.75.28h0a6.15,6.15,0,0,0,3.66.61,4.84,4.84,0,0,0,2.47.58.56.56,0,0,0,.09.17c.58.37,1.13.9,1.91.44h0a.29.29,0,0,0,0,.24c1.08.42,2.1,1.21,3.38.68h0a.52.52,0,0,0,.11.3,11,11,0,0,0,3.83,1.18l.46-.16h.1a.6.6,0,0,0,0,.19.78.78,0,0,0,.43.39c.7.21,1.32.81,2.15.44a.37.37,0,0,0,.12-.13,2.41,2.41,0,0,0,1.32.59h.05l0,0a2.35,2.35,0,0,0,1.92.95,1,1,0,0,0,.34-.24h.08c.47.16.82.59,1.34.63.49,1,1.67.73,2.39,1.31l.38.14a19.79,19.79,0,0,0,2.9,1.08.72.72,0,0,0,.29-.1c.43.22.92.33,1.19.79l.55-.05a.56.56,0,0,0,0,.12,1.55,1.55,0,0,0,1,.55h.05a2.19,2.19,0,0,0,2.36.8.58.58,0,0,0,.08.31,3.09,3.09,0,0,0,2.54,1h0l.11.05h.1a.66.66,0,0,1,0,.14,1.46,1.46,0,0,0,1.26.81l.08,0a2,2,0,0,0,1.25.78h.12c.27.52.87.7,1.31,1s.9.68,1.48.51a1.28,1.28,0,0,0,.42.21h.14l.24.2,1.29.82c.29.22.59.42.87.65a.58.58,0,0,0,.14,0c.07.41.41.5.76.57l.13,0,.2.16h0a4.43,4.43,0,0,0,3.19,2.35l.05,0a2.39,2.39,0,0,0,.68.7,1.76,1.76,0,0,1,.14.23,4.83,4.83,0,0,0,.59.76,1.68,1.68,0,0,0,.29.24,2.2,2.2,0,0,0,.47.27,2.3,2.3,0,0,1,.52.26,1.16,1.16,0,0,0,.21.16l.28.23a1.86,1.86,0,0,0,.28.21,1.92,1.92,0,0,1,.23.19l.14.12.26.3a1.12,1.12,0,0,0,.22.16c.28,1.14,1.39,1.5,2.15,2.18l.11-.06a2.07,2.07,0,0,0,1.5,1.55.41.41,0,0,0,.11-.07s0,0,0,0l.26.23h0a.42.42,0,0,0-.06.14,2.5,2.5,0,0,0,1.78,1.89l0,0h0a.29.29,0,0,0,.21.23c0,.52.38.8.74,1.08a1.65,1.65,0,0,1,.51.43h0a2.87,2.87,0,0,1,.39.71c.6.6.8,1.66,1.87,1.73v.08c0,.16.11.28.31.25l.24.27a.49.49,0,0,0-.11.23,3.85,3.85,0,0,0,1.82,2.41l0,0c-.09.41.13.55.51.55,0,0,.05,0,.07,0a.43.43,0,0,1-.12,0,2.29,2.29,0,0,0,1.41,2.1h.06a3.14,3.14,0,0,0,.79,1.35h0a.93.93,0,0,0,0,.37,15.19,15.19,0,0,0,2.19,3.25c-.15.64.32.73.78.81h0c-.32,1.55.78,2.45,1.61,3.48l.12,0a.7.7,0,0,0,.41.93.37.37,0,0,0,.14,0,.5.5,0,0,0,0,.12.67.67,0,0,0-.1.29c.68,1.51,1,3.2,2.27,4.43.05,0,.08,0,.11-.07v0h0a.65.65,0,0,0-.16.17,6.27,6.27,0,0,0,1,2.63,2.2,2.2,0,0,1,.25.51,2.4,2.4,0,0,0,.49,1.12c0,.15,0,.31.07.47a8.56,8.56,0,0,0,1,2c.16.19.28.41.44.59l.6,1.69h0c.19.55.39,1.1.58,1.64l-.1.08c-.16.47.1.76.46,1L209,86a4.38,4.38,0,0,0,.34,1.49,2,2,0,0,0,0,.42c.21.53,0,1.25.51,1.65v0a2.38,2.38,0,0,0,.71,1.54.49.49,0,0,0,.19.07c-.17,1.43.72,2.64.84,4a.2.2,0,0,0,0,.21.08.08,0,0,1,.08,0,1.63,1.63,0,0,1-.33.39,2.81,2.81,0,0,0,0,1.12,65.94,65.94,0,0,1,.93,9.71c.11,3-.73,6-.51,9a4.49,4.49,0,0,1-.06,1.1,2.19,2.19,0,0,0-.12,1.11h0c-.43.62-.22,1.33-.3,2h0a2.23,2.23,0,0,0-.54,1.71c-.12.47-.23.94-.35,1.41h0a1.23,1.23,0,0,0-.49,1.39l-.13.07c-.34.89-.57,1.83-1,2.71a2.74,2.74,0,0,0-.09.39,8.07,8.07,0,0,0-.16,1.55.82.82,0,0,0,.09.19,2.61,2.61,0,0,0-.83,2.49.28.28,0,0,0-.2,0,11.47,11.47,0,0,0-1.63,4.71.46.46,0,0,0,.17.14h0c-.52.19-.84.49-.63,1.1l.06,0a.39.39,0,0,0-.28,0c-.85.87-.93,2.08-1.39,3.11a3.19,3.19,0,0,1-.22.91,2.36,2.36,0,0,0-.45,1.29.94.94,0,0,0-.33.08,3.09,3.09,0,0,0-1.08,2.53l0,0a.42.42,0,0,0-.27,0,5.66,5.66,0,0,0-1.37,2.52,2.25,2.25,0,0,1-.22.71,1.5,1.5,0,0,0-.32.7.88.88,0,0,0-.16,0c-1.06.91-1.25,2.48-2.46,3.27a1.19,1.19,0,0,0-.15.35,3.34,3.34,0,0,1-.23,1,.76.76,0,0,0,0,.21,2.45,2.45,0,0,0-1.42,2.24,8.53,8.53,0,0,0-2.89,3.88c0,.05,0,.08,0,.12h0c-.86.48-1.62,1-1.65,2.14-.48-.33-.81-.07-1,.33-.35.67-1,1.16-1.27,1.84l-.07.16a4.55,4.55,0,0,0-2.17,2.56,1.09,1.09,0,0,0-.18,0c-.92.72-2.15,1.19-2.12,2.67l-.11-.05a1.11,1.11,0,0,0-.55.22l-.39.33a1.33,1.33,0,0,0-.19.14,2.46,2.46,0,0,1-.5.28,2.28,2.28,0,0,0-.65.4c-.5.55-1.18,1-1.4,1.73a.37.37,0,0,1,0,.11c-.12.1-.25.19-.38.28a1,1,0,0,0-.13-.09.61.61,0,0,0-.35.09c-.09.08-.2.15-.3.24a2.11,2.11,0,0,0-.61.41,2.94,2.94,0,0,1-.46.25,1.66,1.66,0,0,0-.85.76.65.65,0,0,0,0,.31h0c-.78.41-1.8.57-1.88,1.71h-.09a.3.3,0,0,0-.15.05.4.4,0,0,0-.33-.13c-.33.12-.84,0-.84.56a.74.74,0,0,0-.26,0c-1.37,1-3,1.56-4.1,2.85,0,0,0,.06,0,.09-.57-.08-.86.45-1.31.63a1.44,1.44,0,0,0-1.35.49l-.32.11c-.4.17-.78.37-1.17.54l-.33.18c-.3.22-.66.39-.61.86a.73.73,0,0,0-.23-.16,10.27,10.27,0,0,0-5.12,2.67,1.06,1.06,0,0,0-.34-.12,1.56,1.56,0,0,0-1.46.65.7.7,0,0,1,.09.17l0,0h0a.37.37,0,0,0-.19-.18,8.29,8.29,0,0,0-3.74,1.44.57.57,0,0,0-.1.19,2.51,2.51,0,0,0-.94.24A2.49,2.49,0,0,1,151,189a2.09,2.09,0,0,0-1.28.61.78.78,0,0,1-.22.25,1.65,1.65,0,0,0-.85.14h-.07a1.52,1.52,0,0,0-.36.12,1.08,1.08,0,0,1-.28.15l-.22.08a4.49,4.49,0,0,1-1,.13,1,1,0,0,0-.53.19.24.24,0,0,0-.06.11,5.94,5.94,0,0,0-1.31.37,7.69,7.69,0,0,1-1.51.18,11,11,0,0,1-1.11.36c-.9.18-1.81.25-2.71.41a1.27,1.27,0,0,0-1,.62c-.51.17-1.09-.06-1.57.25a1.2,1.2,0,0,1-.23-.11c-1.17-.26-2.18.31-3.24.62a.45.45,0,0,0-.12.16c-1.45-.28-2.7.9-4.16.57a.22.22,0,0,0-.09.21h0l-.76,0a.67.67,0,0,0-.06-.12,1.3,1.3,0,0,0-.43-.2,6.8,6.8,0,0,0-2,.09,40.55,40.55,0,0,1-12.49,0,1.73,1.73,0,0,0-1.56.18h0a5.36,5.36,0,0,0-2.55-.72.85.85,0,0,0-.31.17h0l-.18-.09a5.81,5.81,0,0,0-1.81-.24h0a1.75,1.75,0,0,0-1.14-.52l-2.56-.72a1.22,1.22,0,0,0-.3-.3,8.48,8.48,0,0,0-3-1c-.2,0-.41,0-.61,0a1,1,0,0,0-1-.14h0c-.7-.38-1.32-1-2.21-.89a.7.7,0,0,0-.06-.19,2.29,2.29,0,0,0-1.43-.7,1.88,1.88,0,0,1-.84-.16,1.82,1.82,0,0,0-1.15-.39,11.2,11.2,0,0,0-1.79-.84l-.26-.11a1.42,1.42,0,0,0-.35-.11.87.87,0,0,0-1-.37h0a.69.69,0,0,0,.05-.13.58.58,0,0,0-.57-.38l-.16,0a1,1,0,0,0-1-.33.36.36,0,0,0,0-.11,7.46,7.46,0,0,0-3.46-2,1.85,1.85,0,0,0-.23,0,7.27,7.27,0,0,0-4.23-2.27l0,0a.43.43,0,0,0,0-.25,2.78,2.78,0,0,0-1.28-1l-.32-.2c-2.05-1-3.64-2.81-5.8-3.67a.87.87,0,0,0-.28,0c-.08-.58-.64-.76-1-1.13a2.18,2.18,0,0,0-.31-.22,9.17,9.17,0,0,0-1.85-1h0c-.14-.47-.62-.66-.92-1a2.26,2.26,0,0,0-.31-.23c-.66-.18-1-1.16-1.84-.87a.68.68,0,0,0,0-.14A6,6,0,0,0,62.39,170a.42.42,0,0,0,.09-.25,1.21,1.21,0,0,0,0-.18,6.18,6.18,0,0,0-2.4-1.66.52.52,0,0,1-.26.06.16.16,0,0,0,.1-.21,5.76,5.76,0,0,0-2.93-2.18h0c-.15-.82-1-1.05-1.5-1.51a2.2,2.2,0,0,1-.46-.23l-.07-.09c-.46-.27-.76-.76-1.22-1-.07-.06-.13-.13-.2-.18a1.17,1.17,0,0,0-.31-.12,5,5,0,0,0-1.3-1.28,9.31,9.31,0,0,0-1.06-1.11c0-.07-.09-.13-.13-.19a1.37,1.37,0,0,0-.29-.25l-.16,0A7.6,7.6,0,0,0,48.71,158a5.56,5.56,0,0,0-1.12-1.2c0-.07-.06-.14-.1-.21a2.66,2.66,0,0,0-.35-.46l-.24-.23a2.48,2.48,0,0,0-.45-.52,2.47,2.47,0,0,1-.4-.73,5.2,5.2,0,0,0-2-2h0A6.74,6.74,0,0,0,42.64,151c0-.06,0-.12,0-.19-.06-.25-.15-.47-.45-.44a4.41,4.41,0,0,0-2.34-3v0l-.17-.16c0-.14.07-.27.09-.4-.39-1.05-.6-2.25-1.92-2.61a1.24,1.24,0,0,0-.92-1.46,16.17,16.17,0,0,0-.83-2.46c-.28-.59-.62-1.15-.94-1.72a.56.56,0,0,0-.35-.15l-.08,0a3.45,3.45,0,0,0-1.43-2.49h0c.32-1.3-.79-1.94-1.32-2.84l-.08,0c.34-.63-.2-1-.4-1.51l-.19-.26a1.23,1.23,0,0,1,0-.2,1.27,1.27,0,0,1,0-.28c-.48-.14-.5-.8-1-.89h0a.38.38,0,0,0-.09-.25A19.12,19.12,0,0,0,29.08,127a2.24,2.24,0,0,0-.08-.57,2.92,2.92,0,0,0-1-1.69.47.47,0,0,0-.18-.49l-.12-.07a2.85,2.85,0,0,0-.61-1.57c0-.05,0-.1-.05-.14a2.44,2.44,0,0,0-.14-.34l-.09-.23a9.55,9.55,0,0,0-.76-1.66s0-.09.07-.13a1.22,1.22,0,0,0,.07-.38c-.33-.66-.17-1.56-.87-2a1.93,1.93,0,0,0,0-.24,8,8,0,0,0-.61-1.41l-.17-.31a2.34,2.34,0,0,0-.36-.68,2.5,2.5,0,0,1-.22-.81h0c0-.55,0-1.07-.68-1.23a2.23,2.23,0,0,0,0-.27c0-.24-.09-.47-.14-.7a16.2,16.2,0,0,0-.82-2h0a1.54,1.54,0,0,0-.4-1.21v0a3.67,3.67,0,0,1-.18-.76c-.11-.64-.44-1.22-.6-1.84a1.2,1.2,0,0,1-.21-.13c0-.22,0-.41-.24-.49a1.85,1.85,0,0,0,0-.23,1,1,0,0,0,0-.38,3.54,3.54,0,0,0-.19-.33,4.83,4.83,0,0,0-.18-.92,3.42,3.42,0,0,0-.07-.71,1,1,0,0,0-.19-.35s0,0-.05,0a1.07,1.07,0,0,0-.15-.64c0-.2,0-.4,0-.59a4.56,4.56,0,0,0-1-3.25c-.06,0-.12,0-.18,0v0c-.2-.25-.07-.53,0-.8a12.79,12.79,0,0,0-.43-1.78C18,95.07,18,94.53,18,94c0,0,0,0,0,0a.32.32,0,0,0,.1-.1c0-1.7.24-3.43-.67-5,0-.47,0-1,0-1.42v0a4.24,4.24,0,0,1,.15-.89c0-.13.07-.25.1-.38.36-.3.32-.76.28-1.22,0,0,.08,0,.11-.06a1.42,1.42,0,0,0,.24-.75l.06-.37a1.49,1.49,0,0,0,.21-1.11,2,2,0,0,0,.54-1.16h0l.06-.54a2.48,2.48,0,0,0,1-2.34c.12-.36.23-.72.35-1.08h0C20.92,76.35,21.69,75.37,21.68,74.11Zm5.74-12.28-.14,0v0A.46.46,0,0,0,27.42,61.83ZM80.17,22.2l-.23-.06.31-.18A.72.72,0,0,1,80.17,22.2ZM91.8,18.57s0,.05-.08.08a.29.29,0,0,0,0-.09Zm10.73-1.2Zm10.76-.71Zm-16.81,1.5h0Zm0,0Zm51,4.67h0l.07-.08Zm9.42,4.31c0,.05,0,.08,0,.13h0C156.89,27.23,156.89,27.17,156.9,27.14Zm53.54,60.58h0Zm-2.55,44.12.05,0h0Zm-2.19,6h0ZM168,181.94h0ZM164.35,184h0Zm-29.44,10.41a.11.11,0,0,1,0-.07.24.24,0,0,1,0,.08Zm-7.86.48h0Zm-13.44.7h0Zm-6.19-1.19h0c0,.05-.11.08-.13.15Zm.76,1s0,0,0,0S108.33,195.53,108.18,195.37Zm.62.81ZM13.07,120.51l0-.06S13.1,120.5,13.07,120.51Zm2.4-31.07,0,0v0Zm2,3.88.13.05v0h0A.26.26,0,0,1,17.52,93.32Zm5.58,20.22.11.07-.12,0Zm-.93-3h0l0-.06h0v0Zm-.47.43h0Zm8,19.38v0h0l-.07.06S29.62,130.4,29.65,130.38Zm.63.27s.07,0,.1,0l-.1,0ZM16.83,84.58h0Zm-.53-5.47h0l0,0Zm-.11-19.93a.39.39,0,0,0-.23,0,.64.64,0,0,0,.23,0h0ZM14.6,86.34h0l-.11-.1.12.09Zm-1.15,42.08.11.09h-.11Zm89.13,67.84h0a.58.58,0,0,1-.14,0ZM213,103h0c-.11.08,0,0,0-.06Zm-183-54.66.19-.15A.47.47,0,0,1,30.06,48.37ZM66.94,18.16Zm0,0h0v0l0,0ZM180.53,29.7l0,0,2.5,2,.28.25a.43.43,0,0,1,.29,0,1.07,1.07,0,0,1-.29,0l1.77,1.66,2,1.72a26.69,26.69,0,0,0,3.12,3.17l.57.54,1.47,1.69,1.69,1.68h0c.71.61,1.16,1.51,2.12,1.82a3.23,3.23,0,0,0,1.24,1.4.37.37,0,0,0,.07.23c.74.87,1.49,1.73,2.24,2.6l.54.58a8.86,8.86,0,0,0,2,2.81l1.4,1.74h0l.81,1.15a12.61,12.61,0,0,0,1.75,2.52l1.43,2.3c0,.49,0,.93.61,1.1l1.08,1.77a14.64,14.64,0,0,0,2,3.41,1.17,1.17,0,0,0,.3.82h0l.56.85c-.18.7.51,1.07.62,1.66-.24.87.33,1.43.76,2l.24.31.64,1.13,1.46,2.82c-.13.68.37,1.15.56,1.72-.15.84.38,1.39.81,2a.89.89,0,0,0,.86.67.13.13,0,0,0,0,.17v.29a10.8,10.8,0,0,0,1.41,3.42c-.14.92.62,1.52.82,2.32h0a3.27,3.27,0,0,0,.61,1.67h0a4.49,4.49,0,0,0,.59,2.26,4,4,0,0,0,.81,2.86l.06.54a1.68,1.68,0,0,0,.57,1.72c0,.5-.2,1,.27,1.44h0c-.23.44.36,1.2-.52,1.4-.15-.45.16-1-.37-1.36h0a3.43,3.43,0,0,0-.53-1.48c0-.17-.05-.35-.08-.52-.45-1.33-.9-2.67-1.36-4l-.86-2h0L219,88h0c.2-1-.44-1.76-.88-2.56h0l-.57-1.14c.08-.83-.71-1.28-.87-2h0A28.27,28.27,0,0,0,214.48,78a.2.2,0,0,0-.09-.2c-1-1.77-1.77-3.74-3.13-5.33a4.78,4.78,0,0,0-1.08-1.81c.12-.77-.49-1.19-.83-1.74h0l-1.12-1.7a7.11,7.11,0,0,0-1.73-2.59h0a25.75,25.75,0,0,0-2.29-3.66,5,5,0,0,0-1.37-2h0a3,3,0,0,0-.92-1.37l-.84-1.17-.07.11h0a.44.44,0,0,1,.08-.11,4.4,4.4,0,0,0-1.14-1.68,13.52,13.52,0,0,0-1.95-2.9.33.33,0,0,0-.16.17h0l.17-.16-.41-.74h0c0-.6-.17-1.1-1-1h0c-.41-.55-.83-1.09-1.25-1.64.07-.45-.27-.64-.56-.86a2.09,2.09,0,0,0-1.19-1.37c-.07-.13-.15-.26-.23-.39h0c0-.68-.22-1.21-1.06-1.13a1,1,0,0,0-.12-.23,3.45,3.45,0,0,0-1.4-1.75h0l-.61-.79c-.08-1-1-1.48-1.51-2.12-.93-1.06-1.67-2.36-3-3L184,35h0a3.45,3.45,0,0,1-.26-.28h0l-2.63-2.81-.83-.88h0c-1.26-1.51-3-2.53-4.32-3.93l.4-.37h0l.1,0a1,1,0,0,0,0,.16A16.87,16.87,0,0,0,180.53,29.7ZM219,81.15Zm3.74,12.53Zm-.07-.22ZM223,95.1Zm1.08,5.69h0Zm.09,6.78,0,0h0Zm3.68,14.29v0s0,0,0,0Zm-.33-3.4h0v0Zm-7.58-27.23a.37.37,0,0,0,.06.1c-.05,0-.09.08-.09.1S219.93,91.29,219.94,91.23Zm.16-.72-.08-.07h0l.08.07Zm.31,2.9Zm0,0h0l0,0Zm-3.63-9.16h0v0h0Zm-5.51-8,0-.17A.4.4,0,0,1,211.27,76.24ZM202.67,59Zm6.64,10.74h0l-.06,0h.07ZM207.6,67.2Zm1.07,4.41h0Zm2.1,4.69,0,0h-.05Zm-13-24.38ZM170.57,25.38l-1.12-.57L166.91,23l-1.44-.86v.14h-.07a.57.57,0,0,1,.08-.13A13.72,13.72,0,0,0,163,20.75h0c-.64-.19-1-1-1.78-.84h0c-.6-.71-1.56-.67-2.31-1.09l-.32-.28a1.68,1.68,0,0,0-1.06-.65h0L155.59,17a1.64,1.64,0,0,1-.14-.22.41.41,0,0,1-.19,0,.57.57,0,0,0,.11-.29.63.63,0,0,0,.66.09.25.25,0,0,0,.08-.1.14.14,0,0,0,.23,0l.21-.06a.37.37,0,0,1,0,.09.87.87,0,0,0,.89.41s0,0,0,0a1.39,1.39,0,0,0,1.93.46.82.82,0,0,0,.62.41,2,2,0,0,1,.24,0l2.47,1a2.2,2.2,0,0,1,.68.54,9.38,9.38,0,0,0,2.69,1.18,3.8,3.8,0,0,1,.51.14.76.76,0,0,0,.26.11,3.24,3.24,0,0,1,.36.2,4.08,4.08,0,0,0,1,.65c.06.87.59,1.15,1.35,1.15l0,.06c-.13.57.24.88.63,1.16a20.26,20.26,0,0,1,2.62,2.1,1.22,1.22,0,0,0,1.06.43.63.63,0,0,0,.17.41l.14.13a.55.55,0,0,1-.28.32ZM157.76,18.5Zm4-.55,0,0h.05Zm-8.26-1.81s0,0,0,.07h-.05S153.48,16.16,153.48,16.14ZM172,23.07h.05l0,0,0,0Zm2.53,4.86Zm2-3.38s0,0,0,0h0ZM143.83,13.1h0ZM92.3,8V8ZM94,6.5l.24.06v0A.4.4,0,0,1,94,6.5Zm18.44-.21h0Zm37,7.93h0v0h0v0l0,0Zm.05.08.09.11A.53.53,0,0,1,149.55,14.3Zm-.17-.48.1.1h0l-.1-.1ZM143,11.41h0l0,0h0s0,0,0,0v.07ZM120.75,6.53h.06v0ZM112.18,5.4h0ZM85.47,9.17ZM82,11s0,0,0,.05h-.06Zm3.49-1.83h0ZM214.74,85.89s0,0,0,0a.09.09,0,0,1,0,0Zm0,.06h0c-.13,0,0,0,0-.06Zm0,1.17v0l0,0s0,0,0,0h0Zm4,23.76c.13,0,0,.06-.09.11a.67.67,0,0,0,.06-.12Zm-.15.15v0s0,0,0,0Zm-.36-3.74a.56.56,0,0,0,.05.08l-.06,0Zm-.65-7.91Zm-.8,36.48v-.17a.34.34,0,0,1,.15.06C216.83,135.8,216.79,135.85,216.74,135.86Zm-.6,3.43-.07,0h.07Zm-4.55,17.06h0Zm-2.86,6.8h0v-.05l0,0ZM205.28,168h0ZM129.52,5.2v0h0ZM87.46,1.45ZM113.32.83a.25.25,0,0,0,0-.08l.1.05ZM89.39.53v0ZM81.22,2.26s.06,0,0,0a.33.33,0,0,1-.1.06h0c0-.07,0-.09.05-.09ZM74.29,4.49ZM65.84,7.33h0Zm-9.47,3.95a.3.3,0,0,1,0-.13h.09ZM37.12,24.6Zm-3.39,4.5a.14.14,0,0,0,0-.06l.23-.23c.82-.19,1.13-1,1.69-1.45s1.16-1,1.44-1.71l.81-.89h0c.66-.12,1-.65,1.46-1.08L43.91,20l.57-.51a20.24,20.24,0,0,0,3.39-2.34l.3-.27A39.18,39.18,0,0,0,53,14l2.32-1.4a2,2,0,0,0,1.4-.86l.62-.59h0c1.08.42,1.65-.63,2.5-.86h0L63,8.87l1.34-.62a2.68,2.68,0,0,0,1.7-.73.34.34,0,0,0,.24-.14l.33-.27c.37.16.6-.11.86-.27A3.42,3.42,0,0,0,70.08,6h0a2.16,2.16,0,0,0,1.68-.39,1.08,1.08,0,0,1,.5.06,1.46,1.46,0,0,0,1-.15,2.67,2.67,0,0,0,.31-.36l.89-.44a1.05,1.05,0,0,0,.35.13,5.47,5.47,0,0,0,3-.84.42.42,0,0,0,0-.29l0,0,6.77-1.46h0a.82.82,0,0,0,.3.25c2.18.21,4.3-.36,6.45-.57a138.94,138.94,0,0,1,18.81-.21,3.88,3.88,0,0,0,1.4-.06,1,1,0,0,0,.37-.26v0l.39.05a1,1,0,0,0,.55.22,17.34,17.34,0,0,1,1.77.1l3.24.43a.15.15,0,0,0,0,.07,1.15,1.15,0,0,0,.61.28,5.51,5.51,0,0,1,1.5.27,4.94,4.94,0,0,0,.55.15,6.67,6.67,0,0,0,1.46.31c.13,0,.27.07.41.09l.49.09a1.33,1.33,0,0,0,1,.17l.12,0h.11a.36.36,0,0,0,0,.11c.55.7,1.39.74,2.15,1a1.24,1.24,0,0,0,.38-.09h0c.37.21.8.09,1.19.2h0a1.61,1.61,0,0,0,1.7.49v0a.88.88,0,0,0,.33.24,3,3,0,0,1,.6.19,3.64,3.64,0,0,0,2.27.4c-.09,1-1,.31-1.73,1.09,2.39-.76,4.29.41,6.33.29l2.2.66h0a3.18,3.18,0,0,0,2.24.79s0,.08,0,.12a1.34,1.34,0,0,0,1.41.61l.32-.25h0l.25.14,1.46.56h0l.57.26a2.87,2.87,0,0,0,1.72.84h0c.62-.08,1,.85,1.72.38.69.27,1.15,1,2,1h.3l0,.09.08,0c-.13.23-.44.29-.6.49l0,0a.54.54,0,0,0-.28,0,.24.24,0,0,0-.24-.07c-1-.29-1.81-1-2.89-.8l-1.41-.57a.55.55,0,0,0-.37-.09,8.16,8.16,0,0,0-2.78-.76h0a29.8,29.8,0,0,0-6-1.45l-.89-.23a13.32,13.32,0,0,0-6-1.41h0l-1-.07h0a2.42,2.42,0,0,0-2.75-.31l-.22-.2a7.47,7.47,0,0,0-2.8-.85c-.77-.52-1.74-.18-2.53-.61h0a63.5,63.5,0,0,0-9.51-1.07c-5.22-.09-10.44,0-15.66,0-.45,0-1-.16-1.34.26l-5.2.81h-.5a3,3,0,0,0-2.35.57h0a1.5,1.5,0,0,1-1,.24h0c-1.33-.6-2.45.3-3.66.55a.65.65,0,0,0-.45.06l-2.72.78a.45.45,0,0,0-.36.11h0l-1.53.52h0a8.88,8.88,0,0,0-4,1.42A4.33,4.33,0,0,0,70,11h0a8.62,8.62,0,0,0-3.42,1.47h0c-.85,0-1.46.66-2.26.84h0a16.6,16.6,0,0,0-2.84,1.39,1.3,1.3,0,0,0-1.37.66h0c-.83-.11-1.34.56-2,.83h0L56.61,17a.21.21,0,0,0-.21.06l-4.31,2.23h0L45.8,23h0l-3.36,2h0c-.56,0-.75.59-1.19.8a.23.23,0,0,0-.22.07l-2.38,1.64h0c-.18.19-.36.37-.55.55a.46.46,0,0,0-.21.08,4.6,4.6,0,0,0-1.79,1.36c-1.16.5-1.85,1.58-2.83,2.3h0c-.5.47-1.26.57-1.68,1.15h0c-.45-.05-.38-.27-.3-.48a.52.52,0,0,1,.11-.1l.25-.27.05-.07a.69.69,0,0,0,.45-.68l0,0a2.26,2.26,0,0,1,.3-.55l.07-.08a4.72,4.72,0,0,1,.37-.41C33.24,30,33.68,29.66,33.73,29.1ZM81.78,7.46Zm.51,0h0a0,0,0,0,0,0,0Zm6-.57,0,0h0l0,0ZM77.15,9.42h0v0ZM57.5,17.55h0s0,0,0,0,0,0,0,0ZM36.75,29.62ZM28.18,35.3h0ZM23,44.92s0,0,0,0c1.13-.5,1.4-1.57,1.67-2.65,0,0,0-.05-.06-.08l.23-.26v0c1.29-.27,1.66-1.45,2.3-2.37a.8.8,0,0,1,0-.31,3.84,3.84,0,0,0,.82-1c.67.06,1-.47,1.38-.85,1.22-1.19,2.43-2.39,3.61-3.61.38-.4,1-.65,1.08-1.27.19.12.37,0,.55-.12l.3-.25a11.57,11.57,0,0,0,1.53-1.52,1,1,0,0,1,.12-.17c.3-.13.49-.46.8-.54h0c.91-.21,1.75-.51,2-1.55h0A3.66,3.66,0,0,0,42.3,26.4a.46.46,0,0,0-.07-.16h0a.42.42,0,0,0,.51,0,.43.43,0,0,0,0-.33l.17-.15a1,1,0,0,0,.18.06,4.7,4.7,0,0,0,3.3-2.12s0,0,0,.05a.74.74,0,0,0,.36,0c1.88-.75,3.51-2,5.32-2.86a1.44,1.44,0,0,0,.88-.86l0-.1h.11l.08,0,.15.1a7.49,7.49,0,0,0,2.49-1c.56-.43,1.3-.59,1.74-1.2a.5.5,0,0,0,0-.12,4.81,4.81,0,0,0,2.83-1.4h0a.44.44,0,0,0,.25.1,4.56,4.56,0,0,0,2.62-1.46.18.18,0,0,0,0-.11h0a.24.24,0,0,0,.1.1,1.3,1.3,0,0,0,1.16-.15c1.83-1,4-1.3,5.6-2.73a.13.13,0,0,0,0-.06c1,.56,1.72-.2,2.5-.64a1.36,1.36,0,0,0-.08-.28l.07,0h0a.42.42,0,0,0,.16-.19h0c0,.06-.1.13-.16.19a.94.94,0,0,0,.81-.15l.49-.07a1,1,0,0,0,.66-.34.48.48,0,0,0,.09.11c.6.2,1-.23,1.55-.4l.33-.15c.23-.13.51-.18.66-.41l.66-.2a.53.53,0,0,0,.12,0L80,8.85h0V8.79a.87.87,0,0,1,.22.21,4.16,4.16,0,0,0,2.39-.71v0a6.68,6.68,0,0,0,2.13-.38,6.09,6.09,0,0,1,1.42-.21c.26-.1.52-.17.79-.25l.42,0a.35.35,0,0,1,.17-.09l-.17.09a4.57,4.57,0,0,0,2.47-.45,2.82,2.82,0,0,0,.71-.09,1.24,1.24,0,0,0,.6-.11,1.84,1.84,0,0,0,.25.09,1.41,1.41,0,0,0,.41,0c.05.1.07.21-.12.32h0c-.52.07-1.21-.35-1.46.5a.32.32,0,0,1-.27,0c-.68-.42-1.18,0-1.72.35h0l-.69.23s-.11,0-.18.06L86,8.6a.43.43,0,0,1,0,.07.75.75,0,0,0-.49.05,1,1,0,0,0-.08.11c-.5-.12-.89.25-1.34.31a1,1,0,0,1-.09.24h0c-.39,0-.81,0-1.12.3L81.76,10a.65.65,0,0,1-.05.21l-.31.27-.49.08c-.47-.19-.76,0-.89.46l-.55.1a6.47,6.47,0,0,0-3.21,1.35h0A10.27,10.27,0,0,0,73.2,14c-.7-.12-1,.52-1.49.78h0c-.72,0-1.15.61-1.73.89h0l-.86.56c-.72,0-1.07.74-1.72.87a.48.48,0,0,1,.21.07l0,.06v0l-.16-.09-3.92,2.26c-1.47,1-3.2,1.66-4.58,2.85l-.31.26h0a5.31,5.31,0,0,0-2,1.13h0c-.72,0-1.15.56-1.67.92l-.58.54a4,4,0,0,0-2.26,1.47c-.65,0-.92.59-1.41.85-.46-.08-.58.38-.89.55h0a1.43,1.43,0,0,0-1.4.85h0c-.39.49-1.13.56-1.41,1.17a14,14,0,0,0-2.82,2l-2.31,2c-.84.35-1.29,1.16-1.94,1.73a.24.24,0,0,0-.09.22,5.37,5.37,0,0,0-1.71,1.71l-.27.28a7.82,7.82,0,0,0-1.76,2,.82.82,0,0,0-.53.53h0a16.4,16.4,0,0,0-2.29,3.14A18.33,18.33,0,0,0,31,46.88a3.19,3.19,0,0,0-1,1.49h0a5.88,5.88,0,0,0-1.34,2.2h0A6.61,6.61,0,0,0,27.35,53a18.11,18.11,0,0,0-2.29,4.27c-.66.61-.8,1.52-1.25,2.26h0a.23.23,0,0,0-.13.33l-.05.53a5.2,5.2,0,0,0-1.16,2.29l-1.05,2.3a.31.31,0,0,0,0,.28.23.23,0,0,0,0,.24,2.47,2.47,0,0,0-.55,1.18h0c-.21.87-1,1.55-.91,2.52-.37.74-1,1.4-.8,2.32-.2.45-.7.78-.61,1.36a28.59,28.59,0,0,0-1.42,4.34l.14,0s0,.08,0,.11l-.12-.08-.2,0c0,.28-.07.57-.13,1l-.45-.78,0-.83c.61-5.36-.23-10.8.64-16.15l0-.2c.06-.34.1-.68.17-1l.06-.75s0,0,0,0a.42.42,0,0,0,.12,0,.87.87,0,0,0,.52-1.07.48.48,0,0,1-.23-.08l.14,0h0c.14-1,.91-1.8.85-2.86l-.13.2a.31.31,0,0,1,.13-.2h0l0-.09s.07.08.12.1c.41-.1.43-.46.51-.79,0-.13,0-.27.05-.41a2.8,2.8,0,0,0,.25-1.33h0A1.37,1.37,0,0,0,20,50.7c.13-.5.59-.86.57-1.42a.68.68,0,0,0,.2-.18.05.05,0,0,0,0,0,2.14,2.14,0,0,0,.13-.19,2.65,2.65,0,0,1,.54-.66A11,11,0,0,0,23,44.92ZM5.13,84.57Zm-1.47,4.2,0,.19a.42.42,0,0,1-.24,0Zm0,41.89,0,0v0Zm1.53,5.1h0Zm-1.52-5.84h0l-.08-.1h.09v.09ZM1.39,112.77l0-.07h0v.08Zm0-1.68h0s0,0,0,0h0v0Zm0-10v0l0,0,0,0h0Zm.83,20.73v0h0Zm5.33,23.44H7.47v0Zm-.2-2.48H7.28a.43.43,0,0,1,.09-.1ZM33.2,178.34h0l0,0,0,0Zm27.27,16.34a2,2,0,0,0-1.66-.85l-.16.13s0,0,0,0h0a.2.2,0,0,0,.11-.17,1.41,1.41,0,0,0-1.36-.61,1.17,1.17,0,0,0-.2.06l-.19-.15a.17.17,0,0,0,0-.14c-.23-.52-.75-.67-1.2-.89-1.08-.54-2.28-.78-3.33-1.4-.1-.09-.37.27-.34-.12a1.5,1.5,0,0,0-1.3-.73.42.42,0,0,0-.18.14,4.74,4.74,0,0,0-3.37-2,.34.34,0,0,0,0-.28,5.22,5.22,0,0,0-2.52-1.11c.06-.39-.21-.6-.46-.78a33.25,33.25,0,0,0-4.67-3,.81.81,0,0,0-.31,0,32.57,32.57,0,0,0-2.91-2.29c-.1,0-.17.12-.22.09s0-.13,0-.18a6.62,6.62,0,0,0-2.64-2.19.43.43,0,0,0-.27,0,11.45,11.45,0,0,0-4.05-3.52.58.58,0,0,1-.22,0c-.18-1.18-1.27-1.54-2-2.2a1,1,0,0,0-.24,0,4.64,4.64,0,0,0-2.52-2.9c-.05-.1-.1-.2-.14-.3-1.1-1.25-1.92-2.75-3.39-3.65h0a4.42,4.42,0,0,0-2.09-2.83l-.14,0a4.7,4.7,0,0,0-2.18-3.08.84.84,0,0,0,.08-.32A18,18,0,0,0,14.2,156a.36.36,0,0,0-.23,0,4.14,4.14,0,0,0-2.16-3.37h-.06c-.09-.37-.42-.59-.65-.88v-.52a.5.5,0,0,0,.17-.27,3.83,3.83,0,0,0-1-1.7,1.43,1.43,0,0,1,.11-.15,4.22,4.22,0,0,0-1.21-2.6.29.29,0,0,1,0-.09,11.9,11.9,0,0,0-.77-1.75.39.39,0,0,0-.11-.06,1.69,1.69,0,0,0-.71-2.19.75.75,0,0,0,0-.3c-.67-2.08-1.15-4.22-2-6.24a.48.48,0,0,0-.17-.12c0-1.29-.6-2.43-.83-3.65a6.16,6.16,0,0,1-.69-2.44.94.94,0,0,0,.08-.41,1.36,1.36,0,0,0-.08-.39,3.31,3.31,0,0,1-.36-1.77,2.11,2.11,0,0,0-.29-1.25.28.28,0,0,0-.12,0A8.06,8.06,0,0,0,2.7,123a3.21,3.21,0,0,0-.21-.85,5.77,5.77,0,0,1-.13-1.25h0c0-.35,0-.7-.07-1.05.18-1.84-.79-3.55-.59-5.4h0c.23-6.36-.46-12.74.48-19.08v0c0-.23.06-.45.09-.67a.71.71,0,0,0,.17-.21.47.47,0,0,0-.11-.5v0a.34.34,0,0,0,.12.06,1.31,1.31,0,0,0,.43-1.75v0a.31.31,0,0,0,.13.06c.77-.86.74-2,1-3a2.18,2.18,0,0,0-.09-.23,3.06,3.06,0,0,0,.86-2.29,1.22,1.22,0,0,0-.24-.27c-.06-.15-.13-.31-.2-.46l.26-.31a1.89,1.89,0,0,0,.55-1.17h0c.29-.95.58-1.89.86-2.84H6c0-.26,0-.52,0-.77h0c.88-1.12.93-2.52,1.36-3.8a.43.43,0,0,0,0-.25h0a49.76,49.76,0,0,0,2.24-6l.59-1.14a.27.27,0,0,0,.08-.2l.84-2h0c.1-.83.88-1.43.8-2.32h0a1.81,1.81,0,0,0,.59-1.14h0l2.25-5.15v0h0l.89-1.7h0c.35-.23.52-.12.54.28a1.27,1.27,0,0,1-.06.28c-.39.42-.21.93-.24,1.4h0a6.49,6.49,0,0,0-.6,2.56h0c-.55.8-.29,1.75-.36,2.61A68.51,68.51,0,0,0,14.61,73c.1,2.76.39,5.52.55,8.29.1,1.74-.9,3.26-.67,5h0a21.18,21.18,0,0,0-1.34,8.92c0,1-.05,2-.07,3.07h0a15.17,15.17,0,0,0-.83,4.53q0,9.36,0,18.71a12,12,0,0,0,.8,4.4s.07-.09.12-.13v.11h0l-.13,0a15.35,15.35,0,0,0,.87,6h0l.06.81c-.21,1.53.63,2.86.8,4.31a.53.53,0,0,0,.05.25,2.49,2.49,0,0,0,.53,2.05h0a5.61,5.61,0,0,0,.87,3.38.62.62,0,0,0,0,.27,2.14,2.14,0,0,0,.55,2h0a.29.29,0,0,0,0,.24h0a2.72,2.72,0,0,0,.79,2.34h0l.06.51c-.11.9.55,1.53.82,2.29h0a6.23,6.23,0,0,0,1.41,3.16h0a.43.43,0,0,0,0,.25,1.1,1.1,0,0,0,.22.21h0l-.22-.21a1,1,0,0,0,.56,1.16h0a1,1,0,0,0,.27.86h0l1.46,2.81a3.93,3.93,0,0,0,.84,1.42l.57.85.77,1.13h0a7.79,7.79,0,0,0,1.51,2.29l.85,1.14.31.53a3.59,3.59,0,0,0,1.71,2.31L30.48,170l.51.33h0c.18.92,1.15,1.19,1.55,1.92l1.34,1.19.28.28a4.09,4.09,0,0,0,1.94,1.71,1.41,1.41,0,0,0,.91.93h0l.2.21,1.5,1.22h0L39,178l.3.25,1.7,1.44h0A17.47,17.47,0,0,0,43.84,182a.38.38,0,0,1,0-.27,2.48,2.48,0,0,1,0,.27l.29.2a36.15,36.15,0,0,0,5.41,4.05h0l1.16.83c1.13.78,2.25,1.57,3.37,2.36h0l.33.18a16.88,16.88,0,0,0,2.51,1.76h0a26.76,26.76,0,0,0,3.73,2.28h0a3.4,3.4,0,0,0,1.46.81h0l.28.28c-.19.33-.51.28-.81.32a.31.31,0,0,0-.08-.15A1,1,0,0,0,60.47,194.68Zm1.11.63Zm-.62.57h0a1,1,0,0,1,0,.1Zm22.19,8.33s0,0,0,0v0Zm3-.43h0Zm8.38,4.07Zm-1.73.55h0l-.06.08Zm1.91-.68c-.1,0-.13.12-.15.23s0-.08,0-.11h0a1.05,1.05,0,0,0-.24-.06l-1.76-.5h-1l-.34-.29h0a.53.53,0,0,0,0-.22,1,1,0,0,0-1.28-.44c-.59-.73-1.48-.57-2.27-.68l-.15,0a.3.3,0,0,0-.1-.22,1.58,1.58,0,0,0-.61-.18c-.43-.14-.92-.12-1.36-.24a.52.52,0,0,1-.21,0c0-.32-.2-.45-.45-.56a1.25,1.25,0,0,1-.25-.09c0-.12.16-.19.38-.22h0l1.09.07h0a1.85,1.85,0,0,0,1.21.49h0l4.22,1,0-.11h0l-.07.11a11.75,11.75,0,0,0,4.8.83h0a2.38,2.38,0,0,0,1.72.57h0l4.62.8.59-.06.12,0h.13a10.12,10.12,0,0,0,2.52.09,5.88,5.88,0,0,0,2.89.55c.45.38,1,.25,1.5.25,3.32,0,6.64,0,10,0H127v.19l-.87.33h0l-2.18.08a.2.2,0,0,0,0-.07,1,1,0,0,0-.41-.25,4.91,4.91,0,0,0-1.83-.07,73.51,73.51,0,0,1-10.59.51,42.44,42.44,0,0,1-4.37-.05l-1.33-.15c-.46-.07-.91-.14-1.37-.25a2.53,2.53,0,0,0-1.44,0,21.69,21.69,0,0,0-2.28,0,.44.44,0,0,0-.14-.22C98.49,207.82,96.58,208,94.76,207.72Zm5.5,1.56ZM159.48,203v0h0Zm1.42,0h0v0Zm-3.38-.24,0,0h0Zm-15.14,3.62h0a.22.22,0,0,1-.09.1Zm26.72-6.53,0,0,0,0Zm5.25-4c-.65.41-1.69.37-1.83,1.43h0c-.31,0-.64-.06-.86.25h0c-.62,0-.92.87-1.64.64l-2,.83-.16-.06a8.21,8.21,0,0,0-3.92,1.37c0,.06.05.08.07.12H164a5.81,5.81,0,0,1-1.9.62c-.05-.06-.08-.13-.15-.16a.77.77,0,0,0-.92.6s0,.05,0,.07c-.86.15-1.81,0-2.43.85h0l-1.36.07h0l-3,.73c-.41.1-.81.21-1,.67l-.69.23h0a31.3,31.3,0,0,0-5.62,1.43,4,4,0,0,0-2,.55,8.13,8.13,0,0,0-2.5.31h0c-.49-.16-.9.11-1.34.26H141a2.78,2.78,0,0,0-.49.08c-10.07,1.11-20.18.74-30.28.82h0a11.44,11.44,0,0,0-4.27-.58l-2.79,0h0a9.38,9.38,0,0,0-4.61-.81c-.75-.3-1.45-.95-2.33-.35h0l-.48-.25h0c-1.45-.22-2.78-1-4.31-.83l-1.69-.58h0c-.51-.42-1.14-.17-1.71-.3a1,1,0,0,0-1.16-.53h0a9.9,9.9,0,0,1-2.32-.4,32.07,32.07,0,0,0-3.67-1l-.84,0h0a.85.85,0,0,0,0-.16,3,3,0,0,0-3.3-.85.47.47,0,0,0-.1.1,1.78,1.78,0,0,0-1.72-.51l-.5-.05h0a.9.9,0,0,0-1-.84,1.72,1.72,0,0,1-.33-.26,4.14,4.14,0,0,0-3-1.15h0s0,0,.07-.07a8.64,8.64,0,0,0-4.86-2.79l0,0v0h0l-.62-.48c-1.67-1.53-3.78-2.38-5.67-3.58-.4-.24-.74-.79-1.35-.61l-.1.07a1.32,1.32,0,0,0-.8-.56c-.24-.68-.56-1.26-1.46-1h0l-.49-.2-.29-.22-.91-.84a.28.28,0,0,0-.05-.23h0c0-.1,0-.21,0-.32a1.15,1.15,0,0,1-.26,0c-.4-.15-.65-.63-1.17-.52h0l-.52-.32h0L47,183.38c-.3-.41-.58-.83-1.16-.86h0l-1.39-.88-.27-.3a10.36,10.36,0,0,0-2.55-2.3h0l-2-1.63a.11.11,0,0,0-.16,0c-.24-.39-.44-.82-1-.84h0l-.62-.55a1.46,1.46,0,0,0-.82-.85,1.39,1.39,0,0,0-1.12-.84h0l-1.09-1.23h0l-1.43-1.41h0a.3.3,0,0,0,0-.21l-.85-1.14-.57-.3h0l-.49-.32h0a2.72,2.72,0,0,0-1.22-1.37h0c-.47-.58-1-1.15-1.42-1.72l-1.35-1.77h0l-2.35-3.33c-.67-.46-.66-1.44-1.4-1.85h0c-.44-1.88-1.6-3.42-2.49-5.08h0a15.73,15.73,0,0,0-1.2-3.19h0c-.62-.7-.38-1.71-.88-2.45l-1.41-4.56-.55-1.53h0a2.68,2.68,0,0,0-.57-2.18c-.1-1.38,0-2.8-.86-4l0-.51a15.88,15.88,0,0,0-.94-5.11c0-.1.06-.2.08-.3-.07-2.1-.84-4.12-.58-6.24a.26.26,0,0,0-.23-.06v0h0l.23.08a23.79,23.79,0,0,0-.23-5.06c0-.28-.56-1.2.56-1l.24.32c0,.17,0,.34.07.51a1.5,1.5,0,0,0,.31,1.44l-.12.31s0,0-.06.1,0,.11.12.14a14.39,14.39,0,0,1,1.14,3.16h0a1.14,1.14,0,0,0,.52,1.22h0a2.08,2.08,0,0,0,.27,1.15h0a.18.18,0,0,0,0,.2,1.88,1.88,0,0,0,.54,1.24h0l.06.47c-.13.91.61,1.53.8,2.33h0c-.07.34.21.54.34.8A16.89,16.89,0,0,0,20,135h0c-.09.58.55.87.56,1.41s-.1,1.13.54,1.44h0a1.31,1.31,0,0,0,.34.85l.15.33c.22.46.44.93.65,1.39h0a14.18,14.18,0,0,0,1.41,2.84,22.15,22.15,0,0,0,2.3,4.84h0l.25.3h0l.57,1.18.31.28c0,.21-.05.42.17.55l1,1.75h0c.54.35.44,1.21,1.14,1.43h0a5.41,5.41,0,0,0,1.67,2.5,14.17,14.17,0,0,0,2.34,3.11,15.59,15.59,0,0,0,2.24,2.62l.28.27c.41.46.81.92,1.22,1.37l2.48,2.39,1.38,1.37h0a.7.7,0,0,1,.11.23c.83.49,1.33,1.39,2.25,1.75h0l.3.24a6,6,0,0,0,1.69,1.45l.34.47.76.44h0a4.52,4.52,0,0,0,2,1.39,51.65,51.65,0,0,0,6.24,4.56h0a17.06,17.06,0,0,0,3.76,2.52l.26.19h0l.34.38.56.2h0l1.41.91a.28.28,0,0,0,.23.07c.4.42.76.91,1.45.84a.21.21,0,0,1,0,.2l.56.33a.26.26,0,0,0,.15.1,3.94,3.94,0,0,0,1.55.76h0a2.27,2.27,0,0,0,1.69.9c.48.71,1.38.66,2,1.12l.55.3a.66.66,0,0,1,.09.19c.38,0,.62.48,1.06.37.38.24.66.66,1.19.66h0l.26.08h0l1.14.61h0l2.18.94h0a1.57,1.57,0,0,1,.17.21l3.33,1.2a3.18,3.18,0,0,0,1.65.57l.33.27a1.89,1.89,0,0,0,1.16.57h0a10.7,10.7,0,0,0,2.35.74l.48.13h0l1.41.68h0l.33.11.55,0,.78.06h0c.37.29.71.64,1.25.47h0a.57.57,0,0,0,.25.06c.39.37.89.26,1.35.32h0c.65.77,1.53.53,2.35.54l.51,0h0c2.68,1.06,5.54.93,8.32,1.32h0c.47,0,.94.07,1.41.07,4.45,0,8.9,0,13.35,0,8.56.07,17.12.2,25.68,0H143c3.1.24,6.09-.67,9.14-.85a5.17,5.17,0,0,0,1.44-.54l.81,0a18.1,18.1,0,0,0,6-1.39l.53-.05c.66.06,1.32.12,1.78-.52h0l1.37-.29a1.15,1.15,0,0,0,1.19-.56h0c.46-.08,1,0,1.37-.31h0l1.7-.59.57-.26h0l1.48-.54h0a1.37,1.37,0,0,0,.9-.57h0c1,.19,1.57-.79,2.47-.88l4.84-2.29.86-.54h0a24.45,24.45,0,0,0,5.92-3.17h0l.33-.29a10.15,10.15,0,0,0,4-2.56,13.5,13.5,0,0,0,2.68-1.67.28.28,0,0,1-.2,0h0s0,0,0,0h0l.19.06c.9-.65,2-1,2.52-2.15.9-.06,1.37-.76,2-1.3.59,0,.84-.47,1.18-.81.31-.09.26-.37.34-.59.7.11,1-.42,1.39-.84h0a3.46,3.46,0,0,0,1.66-1.43c.48,0,.67-.45,1-.63l1-1a5.2,5.2,0,0,0,1.44-1.72.65.65,0,0,0,.23-.06c.78.63-.42.92-.25,1.45-.18.38-.37.76-.56,1.14a.19.19,0,0,0-.07.2v0a.15.15,0,0,0-.07,0,7.17,7.17,0,0,0-2.13,3.4h0a.62.62,0,0,0-.18.35v0c-1,.45-1.33,1.45-1.8,2.33-.05.12-.11.24-.17.36l-.17.18a3.55,3.55,0,0,0-.23.31,3,3,0,0,1-.37.49,2.2,2.2,0,0,0-.2.23c-.17.17-.35.32-.54.48a.87.87,0,0,0-.25.47,1.79,1.79,0,0,0-.69.8h0s0,0,0,0a.92.92,0,0,0-.77.47,5.19,5.19,0,0,1-.49.55c-.12.11-.24.22-.35.34a3.85,3.85,0,0,1-.71.48.68.68,0,0,0-.3.5h0c-.41.4-1,.56-1.32,1.09h0a3.12,3.12,0,0,0-1.75,1.42h0a9.06,9.06,0,0,0-2.25,1.68c0,.07.08.1.13.15h-.05l-.08-.16a9.47,9.47,0,0,0-2.27,1.76l-.86.54h0l-.56.47h0a5.7,5.7,0,0,0-1.7,1c-.4.35-1,.4-1.28.93h0a10,10,0,0,0-3,1.87c-.73,0-1.15.58-1.73.85h0c-.59,0-.87.46-1.17.87l-.48.06a.42.42,0,0,0-.29-.18A3.54,3.54,0,0,0,174.35,195.86Zm10-5h0a.48.48,0,0,0-.1.12.34.34,0,0,1,0-.14Zm30.09-30h0Zm2.17-5.26a1.49,1.49,0,0,0,.13.25l-.06.39a.44.44,0,0,0-.23,0c-.48.25-.89.54-.6,1.16,0,0-.07,0-.11,0a2.09,2.09,0,0,0-.7,1.15c-.05.24-.12.47-.18.71l-.21.4h0a2.46,2.46,0,0,0-.51,1,1.08,1.08,0,0,0-.19,0,4.35,4.35,0,0,0-2,3c-.4.08-.59.31-.45.78,0,0,0,.05,0,.07a.29.29,0,0,0-.1,0,3.12,3.12,0,0,0-1.65,2.35h0a.86.86,0,0,0-.71.45,3.6,3.6,0,0,1-.31.54,1.27,1.27,0,0,0-.27.34c-.05.06-.09.12-.15.18a3.46,3.46,0,0,0-.22.31.64.64,0,0,1-.08.14,1.1,1.1,0,0,0-.41.79h-.07c-.34.19-.61.42-.58.84h-.2a4.93,4.93,0,0,0-1.89,1.65l0,0a1,1,0,0,1-.15-.46h0c0-.17,0-.34,0-.51h0c.42-.28.84-.56.9-1.13h0c.18-.29.35-.59.52-.88h0c.5-1.17,1.45-2.12,1.69-3.42h0q1.44-1.83,2.86-3.68h0c.39-.31.83-.58.82-1.17a7.61,7.61,0,0,0,1.43-1.72,4.54,4.54,0,0,0,1.48-1.93c.34-.41.69-.82,1-1.22h0a2.27,2.27,0,0,0,1.13-1.72c.39-.39.84-.73.88-1.33,0,0,.08,0,.12,0a7.75,7.75,0,0,0,.46-.66s0,0,.1.05A9.25,9.25,0,0,0,216.6,155.63Zm6-11.79,0-.06v.06Zm6.3-18.57v0l.05,0Z"/><polygon class="cls-1" points="218.97 148.34 218.98 148.34 218.98 148.34 218.97 148.34"/><polygon class="cls-1" points="24.77 60.34 24.77 60.34 24.76 60.35 24.77 60.34"/><polygon class="cls-1" points="204.18 74.04 204.18 74.04 204.18 74.04 204.18 74.04"/><polygon class="cls-1" points="157.2 187.08 157.2 187.08 157.2 187.08 157.2 187.08"/><path class="cls-1" d="M24,117.89l.81-.47c-5.28-9.1-7.31-20.67-5.84-32.5A98.16,98.16,0,0,0,36.15,74.53a.47.47,0,0,0,.08-.73c-6.95-6.48-12.9,5.32-16.71,9.25a32.33,32.33,0,0,0,.3-3.4c.08-.39.15-.77.24-1.15a63.78,63.78,0,0,1,2.52-8.26h.14a21.49,21.49,0,0,0,11.25-9,.46.46,0,0,0-.3-.67,6.94,6.94,0,0,0-7.23,1.48c.51-.89,1-1.77,1.59-2.63a.49.49,0,0,0,.46-.09c2.38-2,5.11-4,8.3-3.62a.49.49,0,0,0,.47.08l.17,0c.66,1.67,2,4.21,3.77,4.5a1.55,1.55,0,0,0,1.7-.8c.35-.82-.71-1.91-.63-2.62a1.42,1.42,0,0,0,1.46-2.37A16.52,16.52,0,0,1,45,53.5c.34-.24.23-.93-.27-.86a27.35,27.35,0,0,0-7.57,2.22c-2.93-.5-5.51.89-7.81,2.63A47.31,47.31,0,0,1,40.3,46.38c.18-.1.37-.16.56-.25a.7.7,0,0,0,.19-.06,25,25,0,0,0,18.78,2,.47.47,0,0,0,.19-.78,18.73,18.73,0,0,0-17.39-2.87,29.78,29.78,0,0,0,5.15-13.29.47.47,0,0,0-.48-.57c-3.17,0-4.49,4.29-5.55,6.61-1.16,2.56-2.89,5.49-1.63,8.2l-.31.22-.07,0a.39.39,0,0,0-.15.13,45.9,45.9,0,0,0-6.67,5.92A45.28,45.28,0,0,0,36.05,40a18,18,0,0,0,2.41-6.91.47.47,0,0,0-.59-.55,8,8,0,0,0-1.54.53l-.43-.54c-.23-.28-.78-.3-.85.15,0,.19-.06.39-.11.58-.06.54-.48.8-1.25.79a.47.47,0,0,0-.91.16A1.8,1.8,0,0,1,31.43,36a.47.47,0,0,0-.25.69,5.11,5.11,0,0,0,4,2.7c0,.14,0,.27-.06.41a.43.43,0,0,0,0,.11,44.41,44.41,0,0,1-4,13.49.51.51,0,0,0,0,.32,55.72,55.72,0,0,0-7.3,11.36l-.09.14c.28-3,0-6-2-8.5a.47.47,0,0,0-.85.15,14.94,14.94,0,0,0,.76,12.19.43.43,0,0,0,.2.36.91.91,0,0,0,.07.14,60.86,60.86,0,0,0-2.21,6.77,8.06,8.06,0,0,0-3.51-5.95.47.47,0,0,0-.68.3,16.62,16.62,0,0,0,2.7,12.93C16.37,96.07,18.4,108.31,24,117.89Zm19.14-64-.18.14a.21.21,0,0,0,0-.11Zm-4.45,1.51a1.27,1.27,0,0,0,.1.12.44.44,0,0,0-.29.34c-.07-.15-.14-.3-.2-.45l.35-.15A.33.33,0,0,0,38.65,55.39Zm2.77.77.22-.07a1.53,1.53,0,0,0-.16.22A.47.47,0,0,0,41.42,56.16Zm.35-1.37.66-.27a.51.51,0,0,0,.06.36Zm-1.87,0h-.06l.06,0ZM41,59.3l-.67-.56a9,9,0,0,1-.92-1.12c-.1-.13-.16-.28-.25-.41A7.62,7.62,0,0,0,41.27,59Zm.7-1.26a8.55,8.55,0,0,0-1.5-1.32l.71.16a.42.42,0,0,0,.37-.09.79.79,0,0,0,0,.22A4.29,4.29,0,0,0,41.72,58Zm.5-2.15.06,0h0l0,0Zm-7-18a1.11,1.11,0,0,0,0-.17,2.72,2.72,0,0,0,.47-.19c-.05.2-.1.41-.14.62Zm.55-2.47s0,0,0,.07a1.55,1.55,0,0,1,.06.4,8.39,8.39,0,0,1-.81-.5.85.85,0,0,0,.25-.25A.45.45,0,0,0,35.8,35.37Zm1.44-1.65.17,0c0,.08,0,.16,0,.24A.64.64,0,0,0,37.24,33.72Zm-1.44.2A.66.66,0,0,0,36,34l-.09.08a.7.7,0,0,0-.1-.08l-.08,0,0-.17Zm-2,1.67a1.29,1.29,0,0,0-.52.1,2.49,2.49,0,0,0,.2-.4A.84.84,0,0,0,33.81,35.59Zm0,1a.45.45,0,0,1,.27.27H34A2.06,2.06,0,0,1,33.86,36.55Zm-.23,1.37,0,0-.25-.13Zm-.83-1.64s0,0,0,.08.09.19.12.3l-.18,0a.41.41,0,0,0-.41.11l0-.07A3.34,3.34,0,0,0,32.8,36.28Zm25,10.55c1,.66.82,1-.49.89a15.13,15.13,0,0,1-2.32.36,22.78,22.78,0,0,1-3.6.06,23.86,23.86,0,0,1-9.25-2.57,17.52,17.52,0,0,1,7-1.29C51.11,44.33,56.42,44.91,57.77,46.83Zm-15-9.71c.38-.8.76-1.6,1.18-2.39s2.36-4.17,2.67-2.23c.27,1.74-1.29,5-2,6.52a29.25,29.25,0,0,1-3.5,5.8l-.09-.14-.19.13C39.87,42.3,41.74,39.4,42.79,37.12Zm-10,24.2a20.4,20.4,0,0,1-9.71,7.75l.06-.28c.47-1.15,1-2.27,1.52-3.37C26.62,62.62,29.27,60.4,32.81,61.32ZM21.43,58.07c1.71,2.72,1.61,6,1.08,9.11l-.44.82A14,14,0,0,1,21.43,58.07Zm13.72,16a100,100,0,0,1-14.23,8.77C24.4,78.69,29.42,69.45,35.15,74.11ZM16.26,71.63c2.18,1.76,2.71,4.87,2.64,7.84-.2.94-.38,1.88-.53,2.82A15.56,15.56,0,0,1,16.26,71.63Z"/><path class="cls-1" d="M213.41,146.19c-.72-2.1-3.35-2.35-5.14-1.74-2.57.89-4.79,3.07-6.69,5.17a48.69,48.69,0,0,0,4-9.23c.25-.78.46-1.56.66-2.34a.38.38,0,0,0,0-.19,47.84,47.84,0,0,0,1.42-8.55c4.51-1.5,12.69-6.65,10.21-12.43-2.79-6.5-8.7,5.76-10.08,9.5a47.58,47.58,0,0,0-.46-7.35.37.37,0,0,0,0-.11c0-.12,0-.25-.07-.38,0-.29-.09-.58-.14-.86-.14-.81-.29-1.61-.46-2.41,0-.06,0-.12,0-.18h0a13.81,13.81,0,0,0-2.91-6.29c-1.66-1.89-6-4.73-8.68-3.55-6.2,2.73,9.87,13.8,11.27,15a.34.34,0,0,0,.24.09,47.55,47.55,0,0,1-.75,15.37,28.06,28.06,0,0,0-2.35-7.37c-.76-1.42-2.64-4.66-4.69-3.64-2.25,1.12-.64,4.74-.08,6.26a31.72,31.72,0,0,0,5.73,9.6l.07,0a47.42,47.42,0,0,1-7.87,14.6,17.35,17.35,0,0,0,.64-7.54c-.32-2.21-1.42-6-3.9-6.79s-2.12,3.09-2,4.53a31.25,31.25,0,0,0,3.8,11.34.35.35,0,0,0,.06.14,47.52,47.52,0,0,1-4.93,4.9l.61.71a48.11,48.11,0,0,0,8.93-10.13,20.26,20.26,0,0,0,9.12-1.25C210.92,150.34,214.3,148.82,213.41,146.19Zm-2.08-25.52a24.19,24.19,0,0,1,1.86-2.53,13.43,13.43,0,0,1,1.38-1.54c2.33.58,3.2,1.63,2.63,3.16-.25,4.12-5.81,7.31-9.39,8.55,0-.15,0-.31,0-.47a.19.19,0,0,0,.32.07,36,36,0,0,0,4.31-4.76c.17-.22-.19-.45-.36-.23a36.75,36.75,0,0,1-3.42,3.85A24.26,24.26,0,0,1,211.33,120.67Zm-10.81-6.52a38.07,38.07,0,0,1-3.93-3.34,7.89,7.89,0,0,1-1.47-1.93q.38-3.45,2.6-2.57c5.39.21,7.36,5.75,8.33,10.37-.5-.68-1.07-1.32-1.53-1.9a30.9,30.9,0,0,0-4.94-5.09c-.21-.18-.45.19-.23.36a30,30,0,0,1,4.66,4.77,21.76,21.76,0,0,1,2.26,3c.06.31.11.61.16.91,0,.12,0,.25,0,.37Zm.43,19.48a29.2,29.2,0,0,1-1.6-3.83c-.18-.54-.35-1.09-.5-1.64q-.65-1.18,1.05-1.2c.75-.78,1.31-.76,1.69,0a11.57,11.57,0,0,1,1.11,1.73,17.24,17.24,0,0,1,1.31,3.32c.57,1.88.94,3.82,1.37,5.73-.08.3-.17.6-.25.89-1.08-2.26-1.89-4.63-2.84-6.95-.1-.25-.48-.05-.38.2,1,2.44,1.84,4.94,3,7.3,0,0,0,0,.06.05a2.5,2.5,0,0,0-.07.26A30.35,30.35,0,0,1,201,133.63Zm-8.57,11.65a5.82,5.82,0,0,1-.08-2.08c.38-.81,1.64-.77,2.35-.12,1.59,1.46,1.88,4.8,1.91,6.78a16.2,16.2,0,0,1-.35,3.55c-.33-2-1.26-3.88-1.4-5.92,0-.28-.45-.3-.44,0,.18,2.49,1.53,4.79,1.5,7.27-.07.23-.15.45-.23.68a35,35,0,0,1-2.59-6.46A20.9,20.9,0,0,1,192.38,145.28Zm18.16,4.09c-.42.22-.85.43-1.28.61A17.89,17.89,0,0,1,206,151a19.47,19.47,0,0,1-4.75.44,14.56,14.56,0,0,1,3.32-1.84l3.55-1.65c.25-.12.05-.5-.2-.39-1.77.83-3.81,1.54-5.54,2.57a37.38,37.38,0,0,1,3-2.86,11.57,11.57,0,0,1,2.62-1.76,4.67,4.67,0,0,1,2.17-.5c1.5-.06,2,.63,1.41,2C212,148.29,211.67,149.05,210.54,149.37Z"/></g></g></svg>