<svg xmlns="http://www.w3.org/2000/svg" viewBox="0 0 40.96 42.2"><defs><style>.cls-1{fill:none;stroke:#254179;stroke-miterlimit:10;stroke-width:0.5px;}</style></defs><g id="圖層_2" data-name="圖層 2"><g id="圖層_1-2" data-name="圖層 1"><path class="cls-1" d="M21.15,31H19.81a4,4,0,0,1-4-3.95V23.36a.28.28,0,0,1,.28-.28h8.7a.28.28,0,0,1,.28.28V27A4,4,0,0,1,21.15,31Z"/><path class="cls-1" d="M15.86,23.41a8.65,8.65,0,0,0-2.64-4.47,10.79,10.79,0,0,1-3.29-9A10.94,10.94,0,0,1,19.53.31a5.06,5.06,0,0,1,.95-.06,3.91,3.91,0,0,1,.49,0c.14,0,.28,0,.43,0A10.92,10.92,0,0,1,31,9.9a10.79,10.79,0,0,1-3.29,9,8.72,8.72,0,0,0-2.64,4.47"/><line class="cls-1" x1="15.93" y1="25.13" x2="25.11" y2="25.13"/><line class="cls-1" x1="15.93" y1="26.27" x2="25.11" y2="26.27"/><line class="cls-1" x1="15.93" y1="27.67" x2="25.11" y2="27.67"/><line class="cls-1" x1="17.39" y1="15.66" x2="20.48" y2="23.08"/><line class="cls-1" x1="23.48" y1="15.66" x2="20.39" y2="23.08"/><path class="cls-1" d="M5.39,31.38a15.18,15.18,0,0,0-2.08-3.21c-.81-.67-.45-1.62,1-1.4s3.52,2.89,4.52,4.11A3.35,3.35,0,0,0,11,32.19c3.66.55,4.73.81,6.74,4,2.57,4.06.63,6-2.08,5.78a7.09,7.09,0,0,1-4.16-1.53S7.65,38,6.16,37.3,1.37,29.71.6,27.86s-.18-8.45.9-8.41,1.67.68,1.67,3.08a19.82,19.82,0,0,0,.23,3.52"/><path class="cls-1" d="M35.57,31.38a15.18,15.18,0,0,1,2.08-3.21c.82-.67.46-1.62-1-1.4s-3.52,2.89-4.51,4.11A3.38,3.38,0,0,1,30,32.19c-3.66.55-4.73.81-6.73,4-2.58,4.06-.64,6,2.07,5.78a7.09,7.09,0,0,0,4.16-1.53S33.32,38,34.81,37.3s4.79-7.59,5.55-9.44.18-8.45-.9-8.41-1.67.68-1.67,3.08a19.82,19.82,0,0,1-.23,3.52"/></g></g></svg>