<svg xmlns="http://www.w3.org/2000/svg" viewBox="0 0 41.65 40.27"><defs><style>.cls-1{fill:none;stroke:#254179;stroke-miterlimit:10;stroke-width:0.5px;fill-rule:evenodd;}</style></defs><g id="圖層_2" data-name="圖層 2"><g id="圖層_1-2" data-name="圖層 1"><path class="cls-1" d="M41.33,29.73c-.27-.71-1.42-1.15-2.72-1a3.52,3.52,0,0,0-1,.22c-1.58.49-9.76,3.27-9.82,3.32l-.16.06.1.1c.93.77,1.37,1.59,1.15,2.3-.27,1-1.58,1.58-3.81,1.74a27,27,0,0,1-7.2-.54,6.84,6.84,0,0,1,1,0c2.07,0,4,0,5.51-.11,2.34-.22,3.49-.71,3.65-1.63.05-.55-.28-1-1.09-1.42a19.33,19.33,0,0,0-4.53-1,27.64,27.64,0,0,1-3.16-.54,27,27,0,0,0-9-1.21c-.55.06-1.09.12-1.58.22a71.65,71.65,0,0,0-7.8,1.8l-.33.06L4.36,37.8a13.23,13.23,0,0,1,2.13-.38,14,14,0,0,1,2.67,0c1.09.22,3.76.76,6.38,1.26s5.23,1.09,6.21,1.2a6.08,6.08,0,0,0,1.64,0,11.93,11.93,0,0,0,4-1.47c.38-.28.82-.44,1.15-.66l11.67-6.32c1.3-.76,1.3-1.42,1.14-1.8Z"/><path class="cls-1" d="M29.86,9.07V1.43A.86.86,0,0,0,29,.52h-3.5a.86.86,0,0,0-.84.91v2.9C23.3,3,21.93,1.81,20.63.59c-.53-.45-.76-.45-1.29,0C14.91,4.48,10.48,8.38,6.06,12.34a9.88,9.88,0,0,0-.92.84H7.36v1.45c0,4,.07,8,0,12.06,0,.61.15.76.76.76,2.36-.08,4.65-.08,7,0l3.26,0c-1.21-1-2.08-1.78-2.88-2.58-2.38-2.33-2.18-4.46-2.18-4.46h0a.57.57,0,0,1,0-.13,3.41,3.41,0,0,1,3.39-3.36,3.48,3.48,0,0,1,3.07,2h0a3.49,3.49,0,0,1,3.08-2,3.4,3.4,0,0,1,3.38,3.36v.13h0s.19,2.13-2.18,4.46c-.8.8-1.66,1.56-2.85,2.55l2.62,0H30.7c.61.08.84-.07.84-.53V13.18h2.9C32.92,11.74,31.39,10.36,29.86,9.07Z"/></g></g></svg>