<?xml version="1.0" encoding="UTF-8"?>
<svg id="_圖層_2" data-name="圖層 2" xmlns="http://www.w3.org/2000/svg" xmlns:xlink="http://www.w3.org/1999/xlink" viewBox="0 0 239.07 30.3">
  <defs>
    <style>
      .cls-1 {
        clip-path: url(#clippath);
      }

      .cls-2 {
        fill: none;
      }

      .cls-3 {
        fill: url(#linear-gradient);
      }
    </style>
    <clipPath id="clippath">
      <polygon class="cls-2" points="4.4 10.94 4.4 13.11 2.08 15.44 6.04 19.3 6.04 9.3 10.64 4.65 10.64 23.9 12.22 25.48 12.22 3.12 14.54 .7 16.92 3.07 16.92 25.18 18.45 23.9 18.45 4.7 23.05 9.26 23.05 19.35 27.01 15.44 24.54 13.11 24.54 10.79 29.14 15.39 21.47 23.06 21.47 10.05 19.99 8.46 19.99 24.74 15.34 29.34 15.34 3.86 14.54 3.02 13.75 3.86 13.75 29.34 9.05 24.49 9.05 8.51 7.62 9.95 7.62 22.96 0 15.34 4.4 10.94"/>
    </clipPath>
    <linearGradient id="linear-gradient" x1="4123.9" y1="4734.15" x2="4124.25" y2="4734.15" gradientTransform="translate(-340700.62 391132.36) scale(82.62 -82.62)" gradientUnits="userSpaceOnUse">
      <stop offset="0" stop-color="#c09e6c"/>
      <stop offset="1" stop-color="#fae7ba"/>
    </linearGradient>
  </defs>
  <g id="_圖層_8" data-name="圖層 8">
    <g>
      <g class="cls-1">
        <rect class="cls-3" x="0" y=".7" width="29.14" height="28.64"/>
      </g>
      <g>
        <path d="M38.02,22.42h.88l1.94,2.91,1.92-2.91h.88l-2.42,3.68v3.37h-.74v-3.37l-2.47-3.68Z"/>
        <path d="M48.23,22.14l3.56,7.34h-.82l-1.2-2.41h-3.29l-1.19,2.41h-.85l3.6-7.34h.19Zm-.1,1.56l-1.31,2.65h2.6l-1.3-2.65Z"/>
        <path d="M52.84,25.98c0-.68,.18-1.31,.53-1.89,.35-.58,.84-1.03,1.46-1.36,.62-.33,1.29-.49,2.01-.49s1.4,.16,2.03,.49c.63,.32,1.12,.77,1.48,1.35,.36,.57,.54,1.2,.54,1.87s-.18,1.29-.53,1.87c-.35,.57-.84,1.02-1.46,1.35-.62,.33-1.29,.49-2.02,.49s-1.4-.16-2.02-.49c-.62-.32-1.11-.77-1.47-1.34-.36-.57-.54-1.19-.54-1.85Zm7.25-.03c0-.85-.32-1.56-.95-2.14-.63-.58-1.4-.87-2.29-.87s-1.68,.29-2.29,.88c-.61,.59-.92,1.3-.92,2.14s.32,1.55,.95,2.14c.63,.58,1.39,.87,2.28,.87s1.65-.28,2.28-.85c.63-.57,.94-1.29,.94-2.16Z"/>
        <path d="M72.58,23.73l-.6,.42c-.71-.81-1.62-1.22-2.73-1.22-.91,0-1.69,.29-2.34,.88-.66,.59-.98,1.31-.98,2.17s.32,1.57,.96,2.14c.64,.57,1.44,.86,2.41,.86,1.08,0,1.97-.39,2.69-1.16l.6,.42c-.38,.46-.85,.81-1.42,1.05-.57,.24-1.21,.36-1.9,.36-1.21,0-2.2-.35-2.98-1.06-.77-.71-1.16-1.6-1.16-2.68,0-.67,.18-1.29,.54-1.85,.36-.57,.85-1.01,1.49-1.33s1.32-.48,2.05-.48,1.39,.13,1.97,.38c.58,.26,1.06,.62,1.42,1.1Z"/>
        <path d="M74.32,22.42h.78v2.96h3.88v-2.96h.77v7.05h-.77v-3.41h-3.88v3.41h-.78v-7.05Z"/>
        <path d="M81.8,22.42h4.38v.7h-3.61v2.2h3.58v.69h-3.58v2.77h3.58v.7h-4.35v-7.05Z"/>
        <path d="M87.71,29.47v-7.05h.17l5.07,5.4v-5.4h.75v7.05h-.17l-5.04-5.33v5.33h-.79Z"/>
        <path d="M103.13,23.6l-.58,.52c-.42-.38-.89-.67-1.4-.87-.51-.2-1.03-.3-1.57-.3s-1.08,.13-1.62,.4c-.54,.27-.96,.63-1.26,1.09-.3,.46-.45,.95-.45,1.48,0,.83,.33,1.54,1,2.16,.67,.61,1.51,.92,2.51,.92,.77,0,1.42-.2,1.97-.59,.55-.4,.88-.93,.98-1.62h-2.43v-.68h3.29c-.02,1.12-.38,1.99-1.08,2.62-.7,.63-1.62,.94-2.75,.94-1.3,0-2.35-.37-3.13-1.11-.78-.74-1.17-1.61-1.17-2.61s.39-1.86,1.17-2.59c.78-.73,1.8-1.1,3.07-1.1s2.42,.45,3.44,1.36Z"/>
        <path d="M115.22,23.73l-.6,.42c-.71-.81-1.62-1.22-2.73-1.22-.91,0-1.69,.29-2.34,.88-.66,.59-.98,1.31-.98,2.17s.32,1.57,.96,2.14c.64,.57,1.44,.86,2.41,.86,1.08,0,1.97-.39,2.69-1.16l.6,.42c-.38,.46-.85,.81-1.42,1.05-.57,.24-1.21,.36-1.9,.36-1.21,0-2.2-.35-2.98-1.06-.77-.71-1.16-1.6-1.16-2.68,0-.67,.18-1.29,.54-1.85,.36-.57,.85-1.01,1.49-1.33,.63-.32,1.32-.48,2.05-.48s1.38,.13,1.97,.38,1.06,.62,1.42,1.1Z"/>
        <path d="M116.63,25.98c0-.68,.18-1.31,.53-1.89,.35-.58,.84-1.03,1.46-1.36,.62-.33,1.29-.49,2.01-.49s1.4,.16,2.03,.49c.63,.32,1.12,.77,1.48,1.35,.36,.57,.54,1.2,.54,1.87s-.18,1.29-.53,1.87c-.35,.57-.84,1.02-1.46,1.35-.62,.33-1.29,.49-2.02,.49s-1.4-.16-2.02-.49c-.62-.32-1.11-.77-1.47-1.34-.36-.57-.54-1.19-.54-1.85Zm7.25-.03c0-.85-.32-1.56-.95-2.14-.63-.58-1.4-.87-2.29-.87s-1.68,.29-2.29,.88c-.61,.59-.92,1.3-.92,2.14s.32,1.55,.95,2.14c.63,.58,1.39,.87,2.28,.87s1.65-.28,2.28-.85c.63-.57,.94-1.29,.94-2.16Z"/>
        <path d="M126.41,29.47v-7.05h.17l5.07,5.4v-5.4h.75v7.05h-.17l-5.04-5.33v5.33h-.79Z"/>
        <path d="M133.67,28.16l.65-.35c.45,.77,.98,1.16,1.58,1.16,.39,0,.72-.11,1-.34,.28-.23,.41-.51,.41-.85,0-.27-.12-.54-.35-.81-.23-.28-.62-.6-1.16-.98-.54-.38-.91-.66-1.09-.85-.19-.19-.33-.39-.41-.6-.09-.21-.13-.43-.13-.64,0-.46,.18-.85,.53-1.16,.35-.32,.79-.48,1.32-.48,.42,0,.78,.1,1.09,.29,.31,.19,.61,.48,.9,.86l-.62,.44c-.2-.25-.4-.46-.62-.62-.21-.16-.47-.25-.78-.25s-.56,.09-.75,.26c-.2,.17-.29,.39-.29,.65s.09,.49,.26,.68c.17,.19,.57,.5,1.18,.92,.61,.42,1.06,.81,1.34,1.16,.28,.35,.42,.73,.42,1.12,0,.51-.21,.95-.64,1.33-.43,.38-.93,.56-1.49,.56-1,0-1.78-.5-2.34-1.49Z"/>
        <path d="M139.21,23.11v-.69h4.19v.69h-1.7v6.37h-.78v-6.37h-1.71Z"/>
        <path d="M144.75,22.42h1.52c.85,0,1.43,.03,1.74,.1,.31,.07,.58,.18,.8,.34,.22,.16,.4,.36,.53,.61,.13,.25,.19,.52,.19,.82,0,.6-.23,1.08-.69,1.42-.46,.34-1.11,.5-1.96,.48l2.75,3.28h-.95l-2.74-3.28h-.44v3.28h-.77v-7.05Zm.77,.69v2.4h1.32c.65,0,1.13-.09,1.44-.28,.31-.19,.46-.5,.46-.92s-.15-.72-.46-.91c-.3-.19-.78-.29-1.41-.29h-1.35Z"/>
        <path d="M151.39,22.42h.77v4.25c0,.44,.01,.77,.04,.99,.02,.22,.11,.44,.26,.64,.15,.21,.35,.37,.61,.49,.26,.12,.54,.18,.85,.18s.56-.05,.79-.15c.23-.1,.42-.24,.57-.43,.16-.18,.26-.38,.32-.6,.06-.22,.09-.59,.09-1.12v-4.25h.75v4.25c0,.71-.08,1.26-.23,1.64-.16,.38-.43,.7-.82,.95-.39,.26-.86,.38-1.39,.38-.43,0-.81-.06-1.15-.19-.34-.13-.62-.31-.85-.54-.23-.23-.38-.48-.47-.77-.09-.28-.13-.78-.13-1.48v-4.25Z"/>
        <path d="M165.64,23.73l-.6,.42c-.71-.81-1.62-1.22-2.73-1.22-.91,0-1.69,.29-2.34,.88-.66,.59-.98,1.31-.98,2.17s.32,1.57,.96,2.14c.64,.57,1.44,.86,2.41,.86,1.08,0,1.97-.39,2.69-1.16l.6,.42c-.38,.46-.85,.81-1.42,1.05-.57,.24-1.21,.36-1.9,.36-1.21,0-2.2-.35-2.98-1.06-.77-.71-1.16-1.6-1.16-2.68,0-.67,.18-1.29,.54-1.85,.36-.57,.85-1.01,1.49-1.33,.63-.32,1.32-.48,2.05-.48s1.38,.13,1.97,.38c.58,.26,1.06,.62,1.42,1.1Z"/>
        <path d="M166.63,23.11v-.69h4.19v.69h-1.7v6.37h-.78v-6.37h-1.71Z"/>
        <path d="M172.01,22.42h.77v7.05h-.77v-7.05Z"/>
        <path d="M174.39,25.98c0-.68,.18-1.31,.53-1.89,.35-.58,.84-1.03,1.46-1.36,.62-.33,1.29-.49,2.01-.49s1.4,.16,2.03,.49c.63,.32,1.12,.77,1.48,1.35,.36,.57,.54,1.2,.54,1.87s-.18,1.29-.53,1.87c-.35,.57-.84,1.02-1.46,1.35-.62,.33-1.29,.49-2.02,.49s-1.4-.16-2.02-.49c-.62-.32-1.11-.77-1.47-1.34-.36-.57-.54-1.19-.54-1.85Zm7.25-.03c0-.85-.32-1.56-.95-2.14-.63-.58-1.4-.87-2.29-.87s-1.68,.29-2.29,.88c-.61,.59-.92,1.3-.92,2.14s.32,1.55,.95,2.14c.63,.58,1.39,.87,2.28,.87s1.65-.28,2.28-.85c.63-.57,.94-1.29,.94-2.16Z"/>
        <path d="M184.17,29.47v-7.05h.17l5.07,5.4v-5.4h.75v7.05h-.17l-5.04-5.33v5.33h-.79Z"/>
        <path d="M202.2,23.73l-.6,.42c-.71-.81-1.62-1.22-2.73-1.22-.91,0-1.69,.29-2.34,.88-.66,.59-.98,1.31-.98,2.17s.32,1.57,.96,2.14c.64,.57,1.44,.86,2.41,.86,1.08,0,1.97-.39,2.69-1.16l.6,.42c-.38,.46-.85,.81-1.42,1.05-.57,.24-1.21,.36-1.9,.36-1.21,0-2.2-.35-2.98-1.06-.77-.71-1.16-1.6-1.16-2.68,0-.67,.18-1.29,.54-1.85,.36-.57,.85-1.01,1.49-1.33,.63-.32,1.32-.48,2.05-.48s1.38,.13,1.97,.38,1.06,.62,1.42,1.1Z"/>
        <path d="M203.61,25.98c0-.68,.18-1.31,.53-1.89,.35-.58,.84-1.03,1.46-1.36,.62-.33,1.29-.49,2.01-.49s1.4,.16,2.03,.49c.63,.32,1.12,.77,1.48,1.35,.36,.57,.54,1.2,.54,1.87s-.18,1.29-.53,1.87c-.35,.57-.84,1.02-1.46,1.35-.62,.33-1.29,.49-2.02,.49s-1.4-.16-2.02-.49c-.62-.32-1.11-.77-1.47-1.34-.36-.57-.54-1.19-.54-1.85Zm7.25-.03c0-.85-.32-1.56-.95-2.14-.63-.58-1.4-.87-2.29-.87s-1.68,.29-2.29,.88c-.61,.59-.92,1.3-.92,2.14s.32,1.55,.95,2.14c.63,.58,1.39,.87,2.28,.87s1.65-.28,2.28-.85c.63-.57,.94-1.29,.94-2.16Z"/>
        <path d="M213.42,29.01c0-.16,.06-.3,.19-.42,.13-.11,.28-.17,.45-.17s.32,.06,.45,.17c.12,.11,.19,.26,.19,.42s-.06,.31-.19,.42c-.12,.11-.27,.17-.45,.17s-.32-.06-.45-.18c-.13-.12-.19-.26-.19-.42Z"/>
        <path d="M217.13,28.18l.7,.3-1.05,1.82-.52-.21,.87-1.92Z"/>
        <path d="M219.67,22.42h.78v6.37h2.93v.68h-3.71v-7.05Z"/>
        <path d="M224.04,23.11v-.69h4.19v.69h-1.7v6.37h-.78v-6.37h-1.71Z"/>
        <path d="M229.53,29.47v-7.05h1.58c1.08,0,1.88,.07,2.39,.22,.51,.15,.94,.38,1.31,.7,.37,.32,.65,.71,.85,1.16,.2,.46,.3,.99,.3,1.61s-.15,1.19-.46,1.73c-.31,.54-.73,.95-1.25,1.22-.53,.28-1.29,.41-2.28,.41h-2.43Zm.73-.67h.88c.92,0,1.59-.04,2-.13,.41-.08,.78-.25,1.09-.51,.31-.25,.55-.56,.71-.92,.16-.36,.24-.77,.24-1.24s-.09-.89-.28-1.29c-.19-.39-.46-.72-.8-.97-.35-.26-.76-.43-1.23-.52-.47-.09-1.16-.13-2.08-.13h-.54v5.7Z"/>
        <path d="M237.68,29.01c0-.16,.06-.3,.19-.42,.13-.11,.28-.17,.45-.17s.32,.06,.45,.17c.12,.11,.19,.26,.19,.42s-.06,.31-.19,.42c-.12,.11-.27,.17-.45,.17s-.32-.06-.45-.18c-.13-.12-.19-.26-.19-.42Z"/>
      </g>
      <g>
        <path d="M42.38,.08V7.27h2.58v1.64h-1.64v5.85c.54-.38,1.06-.8,1.56-1.24v1.8c-1,1-2.16,1.9-3.44,2.74l-.54-1.8c.32-.16,.62-.34,.94-.54v-6.81h-.68c-.16,2.24-.38,4.02-.64,5.32-.34,1.48-.84,2.8-1.5,3.98l-1-1.34c.48-1,.86-2.14,1.14-3.4,.24-1.16,.4-2.68,.52-4.56h-1.44v-1.64h2.58V.08h1.56Zm-2.02,5.71l-1.34,.54c-.28-1.78-.6-3.36-.94-4.76l1.34-.4c.36,1.44,.66,2.98,.94,4.62Zm4.52-4.06c-.24,1.84-.54,3.44-.86,4.76l-1.24-.86c.32-1.28,.64-2.76,.94-4.46l1.16,.56Zm3.52,6.09c-.16,.36-.3,.7-.46,1.02h2.82c-.16-.3-.32-.58-.48-.86l1.56-.24c.16,.34,.3,.7,.46,1.1h3.84v1.4h-3.98v1.02h3.5v1.4h-3.5v1.1h3.5v1.4h-3.5v1.18h4.28v1.4h-9.15v.72h-1.56v-6.49c-.4,.42-.8,.84-1.24,1.24l-.48-1.72c.64-.58,1.2-1.18,1.7-1.8,.48-.56,.96-1.36,1.44-2.42l1.24,.54Zm0-1.94c-.76,.82-1.7,1.54-2.82,2.18l-.62-1.48c.98-.44,2-1.16,3.06-2.12l.38,1.42Zm1.8-5.24V7.73h-1.56V2.1h-3.52V.62h5.08Zm-2.26,2.96l-.78,1.26c-.6-.6-1.2-1.06-1.8-1.4l.7-1.1c.68,.36,1.3,.76,1.88,1.24Zm2.5,6.65h-3.14v1.02h3.14v-1.02Zm0,2.42h-3.14v1.1h3.14v-1.1Zm0,3.68v-1.18h-3.14v1.18h3.14Zm3.44-10.47c-.72,.68-1.62,1.26-2.66,1.78l-.56-1.4c.92-.36,1.9-.94,2.9-1.72l.32,1.34Zm1.86-5.24V7.73h-1.64V2.1h-3.28V.62h4.92Zm-2.42,3.04l-.78,1.26c-.56-.6-1.14-1.06-1.72-1.42l.7-1.08c.64,.36,1.24,.76,1.8,1.24Z"/>
        <path d="M63.52,5.22v1.8c-.12,1.72-.32,3.18-.56,4.4-.24,1.1-.56,2.08-.98,2.92-.44,.94-1.12,1.92-2.06,2.92l-1.4-1.56c1.12-1.18,1.92-2.44,2.36-3.8,.36-1.08,.62-2.7,.78-4.88h-2.84v-1.8h4.7ZM73.37,.54v1.8c-1.28,1.12-2.74,2.18-4.38,3.18v.8h2.34v1.64h-2.34v1.4h2.9v1.64h-2.9v1.42h3.6v1.72h-3.6v2.42c-.02,.48-.14,.86-.34,1.14-.32,.38-.66,.58-1.06,.58h-2.66l-.4-1.88c.64,.06,1.32,.08,2.04,.08,.36,0,.54-.16,.54-.48v-1.86h-4.14v-1.72h4.14v-1.42h-3.36v-1.64h3.36v-1.4h-3.04v-1.64h3.04v-1.64c1.16-.54,2.38-1.32,3.68-2.34h-9.07V.54h11.65Zm3.52,5.46c-.5,.96-.96,1.68-1.4,2.2-.38,.48-.84,.94-1.38,1.4,.08,.46,.2,.86,.32,1.22,.46,1.56,1.3,3.18,2.52,4.88l-1.56,1.56c-1.36-2.16-2.28-4.18-2.74-6.07-.58-2-.86-4.24-.84-6.77h1.72c.04,1.1,.1,2.1,.22,3,.14-.16,.28-.32,.4-.48,.4-.48,.78-1.1,1.16-1.88l1.58,.92Z"/>
        <path d="M89.48,1.48V.08h1.8V1.48h4.76v2.88h1.1v1.5h-1.1v2.96h-4.76v1.26h4.92v1.4h-4.92v1.4h5.78v1.48h-5.78v1.7c.28,0,.56,.02,.84,.02,2.34,0,4.1-.04,5.26-.14l-.32,2.02c-6.21,0-9.99-.14-11.35-.42-1.24-.32-2.22-.8-2.94-1.44-.08-.06-.16-.12-.22-.2-.64,.8-1.5,1.64-2.62,2.54l-1-1.88c1.04-.7,1.86-1.48,2.44-2.32-.6-1-1.22-2.38-1.9-4.1l1.56-.54c.46,1.14,.88,2.08,1.28,2.8,.04-.08,.06-.18,.1-.28,.26-.86,.44-2.06,.54-3.62h-3.4v-1.24c1.2-1.44,2.3-3.04,3.3-4.76h-3.62V1h5.7v1.72c-1.14,1.84-2.16,3.3-3.06,4.38h3c-.06,2.24-.3,4.04-.7,5.4-.2,.64-.4,1.22-.64,1.74,.48,.54,1.18,.96,2.08,1.24,.76,.24,2.06,.4,3.86,.5v-1.62h-4.76v-1.48h4.76v-1.4h-3.9v-1.4h3.9v-1.26h-3.68v-1.4h3.68v-1.56h-4.76v-1.5h4.76v-1.48h-3.68V1.48h3.68Zm1.8,2.88h2.96v-1.48h-2.96v1.48Zm0,3.06h2.96v-1.56h-2.96v1.56Z"/>
        <path d="M104.33,2.34h2.82v1.64h-7.59v-1.64h2.94c-.28-.72-.58-1.4-.9-2.04l1.88-.22c.3,.68,.58,1.42,.84,2.26Zm2.04,14.61h-4.36v1.42h-1.8v-7.21h6.17v5.79Zm0-11.65v1.56h-6.09v-1.56h6.09Zm0,2.9v1.56h-6.09v-1.56h6.09Zm-1.8,7.11v-2.5h-2.56v2.5h2.56Zm10.81-10.09c0,.48,.22,.72,.7,.72h1.56v1.78h-1.96c-.76,0-1.34-.16-1.7-.48-.38-.3-.56-.84-.56-1.62V2.26h-3.04c-.06,1.34-.2,2.3-.4,2.86-.24,.8-.86,1.72-1.88,2.76l-1.4-1.24c.82-.92,1.34-1.64,1.56-2.18,.16-.48,.24-1.76,.24-3.84h6.89V5.22Zm.78,2.98v1.32c-.5,2.04-1.32,3.78-2.46,5.22,1.12,.72,2.52,1.32,4.24,1.82l-1.16,1.72c-1.88-.68-3.38-1.38-4.48-2.14-1.12,.88-2.62,1.64-4.5,2.3l-1.1-1.64c1.68-.52,3.04-1.16,4.1-1.88-1.16-1.1-2.1-2.38-2.86-3.84l1.64-.94c.72,1.4,1.6,2.58,2.68,3.52l.02-.02c.86-1.04,1.5-2.3,1.94-3.8h-6.75v-1.64h8.69Z"/>
        <path d="M127.27,.54v15.63c0,.6-.14,1.08-.42,1.44-.28,.34-.74,.52-1.38,.52h-1.72l-.46-1.8,1.64,.08c.36,0,.54-.2,.54-.62v-4.46c-.56,.58-1.16,1.12-1.8,1.64l-.74-.9c-.06,.82-.14,1.64-.26,2.46-.24,1.36-.62,2.66-1.18,3.98l-1.48-1.32c.48-1.02,.82-2.08,1.02-3.2,.14-1.16,.22-2.22,.22-3.2V.54h6.03Zm-1.8,8.49v-1.9l-1.18,.52c-.4-1.04-.84-1.98-1.32-2.82v5.97c0,.2-.02,.4-.02,.56,.94-.7,1.78-1.48,2.52-2.32Zm-1.18-4.8c.44,.72,.82,1.48,1.18,2.24V2.26h-2.5v2.4l1.32-.44Zm12.67,4.44v1.42c-.52,2-1.38,3.7-2.6,5.1,1,.52,2.36,1.06,4.08,1.62l-1,1.78c-1.92-.66-3.46-1.36-4.6-2.1-1.14,.76-2.6,1.44-4.4,2.02l-1.08-1.7c1.56-.44,2.84-.98,3.88-1.6-.96-1-1.74-2.36-2.32-4.04l1.56-.46c.6,1.56,1.34,2.7,2.24,3.44,.08-.08,.18-.18,.28-.28,.86-.94,1.5-2.1,1.92-3.48h-6.95v-1.72h8.99Zm-1.16-3.36c0,.48,.22,.7,.7,.7h1.72v1.72h-2.12c-.74,0-1.28-.14-1.64-.46-.36-.3-.54-.82-.54-1.56V2.26h-2.74c-.04,1.48-.16,2.56-.36,3.2-.24,.88-.84,1.88-1.82,3.04l-1.42-1.24c.8-1,1.3-1.82,1.5-2.42,.14-.56,.22-1.98,.22-4.3h6.51V5.3Z"/>
        <path d="M146.28,.7c-.52,1.56-1.04,2.9-1.56,4.02v13.57h-1.8V7.73c-.56,.8-1.16,1.58-1.8,2.36l-.62-2.2c.84-1.08,1.58-2.2,2.24-3.36,.64-1.04,1.28-2.54,1.9-4.52l1.64,.7Zm4.6,.16c-.68,1.92-1.28,3.3-1.76,4.16-.36,.68-.88,1.42-1.56,2.24h9.13c-.4-.52-.72-1.02-.98-1.54-.6-1.02-1.08-2.18-1.46-3.46h-2.42V.54h3.82c.52,2.24,1.64,4.36,3.36,6.33l-1.24,1.72c-.3-.32-.56-.62-.8-.94-.18,5.28-.38,8.13-.62,8.57-.2,.68-.52,1.18-.92,1.46-.34,.34-.96,.54-1.88,.62-.64,0-1.2-.04-1.64-.08l-.32-1.96c.96,.12,1.54,.16,1.72,.16,.54,0,.9-.18,1.1-.58,.3-.28,.54-2.52,.7-6.77h-3.34c-.34,2.24-.8,4.02-1.4,5.34-.72,1.52-1.78,2.84-3.22,4.04l-1.26-1.58c1.2-1,2.16-2.12,2.84-3.38,.54-1.1,.96-2.58,1.24-4.42h-2.68v-1.48c-.24,.26-.46,.52-.7,.78l-1.56-1.34c1.04-1.04,1.9-2.08,2.54-3.12,.6-1.04,1.1-2.28,1.52-3.76l1.8,.72Z"/>
        <path d="M168.02,2.26c.32-.64,.62-1.34,.94-2.12l2.04,.24c-.24,.68-.5,1.32-.76,1.88h9.05v1.8h-9.99c-.36,.62-.74,1.2-1.14,1.72h9.49v10.63c0,.58-.16,1.04-.46,1.38-.32,.32-.82,.5-1.5,.5h-3.2l-.4-1.72,3.06,.08c.36,0,.54-.18,.54-.56v-1.86h-8.77v4.14h-1.94V9.27c-.9,.8-1.86,1.54-2.9,2.22l-1.24-1.56c2.02-1.36,3.72-2.86,5.1-4.48,.36-.4,.7-.86,1.06-1.38h-5.63v-1.8h6.65Zm7.67,6.89v-1.64h-8.77v1.64h8.77Zm0,3.44v-1.88h-8.77v1.88h8.77Z"/>
        <path d="M188.43,.86v1.4c-.44,1.52-.92,3.14-1.48,4.84,.5,.92,.86,1.74,1.08,2.46,.26,.76,.4,1.4,.4,1.92-.04,1.04-.24,1.8-.64,2.24-.44,.54-1.4,.8-2.88,.8l-.54-1.88c.32,.06,.64,.08,.94,.08,.4,0,.7-.08,.9-.28,.22-.14,.34-.46,.34-.96,0-.6-.1-1.16-.28-1.7-.22-.68-.62-1.48-1.2-2.44,.68-1.88,1.18-3.46,1.48-4.76h-2.5v15.87h-1.86V.86h6.25Zm9.93,8.59h-3.86c.24,1,.54,1.9,.92,2.66,.92-.5,1.8-1.22,2.64-2.18l1.4,1.32c-.94,1-1.98,1.78-3.12,2.32,.96,1.28,2.24,2.32,3.82,3.16l-1.02,1.72c-2-1.24-3.48-2.62-4.44-4.14-.92-1.34-1.58-2.96-1.96-4.86h-1.88v6.33c1.06-.26,2.16-.62,3.28-1.08v1.88c-1.96,.74-4.12,1.34-6.49,1.8l-.24-1.96c.54-.04,1.08-.12,1.64-.22V.78h9.31V9.45Zm-1.8-5.22v-1.8h-5.71v1.8h5.71Zm0,3.58v-1.94h-5.71v1.94h5.71Z"/>
        <path d="M208.63,1.64c-.72,2.02-1.36,3.48-1.88,4.36-.52,1-1.4,2.16-2.66,3.52l-1.64-1.4c1.08-1.1,1.96-2.18,2.64-3.26,.6-1.08,1.14-2.4,1.58-3.92l1.96,.7Zm2.88,5.38c-1.28,3.38-2.56,6.13-3.88,8.25,2.92-.08,5.57-.26,7.93-.5-.6-1.36-1.28-2.68-2-3.98l1.94-.64c1.36,2.26,2.6,4.84,3.68,7.75l-2.18,.56c-.24-.7-.5-1.38-.74-2.02-2.68,.36-6.99,.68-12.87,1l-.32-2.04c.76,0,1.52-.02,2.24-.04,1.32-2.12,2.68-5.16,4.1-9.11l2.1,.78Zm4.38-6.49c.72,2.48,2.26,4.8,4.6,6.97l-1.32,1.86c-1.16-1.04-2.08-2.1-2.78-3.18-.84-1.16-1.5-2.48-2-3.92h-4.04V.54h5.54Z"/>
        <path d="M239.07,1v15.25c0,.72-.22,1.26-.62,1.62-.38,.32-.98,.5-1.8,.5h-2.74l-.38-1.96,2.72,.08c.52,0,.78-.3,.78-.86V2.8h-14.69V1h16.74Zm-5.4,3.6v1.72h-11.09v-1.72h11.09Zm-.62,3.52v6.89h-9.93v-6.89h9.93Zm-1.96,1.72h-6.01v3.44h6.01v-3.44Z"/>
      </g>
    </g>
  </g>
</svg>