<?xml version="1.0" encoding="UTF-8"?>
<svg id="_圖層_2" data-name="圖層 2" xmlns="http://www.w3.org/2000/svg" viewBox="0 0 165.31 30.99">
  <defs>
    <style>
      .cls-1 {
        fill: #fff;
      }

      .cls-2 {
        fill: #0080c4;
      }
    </style>
  </defs>
  <g id="_圖層_1-2" data-name="圖層 1">
    <g>
      <g>
        <path class="cls-1" d="M0,22.16l1.65-1.98c1.03,.95,2.38,1.59,3.64,1.59,1.49,0,2.28-.64,2.28-1.65,0-1.06-.87-1.39-2.15-1.94l-1.92-.81c-1.45-.6-2.9-1.76-2.9-3.85,0-2.34,2.05-4.14,4.96-4.14,1.67,0,3.33,.66,4.49,1.84l-1.45,1.8c-.91-.76-1.86-1.18-3.04-1.18-1.26,0-2.05,.56-2.05,1.51,0,1.03,1.01,1.39,2.23,1.88l1.88,.79c1.74,.72,2.89,1.82,2.89,3.89,0,2.34-1.96,4.34-5.27,4.34-1.92,0-3.83-.75-5.23-2.09Z"/>
        <path class="cls-1" d="M12.65,9.63h2.87v5.65h5.42v-5.65h2.85v14.35h-2.85v-6.2h-5.42v6.2h-2.87V9.63Z"/>
        <path class="cls-1" d="M26.2,16.76c0-4.67,2.61-7.38,6.41-7.38s6.41,2.73,6.41,7.38-2.61,7.49-6.41,7.49-6.41-2.85-6.41-7.49Zm9.9,0c0-3.08-1.36-4.92-3.49-4.92s-3.49,1.84-3.49,4.92,1.35,5.02,3.49,5.02,3.49-1.96,3.49-5.02Z"/>
        <path class="cls-1" d="M40,9.63h2.9l1.14,7.01c.21,1.51,.45,3.02,.66,4.57h.08c.29-1.55,.6-3.08,.91-4.57l1.67-7.01h2.46l1.65,7.01c.31,1.47,.6,3.02,.91,4.57h.1c.21-1.55,.43-3.08,.64-4.57l1.14-7.01h2.71l-2.65,14.35h-3.56l-1.61-7.09c-.23-1.12-.45-2.23-.62-3.33h-.08c-.19,1.1-.39,2.21-.62,3.33l-1.57,7.09h-3.5l-2.75-14.35Z"/>
        <path class="cls-1" d="M62.73,9.63h3.18l2.44,6.72c.31,.89,.58,1.84,.87,2.75h.1c.31-.91,.56-1.86,.87-2.75l2.38-6.72h3.18v14.35h-2.61v-5.98c0-1.36,.21-3.35,.37-4.71h-.1l-1.16,3.37-2.21,6.02h-1.65l-2.23-6.02-1.14-3.37h-.08c.14,1.36,.37,3.35,.37,4.71v5.98h-2.58V9.63Z"/>
        <path class="cls-1" d="M78.17,16.76c0-4.67,2.61-7.38,6.41-7.38s6.41,2.73,6.41,7.38-2.61,7.49-6.41,7.49-6.41-2.85-6.41-7.49Zm9.9,0c0-3.08-1.36-4.92-3.49-4.92s-3.49,1.84-3.49,4.92,1.35,5.02,3.49,5.02,3.49-1.96,3.49-5.02Z"/>
        <path class="cls-1" d="M93.41,9.63h5c3,0,5.38,1.06,5.38,4.36,0,2.15-1.08,3.49-2.73,4.12l3.35,5.87h-3.19l-2.94-5.42h-1.99v5.42h-2.87V9.63Zm4.72,6.66c1.84,0,2.87-.77,2.87-2.3s-1.03-2.07-2.87-2.07h-1.86v4.38h1.86Z"/>
        <path class="cls-1" d="M106.23,9.63h8.79v2.4h-5.93v3.31h5.03v2.4h-5.03v3.83h6.14v2.4h-9V9.63Z"/>
      </g>
      <g>
        <circle class="cls-1" cx="149.82" cy="15.49" r="15.49"/>
        <g>
          <rect class="cls-2" x="143.52" y="14.04" width="12.59" height="2.91"/>
          <rect class="cls-2" x="143.52" y="14.04" width="12.59" height="2.91" transform="translate(165.31 -134.32) rotate(90)"/>
        </g>
      </g>
    </g>
  </g>
</svg>