<svg xmlns="http://www.w3.org/2000/svg" viewBox="0 0 92.45 77.77"><defs><style>.cls-1{fill:#28437e;}.cls-2{fill:#b39354;}</style></defs><g id="圖層_2" data-name="圖層 2"><g id="圖層_1-2" data-name="圖層 1"><path class="cls-1" d="M34.92,53.92h6.27a.26.26,0,0,1,.26.25v8.06h4.76v-11a.25.25,0,0,0-.25-.25h-11Z"/><path class="cls-1" d="M60.71,50.94h-11v3h4.49a.25.25,0,0,1,.25.25v8.06H61v-11a.25.25,0,0,0-.25-.25"/><path class="cls-1" d="M31.55,53.92V51.19a.25.25,0,0,0-.25-.25h-11v3h8.07a.25.25,0,0,1,.25.25v8.06h3Z"/><path class="cls-1" d="M46,65.29H35v3h6.23a.26.26,0,0,1,.26.26v9.25h4.81V65.54a.26.26,0,0,0-.26-.25"/><path class="cls-1" d="M60.71,65.29h-11v3h4.49a.26.26,0,0,1,.25.26v9.25H61V65.54a.25.25,0,0,0-.25-.25"/><path class="cls-1" d="M31.55,68.26V65.54a.25.25,0,0,0-.25-.25h-11v3h8.07a.26.26,0,0,1,.25.26v9.25h3Z"/><path class="cls-2" d="M86.1.27l.79,2.11a5.43,5.43,0,0,0,3.18,3.18l2.11.78a.42.42,0,0,1,0,.79l-2.11.78a5.43,5.43,0,0,0-3.18,3.18L86.1,13.2a.42.42,0,0,1-.78,0l-.78-2.11a5.42,5.42,0,0,0-3.19-3.18l-2.1-.78a.42.42,0,0,1,0-.79l2.1-.78a5.42,5.42,0,0,0,3.19-3.18L85.32.27a.42.42,0,0,1,.78,0"/><polygon class="cls-1" points="0 77.77 15.56 77.77 15.56 46.8 65.66 46.8 65.66 77.77 73.84 77.77 73.84 32.14 0 44.9 0 77.77"/></g></g></svg>