<?xml version="1.0" encoding="UTF-8"?>
<svg id="_圖層_2" data-name="圖層 2" xmlns="http://www.w3.org/2000/svg" viewBox="0 0 127.88 150.6">
  <defs>
    <style>
      .cls-1 {
        fill: #fff;
      }
    </style>
  </defs>
  <g id="_圖層_1-2" data-name="圖層 1">
    <g>
      <path class="cls-1" d="M24.98,141.81V8.8C24.98,2.13,30.96,0,33.29,0H0C2.33,0,8.31,2.21,8.31,8.8V141.81c0,6.57-5.98,8.8-8.31,8.8H33.29c-2.33,0-8.31-2.14-8.31-8.8Z"/>
      <path class="cls-1" d="M57.78,0h-10.09c12.97,5.27,26.84,18.43,26.84,33.3s-13.87,28.03-26.84,33.3h10.09c18.39,0,33.3-14.91,33.3-33.3S76.17,0,57.78,0Z"/>
      <path class="cls-1" d="M59.2,71.25h-11.51c15.47,6.28,31.09,21.95,31.09,39.67s-15.63,33.4-31.09,39.69h11.19c21.88-.04,39.61-17.79,39.61-39.69s-17.56-39.46-39.3-39.67Z"/>
      <g>
        <path class="cls-1" d="M127.88,.61c0,.61-.11,1.86-.11,3.93s.07,3.49,.07,5.66c0,2.41-.82,6.03-5.03,6.03-2.03,0-3.71-1.32-4.53-3.26-.04-.07-.11-.07-.14,0-.68,2.61-2.35,4.78-5.46,4.78s-4.99-1.69-6.17-4.3c-.75-1.56-.96-3.49-.96-5.32,0-1.56,.18-5.73,.14-7.96,.11-.2,1.03-.24,1.14-.04,.07,.58,.14,1.66,.32,2.24,.21,.75,.5,1.02,1.78,1.08,1.11,.07,4.56,.1,8.02,.1,4.28,0,6.67,0,7.99-.04,.96-.03,1.32-.37,1.46-.95,.14-.51,.25-1.35,.36-2,.14-.13,1-.13,1.11,.04Zm-1.5,6.27c-.04-.14-.39-.27-.57-.27-1.11-.07-4.78-.1-7.2-.1-.07,0-.21,.1-.21,.17-.04,.41-.04,1.29-.04,2.24,0,1.53,.18,2.24,.39,2.64,.64,1.05,1.89,1.56,3.28,1.56,3.1,0,4.46-1.9,4.46-5.05,0-.31-.04-.81-.11-1.19Zm-14.52,7.59c3.32,0,5.14-2.24,5.14-6.13,0-.37,.04-1.39-.04-1.63-.04-.1-.11-.2-.18-.2-2.25,0-6.35,0-7.77,.1-.54,.03-1.25,.41-1.46,.81-.39,.61-.5,1.83-.5,2.64,0,2.57,1.5,4.4,4.81,4.4Z"/>
        <path class="cls-1" d="M119.78,19.66c0,1.35,.29,3.97,.54,4.85-1-.14-3.1-.24-6.99-.24-2,0-3.07,.03-3.64,.17-1.14,.27-2.03,1.05-2.03,2.78,0,.91,.36,1.9,1.14,2.75,.18,.24,.43,.34,.78,.37,.46,.07,2.71,.07,7.67,0,.43,0,.89-.14,1.03-.61,.14-.48,.25-1.22,.39-2.17,.25-.07,.96,.03,1.11,.17,0,1.83,.25,4.71,.46,5.49-.61-.07-1.64-.1-2.92-.1l-8.31-.04c-.79,0-1.14,.17-1.18,.65-.07,.51,0,1.02,.04,1.53-.21,.03-1,0-1.18-.17-.53-1.26-1.32-3.83-1.42-4.48,0-.07,.18-.17,.32-.2,.36-.04,1.43-.07,1.96-.07,.11,0,.14-.14,.07-.2-1.68-1.93-2.25-3.42-2.25-4.48,0-3.36,2.43-4.07,4.82-4.07,1.75-.03,5.49,.07,6.99,0,.57-.03,1-.17,1.18-.61,.11-.27,.21-.92,.32-1.53,.25-.07,.96,.04,1.11,.2Z"/>
        <path class="cls-1" d="M120.14,35.76c0,.61-.11,2-.11,3.36,0,1.49,.07,3.09,.11,3.59-.14,.17-.96,.2-1.18,.1-.11-.51-.18-1.05-.29-1.29-.11-.31-.5-.31-.64-.27-2.21,.64-7.88,2.74-8.35,2.98,0,.03-.04,.14,0,.14,2.28,1.02,6.24,2.51,7.99,2.74,.39,.07,.78,.04,1-.57,.11-.34,.21-.88,.29-1.49,.25-.1,1.03-.03,1.18,.1,0,.44-.11,1.76-.11,3.02s.07,2.31,.11,3.29c-.18,.17-.93,.17-1.18,.04-.07-.54-.14-.92-.29-1.29-.21-.61-.75-1.02-1.68-1.36-6.53-2.37-12.8-5.19-17.76-7.93-.75-.41-1.46-.75-2-1.02l-.14-.27c.11-.48,.64-1.53,1-1.9,.11-.03,.57-.03,.64,0,1.39,1.09,4.89,3.7,7.6,4.88l.64-.3c2.03-.75,5.88-2.17,8.49-3.19,2.35-.91,3-1.32,3.28-2.34,.11-.34,.14-.61,.21-1.15,.25-.07,1.07,0,1.18,.13Z"/>
        <path class="cls-1" d="M127.88,58.7c0,.71-.11,2.75-.11,4.48s.11,3.59,.11,4.44c-.14,.14-.93,.17-1.11,0-.11-.78-.18-1.39-.29-1.8-.25-.81-.68-.95-1.78-.98-1.5-.1-4.35-.1-7.49-.1-3.46,0-6.85,.03-8.09,.1-1.07,.04-1.61,.2-1.89,1.22-.11,.48-.25,1.22-.39,2.1-.11,.14-1.04,.07-1.14-.1,0-.78,.11-2.85,.11-4.57,0-1.97-.11-3.9-.11-4.85,.11-.17,1.03-.17,1.14,0,.11,.78,.18,1.29,.32,1.76,.25,1.02,.75,1.15,1.5,1.22,1.03,.14,4.17,.14,9.24,.14,2.96,0,5.17,0,6.85-.07,.93-.1,1.43-.17,1.6-.88,.18-.54,.28-1.19,.43-2.14,.14-.13,1-.1,1.11,.03Z"/>
        <path class="cls-1" d="M118.14,73.48c0-.07-.14-.13-.18-.13-1.57-.04-4.46-.04-6.28,0-1.5,0-2.21,.07-2.71,.2-.96,.27-1.39,1.19-1.39,2.07,0,.95,.14,1.42,.57,2.14-.11,.1-1.07-.04-1.21-.14-1.11-.81-1.57-2.27-1.57-3.42,0-1.39,.61-2.47,1.75-3.05,.89-.47,1.82-.51,4.1-.51,2.03,0,5.17,.04,6.6,.04,.11,0,.28-.07,.32-.2l.14-1.9c.25-.04,1.11,.17,1.28,.34,.07,.51,.28,1.32,.39,1.59,.04,.07,.14,.17,.28,.17h3.1c.28,.51,1.14,1.83,1.6,2.24,.07,.13,.07,.54,.04,.64-.61-.07-2.25-.17-4.74-.17-.11,0-.21,.07-.21,.17,0,1.59,.07,3.7,.14,4.24-.5-.1-1.5-.27-2.07-.34,.04-.78,.04-2.64,.04-3.97Z"/>
      </g>
    </g>
  </g>
</svg>