<?xml version="1.0" encoding="UTF-8"?>
<svg id="_圖層_2" data-name="圖層 2" xmlns="http://www.w3.org/2000/svg" viewBox="0 0 61.86 29.06">
  <defs>
    <style>
      .cls-1 {
        fill: #fff;
      }
    </style>
  </defs>
  <g id="_圖層_1-2" data-name="圖層 1">
    <g>
      <path class="cls-1" d="M6.71,20.46h-2.27c-1.17,0-1.76-.54-1.76-1.62,0-1.42,1.21-2.13,3.64-2.13,1.62,0,3.15,.27,4.61,.81v-2.43c-1.45-.47-2.99-.71-4.61-.71-4.22,0-6.33,1.49-6.33,4.45,0,2.7,1.48,4.05,4.44,4.05h2.27c1.36,0,2.04,.54,2.04,1.62,0,1.48-1.11,2.23-3.33,2.23-1.83,0-3.47-.27-4.92-.81v2.43c1.45,.47,3.09,.71,4.92,.71,4.01,0,6.01-1.52,6.01-4.55,0-2.7-1.58-4.05-4.73-4.05Z"/>
      <polygon class="cls-1" points="23.18 14.49 12.2 14.49 12.2 16.81 16.35 16.81 16.35 28.96 19.03 28.96 19.03 16.81 23.18 16.81 23.18 14.49"/>
      <polygon class="cls-1" points="28.06 14.49 21.91 28.96 24.67 28.96 29.43 17.25 31.71 22.68 28.8 22.68 27.87 25.01 32.68 25.01 34.33 28.96 37.22 28.96 30.94 14.49 28.06 14.49"/>
      <path class="cls-1" d="M50,18.36c0-2.58-1.48-3.88-4.43-3.88h-6.58v14.45h2.73v-12.09h3.67c1.2,0,1.8,.53,1.8,1.6,0,1.55-1.28,2.55-3.85,2.99v1.23l4.4,6.3h3.38l-4.58-6.26c2.3-1.15,3.45-2.59,3.45-4.34Z"/>
      <polygon class="cls-1" points="50.88 14.49 50.88 16.81 55.03 16.81 55.03 28.96 57.71 28.96 57.71 16.81 61.86 16.81 61.86 14.49 50.88 14.49"/>
      <polygon class="cls-1" points="14.75 7.54 10.18 7.54 10.18 5.2 14.45 5.2 14.45 3.73 10.2 3.73 10.2 1.48 14.66 1.48 14.66 .06 8.56 .06 8.56 8.97 14.75 8.97 14.75 7.54"/>
      <polygon class="cls-1" points="17.87 2.34 22.57 8.97 24.22 8.97 24.22 .06 22.63 .06 22.63 6.56 17.93 .06 16.28 .06 16.28 8.97 17.87 8.97 17.87 2.34"/>
      <path class="cls-1" d="M30.5,9.04c1.08,0,1.98-.16,2.7-.47v-3.7h-1.65v2.59c-.38,.1-.72,.15-1.02,.15-2.02,0-3.03-1.07-3.03-3.21,0-1.97,1.07-2.96,3.21-2.96,.89,0,1.72,.17,2.49,.5V.44c-.77-.29-1.64-.44-2.62-.44-3.2,0-4.8,1.46-4.8,4.39,0,3.1,1.57,4.64,4.72,4.64Z"/>
      <rect class="cls-1" x="34.76" y=".06" width="1.65" height="8.91"/>
      <polygon class="cls-1" points="39.87 2.34 44.57 8.97 46.22 8.97 46.22 .06 44.63 .06 44.63 6.56 39.93 .06 38.28 .06 38.28 8.97 39.87 8.97 39.87 2.34"/>
      <polygon class="cls-1" points="54.28 7.54 49.71 7.54 49.71 5.2 53.98 5.2 53.98 3.73 49.73 3.73 49.73 1.48 54.19 1.48 54.19 .06 48.09 .06 48.09 8.97 54.28 8.97 54.28 7.54"/>
    </g>
  </g>
</svg>