<?xml version="1.0" encoding="UTF-8"?>
<svg id="_圖層_2" data-name="圖層 2" xmlns="http://www.w3.org/2000/svg" viewBox="0 0 66.74 65.64">
  <defs>
    <style>
      .cls-1 {
        fill: #fff;
      }
    </style>
  </defs>
  <g id="_圖層_3" data-name="圖層 3">
    <g>
      <g>
        <path class="cls-1" d="M3.56,65.51l-.02-7.95c-.4,.74-.71,1.56-1.19,2.22-.45,.62-.96,1.28-1.5,1.87-.32-.18-.61-.44-.86-.7,1.71-1.68,2.99-3.88,3.5-6.29l-2.59-.02v-.99l2.64-.02,.02-3.34h1.02l.02,3.36h1.97l.02,1.01-1.98-.02v2.02c.17-.02,.29-.08,.47-.17,.79,.81,1.53,1.78,1.71,2.94-.3,.17-.66,.34-.99,.47-.13-.91-.6-1.75-1.16-2.41l-.05,8.02h-1.02Zm4.67,.02h-1.06v-12.47h2.67c.61-.87,.89-1.87,.97-2.94l1.04,.32c-.12,.91-.37,1.85-.89,2.62l3.43,.02v12.49l-1.04-.02c-.03-.39-.02-.81-.02-1.19h-5.09l-.02,1.17Zm5.13-11.49l-5.13,.02v3.97h5.13v-3.98Zm-5.11,9.29l5.11,.02-.02-4.28h-5.09v4.27Z"/>
        <path class="cls-1" d="M22.81,59.83c.79,.38,1.55,1.16,2.07,1.91l-.77,.64c-.59-.77-1.26-1.48-2.1-1.9v5.16l-1.06-.02,.02-4.89c-.81,1.26-1.9,2.57-3.12,3.53l-.84-.67c1.41-1.04,3.11-2.96,3.9-4.64l-2.79-.02-.02-.97h2.87l-.02-1.7h1.06l-.02,1.7,2.29-.02v1.01h-2.29l.02,1.35,.81-.47Zm1.63-6.89c-1.45,1.97-3.51,2.99-5.68,3.63l-.67-.77c1.86-.54,3.76-1.43,5.09-2.89h-4.12v-.99h5.36v-1.6l1.06,.02v1.58h5.46v.99h-5.48l.02,3.85h-1.06l.02-3.82Zm7.56,11.31c-2.27-2.32-2.71-4.22-3.04-5.26l-.03,6.59h-1.04v-6.6c-.52,1.91-1.58,4-3.24,5.19l-1.01-.54c2.29-1.41,2.98-3.73,3.29-4.67l-1.81-.02v-.97h2.79v-1.76h1.02v1.76h2.99l.02,.99h-2c.35,1.46,1.61,3.46,2.74,4.61l-.67,.69Zm-.74-8.03c-1.63-1.06-3.38-1.92-5.38-2.12l.52-.88c2.01,.17,3.78,.99,5.41,2.1l-.55,.89Z"/>
        <path class="cls-1" d="M42.28,51.42c-.1-.22-.77-.69-.94-.86l.84-.55c.5,.38,1.04,.89,1.44,1.4h5.88v.96l-12.37-.02v7.34c0,1.18-.18,2.37-.52,3.48-.24,.81-.64,1.58-1.09,2.3h-.09l-.84-.65c.99-1.46,1.46-3.16,1.46-5.01l.02-4.08-.02-4.32,6.22,.02Zm.13,12.65c-1.38,.77-2.89,1.23-4.49,1.5-.19-.29-.34-.62-.52-.91,1.55-.17,2.96-.6,4.29-1.24l.72,.65Zm.52-5.5v-.81h-5.39v-.94h11.86v.92h-5.44l-.02,.82,4.23,.02,.02,4.52h-9.46v-4.54h4.2Zm-4.92-4.23v-.94h2.3v-.61h1.03v.61h4.2v-.64h1.03v.64l2.3-.02v.96h-2.3v1.78h-6.25l-.02-1.78h-2.29Zm1.73,5.19v.86h3.21v-.88l-3.21,.02Zm0,1.78v.86h3.21v-.84l-3.21-.02Zm1.6-6.15l4.2,.02v-.86l-4.22,.02,.02,.82Zm2.62,4.37v.86h3.23v-.88l-3.23,.02Zm.02,1.8v.84l3.21-.02,.02-.82h-3.23Zm5.18,4.23c-.23-.05-.44-.22-.67-.32-1.19-.52-2.42-.99-3.76-1.18l.59-.74c1.58,.25,3.08,.69,4.44,1.44l-.59,.79Z"/>
        <path class="cls-1" d="M52.8,55.35c1.44-1.13,2.13-2.7,2.54-4.35l1.02,.25c-.12,.52-.35,1.14-.52,1.65h3.29v-2.64h1.04v2.64h4.92v.98h-4.92v2.6h6.55v.97h-6.55v1.31h-1.04v-1.31h-6.86v-.97h6.86v-2.6h-3.73c-.44,.81-.96,1.58-1.73,2.18l-.87-.71Zm2.84,10.22h-1.04v-6.17h9.88v6.17h-1.04v-1.23h-7.8v1.23Zm0-2.2h7.8v-2.99h-7.8v2.99Z"/>
      </g>
      <g>
        <path class="cls-1" d="M34.45,23.47c-.25-.34-.59-.7-1.01-1.09-.42-.39-1.09-.95-2.02-1.66-.92-.72-1.45-1.13-1.59-1.23-.56-.45-.99-.82-1.31-1.13-.32-.31-.58-.62-.79-.92-.15-.21-.26-.43-.33-.66-.07-.23-.11-.47-.11-.71,0-.41,.14-.81,.42-1.19,.28-.38,.69-.7,1.23-.95,.54-.25,1.21-.37,2-.37,1.16,0,2.45,.24,3.87,.71-.11-.82-.18-1.51-.19-2.07-1.5-.26-2.77-.39-3.8-.39-1.44,0-2.6,.2-3.47,.59-.88,.39-1.53,.92-1.97,1.57-.44,.65-.65,1.36-.65,2.11,0,.29,.03,.59,.1,.87,.07,.28,.15,.54,.27,.77,.11,.23,.28,.49,.49,.77,.21,.28,.48,.58,.79,.89,.32,.31,.67,.62,1.06,.94l1.03,.82c1.03,.82,1.83,1.46,2.39,1.93,.56,.47,.96,.84,1.18,1.11,.23,.27,.39,.54,.5,.81,.1,.27,.15,.55,.15,.86,0,.52-.15,.99-.45,1.39-.3,.4-.75,.72-1.35,.94-.6,.22-1.25,.33-1.94,.33s-1.48-.09-2.26-.27c-.79-.18-1.67-.49-2.65-.92,.08,.61,.14,1.33,.18,2.16,1.26,.32,2.23,.53,2.92,.62,.68,.09,1.34,.14,1.98,.14,.8,0,1.56-.08,2.3-.24,.73-.16,1.4-.42,2-.8,.6-.38,1.06-.86,1.38-1.45,.32-.59,.48-1.23,.48-1.93,0-.45-.07-.88-.21-1.26-.14-.38-.33-.75-.59-1.08Z"/>
        <path class="cls-1" d="M31.15,40.25c-.21,0-.41,0-.62-.01-.06,0-.11,0-.17,0-.16,0-.33-.01-.49-.02-.05,0-.09,0-.14,0-.2-.01-.4-.03-.6-.05-.05,0-.09-.01-.13-.02-.16-.02-.32-.04-.48-.06-.05-.01-.11-.02-.16-.02-.2-.03-.39-.06-.58-.09h0c-.2-.04-.39-.08-.59-.11-.05-.01-.1-.02-.16-.03-.16-.04-.31-.07-.47-.11-.04-.01-.08-.02-.12-.03-.19-.05-.38-.1-.57-.15-.04-.01-.07-.02-.11-.03-.16-.05-.31-.09-.47-.14-.05-.02-.09-.03-.14-.05-.38-.13-.75-.26-1.11-.41-.04-.02-.08-.03-.13-.05-.16-.07-.31-.13-.46-.2-.03-.01-.06-.03-.09-.04-.18-.08-.36-.17-.54-.25-.02-.01-.04-.02-.07-.03-.16-.08-.31-.16-.47-.24-.04-.02-.07-.04-.11-.06-.35-.19-.7-.38-1.04-.59-.03-.02-.06-.04-.09-.05-.15-.09-.3-.19-.45-.29-.02-.01-.04-.02-.06-.04-.17-.11-.34-.23-.51-.35,0,0-.01,0-.02-.02-.16-.11-.31-.23-.46-.34-.02-.02-.05-.04-.07-.05-.32-.25-.64-.51-.94-.78-.02-.01-.03-.03-.05-.04-.15-.13-.29-.26-.43-.4,0,0-.02-.01-.02-.02-.3-.29-.6-.58-.88-.89-.01-.01-.02-.02-.03-.04-.28-.3-.56-.62-.82-.95,0,0-.01-.01-.02-.02-.4-.49-.77-1-1.12-1.53,0,0,0-.01-.01-.02-.23-.36-.46-.72-.66-1.09,0,0,0,0,0,0-.11-.18-.21-.38-.31-.57h.56c1.22,0,2.19-.03,2.92-.09,.73-.06,1.32-.16,1.76-.29,.45-.14,.9-.34,1.35-.6,.46-.27,.85-.6,1.18-.99,.33-.4,.59-.85,.77-1.35,.18-.51,.26-1.04,.26-1.6,0-.4-.04-.79-.12-1.15-.08-.37-.2-.7-.36-.99-.15-.29-.35-.57-.6-.83-.25-.26-.51-.47-.79-.65-.28-.18-.57-.32-.85-.42-.28-.1-.66-.21-1.14-.33,.47-.16,.85-.32,1.14-.46,.29-.14,.59-.35,.91-.61,.31-.26,.59-.57,.83-.94,.24-.36,.42-.75,.54-1.16,.12-.42,.17-.85,.17-1.29,0-.57-.09-1.09-.26-1.56-.18-.47-.41-.87-.7-1.19-.29-.32-.64-.58-1.06-.79-.42-.21-.89-.36-1.43-.46-.53-.09-1.31-.14-2.33-.14-.49,0-1.2,0-2.12,.03-.18,0-.36,0-.52,0,0,0,0,0,0,0,.2-.36,.4-.72,.62-1.07,.01-.02,.02-.03,.03-.05,.22-.35,.45-.68,.69-1.01,0-.01,.02-.03,.03-.04,.11-.16,.23-.31,.34-.46,.01-.01,.02-.02,.03-.04,.25-.32,.51-.63,.78-.94,.02-.02,.03-.04,.05-.06,.27-.3,.55-.6,.84-.88,.01-.01,.02-.02,.03-.03,.13-.13,.27-.26,.4-.38,.02-.02,.04-.04,.06-.06,.29-.27,.59-.53,.9-.78,.02-.02,.05-.04,.07-.06,.14-.11,.28-.22,.42-.33,.02-.01,.04-.03,.06-.04,.16-.12,.32-.24,.49-.36,.01,0,.02-.01,.03-.02,.15-.11,.3-.21,.45-.31,.03-.02,.06-.04,.1-.06,.16-.1,.31-.2,.47-.3,0,0,.01,0,.02-.01,.17-.1,.34-.2,.51-.3,.03-.02,.06-.04,.09-.05,.14-.08,.29-.16,.43-.23,.03-.02,.07-.04,.11-.06,.35-.18,.7-.35,1.06-.51,.04-.02,.09-.04,.13-.06,.15-.07,.3-.13,.45-.19,.03-.01,.07-.03,.1-.04,.18-.07,.36-.14,.55-.21,.03-.01,.07-.02,.1-.04,.15-.05,.3-.11,.46-.16,.05-.02,.1-.03,.15-.05,.17-.06,.35-.11,.53-.16,.01,0,.02,0,.04-.01,.19-.05,.38-.1,.57-.15,.05-.01,.1-.02,.15-.04,.15-.04,.3-.07,.45-.1,.05,0,.1-.02,.15-.03,.19-.04,.39-.08,.58-.11,.03,0,.06,0,.08-.01,.17-.03,.34-.06,.51-.08,.06,0,.11-.02,.17-.02,.16-.02,.32-.04,.49-.06,.04,0,.08,0,.11-.01,.2-.02,.39-.04,.6-.05,.05,0,.1,0,.15,0,.16-.01,.31-.02,.47-.02,.06,0,.11,0,.17,0,.2,0,.41,0,.61,0,10.56,0,19.12,8.56,19.12,19.12,0,2.12-.34,4.15-.98,6.05l-7.2-12.79-1.52-2.3c-.69,0-1.22,.01-1.6,.01-.46,0-1.04,0-1.74-.01,0,.37,0,.88-.01,1.53l-.06,2.07-.47,10.63-.28,3.64c.71-.02,1.13-.03,1.28-.03,.2,0,.61,.01,1.21,.03l.08-3.65,.39-9.25c.04-1.05,.07-1.82,.11-2.3l7.46,13.28,1.2,1.81,1.86,.82c1.45-2.86,2.27-6.1,2.27-9.52C52.28,9.46,42.82,0,31.15,0c-.24,0-.47,0-.7,.01-.06,0-.12,0-.19,0-.2,0-.41,.02-.61,.03-.03,0-.07,0-.1,0-.23,.02-.46,.04-.68,.06-.06,0-.11,.01-.17,.02-.19,.02-.38,.04-.56,.07-.04,0-.09,.01-.14,.02-.22,.03-.45,.07-.67,.11-.05,0-.09,.02-.14,.02-.19,.04-.37,.07-.55,.11-.05,.01-.1,.02-.15,.03-.22,.05-.44,.1-.66,.16-.03,0-.06,.01-.09,.02-.19,.05-.39,.11-.58,.16-.05,.01-.1,.03-.15,.04-.44,.13-.86,.28-1.29,.44-.04,.02-.09,.03-.14,.05-.2,.08-.4,.16-.6,.24,0,0-.02,0-.02,0-.21,.09-.42,.18-.63,.28-.04,.02-.08,.04-.11,.05-.19,.09-.37,.18-.55,.27-.02,0-.04,.02-.06,.03-.2,.11-.41,.21-.61,.32-.02,.01-.05,.03-.08,.04-.18,.1-.36,.21-.54,.31-.02,.02-.05,.03-.07,.04-.2,.12-.4,.25-.6,.37,0,0-.01,0-.02,.01-.19,.12-.37,.25-.56,.38-.02,.02-.05,.03-.07,.05-.38,.27-.75,.54-1.12,.83-.02,.02-.04,.03-.06,.05-.36,.29-.72,.6-1.06,.92-.01,.01-.03,.02-.04,.04-.35,.32-.69,.66-1.02,1.01,0,0,0,0,0,.01-.17,.17-.33,.35-.49,.53,0,0,0,0,0,0-.32,.37-.63,.74-.92,1.13,0,0,0,0-.01,.02-.29,.38-.57,.78-.84,1.18,0,0,0,.02-.01,.02-.26,.4-.52,.82-.75,1.24,0,0,0,.01-.01,.02-.24,.43-.46,.86-.67,1.3h0s0,0,0,0c-.08,.17-.15,.33-.23,.5,0,.01,0,.02-.01,.03-.07,.16-.14,.32-.2,.48,0,.02-.01,.03-.02,.05-.06,.16-.13,.32-.19,.48,0,.02-.01,.03-.02,.05-.06,.16-.12,.33-.18,.5,0,0,0,.02-.01,.03-.25,.72-.46,1.45-.63,2.2,0,.02,0,.04-.01,.05-.04,.16-.07,.32-.1,.49,0,.05-.02,.09-.03,.14-.03,.13-.05,.27-.07,.41-.01,.06-.02,.12-.03,.18-.02,.13-.04,.25-.06,.38,0,.07-.02,.13-.03,.2-.02,.12-.03,.24-.05,.36,0,.07-.02,.14-.02,.21-.01,.12-.02,.24-.03,.36,0,.07-.01,.14-.02,.22-.01,.12-.02,.24-.03,.36,0,.07-.01,.14-.01,.21,0,.13-.01,.26-.02,.39,0,.06,0,.12,0,.18,0,.19,0,.38,0,.58s0,.38,0,.57c0,.06,0,.12,0,.18,0,.13,0,.26,.02,.38,0,.07,0,.14,.01,.21,0,.12,.02,.24,.02,.36,0,.07,.01,.14,.02,.21,.01,.11,.02,.23,.03,.35,0,.07,.02,.14,.02,.21,.01,.11,.03,.23,.04,.35,0,.07,.02,.13,.03,.2,.02,.12,.03,.24,.05,.36,.01,.06,.02,.13,.03,.19,.02,.12,.04,.24,.07,.37,.01,.06,.02,.11,.03,.17,.02,.13,.05,.26,.08,.38,.01,.05,.02,.1,.03,.15,.03,.14,.06,.28,.1,.41,.01,.04,.02,.08,.03,.12,.04,.15,.08,.31,.12,.46,0,.02,.01,.04,.02,.06,.3,1.08,.68,2.12,1.14,3.12h0s0,0,0,0c.1,.22,.21,.44,.32,.66,0,0,0,.01,0,.02,.22,.44,.45,.86,.7,1.28,0,.01,.01,.02,.02,.03,.25,.41,.51,.82,.78,1.21,.01,.02,.02,.03,.03,.04,.27,.39,.56,.78,.86,1.15,.01,.02,.02,.03,.04,.05,.3,.37,.61,.73,.93,1.08,.01,.02,.03,.03,.04,.04,.32,.35,.66,.68,1,1.01,.01,.02,.03,.03,.05,.04,.16,.16,.33,.31,.5,.45,0,0,.02,.02,.03,.02,.18,.16,.36,.31,.54,.46,.01,.01,.03,.02,.04,.04,.17,.14,.34,.27,.51,.4,.02,.02,.04,.03,.06,.05,.19,.14,.38,.28,.57,.42,.01,0,.02,.01,.03,.02,.18,.12,.36,.25,.54,.37,.03,.02,.06,.04,.09,.06,.19,.13,.39,.25,.59,.37h0c.19,.12,.39,.23,.59,.34,.04,.02,.07,.04,.11,.06,.4,.22,.8,.43,1.22,.62,.04,.02,.08,.04,.13,.06,.2,.09,.4,.18,.6,.27,0,0,.02,0,.02,.01,.21,.09,.42,.17,.64,.26,.05,.02,.09,.03,.14,.05,.19,.07,.38,.14,.57,.21,.03,0,.06,.02,.09,.03,.21,.07,.43,.14,.65,.21,.05,.01,.09,.03,.14,.04,.19,.05,.37,.11,.56,.16,.04,0,.09,.02,.13,.03,.22,.06,.44,.11,.66,.16,.05,.01,.09,.02,.14,.03,.19,.04,.37,.08,.56,.11,.05,0,.1,.02,.16,.03,.22,.04,.45,.08,.67,.11,.04,0,.08,0,.12,.01,.19,.03,.39,.05,.59,.08,.06,0,.11,.02,.17,.02,.23,.02,.46,.05,.69,.06,.03,0,.05,0,.08,0,.21,.02,.42,.03,.63,.04,.06,0,.12,0,.19,0,.24,0,.47,.01,.71,.01,5.65,0,10.77-2.21,14.56-5.82l-.95-1.87c-3.47,3.51-8.29,5.69-13.62,5.69ZM12.37,17.5s0-.02,0-.03c.05-.26,.1-.51,.16-.76,0,0,0-.01,0-.02,.12-.5,.26-.99,.41-1.47,.01-.03,.02-.06,.03-.1,.07-.22,.15-.45,.23-.67,.01-.03,.02-.06,.04-.1,.08-.22,.17-.45,.27-.67,0,0,0,0,0,0h2.81c.84,0,1.47,.05,1.89,.16,.41,.1,.77,.28,1.08,.51,.31,.24,.54,.52,.69,.85,.15,.33,.23,.71,.23,1.15,0,.41-.07,.82-.22,1.22-.14,.41-.37,.78-.68,1.13-.31,.34-.71,.61-1.18,.79-.48,.18-.92,.29-1.33,.34-.41,.05-1.18,.07-2.31,.07h-2.44c.05-.82,.15-1.62,.3-2.41Zm1.05,10.79c-.85-2.09-1.34-4.37-1.39-6.75h3.91c.95,0,1.67,.07,2.16,.2,.49,.13,.92,.34,1.29,.63s.64,.63,.83,1.02c.19,.39,.28,.83,.28,1.32,0,.59-.13,1.15-.4,1.68-.27,.53-.64,.92-1.11,1.19-.47,.27-.95,.45-1.44,.56-.49,.1-1.25,.16-2.27,.16h-1.85Z"/>
        <polygon class="cls-1" points="49.67 43.18 43.45 28.95 57.77 34.95 51.18 36.56 49.67 43.18"/>
      </g>
    </g>
  </g>
</svg>