<?xml version="1.0" encoding="UTF-8"?>
<svg id="_圖層_2" data-name="圖層 2" xmlns="http://www.w3.org/2000/svg" viewBox="0 0 170.55 32.64">
  <defs>
    <style>
      .cls-1 {
        fill: #fff;
      }

      .cls-2 {
        stroke: #e25c32;
        stroke-width: 3.01px;
      }

      .cls-2, .cls-3 {
        fill: none;
        stroke-linecap: round;
        stroke-miterlimit: 10;
      }

      .cls-3 {
        stroke: #e9ecd1;
        stroke-width: 1.46px;
      }
    </style>
  </defs>
  <g id="_圖層_1-2" data-name="圖層 1">
    <g>
      <rect class="cls-3" x=".73" y=".73" width="169.09" height="31.18" rx="15.59" ry="15.59"/>
      <circle class="cls-1" cx="152.5" cy="16.31" r="11.36"/>
      <g>
        <path class="cls-1" d="M30.95,13.75c-.51,1.08-1.37,2.47-1.75,2.91l-.44-.21c.25-.66,.49-1.57,.63-2.42h-1.08v6.73c0,1.21-1.03,1.99-3.45,.51l.18-.54c1.72,.47,1.95,.36,1.95-.3v-6.4h-2.31v-.64h3.38c-.52-.68-1.23-1.49-1.89-2.21l.31-.41c.42,.23,.95,.54,1.46,.87,.39-.66,.79-1.48,.96-2.02h-3.75v-.63h3.78l.34-.24,1.33,.78c-.6,.87-1.42,1.84-2.13,2.49,.3,.22,.57,.45,.78,.67l-.67,.69h.79l.31-.26,1.26,.61Zm1.88,5.56l1.21,.85c-1.32,1.04-3.08,1.89-4.62,2.31l-.21-.5c1.22-.57,2.6-1.51,3.62-2.67Zm.7-9.45h-2.73v-.68h7.11v.68h-2.92c-.34,.63-.75,1.27-1.05,1.69h3.12v7.47h-5.89v-7.47h2.11c.1-.52,.19-1.2,.25-1.69Zm2.23,2.37h-3.34v1.51h3.34v-1.51Zm0,2.19h-3.34v1.6h3.34v-1.6Zm0,2.28h-3.34v1.65h3.34v-1.65Zm2.54,4.33l-.85,1.27c-.73-.68-2.04-1.71-3.21-2.49l.23-.49c1.3,.38,2.58,.92,3.84,1.71Z"/>
        <path class="cls-1" d="M41.48,17.65c.08,1.77-.09,3.43-.46,4.41l-1.38-.58c.56-.9,1.06-2.28,1.31-3.88l.54,.06Zm2.69-3.58c.73,.79,1.59,1.94,2.02,2.79l-1.2,.64c-.14-.43-.31-.93-.51-1.42-1.41,.51-3.15,.97-4.48,1.18l-.3-1.44c.36,.02,.73,.02,1.12,0,.72-.81,1.33-1.65,1.96-2.73-.85,.27-1.78,.49-2.61,.61l-.27-1.27c.31,.01,.63,.01,.93,.01,.55-1.16,1.17-2.83,1.54-4.27l1.38,.48c-.65,1.38-1.52,2.8-2.28,3.79,.6-.03,1.19-.06,1.73-.1,.31-.58,.63-1.23,.98-1.96l1.3,.64c-1.11,1.95-2.59,3.65-3.88,4.77,.89-.06,1.8-.15,2.64-.26-.18-.44-.36-.84-.54-1.18l.46-.29Zm-1.46,3.36c.5,1.19,.96,2.67,1.14,3.76l-1.38,.21c0-1.06-.14-2.65-.29-3.85l.52-.12Zm1.32-.45c.65,.74,1.48,2.13,1.86,2.97l-1.23,.52c-.25-.99-.69-2.32-1.11-3.27l.48-.23Zm8.37-5.82c-.02,5.1-.17,7.9-.41,9.33-.33,1.95-2.13,2.32-4.81,.13l.22-.49c2.37,.81,3.02,1,3.24-.21,.17-.87,.38-3.19,.38-8.08h-3.87c-.46,.9-1.06,1.81-1.84,2.64l-.44-.34c1.14-1.99,1.69-3.87,2.05-5.97l1.47,.36c-.17,.68-.45,1.62-.92,2.64h4.92Zm-3.9,6.75c-.5-1.29-1.15-2.73-1.85-4l.44-.33c1.05,.99,2.08,2.32,2.77,3.58l-1.36,.75Z"/>
        <path class="cls-1" d="M67.94,10.13v.67h-13.15v-.67h6.55c-.7-.48-1.68-1.08-2.43-1.5l.18-.51c.97,.17,2.58,.58,3.37,.97l-.6,1.04h6.07Zm-12.37,5.16h11.58v5.34c0,1.84-1.56,2.08-3.99,.72l.15-.52c2.13,.42,2.46,.31,2.46-.65v-4.21h-8.85v6.24h-1.35v-6.91Zm9.4-3.64v2.76h-7.38v-2.76h7.38Zm-2.11,8.82v-.78h-3v1.01h-1.26v-3.79h5.52v3.57h-1.26Zm.85-8.14h-4.88v1.41h4.88v-1.41Zm-.85,6.72v-1.5h-3v1.5h3Z"/>
        <path class="cls-1" d="M69.89,16.25l-.36-.39c.96-1.08,1.81-2.59,2.2-4.02l1.33,.57c-.72,1.36-1.77,2.77-3.18,3.84Zm3.97,2.25c-1.03,1.72-2.43,2.98-4,3.81l-.3-.47c1.64-1.18,2.69-2.52,3.42-4.23-.66-.63-1.32-1.2-1.92-1.65l.27-.47c.68,.31,1.35,.71,2.02,1.12,.25-.73,.45-1.53,.63-2.41l1.4,.4c-.23,1.02-.54,1.94-.92,2.77,.84,.63,1.63,1.33,2.31,2.11l-1.2,1.14c-.48-.73-1.08-1.45-1.71-2.14Zm3.23-7.06h-7.37v-.68h3.66c-.57-.79-1.2-1.54-1.83-2.2l.33-.44c.79,.36,1.93,1.05,2.7,1.8l-.81,.84h3.32v.68Zm-2.81,.34c.78,.38,1.8,.97,2.64,1.84l-.98,.99c-.57-.85-1.3-1.74-1.96-2.4l.3-.43Zm8.88,8.88l-1.12,1.51c-.76-.55-1.8-1.43-2.65-2.88-1.04,1.3-2.42,2.34-4.12,3l-.27-.48c1.65-.99,2.92-2.17,3.83-3.64-.46-1.06-.84-2.38-1-4-.38,.8-.83,1.49-1.32,2.02l-.42-.33c.99-1.8,1.59-4.41,1.91-7.63l1.48,.27c-.15,1.06-.39,2.15-.69,3.18h4.21v.67h-1.14c-.11,2.16-.68,4.18-1.71,5.88,.92,1.18,2.02,1.95,3.03,2.43Zm-3.76-3.58c.58-1.33,.93-2.89,1.04-4.72h-1.88c-.09,.27-.2,.53-.29,.8,.15,1.59,.57,2.88,1.12,3.93Z"/>
        <path class="cls-1" d="M84.95,17.39l-.27-.46c1.87-1.08,3.15-2.25,4.33-3.93l1.33,.81c-1.05,1.24-3.55,2.83-5.4,3.58Zm10.86,3.44h1.9v.67h-12.76v-.67h1.96v-4.09h8.89v4.09Zm1.51-8.02h-11.88v-.68h11.88v.68Zm-8.05-.89c-.55-1.08-1.44-2.4-2.1-3.21l.36-.39c1,.61,2.24,1.65,2.99,2.62l-1.25,.98Zm-1.05,8.91h1.26v-3.42h-1.26v3.42Zm3.81-3.42h-1.33v3.42h1.33v-3.42Zm.77-5.44l-.42-.33c.58-.82,1.32-2.44,1.65-3.55l1.49,.7c-.72,1.16-2.04,2.69-2.71,3.18Zm-.17,1.14c1.83,.66,4.15,1.84,5.31,2.71l-.96,1.31c-1.05-1.01-2.82-2.37-4.59-3.54l.24-.48Zm1.88,4.3h-1.26v3.42h1.26v-3.42Z"/>
        <path class="cls-1" d="M103,16.21v4.57c0,1.3-1.07,1.89-3.33,.44l.15-.49c1.58,.37,1.89,.28,1.89-.42v-3.37c-.54,.27-1.05,.51-1.5,.72l-.62-1.29c.67-.18,1.41-.39,2.12-.61v-3.49h-1.95v-.67h1.95v-3.27h1.29v3.27h1.74v.67h-1.74v3.03c.43-.17,.85-.34,1.21-.53l.3,.45c-.44,.34-.96,.67-1.51,1Zm9.15,5.89c-1.61-.36-2.92-.95-3.97-1.89-1.28,.96-2.87,1.65-4.77,1.99l-.15-.51c1.78-.52,3.15-1.32,4.2-2.25-.79-.96-1.39-2.2-1.8-3.82h-.96v-.66l5.17-.02,.3-.22,1.37,.63c-.5,1.56-1.3,2.92-2.42,4.03,1.05,.61,2.34,.91,3.88,1.12l-.85,1.59Zm-6.5-12.97h4.56v2.98c0,.58,.08,.77,.98,.78,.6,.02,.88-.15,1.17-.38l.63,1.02c-.39,.36-.78,.55-1.47,.55-2.21,0-2.59-.15-2.59-1.69v-2.59h-1.97c.03,2.58-.54,4.06-2.61,4.83l-.27-.5c1.4-.93,1.59-2.01,1.58-5.01Zm.54,6.49c.51,1.39,1.17,2.38,1.98,3.1,.85-.97,1.41-2.04,1.74-3.1h-3.72Z"/>
        <path class="cls-1" d="M119.63,19.72l1.36,.87c-1.15,.66-3.76,1.51-6.01,1.81l-.17-.53c1.98-.54,3.46-1.2,4.82-2.16Zm-3.9-5.14l-.79-1.09c1.25-.78,2.26-1.54,3.24-2.46l.39,.33c-.76,1.09-1.59,2.13-2.83,3.22Zm2.08-3.84c-.99-.72-1.75-1.27-2.46-1.69l.18-.51c.75,.14,1.96,.44,3.04,1l-.77,1.2Zm-1.06,3.39h9.31v5.46h-9.31v-5.46Zm1.32,1.6h6.67v-.93h-6.67v.93Zm0,1.51h6.67v-.89h-6.67v.89Zm0,1.67h6.67v-1.04h-6.67v1.04Zm.89-6.88l-.36-.38c.85-.98,1.35-1.98,1.77-3.55l1.29,.34c-.1,.31-.22,.6-.36,.89h4.48l.25-.21,1.3,.73c-.52,.8-1.3,1.5-2.14,2.02l-.39-.33c.43-.6,.64-.98,.9-1.59h-1.95c-.08,.33-.24,.82-.35,1.06,1.29,1.52,2.9,1.7,4.42,1.79l-.72,1.39c-1.29-.22-2.92-.81-4.05-2.67-.97,1.47-2.67,2.24-4.67,2.43l-.15-.51c2.34-.55,3.52-1.69,4-3.49h-1.32c-.51,.81-1.17,1.49-1.98,2.07Zm3.04,7.77c1.62,.18,3.9,.56,5.62,1.23l-.73,1.33c-1.35-.72-3.45-1.48-5.03-2.04l.14-.53Z"/>
      </g>
      <polyline class="cls-2" points="146.2 15.79 151.09 20.67 159.8 11.97"/>
    </g>
  </g>
</svg>