<?xml version="1.0" encoding="UTF-8"?>
<svg xmlns="http://www.w3.org/2000/svg" xmlns:xlink="http://www.w3.org/1999/xlink" viewBox="0 0 768 1199.41">
  <defs>
    <style>
      .cls-1, .cls-2, .cls-3, .cls-4 {
        opacity: .7;
      }

      .cls-5 {
        fill: url(#radial-gradient-2);
      }

      .cls-5, .cls-6 {
        mix-blend-mode: multiply;
      }

      .cls-7 {
        clip-path: url(#clippath-2);
      }

      .cls-2 {
        fill: url(#radial-gradient);
      }

      .cls-8 {
        isolation: isolate;
      }

      .cls-9 {
        clip-path: url(#clippath-1);
      }

      .cls-10 {
        clip-path: url(#clippath-4);
      }

      .cls-3 {
        fill: url(#radial-gradient-5);
      }

      .cls-11 {
        clip-path: url(#clippath);
      }

      .cls-12 {
        fill: none;
      }

      .cls-13 {
        clip-path: url(#clippath-3);
      }

      .cls-14 {
        clip-path: url(#clippath-5);
      }

      .cls-6 {
        fill: url(#radial-gradient-3);
      }

      .cls-4 {
        fill: url(#radial-gradient-4);
      }
    </style>
    <clipPath id="clippath">
      <rect class="cls-12" width="768" height="1199.41"/>
    </clipPath>
    <clipPath id="clippath-1">
      <rect class="cls-12" x="-112.73" y="48.25" width="661.76" height="112.77" transform="translate(-10.07 184.96) rotate(-45.01)"/>
    </clipPath>
    <radialGradient id="radial-gradient" cx="-42766.7" cy="3012.68" fx="-42766.7" fy="3012.68" r="510.87" gradientTransform="translate(6435.22 3716.36) rotate(44.99) scale(.16 .61) skewX(-.11)" gradientUnits="userSpaceOnUse">
      <stop offset="0" stop-color="#fff"/>
      <stop offset=".11" stop-color="#fff" stop-opacity=".84"/>
      <stop offset=".3" stop-color="#fff" stop-opacity=".59"/>
      <stop offset=".47" stop-color="#fff" stop-opacity=".38"/>
      <stop offset=".64" stop-color="#fff" stop-opacity=".21"/>
      <stop offset=".78" stop-color="#fff" stop-opacity=".1"/>
      <stop offset=".91" stop-color="#fff" stop-opacity=".03"/>
      <stop offset="1" stop-color="#fff" stop-opacity="0"/>
    </radialGradient>
    <clipPath id="clippath-2">
      <rect class="cls-12" x="-482.54" y="344.05" width="1130.97" height="117.77" transform="translate(-260.68 176.75) rotate(-45.01)"/>
    </clipPath>
    <radialGradient id="radial-gradient-2" cx="36057.3" cy="9799.87" fx="36057.3" fy="9799.87" r="533.51" gradientTransform="translate(-2777.66 11395.88) rotate(-135.01) scale(.16 1) skewX(-.18)" gradientUnits="userSpaceOnUse">
      <stop offset="0" stop-color="#d6d9e9"/>
      <stop offset=".06" stop-color="#d6d9e9" stop-opacity=".92"/>
      <stop offset=".26" stop-color="#d6d9e9" stop-opacity=".64"/>
      <stop offset=".44" stop-color="#d6d9e9" stop-opacity=".41"/>
      <stop offset=".62" stop-color="#d6d9e9" stop-opacity=".23"/>
      <stop offset=".77" stop-color="#d6d9e9" stop-opacity=".11"/>
      <stop offset=".9" stop-color="#d6d9e9" stop-opacity=".03"/>
      <stop offset="1" stop-color="#d6d9e9" stop-opacity="0"/>
    </radialGradient>
    <clipPath id="clippath-3">
      <rect class="cls-12" x="-283.7" y="-72.56" width="568.45" height="124.86" transform="translate(7.32 -2.59) rotate(-45.01)"/>
    </clipPath>
    <radialGradient id="radial-gradient-3" cx="-67956.16" cy="2530.82" fx="-67956.16" fy="2530.82" r="565.65" gradientTransform="translate(8640.02 6929.28) rotate(44.99) scale(.16 .47) skewX(-.08)" xlink:href="#radial-gradient-2"/>
    <clipPath id="clippath-4">
      <rect class="cls-12" x="-350.81" y="995.13" width="701.62" height="119.57" transform="translate(-746.13 309.17) rotate(-45.01)"/>
    </clipPath>
    <radialGradient id="radial-gradient-4" cx="-39532.5" cy="4365.26" fx="-39532.5" fy="4365.26" r="541.64" xlink:href="#radial-gradient"/>
    <clipPath id="clippath-5">
      <rect class="cls-12" x="488.88" y="936.54" width="701.62" height="119.57" transform="translate(-458.6 885.91) rotate(-45.01)"/>
    </clipPath>
    <radialGradient id="radial-gradient-5" cx="61226.62" cy="11047.48" fx="61226.62" fy="11047.48" r="541.64" gradientTransform="translate(3003.63 12701.72) rotate(-135.01) scale(.16 .61) skewX(-.11)" xlink:href="#radial-gradient"/>
  </defs>
  <g class="cls-8">
    <g id="_圖層_2" data-name="圖層 2">
      <g id="_圖層_1-2" data-name="圖層 1">
        <g class="cls-11">
          <g class="cls-9">
            <path class="cls-2" d="M316.26,202.7c-121.94,121.87-246.85,194.61-279.01,162.47C5.09,333.02,77.87,208.17,199.8,86.3,321.73-35.58,446.65-108.32,478.81-76.18c32.16,32.14-40.62,157-162.55,278.87Z"/>
          </g>
          <g>
            <g class="cls-1">
              <g class="cls-7">
                <path class="cls-5" d="M-19.51,300.53C188.88,92.24,385.03-49.4,418.62-15.83c33.59,33.57-108.12,229.63-316.51,437.91-208.39,208.29-404.55,349.93-438.13,316.36-33.58-33.57,108.12-229.63,316.51-437.91Z"/>
              </g>
            </g>
            <g class="cls-1">
              <g class="cls-13">
                <path class="cls-6" d="M109.16,98.45C4.42,203.14-109.36,259.16-144.96,223.57-180.57,187.98-124.53,74.26-19.79-30.43c104.74-104.69,218.52-160.71,254.12-125.12,35.61,35.59-20.44,149.31-125.18,253.99Z"/>
              </g>
            </g>
            <g class="cls-10">
              <path class="cls-4" d="M104.02,1158.88c-129.28,129.22-261.72,206.33-295.82,172.26-34.1-34.08,43.06-166.46,172.34-295.67,129.28-129.22,261.72-206.34,295.82-172.26,34.09,34.08-43.07,166.45-172.34,295.67Z"/>
            </g>
            <g class="cls-14">
              <path class="cls-3" d="M735.67,892.36c129.28-129.22,261.72-206.33,295.82-172.26,34.1,34.08-43.06,166.46-172.34,295.67-129.28,129.22-261.72,206.33-295.82,172.26-34.09-34.08,43.07-166.45,172.34-295.67Z"/>
            </g>
          </g>
        </g>
      </g>
    </g>
  </g>
</svg>