<?xml version="1.0" encoding="UTF-8"?>
<svg id="_圖層_2" data-name="圖層 2" xmlns="http://www.w3.org/2000/svg" xmlns:xlink="http://www.w3.org/1999/xlink" viewBox="0 0 58.86 36.93">
  <defs>
    <style>
      .cls-1 {
        fill: #fff;
      }

      .cls-2 {
        fill: #eff2d8;
      }

      .cls-3 {
        fill: url(#linear-gradient);
      }
    </style>
    <linearGradient id="linear-gradient" x1="44.4" y1="36.38" x2="44.4" y2="32.27" gradientUnits="userSpaceOnUse">
      <stop offset="0" stop-color="#f9e4da" stop-opacity="0"/>
      <stop offset="1" stop-color="#f0b89d"/>
    </linearGradient>
  </defs>
  <g id="_圖層_3" data-name="圖層 3">
    <g>
      <g>
        <g>
          <path class="cls-1" d="M8.8,5.89c-.94,4.79-3.56,10.15-7.95,12.85l-.48-.68c3.8-3.32,5.49-7.77,6.06-11.46l-5.16,.02v-.99l5.05-.02,.44-.44,2.04,.72Zm11.62,10.78l-1.6,2.39c-2.42-1.49-5.62-5.31-7.2-12.36v11.22c0,2.92-2.15,3.56-6,.94l.26-.77c3.32,.81,3.76,.59,3.76-.77V.22h1.98V2.6c.35,1.98,.88,3.95,1.67,5.8,1.34-1.16,3.01-2.92,4.11-4.7l2,1.6c-1.78,1.67-4.15,3.07-5.75,3.91,1.45,3.1,3.62,5.78,6.79,7.47Z"/>
          <path class="cls-1" d="M22.75,5.32c1.36,.61,3.03,1.54,4.33,2.5l-1.43,1.76c-.79-1.08-2.22-2.61-3.29-3.65l.4-.61ZM23.45,.18c1.1,.51,2.83,1.6,3.89,2.5l-1.47,1.6c-.81-1.14-2.06-2.66-2.88-3.49l.46-.62Zm2.77,10.21l.75,.22c-.42,2.7-1.08,6.68-1.74,8.94l-2.22-.94c1.16-2.35,2.24-5.42,3.21-8.21Zm9.51-6.5v2.33h5.29v12.63c0,2.09-2.5,1.91-4.7,.53l.22-.72c2.26,.51,2.55,.26,2.55-.44V7.21h-8.61v13.27h-1.93V6.22h5.2V3.89h-5.95v-.99h5.95V.11h1.98V2.9h6.06v.99h-6.06Zm2.83,10.89h-2.88v4.52h-1.89v-4.52h-2.92v-.94h2.92v-1.93h-2.72v-.94h1.67c-.4-1.1-.94-2.28-1.38-3.16l.61-.42c.7,.66,1.73,1.93,2.22,2.83l-1.41,.75h2.44c.37-1.08,.66-2.33,.86-3.49l1.73,.66c-.37,.83-1.14,2.06-1.69,2.83h2.33v.94h-2.77v1.93h2.88v.94Z"/>
        </g>
        <g>
          <path class="cls-1" d="M55.77,.38c-.16,.43-.38,.89-.62,1.32h2.6V6.52h-.71v-.65h-3.36v.65h-.71V1.69h1.79c.06-.35,.12-.9,.16-1.32h-2.87v-.38h6.58V.38h-2.87Zm1.27,1.66h-3.36v1.46h3.36v-1.46Zm0,1.8h-3.36v1.69h3.36v-1.69Z"/>
          <path class="cls-1" d="M54.28,12.17h-1.33v.61h-.63V7.9h1.96v4.27Zm-.62-3.93h-.71v3.59h.71v-3.59Zm5.19,4.63l-.55,.68c-.49-.38-1.26-1.3-1.61-2.56v3.01h-.69v-2.91c-.39,.79-1.23,1.87-2.29,2.52l-.16-.23c.96-.78,1.63-1.81,2.14-2.96h-1.26v-.34h1.57v-1.25h-1.32v-.34h1.32v-1.39h.69v1.39h1.38v.34h-1.38v1.25h1.72v.34h-1.63c.37,1.02,1.16,1.87,2.06,2.44Z"/>
          <path class="cls-1" d="M53.05,18.29l.26,.09c-.19,1.04-.53,2.42-.74,3.03l-.7-.35c.35-.68,.87-1.9,1.18-2.78Zm-.98-1.97c.4,.2,.93,.53,1.29,.87l-.47,.54c-.29-.41-.69-.85-.97-1.18l.15-.23Zm.87-.35c-.28-.35-.71-.83-.97-1.09l.14-.23c.38,.15,.96,.48,1.31,.79l-.47,.53Zm3.13,3.91h-.92s0,1.69,0,1.69h-.63v-1.7h-1.14v-.34h1.14v-.68h-.89v-2.38h.89v-.61h-1.09v-.35h1.09v-.93h.63v.93h1.01v.35h-1.01v.61h.9v2.38h-.9v.68h.92v.35Zm-1.85-2.41h1.24v-.66h-1.24v.66Zm1.24,1.04v-.71h-1.24v.71h1.24Zm2.99-3.45v5.83c0,.69-.65,.91-1.68,.26l.08-.26c.87,.21,.97,.12,.97-.22v-1.93h-.85c-.08,1.26-.41,2.07-1.2,2.91l-.2-.17c.67-1.02,.81-1.68,.81-3.59v-2.84h2.07Zm-.63,1.91h-.82v.93c0,.18,0,.36,0,.53h.83v-1.46Zm0-1.57h-.82v1.25h.82v-1.25Z"/>
          <path class="cls-1" d="M58.66,28.3v.41h-6.41v-.41h2.87v-1.91h-2.17v-.38h2.17v-1.64h-1.45c-.33,.62-.74,1.17-1.19,1.56l-.2-.17c.59-.81,1.05-1.94,1.27-3.33l.77,.22c-.11,.47-.27,.93-.47,1.36h1.28v-1.88h.71v1.88h2.32v.36h-2.32v1.64h2.14v.38h-2.14v1.91h2.83Z"/>
          <path class="cls-1" d="M53.07,32.78c-.27-.4-.84-1.02-1.15-1.36l.16-.23c.44,.22,1.08,.62,1.51,1.01l-.52,.59Zm.36,.34l.26,.08c-.15,.92-.53,2.48-.78,3.26l-.79-.36c.41-.81,.96-1.99,1.32-2.98Zm-.08-1.97c-.31-.41-.76-.95-1.08-1.3l.17-.23c.41,.2,1.05,.62,1.44,.98l-.53,.55Zm3.25,1.17v1.3h1.62v2.96h-.68v-.53h-2.55v.56h-.68v-2.99h1.58v-1.3h-2.03v-.34h2.03v-1.19c-.68,.1-1.32,.17-1.71,.19l-.05-.28c.87-.13,2.55-.53,3.49-1.02l.68,.61c-.45,.14-1.07,.28-1.7,.38v1.3h2.11v.34h-2.11Zm-1.61,1.64v1.75h2.55v-1.75h-2.55Z"/>
        </g>
        <g>
          <path class="cls-1" d="M12.81,34.26l-.96,1.65c-1.53-.78-3.69-2.57-4.82-4.93v5.95h-1.36v-5.89c-1.12,1.98-3.3,3.8-5.39,4.86l-.28-.47c2.32-1.57,3.84-3.35,4.86-5.21H.47v-.78H5.68v-2.23H1.45v-.71H5.68v-2.73h1.36v2.73h4.17v.71H7.03v2.23h5.24v.78H7.29c1.4,2.02,3.67,3.39,5.52,4.04Z"/>
          <path class="cls-1" d="M26.65,34.42l-.93,1.55c-1.86-1.07-3.43-2.53-4.62-4.72v5.63h-1.3v-5.13c-1.1,1.51-2.97,3.21-5.27,4.24l-.23-.47c1.72-.96,3.81-2.99,4.91-4.8l-.78,.54c-.27-.69-.58-1.34-.85-1.88-.47,1.21-1.19,2.29-2.47,3.3l-.34-.38c1.34-1.58,1.85-3.16,2.02-5.32l1.34,.25c-.08,.49-.18,.96-.31,1.41,.56,.52,1.2,1.16,1.58,1.74,.16-.28,.28-.55,.38-.8v-2.99h-4.98v-.78h4.98v-2.08h1.3v2.08h5.04v.78h-5.04v3.53c.18,.25,.37,.49,.55,.71,.76-1.14,1.13-2.2,1.36-3.87l1.33,.34c-.16,.52-.32,1-.52,1.44,.83,.59,1.61,1.31,2.08,1.85l-.99,.92c-.41-.73-.9-1.51-1.38-2.16-.41,.78-.89,1.4-1.48,1.93,1.36,1.53,2.77,2.4,4.62,3.14Z"/>
          <path class="cls-1" d="M39.02,36.19c-.48-.41-.86-.99-1.17-1.69-.89,1.02-2.01,1.79-3.4,2.34l-.23-.44c1.43-.75,2.46-1.77,3.25-2.99-.56-1.96-.71-4.45-.75-6.61h-2.73v2.2h2.43c0,1.1,.07,3.02-.07,4.11-.17,1.36-1.19,1.5-2.53,.47l.16-.41c.96,.23,1.1,.25,1.2-.2,.04-.18,.1-1.45,.08-3.33h-1.27v.72c0,2.97-.95,4.93-2.67,6.5l-.35-.34c1.06-1.17,1.57-2.89,1.74-4.66-1.26,.95-2.34,1.61-3.95,2.43l-.56-1.37c.47-.1,1.03-.25,1.67-.47v-4.11h-1.48v-.64h1.48v-3.59h1.21s0,3.57,0,3.57h1.43v.65h-1.43s0,3.69,0,3.69c.45-.18,.9-.38,1.34-.59l.3,.42c.04-.51,.07-1.02,.07-1.51v-4.18h3.94v-2.4h1.16v2.4h1.58c-.27-.54-.71-1.19-1.16-1.77l.34-.4c.69,.4,1.38,.93,1.92,1.44l-.86,.72h.95v.64h-2.75c.01,1.67,.11,3.47,.38,5.01,.49-1.17,.83-2.49,1.07-3.91l1.26,.37c-.42,2.05-1.03,3.76-1.93,5.14,.17,.51,.38,.95,.62,1.3,.68,1,.97,.41,.97-1.45h.45c.88,2.7-.17,4.22-1.69,2.94Z"/>
        </g>
      </g>
      <circle class="cls-3" cx="44.4" cy="33.95" r="2.79"/>
      <path class="cls-2" d="M44.4,34.15s-.09-.02-.13-.05c-.09-.07-.1-.2-.02-.29,3.51-4.17,5.44-9.48,5.44-14.95,0-5.47-1.93-10.77-5.44-14.95-.07-.09-.06-.22,.02-.29,.09-.07,.22-.06,.29,.02,3.57,4.25,5.54,9.65,5.54,15.21,0,5.56-1.97,10.97-5.54,15.21-.04,.05-.1,.07-.16,.07Z"/>
    </g>
  </g>
</svg>