<?xml version="1.0" encoding="UTF-8"?>
<svg id="_圖層_2" data-name="圖層 2" xmlns="http://www.w3.org/2000/svg" xmlns:xlink="http://www.w3.org/1999/xlink" viewBox="0 0 314.24 60.31">
  <defs>
    <style>
      .cls-1 {
        fill: #fff;
      }

      .cls-2 {
        filter: url(#drop-shadow-1);
      }
    </style>
    <filter id="drop-shadow-1" filterUnits="userSpaceOnUse">
      <feOffset dx="1.66" dy="1.66"/>
      <feGaussianBlur result="blur" stdDeviation="4.16"/>
      <feFlood flood-color="#040000" flood-opacity=".4"/>
      <feComposite in2="blur" operator="in"/>
      <feComposite in="SourceGraphic"/>
    </filter>
  </defs>
  <g id="_圖層_3" data-name="圖層 3">
    <g class="cls-2">
      <path class="cls-1" d="M23.69,24l-.2-1.29c6.19,.34,8.9-1.01,9.07-5.21,.14-3.36-1.51-4.31-3.22-4.31s-2.83,.5-3.36,1.18l-1.88-.31,.37-9.8h10.08v1.85h-7.67l-.22,6.24,.11,.11c.53-.31,1.74-.98,3.16-.95,2.91,.03,5.54,1.99,5.54,5.6,0,5.91-4.56,7.62-11.79,6.89Z"/>
      <path class="cls-1" d="M43.74,14.14c0-6.61,3.02-10.19,7.11-10.19s6.78,3.64,6.78,9.91c0,6.69-2.63,10.42-7.06,10.39-3.95-.03-6.83-3.61-6.83-10.11Zm10.98-.17c0-4.84-1.23-8.43-4.03-8.43-2.38,0-4.03,3.25-4.03,8.62s1.54,8.48,4,8.48c2.77,0,4.06-3.64,4.06-8.68Z"/>
      <path class="cls-1" d="M65.46,14.14c0-6.61,3.02-10.19,7.11-10.19s6.78,3.64,6.78,9.91c0,6.69-2.63,10.42-7.05,10.39-3.95-.03-6.83-3.61-6.83-10.11Zm10.97-.17c0-4.84-1.23-8.43-4.03-8.43-2.38,0-4.03,3.25-4.03,8.62s1.54,8.48,4,8.48c2.77,0,4.06-3.64,4.06-8.68Z"/>
      <path class="cls-1" d="M93.18,7.25V26.24h-2.41V11.68c-.81,1.2-1.76,2.35-2.88,3.39l-.73-.7c2.74-3.7,4.65-9.97,5.52-14.14l2.69,.76c-.53,1.88-1.2,4.06-2.18,6.27Zm3.53,11.2l.9,.2c-.2,2.58-.62,4.84-2.1,6.69l-2.13-1.6c1.65-1.32,2.72-3.16,3.33-5.29Zm1.51-14.08h-2.55v-1.26h7.39c-1.12-.78-2.24-1.48-3.45-2.21l.34-.9c1.48,.31,3.53,.7,5.26,1.54l-.9,1.57h6.86v1.26h-3.28l.64,.22c-.81,1.26-1.93,2.44-2.8,3.28h6.58v1.26h-17.72v-1.26h5.6c-.7-1.2-1.43-2.3-2.18-3.28l.2-.22Zm12.24,12.94h-14.2v-6.83h14.2v6.83Zm-2.6,2.38c1.82,4.4,.98,5.77-1.76,5.96-1.65,.11-3.08,.11-4.82,.03-1.34-.06-2.8-.28-2.8-2.69v-4.37h2.35v3.5c0,1.15,.25,1.26,1.18,1.34,.98,.08,2.6,.08,3.61-.03,1.34-.14,1.48-.5,1.29-3.75h.95Zm.14-8.01h-9.27v1.6h9.27v-1.6Zm0,2.72h-9.27v1.71h9.27v-1.71Zm-2.07-10.02h-6.5c1.06,.7,2.13,1.6,2.94,2.52l-1.2,.98h3.53c.5-1.12,.92-2.27,1.23-3.5Zm-4.54,14.08l.48-.78c1.26,.53,2.91,1.37,4.37,2.6l-1.46,1.82c-1.01-1.23-2.49-2.8-3.39-3.64Zm11.51,5.29l-2.3,1.01c-.5-1.82-1.32-4.14-2.16-5.96l.78-.42c1.6,1.57,3.02,3.89,3.67,5.38Z"/>
      <path class="cls-1" d="M131.77,20.3l.42,.92c-2.24,1.46-6.89,3.22-10.5,4.23l-.84-2.8c.5-.06,1.01-.14,1.51-.22V12.99h2.18v9.07c.48-.08,.95-.17,1.4-.28V10.22h-3.3V1.79h8.34V10.22h-2.63v4.73h3.56v1.26h-3.56v5.04c1.26-.31,2.44-.62,3.42-.95Zm-6.83-11.34h3.75V3.05h-3.75v5.91Zm21.64,.95l-1.43,2.41c-2.6-1.01-4.98-3.44-6.36-7h-1.2c-.76,1.68-1.68,3.02-2.69,4.12h6.08v1.26h-6.22v-1.09c-1.37,1.43-2.91,2.44-4.4,3.16l-.48-.73c2.1-1.29,4.03-3.33,5.32-6.72h-3.42v-1.26h3.84c.34-1.12,.59-2.38,.78-3.78l2.58,.39c-.22,1.23-.53,2.38-.9,3.39h7.22v1.26h-5.4c1.68,2.52,3.7,3.7,6.66,4.59Zm-14.45,3.3h12.24v1.26h-6.8c-.34,.9-.73,1.82-1.15,2.77h7.67c-.36,3.42-.62,5.1-1.04,6.41-.87,2.69-3.22,3.86-7.45,.34l.39-.9c3.78,1.32,4.31,1.12,4.73-.22,.25-.81,.56-2.38,.73-4.37h-5.6c-.39,.84-.81,1.68-1.26,2.41l-2.21-.76c1.04-1.76,1.9-3.84,2.58-5.68h-2.83v-1.26Z"/>
      <path class="cls-1" d="M178.5,1.4V26.15h-2.46v-1.43h-17.55v1.51h-2.46V1.4h22.48Zm-2.46,1.26h-17.55V23.46h17.55V2.66Zm-16.32,18.45l-.81-2.27c3-.5,6.5-1.51,8.68-2.32l.36,.9c-2.07,1.32-5.57,2.88-8.23,3.7Zm7.81-12.99h-8.51v-1.26h8.43c-.06-1.12-.08-2.3-.08-3.53h2.24c0,1.15,0,2.32,.06,3.53h2.69c-.53-1.09-1.29-2.46-1.79-3.3l.78-.59c.92,.67,2.32,2.07,3.02,3.05l-1.2,.84h2.38v1.26h-5.82c.14,2.27,.36,4.51,.78,6.41,.62-1.43,1.12-3.08,1.62-5.1l2.16,.78c-.9,2.86-1.82,5.07-3,6.86,.45,1.04,.98,1.85,1.65,2.3,.67,.45,.73-1.04,.73-3.86h1.01c1.34,4.37,.64,8.29-2.38,6.33-1.01-.64-1.82-1.62-2.46-2.88-1.46,1.54-3.25,2.72-5.68,3.84l-.48-.87c2.44-1.48,4.12-2.88,5.38-4.73-.81-2.32-1.29-5.38-1.51-9.07Zm-7.64,8.01v-6.1h6.75v6.1h-6.75Zm2.07-1.18h2.6v-3.75h-2.6v3.75Z"/>
      <path class="cls-1" d="M213.47,22.68l-.95,2.97c-4.96,.34-11.09,.39-14.36-.62-1.85-.56-3.5-1.51-4.84-2.97-1.23,1.82-2.74,3.33-4.54,4.51l-.62-.81c1.29-1.06,2.74-2.72,3.95-5.21-1.04-1.6-1.79-3.58-2.24-6.1l.98-.28c.48,1.82,1.09,3.39,1.99,4.7,.73-1.99,1.32-4.42,1.62-7.42h-2.44c-.45,.81-.87,1.51-1.2,1.93l-1.99-.84c1.32-2.16,3.25-5.94,4.48-9.1h-4.62v-1.2h7.73c-.76,2.07-2.32,5.38-3.7,7.95h1.68l.45-.45,2.21,.84c-.36,3.75-1.29,7.11-2.83,9.94,.87,.81,1.9,1.43,3.14,1.9,3.64,1.37,10.67,.9,16.1,.25Zm-10.61-15.18h-6.13v-1.2h6.13v-2.24h-4.82v-1.26h4.82V.31h2.41V2.8h5.46v3.5h2.27v1.2h-2.27v3.78h-5.46v2.21h5.71v1.26h-5.71v2.6h7v1.26h-7v3.7h-2.41v-3.7h-6.16v-1.26h6.16v-2.6h-5.15v-1.26h5.15v-2.21h-4.96v-1.26h4.96v-2.52Zm2.41-1.2h3.25v-2.24h-3.25v2.24Zm0,3.72h3.25v-2.52h-3.25v2.52Z"/>
      <path class="cls-1" d="M233.21,6.55h-11.14v-1.26h5.1c-.78-1.65-1.82-3.53-2.44-4.59l.76-.64c1.26,.98,3,2.83,3.98,4.31l-1.4,.92h5.18l-.03,1.26Zm-1.51,2.72v1.09h-8.48v-1.09h8.48Zm0,4.96h-8.48v-1.09h8.48v1.09Zm.17,9.97h-6.16v1.9h-2.41v-9.04h8.57v7.14Zm-2.35-5.91h-3.81v4.68h3.81v-4.68Zm16.21,7.95c-1.74-.45-4.45-1.62-6.83-3.89-1.99,1.76-4.45,3.22-7.56,4.2l-.42-.92c2.88-1.26,5.07-2.91,6.66-4.7-1.43-1.74-2.63-3.95-3.28-6.72h-1.68v-1.26h8.51l.7-.48,2.58,1.06c-.81,2.55-2.1,5.04-3.95,7.22,2.55,1.62,5.29,2.21,6.83,2.55l-1.57,2.94Zm-11.31-21.76V2.02h7.76V7.67c0,.87,.14,1.23,1.15,1.23,.87,0,1.37-.08,2.1-.78l1.06,1.93c-.7,.73-1.88,1.09-3.58,1.09-2.58,0-3.19-.7-3.19-3.08V3.28h-2.77v1.29c0,4.62-1.62,6.36-4.93,7.9l-.5-.87c2.38-1.85,2.91-2.58,2.91-7.11Zm4.34,14.95c1.26-1.76,2.02-3.61,2.44-5.24h-5.82c.76,2.27,1.96,3.98,3.39,5.24Z"/>
      <path class="cls-1" d="M264.8,13.1c-.92,.62-1.9,1.18-2.88,1.71v9.13c0,2.44-2.49,3.22-6.16,.81l.28-.92c2.94,.64,3.47,.53,3.47-.78v-7c-1.04,.48-2.04,.92-3.05,1.32l-1.01-2.69c1.29-.28,2.69-.62,4.06-1.01V7.9h-3.75v-1.26h3.75V.45h2.41V6.64h3.25v1.26h-3.25v5.07l2.52-.81,.36,.95Zm12.29,12.24c-2.58,.17-5.63,.17-8.9,0-2.46-.14-3.11-1.2-3.11-2.94V10.33h13.55v7.06h-11.2v4.37c0,1.09,.45,1.32,1.43,1.37,3.16,.17,5.6,.2,8.06,0,1.43-.11,1.74-.28,1.74-4h1.01c1.51,5.21,.25,6.02-2.58,6.22Zm-.08-16.8h-10.44V1.85h10.44v6.69Zm-9.58,7.59h3.33v-4.54h-3.33v4.54Zm7.22-13.02h-5.8V7.28h5.8V3.11Zm-1.71,13.02h3.36v-4.54h-3.36v4.54Z"/>
      <path class="cls-1" d="M293.41,12.57c-1.01-1.48-3.11-3.78-4.26-5.04l.53-.87c1.68,.84,3.98,2.21,5.6,3.67l-1.88,2.24Zm1.99,1.34c-.92,3.98-2.07,8.57-3.08,11.09l-2.74-1.51c1.48-2.6,3.39-6.47,4.87-9.97l.95,.39Zm-.64-7.7c-1.12-1.54-2.77-3.56-4-4.87l.56-.84c1.62,.73,4.06,2.3,5.38,3.64l-1.93,2.07Zm19.49,17.78v1.26h-19.04v-1.26h8.43V15.37h-6.36v-1.26h6.36V7.31h-7.34v-1.26h8.62c-1.09-1.6-2.6-3.67-3.81-5.18l.67-.76c1.65,1.01,4.29,2.97,5.63,4.4l-1.68,1.54h7.98v1.26h-7.39v6.8h6.66v1.26h-6.66v8.62h7.92Z"/>
      <path class="cls-1" d="M3.36,51.66c.08,3.3-.2,6.1-.81,7.92l-2.55-1.09c1.04-1.68,1.96-3.95,2.44-6.94l.92,.11Zm-.84-3.75c1.09-1.57,2.13-3.33,3.08-5.38-1.54,.53-3.16,.95-4.54,1.26l-.62-2.3c.56,.03,1.12,.03,1.68,.03,.92-2.1,1.76-4.73,2.44-7.81l2.55,.76c-1.15,2.49-2.66,5.24-3.89,7.03,.98-.03,1.96-.11,2.91-.17,.45-1.01,.87-2.07,1.26-3.19l2.41,1.06c-1.46,2.88-3.75,6.27-5.99,8.65,1.12-.08,2.24-.2,3.47-.36-.28-.7-.56-1.37-.84-1.99l.84-.48c1.18,1.29,2.35,2.94,3.02,4.42l-1.99,.95c-.2-.59-.42-1.26-.67-1.93-2.35,.95-4.9,1.71-6.58,2.07l-.73-2.58c.73,0,1.46,0,2.18-.06Zm2.88,3.25c.78,2.16,1.51,5.07,1.82,6.75l-2.46,.48c-.03-1.76-.11-4.79-.28-7.06l.92-.17Zm4.45,3.61l-2.04,.81c-.36-1.76-.73-3.16-1.23-4.87l.9-.36c1.04,1.51,1.68,2.74,2.38,4.42Zm2.32-3.14c.06,2.44-.17,4.45-1.06,6.61l-2.3-1.26c1.23-1.74,1.9-3.08,2.38-5.52l.98,.17Zm3.81-2.74h-5.4v-11.9h4.93c.28-1.01,.45-2.07,.67-3.42l2.58,.56c-.67,1.06-1.37,2.1-2.02,2.86h7.62v11.9h-7.5c1.32,.76,2.77,1.88,4,3.14l-1.82,1.76c-1.12-1.74-2.44-3.3-3.47-4.45l.42-.45Zm5.66,4.9c1.12,3.75,.48,5.1-1.65,5.21-1.43,.08-2.72,.08-3.87,0-2.69-.2-3.19-1.01-3.19-3.25v-5.66h2.41v5.32c0,1.04,.39,1.34,1.34,1.4,.78,.06,1.76,.11,2.72,0,1.09-.14,1.32-.17,1.23-3.02h1.01Zm-8.68-6.16h.87l-.25-.53c1.26-.84,2.38-1.71,3.42-2.97-.56-.45-1.12-.84-1.71-1.26-.53,.64-1.06,1.18-1.6,1.68l-.7-.62c.45-.59,.84-1.2,1.18-1.82-.31-.22-.64-.42-.95-.62l.37-.78c.36,.14,.73,.31,1.06,.45,.45-.9,.78-1.85,1.12-2.91h-2.8v9.38Zm9.04-9.38h-5.35l1.26,.39c-.2,.45-.39,.84-.59,1.23h1.71l.45-.42,1.99,.9c-.59,1.37-1.23,2.46-1.93,3.39,.79,.5,1.57,1.04,2.38,1.65l-1.46,1.68c-.7-.67-1.43-1.29-2.16-1.9-1.23,1.18-2.49,1.9-3.72,2.46h7.42v-9.38Zm-5.88,3.58c.59,.28,1.21,.59,1.79,.92,.36-.56,.7-1.18,1.01-1.9h-2.16c-.22,.34-.42,.67-.64,.98Zm9.69,14.39l-2.1,1.06c-.59-1.9-1.23-3.81-2.07-5.6l.76-.48c1.32,1.43,2.58,3.14,3.42,5.01Z"/>
      <path class="cls-1" d="M40.29,48.75v8.54c0,2.44-1.99,3.53-6.21,.81l.28-.92c2.94,.7,3.53,.53,3.53-.78v-6.3c-1.01,.5-1.96,.95-2.8,1.34l-1.15-2.41c1.26-.34,2.63-.73,3.95-1.15v-6.52h-3.64v-1.26h3.64v-6.1h2.41v6.1h3.25v1.26h-3.25v5.66c.81-.31,1.6-.64,2.27-.98l.56,.84c-.81,.64-1.79,1.26-2.83,1.88Zm17.08,11c-3-.67-5.46-1.76-7.42-3.53-2.38,1.79-5.35,3.08-8.9,3.72l-.28-.95c3.33-.98,5.88-2.46,7.84-4.2-1.48-1.79-2.6-4.12-3.36-7.14h-1.79v-1.23l9.66-.03,.56-.42,2.55,1.18c-.92,2.91-2.44,5.46-4.51,7.53,1.96,1.15,4.37,1.71,7.25,2.1l-1.6,2.97Zm-12.12-24.22h8.51v5.57c0,1.09,.14,1.43,1.82,1.46,1.12,.03,1.65-.28,2.18-.7l1.18,1.9c-.73,.67-1.46,1.04-2.74,1.04-4.12,0-4.84-.28-4.84-3.16v-4.84h-3.67c.06,4.82-1.01,7.59-4.87,9.02l-.5-.92c2.6-1.74,2.97-3.75,2.94-9.35Zm1.01,12.12c.95,2.6,2.18,4.45,3.7,5.8,1.6-1.82,2.63-3.81,3.25-5.8h-6.94Z"/>
      <path class="cls-1" d="M76.94,55.3l2.55,1.62c-2.16,1.23-7.03,2.83-11.23,3.39l-.31-.98c3.7-1.01,6.47-2.24,8.99-4.03Zm-7.28-9.6l-1.48-2.04c2.32-1.46,4.23-2.88,6.05-4.59l.73,.62c-1.43,2.04-2.97,3.98-5.29,6.02Zm3.89-7.17c-1.85-1.34-3.28-2.38-4.59-3.16l.34-.95c1.4,.25,3.67,.81,5.68,1.88l-1.43,2.24Zm-1.99,6.33l17.39,.03v10.16h-17.39v-10.19Zm2.46,3h12.46v-1.74h-12.46v1.74Zm0,2.83h12.46v-1.65h-12.46v1.65Zm0,3.11h12.46v-1.93h-12.46v1.93Zm1.65-12.85l-.67-.7c1.6-1.82,2.52-3.7,3.3-6.64l2.41,.64c-.2,.59-.42,1.12-.67,1.65h8.37l.48-.39,2.44,1.37c-.98,1.48-2.44,2.8-4,3.78l-.73-.62c.81-1.12,1.2-1.82,1.68-2.97h-3.64c-.14,.62-.45,1.54-.64,1.99,2.41,2.83,5.4,3.16,8.26,3.33l-1.34,2.6c-2.41-.42-5.46-1.51-7.56-4.98-1.82,2.74-4.98,4.17-8.71,4.54l-.28-.95c4.37-1.04,6.58-3.16,7.48-6.52h-2.46c-.95,1.51-2.18,2.77-3.7,3.86Zm5.68,14.5c3.02,.34,7.28,1.04,10.5,2.3l-1.37,2.49c-2.52-1.34-6.44-2.77-9.38-3.81l.25-.98Z"/>
      <path class="cls-1" d="M126.67,43.06l-1.68,3c-2.13-.73-7.59-3.25-11-9.21-.64,.92-1.37,1.85-2.18,2.74,1.26,.84,2.8,2.1,4.14,3.64l-2.24,1.74c-.87-1.62-1.85-3.25-2.74-4.51-2.6,2.55-5.94,4.82-9.44,6.3l-.5-.9c5.63-3.3,9.32-7.78,11.26-12.26l2.94,1.09c-.17,.36-.39,.76-.59,1.12,3.98,5.15,9.1,6.5,12.04,7.25Zm-10.22,7.87h5.66v8.88h-2.63v-1.71h-11.34v1.76h-2.63v-8.93h9.38c.79-1.29,1.68-3.16,2.21-4.56h-11.71v-1.26h11.71l.7-.59,2.83,1.46c-1.09,1.9-2.94,3.89-4.17,4.96Zm3.02,1.26h-11.34v4.65h11.34v-4.65Z"/>
      <path class="cls-1" d="M160.16,42.62l-1.62,2.74c-3.72-1.57-8.12-4.62-10.89-8.68-3.53,4.54-8.06,7.45-12.68,9.38l-.45-.92c3.92-2.02,8.79-6.02,11.48-11.59l3.08,1.15c-.25,.39-.5,.76-.76,1.09,3.84,4.12,8.51,5.88,11.84,6.83Zm-11.56,14.84h9.83v1.54h-22.21v-1.54h9.69v-8.46h-8.62v-1.26h8.62v-3.72l-4.54-.03v-1.26l11.87,.03v1.26h-4.65v3.72h8.65v1.26h-8.65v8.46Zm-4.17-2.04l-2.52,1.4c-.81-2.13-1.88-4.37-2.94-6.36l.79-.64c1.62,1.51,3.44,3.72,4.68,5.6Zm5.38,.76c1.18-1.68,2.55-4.26,3.36-6.36l2.63,1.54c-1.51,2.04-3.7,4.28-5.26,5.49l-.73-.67Z"/>
      <path class="cls-1" d="M193,57.48v1.26h-24.05v-1.26h10.81v-1.82h-8.51v-1.26h8.51v-1.88h-7.22v-7.11h17.11v7.11h-7.42v1.88h8.79v1.26h-8.79v1.82h10.78Zm-.5-13.52h-23.02v-1.26h23.02v1.26Zm-3.47-2.77h-15.85v-6.24h15.85v6.24Zm-9.27,10.08v-1.71h-4.87l-.03,1.71h4.9Zm-4.87-2.91h4.87v-1.68h-4.87v1.68Zm11.84-12.15h-11.26v1.2h11.26v-1.2Zm0,2.41h-11.26v1.32h11.26v-1.32Zm-4.51,9.74h5.07v-1.68h-5.07v1.68Zm0,2.91h5.04l.03-1.71h-5.07v1.71Z"/>
      <path class="cls-1" d="M226.16,59.22c-2.21-.11-7.53,0-12.66-2.88-2.58,2.74-6.38,3.42-10,3.92l-.25-1.04c3.3-.73,6.38-1.48,8.4-4.06-1.57-1.09-3.05-2.52-4.4-4.34l.73-.7c1.51,1.51,3.05,2.66,4.59,3.53,.53-1.09,.95-2.41,1.18-4.03h-7.53v-10.28h7.76v-2.86h-10.72v-1.4h23.41v1.4h-10.05v2.86h7.39v10.28h-7.62c-.31,2.1-.87,3.75-1.65,5.07,4.45,1.82,8.85,1.65,12.63,1.62l-1.2,2.91Zm-17.42-15.51h5.24v-3.11h-5.24v3.11Zm5.15,4.65c.06-.7,.08-1.48,.08-2.3v-1.09h-5.24v3.39h5.15Zm7.59-3.39h-4.87v1.15c0,.78-.03,1.54-.08,2.24h4.96v-3.39Zm-4.87-4.37v3.11h4.87v-3.11h-4.87Z"/>
      <path class="cls-1" d="M260.88,47.8l-1.48,2.6c-2.46-1.23-4.14-2.74-5.68-5.77h-2.97c-1.46,2.55-3.53,4.45-6.27,5.99l-.34-.56v6.92c0,2.46-2.35,3.61-5.68,1.12l.34-.95c2.74,.76,3.05,.48,3.05-.76v-7.08h-2.32c-.31,5.26-1.37,8.68-3.25,10.75l-.81-.59c1.12-2.21,1.85-4.51,1.85-14.5v-9.66h6.83v14.28c1.93-1.51,3.36-3.05,4.37-4.96h-3.72v-1.26h4.34c.28-.7,.5-1.43,.7-2.24l-4.26,.03v-1.26l4.54-.03c.31-1.74,.45-3.75,.48-6.13l2.63,.08c-.06,2.27-.28,4.26-.67,6.05l7.2-.06v1.26l-7.53,.06c-.22,.78-.5,1.54-.81,2.24h8.79v1.26h-5.18c1.9,2.04,3.89,2.66,5.88,3.16Zm-19.04,.25v-5.49h-2.24v3.3c0,.76,0,1.51-.03,2.21l2.27-.03Zm-2.24-6.75h2.24v-4.73h-2.24v4.73Zm12.4,8.68h5.82c-.14,3.28-.22,6.05-.56,7.78-.42,2.24-2.52,3.3-6.38,.34l.34-.9c3,.9,3.56,.78,3.81-.5,.22-1.2,.34-3.58,.36-5.46h-3.58c-.84,4.37-3,7.06-7.22,8.9l-.5-.84c3.36-2.21,4.73-4.45,5.32-8.06h-3.56l.03-1.26h3.67c.11-.98,.2-2.07,.22-3.28l2.46,.14c-.03,1.12-.08,2.16-.22,3.14Zm-4.76-10.44c-.42-1.46-1.12-3.28-1.71-4.65l.84-.53c1.18,1.12,2.27,2.6,3.11,4.09l-2.24,1.09Zm7.98,.11l-.84-.45c.59-1.4,1.06-2.88,1.48-4.68l2.6,.98c-.92,1.65-2.13,3.02-3.25,4.14Z"/>
      <path class="cls-1" d="M278.35,39.7h-9.91v-1.85h12.66v1.76l-8.68,17.92h-2.94l8.88-17.67v-.17Z"/>
      <path class="cls-1" d="M293.5,52.67l2.6,1.46c-1.96,2.6-4.2,4.59-6.27,5.91l-.67-.76c1.65-1.65,3.36-4.42,4.34-6.61Zm9.6-.39h-13.66v-1.26h2.66v-11.73h-2.35v-1.26h2.35v-4h2.41v4h3.81v-4h2.41v4h2.27v1.26h-2.27v11.73h2.38v1.26Zm-4.79-12.99h-3.81v2.88h3.81v-2.88Zm0,4.09h-3.81v3.08h3.81v-3.08Zm0,4.28h-3.81v3.36h3.81v-3.36Zm3.72,8.51l-1.99,1.76c-.98-1.68-2.1-3.16-3.19-4.54l.67-.76c1.48,.81,3.33,2.24,4.51,3.53Zm10.67-20.89v21.76c0,2.52-2.27,4.12-6.97,.78l.31-.95c3.84,.9,4.2,.67,4.2-.78v-6.64h-3.95c-.36,4.23-1.51,7.81-5.15,10.61l-.7-.76c3.44-3.58,3.56-8.37,3.56-15.43v-8.6h8.71Zm-2.46,12.91v-5.35h-3.78v.59c0,1.65,0,3.25-.08,4.76h3.86Zm-3.78-11.65v5.04h3.78v-5.04h-3.78Z"/>
    </g>
  </g>
</svg>