<?xml version="1.0" encoding="UTF-8"?>
<svg id="_圖層_2" data-name="圖層 2" xmlns="http://www.w3.org/2000/svg" xmlns:xlink="http://www.w3.org/1999/xlink" viewBox="0 0 313.12 159.28">
  <defs>
    <style>
      .cls-1 {
        fill: #fff;
      }

      .cls-2 {
        filter: url(#drop-shadow-1);
      }
    </style>
    <filter id="drop-shadow-1" filterUnits="userSpaceOnUse">
      <feOffset dx="2.52" dy="2.52"/>
      <feGaussianBlur result="blur" stdDeviation="6.3"/>
      <feFlood flood-color="#040000" flood-opacity=".4"/>
      <feComposite in2="blur" operator="in"/>
      <feComposite in="SourceGraphic"/>
    </filter>
  </defs>
  <g id="_圖層_3" data-name="圖層 3">
    <g class="cls-2">
      <path class="cls-1" d="M18.02,61.21c0,7.07-6.48,9.75-18.02,2.31l.89-2.53c9.16,2.23,10.28,1.71,10.28-1.79V8.71H.37v-3.35H25.39v3.35h-7.37V61.21Zm19.43-6.55l6.18,4.69c-6.92,5.21-17.65,9.75-25.39,11.62l-1.04-2.53c7.15-2.98,15.12-8.27,20.25-13.78ZM41.48,7.6h-15.04v-3.35h38.27v3.35h-15.86c-1.71,3.35-3.8,7.15-5.21,9.53h17.87V53.84H27.4V17.13h12.96c.45-2.83,.89-6.85,1.12-9.53Zm13.48,12.88h-21v7.6h21v-7.6Zm0,10.95h-21v7.89h21v-7.89Zm0,11.24h-21v7.82h21v-7.82Zm12.51,21.37l-4.32,6.33c-4.25-3.72-11.32-9.16-16.83-12.73l1.12-2.46c6.78,2.16,13.92,5.14,20.03,8.86Z"/>
      <path class="cls-1" d="M148.41,61.95l-4.47,7.67c-9.46-2.23-22.26-8.34-27.85-23.38-4.54,14.74-17.2,21.45-33.14,24.35l-.82-2.53c14.07-3.95,23.38-10.72,26.88-22.93h-25.62v-3.35h26.43c.52-2.53,.75-5.36,.82-8.34l7.3,.45c-.08,2.83-.3,5.44-.75,7.89h29.41v3.35h-28.22c6.03,11.91,19.73,15.19,30.01,16.83Zm-64.11-28.67l-1.79-2.08c5.66-4.99,13.03-13.92,16.6-23.75l7.22,3.28c-5.14,9.53-13.78,17.72-22.04,22.56Zm18.99-9.98c7.67,2.38,9.98,3.05,9.98-1.79V.67h7.07V23.31c-.08,8.56-7.07,11.54-18.09,2.38l1.04-2.38Zm37.98,6.93c-3.05-5.06-9.98-14.67-15.64-20.33l1.79-2.08c7.3,4.32,15.94,11.99,20.18,17.13l-6.33,5.29Z"/>
      <path class="cls-1" d="M226.82,3.72V69.55h-6.55v-3.8h-46.69v4.02h-6.55V3.72h59.79Zm-6.55,3.35h-46.69V62.4h46.69V7.07Zm-43.41,49.07l-2.16-6.03c7.97-1.34,17.28-4.02,23.08-6.18l.97,2.38c-5.51,3.5-14.82,7.67-21.89,9.83Zm20.78-34.55h-22.64v-3.35h22.41c-.15-2.98-.22-6.11-.22-9.38h5.96c0,3.05,0,6.18,.15,9.38h7.15c-1.42-2.9-3.42-6.55-4.77-8.79l2.08-1.56c2.46,1.79,6.18,5.51,8.04,8.12l-3.2,2.23h6.33v3.35h-15.49c.37,6.03,.97,11.99,2.08,17.05,1.64-3.8,2.98-8.19,4.32-13.55l5.73,2.08c-2.38,7.6-4.84,13.48-7.97,18.24,1.19,2.76,2.61,4.91,4.39,6.11s1.94-2.76,1.94-10.28h2.68c3.57,11.62,1.71,22.04-6.33,16.83-2.68-1.71-4.84-4.32-6.55-7.67-3.87,4.1-8.64,7.22-15.12,10.2l-1.27-2.31c6.48-3.95,10.95-7.67,14.3-12.58-2.16-6.18-3.43-14.3-4.02-24.13Zm-20.33,21.3V26.66h17.95v16.23h-17.95Zm5.51-3.13h6.93v-9.98h-6.93v9.98Z"/>
      <path class="cls-1" d="M261.96,42.67c-.3-4.69-1.42-8.86-4.99-15.26,1.34-4.39,2.83-12.96,3.65-19.58h-5.51v62.25h-6.25V3.05l6.25,1.64h5.14l1.64-1.12,6.25,2.76c-3.13,9.31-6.18,16.83-8.64,20.63,4.99,5.73,7.67,11.24,8.27,17.42,.89,9.01-4.54,11.99-11.91,7.22l.67-2.53c5.21,1.04,5.88,.15,5.44-6.4Zm1.04,23.75l-1.64-2.08c4.69-4.02,10.5-11.17,13.63-18.09l6.4,3.43c-4.62,6.78-13.33,13.63-18.39,16.75Zm-.3-41.4c5.36-7.45,8.34-16.01,10.2-25.02l6.11,1.56c-.52,1.86-1.27,3.8-2.08,5.81h4.84l1.64-1.04,5.58,2.38c-2.23,8.79-5.51,15.71-9.98,21.3h20.78v3.28h-21.97v-1.86c-2.61,3.05-5.66,5.58-9.08,7.89l-1.49-2.16c3.05-2.76,5.66-5.81,7.82-9.01-1.64-2.23-3.95-4.91-5.81-6.93-1.49,2.01-3.13,3.87-4.84,5.44l-1.71-1.64Zm29.41,37.38c.07,8.86-8.19,10.35-17.95,2.38l1.04-2.46c9.01,2.76,10.35,2.46,10.35-1.71v-16.75h-15.94v-3.35h39.61v3.35h-17.13v18.54Zm-14.52-38.57c.6-1.12,1.12-2.31,1.64-3.5-1.86-1.79-4.1-3.65-6.11-5.14-.74,1.41-1.56,2.76-2.46,4.02,2.23,1.27,4.84,2.98,6.92,4.62Zm-2.01-13.33l-1.19,2.46c2.01,.74,4.39,1.79,6.48,2.98,.6-1.86,1.04-3.65,1.34-5.44h-6.63Zm12.51-9.53l2.68-.45c1.49,7.82,4.1,13.63,7.37,18.09,2.23-3.28,3.72-6.11,4.92-9.68h-9.46l-.07-3.13h9.31l1.71-1.12,5.96,3.43c-4.32,7.07-7.15,9.83-10.65,12.58,3.72,4.47,8.19,7.52,12.73,10.05l-4.54,6.48c-9.68-6.85-16.68-16.16-19.96-36.26Zm25.02,59.87l-5.66,4.91c-2.08-3.57-7.67-11.62-12.29-17.2l1.86-1.94c6.11,4.17,12.96,10.28,16.08,14.22Z"/>
      <path class="cls-1" d="M147.74,102.69h-18.91l3.87,1.56c-2.75,3.8-6.11,7.37-8.71,9.68h19.58v37.83c0,7.52-7.07,10.42-18.62,2.98l.89-2.61c9.01,2.08,11.02,1.64,11.02-2.61v-19.96h-9.16c-7.45,0-9.08-1.12-9.01-6.11l.07-6.18h-6.11c-.89,9.31-7.6,13.18-16.75,15.56l-1.12-2.46c7.74-3.35,10.87-5.58,11.32-13.11h-11.77v41.85h-6.7v-45.2h17.05c-1.19-3.35-2.9-7.45-4.69-10.35l1.34-.89h-18.99v-3.35h33.29c-3.35-2.38-8.64-5.51-11.91-7.52l.89-2.53c4.91,.89,12.21,2.53,16.46,4.62l-3.28,5.44h29.93v3.35Zm-24.5,47.28v-3.05h-15.64v4.24h-6.11v-18.69h28.22v17.5h-6.48Zm1.71-47.28h-21.82c3.05,2.46,5.66,5.29,8.19,8.94l-3.95,2.31h13.25c1.56-3.13,3.28-7.52,4.32-11.24Zm-1.34,40.88v-7.74h-16.01v7.74h16.01Zm13.25-26.29h-12.14v5.29c0,1.49,.15,2.08,2.38,2.08h9.75v-7.37Z"/>
      <path class="cls-1" d="M231.13,148.7l-3.8,7.67c-6.92-1.49-20.33-7.15-27.25-15.19l.08,18.09h-6.55v-17.2c-5.29,5.36-16.75,11.62-29.49,14.3l-.89-2.53c8.71-3.05,19.21-8.12,25.76-15.56h-23.6v-3.35h28.22v-5.21h-20.85v-3.2h20.85v-4.77h-25.02v-3.35h18.39c-1.71-2.9-3.87-5.96-5.96-8.64l.75-.97h-15.26v-3.35h11.24c-1.12-2.98-3.72-7.82-6.11-11.99l2.16-1.71c3.87,2.98,7.97,7.15,10.28,10.5l-5.06,3.2h8.49v-15.64h6.4v15.64h6.55v-15.64h6.4v15.64h2.23c2.01-3.28,4.09-9.61,5.36-14l7,3.43c-2.08,3.2-5.51,7.6-8.64,10.57h14.89v3.35h-20.4l4.99,2.38c-2.08,2.68-4.91,5.29-7.3,7.22h20.85v3.35h-25.91v4.77h21.82v3.2h-21.74v5.21h28.67v3.35h-26.88c9.46,6.85,23.98,9.75,29.34,10.42Zm-37.68-32.69l-2.9,2.38h10.42c1.34-2.53,3.05-6.55,4.02-9.61h-20.4c3.2,1.94,6.48,4.54,8.86,7.22Z"/>
      <path class="cls-1" d="M302.17,155.78c-2.53-2.16-4.54-5.21-6.18-8.94-4.69,5.36-10.57,9.46-17.95,12.36l-1.19-2.31c7.52-3.95,12.96-9.31,17.13-15.79-2.98-10.35-3.72-23.46-3.95-34.85h-14.37v11.62h12.81c0,5.81,.37,15.94-.37,21.67-.89,7.15-6.25,7.89-13.33,2.46l.82-2.16c5.06,1.19,5.81,1.34,6.33-1.04,.22-.97,.52-7.67,.45-17.57h-6.7v3.8c0,15.64-4.99,25.99-14.07,34.25l-1.86-1.79c5.58-6.18,8.26-15.26,9.16-24.57-6.63,4.99-12.36,8.49-20.85,12.81l-2.98-7.22c2.46-.52,5.44-1.34,8.79-2.46v-21.67h-7.82v-3.35h7.82v-18.91l6.4-.07v18.91l7.52,.07v3.35l-7.52-.07v19.51c2.38-.97,4.77-2.01,7.07-3.13l1.56,2.23c.22-2.68,.37-5.36,.37-7.97v-22.04h20.77v-12.66h6.11v12.66h8.34c-1.42-2.83-3.72-6.25-6.11-9.31l1.79-2.08c3.65,2.08,7.3,4.91,10.13,7.6l-4.54,3.8h4.99v3.35h-14.52c.07,8.79,.6,18.32,2.01,26.43,2.61-6.18,4.39-13.11,5.66-20.63l6.63,1.94c-2.23,10.8-5.44,19.81-10.2,27.1,.89,2.68,2.01,4.99,3.28,6.85,3.57,5.29,5.14,2.16,5.14-7.67h2.38c4.62,14.22-.89,22.26-8.94,15.49Z"/>
    </g>
  </g>
</svg>