<?xml version="1.0" encoding="UTF-8"?>
<svg id="_圖層_2" data-name="圖層 2" xmlns="http://www.w3.org/2000/svg" xmlns:xlink="http://www.w3.org/1999/xlink" viewBox="0 0 23.42 33.86">
  <defs>
    <style>
      .cls-1 {
        fill: url(#linear-gradient-2);
      }

      .cls-2 {
        fill: #fff;
      }

      .cls-3 {
        fill: url(#linear-gradient-3);
      }

      .cls-4 {
        fill: url(#linear-gradient);
      }
    </style>
    <linearGradient id="linear-gradient" x1="6.05" y1="1.45" x2="20.78" y2="28.27" gradientUnits="userSpaceOnUse">
      <stop offset="0" stop-color="#d82f2a"/>
      <stop offset="1" stop-color="#72161a"/>
    </linearGradient>
    <linearGradient id="linear-gradient-2" x1="6.07" y1="1.44" x2="20.8" y2="28.26" xlink:href="#linear-gradient"/>
    <linearGradient id="linear-gradient-3" x1="7.97" y1="4.47" x2="15.31" y2="18.68" gradientUnits="userSpaceOnUse">
      <stop offset="0" stop-color="#72161a"/>
      <stop offset="1" stop-color="#d82f2a"/>
    </linearGradient>
  </defs>
  <g id="_圖層_1-2" data-name="圖層 1">
    <g>
      <circle class="cls-2" cx="11.42" cy="12.09" r="6"/>
      <g>
        <path class="cls-4" d="M11.71,0C5.24,0,0,5.24,0,11.71s11.71,22.15,11.71,22.15c0,0,11.71-15.68,11.71-22.15S18.17,0,11.71,0Zm0,19.99c-4.57,0-8.28-3.71-8.28-8.28S7.14,3.43,11.71,3.43s8.28,3.71,8.28,8.28-3.71,8.28-8.28,8.28Z"/>
        <path class="cls-1" d="M11.71,3.43C7.14,3.43,3.43,7.14,3.43,11.71s3.71,8.28,8.28,8.28,8.28-3.71,8.28-8.28S16.28,3.43,11.71,3.43Zm0,13.95c-3.13,0-5.67-2.54-5.67-5.67s2.54-5.67,5.67-5.67,5.67,2.54,5.67,5.67-2.54,5.67-5.67,5.67Z"/>
        <path class="cls-3" d="M11.71,3.43C7.14,3.43,3.43,7.14,3.43,11.71s3.71,8.28,8.28,8.28,8.28-3.71,8.28-8.28S16.28,3.43,11.71,3.43Zm0,13.95c-3.13,0-5.67-2.54-5.67-5.67s2.54-5.67,5.67-5.67,5.67,2.54,5.67,5.67-2.54,5.67-5.67,5.67Z"/>
      </g>
    </g>
  </g>
</svg>