<?xml version="1.0" encoding="UTF-8"?>
<svg id="_圖層_2" data-name="圖層 2" xmlns="http://www.w3.org/2000/svg" viewBox="0 0 131.04 23.84">
  <defs>
    <style>
      .cls-1 {
        fill: #fff;
      }
    </style>
  </defs>
  <g id="_圖層_1-2" data-name="圖層 1">
    <g>
      <path class="cls-1" d="M20.07,1.35V23.44h-2.2v-1.27H2.2v1.35H0V1.35H20.07Zm-2.2,1.12H2.2V21.04h15.67V2.47ZM3.3,18.95l-.72-2.02c2.67-.45,5.8-1.35,7.75-2.07l.32,.8c-1.85,1.17-4.97,2.57-7.35,3.3ZM10.27,7.35H2.67v-1.12h7.52c-.05-1-.08-2.05-.08-3.15h2c0,1.02,0,2.07,.05,3.15h2.4c-.48-.97-1.15-2.2-1.6-2.95l.7-.52c.83,.6,2.07,1.85,2.7,2.72l-1.07,.75h2.12v1.12h-5.2c.12,2.02,.32,4.02,.7,5.72,.55-1.27,1-2.75,1.45-4.55l1.92,.7c-.8,2.55-1.62,4.52-2.67,6.12,.4,.92,.88,1.65,1.47,2.05s.65-.92,.65-3.45h.9c1.2,3.9,.58,7.4-2.12,5.65-.9-.57-1.62-1.45-2.2-2.57-1.3,1.37-2.9,2.42-5.07,3.42l-.42-.77c2.17-1.32,3.67-2.57,4.8-4.22-.73-2.07-1.15-4.8-1.35-8.1ZM3.45,14.5v-5.45h6.02v5.45H3.45Zm1.85-1.05h2.33v-3.35h-2.33v3.35Z"/>
      <path class="cls-1" d="M31.87,14.42c-.1-1.57-.47-2.97-1.67-5.12,.45-1.47,.95-4.35,1.22-6.57h-1.85V23.62h-2.1V1.12l2.1,.55h1.72l.55-.37,2.1,.92c-1.05,3.12-2.08,5.65-2.9,6.92,1.67,1.92,2.57,3.77,2.77,5.85,.3,3.02-1.53,4.02-4,2.42l.22-.85c1.75,.35,1.97,.05,1.82-2.15Zm.35,7.97l-.55-.7c1.57-1.35,3.52-3.75,4.57-6.07l2.15,1.15c-1.55,2.27-4.47,4.57-6.17,5.62Zm-.1-13.9c1.8-2.5,2.8-5.37,3.42-8.4l2.05,.52c-.17,.62-.42,1.27-.7,1.95h1.62l.55-.35,1.88,.8c-.75,2.95-1.85,5.27-3.35,7.15h6.97v1.1h-7.37v-.62c-.88,1.02-1.9,1.87-3.05,2.65l-.5-.72c1.03-.92,1.9-1.95,2.62-3.02-.55-.75-1.33-1.65-1.95-2.32-.5,.67-1.05,1.3-1.62,1.82l-.58-.55Zm9.87,12.55c.02,2.97-2.75,3.47-6.02,.8l.35-.82c3.02,.92,3.47,.82,3.47-.57v-5.62h-5.35v-1.12h13.3v1.12h-5.75v6.22Zm-4.87-12.95c.2-.37,.38-.77,.55-1.17-.62-.6-1.38-1.22-2.05-1.72-.25,.47-.52,.92-.82,1.35,.75,.42,1.62,1,2.32,1.55Zm-.67-4.47l-.4,.82c.68,.25,1.48,.6,2.17,1,.2-.62,.35-1.22,.45-1.82h-2.22ZM40.65,.42l.9-.15c.5,2.62,1.38,4.57,2.47,6.07,.75-1.1,1.25-2.05,1.65-3.25h-3.17l-.03-1.05h3.12l.58-.37,2,1.15c-1.45,2.37-2.4,3.3-3.57,4.22,1.25,1.5,2.75,2.52,4.27,3.37l-1.52,2.17c-3.25-2.3-5.6-5.42-6.7-12.17Zm8.4,20.1l-1.9,1.65c-.7-1.2-2.57-3.9-4.12-5.77l.62-.65c2.05,1.4,4.35,3.45,5.4,4.77Z"/>
      <path class="cls-1" d="M56.88,16.32c.12,2.95-.4,5.52-.95,7.15l-2.32-.97c1-1.5,2-3.6,2.4-6.27l.88,.1Zm-1-3.07c1.3-1.52,2.25-3.07,3.17-4.95-1.4,.47-2.95,.92-4.37,1.15l-.52-2.07h1.55c.97-1.95,1.92-4.55,2.52-7.15l2.32,.77c-1,2.32-2.35,4.45-3.82,6.35,1-.05,2-.1,2.87-.2,.4-.85,.78-1.77,1.2-2.77l2.05,1.02c-2.1,3.77-3.7,5.85-5.85,7.77,1.37-.1,2.65-.27,3.92-.5-.2-.62-.4-1.22-.62-1.85l.72-.37c1.03,1.27,1.77,2.45,2.45,4.15l-1.85,.77c-.15-.67-.3-1.27-.48-1.85-2.1,.9-4.2,1.55-6.67,2.02l-.6-2.25c.7,0,1.35-.03,2-.05Zm2.9,2.62c.65,1.72,1.25,3.62,1.57,5.52l-2.2,.32c.05-2.1-.03-3.85-.2-5.7l.83-.15Zm17.75,5.35l-1.72,2.55c-1.55-.8-3.4-2.02-5-3.97-1.9,1.8-4.25,3.05-7.22,4.05l-.38-.8c2.85-1.32,4.95-2.87,6.52-4.77-1.27-2.05-2.27-4.7-2.6-8.22h-.02c-.45,5.5-1.67,10.05-4.95,12.77l-.65-.6c.72-.8,1.3-1.75,1.75-2.8l-.95,.45c-.4-1.7-.78-3.02-1.33-4.47l.75-.35c.75,.95,1.47,1.97,2.05,3.02,1.22-3.8,1.35-8.9,1.35-15.07h-2.2V1.87h10.8c-.45,2.5-.8,4.65-1.38,7.05h1.05l.48-.47,2.22,.92c-.95,3.75-2.17,6.55-3.8,8.7,1.5,1.35,3.25,2.27,5.22,3.15ZM66.32,3c0,2.05-.05,4.02-.15,5.92h3.02c.5-2.4,.83-4.37,1.03-5.92h-3.9Zm3.6,13.62c1.15-1.9,1.92-4.05,2.47-6.57h-5.42c.67,2.87,1.67,4.97,2.95,6.57Z"/>
      <path class="cls-1" d="M87.75,10.4v13.35h-2.25V12.77c-1.3,1.2-2.62,2.22-3.75,2.85l-.5-.75c2.97-2.55,5.55-6.2,7.17-9.75l2.15,1.15c-.62,1.32-1.65,2.75-2.82,4.12Zm-5.22-2l-.55-.7c2.42-2.22,4.32-5.05,5.47-7.6l2.12,1.17c-1.82,2.85-4.52,5.57-7.05,7.12Zm20.79,1.12h-4.37v11.52c0,2.7-2.47,3.62-7.1,.97l.28-.87c4.1,.85,4.47,.55,4.47-.85V9.52h-6.12v-1.12h12.85v1.12Zm-1.12-6.07h-10.5v-1.12h10.5v1.12Z"/>
      <path class="cls-1" d="M131.04,19.37l-1.65,2.4c-2.57-1.57-4.62-4.4-5.87-8.27-.45,.2-.95,.4-1.45,.6,.58,1.55,.9,3.17,.88,4.62-.1,5.45-3.05,6.02-6.97,3.1l.35-.85c3.47,1.1,4.3,.72,4.37-3.32,0-.25,0-.52-.02-.8-1.75,1.75-5.25,3.9-10.82,5.3l-.3-.85c4.75-1.67,8.3-4.1,10.7-7-.1-.4-.2-.8-.33-1.17-2.55,1.97-6.25,3.45-9.8,4.35l-.3-.85c3.62-1.3,6.92-3.17,9.25-5.57-.15-.32-.33-.6-.5-.87-2.32,1.32-5.25,2.3-7.87,2.85l-.25-.85c3.92-1.32,5.85-2.47,7.5-4.07h-5.1v-1.12h14.42v1.12h-5.9c-.52,.55-1.17,1.05-1.87,1.52,.85,.95,1.62,2.22,2.22,3.62,1.85-1.3,3.07-2.6,4.2-4.15l2.17,1.47c-1.25,1.02-2.42,1.85-3.75,2.52,1.57,3.02,4.2,5.22,6.7,6.27Zm-19.1-10.97h-2.2V3.55h10.87c-1.25-.85-2.9-1.9-4.2-2.7l.32-.85c1.6,.3,4.25,1.1,5.7,1.85l-.97,1.7h8.92v4.85h-2.2v-3.72h-16.25v3.72Z"/>
    </g>
  </g>
</svg>