<?xml version="1.0" encoding="UTF-8"?>
<svg id="_圖層_2" data-name="圖層 2" xmlns="http://www.w3.org/2000/svg" viewBox="0 0 132.14 23.57">
  <defs>
    <style>
      .cls-1 {
        fill: #fff;
      }
    </style>
  </defs>
  <g id="_圖層_1-2" data-name="圖層 1">
    <g>
      <path class="cls-1" d="M12.35,2.82c-.52,1.42-1.25,2.95-2.05,4.37h8.62V23.22h-2.35v-2.17H5.42v2.17H3.07V7.2h5.95c.2-1.17,.4-3,.53-4.37H0V1.57H21.87v1.25H12.35Zm4.22,5.5H5.42v4.85h11.15v-4.85Zm0,5.97H5.42v5.6h11.15v-5.6Z"/>
      <path class="cls-1" d="M34.9,17h-4.42v2.02h-2.1V2.82h6.52v14.17Zm-2.05-13.05h-2.37V15.87h2.37V3.95Zm17.25,15.37l-1.83,2.27c-1.62-1.25-4.2-4.32-5.35-8.5v10h-2.3V13.42c-1.3,2.62-4.1,6.22-7.6,8.37l-.52-.75c3.17-2.6,5.4-6,7.1-9.82h-4.2v-1.12h5.22V5.95h-4.4v-1.12h4.4V.2h2.3V4.82h4.57v1.12h-4.57v4.15h5.72v1.12h-5.4c1.22,3.4,3.85,6.22,6.85,8.1Z"/>
      <path class="cls-1" d="M58.3,12.35l.85,.3c-.62,3.45-1.75,8.02-2.45,10.07l-2.32-1.15c1.17-2.27,2.9-6.32,3.92-9.22Zm-3.25-6.55c1.32,.67,3.1,1.75,4.27,2.87l-1.55,1.8c-.97-1.37-2.3-2.82-3.22-3.92l.5-.75Zm2.87-1.17c-.92-1.17-2.35-2.75-3.22-3.62l.45-.77c1.28,.5,3.2,1.6,4.35,2.62l-1.58,1.77Zm10.4,13l-3.05-.02v5.65h-2.1v-5.65h-3.77v-1.12h3.77v-2.27h-2.95V6.3h2.95v-2.02h-3.62v-1.15h3.62V.02h2.1V3.12h3.35v1.15h-3.35v2.02h2.97v7.9h-2.97v2.27h3.05v1.15Zm-6.15-8h4.12v-2.2h-4.12v2.2Zm4.12,3.45v-2.35h-4.12v2.35h4.12ZM76.22,1.62V20.99c0,2.3-2.15,3.02-5.57,.87l.25-.85c2.88,.7,3.22,.4,3.22-.72v-6.4h-2.82c-.28,4.2-1.38,6.87-3.97,9.67l-.67-.57c2.22-3.37,2.7-5.57,2.7-11.92V1.62h6.87Zm-2.1,6.35h-2.72v3.1c0,.6,0,1.2-.02,1.75h2.75V7.97Zm0-5.22h-2.72V6.9h2.72V2.75Z"/>
      <path class="cls-1" d="M104.42,20.62v1.37h-21.29v-1.37h9.55v-6.35h-7.22v-1.25h7.22V7.57h-4.82c-1.1,2.05-2.45,3.87-3.95,5.17l-.67-.57c1.97-2.7,3.47-6.45,4.22-11.05l2.55,.72c-.38,1.55-.9,3.07-1.57,4.52h4.25V.12h2.35V6.37h7.72v1.2h-7.72v5.45h7.12v1.25h-7.12v6.35h9.4Z"/>
      <path class="cls-1" d="M113.37,10.5c-.9-1.32-2.77-3.4-3.82-4.52l.53-.77c1.45,.72,3.6,2.05,5.02,3.35l-1.72,1.95Zm1.2,1.12l.85,.27c-.5,3.05-1.77,8.25-2.6,10.82l-2.62-1.2c1.37-2.67,3.17-6.62,4.37-9.9Zm-.25-6.55c-1.03-1.37-2.52-3.15-3.6-4.32l.58-.75c1.35,.67,3.5,2.05,4.77,3.25l-1.75,1.82Zm10.8,3.9v4.32h5.37v9.82h-2.25v-1.75h-8.47v1.87h-2.25V13.3h5.25v-4.32h-6.75v-1.12h6.75V3.9c-2.27,.32-4.4,.55-5.67,.62l-.17-.92c2.9-.42,8.47-1.75,11.6-3.37l2.25,2.02c-1.5,.47-3.55,.92-5.65,1.27V7.85h7.02v1.12h-7.02Zm-5.35,5.45v5.8h8.47v-5.8h-8.47Z"/>
    </g>
  </g>
</svg>