<?xml version="1.0" encoding="UTF-8"?>
<svg id="_圖層_2" data-name="圖層 2" xmlns="http://www.w3.org/2000/svg" viewBox="0 0 132.66 23.37">
  <defs>
    <style>
      .cls-1 {
        fill: #fff;
      }
    </style>
  </defs>
  <g id="_圖層_1-2" data-name="圖層 1">
    <g>
      <path class="cls-1" d="M9.6,6.57c-1.07,5.45-4.05,11.55-9.05,14.62l-.55-.77c4.32-3.77,6.25-8.85,6.9-13.05l-5.87,.02v-1.12l5.75-.02,.5-.5,2.32,.82Zm13.22,12.27l-1.82,2.72c-2.75-1.7-6.4-6.05-8.2-14.07v12.77c0,3.32-2.45,4.05-6.82,1.07l.3-.87c3.77,.92,4.27,.67,4.27-.87V.12h2.25V2.82c.4,2.25,1,4.5,1.9,6.6,1.52-1.32,3.42-3.32,4.67-5.35l2.27,1.82c-2.02,1.9-4.72,3.5-6.55,4.45,1.65,3.52,4.12,6.57,7.72,8.5Z"/>
      <path class="cls-1" d="M27.98,5.92c1.55,.7,3.45,1.75,4.92,2.85l-1.62,2c-.9-1.22-2.52-2.97-3.75-4.15l.45-.7ZM28.77,.07c1.25,.57,3.22,1.82,4.42,2.85l-1.67,1.82c-.92-1.3-2.35-3.02-3.27-3.97l.52-.7Zm3.15,11.62l.85,.25c-.48,3.07-1.22,7.6-1.97,10.17l-2.52-1.07c1.32-2.67,2.55-6.17,3.65-9.35Zm10.82-7.4v2.65h6.02v14.37c0,2.37-2.85,2.17-5.35,.6l.25-.82c2.57,.57,2.9,.3,2.9-.5V8.07h-9.8v15.1h-2.2V6.95h5.92v-2.65h-6.77v-1.12h6.77V0h2.25V3.17h6.9v1.12h-6.9Zm3.22,12.4h-3.27v5.15h-2.15v-5.15h-3.32v-1.07h3.32v-2.2h-3.1v-1.07h1.9c-.45-1.25-1.07-2.6-1.57-3.6l.7-.47c.8,.75,1.97,2.2,2.52,3.22l-1.6,.85h2.77c.42-1.22,.75-2.65,.98-3.97l1.97,.75c-.42,.95-1.3,2.35-1.92,3.22h2.65v1.07h-3.15v2.2h3.27v1.07Z"/>
      <path class="cls-1" d="M77.69,18.65l-1.7,2.92c-2.7-1.37-6.52-4.55-8.52-8.72v10.52h-2.4V12.95c-1.97,3.5-5.85,6.72-9.55,8.6l-.5-.82c4.1-2.77,6.8-5.92,8.6-9.22h-7.77v-1.37h9.22v-3.95h-7.47v-1.25h7.47V.1h2.4V4.92h7.37v1.25h-7.37v3.95h9.27v1.37h-8.82c2.47,3.57,6.5,6,9.77,7.15Z"/>
      <path class="cls-1" d="M104.69,18.92l-1.65,2.75c-3.3-1.9-6.07-4.47-8.17-8.35v9.97h-2.3V14.22c-1.95,2.67-5.25,5.67-9.32,7.5l-.4-.82c3.05-1.7,6.75-5.3,8.7-8.5l-1.38,.95c-.47-1.22-1.02-2.37-1.5-3.32-.83,2.15-2.1,4.05-4.37,5.85l-.6-.67c2.37-2.8,3.27-5.6,3.57-9.42l2.38,.45c-.15,.87-.33,1.7-.55,2.5,1,.92,2.12,2.05,2.8,3.07,.28-.5,.5-.97,.67-1.42V5.07h-8.82v-1.37h8.82V.03h2.3V3.7h8.92v1.37h-8.92v6.25c.33,.45,.65,.87,.97,1.25,1.35-2.02,2-3.9,2.4-6.85l2.35,.6c-.28,.92-.58,1.77-.92,2.55,1.47,1.05,2.85,2.32,3.67,3.27l-1.75,1.62c-.72-1.3-1.6-2.67-2.45-3.82-.73,1.37-1.58,2.47-2.62,3.42,2.4,2.7,4.9,4.25,8.17,5.55Z"/>
      <path class="cls-1" d="M129.1,22.04c-.85-.72-1.53-1.75-2.08-3-1.57,1.8-3.55,3.17-6.02,4.15l-.4-.77c2.52-1.32,4.35-3.12,5.75-5.3-1-3.47-1.25-7.87-1.32-11.7h-4.82v3.9h4.3c0,1.95,.12,5.35-.12,7.27-.3,2.4-2.1,2.65-4.47,.82l.28-.72c1.7,.4,1.95,.45,2.12-.35,.08-.32,.17-2.57,.15-5.9h-2.25v1.27c0,5.25-1.67,8.72-4.72,11.5l-.62-.6c1.88-2.07,2.77-5.12,3.07-8.25-2.22,1.67-4.15,2.85-7,4.3l-1-2.42c.83-.18,1.83-.45,2.95-.82v-7.27h-2.62v-1.12h2.62V.67l2.15-.02V7l2.52,.03v1.12l-2.52-.03v6.55c.8-.32,1.6-.67,2.38-1.05l.52,.75c.08-.9,.12-1.8,.12-2.67V4.3h6.97V.05h2.05V4.3h2.8c-.47-.95-1.25-2.1-2.05-3.12l.6-.7c1.22,.7,2.45,1.65,3.4,2.55l-1.52,1.27h1.67v1.12h-4.87c.03,2.95,.2,6.15,.67,8.87,.88-2.07,1.47-4.4,1.9-6.92l2.22,.65c-.75,3.62-1.82,6.65-3.42,9.1,.3,.9,.67,1.67,1.1,2.3,1.2,1.77,1.72,.72,1.72-2.57h.8c1.55,4.77-.3,7.47-3,5.2Z"/>
    </g>
  </g>
</svg>