<?xml version="1.0" encoding="UTF-8"?>
<svg id="_圖層_2" data-name="圖層 2" xmlns="http://www.w3.org/2000/svg" xmlns:xlink="http://www.w3.org/1999/xlink" viewBox="0 0 67.7 11.44">
  <defs>
    <style>
      .cls-1 {
        fill: #fff;
      }

      .cls-2 {
        filter: url(#drop-shadow-1);
      }
    </style>
    <filter id="drop-shadow-1" filterUnits="userSpaceOnUse">
      <feOffset dx="1.66" dy="1.66"/>
      <feGaussianBlur result="blur" stdDeviation="4.16"/>
      <feFlood flood-color="#040000" flood-opacity=".4"/>
      <feComposite in2="blur" operator="in"/>
      <feComposite in="SourceGraphic"/>
    </filter>
  </defs>
  <g id="_圖層_1-2" data-name="圖層 1">
    <g class="cls-2">
      <path class="cls-1" d="M1.25,2.03c.18,1.06,.16,2.81-.16,3.53l-1.09-.41c.42-.76,.8-1.76,.82-3.12h.43ZM1.64,.17h1.03V11.3H1.64V.17Zm2.53,3.53l-.95,.29c-.11-.7-.24-1.48-.4-2.07l.4-.13c.36,.5,.73,1.26,.95,1.92Zm6.55,.5v.54H3.62v-.54h2.79v-.95h-2.1v-.54h2.1v-.84H3.83v-.54h2.59V.11h1.1V1.33h3.01v.54h-3.01v.84h2.54v.54h-2.54v.95h3.2Zm-6.51,1.28h5.58v4.76c0,1.1-1.15,1.48-2.9,.35l.11-.41c1.55,.32,1.74,.2,1.74-.38v-.98h-3.44v2.49h-1.08V5.48Zm1.08,.54v.89h3.44v-.89h-3.44Zm3.44,2.28v-.88h-3.44v.88h3.44Z"/>
      <path class="cls-1" d="M18.6,7.02c-1.07,.8-2.39,1.56-3.78,2.16l-.49-1.14c.37-.08,.95-.24,1.61-.46V3.48h-1.4v-.54h1.4V.17h1.03V2.94h1.29v.54h-1.29v3.75c.5-.18,1-.38,1.45-.6l.18,.38Zm5.01,3.97c-1.64-.01-1.96-.18-1.96-1.19v-1.76h-.48c-.35,1.63-1.68,2.93-4.46,3.41l-.12-.42c2.06-.62,3.2-1.59,3.51-2.99h-1.42v-3.12h5.62v3.12h-1.66v1.38c0,.55,.07,.64,.97,.65,.89,.01,.94-.19,.97-1.66h.41c.35,1.87,.55,2.59-1.4,2.58ZM19.39,2.06h-.98v-.54h3.19c-.53-.36-1.2-.79-1.69-1.1l.13-.41c.62,.14,1.74,.47,2.33,.77l-.43,.74h2.78v.54h-1.66l.71,.31c-.32,.46-.78,.97-1.2,1.34h2.5v.54h-6.97v-.54s2.05,0,2.05,0c-.22-.44-.6-1.08-.89-1.51l.13-.14Zm.31,4.11h3.61v-.72h-3.61v.72Zm0,1.32h3.61v-.78h-3.61v.78Zm2.96-5.43h-2.93c.46,.31,.94,.77,1.27,1.2l-.62,.46h1.59c.28-.5,.5-1.08,.68-1.66Z"/>
      <path class="cls-1" d="M32.62,5.6c-.75,1.7-2.36,3.65-3.5,4.5l-.31-.34c.89-.97,2.03-2.93,2.58-4.7l1.24,.54Zm2.34-1.28v5.45c0,1.63-1.39,2.05-3.54,.44l.16-.42c1.83,.53,2.23,.46,2.23-.29V4.32h-4.43v-.66h9.83v.66h-4.26Zm3.06-2.71h-7.48v-.6h7.48v.6Zm1.7,7.51l-1.25,.78c-.55-1.37-1.49-3.11-2.41-4.47l.32-.32c1.31,1.16,2.6,2.78,3.33,4.02Z"/>
      <path class="cls-1" d="M44.97,8.08l.43,.11c-.13,1.18-.61,2.24-1.25,2.85l-.91-.89c.85-.52,1.38-1.02,1.73-2.08Zm8.79-4.13h-10.19v-.54h3.01c-.35-.56-.68-1.01-.95-1.39l.07-.08h-1.51v-.54h4.38c-.58-.35-1.14-.67-1.74-1l.12-.41c.68,.11,1.64,.32,2.58,.72l-.38,.68h3.84v.54h-2.18l.6,.26c-.35,.46-.7,.86-1.08,1.21h3.44v.54Zm-1.76,3.55h-6.91v-2.91h6.91v2.91Zm-.72,.97c.54,1.6,.47,2.39-.82,2.48-.76,.06-1.75,.08-2.61,.04-1.2-.07-1.86-.23-1.86-1.2v-1.91h1.08v1.39c0,.56,.16,.76,.86,.78,.92,.04,1.75,.02,2.31-.04,.54-.06,.65-.19,.6-1.54h.43Zm-.34-3.39h-4.8v.7h4.8v-.7Zm0,1.18h-4.8v.73h4.8v-.73Zm-3.26-3.15l-.4,.3h2.33c.26-.47,.46-.92,.62-1.48h-3.93c.5,.32,1.04,.76,1.38,1.18Zm.16,4.91l.2-.36c.64,.24,1.43,.62,2.05,1.08l-.65,.84c-.53-.56-1.16-1.15-1.61-1.56Zm6.18,1.89l-.94,.7c-.42-.88-.79-1.58-1.32-2.36l.32-.28c.65,.47,1.4,1.17,1.93,1.94Z"/>
      <path class="cls-1" d="M59.4,11.27h-1.06V.68h9.35V11.24h-1.05v-.58h-7.24v.61Zm7.24-10.05h-7.24V10.12h7.24V1.22Zm-1.4,2.35h-1.7v.67h2.87v.54h-6.75v-.54h2.85v-.67h-1.8V1.74h4.53v1.83Zm.67,1.79v4.05h-5.82V5.36h5.82Zm-1.01,3.51v-2.97h-3.8v2.97h3.8Zm-.65-5.8v-.83h-2.57v.83h2.57Zm.02,3.32v1.87h-2.57v-1.87h2.57Zm-.86,1.42v-.96h-.84v.96h.84Z"/>
    </g>
  </g>
</svg>