<?xml version="1.0" encoding="UTF-8"?>
<svg id="_圖層_2" data-name="圖層 2" xmlns="http://www.w3.org/2000/svg" viewBox="0 0 165 46.76">
  <defs>
    <style>
      .cls-1 {
        fill: #4d4d4d;
      }

      .cls-2 {
        fill: #cd1547;
        font-family: jf-jinxuan-fresh-Medium-B5pc-H, jf-jinxuan-fresh;
        font-size: 30px;
        letter-spacing: .1em;
      }
    </style>
  </defs>
  <g id="_圖層_1-2" data-name="圖層 1">
    <text class="cls-2" transform="translate(0 25.38)"><tspan x="0" y="0">百味潮生活</tspan></text>
    <g>
      <path class="cls-1" d="M15.71,36.98v.54H5.2v-.54h5.24c-.56-.38-1.34-.86-1.94-1.2l.14-.41c.78,.13,2.06,.47,2.7,.78l-.48,.83h4.86Zm-9.89,4.13H15.08v4.27c0,1.48-1.25,1.67-3.19,.58l.12-.42c1.7,.34,1.97,.25,1.97-.52v-3.37H6.9v4.99h-1.08v-5.53Zm7.52-2.91v2.21H7.44v-2.21h5.9Zm-1.69,7.05v-.62h-2.4v.8h-1.01v-3.03h4.41v2.85h-1.01Zm.68-6.51h-3.9v1.13h3.9v-1.13Zm-.68,5.37v-1.2h-2.4v1.2h2.4Z"/>
      <path class="cls-1" d="M23.33,43.26l.11,.4c-.79,.49-2.37,1.22-3.77,1.62l-.32-1.19c.73-.07,1.54-.2,2.33-.38,.23-1.32,.48-3.2,.54-4.89l1.1,.2c-.2,1.57-.72,3.41-1.14,4.57,.38-.1,.77-.2,1.15-.32Zm.49-4.82h-4.37v-.54h1.87c-.17-.73-.43-1.58-.71-2.3l.38-.18c.59,.67,1.15,1.57,1.39,2.19l-.82,.29h2.24v.54Zm-3.56,4.79c.05-1.18-.06-2.69-.28-4.16l.41-.1c.53,1.52,.91,2.84,.96,4.15l-1.09,.11Zm6.84-2.94c-.2,.43-.43,.84-.67,1.2h3.48v4.22c0,.95-.83,1.12-2.06,.46l.04-.23h-.67v-3.91h-.89v3.99h-.82v-3.99h-.85v4.59h-.96v-5.13h2.11c.08-.38,.14-.77,.19-1.2h-2.58v-.54h6.79v.54h-3.11Zm2.4-1.35h-5.44s0-2.95,0-2.95h.98v2.42h1.22v-3.02h1.03v3.01h1.24v-2.41h.97v2.95Zm-1.47,3.09v3.71c.82,.12,.91-.05,.91-.41v-3.3h-.91Z"/>
      <path class="cls-1" d="M38.49,37.01v-1.5s1.26,.02,1.26,.02c0,.83-.01,1.57-.01,2,.47,3.47,2.16,6.2,4.93,7.88l-.95,1.3c-1.69-1.08-3.65-3.96-4.19-7.47-.5,3.79-2.55,6.18-5.37,7.4l-.23-.41c3.54-2.19,4.52-5.42,4.56-9.22Z"/>
      <path class="cls-1" d="M58.89,38.33v.66h-3.13v6.25c0,1.37-1.12,1.91-3.51,.64l.11-.43c2.13,.4,2.25,.18,2.25-.58v-5.44c-.89,2.42-3.61,5-6.13,6.18l-.2-.38c2.55-1.74,4.26-3.72,5.3-6.22h-4.81v-.66h5.84v-2.84h1.15v2.84h3.13Z"/>
      <path class="cls-1" d="M66.9,40.93c0-.62,.5-1.13,1.14-1.13s1.13,.5,1.13,1.13-.5,1.13-1.13,1.13-1.14-.5-1.14-1.13Z"/>
      <path class="cls-1" d="M79.03,45.42l.14-.4c1.28,.34,1.51,.29,1.64-.46,.11-.64,.19-1.82,.24-3.93h-1.5c-.18,3.21-.75,4.65-2.18,6.08l-.3-.32c1-1.44,1.48-2.84,1.49-8h-1.43v-.54h2.88c-.31-.72-.73-1.52-1.12-2.15l.36-.28c.65,.48,1.39,1.32,1.78,1.88l-.83,.54h2.51v.54h-3.09l-.04,1.7h2.53c-.04,1.9-.08,3.71-.3,4.95-.25,1.43-1.62,1.32-2.78,.37Zm8.92,.06l-.74,1.28c-1.03-.56-1.86-1.3-2.47-2.23-.74,.92-1.8,1.73-3.29,2.19l-.19-.41c1.44-.67,2.39-1.61,3-2.65-.47-1-.74-2.17-.85-3.54-.28,.58-.6,1.09-.96,1.5l-.3-.23c.83-1.5,1.13-3.59,1.36-5.96l1.21,.2c-.12,.82-.31,1.7-.56,2.55h3.56v.54h-1.13c-.04,.86-.13,3-1.25,4.91,.62,.74,1.46,1.35,2.61,1.83Zm-3.23-2.75c.55-1.33,.7-2.76,.78-3.99h-1.54c-.05,.16-.11,.31-.17,.47,.12,1.35,.38,2.53,.92,3.53Z"/>
      <path class="cls-1" d="M102.4,45.22l-.88,1.37c-1.15-.53-3.69-2.81-4.32-7-.62,3.65-2.93,6.09-5.52,7.09l-.22-.41c2.09-1.19,3.96-3.15,4.52-6.91h-4.13v-.66h4.21c.02-.28,.05-.56,.06-.85,.04-.73,.05-1.6,.06-2.39l1.22,.04c0,.95-.02,1.81-.07,2.73l-.04,.47h4.52v.66h-4.22c.89,3.44,3.15,5.15,4.79,5.86Z"/>
      <path class="cls-1" d="M107.88,43.58l.4,.17c-.23,1.19-.77,2.31-1.22,2.96l-1.08-.76c.62-.53,1.45-1.42,1.91-2.37Zm-.01-3.18h-1.71v-.54h1.71v-1.76c-.47,.47-.96,.88-1.39,1.13l-.28-.34c.96-.89,1.76-2.17,2.36-3.57l1.1,.49c-.2,.4-.53,.85-.91,1.32h7.16v.54h-1.31v2.19h1.98v.54h-1.98v2.37h1.79v.54h-10.13v-.54h1.61v-2.37Zm1.97-.54v-2.19h-1.01v2.19h1.01Zm0,.54h-1.01v2.37h1.01v-2.37Zm.04,3.32c.46,.72,.95,1.83,1.19,2.55l-1.21,.31c-.08-.72-.2-1.9-.38-2.72l.41-.14Zm1.87-3.86v-2.19h-1v2.19h1Zm0,.54h-1v2.37h1v-2.37Zm.38,3.27c.65,.66,1.28,1.6,1.68,2.35l-1.15,.53c-.18-.7-.52-1.77-.9-2.66l.37-.22Zm1.52-6.01h-1v2.19h1v-2.19Zm0,2.73h-1v2.37h1v-2.37Zm2.97,5.53l-1.16,.59c-.2-.71-.71-1.93-1.18-2.77l.35-.24c.7,.66,1.57,1.65,1.99,2.42Z"/>
      <path class="cls-1" d="M121.99,43.42l.12-.41c1.07,.26,1.24,.17,1.24-.83,0-.76-.26-1.8-.89-2.67,.28-.71,.66-1.93,.79-2.88h-1.38v10.01h-1.01v-10.79l.97,.28h1.29l.29-.23,1.1,.47c-.53,1.38-1.2,2.41-1.66,3.07,.88,.92,1.47,1.99,1.5,3.01,.04,1.54-1.02,2.06-2.38,.97Zm9.14,2.13l-.92,1.15c-1.1-.79-2.81-2.42-3.25-5.98h-.96v4.08c.65-.12,1.28-.25,1.8-.4l.14,.4c-.95,.56-2.66,1.22-3.97,1.52l-.38-1.21c.4-.02,.85-.07,1.33-.14v-8.77h5.08v4.52h-2.58c.19,.97,.52,1.74,.9,2.36,.52-.5,1.07-1.18,1.46-1.86l.97,.74c-.56,.53-1.44,1.12-2.18,1.49,.72,.97,1.64,1.57,2.55,2.1Zm-5.13-7.38h2.93v-1.44h-2.93v1.44Zm0,2h2.93v-1.46h-2.93v1.46Z"/>
      <path class="cls-1" d="M134.65,38.65l.23-.37c.75,.31,1.63,.8,2.29,1.38l-.77,.91c-.58-.73-1.22-1.4-1.75-1.92Zm1.72,2.66l.42,.13c-.23,1.67-.58,3.62-.83,4.63l-1.16-.48c.48-1.12,1.12-2.87,1.57-4.28Zm.22-3.5c-.47-.68-1-1.32-1.5-1.88l.26-.35c.53,.24,1.37,.78,2.04,1.44l-.8,.79Zm.83,4.22l-.26-.34c1.04-.96,1.61-1.82,1.86-2.93h-.59c-.02,.16-.05,.31-.08,.46l-.85-.1c.16-.76,.24-1.3,.31-2.23l.85,.1c-.02,.32-.08,.79-.14,1.27h.59c.04-.31,.06-.65,.06-1.01v-.52h-1.64v-.54h3.63v.54h-1.03v.42c0,.4-.02,.76-.08,1.1h1.04v.5h-1.15c-.02,.12-.06,.24-.1,.35h.7v1.06c.34-.17,.66-.34,.94-.49l.23,.32c-.64,.6-1.66,1.32-2.18,1.57l-.43-.82,.59-.2v-1c-.46,1.04-1.24,1.83-2.24,2.47Zm.94-.13h6.08v4.69h-1.06v-.64h-3.97v.68h-1.06v-4.74Zm1.06,1.69h3.97v-1.15h-3.97v1.15Zm0,1.82h3.97v-1.31h-3.97v1.31Zm4.93-4.08c-.9,0-1.17-.13-1.17-1.02v-.76c-.43,.88-1.16,1.68-2.29,2.21l-.24-.35c1.03-.73,1.62-1.66,1.92-2.66h-.49c-.02,.18-.05,.35-.07,.48l-.86-.11c.16-.72,.24-1.46,.3-2.12l.83,.08-.13,1.16h.54c.07-.38,.11-.77,.11-1.16v-.34h-1.38v-.54h3.73v.54h-1.39v.34c0,.37-.04,.77-.12,1.16h1.7v.5h-1.82c-.04,.12-.08,.24-.13,.36h.68v1.09c0,.28-.01,.35,.29,.35,.38,0,.44-.11,.43-1.15h.41c.41,1.49,.23,1.93-.83,1.93Z"/>
      <path class="cls-1" d="M158.84,38.32c-.11,3.42-.28,5.23-.6,6.68-.36,1.62-1.91,2.05-4.08,.2l.22-.41c1.9,.7,2.48,.91,2.76-.48,.22-1.09,.36-2.52,.48-5.34h-3.07c-.36,3.53-1.55,6.31-5.12,7.7l-.2-.42c2.72-1.54,3.78-3.84,4.11-7.28h-3.3v-.66h3.36c.06-.86,.07-1.81,.07-2.82l1.22,.04c0,.96-.02,1.9-.08,2.78h4.23Z"/>
    </g>
  </g>
</svg>