<?xml version="1.0" encoding="UTF-8"?>
<svg id="_圖層_2" data-name="圖層 2" xmlns="http://www.w3.org/2000/svg" xmlns:xlink="http://www.w3.org/1999/xlink" viewBox="0 0 696.93 414.15">
  <defs>
    <style>
      .cls-1 {
        fill: url(#_未命名漸層_2-4);
      }

      .cls-2 {
        fill: url(#_未命名漸層_2-3);
      }

      .cls-3 {
        fill: url(#_未命名漸層_2);
      }

      .cls-4 {
        fill: #4d4d4d;
        font-size: 28px;
        letter-spacing: .2em;
      }

      .cls-4, .cls-5 {
        font-family: jf-jinxuan-fresh-Medium-B5pc-H, jf-jinxuan-fresh;
      }

      .cls-6 {
        fill: url(#_未命名漸層_2-2);
      }

      .cls-5 {
        fill: #cd1547;
        font-size: 52.55px;
        letter-spacing: .1em;
      }
    </style>
    <linearGradient id="_未命名漸層_2" data-name="未命名漸層 2" x1="-1241.8" y1="2451.07" x2="-995.79" y2="2451.07" gradientTransform="translate(-2355.47 -1030.91) rotate(-90)" gradientUnits="userSpaceOnUse">
      <stop offset="0" stop-color="#d65a34"/>
      <stop offset="1" stop-color="#cd1547"/>
    </linearGradient>
    <linearGradient id="_未命名漸層_2-2" data-name="未命名漸層 2" x1="-1241.8" y1="2945.95" x2="-995.79" y2="2945.95" xlink:href="#_未命名漸層_2"/>
    <linearGradient id="_未命名漸層_2-3" data-name="未命名漸層 2" x1="-1241.8" y1="2613.56" x2="-995.79" y2="2613.56" xlink:href="#_未命名漸層_2"/>
    <linearGradient id="_未命名漸層_2-4" data-name="未命名漸層 2" x1="-1241.8" y1="2751.36" x2="-995.79" y2="2751.36" xlink:href="#_未命名漸層_2"/>
  </defs>
  <g id="_圖層_1-2" data-name="圖層 1">
    <g>
      <path class="cls-3" d="M62.79,177.04L0,0H41.15c11.62,0,21.86,7.62,25.2,18.75l29.89,99.62h1.03S127.38,18.7,127.38,18.7C130.74,7.6,140.97,0,152.57,0h38.62s-62.53,177.04-62.53,177.04H62.79Z"/>
      <path class="cls-6" d="M678.55,158.61c-5.31-5.31-9.8-12.45-13.48-21.44l-.46-.47-38.54-105.64C619.27,12.41,601.53,0,581.68,0h0c-19.86,0-37.59,12.41-44.4,31.06l-53.25,145.97h58.15s7.46-24.96,7.46-24.96h62.01s7.46,24.96,7.46,24.96h60.21s-.04-.11-.04-.11c.98,.04,1.96,.06,2.93,.06,2.24,0,4.85-.15,7.81-.46,2.96-.31,5.25-.67,6.89-1.07v-7.66c-6.94-.81-13.07-3.88-18.38-9.19Zm-98.29-109.21h1.03s18.53,63.04,18.53,63.04h-38.34s18.78-63.04,18.78-63.04Z"/>
      <path class="cls-2" d="M295.68,168.04c-9.19,0-15.06-2.8-17.61-8.42-2.22-4.88-3.47-11.12-3.76-18.71V23.5C274.3,10.52,263.78,0,250.8,0h-33.37s0,177.04,0,177.04h39.88c1.48,.12,3.03,.19,4.67,.19h36.75s0-9.19,0-9.19h-3.06Z"/>
      <path class="cls-1" d="M363.08,177.04L300.29,0h41.15c11.62,0,21.86,7.62,25.2,18.75l29.89,99.62h1.03s30.12-99.67,30.12-99.67C431.03,7.6,441.26,0,452.86,0h38.62s-62.53,177.04-62.53,177.04h-65.87Z"/>
    </g>
    <text class="cls-5" transform="translate(177.95 358.41)"><tspan x="0" y="0">百味潮生活</tspan></text>
    <text class="cls-4" transform="translate(137.66 405.78)"><tspan x="0" y="0">高端人才・放大無限潛力</tspan></text>
  </g>
</svg>