<?xml version="1.0" encoding="UTF-8"?>
<svg id="_圖層_2" data-name="圖層 2" xmlns="http://www.w3.org/2000/svg" viewBox="0 0 358.51 94.52">
  <defs>
    <style>
      .cls-1 {
        fill: #4d4d4d;
      }

      .cls-2 {
        fill: #cd1547;
      }
    </style>
  </defs>
  <g id="_圖層_1-2" data-name="圖層 1">
    <g>
      <g>
        <path class="cls-2" d="M67.74,5.94c-1.1,3-2.63,6.2-4.31,9.2h18.13V48.82h-4.94v-4.57h-23.44v4.57h-4.94V15.13h12.51c.42-2.47,.84-6.31,1.1-9.2h-20.07V3.31h45.98v2.63h-20.02Zm8.88,11.56h-23.44v10.2h23.44v-10.2Zm0,12.56h-23.44v11.77h23.44v-11.77Z"/>
        <path class="cls-2" d="M115.14,35.73h-9.3v4.26h-4.41V5.94h13.72v29.8Zm-4.31-27.43h-4.99v25.07h4.99V8.3Zm36.26,32.32l-3.84,4.78c-3.42-2.63-8.83-9.09-11.25-17.87v21.02h-4.83V28.22c-2.73,5.52-8.62,13.08-15.98,17.6l-1.1-1.58c6.67-5.47,11.35-12.61,14.92-20.65h-8.83v-2.36h10.98V12.51h-9.25v-2.36h9.25V.42h4.83V10.14h9.62v2.36h-9.62v8.72h12.03v2.36h-11.35c2.57,7.15,8.09,13.09,14.4,17.03Z"/>
        <path class="cls-2" d="M164.33,25.96l1.79,.63c-1.31,7.25-3.68,16.87-5.15,21.18l-4.89-2.42c2.47-4.78,6.1-13.3,8.25-19.39Zm-6.83-13.77c2.79,1.42,6.52,3.68,8.99,6.04l-3.26,3.78c-2.05-2.89-4.83-5.94-6.78-8.25l1.05-1.58Zm6.04-2.47c-1.94-2.47-4.94-5.78-6.78-7.62l.95-1.63c2.68,1.05,6.73,3.36,9.14,5.52l-3.31,3.73Zm21.86,27.33l-6.41-.05v11.88h-4.41v-11.88h-7.94v-2.36h7.94v-4.78h-6.2V13.24h6.2v-4.26h-7.62v-2.42h7.62V.05h4.41V6.57h7.04v2.42h-7.04v4.26h6.25V29.85h-6.25v4.78h6.41v2.42Zm-12.93-16.82h8.67v-4.62h-8.67v4.62Zm8.67,7.25v-4.94h-8.67v4.94h8.67ZM202.01,3.42V44.14c0,4.83-4.52,6.36-11.72,1.84l.53-1.79c6.04,1.47,6.78,.84,6.78-1.52v-13.45h-5.94c-.58,8.83-2.89,14.45-8.36,20.34l-1.42-1.21c4.68-7.09,5.68-11.72,5.68-25.07V3.42h14.45Zm-4.41,13.35h-5.73v6.52c0,1.26,0,2.52-.05,3.68h5.78v-10.19Zm0-10.98h-5.73V14.5h5.73V5.78Z"/>
        <path class="cls-2" d="M261.28,43.35v2.89h-44.77v-2.89h20.07v-13.35h-15.19v-2.63h15.19V15.92h-10.14c-2.31,4.31-5.15,8.15-8.3,10.88l-1.42-1.21c4.15-5.68,7.3-13.56,8.88-23.23l5.36,1.52c-.79,3.26-1.89,6.46-3.31,9.51h8.93V.26h4.94V13.4h16.24v2.52h-16.24v11.46h14.98v2.63h-14.98v13.35h19.76Z"/>
        <path class="cls-2" d="M280.1,22.07c-1.89-2.79-5.83-7.15-8.04-9.51l1.1-1.63c3.05,1.52,7.57,4.31,10.56,7.04l-3.63,4.1Zm2.52,2.36l1.79,.58c-1.05,6.41-3.73,17.34-5.47,22.75l-5.52-2.52c2.89-5.62,6.67-13.93,9.2-20.81Zm-.53-13.77c-2.15-2.89-5.31-6.62-7.57-9.09l1.21-1.58c2.84,1.42,7.36,4.31,10.04,6.83l-3.68,3.84Zm22.7,8.2v9.09h11.3v20.65h-4.73v-3.68h-17.81v3.94h-4.73V27.96h11.04v-9.09h-14.19v-2.36h14.19V8.2c-4.78,.68-9.25,1.16-11.93,1.31l-.37-1.94c6.1-.89,17.82-3.68,24.38-7.09l4.73,4.26c-3.15,1-7.46,1.94-11.88,2.68v9.09h14.77v2.36h-14.77Zm-11.25,11.46v12.19h17.81v-12.19h-17.81Z"/>
      </g>
      <g>
        <path class="cls-1" d="M24.56,71.7v1.26H0v-1.26H12.24c-1.32-.9-3.14-2.02-4.54-2.8l.34-.95c1.82,.31,4.82,1.09,6.3,1.82l-1.12,1.93h11.34ZM1.46,81.33H23.07v9.97c0,3.44-2.91,3.89-7.45,1.34l.28-.98c3.98,.78,4.59,.59,4.59-1.2v-7.87H3.98v11.65H1.46v-12.91Zm17.56-6.8v5.15H5.24v-5.15h13.78Zm-3.95,16.46v-1.46h-5.6v1.88h-2.35v-7.08h10.3v6.66h-2.35Zm1.6-15.2H7.56v2.63h9.1v-2.63Zm-1.6,12.54v-2.8h-5.6v2.8h5.6Z"/>
        <path class="cls-1" d="M42.31,86.34l.25,.92c-1.85,1.15-5.54,2.86-8.79,3.78l-.76-2.77c1.71-.17,3.58-.48,5.43-.9,.53-3.08,1.12-7.48,1.26-11.42l2.58,.48c-.48,3.67-1.68,7.95-2.66,10.67,.9-.22,1.79-.48,2.69-.76Zm1.15-11.26h-10.19v-1.26h4.37c-.39-1.71-1.01-3.7-1.65-5.38l.9-.42c1.37,1.57,2.69,3.67,3.25,5.12l-1.9,.67h5.24v1.26Zm-8.32,11.17c.11-2.74-.14-6.27-.64-9.72l.95-.22c1.23,3.56,2.13,6.64,2.24,9.69l-2.55,.25Zm15.96-6.86c-.48,1.01-1.01,1.96-1.57,2.8h8.12v9.86c0,2.21-1.93,2.6-4.82,1.06l.08-.53h-1.57v-9.13h-2.07v9.32h-1.9v-9.32h-1.99v10.72h-2.24v-11.98h4.93c.2-.9,.34-1.79,.45-2.8h-6.02v-1.26h15.85v1.26h-7.25Zm5.6-3.16l-12.71,.03v-6.92h2.3v5.66h2.86v-7.06h2.41v7.03h2.88v-5.63h2.27v6.89Zm-3.44,7.22v8.65c1.9,.28,2.13-.11,2.13-.95v-7.7h-2.13Z"/>
        <path class="cls-1" d="M77.7,71.76l.03-3.5,2.91,.06c0,1.93-.03,3.67-.03,4.68,1.09,8.09,5.04,14.48,11.51,18.4l-2.21,3.02c-3.95-2.52-8.51-9.24-9.77-17.44-1.18,8.85-5.96,14.42-12.54,17.28l-.53-.95c8.26-5.12,10.56-12.66,10.64-21.53Z"/>
        <path class="cls-1" d="M125.3,74.84v1.54h-7.31v14.59c0,3.19-2.6,4.45-8.2,1.48l.25-1.01c4.98,.92,5.26,.42,5.26-1.34v-12.71c-2.07,5.66-8.43,11.68-14.31,14.42l-.48-.9c5.96-4.06,9.94-8.68,12.38-14.53h-11.23v-1.54h13.64v-6.64h2.69v6.64h7.31Z"/>
        <path class="cls-1" d="M143.98,80.91c0-1.46,1.18-2.63,2.66-2.63s2.63,1.18,2.63,2.63-1.18,2.63-2.63,2.63-2.66-1.18-2.66-2.63Z"/>
        <path class="cls-1" d="M172.28,91.38l.34-.92c3,.78,3.53,.67,3.84-1.06,.25-1.48,.45-4.26,.56-9.18h-3.5c-.42,7.5-1.76,10.86-5.1,14.2l-.7-.76c2.32-3.36,3.44-6.64,3.47-18.68h-3.33v-1.26h6.72c-.73-1.68-1.71-3.56-2.6-5.01l.84-.64c1.51,1.12,3.25,3.08,4.14,4.4l-1.93,1.26h5.85v1.26h-7.22l-.08,3.98h5.91c-.08,4.42-.2,8.65-.7,11.56-.59,3.33-3.78,3.08-6.5,.87Zm20.83,.14l-1.74,3c-2.41-1.32-4.34-3.02-5.77-5.21-1.74,2.16-4.2,4.03-7.67,5.12l-.45-.95c3.36-1.57,5.57-3.75,7-6.19-1.09-2.32-1.74-5.07-1.99-8.26-.64,1.34-1.4,2.55-2.24,3.5l-.7-.53c1.93-3.5,2.63-8.37,3.16-13.92l2.83,.48c-.28,1.9-.73,3.98-1.32,5.96h8.32v1.26h-2.63c-.08,2.02-.31,7-2.91,11.45,1.46,1.74,3.42,3.16,6.1,4.28Zm-7.53-6.41c1.29-3.11,1.62-6.44,1.82-9.32h-3.58c-.11,.36-.25,.73-.39,1.09,.28,3.16,.9,5.91,2.16,8.23Z"/>
        <path class="cls-1" d="M226.83,90.94l-2.04,3.19c-2.69-1.23-8.62-6.55-10.08-16.35-1.46,8.51-6.83,14.22-12.88,16.55l-.5-.95c4.87-2.77,9.24-7.36,10.56-16.13h-9.63v-1.54h9.83c.06-.64,.11-1.32,.14-1.99,.08-1.71,.11-3.72,.14-5.57l2.86,.08c0,2.21-.06,4.23-.17,6.38l-.08,1.09h10.56v1.54h-9.86c2.07,8.04,7.36,12.01,11.17,13.69Z"/>
        <path class="cls-1" d="M239.6,87.1l.92,.39c-.53,2.77-1.79,5.4-2.86,6.92l-2.52-1.76c1.46-1.23,3.39-3.3,4.45-5.54Zm-.03-7.42h-4v-1.26h4v-4.12c-1.09,1.09-2.24,2.04-3.25,2.63l-.64-.78c2.24-2.07,4.12-5.07,5.52-8.34l2.58,1.15c-.48,.92-1.23,1.99-2.13,3.08h16.72v1.26h-3.05v5.12h4.62v1.26h-4.62v5.54h4.17v1.26h-23.66v-1.26h3.75v-5.54Zm4.59-1.26v-5.12h-2.35v5.12h2.35Zm0,1.26h-2.35v5.54h2.35v-5.54Zm.08,7.76c1.06,1.68,2.21,4.28,2.77,5.96l-2.83,.73c-.2-1.68-.48-4.42-.9-6.36l.95-.34Zm4.37-9.02v-5.12h-2.32v5.12h2.32Zm0,1.26h-2.32v5.54h2.32v-5.54Zm.9,7.64c1.51,1.54,3,3.72,3.92,5.49l-2.69,1.23c-.42-1.62-1.2-4.14-2.1-6.22l.87-.5Zm3.56-14.03h-2.32v5.12h2.32v-5.12Zm0,6.38h-2.32v5.54h2.32v-5.54Zm6.94,12.91l-2.72,1.37c-.48-1.65-1.65-4.51-2.74-6.47l.81-.56c1.62,1.54,3.67,3.86,4.65,5.66Z"/>
        <path class="cls-1" d="M272.52,86.74l.28-.95c2.49,.62,2.88,.39,2.88-1.93,0-1.76-.62-4.2-2.07-6.24,.64-1.65,1.54-4.51,1.85-6.72h-3.22v23.38h-2.35v-25.2l2.27,.64h3.02l.67-.53,2.58,1.09c-1.23,3.22-2.8,5.63-3.86,7.17,2.04,2.16,3.44,4.65,3.5,7.03,.08,3.58-2.38,4.82-5.54,2.27Zm21.34,4.98l-2.16,2.69c-2.58-1.85-6.55-5.66-7.59-13.97h-2.24v9.52c1.51-.28,3-.59,4.2-.92l.34,.92c-2.21,1.32-6.22,2.86-9.27,3.56l-.9-2.83c.92-.06,1.99-.17,3.11-.34v-20.47h11.87v10.56h-6.02c.45,2.27,1.2,4.06,2.1,5.52,1.2-1.18,2.49-2.74,3.42-4.34l2.27,1.74c-1.32,1.23-3.36,2.6-5.1,3.47,1.68,2.27,3.84,3.67,5.96,4.9Zm-11.98-17.22h6.83v-3.36h-6.83v3.36Zm0,4.68h6.83v-3.42h-6.83v3.42Z"/>
        <path class="cls-1" d="M302.06,75.59l.53-.87c1.76,.73,3.81,1.88,5.35,3.22l-1.79,2.13c-1.34-1.71-2.86-3.28-4.09-4.48Zm4,6.22l.98,.31c-.53,3.89-1.34,8.46-1.93,10.81l-2.72-1.12c1.12-2.6,2.6-6.69,3.67-10Zm.5-8.18c-1.09-1.6-2.32-3.08-3.5-4.4l.62-.81c1.23,.56,3.19,1.82,4.76,3.36l-1.88,1.85Zm1.93,9.86l-.62-.78c2.44-2.24,3.75-4.26,4.34-6.83h-1.37c-.06,.36-.11,.73-.2,1.06l-1.99-.22c.36-1.76,.56-3.02,.73-5.21l1.99,.22c-.06,.76-.2,1.85-.34,2.97h1.37c.08-.73,.14-1.51,.14-2.35v-1.2h-3.84v-1.26h8.48v1.26h-2.41v.98c0,.92-.06,1.76-.2,2.58h2.44v1.18h-2.69c-.06,.28-.14,.56-.22,.81h1.62l-.03,2.46c.81-.39,1.57-.78,2.21-1.15l.53,.76c-1.48,1.4-3.86,3.08-5.1,3.67l-1.01-1.9,1.37-.48v-2.32c-1.06,2.44-2.88,4.28-5.24,5.77Zm2.18-.31h14.2v10.95h-2.46v-1.48h-9.27v1.6h-2.46v-11.06Zm2.46,3.95h9.27v-2.69h-9.27v2.69Zm0,4.26h9.27v-3.05h-9.27v3.05Zm11.51-9.52c-2.1,0-2.74-.31-2.74-2.38v-1.76c-1.01,2.04-2.72,3.92-5.35,5.15l-.56-.81c2.41-1.71,3.78-3.86,4.48-6.22h-1.15c-.06,.42-.11,.81-.17,1.12l-2.02-.25c.36-1.68,.56-3.42,.7-4.96l1.93,.2-.31,2.72h1.26c.17-.9,.25-1.79,.25-2.72v-.78h-3.22v-1.26h8.71v1.26h-3.25v.78c0,.87-.08,1.79-.28,2.72h3.98v1.18h-4.26c-.08,.28-.2,.56-.31,.84h1.6v2.55c0,.64-.03,.81,.67,.81,.9,0,1.04-.25,1.01-2.69h.95c.95,3.47,.53,4.51-1.93,4.51Z"/>
        <path class="cls-1" d="M358.51,74.81c-.25,7.98-.64,12.21-1.4,15.6-.84,3.78-4.45,4.79-9.52,.48l.5-.95c4.42,1.62,5.8,2.13,6.44-1.12,.5-2.55,.84-5.88,1.12-12.46h-7.17c-.84,8.23-3.61,14.73-11.96,17.98l-.48-.98c6.36-3.58,8.82-8.96,9.6-17h-7.7v-1.54h7.84c.14-2.02,.17-4.23,.17-6.58l2.86,.08c0,2.24-.06,4.42-.2,6.5h9.88Z"/>
      </g>
    </g>
  </g>
</svg>