<?xml version="1.0" encoding="utf-8"?>
<!-- Generator: Adobe Illustrator 26.5.0, SVG Export Plug-In . SVG Version: 6.00 Build 0)  -->
<svg version="1.1" id="_圖層_2" xmlns="http://www.w3.org/2000/svg" xmlns:xlink="http://www.w3.org/1999/xlink" x="0px" y="0px"
	 viewBox="0 0 575.8 397" style="enable-background:new 0 0 575.8 397;" xml:space="preserve">
<style type="text/css">
	.st0{fill:#FFFFFF;}
</style>
<g>
	
		<image style="overflow:visible;opacity:0.4;" width="348" height="170" xlink:href="F0BCA33.png"  transform="matrix(1 0 0 1 93.5239 207.4839)">
	</image>
	<g>
		<g>
			<path class="st0" d="M117.2,239.8h9.1v1.4h-20.4v-1.4h8.9v-4.5h-6.3v-1.2h6.3V230h-5.4v-0.7c-1.3,0.8-2.8,1.5-4.4,2l-0.4-0.9
				c5.2-2.5,8.4-6.4,9.5-9h-5.6l0-1.2h8.7c1,3.1,4.8,6.6,10.4,8l-1.8,2.7c-1-0.4-2-0.9-3.1-1.7v0.7h-5.4v4.1h6.4v1.2h-6.4V239.8z
				 M122,228.9c-2-1.4-4-3.6-5.4-7c-1,2.3-3.3,4.9-6.5,7L122,228.9z"/>
			<path class="st0" d="M143.7,233.3c-2.9,2.3-5.9,4-7.9,4.9l-1.1-2.5c1.2-0.3,2.3-0.7,3.4-1v-6.1h-2.9v-1.1h2.9v-5.2h-3.2v-1.1h8.8
				v1.1h-3.4v5.2h2.7v1.1h-2.7v5.3c1-0.4,2-0.9,3-1.4L143.7,233.3z M155.2,239.8c-1.6-1.7-4.1-5.6-4.4-14.7h-0.6v14.8
				c0,2.3-2.4,3.1-6.2,0.5l0.3-0.8c3.3,0.9,3.7,0.5,3.7-0.6v-5.6c-1.5,2-4,4.2-5.3,5.2l-1.5-2.2c1.9-1,3.9-2.2,6.7-4.5v-6.7h-5.5
				v-1.1h5.5v-5.1h2.2v5.1h6.6v1.1h-5.1c0.1,1.8,0.3,3.3,0.7,4.7c0.7-0.9,1.5-2,2.2-3.4l2,1.5c-1,1.1-2.8,2.4-3.9,3.1
				c0.8,2.6,2.2,4.6,4.6,6.5L155.2,239.8z M145.2,232c-0.5-1.8-1.2-3.7-1.8-5.3l0.7-0.4c1.2,1.3,2.3,2.8,3.2,4.7L145.2,232z
				 M154.3,223.4c-0.8-1.1-2-2.5-3-3.7l0.5-0.7c1.1,0.5,2.8,1.5,4.1,2.7L154.3,223.4z"/>
			<path class="st0" d="M187.5,239.4l-1.3,2.7c-2.4-0.4-7.6-2-9.7-7.1c-1.4,4-5.1,6.3-11.3,7.3l-0.3-0.9c5.4-1.3,7.9-3.5,9.1-6.4
				h-8.2v-1.1h8.6c0.2-0.8,0.3-1.6,0.4-2.5l2.5,0.2c-0.1,0.8-0.2,1.6-0.4,2.3h9.6v1.1h-8.9C180.2,238.6,184.7,239.2,187.5,239.4z
				 M186.7,230.8h-21.3v-1.1h9.4v-2.5h-6.9v-1.1h6.9v-2.4h-8.5v-1.1h6.2c-0.9-1.1-2.2-2.4-3.1-3.3l0.5-0.8c1.4,0.5,3.8,1.8,4.9,2.7
				l-1.2,1.3h3.7c0.9-1.2,1.6-2.9,2-4.2l2.5,1.2c-0.9,1.2-1.9,2.2-3,3h7v1.1h-8.7v2.4h7.2v1.1h-7.2v2.5h9.6V230.8z"/>
			<path class="st0" d="M216.8,236.8h-9.1v2.9c0,2.2-2,3.5-6.4,0.9l0.2-0.8c3.6,0.8,3.9,0.4,3.9-1v-1.9h-10.1v-1.1h10.1v-1.8
				l1.7,0.2c0.9-0.5,1.8-1.2,2.6-1.9h-10.6v-1.1h11.1l0.7-0.3l2,1.6c-1.6,1.1-3.7,2-5.3,2.4v0.8h9.1V236.8z M197.7,233.2h-2.2v-4.4
				h2.2c-0.1-2.8-0.2-5.7-0.3-8.6l2,0.4c1-0.4,1.7-1,2.7-1.9l1.3,1.4c-1,0.5-2.6,1.1-4,1.3c0,0.5,0,0.9,0,1.3h3.3v1.1h-3.3
				c0,0.6,0,1.3,0,2h3.4v1.1h-3.4c0,0.6,0,1.2,0,1.8h3.7l-0.3-0.6c0.8-0.5,1.6-1,2.2-1.7c-0.5-0.4-1-0.8-1.6-1.2l0.4-0.7
				c0.7,0.3,1.4,0.6,2,1c0.4-0.5,0.8-1.1,1.1-1.7l1.5,1.1c-0.4,0.5-0.8,0.9-1.3,1.4c0.5,0.4,1.1,0.8,1.6,1.2l-1.1,1.2h4.5
				c0-0.6,0.1-1.1,0.1-1.7h-3.4v-1.1h3.4c0-0.6,0.1-1.2,0.1-1.8h-3.4V223h3.4l0.1-1.9h-3.6v-1.1h3.4l0.5-0.5l1.8,0.4
				c-0.2,2.9-0.3,5.9-0.5,8.8h2.3v4.4h-2.2v-3.2h-16.6V233.2z M205.3,221.3c-0.5-0.5-1.1-1-1.6-1.4l0.4-0.7c0.6,0.3,1.3,0.7,1.9,1.1
				c0.3-0.5,0.6-1,0.9-1.5l1.7,0.9c-0.3,0.5-0.8,1-1.2,1.5c0.5,0.4,1,0.8,1.5,1.2l-1.3,1.4c-0.3-0.4-0.8-1-1.2-1.5
				c-0.8,0.7-1.7,1.3-2.6,1.8l-0.5-0.6C204,222.8,204.7,222.1,205.3,221.3z M203.7,228.7h3.8c-0.4-0.5-0.9-1-1.3-1.5
				C205.5,227.9,204.6,228.4,203.7,228.7z"/>
			<path class="st0" d="M247.3,238.9l-0.8,2.6c-4.4,0.3-9.9,0.3-12.8-0.5c-1.6-0.5-3.1-1.3-4.3-2.6c-1.1,1.6-2.5,3-4,4l-0.5-0.7
				c1.2-0.9,2.5-2.4,3.5-4.6c-0.9-1.4-1.6-3.2-2-5.4l0.9-0.2c0.4,1.6,1,3,1.8,4.2c0.7-1.8,1.2-3.9,1.5-6.6h-2.2
				c-0.4,0.7-0.8,1.3-1.1,1.7l-1.8-0.8c1.2-1.9,2.9-5.3,4-8.1h-4.1v-1.1h6.9c-0.7,1.8-2.1,4.8-3.3,7.1h1.5l0.4-0.4l2,0.8
				c-0.3,3.3-1.1,6.3-2.5,8.9c0.8,0.7,1.7,1.3,2.8,1.7C236.2,239.9,242.4,239.4,247.3,238.9z M237.8,225.3h-5.5v-1.1h5.5v-2h-4.3
				v-1.1h4.3v-2.2h2.1v2.2h4.9v3.1h2v1.1h-2v3.4H240v2h5.1v1.1H240v2.3h6.2v1.1H240v3.3h-2.1v-3.3h-5.5v-1.1h5.5v-2.3h-4.6v-1.1h4.6
				v-2h-4.4v-1.1h4.4V225.3z M240,224.2h2.9v-2H240V224.2z M240,227.6h2.9v-2.2H240V227.6z"/>
			<path class="st0" d="M255.2,226l-0.5-0.7c2-1.8,3.2-3.8,4.1-6.7l2.4,0.7c-0.2,0.6-0.6,1.2-1.1,1.9h6.4v1.1h-4.3
				c0.6,0.6,1.2,1.4,1.8,2.2l-1.8,0.7c-0.3-1-0.7-1.9-1.1-2.9h-1.8C258.1,223.7,256.7,225,255.2,226z M277.5,238.8l-1.3,2.5
				c-2.5-0.4-6.7-2.6-9-5.9v6.7H265v-6.6c-1.8,2.6-6.2,4.8-10,5.7l-0.3-0.8c3.7-1.4,6.2-2.9,8.2-5.3h-7.5V234h9.5v-2.1
				c-0.6,0.4-1.3,0.7-2.1,1l-0.4-0.8c1.1-0.7,1.8-1.3,2.2-2c-2,0.8-5.9,1.9-8.6,2.4l-0.6-2.1c1.4-0.1,2.6-0.2,3.8-0.3v-3.3h-3.5
				v-1.1h9v1.1h-3.5v3c1-0.2,2.1-0.4,3.3-0.7l0.2,0.6c0.5-1.1,0.5-2.4,0.5-4.3h7.8v3.7c0,0.9,0.2,1.1,1.2,1.1c1.1,0,1.3-0.2,1.2-2.8
				h0.9c1.2,4,0.2,4.5-2.2,4.6c-2.7,0-3.2-0.5-3.2-2.6v-2.9h-3.6c0,2.6-0.8,4.1-2.3,5.1h1.9v2.3h9.6v1.1H268
				C270.8,237.6,274,238.3,277.5,238.8z M265,224.5c1.5-1.7,2.6-3.7,3.3-5.9l2.3,0.8c-0.3,0.6-0.7,1.3-1.1,1.9h7.5v1.1h-4.8
				c0.6,0.5,1.2,1.2,1.8,2l-1.8,0.8c-0.4-0.9-0.7-1.8-1.3-2.7h-2.3c-1,1.2-2.2,2.2-3,2.8L265,224.5z M267.9,227.4l0.8-0.3
				c0.8,1.2,1.5,2.7,1.8,3.9l-1.8,0.5C268.6,230.3,268.3,228.8,267.9,227.4z"/>
			<path class="st0" d="M293.2,233.3l0.4,0.8c-2.2,1.7-4.9,3.3-7.8,4.7l-1-2.4c0.8-0.2,2-0.5,3.4-1v-8.4h-3v-1.1h3v-6.1h2.2v6.1h3
				v1.1h-3v7.6C291.3,234.1,292.3,233.7,293.2,233.3z M304.3,241c-2.2,0.1-4.1,0.1-6.3,0c-2.8-0.2-3.9-1-3.9-3.5v-8.4
				c-0.7,0.2-1.4,0.5-2.1,0.8l-0.4-1.1c0.8-0.3,1.6-0.6,2.5-0.9v-6.9h2.1v6l2.5-1V219h2v6.3c0.9-0.4,1.8-0.7,2.7-1.1l0.4-0.6
				l2.4,0.6c-0.4,2.5-1.7,8-2.6,10l-0.9-0.2c0.4-2.1,0.9-7.3,0.9-8.7c-0.9,0.4-1.9,0.8-2.9,1.2v9.7h-2v-8.9l-2.5,1v9
				c0,1.3,0.8,1.6,1.9,1.7c2.1,0.2,3.9,0.1,6,0c1.3-0.1,1.5-0.8,1.4-4.6l0.9,0C308.1,239.7,307.5,240.8,304.3,241z"/>
			<path class="st0" d="M320.5,228.8V242h-2.1v-11.9c-0.7,1.9-1.8,4.3-3.2,6.2l-0.7-0.5c1.2-2.4,2.8-6.3,3.5-10.4h-2.9v-1.1h3.3
				v-5.4h2.1v5.4h2.8v1.1h-2.8v1.7c1.2,1.3,2.5,2.9,3.2,4.5l-1.8,0.9C321.5,231.3,321,230,320.5,228.8z M321.7,240.8l-0.5-0.8
				c1.3-1,3.1-3.1,4.1-5.1l2,1.1C325.7,238.2,323.4,239.9,321.7,240.8z M330.9,234.6v4.8c0,2.8-2.2,3.7-5.8,1.3l0.2-0.8
				c3,0.8,3.3,0.5,3.3-0.7l0-4.6h-6.1v-1.1H337v1.1H330.9z M327.4,221.5h-4.4v-1.1h14v1.1h-4.4v2h3.7v5.8h-12.4v-5.8h3.6V221.5z
				 M324.3,231.8v-1h11.1v1H324.3z M325.8,228.3h1.6v-3.7h-1.6V228.3z M330.7,221.5h-1.5v2h1.5V221.5z M329.2,228.3h1.5v-3.7h-1.5
				V228.3z M337.6,239.4l-1.8,1.6c-0.8-1.3-2.5-3.7-3.9-5.4l0.6-0.6C334.3,236.2,336.5,238.1,337.6,239.4z M332.5,224.6v3.7h1.6
				v-3.7H332.5z"/>
			<path class="st0" d="M127.2,270v1.1H105V270h2.8v-4.4c-0.3,0.3-0.7,0.6-1,0.8l-1.3-1.9c1.7-0.8,3-1.5,3.9-3.7l0.8,0.3
				c-0.4,1.7-1.1,3.1-2.2,4.2h16.2v4.6H127.2z M114.8,254.8h-9.5v-1.1h9.5V252H108v-1.1h6.8v-2.1h2.1v2.1h7v2.7h3v1.1h-3v2.9h-7v1.7
				h9.4v1.1h-20.6v-1.1h9v-1.7h-7v-1.1h7V254.8z M112.5,266.5h-2.7v3.5h2.7V266.5z M112.3,261.3l0.7-0.4c0.9,0.9,1.7,2.1,2.3,3.4
				l-1.9,0.7C113.1,263.8,112.7,262.2,112.3,261.3z M117.3,266.5h-2.7v3.5h2.7V266.5z M117,253.7h4.8V252H117V253.7z M117,256.6h4.8
				v-1.8H117V256.6z M118.3,260.9c1,0.9,1.9,2,2.6,3.2L119,265c-0.3-1.1-1-2.8-1.5-3.7L118.3,260.9z M122,266.5h-2.7v3.5h2.7V266.5z
				 M127,264.7l-1.8,1.5c-0.7-1.4-2-3.3-3.1-4.7l0.5-0.5C124.2,261.9,126,263.3,127,264.7z"/>
			<path class="st0" d="M153.8,271.2c-0.7-0.7-1.3-1.7-1.8-3.1c-1.2,1.4-2.9,2.7-5.2,3.7l-0.4-0.8c1.3-0.6,2.3-1.5,3.2-2.4h-5v1.4
				h-1.7V258h6.8v1.1h-2.2v2h2.1v4.1h-2.1v2.3h2.4v0.7c0.6-0.6,1.1-1.3,1.5-2c-0.6-2.5-1-5.8-1.1-9.7h-8.4v5.5
				c0,4.5-0.6,7.8-3.6,10.1l-0.7-0.6c1.6-2.3,2.1-3.5,2.2-7.6h-1.5c0,2.6,0.1,4.1-2.6,6.5L135,270c1.6-2.1,1.6-3.6,1.6-6h-1.4v-1.1
				h4.7v-0.8v-1.8H138v1h-1.7v-5.8h1.7v3.7h1.9v-3.7h10.4V254l1.8,0c0,0.5,0,1,0,1.4h2c-0.5-0.9-1.3-2.1-1.8-2.6l0.6-0.7
				c0.7,0.3,2.2,1.4,3,2.2l-1.1,1h2.2v1.1h-4.9c0.1,2.6,0.3,4.9,0.6,6.9c0.8-2.2,1.1-4.1,1.2-5l2.1,0.7c-0.5,1.9-1.1,4.6-2.7,7.1
				c0.3,0.9,0.5,1.7,0.9,2.3c1.2,2.2,1.8,1.1,1.8-2h0.8C158.3,271,156.6,273.9,153.8,271.2z M141.4,252.2h-6.1V251h6.1v-2h2.1v2h4.4
				v-2h2.1v2h6.6v1.1h-6.6v1.8h-2.1v-1.8h-4.4v2.1h-2.1V252.2z M144.6,261.1h1.4v-2h-1.4V261.1z M144.6,264.2h3.6v-2h-3.6V264.2z
				 M146,265.3h-1.4v2.3h1.4V265.3z"/>
			<path class="st0" d="M187.6,263.1l-1.6,2.3c-2.1-0.9-4.7-2.6-6.2-5.7h-7c-1.5,3-4.3,5.1-7.7,6.4l-0.4-0.8c3-1.7,4.6-3.5,5.6-5.7
				H165v-1.1h2.5c-0.1-2.9-0.2-5.5-0.4-8.6l2,0.5c1.1-0.5,2.1-1.1,2.8-1.8l1.4,1.6c-1,0.5-2.8,0.9-4.1,1.1l0,1.3h3v1h-3l0.1,1.9h3.1
				v1h-3l0.1,1.8h3.4c0.2-0.9,0.3-1.9,0.4-2.8l1.8,0.2c-0.2,1.2-0.3,1.9-0.4,2.7h1.8c0.2-1.2,0.4-2.8,0.5-4.2h-1.9
				c0,0.3-0.1,0.6-0.2,0.8l-1.8-0.2c0.4-1.8,0.8-4.4,1-6.2l1.9,0.1c-0.1,0.5-0.2,1.1-0.2,1.8h3.3v1h-3.4c-0.1,0.5-0.2,1-0.3,1.6h3.7
				c-0.2,1.6-0.5,3.7-0.7,5.3h3.9l0.1-1.8h-2.5v-1h2.6l0.1-2H180v-1h2.6l0.1-1.9h-3v-1h5.1l-0.5,8.9h2.6v1.1h-6.1
				C183,261.9,185.5,262.5,187.6,263.1z M177.1,266.5h7.7v1.1h-7.7v4.4H175v-4.4h-7.4v-1.1h7.4v-2.4h-4.1v-1.1h4.1v-2.5h2.1v2.5h4.4
				v1.1h-4.4V266.5z"/>
			<path class="st0" d="M210.7,265.7v-1.8h-4v2.2h-2.2v-9.4h-3.9v12.1h16.2v1.2h-16.2v2.1l-2.3,0v-15.5h-3.2v-1.2h3.2v-5h2.3v5h3.9
				v-6.3h2.2v6.3h4v-6.1h2.2v6.1h4.1v1.2h-4.1v9H210.7z M210.7,262.7v-6.1h-4v6.1H210.7z"/>
			<path class="st0" d="M232.2,263.2c-0.5-1-0.9-2-1.4-3.1v11.9h-2.1v-10.4c-0.8,1.9-1.7,3.8-3.3,5.9l-0.7-0.6
				c1.8-3.3,2.7-6.4,3.5-9.9h-3.2v-1.1h3.7v-3.7c-1.2,0.2-2.4,0.4-3.5,0.5l-0.2-0.9c2.8-0.7,5.1-1.6,7.3-3l1.9,1.8
				c-1,0.4-2.2,0.8-3.3,1.1v4.2h3v1.1h-3v1.6c1.3,1.1,2.5,2.3,3.2,3.4L232.2,263.2z M247.2,266.2h-1.7v3.8c0,1.9-2.1,3-6,0.7
				l0.2-0.9c3.2,0.7,3.6,0.4,3.6-0.7v-2.8h-7.1v5.9h-2.1v-5.9h-1.6v-1.1h1.6v-6.8h4.6v-2h2.2v2h4.7v6.8h1.7V266.2z M233.3,251.3
				c4.3-0.5,7.7-1.3,10.7-2.5l2.2,1.7c-2.2,0.6-4.9,1-7.4,1.3c0.9,0.9,1.7,2,2.4,3.6l-2,0.8c-0.3-1.2-0.7-2.6-1.3-4l0.6-0.3
				c-1.9,0.2-3.7,0.3-5,0.4L233.3,251.3z M234,252.6l0.7-0.4c1.1,1.2,2.1,2.7,2.7,4l-2,0.8C235.2,255.7,234.6,254.1,234,252.6z
				 M238.7,261.6v-2.2h-2.5v2.2H238.7z M238.7,262.6h-2.5v2.5h2.5V262.6z M240.9,259.4v2.2l2.5,0v-2.2H240.9z M243.3,265.1v-2.5
				l-2.5,0v2.5H243.3z M242,256.5c0.6-1.3,1.2-3,1.6-5l2.2,0.8c-1.2,2.2-2.2,3.5-3.2,4.6L242,256.5z"/>
			<path class="st0" d="M277.1,258.4h-22v-1.1h9.9v-1.5h-7.2v-1.1h7.2v-1.4h-8.6v-1.1h6.1c-0.3-0.9-0.8-1.9-1.5-3l0.7-0.6
				c1,0.7,2.1,1.6,2.9,2.8l-1.4,0.8h4.6c0.4-1.1,0.8-2.7,1-3.7l2.5,0.9c-0.7,1-1.4,2-2.2,2.8h6.5v1.1h-8.5v1.4h7.3v1.1h-7.3v1.5h9.9
				V258.4z M261.2,264.8c-0.9,2-2.9,5.6-4,7.2l-2-1.7c1.2-1.1,3.7-3.9,5.2-6L261.2,264.8z M255.7,261.4c1.2,0.4,2.6,1,3.8,1.9
				l-1.4,1.8c-0.7-1-1.7-2.1-2.8-3L255.7,261.4z M260.7,262.4c-0.7-1-1.7-2.1-2.8-3l0.4-0.7c1.2,0.4,2.6,1,3.8,2L260.7,262.4z
				 M277.4,269.8l-1.3,2.3c-2.7-1.2-5.9-3.3-6.8-7.1c-0.9,3-3.6,5.9-8.6,7.2l-0.4-0.8c5.1-1.9,7-5.5,7.3-8.9h-1.8
				c-1,1.5-2.3,3-3.6,4l-0.5-0.5c2.1-2.5,3-5.1,3.5-7.4l2.3,0.7c-0.2,0.7-0.6,1.4-1,2.2h6.7l0.5-0.5l2.3,1.3c-1,1.4-2.4,2.8-3.7,3.7
				l-0.7-0.5c0.8-1.1,1.1-1.9,1.5-2.9h-3.3c0,0.2,0,0.4,0,0.6C270.6,268,276,269.4,277.4,269.8z"/>
			<path class="st0" d="M289.9,253.7h4.5v17.4h-2.2v-2.3H288v2.7h-2.2v-17.9h3c0.3-1.6,0.6-3.7,0.8-5l2.7,0.6
				C291.7,250.6,290.7,252.4,289.9,253.7z M292.3,254.8H288v5.5h4.3V254.8z M292.3,267.7v-6.2H288v6.2H292.3z M306.2,253.7
				c0,8.7-0.2,12.9-0.6,15.3c-0.5,3.2-3.5,4.2-8.2,0.1l0.4-0.8c4,1.6,5.1,1.8,5.5-0.3c0.2-1.4,0.5-4.8,0.5-13.2h-5.2
				c-0.8,1.9-1.8,3.9-3.3,5.8l-0.7-0.5c1.8-3.5,2.7-8.1,3.1-11.4l2.6,0.5c-0.2,1.1-0.6,2.7-1.2,4.5H306.2z M300.1,265.1
				c-0.8-2.4-1.8-4.5-2.8-6.4l0.7-0.6c1.6,1.5,3.4,3.8,4.4,5.7L300.1,265.1z"/>
			<path class="st0" d="M315,258.7l-0.4-0.8c2.8-1.1,5.6-3,7.5-5.3h-6.3v-1.1h7.2c0.6-0.8,1-1.8,1.4-2.7l2.7,0.5
				c-0.4,0.8-0.9,1.5-1.3,2.2h10.6v1.1h-7.4c2.5,2,6,2.9,8.8,3.1l-1.2,2.4c-2.8-0.8-6.5-2.5-8.9-5.6h-2.8
				C321.9,255.8,318.1,257.6,315,258.7z M330.4,259.9h6.4v1.1h-7.9c-1.2,0.9-2.6,1.6-4,2.3h9.4v8.8H332v-1.5h-9.5v1.5h-2.2v-7
				c-1.6,0.6-3.2,1-4.8,1.5l-0.3-0.8c3.6-1.1,7.4-2.7,10.4-4.8h-10.2v-1.1h8.7v-2.4h-3.5v-1.1h3.5v-2.5h2.2v2.5h3.5v0.9
				c0.3-0.4,0.6-0.8,0.8-1.1l2.2,1.2C332.1,258.3,331.3,259.1,330.4,259.9z M332,264.4h-9.5v2h9.5V264.4z M332,267.5h-9.5v2h9.5
				V267.5z M327.2,259.9c0.9-0.8,1.8-1.5,2.5-2.4h-3.3v2.4H327.2z"/>
			<path class="st0" d="M346.9,264.6l0.9,0.1c0,2.9-0.3,5.5-0.8,7.1l-2.3-1C345.6,269.4,346.4,267.3,346.9,264.6z M347.1,261.3
				c1.2-1.3,2.3-2.8,3.3-4.6c-1.5,0.4-3.1,0.8-4.4,1l-0.4-2.2c0.5,0.1,1,0.1,1.5,0.1c0.9-1.8,1.7-4.1,2.3-6.9l2.3,0.9
				c-0.9,2.2-2.3,4.5-3.5,6c0.9,0,1.9,0,2.9-0.1c0.5-1,1-2.1,1.3-3.2l2.1,0.9c-1.2,2.6-3.8,6-6.1,8c1.2-0.1,2.5-0.2,3.7-0.4
				c-0.2-0.6-0.5-1.2-0.7-1.8l0.7-0.5c1.1,1.1,2.2,2.9,2.8,4.3l-1.9,0.9c-0.2-0.6-0.4-1.4-0.6-2.1c-2.3,0.9-5,1.7-6.5,1.9l-0.6-2.3
				C345.9,261.3,346.5,261.3,347.1,261.3z M349.7,264.6c0.7,1.9,1.1,4.3,1.4,5.8l-2.2,0.4c0.1-1.6,0.2-4,0-6L349.7,264.6z
				 M351.5,263.8c1,1.5,2,3.4,2.6,4.9l-2.1,0.8c-0.3-1.6-0.8-3.7-1.2-5.3L351.5,263.8z M367.5,266.9l-1.6,2
				c-1.3-1.5-3.2-3.2-4.9-4.6v5.2c0,2.8-2.6,3.3-5.7,0.8l0.2-0.8c2.9,0.8,3.3,0.6,3.3-0.6v-4.2c-1.2,1.1-2.6,2.2-4.3,3.2l-1.1-2.1
				c1.8-0.6,3.5-1.3,5.4-2.4v-4.7h-5.6v-1.1h7.5c0.2-0.6,0.3-1.2,0.5-1.9H357l-0.5,1.3l-1.8-0.4c0.9-2.5,1.6-5.1,2.2-7.7l2,0.4
				c-0.1,0.5-0.3,1-0.4,1.5h3.4l0.5-0.3l2,0.7c-0.5,2-1,4.2-1.6,6.4h4v1.1h-5.8v4.5l0.5,0.2c1.2-1.2,2.2-2.7,2.9-4.1l1.8,1.4
				c-1,1.1-2.5,2.3-3.9,3.1C364.2,264.7,366.2,265.9,367.5,266.9z M356.3,263.9c-0.7-1.6-1.4-3-2.1-4l0.6-0.6c1,0.7,2.4,2.2,3.2,3.3
				L356.3,263.9z M361.4,254.6c0.2-1,0.4-2,0.5-2.7h-3.8c-0.3,0.9-0.5,1.8-0.8,2.7L361.4,254.6z"/>
			<path class="st0" d="M381.1,260.7v11.4h-2.1V262c-1.1,1.1-2.4,2.1-3.8,2.9l-0.5-0.7c3.8-3,5.5-6.4,6.4-9.6h-5.7v-1.1h3.9
				c-0.5-1.1-1.4-3-2.2-4.2l0.6-0.5c1.3,1,2.6,2.2,3.7,3.5l-1.7,1.3h1.5l0.4-0.4l2.1,1c-0.6,1.8-1.4,3.6-2.5,5.2
				c1.4,1,2.5,2,3.4,3.1l-1.8,1.6C382.2,262.7,381.8,261.7,381.1,260.7z M394,271.5c-3.2,0-3.5-0.6-3.5-2.5v-5.7h-1
				c-0.3,4.9-3,7.4-7.5,9l-0.4-0.8c3.7-1.8,5.5-4.4,5.7-8.2h-2.4v-13.1h10.3v13.1h-2.6v5.2c0,0.8,0.2,1,1.5,1c1.4,0,1.6-0.3,1.6-3.8
				h0.9C397.7,270.3,397.5,271.5,394,271.5z M386.9,254.2h6.2v-2.8h-6.2V254.2z M386.9,258.2h6.2v-2.9h-6.2V258.2z M386.9,262.2h6.2
				v-2.8h-6.2V262.2z"/>
			<path class="st0" d="M416.8,267.4c-3.3,1.6-8,3-11.4,3.6l-0.6-2.4c1.5-0.1,3.2-0.3,4.9-0.6v-3.3h-4.3v-1.1h4.3v-2.8h-3.8V250h9.6
				v10.7h-3.7v2.8h4.3v1.1h-4.3v2.9c1.6-0.3,3.2-0.7,4.7-1.1L416.8,267.4z M408,254.7h1.7v-3.6H408V254.7z M409.7,259.6v-3.7H408
				v3.7H409.7z M411.8,254.7h1.7v-3.6h-1.7V254.7z M411.8,259.6h1.7v-3.7h-1.7V259.6z M426.7,258.6c-0.8,1.5-2.4,3.7-3.3,4.5
				l-0.7-0.5c0.5-1.2,1.1-2.8,1.3-3.7h-2v10.8c0,2.3-2.1,3.3-6.2,0.7l0.2-0.8c3.4,0.8,3.8,0.5,3.8-0.7V259H416v-1.1h5.4
				c-1-1.3-2.5-2.9-3.9-4.1l0.4-0.7c1,0.5,2,1.1,3.1,1.8c0.9-1.1,2.2-2.9,2.6-3.9h-7.2v-1.1h7.3l0.5-0.3l2.4,1.5
				c-1.2,1.5-3.1,3.2-4.8,4.4c0.5,0.4,1,0.8,1.5,1.2l-1.3,1.3h2.1l0.5-0.4L426.7,258.6z"/>
			<path class="st0" d="M127,310.9v1.1h-6.1v1.8h-2.1v-1.8h-5.4v1.8h-2.1v-1.8h-6.1v-1.1h6.1v-2h2.1v2h5.4v-2h2.1v2H127z
				 M117.1,322.7h8.9v7.1c0,2.2-1.9,3.2-6.5,0.9l0.2-0.9c3.6,0.7,4.1,0.4,4.1-1.2v-4.8h-6.7v2.7c1-0.1,1.9-0.2,2.6-0.2
				c-0.2-0.6-0.5-1.1-0.7-1.5l0.8-0.5c1.2,1.1,2.5,2.8,3.2,3.8l-1.9,1.2c-0.2-0.6-0.5-1.3-0.9-2.1c-3.2,1-8.2,1.9-10.4,2.1l-0.5-2.4
				c1.5,0,3.6-0.1,5.7-0.2v-2.8h-6.8v8.3h-2.2v-9.4h9v-1.5h-6.6v-6.6h15.3v6.6h-6.5V322.7z M110.4,317.2h4.5v-1.6h-4.5V317.2z
				 M114.9,320v-1.6h-4.5v1.6H114.9z M117.1,317.2h4.4v-1.6h-4.4V317.2z M117.1,320h4.4v-1.6h-4.4V320z"/>
			<path class="st0" d="M143.5,323.5l0.3,0.8c-2.4,1.4-5.2,2.8-8.3,3.9l-0.7-2.5c0.8-0.1,2-0.3,3.4-0.6v-8.1h-3.1v-1.1h3.1V309h2.2
				v6.8h3v1.1h-3v7.6C141.4,324.2,142.5,323.9,143.5,323.5z M157,321.6v1.1h-6.3v9.4h-2.2v-9.4h-6.4v-1.1h6.4v-9.9h-5.6v-1.1h13.3
				v1.1h-5.5v9.9H157z M147.5,319.3l-2.2,0.8c-0.5-2.2-1.2-4.6-2-6.6l0.8-0.4C145.3,314.7,146.7,316.9,147.5,319.3z M151.3,319.8
				c1-2.1,1.8-4.7,2.2-7l2.3,1c-0.9,2.2-2.6,5-3.8,6.4L151.3,319.8z"/>
			<path class="st0" d="M166.9,324.6l0.9,0.1c0,2.9-0.3,5.5-0.8,7.1l-2.3-1C165.6,329.4,166.4,327.3,166.9,324.6z M167.1,321.3
				c1.2-1.3,2.3-2.8,3.3-4.6c-1.5,0.4-3.1,0.8-4.4,1l-0.4-2.2c0.5,0.1,1,0.1,1.5,0.1c0.9-1.8,1.7-4.1,2.3-6.9l2.3,0.9
				c-0.9,2.2-2.3,4.5-3.5,6c0.9,0,1.9,0,2.9-0.1c0.5-1,1-2.1,1.3-3.2l2.1,0.9c-1.2,2.6-3.8,6-6.1,8c1.2-0.1,2.5-0.2,3.7-0.4
				c-0.2-0.6-0.5-1.2-0.7-1.8l0.7-0.5c1.1,1.1,2.2,2.9,2.8,4.3l-1.9,0.9c-0.2-0.6-0.4-1.4-0.6-2.1c-2.3,0.9-5,1.7-6.5,1.9l-0.6-2.3
				C165.9,321.3,166.5,321.3,167.1,321.3z M169.7,324.6c0.7,1.9,1.1,4.3,1.4,5.8l-2.2,0.4c0.1-1.6,0.2-4,0-6L169.7,324.6z
				 M171.5,323.8c1,1.5,2,3.4,2.6,4.9l-2.1,0.8c-0.3-1.6-0.8-3.7-1.2-5.3L171.5,323.8z M187.5,326.9l-1.6,2
				c-1.3-1.5-3.2-3.2-4.9-4.6v5.2c0,2.8-2.6,3.3-5.7,0.8l0.2-0.8c2.9,0.8,3.3,0.6,3.3-0.6v-4.2c-1.2,1.1-2.6,2.2-4.3,3.2l-1.1-2.1
				c1.8-0.6,3.5-1.3,5.4-2.4v-4.7h-5.6v-1.1h7.5c0.2-0.6,0.3-1.2,0.5-1.9H177l-0.5,1.3l-1.8-0.4c0.9-2.5,1.6-5.1,2.2-7.7l2,0.4
				c-0.1,0.5-0.3,1-0.4,1.5h3.4l0.5-0.3l2,0.7c-0.5,2-1,4.2-1.6,6.4h4v1.1h-5.8v4.5l0.5,0.2c1.2-1.2,2.2-2.7,2.9-4.1l1.8,1.4
				c-1,1.1-2.5,2.3-3.9,3.1C184.2,324.7,186.2,325.9,187.5,326.9z M176.3,323.9c-0.7-1.6-1.4-3-2.1-4l0.6-0.6c1,0.7,2.4,2.2,3.2,3.3
				L176.3,323.9z M181.4,314.6c0.2-1,0.4-2,0.5-2.7h-3.8c-0.3,0.9-0.5,1.8-0.8,2.7L181.4,314.6z"/>
			<path class="st0" d="M196.4,309.9h6.6v19.7c0,2.2-2.5,3-5.5,0.5l0.3-0.8c2.1,0.7,3.1,0.7,3.1-0.4v-6.3h-2.4
				c-0.3,4.3-1.4,7.9-2.8,9.8l-0.8-0.5c1.3-3.5,1.5-6.8,1.5-13.1V309.9z M198.6,319.6c0,0.6,0,1.2,0,1.8h2.3v-4.7h-2.3V319.6z
				 M198.6,315.7h2.3v-4.6h-2.3V315.7z M211.3,314.1v3.2h4.7v9.4c0,1.9-1.7,3.1-4.5,0.6l0.3-0.8c2,0.6,2.1,0.4,2.1-0.8v-7.3h-2.6
				V332h-2.2v-13.5h-2.4v10.8h-2.1v-11.9h4.6v-3.2h-5.5v-1.1h6.8c-1.2-1.2-2.6-2.4-3.6-3.1l0.4-0.8c1.7,0.5,3.4,1.3,5,2.3l-1.2,1.6
				h6.3v1.1H211.3z"/>
			<path class="st0" d="M233.7,320.2c0-1.3,1-2.3,2.4-2.3c1.3,0,2.3,1,2.3,2.3s-1,2.3-2.3,2.3C234.7,322.6,233.7,321.5,233.7,320.2z
				"/>
			<path class="st0" d="M262.8,310.8v17.6h-2.1v-2H258v2.6h-2.1v-18.2H262.8z M260.7,312H258v5.8h2.7V312z M260.7,318.9H258v6.5h2.7
				V318.9z M271.6,328.9v-6.1h-8.3v-1.1h8.3v-2.8h2.3v2.8h3.2v1.1h-3.2v6.9c0,2.3-2,3.6-6.2,0.6l0.3-0.8
				C271.2,330.4,271.6,330.1,271.6,328.9z M263.7,317.1h5v-3.5h-4.5v-1.1h4.5V309h2.3v3.5h4.8v1.1H271v3.5h5.8v1.1h-13.1V317.1z
				 M264.8,323.8l0.7-0.6c1.3,0.9,2.8,2.3,3.9,3.7l-1.9,1.4C266.8,327.1,265.7,325.2,264.8,323.8z"/>
			<path class="st0" d="M291,315.1v16.9h-2.2v-13.7c-1,1.2-2.1,2.4-3.4,3.5l-0.6-0.7c2.6-3,5-7.2,6.4-12.4l2.5,0.8
				C293,311.4,292.1,313.3,291,315.1z M306,324.3c2.1,6,0.8,8.9-3.2,6.9c-2.7-1.3-4.8-4.8-5.7-12.9c-1.6,0.2-3.3,0.5-5,0.7l-0.2-1.4
				c1.7-0.2,3.4-0.5,5.1-0.7c-0.2-2.3-0.3-4.9-0.4-7.6h2.3c0.1,2.8,0.2,5.2,0.4,7.3c2.5-0.4,5.1-0.8,7.7-1.2l0.2,1.4
				c-2.6,0.4-5.2,0.9-7.8,1.3c0.6,5.1,1.9,9.4,4.2,10.7c1.7,0.9,1.6-0.9,1.5-4.4H306z M303.7,315c-1-1.6-2.3-3.2-3.4-4.7l0.6-0.7
				c1.7,1,3.2,2.1,4.8,3.6L303.7,315z"/>
			<path class="st0" d="M324.3,319.8c-0.9,0.6-2.2,1.3-3.5,1.9v8.2c0,2.2-2.3,3-5.8,0.8l0.2-0.9c2.7,0.6,3.4,0.4,3.4-1v-6.1
				c-1.1,0.5-2.1,0.9-2.9,1.2l-0.9-2.3c1.1-0.2,2.5-0.5,3.8-0.9v-5.1h-3.5v-1.1h3.5V309h2.1v5.6h2.9v1.1h-2.9v4.4
				c1.2-0.4,2.3-0.8,3.1-1.2L324.3,319.8z M333.6,319.1c-1.3,0.1-3.7,0.1-5,0c-3.3-0.2-4.2-0.5-4.2-3.3v-6.8h2.2v4.5
				c2.2-0.9,4.9-2.3,6.8-3.8l2.1,1.7c-2.4,1.3-6.3,2.6-8.9,3.2v0.9c0,1.2,0.2,1.5,2.2,1.7c1,0.1,3.3,0,4.5-0.1
				c1.5-0.1,1.7-0.7,1.7-3.8l0.9,0C337.2,317.8,336.9,318.9,333.6,319.1z M324.5,320.9H336V332h-2.2v-1.7h-7.1v1.8h-2.2V320.9z
				 M326.7,325h7.1v-3h-7.1V325z M326.7,329.2h7.1v-3h-7.1V329.2z"/>
			<path class="st0" d="M350.5,318.8V332h-2.1v-11.9c-0.7,1.9-1.8,4.3-3.2,6.2l-0.7-0.5c1.2-2.4,2.8-6.3,3.5-10.4h-2.9v-1.1h3.3
				v-5.4h2.1v5.4h2.8v1.1h-2.8v1.7c1.2,1.3,2.5,2.9,3.2,4.5l-1.8,0.9C351.5,321.3,351,320,350.5,318.8z M351.7,330.8l-0.5-0.8
				c1.3-1,3.1-3.1,4.1-5.1l2,1.1C355.7,328.2,353.4,329.9,351.7,330.8z M360.9,324.6v4.8c0,2.8-2.2,3.7-5.8,1.3l0.2-0.8
				c3,0.8,3.3,0.5,3.3-0.7l0-4.6h-6.1v-1.1H367v1.1H360.9z M357.4,311.5h-4.4v-1.1h14v1.1h-4.4v2h3.7v5.8h-12.4v-5.8h3.6V311.5z
				 M354.3,321.8v-1h11.1v1H354.3z M355.8,318.3h1.6v-3.7h-1.6V318.3z M360.7,311.5h-1.5v2h1.5V311.5z M359.2,318.3h1.5v-3.7h-1.5
				V318.3z M367.6,329.4l-1.8,1.6c-0.8-1.3-2.5-3.7-3.9-5.4l0.6-0.6C364.3,326.2,366.5,328.1,367.6,329.4z M362.5,314.6v3.7h1.6
				v-3.7H362.5z"/>
			<path class="st0" d="M127.4,358.7l-0.9,2.4c-4.5,0.4-11.3,0.3-13.9-0.5c-2.4-0.8-3.8-2.2-4.6-4c-0.5,2.4-1.3,4.2-2.5,5.6
				l-0.8-0.5c1.3-2.4,1.8-5.6,1.7-11.3l2.2,0.1c0,1.7-0.1,3.2-0.3,4.6c0.5,1.1,1,1.8,1.6,2.3v-8.9h-4.7v-1.1h4.6V344h-3.9v-1.1h3.9
				v-4h2.2v4h3.8v1.1h-3.8v3.3h4.8c1.3-1.4,2-3.2,2.1-5.9h-3.3v-1.1h10.7c-0.1,3.2-0.3,5.3-0.6,6.7c-0.4,1.7-2.3,2.7-5.6,0l0.3-0.8
				c2.5,0.8,3.1,0.7,3.3-0.3c0.2-1.1,0.3-2.5,0.4-4.5h-3c-0.3,4-2.4,6.6-5.6,8.2l-0.5-0.8l0.6-0.5H112v3.6h3.7v1.1H112v5.4
				c0.1,0,0.2,0.1,0.3,0.1C115,359.4,121.7,359.4,127.4,358.7z M123.6,358v-1.5h-5.2v1.8h-2.1v-8.6h9.5v8.3H123.6z M123.6,355.3
				v-4.5h-5.2v4.5H123.6z"/>
			<path class="st0" d="M157.5,358.6l-0.9,2.5c-3.1,0.1-6.3,0.2-9.4,0.2c-5.7-0.1-8.2-2-9.3-5.1c-0.5,2.5-1.3,4.5-2.6,5.9l-0.8-0.5
				c1.2-2.4,1.8-5.6,1.7-11.3l2.1,0.1c0,1.5,0,2.9-0.2,4.2c0.4,0.9,0.8,1.6,1.3,2.2v-8.6h-4.4v-1.1h4v-3.3h-3.4v-1.1h3.4v-3.6h2.1
				v3.6h3.9v1.1h-3.9v3.3h4.4v1.1h-4.1v3.6h3.5v1.1h-3.5v5.5c1.4,0.6,3.2,0.7,5.6,0.7C151.4,359.1,155,358.8,157.5,358.6z
				 M146.1,343.5h4l-0.1-4.3h2c0,1.4,0,2.9,0,4.3h5v1.1h-5c0.1,2.3,0.3,4.6,0.8,6.5c0.7-1.5,1.3-3.2,1.8-4.9l2,0.8
				c-1,2.6-1.9,4.6-3,6.3c0.1,0.2,0.2,0.4,0.3,0.6c1.3,2.2,1.8,1.5,1.8-1.9h0.8c1.4,4.4,0,7.5-2.9,4.7c-0.5-0.5-0.9-1-1.3-1.7
				c-1.1,1.2-2.4,2.3-4.1,3.3l-0.5-0.7c1.5-1.1,2.8-2.5,3.9-4.2c-1-2.5-1.3-5.7-1.4-8.8h-1.9v8.6c0.6-0.3,1.3-0.7,2-1.2l0.5,0.8
				c-1.8,1.8-4.2,3.2-5.9,4l-1.1-2.1c0.8-0.2,1.6-0.4,2.3-0.6V343.5z M154.1,343.1c-0.4-1.6-0.6-2.5-1.1-3.5l0.8-0.4
				c0.8,0.9,1.6,2,2.2,3.1L154.1,343.1z"/>
			<path class="st0" d="M185.1,357.2l1.3,1.7c-0.9,1.2-2.5,1.6-4.7,1.7c-1.4,0.1-3.9,0.1-5.4,0c-3.3-0.2-4.1-0.7-4.1-4.1v-7.7
				l-6.8,1l-0.2-1.4c2.2-0.3,4.6-0.7,7-1.1V339h2.4v8c4.1-0.6,8.3-1.3,12.2-1.9l0.3,1.3c-3.9,0.6-8.2,1.3-12.4,2v7.8
				c0,1.8,0.2,2.2,1.9,2.3c1.4,0.1,3.8,0.1,5.2,0C183.9,358.4,184.4,358.2,185.1,357.2z"/>
			<path class="st0" d="M198.7,355.6l2.3,1.3c-1.8,2.3-3.7,4.1-5.6,5.3l-0.6-0.7C196.3,360.1,197.9,357.6,198.7,355.6z M207.3,355.3
				h-12.2v-1.1h2.4v-10.5h-2.1v-1.1h2.1V339h2.1v3.6h3.4V339h2.1v3.6h2v1.1h-2v10.5h2.1V355.3z M203,343.7h-3.4v2.6h3.4V343.7z
				 M203,347.3h-3.4v2.7h3.4V347.3z M203,351.2h-3.4v3h3.4V351.2z M206.4,358.8l-1.8,1.6c-0.9-1.5-1.9-2.8-2.8-4l0.6-0.7
				C203.7,356.3,205.3,357.6,206.4,358.8z M215.9,340.1v19.4c0,2.2-2,3.7-6.2,0.7l0.3-0.8c3.4,0.8,3.7,0.6,3.7-0.7v-5.9h-3.5
				c-0.3,3.8-1.3,7-4.6,9.5l-0.6-0.7c3.1-3.2,3.2-7.5,3.2-13.8v-7.7H215.9z M213.7,351.6v-4.8h-3.4v0.5c0,1.5,0,2.9-0.1,4.2H213.7z
				 M210.3,341.2v4.5h3.4v-4.5H210.3z"/>
			<path class="st0" d="M233.7,350.2c0-1.3,1-2.3,2.4-2.3c1.3,0,2.3,1,2.3,2.3s-1,2.3-2.3,2.3C234.7,352.6,233.7,351.5,233.7,350.2z
				"/>
			<path class="st0" d="M262.1,355v7.1h-2.2v-6.4c-0.9,1.4-2.4,3.1-4.7,4.7l-0.5-0.7c1.8-1.5,3.8-4.4,4.7-6.8h-4v-1.1h4.5v-2.4h2.2
				v2.4h4.2v1.1h-4.2v0.8c1.2,0.8,2.8,1.8,4,3.1l-1.6,1.5C263.8,357.1,262.9,356,262.1,355z M266.8,348.9h-11.7v-1.1h3.3
				c-0.4-1.2-1-2.8-1.6-3.9l0.7-0.5c1,0.9,2.2,2.5,2.8,3.6l-1.5,0.8h2.9c0.5-1.4,0.8-3.2,1-4.4l2.2,0.7c-0.6,1.2-1.5,2.7-2.3,3.7h4
				V348.9z M266.2,343.2h-10.7v-1.1h5.2c-0.9-1-1.8-1.8-2.8-2.7l0.5-0.8c1.3,0.5,2.8,1.1,4.2,2.1l-1,1.3h4.7V343.2z M277.1,348.2
				h-2.6V362h-2.2v-13.7h-2.8v1c0,6.4-1.3,10.5-4.4,13.1l-0.7-0.6c2.4-2.9,2.8-6.4,2.8-11.7v-9.2l2.1,0.5c1.9-0.5,3.5-1.3,5.1-2.5
				l2.1,1.8c-2.2,0.8-4.6,1.3-7.1,1.6v4.8h7.6V348.2z"/>
			<path class="st0" d="M307.4,358.5l-0.9,2.6c-3.1,0.2-6.1,0.2-9.3,0.1c-5.5-0.2-8-2.1-9.1-4.9c-0.5,2.4-1.3,4.3-2.5,5.7l-0.8-0.5
				c1.2-2.4,1.8-5.6,1.7-11.3l2.1,0.1c0,1.6-0.1,3.1-0.2,4.4c0.5,1.1,1.1,2,1.8,2.6v-9h-4.9v-1.1h4.7v-3.3H286v-1.1h4.1v-3.9h2.2
				v3.9h3.6v1.1h-3.6v3.3h4.3v1.1h-4.1v3.6h3.6v1.1h-3.6v5.5c1.3,0.4,2.8,0.5,4.7,0.5C301.4,359.2,304.9,358.9,307.4,358.5z
				 M297,353.8v-12.9h8.1v8.8h-2.1v-1.2h-3.8v4.9c0,1.4,0.1,1.6,1.3,1.7c1,0.1,1.8,0.1,2.8,0c1.3-0.2,1.5-0.4,1.5-3.9h0.8
				c1.5,5,0.7,5.6-2,5.8c-1.2,0.1-2.3,0.1-3.5,0C297.6,356.9,297,356.4,297,353.8z M299.1,347.4h3.8V342h-3.8V347.4z"/>
			<path class="st0" d="M337.1,357.8l-1,2.9c-2.4,0.2-4.4,0.3-7.4,0.2c-5.3-0.1-7.4-2.4-8.5-5c-1.3-3.1-1.2,1.1-2.6,5.5l-2.6-1.4
				c3-4.8,3.9-9.2,5.8-5.4c0.1,0.2,0.2,0.4,0.4,0.6c3.5-2.4,7.7-6.2,9.7-9.9h-14.5v-1.4h14.6l1-0.7l2.8,1.6
				c-3.7,5.5-8.1,8.8-12.9,11.2c1,1.3,2.7,2.3,7.2,2.3C331.8,358.6,334.6,358.2,337.1,357.8z M320.9,339.3l0.5-0.8
				c1.8,0.7,4.5,1.9,6.2,3.2l-1.8,2.2C324.2,342.2,322.5,340.7,320.9,339.3z"/>
			<path class="st0" d="M367.4,348.9l-1.2,2.5c-2.4-0.5-6.5-2.4-9.1-6.1v4.7h-2.2v-4.7c-1.7,2.7-5.4,5.1-9.8,6.3l-0.4-0.8
				c3.9-1.5,6.1-3.4,7.8-5.8h-6.9v-1.1h9.3v-1.8c-2.8,0.2-5.6,0.3-7.7,0.1l-0.1-0.9c6.7-0.2,11.5-1.3,14.9-2.7l2.1,1.9
				c-1.7,0.5-4.3,1-7,1.3v2h9.4v1.1h-8.2C361.3,347.6,364.4,348.3,367.4,348.9z M359.9,353.9h5.1c-0.5,3-1,4.8-1.4,5.9
				c-1.1,2.7-3.6,3.2-7.5-0.3l0.4-0.8c3.8,1.5,4.5,1.3,5.1-0.3c0.3-0.8,0.6-1.9,0.8-3.3h-2.9c-0.2,0.6-0.4,1.1-0.5,1.6l-2.2-0.5
				c0.6-1.4,1.1-3,1.4-4.4h-3.8c-0.6,6.6-4.9,9.5-8.9,10.6l-0.4-0.8c3.5-1.6,6.4-4.2,6.9-9.8h-3.6v-1.1h12.4
				C360.6,351.6,360.3,352.8,359.9,353.9z"/>
		</g>
	</g>
</g>
<g>
	
		<image style="overflow:visible;opacity:0.4;" width="559" height="175" xlink:href="F0BCA36.png"  transform="matrix(1 0 0 1 13.5239 14.4839)">
	</image>
	<g>
		<g>
			<path class="st0" d="M82.3,55.3L76,59.6c-1.4-2.8-3.1-5.8-5-9c-11.3,2.4-28.9,4.9-43.7,6.3l-2-7.7c3.2,0.1,6.4,0.2,9.7,0.2
				C40.3,42.7,45,33.3,48,26l7.2,3.5C50.8,35.9,45.1,43.7,39,49.3c11.1-0.1,22.1-0.8,30.3-1.5c-2.2-3.4-4.7-7-7.4-10.7l2-1.7
				C70.7,40.9,79.2,50.3,82.3,55.3z M32.8,62.4H74v28.7h-6.5V86H39.3v5.1h-6.5V62.4z M39.3,82.8h28.2V65.6H39.3V82.8z"/>
			<path class="st0" d="M109.9,65.1v5.1h-6.4V39.7h23V26.4h6.7v13.2h23.2v30.2h-6.4v-4.7h-16.8v26.4h-6.7V65.1H109.9z M126.4,43.1
				h-16.6v18.7h16.6V43.1z M149.9,43.1h-16.8v18.7h16.8V43.1z"/>
			<path class="st0" d="M208,35.2v13c9.3,4.6,16.6,9.2,23.4,15l-5.5,6.5c-5.4-6.4-11.1-12.4-17.9-18.1v39.5h-6.7v-56h-23.9v-3.8
				h59.9v3.8H208z"/>
			<path class="st0" d="M312,53.4V58h-58v-4.5H312z"/>
			<path class="st0" d="M347.1,28.2c-1.4,5.9-2.9,11-4.7,15.5v47.4h-5.8V54.8c-2.1,3.1-4.5,6-7.5,9l-1.8-1.7
				c7-10.4,10.4-20.7,12.9-35.6L347.1,28.2z M388.2,31.3v59.8h-6.3v-4.9h-27.4v4.9h-6.1V31.3H388.2z M381.9,34.4h-27.4v48.6h27.4
				V34.4z M365.1,49.3h-8.7v-3.1h8.7V37h5.8v9.1h9v3.1h-9v9.3h7.2v18.1H358V58.6h7.1V49.3z M363.4,61.7v11.8h9.3V61.7H363.4z"/>
			<path class="st0" d="M414.5,60.9c-0.9,0-1.9,0.1-3.1,0.2v-4.8c7.7-0.6,12.7-5.1,13.2-10c0.4-4.4-2.9-6.8-8.1-6.8
				c-5.2,0-8.7,2.2-11.6,4.4v-5.7c1.6-0.8,6-2.7,12.7-2.7c10.9,0,14.5,7,14.1,11.2c-0.6,5.7-6.5,9.3-11.1,10.9V58
				c6.2,0.5,12.9,4.8,13.3,11.6c0.6,6.5-3.8,15-15.7,16.3c-4.5,0.5-9.7,0.1-14.1-1.1l-0.4-3.2c4.8,0.8,9.9,0.9,12.9,0.4
				c9.3-1.6,10.4-9,10-12C426.8,64.2,420.2,60.8,414.5,60.9z"/>
			<path class="st0" d="M448.3,61c0-16.4,7.5-25.3,17.7-25.3c10.5,0,16.8,9,16.8,24.6c0,16.6-6.5,25.9-17.5,25.8
				C455.4,86,448.3,77.1,448.3,61z M475.6,60.5c0-12-3.1-20.9-10-20.9c-5.9,0-10,8.1-10,21.4c0,12.7,3.8,21.1,10,21.1
				C472.4,82.1,475.6,73.1,475.6,60.5z"/>
			<path class="st0" d="M557.9,68.3v3.5h-24.4v19.9H527V71.8h-30v-3.5h11.2V50H527V39.1h-14.1c-3.4,5.8-7.7,11.2-12.3,15.2l-1.8-1.8
				c5.6-7.1,9.9-17.3,11.9-26.9l7.4,2.2c-0.9,2.6-2,5.4-3.4,8.1h38.8v3.3h-20V50h18.1v3.1h-18.1v15.1H557.9z M527,53.2h-12.5v15.1
				H527V53.2z"/>
			<path class="st0" d="M81.3,112.8v61.5h-6.1v-3.5H31.5v3.8h-6.1v-61.7H81.3z M75.1,115.9H31.5v51.7h43.6V115.9z M34.6,161.8
				l-2-5.6c7.4-1.3,16.1-3.8,21.6-5.8l0.9,2.2C49.9,155.9,41.2,159.8,34.6,161.8z M54,129.5H32.8v-3.1h20.9
				c-0.1-2.8-0.2-5.7-0.2-8.8h5.6c0,2.9,0,5.8,0.1,8.8H66c-1.3-2.7-3.2-6.1-4.5-8.2l1.9-1.5c2.3,1.7,5.8,5.1,7.5,7.6l-3,2.1h5.9v3.1
				H59.4c0.3,5.6,0.9,11.2,1.9,15.9c1.5-3.5,2.8-7.7,4-12.7l5.4,1.9c-2.2,7.1-4.5,12.6-7.4,17.1c1.1,2.6,2.4,4.6,4.1,5.7
				c1.7,1.1,1.8-2.6,1.8-9.6h2.5c3.3,10.9,1.6,20.6-5.9,15.7c-2.5-1.6-4.5-4-6.1-7.2c-3.6,3.8-8.1,6.8-14.1,9.5l-1.2-2.2
				c6.1-3.7,10.2-7.2,13.4-11.8C55.7,146.3,54.5,138.7,54,129.5z M35,149.4v-15.2h16.8v15.2H35z M40.1,146.5h6.5v-9.3h-6.5V146.5z"
				/>
			<path class="st0" d="M114.1,149.2c-0.3-4.4-1.3-8.3-4.7-14.3c1.3-4.1,2.6-12.1,3.4-18.3h-5.2v58.2h-5.8v-62.6l5.8,1.5h4.8l1.5-1
				l5.8,2.6c-2.9,8.7-5.8,15.7-8.1,19.3c4.7,5.4,7.2,10.5,7.7,16.3c0.8,8.4-4.2,11.2-11.1,6.8l0.6-2.4
				C113.9,156.2,114.5,155.3,114.1,149.2z M115.1,171.4l-1.5-1.9c4.4-3.8,9.8-10.4,12.7-16.9l6,3.2
				C128,162.1,119.8,168.5,115.1,171.4z M114.8,132.7c5-7,7.8-15,9.5-23.4l5.7,1.5c-0.5,1.7-1.2,3.5-1.9,5.4h4.5l1.5-1l5.2,2.2
				c-2.1,8.2-5.1,14.7-9.3,19.9h19.4v3.1h-20.5v-1.7c-2.4,2.9-5.3,5.2-8.5,7.4l-1.4-2c2.9-2.6,5.3-5.4,7.3-8.4
				c-1.5-2.1-3.7-4.6-5.4-6.5c-1.4,1.9-2.9,3.6-4.5,5.1L114.8,132.7z M142.3,167.6c0.1,8.3-7.7,9.7-16.8,2.2l1-2.3
				c8.4,2.6,9.7,2.3,9.7-1.6v-15.7h-14.9v-3.1h37v3.1h-16V167.6z M128.7,131.6c0.6-1,1-2.2,1.5-3.3c-1.7-1.7-3.8-3.4-5.7-4.8
				c-0.7,1.3-1.5,2.6-2.3,3.8C124.3,128.5,126.8,130.1,128.7,131.6z M126.8,119.1l-1.1,2.3c1.9,0.7,4.1,1.7,6.1,2.8
				c0.6-1.7,1-3.4,1.3-5.1H126.8z M138.5,110.2l2.5-0.4c1.4,7.3,3.8,12.7,6.9,16.9c2.1-3.1,3.5-5.7,4.6-9h-8.8l-0.1-2.9h8.7l1.6-1
				l5.6,3.2c-4,6.6-6.7,9.2-10,11.8c3.5,4.2,7.7,7,11.9,9.4l-4.2,6.1C148.1,137.7,141.6,129,138.5,110.2z M161.9,166.2l-5.3,4.6
				c-1.9-3.3-7.2-10.9-11.5-16.1l1.7-1.8C152.6,156.8,159,162.5,161.9,166.2z"/>
			<path class="st0" d="M201.8,128.3c-3,15.2-11.3,32.2-25.2,40.7l-1.5-2.2c12-10.5,17.4-24.6,19.2-36.3l-16.4,0.1v-3.1l16-0.1
				l1.4-1.4L201.8,128.3z M238.6,162.5l-5.1,7.6c-7.7-4.7-17.8-16.8-22.8-39.2v35.6c0,9.3-6.8,11.3-19,3l0.8-2.4
				c10.5,2.6,11.9,1.9,11.9-2.4v-54.2h6.3v7.5c1.1,6.3,2.8,12.5,5.3,18.4c4.2-3.7,9.5-9.3,13-14.9l6.3,5.1
				c-5.6,5.3-13.2,9.7-18.2,12.4C221.7,148.6,228.6,157.1,238.6,162.5z"/>
			<path class="st0" d="M252.9,126.5c4.3,1.9,9.6,4.9,13.7,7.9l-4.5,5.6c-2.5-3.4-7-8.3-10.4-11.6L252.9,126.5z M255.2,110.2
				c3.5,1.6,9,5.1,12.3,7.9l-4.7,5.1c-2.6-3.6-6.5-8.4-9.1-11.1L255.2,110.2z M263.9,142.6l2.4,0.7c-1.3,8.6-3.4,21.2-5.5,28.3l-7-3
				C257.5,161.2,260.9,151.4,263.9,142.6z M294.1,122v7.4h16.8v40c0,6.6-7.9,6.1-14.9,1.7l0.7-2.3c7.2,1.6,8.1,0.8,8.1-1.4v-34.9
				h-27.3v42h-6.1v-45.2h16.5V122h-18.9v-3.1h18.9V110h6.3v8.8h19.2v3.1H294.1z M303,156.5h-9.1v14.3h-6v-14.3h-9.3v-3h9.3v-6.1
				h-8.6v-3h5.3c-1.3-3.5-3-7.2-4.4-10l1.9-1.3c2.2,2.1,5.5,6.1,7,9l-4.5,2.4h7.7c1.2-3.4,2.1-7.4,2.7-11.1l5.5,2.1
				c-1.2,2.6-3.6,6.5-5.4,9h7.4v3h-8.8v6.1h9.1V156.5z"/>
			<path class="st0" d="M329.4,149l-1-2.3c6.8-3.5,12.4-7.1,14.9-15.8h-12.7v-3.1H344c0.3-2.1,0.6-4.5,0.7-7.1h-5.1
				c-1.9,2.6-4,5-5.9,6.6l-1.7-1.7c2.9-4.4,5.4-10.6,6.5-16.1l6.7,1.7c-0.8,1.9-2.1,4.2-3.5,6.4h19.9v3.1h-10.5
				c-0.1,2.6-0.3,4.9-0.8,7.1h12.8v3.1h-13.6c-0.2,0.7-0.5,1.4-0.7,2.1c5.1,1.6,10.1,3.8,13.5,6.1l-3.7,5.5
				c-2.8-2.7-6.7-5.8-11.1-8.9C344,142.3,337.7,146.2,329.4,149z M340.3,145.7h39.3v28.6h-6.1v-4.5h-27v4.8h-6.1V145.7z
				 M346.5,155.6h27v-6.8h-27V155.6z M346.5,166.7h27v-7.9h-27V166.7z M387.7,116.3v26.5h-6v-4.7h-11.2v5.4h-6v-27.2H387.7z
				 M381.7,134.9v-15.5h-11.2v15.5H381.7z"/>
			<path class="st0" d="M415.1,155.6l2.4,0.7c-0.9,6.2-3.4,12.2-7.1,16.5l-5.3-4.8C409.4,164.9,413.3,161.5,415.1,155.6z
				 M452.9,146.6h-47v-3.1h47v-3.3h-40.2v-2.9h46.2v6.1h7.9v3.1h-7.9v6.5h-46.6v-2.9h40.6V146.6z M418.8,131.5h-11.7v-2.9h11.7v-3.9
				h-9.3v-2.9h9.3v-3.6H408v-2.9h10.9v-4.9h5.8v4.9h9.2v2.9h-9.2v3.6h8.4v2.9h-8.4v3.9h9.2v2.9h-9.2v4.2h-5.8V131.5z M451.5,158.3
				c3.1,10.5,0.5,13.4-5.3,14.1c-4.1,0.5-9.9,0.6-14.2,0.3c-6.4-0.5-10.5-1.1-10.5-6.3v-11.3h6.1v8c0,2.8,1,3.7,4.9,4
				c4.7,0.3,9.3,0.2,12.3-0.2c3.4-0.5,4.1-1.3,4.2-8.6H451.5z M431.2,157.1l0.9-2.3c3.7,0.8,8.1,1.8,12.9,4.6l-3.4,5.4
				C438.6,162.1,434.7,159.3,431.2,157.1z M446.7,131.5h-10.2v-2.9h10.2v-3.9h-8.8v-2.9h8.8v-3.6h-10.2v-2.9h10.2v-4.9h5.8v4.9h11.3
				v2.9h-11.3v3.6h10.3v2.9h-10.3v3.9h12.9v2.9h-12.9v4.2h-5.8V131.5z M467.3,166.8l-5.5,4.2c-2.5-5.4-4.8-9.3-7.9-14.1l1.8-1.5
				C459.2,157.9,463.6,161.7,467.3,166.8z"/>
			<path class="st0" d="M534.4,171.4c-2.4-2-4.2-4.9-5.8-8.4c-4.4,5-9.9,8.8-16.8,11.6l-1.1-2.2c7-3.7,12.1-8.7,16-14.8
				c-2.8-9.7-3.5-21.9-3.7-32.6h-13.4V136h12c0,5.4,0.3,14.9-0.3,20.3c-0.8,6.7-5.8,7.4-12.5,2.3l0.8-2c4.7,1.1,5.4,1.3,5.9-1
				c0.2-0.9,0.5-7.2,0.4-16.4h-6.3v3.5c0,14.6-4.7,24.3-13.2,32l-1.7-1.7c5.2-5.8,7.7-14.3,8.6-23c-6.2,4.7-11.6,7.9-19.5,12
				l-2.8-6.8c2.3-0.5,5.1-1.3,8.2-2.3v-20.3H482v-3.1h7.3v-17.7l6-0.1v17.7l7,0.1v3.1l-7-0.1v18.2c2.2-0.9,4.5-1.9,6.6-2.9l1.5,2.1
				c0.2-2.5,0.3-5,0.3-7.4V122h19.4v-2.3v-9.5h5.7v9.5v2.3h7.8c-1.3-2.6-3.5-5.8-5.7-8.7l1.7-1.9c3.4,1.9,6.8,4.6,9.5,7.1l-4.2,3.5
				h4.7v3.1h-13.6c0.1,8.2,0.6,17.1,1.9,24.7c2.4-5.8,4.1-12.2,5.3-19.3l6.2,1.8c-2.1,10.1-5.1,18.5-9.5,25.3
				c0.8,2.5,1.9,4.7,3.1,6.4c3.3,4.9,4.8,2,4.8-7.2h2.2C547.1,170.2,541.9,177.7,534.4,171.4z"/>
		</g>
	</g>
</g>
</svg>
