<?xml version="1.0" encoding="UTF-8"?>
<svg id="_圖層_2" data-name="圖層 2" xmlns="http://www.w3.org/2000/svg" xmlns:xlink="http://www.w3.org/1999/xlink" viewBox="0 0 361.31 161.2">
  <defs>
    <style>
      .cls-1 {
        fill: #fff;
      }

      .cls-2 {
        filter: url(#drop-shadow-1);
      }
    </style>
    <filter id="drop-shadow-1" filterUnits="userSpaceOnUse">
      <feOffset dx="1.66" dy="1.66"/>
      <feGaussianBlur result="blur" stdDeviation="4.16"/>
      <feFlood flood-color="#040000" flood-opacity=".4"/>
      <feComposite in2="blur" operator="in"/>
      <feComposite in="SourceGraphic"/>
    </filter>
  </defs>
  <g id="_圖層_3" data-name="圖層 3">
    <g class="cls-2">
      <path class="cls-1" d="M114.44,23.94h10.22v1.54h-22.9v-1.54h10v-5.04h-7.11v-1.4h7.11v-4.56h-6.05v-.78c-1.48,.87-3.16,1.65-4.96,2.27l-.42-.95c5.85-2.83,9.41-7.17,10.64-10.08h-6.3l-.03-1.4h9.74c1.06,3.5,5.43,7.42,11.68,9.02l-1.99,3.05c-1.06-.48-2.3-1.06-3.53-1.88v.76h-6.1v4.56h7.2v1.4h-7.2v5.04Zm5.38-12.26c-2.24-1.62-4.48-4.03-6.05-7.9-1.12,2.55-3.67,5.52-7.28,7.87l13.33,.03Z"/>
      <path class="cls-1" d="M144.2,16.66c-3.3,2.63-6.64,4.51-8.9,5.54l-1.23-2.8c1.37-.36,2.63-.76,3.84-1.18v-6.8h-3.28v-1.26h3.28V4.31h-3.64v-1.26h9.91v1.26h-3.86v5.85h3.05v1.26h-3.05v5.91c1.15-.48,2.24-.98,3.36-1.54l.53,.87Zm12.82,7.25c-1.85-1.96-4.62-6.33-4.93-16.49h-.64V24c0,2.6-2.66,3.5-6.92,.53l.34-.95c3.7,1.01,4.12,.62,4.12-.67v-6.27c-1.74,2.24-4.48,4.76-5.91,5.82l-1.65-2.46c2.13-1.06,4.34-2.44,7.56-5.04V7.42h-6.13v-1.26h6.13V.45h2.46V6.16h7.42v1.26h-5.74c.17,1.96,.39,3.67,.78,5.24,.81-1.04,1.68-2.3,2.52-3.84l2.21,1.65c-1.12,1.23-3.08,2.66-4.4,3.47,.92,2.91,2.49,5.21,5.21,7.31l-2.44,2.66Zm-11.17-8.76c-.59-2.07-1.37-4.2-2.07-5.96l.81-.48c1.37,1.51,2.6,3.19,3.61,5.24l-2.35,1.2Zm10.14-9.55c-.87-1.23-2.24-2.86-3.36-4.14l.62-.76c1.23,.59,3.16,1.68,4.56,3.08l-1.82,1.82Z"/>
      <path class="cls-1" d="M193.2,23.49l-1.46,3.02c-2.69-.42-8.54-2.21-10.89-7.98-1.62,4.48-5.68,7.08-12.71,8.15l-.31-.95c6.02-1.51,8.9-3.95,10.19-7.2h-9.24v-1.26h9.63c.22-.9,.36-1.85,.42-2.86l2.8,.22c-.06,.92-.2,1.82-.42,2.63h10.81v1.26h-10.02c3.02,4.06,8.12,4.68,11.2,4.96Zm-.84-9.6h-23.83v-1.26h10.53v-2.74h-7.78v-1.26h7.78v-2.66h-9.55v-1.26h6.94c-1.01-1.2-2.46-2.74-3.5-3.67l.53-.87c1.57,.62,4.23,2.04,5.54,3.08l-1.32,1.46h4.17c.98-1.4,1.82-3.25,2.27-4.7l2.77,1.34c-1.01,1.29-2.16,2.41-3.39,3.36h7.81v1.26h-9.77v2.66h8.04v1.26h-8.04v2.74h10.78v1.26Z"/>
      <path class="cls-1" d="M226.02,20.52h-10.16v3.22c0,2.52-2.21,3.98-7.17,1.06l.25-.95c4.06,.9,4.4,.48,4.4-1.18v-2.16h-11.37v-1.26h11.37v-2.02l1.88,.28c1.04-.59,2.07-1.4,2.88-2.1h-11.84v-1.26h12.49l.76-.34,2.27,1.82c-1.79,1.26-4.2,2.24-5.91,2.74v.87h10.16v1.26Zm-21.36-4h-2.46v-4.98h2.46c-.08-3.19-.2-6.41-.36-9.6l2.21,.48c1.06-.48,1.93-1.12,3.05-2.18l1.46,1.57c-1.09,.56-2.88,1.26-4.45,1.51,0,.5,.03,1.01,.06,1.51h3.72v1.26h-3.67c.03,.73,.03,1.48,.06,2.21h3.81v1.26h-3.78c.03,.67,.06,1.32,.06,1.99h4.14l-.34-.73c.95-.53,1.79-1.18,2.49-1.93-.56-.48-1.15-.92-1.79-1.37l.42-.78c.81,.36,1.57,.7,2.3,1.09,.48-.59,.9-1.23,1.29-1.9l1.74,1.23c-.42,.5-.92,1.04-1.51,1.6,.62,.42,1.2,.87,1.79,1.4l-1.29,1.4h5.01c.06-.64,.08-1.26,.11-1.9h-3.81v-1.26h3.86c.03-.67,.08-1.37,.11-2.04h-3.78v-1.26h3.81l.08-2.16h-4.09V1.65h3.86l.53-.53,2.04,.5c-.2,3.25-.36,6.64-.62,9.91h2.55v4.9h-2.46v-3.64h-18.62v3.72Zm8.51-13.33c-.59-.59-1.2-1.15-1.76-1.6l.42-.81c.7,.34,1.43,.78,2.18,1.26,.36-.59,.7-1.18,.98-1.74l1.88,1.04c-.36,.56-.84,1.15-1.4,1.74,.59,.45,1.12,.9,1.65,1.37l-1.48,1.51c-.36-.48-.84-1.09-1.4-1.68-.92,.78-1.93,1.48-2.88,1.99l-.5-.7c.87-.7,1.65-1.51,2.32-2.38Zm-1.76,8.34h4.31c-.48-.59-.98-1.15-1.48-1.65-.87,.67-1.82,1.26-2.83,1.65Z"/>
      <path class="cls-1" d="M260.18,22.88l-.95,2.97c-4.96,.34-11.09,.39-14.36-.62-1.85-.56-3.5-1.51-4.84-2.97-1.23,1.82-2.74,3.33-4.54,4.51l-.62-.81c1.29-1.06,2.74-2.72,3.95-5.21-1.04-1.6-1.79-3.58-2.24-6.1l.98-.28c.48,1.82,1.09,3.39,1.99,4.7,.73-1.99,1.32-4.42,1.62-7.42h-2.44c-.45,.81-.87,1.51-1.2,1.93l-1.99-.84c1.32-2.16,3.25-5.94,4.48-9.1h-4.62v-1.2h7.73c-.76,2.07-2.32,5.38-3.7,7.95h1.68l.45-.45,2.21,.84c-.36,3.75-1.29,7.11-2.83,9.94,.87,.81,1.9,1.43,3.14,1.9,3.64,1.37,10.67,.9,16.1,.25Zm-10.61-15.18h-6.13v-1.2h6.13v-2.24h-4.82v-1.26h4.82V.5h2.41V3h5.46v3.5h2.27v1.2h-2.27v3.78h-5.46v2.21h5.71v1.26h-5.71v2.6h7v1.26h-7v3.7h-2.41v-3.7h-6.16v-1.26h6.16v-2.6h-5.15v-1.26h5.15v-2.21h-4.96v-1.26h4.96v-2.52Zm2.41-1.2h3.25v-2.24h-3.25v2.24Zm0,3.72h3.25v-2.52h-3.25v2.52Z"/>
      <path class="cls-1" d="M269.02,8.46l-.59-.78c2.21-2.07,3.64-4.28,4.59-7.48l2.69,.76c-.28,.64-.7,1.4-1.26,2.18h7.17v1.26h-4.79c.67,.64,1.4,1.54,2.07,2.52l-2.07,.76c-.34-1.09-.73-2.18-1.29-3.28h-2.04c-1.2,1.46-2.74,2.94-4.48,4.06Zm24.98,14.39l-1.48,2.77c-2.83-.45-7.56-2.88-10.11-6.61v7.53h-2.41v-7.45c-1.99,2.94-6.97,5.43-11.17,6.41l-.34-.9c4.12-1.54,7-3.25,9.21-5.91h-8.4v-1.26h10.7v-2.38c-.67,.45-1.46,.81-2.35,1.18l-.48-.9c1.23-.76,2.02-1.43,2.49-2.21-2.18,.95-6.58,2.18-9.6,2.66l-.64-2.32c1.6-.08,2.97-.2,4.26-.34v-3.72h-3.89v-1.26h10.14v1.26h-3.89v3.42c1.18-.2,2.38-.42,3.7-.73l.17,.62c.56-1.2,.56-2.66,.56-4.84h8.71v4.2c0,1.04,.2,1.2,1.37,1.2,1.29,0,1.51-.25,1.4-3.11h1.01c1.4,4.51,.28,5.1-2.46,5.12-3.05,.03-3.64-.56-3.64-2.94v-3.22h-4.03c0,2.88-.9,4.56-2.58,5.77h2.18v2.55h10.75v1.26h-9.74c3.14,2.72,6.66,3.53,10.58,4.14Zm-13.97-16.07c1.74-1.85,2.94-4.14,3.72-6.66l2.58,.87c-.36,.73-.81,1.46-1.29,2.13h8.46v1.26h-5.43c.73,.59,1.37,1.29,2.04,2.21l-2.04,.84c-.42-1.04-.81-1.99-1.43-3.05h-2.58c-1.18,1.37-2.44,2.46-3.39,3.14l-.64-.73Zm3.28,3.25l.84-.34c.92,1.4,1.68,3,2.07,4.42l-2.02,.53c-.14-1.32-.5-3.08-.9-4.62Z"/>
      <path class="cls-1" d="M311.56,16.6l.45,.92c-2.49,1.88-5.52,3.72-8.74,5.29l-1.12-2.72c.87-.2,2.24-.62,3.78-1.18V9.49h-3.39v-1.26h3.39V1.37h2.46v6.86h3.42v1.26h-3.42v8.48c1.06-.42,2.16-.9,3.16-1.37Zm12.46,8.71c-2.44,.17-4.65,.17-7.06,0-3.11-.22-4.34-1.06-4.34-3.95V11.98c-.81,.28-1.6,.59-2.38,.87l-.42-1.18c.92-.34,1.85-.67,2.8-1.04V2.94h2.41v6.78l2.83-1.09V.59h2.3V7.7c1.04-.42,2.04-.81,3.05-1.23l.42-.67,2.72,.7c-.42,2.83-1.9,8.96-2.97,11.23l-.98-.25c.48-2.35,.98-8.18,.98-9.72-1.06,.45-2.13,.87-3.22,1.32v10.89h-2.3V9.97l-2.83,1.09v10.05c0,1.43,.9,1.76,2.13,1.88,2.35,.22,4.4,.14,6.72,0,1.48-.08,1.68-.84,1.6-5.21l.98-.06c1.85,6.13,1.12,7.34-2.44,7.59Z"/>
      <path class="cls-1" d="M342.19,11.62v14.81h-2.35V13.13c-.73,2.16-1.99,4.79-3.56,6.97l-.78-.62c1.37-2.66,3.14-7.11,3.89-11.65h-3.3v-1.26h3.75V.53h2.35V6.58h3.14v1.26h-3.14v1.93c1.32,1.46,2.77,3.3,3.61,5.1l-2.02,.98c-.45-1.4-1.06-2.94-1.6-4.23Zm1.37,13.47l-.59-.84c1.43-1.18,3.44-3.44,4.65-5.77l2.27,1.26c-1.9,2.44-4.42,4.31-6.33,5.35Zm10.28-7.03v5.43c0,3.14-2.46,4.14-6.52,1.43l.28-.95c3.39,.84,3.75,.53,3.75-.78l.03-5.12h-6.83v-1.26h16.13v1.26h-6.83Zm-3.98-14.62h-4.98v-1.26h15.71v1.26h-4.98v2.24h4.14v6.55h-13.89V5.68h4V3.44Zm-3.47,11.56v-1.18h12.46v1.18h-12.46Zm1.71-3.98h1.76V6.89h-1.76v4.14Zm5.49-7.59h-1.71v2.24h1.71V3.44Zm-1.71,7.59h1.71V6.89h-1.71v4.14Zm9.44,12.49l-2.04,1.76c-.92-1.46-2.86-4.14-4.4-6.02l.64-.7c2.07,1.37,4.59,3.47,5.8,4.96Zm-5.71-16.63v4.14h1.85V6.89h-1.85Z"/>
      <path class="cls-1" d="M24.84,57.79v1.29H0v-1.29H3.11v-4.96c-.36,.36-.76,.67-1.18,.95l-1.51-2.13c1.93-.84,3.36-1.74,4.42-4.14l.95,.36c-.42,1.88-1.23,3.47-2.44,4.7H21.5v5.21h3.33Zm-13.83-17.08H.39v-1.26H11v-1.85H3.33v-1.2h7.67v-2.32h2.41v2.32h7.84v3.05h3.33v1.26h-3.33v3.28h-7.84v1.9h10.56v1.26H.87v-1.26H11v-1.9H3.16v-1.2h7.84v-2.07Zm-2.55,13.16h-3v3.92h3v-3.92Zm-.25-5.91l.78-.39c.98,1.04,1.88,2.35,2.55,3.81l-2.1,.81c-.31-1.37-.84-3.14-1.23-4.23Zm5.57,5.91h-3.02v3.92h3.02v-3.92Zm-.36-14.42h5.43v-1.85h-5.43v1.85Zm0,3.33h5.43v-2.07h-5.43v2.07Zm1.46,4.76c1.15,1.04,2.13,2.27,2.88,3.61l-2.02,1.01c-.39-1.29-1.12-3.11-1.65-4.17l.78-.45Zm4.23,6.33h-3.02v3.92h3.02v-3.92Zm5.52-2.1l-1.99,1.71c-.78-1.57-2.3-3.75-3.47-5.32l.62-.59c1.74,1.06,3.75,2.69,4.84,4.2Z"/>
      <path class="cls-1" d="M54.66,59.14c-.78-.73-1.46-1.9-2.02-3.47-1.4,1.57-3.28,3-5.8,4.12l-.5-.84c1.46-.73,2.63-1.65,3.64-2.66h-5.66v1.6h-1.9v-13.55h7.67v1.2h-2.46v2.3h2.35v4.65h-2.35v2.6h2.72v.81c.64-.73,1.2-1.48,1.68-2.24-.73-2.83-1.18-6.5-1.29-10.89h-9.41v6.19c0,5.01-.64,8.79-4.06,11.37l-.78-.64c1.79-2.58,2.41-3.98,2.52-8.57h-1.68c0,2.97,.08,4.59-2.88,7.28l-.81-.59c1.82-2.41,1.76-4.09,1.76-6.69h-1.6v-1.26h5.24v-2.91h-2.1v1.12h-1.93v-6.55h1.93v4.17h2.1v-4.17h11.65v-1.62l2.07,.06c0,.53,0,1.06,.03,1.57h2.3c-.56-.98-1.51-2.35-2.07-2.91l.67-.73c.81,.39,2.46,1.62,3.33,2.52l-1.2,1.12h2.46v1.26h-5.46c.11,2.88,.36,5.54,.73,7.76,.92-2.46,1.2-4.65,1.37-5.63l2.35,.73c-.5,2.13-1.2,5.12-3.05,8.01,.31,1.06,.62,1.93,.98,2.55,1.34,2.41,2.02,1.23,1.99-2.24h.87c1.68,4.93-.2,8.2-3.39,5.21Zm-13.86-21.36h-6.8v-1.26h6.8v-2.3h2.41v2.3h4.9v-2.3h2.41v2.3h7.42v1.26h-7.42v1.99h-2.41v-1.99h-4.9v2.38h-2.41v-2.38Zm3.53,10.05h1.62v-2.3h-1.62v2.3Zm0,3.44h4v-2.24h-4v2.24Zm1.62,1.2h-1.62v2.6h1.62v-2.6Z"/>
      <path class="cls-1" d="M92.57,50.01l-1.79,2.58c-2.35-1.06-5.24-2.94-6.97-6.41h-7.87c-1.74,3.42-4.82,5.74-8.68,7.22l-.48-.87c3.33-1.93,5.18-3.98,6.24-6.36h-5.77v-1.26h2.83c-.14-3.22-.28-6.19-.48-9.6l2.27,.5c1.23-.59,2.32-1.26,3.19-2.02l1.6,1.79c-1.18,.5-3.14,1.01-4.65,1.23l.06,1.51h3.42v1.18h-3.36l.08,2.16h3.44v1.18h-3.42l.08,2.07h3.84c.22-1.04,.36-2.1,.48-3.19l2.07,.2c-.2,1.34-.31,2.1-.5,3h2.04c.2-1.4,.42-3.19,.62-4.73h-2.18c-.06,.31-.14,.62-.2,.9l-2.07-.2c.48-2.04,.87-4.96,1.15-6.97l2.1,.17c-.08,.59-.17,1.29-.28,1.99h3.67v1.18h-3.84c-.08,.59-.2,1.18-.31,1.76h4.12c-.2,1.76-.5,4.17-.73,5.91h4.34l.11-1.96h-2.86v-1.18h2.91l.08-2.27h-2.86v-1.18h2.91l.11-2.18h-3.33v-1.18h5.71l-.56,9.94h2.97v1.26h-6.8c2.32,2.49,5.1,3.22,7.53,3.84Zm-11.79,3.81h8.68v1.26h-8.68v4.9h-2.41v-4.9h-8.34v-1.26h8.34v-2.72h-4.65v-1.26h4.65v-2.86h2.41v2.86h4.93v1.26h-4.93v2.72Z"/>
      <path class="cls-1" d="M118.36,52.89v-2.04h-4.51v2.52h-2.52v-10.58h-4.4v13.61h18.12v1.34h-18.12v2.41l-2.63,.03v-17.39h-3.61v-1.4h3.61v-5.6h2.63v5.6h4.4v-7.03h2.52v7.03h4.51v-6.86h2.52v6.86h4.62v1.4h-4.62v10.11h-2.52Zm0-3.3v-6.8h-4.51v6.8h4.51Z"/>
      <path class="cls-1" d="M142.44,50.15c-.5-1.18-1.04-2.3-1.6-3.44v13.38h-2.41v-11.7c-.84,2.16-1.88,4.31-3.67,6.64l-.76-.67c2.04-3.67,3.02-7.2,3.95-11.14h-3.64v-1.26h4.12v-4.2c-1.34,.28-2.69,.48-3.92,.59l-.2-1.01c3.19-.76,5.77-1.85,8.15-3.36l2.1,2.02c-1.15,.48-2.44,.87-3.72,1.2v4.76h3.39v1.26h-3.39v1.76c1.46,1.23,2.86,2.6,3.61,3.81l-2.02,1.37Zm16.83,3.36h-1.85v4.23c0,2.18-2.38,3.33-6.75,.76l.25-.95c3.56,.73,4.03,.39,4.03-.84v-3.19h-8.01v6.58h-2.35v-6.58h-1.76v-1.26h1.76v-7.64h5.12v-2.21h2.46v2.18h5.24v7.67h1.85v1.26Zm-15.54-16.72c4.87-.5,8.68-1.48,11.96-2.86l2.46,1.96c-2.44,.62-5.49,1.12-8.32,1.43,1.01,1.04,1.88,2.27,2.74,4.06l-2.18,.84c-.34-1.34-.78-2.88-1.46-4.48l.67-.39c-2.13,.25-4.14,.39-5.66,.42l-.22-.98Zm.73,1.43l.84-.42c1.23,1.37,2.38,3.02,3.02,4.51l-2.18,.9c-.34-1.43-1.01-3.28-1.68-4.98Zm5.26,10.08v-2.44h-2.77v2.44h2.77Zm0,1.2h-2.77v2.74h2.77v-2.74Zm2.46-3.67v2.46l2.77-.03v-2.44h-2.77Zm2.77,6.41v-2.77l-2.77,.03v2.74h2.77Zm-1.46-9.63c.64-1.46,1.32-3.39,1.79-5.6l2.49,.95c-1.32,2.52-2.52,3.98-3.56,5.12l-.73-.48Z"/>
      <path class="cls-1" d="M192.72,44.72h-24.61v-1.26h11.06v-1.65h-8.12v-1.2h8.12v-1.54h-9.6v-1.26h6.83c-.34-1.04-.92-2.13-1.65-3.36l.84-.7c1.15,.76,2.32,1.85,3.28,3.16l-1.54,.9h5.15c.48-1.2,.9-3,1.09-4.2l2.77,1.01c-.76,1.12-1.62,2.24-2.46,3.19h7.31v1.26h-9.55v1.54h8.2v1.2h-8.2v1.65h11.09v1.26Zm-17.81,7.22c-1.01,2.27-3.22,6.27-4.45,8.06l-2.18-1.9c1.37-1.2,4.14-4.42,5.8-6.69l.84,.53Zm-6.1-3.84c1.4,.48,2.97,1.18,4.26,2.18l-1.57,1.99c-.78-1.09-1.9-2.32-3.14-3.42l.45-.76Zm5.57,1.12c-.78-1.09-1.88-2.32-3.14-3.39l.48-.76c1.4,.48,2.88,1.18,4.23,2.21l-1.57,1.93Zm18.7,8.32l-1.51,2.55c-3.08-1.37-6.61-3.67-7.59-7.92-.98,3.39-4.09,6.61-9.66,8.06l-.42-.87c5.68-2.18,7.81-6.13,8.15-10.02h-2.07c-1.12,1.71-2.55,3.36-4.03,4.45l-.59-.59c2.32-2.77,3.36-5.74,3.89-8.32l2.6,.73c-.25,.76-.64,1.6-1.12,2.46h7.53l.59-.53,2.58,1.46c-1.09,1.54-2.69,3.19-4.12,4.17l-.76-.62c.84-1.23,1.29-2.13,1.65-3.22h-3.72c0,.22-.03,.42-.03,.64,1.06,5.52,7.08,7.14,8.62,7.56Z"/>
      <path class="cls-1" d="M207.14,39.45h5.07v19.52h-2.46v-2.55h-4.82v3.08h-2.46v-20.05h3.33c.39-1.79,.73-4.17,.87-5.63l3.02,.64c-.59,1.54-1.65,3.53-2.55,4.98Zm2.6,1.26h-4.82v6.19h4.82v-6.19Zm0,14.45v-7h-4.82v7h4.82Zm15.6-15.65c-.06,9.8-.22,14.5-.67,17.16-.62,3.64-3.89,4.68-9.16,.14l.48-.9c4.51,1.82,5.77,1.96,6.13-.31,.25-1.62,.59-5.35,.62-14.84h-5.88c-.87,2.16-2.04,4.42-3.7,6.52l-.81-.62c2.02-3.95,3-9.1,3.44-12.77l2.94,.59c-.25,1.29-.7,3.05-1.4,5.01h8.01Zm-6.8,12.77c-.92-2.66-2.02-5.01-3.19-7.22l.81-.64c1.85,1.71,3.86,4.26,4.93,6.44l-2.55,1.43Z"/>
      <path class="cls-1" d="M235.17,45.08l-.42-.92c3.16-1.23,6.24-3.33,8.43-5.99h-7.08v-1.26h8.04c.64-.95,1.18-1.99,1.54-3.05l3,.59c-.45,.9-.98,1.71-1.51,2.46h11.9v1.26h-8.32c2.83,2.27,6.78,3.22,9.88,3.53l-1.4,2.72c-3.16-.84-7.25-2.83-9.94-6.24h-3.14c-3.19,3.72-7.42,5.71-10.98,6.92Zm17.25,1.32h7.2v1.26h-8.88c-1.4,.98-2.94,1.85-4.54,2.6h10.53v9.91h-2.46v-1.65h-10.67v1.65h-2.46v-7.84c-1.82,.64-3.64,1.18-5.38,1.65l-.36-.95c4.09-1.26,8.29-3.05,11.7-5.38h-11.48v-1.26h9.74v-2.66h-3.89v-1.26h3.89v-2.86h2.52v2.86h3.92v1.04c.34-.42,.64-.84,.92-1.26l2.44,1.32c-.78,1.04-1.74,1.96-2.74,2.83Zm1.85,5.12h-10.67v2.24h10.67v-2.24Zm0,3.44h-10.67v2.3h10.67v-2.3Zm-5.43-8.57c1.04-.84,1.99-1.71,2.77-2.66h-3.72v2.66h.95Z"/>
      <path class="cls-1" d="M270.96,51.74l.98,.11c0,3.3-.34,6.13-.87,7.95l-2.58-1.06c1.04-1.68,1.9-4,2.46-7Zm.2-3.72c1.29-1.43,2.55-3.19,3.67-5.21-1.65,.48-3.53,.87-4.9,1.06l-.5-2.44c.59,.06,1.15,.08,1.68,.11,1.01-2.07,1.88-4.62,2.55-7.7l2.6,.98c-1.04,2.49-2.63,5.04-3.95,6.75,1.06,.03,2.1-.03,3.22-.08,.53-1.12,1.06-2.32,1.51-3.61l2.41,1.06c-1.37,2.91-4.23,6.78-6.86,9.02,1.4-.08,2.8-.22,4.2-.45-.25-.7-.53-1.4-.81-1.99l.81-.59c1.2,1.26,2.49,3.25,3.19,4.79l-2.13,1.06c-.2-.7-.45-1.54-.73-2.38-2.63,1.01-5.63,1.93-7.28,2.18l-.64-2.58c.64,.03,1.32,.03,1.96,0Zm2.94,3.64c.78,2.16,1.29,4.82,1.54,6.5l-2.49,.42c.11-1.76,.17-4.48-.03-6.75l.98-.17Zm1.99-.84c1.15,1.68,2.21,3.86,2.88,5.49l-2.35,.92c-.31-1.85-.84-4.14-1.4-5.94l.87-.48Zm17.89,3.44l-1.82,2.3c-1.48-1.68-3.56-3.61-5.49-5.21v5.85c0,3.14-2.91,3.7-6.44,.92l.28-.9c3.3,.9,3.75,.64,3.75-.67v-4.68c-1.32,1.23-2.97,2.44-4.79,3.58l-1.23-2.38c2.07-.7,3.92-1.48,6.02-2.72v-5.26h-6.3v-1.26h8.43c.17-.64,.36-1.37,.53-2.1h-4.68l-.56,1.48-2.04-.48c1.01-2.77,1.76-5.68,2.46-8.68l2.27,.48c-.14,.59-.31,1.15-.45,1.71h3.78l.5-.36,2.27,.81c-.56,2.24-1.09,4.73-1.79,7.14h4.45v1.26h-6.47v5.01l.62,.25c1.34-1.34,2.46-3.05,3.3-4.59l2.07,1.57c-1.12,1.26-2.86,2.58-4.4,3.5,2.1,1.01,4.28,2.27,5.71,3.42Zm-12.54-3.3c-.76-1.76-1.6-3.42-2.32-4.45l.73-.67c1.06,.78,2.72,2.44,3.61,3.72l-2.02,1.4Zm5.77-10.44c.25-1.15,.48-2.27,.62-3.05h-4.23c-.31,1.01-.59,2.02-.92,3.02l4.54,.03Z"/>
      <path class="cls-1" d="M309.23,47.29v12.77h-2.41v-11.28c-1.26,1.26-2.72,2.35-4.28,3.25l-.53-.84c4.31-3.36,6.16-7.2,7.17-10.75h-6.36v-1.26h4.4c-.53-1.2-1.6-3.39-2.46-4.76l.67-.59c1.43,1.09,2.97,2.46,4.12,3.92l-1.93,1.43h1.74l.48-.42,2.41,1.09c-.64,2.07-1.6,4.03-2.83,5.82,1.6,1.06,2.83,2.3,3.86,3.53l-2.07,1.82c-.67-1.4-1.2-2.52-1.96-3.72Zm14.42,12.18c-3.61,0-3.92-.67-3.92-2.86v-6.36h-1.06c-.39,5.49-3.42,8.32-8.43,10.08l-.45-.92c4.2-1.96,6.16-4.98,6.41-9.16h-2.72v-14.64h11.56v14.64h-2.91v5.82c0,.92,.22,1.15,1.65,1.15,1.54,0,1.79-.34,1.79-4.23h1.01c1.29,5.04,.98,6.47-2.94,6.47Zm-7.87-19.43h6.92v-3.16h-6.92v3.16Zm0,4.54h6.92v-3.28h-6.92v3.28Zm0,4.42h6.92v-3.16h-6.92v3.16Z"/>
      <path class="cls-1" d="M349.19,54.82c-3.67,1.79-8.96,3.39-12.74,4.03l-.7-2.69c1.68-.11,3.56-.34,5.52-.67v-3.72h-4.79v-1.26h4.79v-3.14h-4.23v-12.01h10.75v12.01h-4.17v3.14h4.84v1.26h-4.84v3.3c1.79-.34,3.56-.76,5.24-1.2l.34,.95Zm-9.86-14.17h1.93v-4.03h-1.93v4.03Zm1.93,5.46v-4.2h-1.93v4.2h1.93Zm2.35-5.46h1.88v-4.03h-1.88v4.03Zm0,5.46h1.88v-4.2h-1.88v4.2Zm16.74-1.12c-.87,1.62-2.66,4.17-3.67,5.04l-.78-.53c.59-1.32,1.23-3.11,1.51-4.12h-2.24v12.07c0,2.6-2.41,3.7-7,.78l.28-.95c3.78,.92,4.26,.53,4.26-.78v-11.12h-4.4v-1.26h6.05c-1.15-1.46-2.83-3.22-4.34-4.62l.48-.76c1.12,.56,2.3,1.2,3.44,1.96,1.04-1.23,2.44-3.25,2.97-4.34h-8.09v-1.26h8.2l.56-.36,2.66,1.65c-1.34,1.62-3.5,3.58-5.43,4.9,.62,.42,1.18,.9,1.71,1.37l-1.46,1.46h2.38l.53-.45,2.38,1.32Z"/>
      <path class="cls-1" d="M91.9,103.6v1.26h-6.83v2.02h-2.41v-2.02h-6.05v2.02h-2.41v-2.02h-6.86v-1.26h6.86v-2.3h2.41v2.3h6.05v-2.3h2.41v2.3h6.83Zm-11.09,13.13h9.97v7.95c0,2.49-2.18,3.64-7.28,1.06l.22-1.06c4.03,.81,4.59,.45,4.59-1.32v-5.38h-7.5v2.97c1.06-.08,2.1-.17,2.97-.25-.28-.64-.56-1.26-.81-1.74l.84-.56c1.34,1.23,2.8,3.08,3.56,4.31l-2.16,1.32c-.25-.64-.62-1.48-.98-2.35-3.64,1.09-9.18,2.13-11.7,2.38l-.62-2.69c1.74,0,4.06-.08,6.38-.25v-3.16h-7.62v9.32h-2.46v-10.56h10.08v-1.74h-7.39v-7.42h17.16v7.42h-7.25v1.74Zm-7.56-6.08h5.04v-1.82h-5.04v1.82Zm5.04,3.08v-1.82h-5.04v1.82h5.04Zm2.52-3.08h4.9v-1.82h-4.9v1.82Zm0,3.08h4.9v-1.82h-4.9v1.82Z"/>
      <path class="cls-1" d="M110.35,117.71l.31,.92c-2.66,1.6-5.88,3.11-9.27,4.34l-.78-2.8c.87-.11,2.21-.36,3.78-.73v-9.13h-3.44v-1.26h3.44v-7.59h2.41v7.59h3.39v1.26h-3.39v8.48c1.2-.34,2.41-.7,3.56-1.09Zm15.15-2.21v1.26h-7.08v10.56h-2.52v-10.56h-7.14v-1.26h7.14v-11.09h-6.24v-1.26h14.9v1.26h-6.13v11.09h7.08Zm-10.64-2.52l-2.46,.9c-.62-2.49-1.37-5.18-2.21-7.39l.92-.42c1.29,1.76,2.77,4.23,3.75,6.92Zm4.26,.59c1.09-2.32,2.04-5.32,2.49-7.84l2.63,1.06c-1.04,2.46-2.97,5.63-4.23,7.22l-.9-.45Z"/>
      <path class="cls-1" d="M136.56,118.94l.98,.11c0,3.3-.34,6.13-.87,7.95l-2.58-1.06c1.04-1.68,1.9-4,2.46-7Zm.2-3.72c1.29-1.43,2.55-3.19,3.67-5.21-1.65,.48-3.53,.87-4.9,1.06l-.5-2.44c.59,.06,1.15,.08,1.68,.11,1.01-2.07,1.88-4.62,2.55-7.7l2.6,.98c-1.04,2.49-2.63,5.04-3.95,6.75,1.06,.03,2.1-.03,3.22-.08,.53-1.12,1.06-2.32,1.51-3.61l2.41,1.06c-1.37,2.91-4.23,6.78-6.86,9.02,1.4-.08,2.8-.22,4.2-.45-.25-.7-.53-1.4-.81-1.99l.81-.59c1.2,1.26,2.49,3.25,3.19,4.79l-2.13,1.06c-.2-.7-.45-1.54-.73-2.38-2.63,1.01-5.63,1.93-7.28,2.18l-.64-2.58c.64,.03,1.32,.03,1.96,0Zm2.94,3.64c.78,2.16,1.29,4.82,1.54,6.5l-2.49,.42c.11-1.76,.17-4.48-.03-6.75l.98-.17Zm1.99-.84c1.15,1.68,2.21,3.86,2.88,5.49l-2.35,.92c-.31-1.85-.84-4.14-1.4-5.94l.87-.48Zm17.89,3.44l-1.82,2.3c-1.48-1.68-3.56-3.61-5.49-5.21v5.85c0,3.14-2.91,3.7-6.44,.92l.28-.9c3.3,.9,3.75,.64,3.75-.67v-4.68c-1.32,1.23-2.97,2.44-4.79,3.58l-1.23-2.38c2.07-.7,3.92-1.48,6.02-2.72v-5.26h-6.3v-1.26h8.43c.17-.64,.36-1.37,.53-2.1h-4.68l-.56,1.48-2.04-.48c1.01-2.77,1.76-5.68,2.46-8.68l2.27,.48c-.14,.59-.31,1.15-.45,1.71h3.78l.5-.36,2.27,.81c-.56,2.24-1.09,4.73-1.79,7.14h4.45v1.26h-6.47v5.01l.62,.25c1.34-1.34,2.46-3.05,3.3-4.59l2.07,1.57c-1.12,1.26-2.86,2.58-4.4,3.5,2.1,1.01,4.28,2.27,5.71,3.42Zm-12.54-3.3c-.76-1.76-1.6-3.42-2.32-4.45l.73-.67c1.06,.78,2.72,2.44,3.61,3.72l-2.02,1.4Zm5.77-10.44c.25-1.15,.48-2.27,.62-3.05h-4.23c-.31,1.01-.59,2.02-.92,3.02l4.54,.03Z"/>
      <path class="cls-1" d="M169.6,102.48h7.39v22.04c0,2.46-2.8,3.42-6.22,.53l.34-.9c2.41,.78,3.47,.76,3.47-.48v-7.06h-2.69c-.39,4.84-1.57,8.9-3.16,11l-.84-.53c1.51-3.92,1.71-7.59,1.71-14.64v-9.97Zm2.41,10.86c0,.67-.03,1.34-.06,2.02h2.63v-5.24h-2.58v3.22Zm0-4.45h2.58v-5.15h-2.58v5.15Zm14.22-1.79v3.64h5.29v10.5c0,2.1-1.9,3.47-5.1,.73l.34-.9c2.24,.7,2.35,.45,2.35-.87v-8.2h-2.88v15.18h-2.46v-15.18h-2.72v12.07h-2.41v-13.33h5.12v-3.64h-6.19v-1.26h7.62c-1.34-1.32-2.91-2.66-4.03-3.47l.45-.92c1.88,.59,3.84,1.43,5.6,2.55l-1.37,1.85h7.03v1.26h-6.64Z"/>
      <path class="cls-1" d="M211.32,114.02c0-1.46,1.18-2.63,2.66-2.63s2.63,1.18,2.63,2.63-1.18,2.63-2.63,2.63-2.66-1.18-2.66-2.63Z"/>
      <path class="cls-1" d="M243.96,103.49v19.71h-2.41v-2.18h-3.02v2.88h-2.41v-20.41h7.84Zm-2.41,1.26h-3.02v6.47h3.02v-6.47Zm0,7.73h-3.02v7.28h3.02v-7.28Zm12.24,11.23v-6.89h-9.27v-1.26h9.27v-3.11h2.55v3.11h3.61v1.26h-3.61v7.76c0,2.55-2.21,4.09-6.92,.64l.34-.95c3.58,1.09,4.03,.84,4.03-.56Zm-8.82-13.16h5.57v-3.92h-5.01v-1.26h5.01v-3.95h2.58v3.95h5.35v1.26h-5.35v3.92h6.5v1.26h-14.64v-1.26Zm1.18,7.48l.76-.64c1.43,1.01,3.19,2.55,4.37,4.17l-2.18,1.54c-.67-1.43-1.93-3.56-2.94-5.07Z"/>
      <path class="cls-1" d="M275.52,108.3v18.98h-2.52v-15.37c-1.12,1.37-2.38,2.69-3.78,3.89l-.67-.81c2.97-3.39,5.6-8.04,7.22-13.89l2.77,.92c-.76,2.04-1.74,4.2-3.02,6.27Zm16.8,10.3c2.35,6.69,.87,9.97-3.56,7.76-3.02-1.51-5.38-5.4-6.41-14.42-1.85,.28-3.72,.56-5.57,.81l-.25-1.57c1.88-.25,3.78-.53,5.68-.81-.25-2.63-.36-5.52-.48-8.57h2.58c.11,3.11,.25,5.88,.45,8.18,2.86-.42,5.74-.9,8.62-1.4l.22,1.54c-2.88,.5-5.8,.98-8.71,1.43,.64,5.74,2.16,10.58,4.7,11.98,1.93,1.06,1.79-1.04,1.68-4.93h1.04Zm-2.52-10.5c-1.18-1.85-2.55-3.61-3.86-5.29l.64-.78c1.88,1.09,3.61,2.38,5.38,4.09l-2.16,1.99Z"/>
      <path class="cls-1" d="M312.87,113.57c-1.06,.67-2.46,1.46-3.92,2.18v9.21c0,2.44-2.63,3.33-6.5,.87l.28-.98c3.05,.67,3.81,.45,3.81-1.06v-6.86c-1.2,.56-2.35,1.04-3.3,1.37l-1.01-2.63c1.26-.22,2.77-.59,4.31-1.01v-5.71h-3.95v-1.26h3.95v-6.3h2.41v6.3h3.3v1.26h-3.3v4.98c1.37-.42,2.6-.9,3.5-1.29l.42,.92Zm10.39-.87c-1.46,.08-4.17,.14-5.63,.06-3.7-.22-4.73-.53-4.73-3.72v-7.67h2.52v5.07c2.49-.98,5.46-2.55,7.62-4.31l2.38,1.96c-2.74,1.48-7.11,2.91-10,3.56v.98c0,1.34,.2,1.71,2.52,1.88,1.12,.08,3.7,.06,5.04-.06,1.71-.14,1.93-.78,1.9-4.28l1.01-.03c1.43,5.15,1.01,6.36-2.63,6.58Zm-10.19,2.04h12.91v12.43h-2.46v-1.9h-7.98v1.99h-2.46v-12.52Zm2.46,4.59h7.98v-3.33h-7.98v3.33Zm0,4.68h7.98v-3.42h-7.98v3.42Z"/>
      <path class="cls-1" d="M342.19,112.42v14.81h-2.35v-13.3c-.73,2.16-1.99,4.79-3.56,6.97l-.78-.62c1.37-2.66,3.14-7.11,3.89-11.65h-3.3v-1.26h3.75v-6.05h2.35v6.05h3.14v1.26h-3.14v1.93c1.32,1.46,2.77,3.3,3.61,5.1l-2.02,.98c-.45-1.4-1.06-2.94-1.6-4.23Zm1.37,13.47l-.59-.84c1.43-1.18,3.44-3.44,4.65-5.77l2.27,1.26c-1.9,2.44-4.42,4.31-6.33,5.35Zm10.28-7.03v5.43c0,3.14-2.46,4.14-6.52,1.43l.28-.95c3.39,.84,3.75,.53,3.75-.78l.03-5.12h-6.83v-1.26h16.13v1.26h-6.83Zm-3.98-14.62h-4.98v-1.26h15.71v1.26h-4.98v2.24h4.14v6.55h-13.89v-6.55h4v-2.24Zm-3.47,11.56v-1.18h12.46v1.18h-12.46Zm1.71-3.98h1.76v-4.14h-1.76v4.14Zm5.49-7.59h-1.71v2.24h1.71v-2.24Zm-1.71,7.59h1.71v-4.14h-1.71v4.14Zm9.44,12.49l-2.04,1.76c-.92-1.46-2.86-4.14-4.4-6.02l.64-.7c2.07,1.37,4.59,3.47,5.8,4.96Zm-5.71-16.63v4.14h1.85v-4.14h-1.85Z"/>
      <path class="cls-1" d="M92.26,157.08l-.98,2.74c-5.07,.45-12.71,.34-15.54-.62-2.69-.84-4.31-2.44-5.21-4.51-.56,2.69-1.51,4.73-2.83,6.24l-.87-.56c1.48-2.72,2.07-6.33,1.88-12.66l2.41,.06c0,1.93-.08,3.64-.31,5.18,.56,1.18,1.12,1.99,1.79,2.6v-9.94h-5.32v-1.23h5.15v-3.75h-4.37v-1.2h4.37v-4.54h2.46v4.54h4.28v1.2h-4.28v3.75h5.38c1.46-1.6,2.27-3.58,2.38-6.58h-3.7v-1.26h12.01c-.14,3.61-.31,5.99-.67,7.5-.48,1.96-2.58,3-6.3,.03l.39-.87c2.86,.95,3.5,.81,3.72-.34,.25-1.26,.39-2.83,.42-5.07h-3.42c-.31,4.48-2.69,7.42-6.27,9.16l-.56-.84,.67-.5h-3.89v4h4.14v1.2h-4.14v6.08c.11,.06,.22,.08,.34,.11,3.02,.87,10.53,.9,16.86,.06Zm-4.26-.78v-1.74h-5.82v2.04h-2.41v-9.6h10.64v9.3h-2.41Zm0-3v-5.04h-5.82v5.04h5.82Z"/>
      <path class="cls-1" d="M126.03,156.97l-.98,2.86c-3.53,.17-7.03,.25-10.56,.22-6.44-.06-9.24-2.3-10.39-5.71-.53,2.86-1.51,5.01-2.91,6.61l-.87-.56c1.4-2.72,2.07-6.33,1.88-12.66l2.41,.06c0,1.71-.06,3.28-.22,4.68,.45,1.04,.92,1.85,1.46,2.49v-9.6h-4.96v-1.23h4.54v-3.75h-3.86v-1.2h3.86v-4.06h2.41v4.06h4.34v1.2h-4.34v3.75h4.98v1.23h-4.56v4.09h3.98v1.2h-3.98v6.13c1.57,.64,3.56,.76,6.24,.76,4.65,0,8.76-.28,11.54-.56Zm-12.77-16.94h4.45l-.08-4.87h2.24c-.03,1.57-.03,3.22,.03,4.87h5.6v1.26h-5.57c.11,2.63,.39,5.18,.9,7.25,.81-1.68,1.48-3.56,1.99-5.52l2.21,.9c-1.12,2.91-2.16,5.21-3.36,7.08,.11,.25,.22,.48,.36,.7,1.46,2.44,2.04,1.74,1.96-2.1h.9c1.6,4.98,.06,8.37-3.25,5.26-.56-.53-1.06-1.18-1.48-1.9-1.23,1.4-2.72,2.58-4.65,3.7l-.53-.78c1.68-1.2,3.14-2.8,4.37-4.68-1.06-2.8-1.43-6.38-1.57-9.91h-2.16v9.6c.73-.36,1.48-.78,2.27-1.29l.56,.9c-2.07,2.02-4.7,3.61-6.58,4.45l-1.2-2.38c.9-.2,1.76-.42,2.6-.73v-11.82Zm8.96-.39c-.42-1.76-.7-2.77-1.2-3.98l.84-.48c.92,.95,1.76,2.21,2.44,3.5l-2.07,.95Z"/>
      <path class="cls-1" d="M156.91,155.4l1.43,1.9c-1.01,1.37-2.77,1.79-5.24,1.96-1.62,.11-4.42,.11-6.05,0-3.72-.25-4.62-.78-4.62-4.62v-8.62l-7.59,1.15-.28-1.51c2.52-.39,5.18-.78,7.87-1.2v-9.44h2.69v9.02c4.62-.7,9.3-1.43,13.64-2.16l.31,1.51c-4.42,.73-9.21,1.48-13.94,2.21v8.71c0,2.02,.28,2.44,2.18,2.58,1.57,.11,4.28,.11,5.85,0,2.46-.17,3-.36,3.75-1.48Z"/>
      <path class="cls-1" d="M172.2,153.66l2.6,1.46c-1.96,2.6-4.2,4.59-6.27,5.91l-.67-.76c1.65-1.65,3.36-4.42,4.34-6.61Zm9.6-.39h-13.66v-1.26h2.66v-11.73h-2.35v-1.26h2.35v-4h2.41v4h3.81v-4h2.41v4h2.27v1.26h-2.27v11.73h2.38v1.26Zm-4.79-12.99h-3.81v2.88h3.81v-2.88Zm0,4.09h-3.81v3.08h3.81v-3.08Zm0,4.28h-3.81v3.36h3.81v-3.36Zm3.72,8.51l-1.99,1.76c-.98-1.68-2.1-3.16-3.19-4.54l.67-.76c1.48,.81,3.33,2.24,4.51,3.53Zm10.67-20.89v21.76c0,2.52-2.27,4.12-6.97,.78l.31-.95c3.84,.9,4.2,.67,4.2-.78v-6.64h-3.95c-.36,4.23-1.51,7.81-5.15,10.61l-.7-.76c3.44-3.58,3.56-8.37,3.56-15.43v-8.6h8.71Zm-2.46,12.91v-5.35h-3.78v.59c0,1.65,0,3.25-.08,4.76h3.86Zm-3.78-11.65v5.04h3.78v-5.04h-3.78Z"/>
      <path class="cls-1" d="M211.32,147.62c0-1.46,1.18-2.63,2.66-2.63s2.63,1.18,2.63,2.63-1.18,2.63-2.63,2.63-2.66-1.18-2.66-2.63Z"/>
      <path class="cls-1" d="M243.21,152.94v7.95h-2.46v-7.2c-1.04,1.6-2.66,3.53-5.24,5.26l-.62-.78c1.99-1.68,4.26-4.98,5.26-7.59h-4.48v-1.2h5.07v-2.74h2.46v2.74h4.7v1.2h-4.7v.9c1.37,.84,3.08,1.96,4.51,3.5l-1.79,1.74c-.9-1.43-1.85-2.63-2.72-3.78Zm5.18-6.86h-13.1v-1.26h3.67c-.48-1.37-1.18-3.16-1.76-4.37l.84-.56c1.09,1.04,2.44,2.77,3.16,4.09l-1.62,.84h3.28c.53-1.57,.95-3.64,1.12-4.98l2.52,.81c-.64,1.34-1.62,3-2.55,4.17h4.45v1.26Zm-.67-6.38h-12.01v-1.23h5.85c-.98-1.06-2.02-2.07-3.11-3.02l.5-.84c1.46,.5,3.16,1.29,4.68,2.35l-1.15,1.51h5.24v1.23Zm12.29,5.68h-2.88v15.4h-2.46v-15.4h-3.19v1.12c0,7.22-1.46,11.73-4.93,14.7l-.76-.67c2.66-3.28,3.16-7.2,3.16-13.1v-10.36l2.32,.62c2.16-.62,3.89-1.48,5.71-2.8l2.41,2.04c-2.52,.9-5.12,1.51-7.92,1.76v5.43h8.54v1.26Z"/>
      <path class="cls-1" d="M293.86,156.88l-.98,2.97c-3.53,.22-6.86,.25-10.39,.14-6.19-.2-8.96-2.35-10.16-5.54-.53,2.74-1.48,4.82-2.86,6.38l-.87-.56c1.4-2.72,2.07-6.33,1.88-12.66l2.41,.06c0,1.82-.08,3.47-.25,4.96,.62,1.29,1.29,2.24,2.07,2.97v-10.05h-5.49v-1.23h5.29v-3.75h-4.62v-1.2h4.62v-4.4h2.46v4.4h4.06v1.2h-4.06v3.75h4.79v1.23h-4.59v4.09h4.09v1.2h-4.09v6.16c1.46,.48,3.19,.59,5.32,.59,4.65,.03,8.6-.31,11.37-.7Zm-11.65-5.29v-14.45h9.04v9.91h-2.35v-1.34h-4.28v5.52c0,1.6,.11,1.76,1.46,1.9,1.15,.11,1.99,.14,3.14,0,1.48-.17,1.74-.45,1.65-4.4h.92c1.71,5.57,.81,6.27-2.27,6.52-1.34,.11-2.58,.14-3.92,.03-2.72-.22-3.39-.78-3.39-3.7Zm2.41-7.11h4.28v-6.13h-4.28v6.13Z"/>
      <path class="cls-1" d="M327.21,156.07l-1.18,3.28c-2.69,.25-4.9,.34-8.32,.25-5.91-.14-8.34-2.69-9.55-5.57-1.46-3.53-1.34,1.26-2.94,6.22l-2.94-1.54c3.39-5.35,4.34-10.33,6.52-6.08,.11,.25,.25,.48,.39,.73,3.98-2.66,8.6-7,10.84-11.12h-16.3v-1.54h16.32l1.15-.76,3.08,1.76c-4.17,6.22-9.1,9.86-14.5,12.6,1.09,1.43,3.02,2.63,8.04,2.63,3.42,0,6.55-.42,9.38-.87Zm-18.2-20.75l.56-.92c1.99,.73,5.07,2.18,6.97,3.64l-2.04,2.49c-1.76-1.96-3.72-3.61-5.49-5.21Z"/>
      <path class="cls-1" d="M361.12,146.08l-1.32,2.74c-2.72-.56-7.25-2.72-10.16-6.83v5.26h-2.52v-5.26c-1.96,3.02-6.1,5.74-11.03,7.11l-.42-.9c4.37-1.71,6.86-3.78,8.79-6.47h-7.78v-1.26h10.44v-2.02c-3.16,.22-6.33,.31-8.6,.17l-.14-.98c7.48-.25,12.85-1.43,16.74-3l2.41,2.16c-1.88,.62-4.79,1.09-7.9,1.43v2.24h10.5v1.26h-9.18c3.33,2.88,6.75,3.7,10.16,4.34Zm-8.37,5.63h5.74c-.56,3.39-1.12,5.4-1.62,6.64-1.23,3.02-4,3.56-8.4-.34l.48-.9c4.26,1.71,5.01,1.48,5.74-.39,.34-.87,.62-2.1,.92-3.75h-3.28c-.2,.62-.42,1.2-.62,1.74l-2.49-.5c.64-1.6,1.2-3.33,1.6-4.93h-4.31c-.73,7.42-5.54,10.61-9.97,11.84l-.42-.9c3.98-1.76,7.22-4.68,7.76-10.95h-4.09v-1.26h13.94c-.25,1.18-.59,2.46-.98,3.7Z"/>
    </g>
  </g>
</svg>