<?xml version="1.0" encoding="UTF-8"?>
<svg id="_圖層_2" data-name="圖層 2" xmlns="http://www.w3.org/2000/svg" xmlns:xlink="http://www.w3.org/1999/xlink" viewBox="0 0 309.59 159.28">
  <defs>
    <style>
      .cls-1 {
        fill: #fff;
      }

      .cls-2 {
        filter: url(#drop-shadow-1);
      }
    </style>
    <filter id="drop-shadow-1" filterUnits="userSpaceOnUse">
      <feOffset dx="1.66" dy="1.66"/>
      <feGaussianBlur result="blur" stdDeviation="4.16"/>
      <feFlood flood-color="#040000" flood-opacity=".4"/>
      <feComposite in2="blur" operator="in"/>
      <feComposite in="SourceGraphic"/>
    </filter>
  </defs>
  <g id="_圖層_3" data-name="圖層 3">
    <g class="cls-2">
      <path class="cls-1" d="M59.79,3.72V69.55h-6.55v-3.8H6.55v4.02H0V3.72H59.79Zm-6.55,3.35H6.55V62.4H53.24V7.07ZM9.83,56.15l-2.16-6.03c7.97-1.34,17.28-4.02,23.08-6.18l.97,2.38c-5.51,3.5-14.82,7.67-21.89,9.83ZM30.6,21.59H7.97v-3.35H30.38c-.15-2.98-.22-6.11-.22-9.38h5.96c0,3.05,0,6.18,.15,9.38h7.15c-1.42-2.9-3.43-6.55-4.77-8.79l2.08-1.56c2.46,1.79,6.18,5.51,8.04,8.12l-3.2,2.23h6.33v3.35h-15.49c.37,6.03,.97,11.99,2.08,17.05,1.64-3.8,2.98-8.19,4.32-13.55l5.73,2.08c-2.38,7.6-4.84,13.48-7.97,18.24,1.19,2.76,2.61,4.91,4.39,6.11s1.94-2.75,1.94-10.28h2.68c3.57,11.62,1.71,22.04-6.33,16.83-2.68-1.71-4.84-4.32-6.55-7.67-3.87,4.1-8.64,7.22-15.12,10.2l-1.27-2.31c6.48-3.95,10.95-7.67,14.3-12.58-2.16-6.18-3.42-14.3-4.02-24.13ZM10.28,42.89V26.66H28.22v16.23H10.28Zm5.51-3.13h6.92v-9.98h-6.92v9.98Z"/>
      <path class="cls-1" d="M94.94,42.67c-.3-4.69-1.42-8.86-4.99-15.27,1.34-4.39,2.83-12.96,3.65-19.58h-5.51v62.25h-6.25V3.05l6.25,1.64h5.14l1.64-1.12,6.25,2.76c-3.13,9.31-6.18,16.83-8.64,20.63,4.99,5.73,7.67,11.24,8.27,17.42,.89,9.01-4.54,11.99-11.91,7.22l.67-2.53c5.21,1.04,5.88,.15,5.44-6.4Zm1.04,23.75l-1.64-2.08c4.69-4.02,10.5-11.17,13.63-18.09l6.4,3.43c-4.62,6.78-13.33,13.63-18.39,16.75Zm-.3-41.4c5.36-7.45,8.34-16.01,10.2-25.02l6.11,1.56c-.52,1.86-1.27,3.8-2.08,5.81h4.84l1.64-1.04,5.58,2.38c-2.23,8.79-5.51,15.71-9.98,21.3h20.78v3.28h-21.97v-1.86c-2.61,3.05-5.66,5.58-9.08,7.89l-1.49-2.16c3.05-2.76,5.66-5.81,7.82-9.01-1.64-2.23-3.95-4.91-5.81-6.92-1.49,2.01-3.13,3.87-4.84,5.44l-1.71-1.64Zm29.41,37.38c.07,8.86-8.19,10.35-17.95,2.38l1.04-2.46c9.01,2.75,10.35,2.46,10.35-1.71v-16.75h-15.94v-3.35h39.61v3.35h-17.13v18.54Zm-14.52-38.57c.6-1.12,1.12-2.31,1.64-3.5-1.86-1.79-4.1-3.65-6.11-5.14-.74,1.42-1.56,2.76-2.46,4.02,2.23,1.27,4.84,2.98,6.92,4.62Zm-2.01-13.33l-1.19,2.46c2.01,.74,4.39,1.79,6.48,2.98,.6-1.86,1.04-3.65,1.34-5.44h-6.63ZM121.08,.97l2.68-.45c1.49,7.82,4.1,13.63,7.37,18.09,2.23-3.28,3.72-6.11,4.92-9.68h-9.46l-.07-3.13h9.31l1.71-1.12,5.96,3.43c-4.32,7.07-7.15,9.83-10.65,12.58,3.72,4.47,8.19,7.52,12.73,10.05l-4.54,6.48c-9.68-6.85-16.68-16.16-19.96-36.26Zm25.02,59.87l-5.66,4.91c-2.08-3.57-7.67-11.62-12.29-17.2l1.86-1.94c6.11,4.17,12.96,10.28,16.08,14.22Z"/>
      <path class="cls-1" d="M188.77,20.33c-3.2,16.23-12.06,34.4-26.96,43.56l-1.64-2.31c12.88-11.24,18.62-26.36,20.55-38.87l-17.5,.07v-3.35l17.13-.07,1.49-1.49,6.92,2.46Zm39.39,36.56l-5.44,8.12c-8.19-5.06-19.06-18.02-24.42-41.92V61.13c0,9.9-7.3,12.06-20.33,3.2l.89-2.61c11.24,2.75,12.73,2.01,12.73-2.61V1.12h6.7V9.16c1.19,6.7,2.98,13.4,5.66,19.66,4.54-3.95,10.2-9.9,13.92-15.94l6.78,5.44c-6.03,5.66-14.07,10.42-19.51,13.25,4.92,10.5,12.29,19.58,23.01,25.32Z"/>
      <path class="cls-1" d="M243.5,18.39c4.62,2.08,10.28,5.21,14.67,8.49l-4.84,5.96c-2.68-3.65-7.52-8.86-11.17-12.36l1.34-2.08Zm2.38-17.42c3.72,1.71,9.61,5.44,13.18,8.49l-4.99,5.44c-2.76-3.87-7-9.01-9.75-11.84l1.56-2.08Zm9.38,34.62l2.53,.74c-1.42,9.16-3.65,22.64-5.88,30.31l-7.52-3.2c3.95-7.97,7.6-18.39,10.87-27.85Zm32.24-22.04v7.89h17.95v42.82c0,7.07-8.49,6.48-15.94,1.79l.74-2.46c7.67,1.71,8.64,.89,8.64-1.49V24.8h-29.19v44.98h-6.55V21.45h17.65v-7.89h-20.18v-3.35h20.18V.74h6.7V10.2h20.55v3.35h-20.55Zm9.61,36.93h-9.75v15.34h-6.4v-15.34h-9.9v-3.2h9.9v-6.55h-9.23v-3.2h5.66c-1.34-3.72-3.2-7.74-4.69-10.72l2.08-1.41c2.38,2.23,5.88,6.55,7.52,9.61l-4.77,2.53h8.27c1.27-3.65,2.23-7.89,2.9-11.84l5.88,2.23c-1.27,2.83-3.87,7-5.73,9.61h7.89v3.2h-9.38v6.55h9.75v3.2Z"/>
      <path class="cls-1" d="M79.6,131.8l-1.12-2.46c7.3-3.72,13.25-7.6,15.94-16.9h-13.55v-3.35h14.37c.37-2.23,.67-4.77,.74-7.6h-5.44c-2.08,2.83-4.32,5.36-6.33,7.07l-1.86-1.86c3.13-4.69,5.81-11.32,7-17.28l7.15,1.86c-.89,2.08-2.23,4.47-3.72,6.85h21.3v3.35h-11.24c-.15,2.76-.37,5.29-.82,7.6h13.7v3.35h-14.59c-.22,.74-.52,1.49-.74,2.23,5.44,1.71,10.8,4.1,14.45,6.48l-3.95,5.88c-2.98-2.9-7.15-6.25-11.84-9.53-3.87,7.15-10.57,11.32-19.44,14.3Zm11.69-3.57h42v30.6h-6.55v-4.77h-28.89v5.14h-6.55v-30.98Zm6.55,10.65h28.89v-7.3h-28.89v7.3Zm0,11.84h28.89v-8.49h-28.89v8.49Zm44.08-53.91v28.37h-6.4v-5.06h-11.99v5.81h-6.4v-29.11h24.8Zm-6.4,19.96v-16.61h-11.99v16.61h11.99Z"/>
      <path class="cls-1" d="M171.27,138.87l2.53,.74c-.97,6.63-3.65,13.11-7.6,17.65l-5.66-5.14c4.69-3.28,8.79-7,10.72-13.25Zm40.43-9.61h-50.26v-3.35h50.26v-3.5h-43.04v-3.05h49.44v6.55h8.41v3.35h-8.41v7h-49.89v-3.05h43.49v-3.95Zm-36.41-16.23h-12.51v-3.05h12.51v-4.17h-9.98v-3.05h9.98v-3.87h-11.62v-3.05h11.62v-5.29h6.25v5.29h9.83v3.05h-9.83v3.87h9.01v3.05h-9.01v4.17h9.83v3.05h-9.83v4.47h-6.25v-4.47Zm34.92,28.74c3.35,11.24,.52,14.37-5.66,15.12-4.39,.52-10.57,.67-15.19,.3-6.85-.52-11.24-1.19-11.24-6.7v-12.06h6.55v8.56c0,2.98,1.04,3.95,5.21,4.24,4.99,.37,9.98,.22,13.18-.22,3.65-.52,4.39-1.34,4.47-9.23h2.68Zm-21.74-1.34l.97-2.46c3.95,.82,8.71,1.94,13.78,4.91l-3.65,5.81c-3.13-2.83-7.3-5.88-11.09-8.27Zm16.6-27.4h-10.87v-3.05h10.87v-4.17h-9.38v-3.05h9.38v-3.87h-10.87v-3.05h10.87v-5.29h6.25v5.29h12.14v3.05h-12.14v3.87h11.02v3.05h-11.02v4.17h13.85v3.05h-13.85v4.47h-6.25v-4.47Zm22.12,37.83l-5.88,4.47c-2.68-5.73-5.14-9.9-8.49-15.04l1.94-1.56c3.72,2.61,8.41,6.63,12.44,12.14Z"/>
      <path class="cls-1" d="M298.97,155.78c-2.53-2.16-4.54-5.21-6.18-8.94-4.69,5.36-10.57,9.46-17.95,12.36l-1.19-2.31c7.52-3.95,12.96-9.31,17.13-15.79-2.98-10.35-3.72-23.46-3.95-34.85h-14.37v11.62h12.81c0,5.81,.37,15.94-.37,21.67-.89,7.15-6.25,7.89-13.33,2.46l.82-2.16c5.06,1.19,5.81,1.34,6.33-1.04,.22-.97,.52-7.67,.45-17.57h-6.7v3.8c0,15.64-4.99,25.99-14.07,34.25l-1.86-1.79c5.58-6.18,8.27-15.26,9.16-24.57-6.63,4.99-12.36,8.49-20.85,12.81l-2.98-7.22c2.46-.52,5.44-1.34,8.79-2.46v-21.67h-7.82v-3.35h7.82v-18.91l6.4-.07v18.91l7.52,.07v3.35l-7.52-.07v19.51c2.38-.97,4.77-2.01,7.07-3.13l1.56,2.23c.22-2.68,.37-5.36,.37-7.97v-22.04h20.77v-12.66h6.11v12.66h8.34c-1.42-2.83-3.72-6.25-6.11-9.31l1.79-2.08c3.65,2.08,7.3,4.91,10.13,7.6l-4.54,3.8h4.99v3.35h-14.52c.07,8.79,.6,18.32,2.01,26.43,2.61-6.18,4.39-13.11,5.66-20.63l6.63,1.94c-2.23,10.8-5.44,19.81-10.2,27.1,.89,2.68,2.01,4.99,3.28,6.85,3.57,5.29,5.14,2.16,5.14-7.67h2.38c4.62,14.22-.89,22.26-8.94,15.49Z"/>
    </g>
  </g>
</svg>