<?xml version="1.0" encoding="UTF-8"?>
<svg xmlns="http://www.w3.org/2000/svg" xmlns:xlink="http://www.w3.org/1999/xlink" viewBox="0 0 768 1200">
  <defs>
    <style>
      .cls-1 {
        fill: url(#linear-gradient-2);
      }

      .cls-1, .cls-2 {
        mix-blend-mode: multiply;
        opacity: .36;
      }

      .cls-3 {
        fill: url(#_未命名漸層_2);
      }

      .cls-4 {
        isolation: isolate;
      }

      .cls-2 {
        fill: url(#linear-gradient);
      }

      .cls-5 {
        clip-path: url(#clippath);
      }

      .cls-6 {
        fill: none;
      }

      .cls-7 {
        fill: url(#_未命名漸層_2-2);
      }
    </style>
    <clipPath id="clippath">
      <rect class="cls-6" y="0" width="768" height="1200"/>
    </clipPath>
    <linearGradient id="_未命名漸層_2" data-name="未命名漸層 2" x1="-814.93" y1="1625.65" x2="-322.04" y2="1625.65" gradientTransform="translate(733.77 1758.51) rotate(135)" gradientUnits="userSpaceOnUse">
      <stop offset="0" stop-color="#d75b34"/>
      <stop offset="1" stop-color="#ce1747"/>
    </linearGradient>
    <linearGradient id="_未命名漸層_2-2" data-name="未命名漸層 2" x1="-746.56" y1="333.07" x2="-99.88" y2="333.07" xlink:href="#_未命名漸層_2"/>
    <linearGradient id="linear-gradient" x1="719.9" y1="1138.06" x2="719.9" y2="802.07" gradientUnits="userSpaceOnUse">
      <stop offset="0" stop-color="#f1dbd2" stop-opacity="0"/>
      <stop offset="1" stop-color="#d9747c"/>
    </linearGradient>
    <linearGradient id="linear-gradient-2" x1="110.89" y1="236.68" x2="110.89" y2="-82.84" xlink:href="#linear-gradient"/>
  </defs>
  <g class="cls-4">
    <g id="_圖層_2" data-name="圖層 2">
      <g id="_圖層_1-2" data-name="圖層 1">
        <g class="cls-5">
          <path class="cls-3" d="M232.69,207.02c0,33.24-6.53,65.52-19.4,95.95-12.42,29.35-30.18,55.7-52.79,78.31-22.61,22.61-48.96,40.37-78.31,52.79-30.43,12.87-62.71,19.4-95.95,19.4-33.24,0-65.52-6.53-95.95-19.4-29.35-12.42-55.7-30.18-78.31-52.79-22.61-22.61-40.37-48.96-52.79-78.31-12.87-30.43-19.4-62.71-19.4-95.95,0-33.24,6.53-65.52,19.4-95.95,12.42-29.35,30.18-55.7,52.79-78.31C-165.41,10.14-139.06-7.62-109.71-20.03c30.43-12.87,62.71-19.4,95.95-19.4,33.24,0,65.52,6.53,95.95,19.4,29.36,12.42,55.7,30.18,78.31,52.79,22.61,22.61,40.37,48.96,52.79,78.31,12.87,30.43,19.4,62.71,19.4,95.95Zm-348.4,0c0,56.22,45.74,101.96,101.96,101.96,56.22,0,101.96-45.74,101.96-101.96,0-56.22-45.74-101.96-101.96-101.96-56.22,0-101.96,45.74-101.96,101.96Z"/>
          <path class="cls-7" d="M1120.86,1223.73c0,43.61-8.56,85.96-25.45,125.89-16.29,38.51-39.59,73.08-69.26,102.75-29.67,29.67-64.23,52.97-102.75,69.26-39.92,16.89-82.28,25.45-125.89,25.45-43.61,0-85.96-8.56-125.89-25.45-38.51-16.29-73.08-39.59-102.75-69.26-29.66-29.66-52.97-64.23-69.26-102.75-16.89-39.92-25.45-82.28-25.45-125.89,0-43.61,8.56-85.96,25.45-125.89,16.29-38.51,39.59-73.08,69.26-102.75,29.66-29.66,64.23-52.97,102.75-69.26,39.92-16.89,82.28-25.45,125.89-25.45s85.96,8.56,125.89,25.45c38.52,16.29,73.08,39.59,102.75,69.26,29.66,29.66,52.97,64.23,69.26,102.75,16.89,39.92,25.45,82.28,25.45,125.89Zm-457.11,0c0,73.76,60.01,133.77,133.77,133.77,73.76,0,133.77-60.01,133.77-133.77,0-73.76-60.01-133.77-133.77-133.77-73.76,0-133.77,60.01-133.77,133.77Z"/>
          <circle class="cls-2" cx="719.9" cy="1001.62" r="157.01"/>
          <circle class="cls-1" cx="110.89" cy="106.93" r="149.31"/>
        </g>
      </g>
    </g>
  </g>
</svg>