<?xml version="1.0" encoding="UTF-8"?>
<svg id="_圖層_2" data-name="圖層 2" xmlns="http://www.w3.org/2000/svg" viewBox="0 0 451.88 151.51">
  <defs>
    <style>
      .cls-1 {
        fill: #474647;
      }
    </style>
  </defs>
  <g id="_圖層_1-2" data-name="圖層 1">
    <g>
      <path class="cls-1" d="M52.97,102.29v2.72H0v-2.72H26.39c-2.84-1.93-6.76-4.35-9.78-6.04l.72-2.05c3.93,.66,10.39,2.35,13.59,3.93l-2.42,4.17h24.46ZM3.14,123.06H49.76v21.5c0,7.43-6.28,8.4-16.06,2.9l.6-2.11c8.58,1.69,9.91,1.27,9.91-2.6v-16.97H8.58v25.12H3.14v-27.84Zm37.87-14.68v11.11H11.29v-11.11h29.71Zm-8.52,35.51v-3.14h-12.08v4.05h-5.07v-15.28h22.23v14.37h-5.07Zm3.44-32.79H16.31v5.68h19.63v-5.68Zm-3.44,27.06v-6.04h-12.08v6.04h12.08Z"/>
      <path class="cls-1" d="M70.77,132.79l2.11,.24c0,7.13-.72,13.23-1.87,17.15l-5.56-2.29c2.24-3.62,4.11-8.64,5.32-15.1Zm.42-8.03c2.78-3.08,5.5-6.88,7.91-11.23-3.56,1.03-7.61,1.87-10.57,2.29l-1.09-5.25c1.27,.12,2.48,.18,3.62,.24,2.17-4.47,4.05-9.97,5.5-16.61l5.62,2.11c-2.23,5.38-5.68,10.87-8.52,14.55,2.29,.06,4.53-.06,6.95-.18,1.15-2.42,2.29-5.01,3.26-7.79l5.19,2.29c-2.96,6.28-9.12,14.62-14.8,19.45,3.02-.18,6.04-.48,9.06-.97-.54-1.51-1.15-3.02-1.75-4.29l1.75-1.27c2.6,2.72,5.38,7.01,6.88,10.33l-4.59,2.29c-.42-1.51-.97-3.32-1.57-5.13-5.68,2.17-12.14,4.17-15.7,4.71l-1.39-5.56c1.39,.06,2.84,.06,4.23,0Zm6.34,7.85c1.69,4.65,2.78,10.39,3.32,14.01l-5.38,.91c.24-3.81,.36-9.66-.06-14.56l2.11-.36Zm4.29-1.81c2.48,3.62,4.77,8.33,6.22,11.84l-5.07,1.99c-.66-3.99-1.81-8.94-3.02-12.8l1.87-1.03Zm38.59,7.43l-3.93,4.95c-3.2-3.62-7.67-7.79-11.84-11.23v12.62c0,6.76-6.28,7.97-13.89,1.99l.6-1.93c7.13,1.93,8.09,1.39,8.09-1.45v-10.09c-2.84,2.66-6.4,5.25-10.33,7.73l-2.66-5.13c4.47-1.51,8.46-3.2,12.98-5.86v-11.35h-13.59v-2.72h18.18c.36-1.39,.79-2.96,1.15-4.53h-10.09l-1.21,3.2-4.41-1.03c2.17-5.98,3.8-12.26,5.31-18.72l4.89,1.03c-.3,1.27-.66,2.48-.97,3.68h8.15l1.09-.79,4.89,1.75c-1.21,4.83-2.36,10.21-3.87,15.4h9.6v2.72h-13.95v10.81l1.33,.54c2.9-2.9,5.31-6.58,7.13-9.9l4.47,3.38c-2.42,2.72-6.16,5.56-9.48,7.55,4.53,2.17,9.24,4.89,12.32,7.37Zm-27.06-7.13c-1.63-3.81-3.44-7.37-5.01-9.6l1.57-1.45c2.29,1.69,5.86,5.25,7.79,8.03l-4.35,3.02Zm12.44-22.53c.54-2.48,1.03-4.89,1.33-6.58h-9.12c-.66,2.17-1.27,4.35-1.99,6.52l9.78,.06Z"/>
      <path class="cls-1" d="M144.81,130.01v21.08h-4.95v-16.43c-2.17,1.81-4.41,3.26-6.34,4.17l-.97-1.63c5.92-4.65,9.96-10.03,12.86-15.52l4.23,2.11c-1.27,2.05-2.96,4.17-4.83,6.22Zm39.86,20.96c-4.71-.42-10.51-1.45-16.43-4.35-5.86,2.6-12.86,3.93-20.84,4.59l-.48-1.99c6.95-.79,12.92-2.29,17.76-4.59-2.17-1.33-4.29-3.02-6.34-5.01-2.96,2.17-6.28,3.87-9.84,5.07l-.91-1.75c5.92-2.84,9.48-6.28,12.14-9.9h-5.31v-8.82c-.97,.97-2.05,1.99-3.26,3.14l-1.39-1.39c3.08-3.99,5.13-7.55,6.64-12.98h-19.21v-9.72h12.74v-3.32h-17.09v-2.72h52.66v2.72h-17.45v3.32h13.59v9.72h-22.59l2.42,.79c-.36,.85-.79,1.69-1.15,2.42h24.82v2.72h-26.39c-.6,.91-1.21,1.75-1.87,2.54h23.07v11.6h-14.8c-.72,.91-1.45,1.75-2.23,2.6h11.29l1.33-.85,4.41,2.54c-1.99,2.84-4.41,5.07-7.31,6.95,4.95,1.21,9.78,1.45,14.37,1.57l-2.36,5.13Zm-50.25-23.86l-.91-1.63c4.89-3.32,9.78-8.03,12.38-12.38l4.17,2.36c-3.5,4.65-10.81,9.66-15.64,11.66Zm15.52-21.32h-7.79v4.65h7.79v-4.65Zm4.71-2.54h8.58v-3.32h-8.58v3.32Zm0,7.19h8.58v-4.65h-8.58v4.65Zm4.23,15.7h16.49v-2.29h-16.49v2.29Zm0,4.47h16.49v-2.29h-16.49v2.29Zm9.12,12.2c2.36-1.45,4.29-3.14,5.8-5.07h-13.11l-.84,.72c2.72,1.93,5.44,3.32,8.15,4.35Zm.06-32.37h8.52v-4.65h-8.52v4.65Z"/>
      <path class="cls-1" d="M250.79,119.62l-5.5,3.74c-1.21-2.42-2.66-5.07-4.35-7.85-9.78,2.05-25.06,4.29-37.93,5.44l-1.75-6.64c2.78,.12,5.56,.18,8.4,.18,4.65-5.8,8.76-13.95,11.35-20.23l6.28,3.02c-3.8,5.56-8.82,12.32-14.07,17.21,9.66-.06,19.21-.66,26.33-1.27-1.93-2.96-4.05-6.1-6.46-9.3l1.75-1.51c5.86,4.77,13.23,12.92,15.94,17.21Zm-43,6.22h35.81v24.94h-5.68v-4.47h-24.46v4.41h-5.68v-24.88Zm5.68,17.7h24.46v-14.98h-24.46v14.98Z"/>
      <path class="cls-1" d="M274.7,128.2v4.47h-5.56v-26.57h19.93v-11.48h5.8v11.48h20.11v26.21h-5.56v-4.11h-14.55v22.89h-5.8v-22.89h-14.37Zm14.37-19.08h-14.37v16.19h14.37v-16.19Zm20.35,0h-14.55v16.19h14.55v-16.19Z"/>
      <path class="cls-1" d="M385.34,140.39l-2.54,7.07c-5.8,.54-10.57,.72-17.94,.54-12.74-.3-18-5.8-20.59-12.02-3.14-7.61-2.9,2.72-6.34,13.41l-6.34-3.32c7.31-11.54,9.36-22.29,14.07-13.11,.24,.54,.54,1.03,.85,1.57,8.58-5.74,18.54-15.1,23.37-23.98h-35.15v-3.32h35.21l2.48-1.63,6.64,3.81c-9,13.41-19.63,21.26-31.29,27.18,2.36,3.08,6.52,5.68,17.33,5.68,7.37,0,14.13-.91,20.23-1.87Zm-39.26-44.75l1.21-1.99c4.29,1.57,10.93,4.71,15.04,7.85l-4.41,5.38c-3.8-4.23-8.03-7.79-11.84-11.23Z"/>
      <path class="cls-1" d="M401.7,97.27h15.94v47.53c0,5.31-6.04,7.37-13.41,1.15l.72-1.93c5.19,1.69,7.49,1.63,7.49-1.03v-15.22h-5.8c-.85,10.45-3.38,19.21-6.82,23.73l-1.81-1.15c3.26-8.46,3.68-16.37,3.68-31.59v-21.5Zm5.19,23.43c0,1.45-.06,2.9-.12,4.35h5.68v-11.29h-5.56v6.95Zm0-9.6h5.56v-11.11h-5.56v11.11Zm30.68-3.87v7.85h11.41v22.65c0,4.53-4.11,7.49-10.99,1.57l.72-1.93c4.83,1.51,5.07,.97,5.07-1.87v-17.7h-6.22v32.73h-5.31v-32.73h-5.86v26.03h-5.19v-28.75h11.05v-7.85h-13.35v-2.72h16.43c-2.9-2.84-6.28-5.74-8.7-7.49l.97-1.99c4.05,1.27,8.27,3.08,12.08,5.5l-2.96,3.99h15.16v2.72h-14.31Z"/>
    </g>
    <g>
      <path class="cls-1" d="M105.63,24.36c-4.93,0-6.86-4.06-6.86-9.04,0-7,4.17-10.86,11.59-11.56l.2,1.32c-5.8,.73-9.24,4.06-9.21,9.1l.14,.03c.67-1.51,2.32-3.22,4.87-3.19,3.72,.03,5.94,3.05,5.94,6.38,0,3.64-1.82,6.97-6.66,6.97Zm.11-11.62c-2.07,0-3.95,1.93-3.95,4.82,0,3.28,1.6,5.21,3.95,5.21,2.16,0,3.64-1.79,3.64-5.12,0-3.5-1.57-4.9-3.64-4.9Z"/>
      <path class="cls-1" d="M144.02,6.05h-9.91v-1.85h12.66v1.76l-8.68,17.92h-2.94l8.88-17.67v-.17Z"/>
      <path class="cls-1" d="M160.74,16.18l-.59-.84c3.58-3.39,6.02-7.5,7.42-13.47l2.97,1.18c-1.85,5.12-5.32,10.19-9.8,13.13Zm22.9,8.04l-3,1.62c-.48-1.29-1.12-2.69-1.82-4.14-4.59,1.54-10.84,2.69-15.32,3.14l-.95-3.28c1.06,.03,2.24,.03,3.47,0,1.99-3.14,3.78-7.73,4.82-11.68l3.19,1.23c-1.62,3.78-4.17,7.73-6.44,10.42,3.72-.14,7.7-.45,10.7-.9-.76-1.48-1.62-2.94-2.52-4.37l.84-.7c2.97,2.8,5.46,5.91,7.03,8.65Zm-7.2-21.08h-4.51V1.88h5.54c.92,5.63,4.2,8.9,8.2,10.95l-2.3,3.16c-3.53-2.66-5.99-6.61-6.94-12.85Z"/>
      <path class="cls-1" d="M204.47,17.42c-2.6,2.02-7.87,4.54-9.49,5.1l-1.06-2.8c.64-.11,1.43-.31,2.32-.53V1.26h2.58v7.81h5.07v1.26h-5.07v8.09c2.04-.67,4.09-1.4,5.24-1.88l.42,.87Zm3.95,3.14l2.3,1.71c-2.6,1.96-6.66,3.58-9.55,4.31l-.39-.95c2.69-1.2,5.57-3,7.64-5.07Zm1.29-17.42h-6.52V1.88h15.46v1.26h-6.13c-.64,1.23-1.46,2.55-2.02,3.36h6.72v13.69h-12.29V6.5h4.31c.2-1.04,.39-2.41,.48-3.36Zm4.98,4.62h-7.31v2.8h7.31v-2.8Zm0,4.06h-7.31v3h7.31v-3Zm0,4.26h-7.31v2.86h7.31v-2.86Zm4.82,7.92l-1.62,2.44c-1.6-1.37-4.23-3.42-6.33-4.79l.42-.92c2.58,.78,5.24,1.88,7.53,3.28Z"/>
      <path class="cls-1" d="M238.83,8.71h-7.34V26.15h-2.41V1.43h9.74v7.28Zm-2.35-6.02h-4.98v1.71h4.98v-1.71Zm0,2.97h-4.98v1.82h4.98v-1.82Zm-1.82,11.65c-.92-1.06-1.79-2.07-2.66-2.91l.5-.81c1.2,.5,2.63,1.43,3.5,2.13l-1.34,1.6Zm1.04,.03l.92,.34c-.56,2.66-1.18,5.35-1.88,7.34l-2.07-1.04c.92-1.71,1.96-4.09,3.02-6.64Zm-2.66-7.03l.5-.78c1.04,.39,2.55,1.26,3.53,2.1l-1.37,1.6c-.81-1.06-1.82-2.07-2.66-2.91ZM251.23,1.43V23.88c0,2.3-2.02,2.88-5.43,1.18l.14-.59-1.15-.03v-1.12h-4.73v1.6h-2.13v-6.75h3.3v-2.21h-4.42v-1.26h4.42v-2.07c-1.32,.17-2.58,.25-3.58,.31l-.17-.92c2.88-.42,6.08-1.37,8.01-2.49l1.74,1.79c-1.15,.39-2.46,.73-3.81,.95v2.44h4.79v1.26h-4.79v2.21h3.5v6.13c1.76,.22,1.9-.08,1.9-1.37V8.74h-7.48V1.43h9.88Zm-6.44,18h-4.73v2.66h4.73v-2.66Zm4.03-16.74h-5.12v1.71h5.12v-1.71Zm0,2.97h-5.12v1.85h5.12v-1.85Z"/>
      <path class="cls-1" d="M271.08,20.44c-1.88,1.68-6.58,4.12-9.38,4.82l-.39-.95c2.66-1.26,5.77-3.53,7.22-5.38l2.55,1.51Zm14.95-9.55v1.26h-24.5v-1.26h12.68c-1.26-.62-2.88-1.34-3.98-1.85l.2-.73h-4.93V1.43h16.88v6.89h-10.47c1.46,.2,3.19,.53,4.54,1.04l-.73,1.54h10.3Zm-10.64,7.59v5.1c0,2.63-1.99,3.67-6.97,1.12l.28-.95c3.81,.64,4.23,.42,4.23-.92v-4.34h-6.66v-5.04h15.34v5.04h-6.22Zm-7.48-14.22h12.07v-1.65h-12.07v1.65Zm0,2.86h12.07v-1.74h-12.07v1.74Zm.76,10.11h10.53v-2.52h-10.53v2.52Zm8.23,2.02c2.63,.64,6.61,2.13,8.88,3.53l-1.48,2.44c-1.88-1.54-5.29-3.67-7.73-5.01l.34-.95Z"/>
      <path class="cls-1" d="M297.12,17.89l.98,.11c0,3.3-.34,6.13-.87,7.95l-2.58-1.06c1.04-1.68,1.9-4,2.46-7Zm.2-3.72c1.29-1.43,2.55-3.19,3.67-5.21-1.65,.48-3.53,.87-4.9,1.06l-.5-2.44c.59,.06,1.15,.08,1.68,.11,1.01-2.07,1.88-4.62,2.55-7.7l2.6,.98c-1.04,2.49-2.63,5.04-3.95,6.75,1.06,.03,2.1-.03,3.22-.08,.53-1.12,1.06-2.32,1.51-3.61l2.41,1.06c-1.37,2.91-4.23,6.78-6.86,9.02,1.4-.08,2.8-.22,4.2-.45-.25-.7-.53-1.4-.81-1.99l.81-.59c1.2,1.26,2.49,3.25,3.19,4.79l-2.13,1.06c-.2-.7-.45-1.54-.73-2.38-2.63,1.01-5.63,1.93-7.28,2.18l-.64-2.58c.64,.03,1.32,.03,1.96,0Zm2.94,3.64c.78,2.16,1.29,4.82,1.54,6.5l-2.49,.42c.11-1.76,.17-4.48-.03-6.75l.98-.17Zm1.99-.84c1.15,1.68,2.21,3.86,2.88,5.49l-2.35,.92c-.31-1.85-.84-4.14-1.4-5.94l.87-.48Zm17.89,3.44l-1.82,2.3c-1.48-1.68-3.56-3.61-5.49-5.21v5.85c0,3.14-2.91,3.7-6.44,.92l.28-.9c3.3,.9,3.75,.64,3.75-.67v-4.68c-1.32,1.23-2.97,2.44-4.79,3.58l-1.23-2.38c2.07-.7,3.92-1.48,6.02-2.72v-5.26h-6.3v-1.26h8.43c.17-.64,.36-1.37,.53-2.1h-4.68l-.56,1.48-2.04-.48c1.01-2.77,1.76-5.68,2.46-8.68l2.27,.48c-.14,.59-.31,1.15-.45,1.71h3.78l.5-.36,2.27,.81c-.56,2.24-1.09,4.73-1.79,7.14h4.45v1.26h-6.47v5.01l.62,.25c1.34-1.34,2.46-3.05,3.3-4.59l2.07,1.57c-1.12,1.26-2.86,2.58-4.4,3.5,2.1,1.01,4.28,2.27,5.71,3.42Zm-12.54-3.3c-.76-1.76-1.6-3.42-2.32-4.45l.73-.67c1.06,.78,2.72,2.44,3.61,3.72l-2.02,1.4Zm5.77-10.44c.25-1.15,.48-2.27,.62-3.05h-4.23c-.31,1.01-.59,2.02-.92,3.02l4.54,.03Z"/>
      <path class="cls-1" d="M334.76,11.65v14.59h-2.41V13.36c-.76,2.16-2.1,4.7-3.47,6.41l-.78-.64c1.43-2.24,3.11-6.92,3.75-11.48h-3.19v-1.26h3.7V.31h2.41V6.38h3.02v1.26h-3.02v2.02c1.2,1.06,2.38,2.32,3.44,4.03l-2.04,1.43c-.42-1.12-.9-2.35-1.4-3.47Zm18.51,12.29v1.26h-17.33v-1.26h2.97V7.67h3.84c.2-.92,.34-1.88,.5-2.83h-6.22v-1.26h6.38c.17-1.2,.31-2.38,.42-3.53l2.41,.25c-.11,1.09-.22,2.18-.39,3.28h6.72v1.26h-6.92c-.14,.95-.31,1.88-.48,2.83h5.4V23.94h2.69Zm-5.1-15.01h-6.86v2.72h6.86v-2.72Zm0,3.92h-6.86v2.72h6.86v-2.72Zm0,3.92h-6.86v2.94h6.86v-2.94Zm0,4.14h-6.86v3.02h6.86v-3.02Z"/>
      <path class="cls-1" d="M53.82,45.55c0,3.67-2.63,6.33-7.22,10.56l-1.85,1.71v.17h9.52v1.85h-13.08v-1.48l2.21-1.93c4.7-4.12,7.5-7.59,7.5-10.56,0-1.88-1.09-4.4-4.09-4.4-1.99,0-3.75,1.01-4.98,2.07v-2.3c1.26-.62,3.28-1.4,5.46-1.4,4.31,0,6.52,3.02,6.52,5.71Z"/>
      <path class="cls-1" d="M72.16,60.05c-1.15-.03-2.07-.92-2.07-2.02,0-1.15,.92-1.99,2.07-2.02,1.12-.03,2.02,.87,2.04,2.02,.03,1.09-.92,2.04-2.04,2.02Z"/>
      <path class="cls-1" d="M96.38,60.36c-4.93,0-6.86-4.06-6.86-9.04,0-7,4.17-10.86,11.59-11.56l.2,1.32c-5.8,.73-9.24,4.06-9.21,9.1l.14,.03c.67-1.51,2.32-3.22,4.87-3.19,3.72,.03,5.94,3.05,5.94,6.38,0,3.64-1.82,6.97-6.66,6.97Zm.11-11.62c-2.07,0-3.95,1.93-3.95,4.82,0,3.28,1.6,5.21,3.95,5.21,2.16,0,3.64-1.79,3.64-5.12,0-3.5-1.57-4.9-3.64-4.9Z"/>
      <path class="cls-1" d="M123.37,42.94v19.18h-2.41v-14.53c-.84,1.23-1.79,2.44-3,3.67l-.73-.67c2.55-3.5,4.26-8.48,5.21-14.31l2.77,.64c-.59,2.3-1.15,4.26-1.85,6.02Zm19.04,5.43v1.26h-18.26v-1.26h5.49c-.67-1.9-1.34-3.56-2.21-5.4l.81-.56c1.46,1.46,3,3.64,3.81,4.96l-1.82,1.01h4.31c.78-1.65,1.65-4.28,2.04-6.22l2.69,1.06c-.78,1.6-2.16,3.72-3.3,5.15h6.44Zm-1.15-6.5h-15.76v-1.26h7.73c-1.01-1.12-2.69-2.66-3.86-3.7l.5-.87c1.54,.62,3.72,1.6,5.54,2.97l-1.4,1.6h7.25v1.26Zm-14.76,10.19h13.61v10h-2.46v-1.85h-8.68v1.9h-2.46v-10.05Zm2.46,6.89h8.68v-5.63h-8.68v5.63Z"/>
      <path class="cls-1" d="M176.68,58.99l-2.04,3.19c-2.69-1.23-8.62-6.55-10.08-16.35-1.46,8.51-6.83,14.22-12.88,16.55l-.5-.95c4.87-2.77,9.24-7.36,10.56-16.13h-9.63v-1.54h9.83c.06-.64,.11-1.32,.14-1.99,.08-1.71,.11-3.72,.14-5.57l2.86,.08c0,2.21-.06,4.23-.17,6.38l-.08,1.09h10.56v1.54h-9.86c2.07,8.04,7.36,12.01,11.17,13.69Z"/>
      <path class="cls-1" d="M203.67,49.05c-.64,2.49-1.65,4.76-3.16,6.69,2.66,1.04,5.01,2.24,7.62,3.86l-1.9,2.58c-2.46-1.93-4.76-3.47-7.2-4.79-2.83,2.72-7,4.51-12.96,5.01l-.22-.98c4.68-.67,8.34-2.24,11.03-5.12-1.37-.67-2.8-1.26-4.37-1.85-.42,.73-.84,1.4-1.23,2.02l-2.27-1.29c1.06-1.65,2.32-3.78,3.5-6.13h-6.89v-1.26h7.53c.84-1.71,1.62-3.5,2.3-5.32l2.6,.9c-.5,1.29-1.18,2.83-1.96,4.42h13.08v1.26h-5.49Zm-15.32-2.8h-2.58v-5.71h11.98c-1.23-1.32-2.88-2.86-4.14-3.86l.48-.9c1.76,.53,4.59,1.85,6.02,2.94l-1.48,1.82h10.14v5.71h-2.58v-4.45h-17.84v4.45Zm12.49,2.8h-5.38c-.76,1.51-1.6,3.02-2.38,4.42,1.82,.45,3.44,.9,4.96,1.4,1.15-1.6,2.07-3.53,2.8-5.82Z"/>
      <path class="cls-1" d="M228.68,57.92c-.84-1.43-1.6-2.55-2.3-3.53v7.45h-2.41v-6.24c-1.6,2.49-3.86,4.28-5.12,5.01l-.59-.81c1.88-1.71,4-4.4,5.24-7.62h-4v-1.26h4.48v-3.44h2.41v3.44h4.03v1.26h-4.03v.81c1.54,.95,2.8,1.99,4.09,3.36l-1.79,1.57Zm-1.18-17.08h-7.36v-1.26h9.58v-3.3h2.46v3.3h9.52v1.26h-8.82c3.95,3.53,7.31,3.86,9.77,4.51l-1.6,2.63c-2.35-.59-6.02-2.24-8.88-6.24v6.75h-2.46v-6.8c-2.52,3.53-7.08,5.4-10.56,6.66l-.39-.9c3.42-1.6,6.66-3.72,8.74-6.61Zm16.38,17.25l-1.9,2.32c-1.57-1.2-3.16-3.14-4.37-5.68v7.36h-2.41v-7.78c-1.06,2.27-3.58,4.9-5.74,6.19l-.62-.81c2.3-2.21,3.61-3.89,5.21-7.5h-3.02v-1.26h4.17v-3.42h2.41v3.42h4.65v1.26h-4.59c1.85,3.11,4.09,4.62,6.22,5.91Z"/>
      <path class="cls-1" d="M259.87,47.48v14.76h-2.46v-13.16c-1.06,2.46-3.16,5.63-4.87,7.22l-.73-.73c1.79-2.52,4.09-6.44,5.21-11.79h-4v-1.26h4.4v-6.19h2.46v6.19h3.7v1.29h-3.7v2.04c1.4,1.12,3.22,2.83,4.34,4.54l-1.99,1.48c-.64-1.4-1.54-3.05-2.35-4.4Zm15.23,8.96c-.67-.73-2.88-3.84-4.37-9.35v15.29h-2.46v-14.7c-1.04,2.86-3.5,6.97-6.22,9.27l-.7-.73c2.24-2.66,4.73-6.8,6.08-12.46h-3.22v-1.26h4.06v-6.16h2.46v6.16h4.87v1.29h-4.73c1.32,4.76,4.03,8.51,6.38,10.47l-2.16,2.18Z"/>
      <path class="cls-1" d="M285.88,52.18l-.59-.84c3.58-3.39,6.02-7.5,7.42-13.47l2.97,1.18c-1.85,5.12-5.32,10.19-9.8,13.13Zm22.9,8.04l-3,1.62c-.48-1.29-1.12-2.69-1.82-4.14-4.59,1.54-10.84,2.69-15.32,3.14l-.95-3.28c1.06,.03,2.24,.03,3.47,0,1.99-3.14,3.78-7.73,4.82-11.68l3.19,1.23c-1.62,3.78-4.17,7.73-6.44,10.42,3.72-.14,7.7-.45,10.7-.9-.76-1.48-1.62-2.94-2.52-4.37l.84-.7c2.97,2.8,5.46,5.91,7.03,8.65Zm-7.2-21.08h-4.51v-1.26h5.54c.92,5.63,4.2,8.9,8.2,10.95l-2.3,3.16c-3.53-2.66-5.99-6.61-6.94-12.85Z"/>
      <path class="cls-1" d="M342.72,37.43v24.72h-2.46v-1.65h-17.19v1.71h-2.46v-24.78h22.12Zm-2.46,1.26h-17.19v20.55h17.19v-20.55Zm-16.21,16.46l-.34-.95c1.9-.76,3.89-1.74,5.4-3.02h-3.22v-4.56h11.48v4.56h-5.26c-.59,.53-1.23,1.01-1.9,1.4v2.86c1.12-.31,2.16-.62,2.94-.87l.39,.92c-2.27,1.29-6.1,2.66-8.09,3.19l-.78-1.99c.92-.14,2.07-.39,3.25-.67v-2.21c-1.48,.64-2.86,1.06-3.86,1.34Zm15.32-9.74h-15.48v-1.26h6.55v-1.62h-5.4v-1.26h5.4v-1.85h2.41v1.85h5.43v1.26h-5.43v1.62h6.52v1.26Zm-11.12,4.54h6.78v-2.1h-6.78v2.1Zm11.4,2.32c-.9,.81-2.1,1.51-3.14,2.07,1.18,.67,2.3,1.43,3.25,2.18l-1.65,1.96c-1.88-1.88-3.81-3.67-6.33-5.46l.48-.87c1.04,.45,2.16,.98,3.25,1.6,.87-.87,1.76-1.93,2.35-2.83l1.79,1.34Z"/>
      <path class="cls-1" d="M376.88,62.4c-1.99-.45-4.51-1.18-6.8-2.94-2.66,1.71-5.8,2.58-9.21,3.19l-.25-.95c3.14-.7,5.94-1.85,8.15-3.44-.92-.95-1.76-2.13-2.49-3.58-1.06,1.18-2.32,2.13-3.7,2.94l-.59-.78c2.16-1.79,3.61-3.44,4.87-6.94h-2.88v-6.66c-.56,.64-1.18,1.2-1.79,1.71l-.45-.42v14.81c0,2.46-2.8,3.42-6.22,.53l.34-.9c2.41,.78,3.47,.76,3.47-.48v-7h-2.58c-.39,4.84-1.57,8.9-3.16,11l-.84-.53c1.51-3.92,1.71-7.59,1.71-14.64v-9.97h7.28v6.64c1.79-2.49,2.72-4.79,3.5-7.95l2.63,.81c-.31,.78-.67,1.57-1.09,2.35h10.44v1.26h-11.17c-.42,.67-.9,1.32-1.37,1.93h10.95v7.5h-6.3c-.31,.76-.64,1.46-1.04,2.1l4.48-.03,.64-.5,2.44,1.34c-1.06,2.24-2.41,3.95-3.95,5.29,1.96,.87,4.2,1.34,6.36,1.6l-1.37,2.72Zm-17.56-17.58h-2.46v3.39c0,.67-.03,1.34-.06,2.02h2.52v-5.4Zm0-6.22h-2.46v4.98h2.46v-4.98Zm7,6.83h6.94v-1.79h-6.94v1.79Zm0,3.19h6.94v-2.02h-6.94v2.02Zm3.81,8.51c1.2-1.15,2.13-2.46,2.72-3.95l-5.35,.03c-.17,.22-.34,.45-.5,.64,.78,1.37,1.88,2.44,3.14,3.28Z"/>
      <path class="cls-1" d="M395.67,52.35l.45,.92c-2.49,1.88-5.52,3.72-8.74,5.29l-1.12-2.72c.87-.2,2.24-.62,3.78-1.18v-9.44h-3.39v-1.26h3.39v-6.86h2.46v6.86h3.42v1.26h-3.42v8.48c1.06-.42,2.16-.9,3.16-1.37Zm12.46,8.71c-2.44,.17-4.65,.17-7.06,0-3.11-.22-4.34-1.06-4.34-3.95v-9.38c-.81,.28-1.6,.59-2.38,.87l-.42-1.18c.92-.34,1.85-.67,2.8-1.04v-7.7h2.41v6.78l2.83-1.09v-8.04h2.3v7.11c1.04-.42,2.04-.81,3.05-1.23l.42-.67,2.72,.7c-.42,2.83-1.9,8.96-2.97,11.23l-.98-.25c.48-2.35,.98-8.18,.98-9.72-1.06,.45-2.13,.87-3.22,1.32v10.89h-2.3v-10l-2.83,1.09v10.05c0,1.43,.9,1.76,2.13,1.88,2.35,.22,4.4,.14,6.72,0,1.48-.08,1.68-.84,1.6-5.21l.98-.06c1.85,6.13,1.12,7.34-2.44,7.59Z"/>
    </g>
  </g>
</svg>