<?xml version="1.0" encoding="UTF-8"?>
<svg id="_圖層_2" data-name="圖層 2" xmlns="http://www.w3.org/2000/svg" viewBox="0 0 450.62 151.8">
  <defs>
    <style>
      .cls-1 {
        fill: #474647;
      }
    </style>
  </defs>
  <g id="_圖層_1-2" data-name="圖層 1">
    <g>
      <path class="cls-1" d="M38.11,135.37v-4.41h-9.72v5.44h-5.44v-22.83H13.47v29.35H52.54v2.9H13.47v5.19l-5.68,.06v-37.5H0v-3.02H7.79v-12.08h5.68v12.08h9.48v-15.16h5.44v15.16h9.72v-14.8h5.44v14.8h9.96v3.02h-9.96v21.8h-5.44Zm0-7.13v-14.68h-9.72v14.68h9.72Z"/>
      <path class="cls-1" d="M117.94,135.92c-4.23-1.21-9.42-3.38-13.89-7.31v22.77h-5.56v-23.86h4.35c-2.17-2.11-4.17-4.71-5.68-7.79h-6.52c-1.39,2.9-3.62,5.5-6.46,7.79h3.93c0,13.53-4.53,21.5-19.81,24.22l-.66-2.11c11.35-3.2,14.55-9.42,14.8-20.72-4.35,3.08-9.84,5.44-15.82,6.95l-.84-2.05c9.66-3.26,15.64-8.27,18.72-14.07h-10.81v-21.74h39.14v21.74h-13.11c6.28,7.55,14.25,8.94,21.2,9.96l-2.96,6.22Zm-38.83-28.69h11.35v-6.52h-11.35v6.52Zm0,9.78h11.35v-7.07h-11.35v7.07Zm16.79-9.78h11.47v-6.52h-11.47v6.52Zm0,9.78h11.47v-7.07h-11.47v7.07Z"/>
      <path class="cls-1" d="M140.04,133.38c.3,7.13-.97,13.35-2.29,17.27l-5.62-2.36c2.42-3.62,4.83-8.7,5.8-15.16l2.11,.24Zm-2.42-7.43c3.14-3.68,5.44-7.43,7.67-11.96-3.38,1.15-7.13,2.23-10.57,2.78l-1.27-5.01h3.74c2.36-4.71,4.65-10.99,6.1-17.27l5.62,1.87c-2.42,5.62-5.68,10.75-9.24,15.34,2.42-.12,4.83-.24,6.95-.48,.97-2.05,1.87-4.29,2.9-6.7l4.95,2.48c-5.07,9.12-8.94,14.13-14.13,18.78,3.32-.24,6.4-.66,9.48-1.21-.48-1.51-.97-2.96-1.51-4.47l1.75-.91c2.48,3.08,4.29,5.92,5.92,10.03l-4.47,1.87c-.36-1.63-.72-3.08-1.15-4.47-5.07,2.17-10.15,3.74-16.12,4.89l-1.45-5.44c1.69,0,3.26-.06,4.83-.12Zm7.01,6.34c1.57,4.17,3.02,8.76,3.8,13.35l-5.31,.79c.12-5.07-.06-9.3-.48-13.77l1.99-.36Zm42.88,12.92l-4.17,6.16c-3.75-1.93-8.21-4.89-12.08-9.6-4.59,4.35-10.27,7.37-17.45,9.78l-.91-1.93c6.89-3.2,11.96-6.95,15.76-11.54-3.08-4.95-5.5-11.35-6.28-19.87h-.06c-1.09,13.29-4.05,24.28-11.96,30.86l-1.57-1.45c1.75-1.93,3.14-4.23,4.23-6.76l-2.29,1.09c-.97-4.11-1.87-7.31-3.2-10.81l1.81-.85c1.81,2.29,3.56,4.77,4.95,7.31,2.96-9.18,3.26-21.5,3.26-36.42h-5.31v-2.72h26.09c-1.09,6.04-1.93,11.23-3.32,17.03h2.54l1.15-1.15,5.38,2.23c-2.29,9.06-5.25,15.82-9.18,21.02,3.62,3.26,7.85,5.5,12.62,7.61Zm-24.64-44.03c0,4.95-.12,9.72-.36,14.31h7.31c1.21-5.8,1.99-10.57,2.48-14.31h-9.42Zm8.7,32.92c2.78-4.59,4.65-9.78,5.98-15.88h-13.11c1.63,6.95,4.05,12.02,7.13,15.88Z"/>
      <path class="cls-1" d="M253.39,143.1l-2.05,6.4c-10.69,.72-23.92,.85-30.98-1.33-3.99-1.21-7.55-3.26-10.45-6.4-2.66,3.93-5.92,7.19-9.78,9.72l-1.33-1.75c2.78-2.29,5.92-5.86,8.52-11.23-2.24-3.44-3.87-7.73-4.83-13.17l2.11-.6c1.03,3.93,2.35,7.31,4.29,10.15,1.57-4.29,2.84-9.54,3.5-16h-5.25c-.97,1.75-1.87,3.26-2.6,4.17l-4.29-1.81c2.84-4.65,7.01-12.8,9.66-19.63h-9.96v-2.6h16.67c-1.63,4.47-5.01,11.6-7.97,17.15h3.62l.97-.97,4.77,1.81c-.79,8.09-2.78,15.34-6.1,21.44,1.87,1.75,4.11,3.08,6.76,4.11,7.85,2.96,23.01,1.93,34.73,.54Zm-22.89-32.73h-13.23v-2.6h13.23v-4.83h-10.39v-2.72h10.39v-5.38h5.19v5.38h11.78v7.55h4.89v2.6h-4.89v8.15h-11.78v4.77h12.32v2.72h-12.32v5.62h15.1v2.72h-15.1v7.97h-5.19v-7.97h-13.29v-2.72h13.29v-5.62h-11.11v-2.72h11.11v-4.77h-10.69v-2.72h10.69v-5.44Zm5.19-2.6h7.01v-4.83h-7.01v4.83Zm0,8.03h7.01v-5.44h-7.01v5.44Z"/>
      <path class="cls-1" d="M266.43,112l-1.27-1.69c4.77-4.47,7.85-9.24,9.9-16.13l5.8,1.63c-.6,1.39-1.51,3.02-2.72,4.71h15.46v2.72h-10.33c1.45,1.39,3.02,3.32,4.47,5.44l-4.47,1.63c-.72-2.36-1.57-4.71-2.78-7.07h-4.41c-2.6,3.14-5.92,6.34-9.66,8.76Zm53.87,31.04l-3.2,5.98c-6.1-.97-16.31-6.22-21.8-14.25v16.25h-5.19v-16.06c-4.29,6.34-15.04,11.72-24.1,13.83l-.73-1.93c8.88-3.32,15.1-7.01,19.87-12.74h-18.12v-2.72h23.07v-5.13c-1.45,.97-3.14,1.75-5.07,2.54l-1.03-1.93c2.66-1.63,4.35-3.08,5.38-4.77-4.71,2.05-14.19,4.71-20.71,5.74l-1.39-5.01c3.44-.18,6.4-.42,9.18-.72v-8.03h-8.39v-2.72h21.86v2.72h-8.4v7.37c2.54-.42,5.13-.91,7.97-1.57l.36,1.33c1.21-2.6,1.21-5.74,1.21-10.45h18.78v9.06c0,2.23,.42,2.6,2.96,2.6,2.78,0,3.26-.54,3.02-6.7h2.17c3.02,9.72,.6,10.99-5.31,11.05-6.58,.06-7.85-1.21-7.85-6.34v-6.95h-8.7c0,6.22-1.93,9.84-5.56,12.44h4.71v5.5h23.19v2.72h-21.02c6.76,5.86,14.37,7.61,22.83,8.94Zm-30.14-34.67c3.74-3.99,6.34-8.94,8.03-14.37l5.56,1.87c-.79,1.57-1.75,3.14-2.78,4.59h18.24v2.72h-11.72c1.57,1.27,2.96,2.78,4.41,4.77l-4.41,1.81c-.91-2.23-1.75-4.29-3.08-6.58h-5.56c-2.54,2.96-5.25,5.31-7.31,6.76l-1.39-1.57Zm7.07,7.01l1.81-.72c1.99,3.02,3.62,6.46,4.47,9.54l-4.35,1.15c-.3-2.84-1.09-6.64-1.93-9.97Z"/>
      <path class="cls-1" d="M387.09,143.89l-4.41,6.88c-5.8-2.66-18.6-14.13-21.74-35.27-3.14,18.36-14.74,30.68-27.78,35.69l-1.09-2.05c10.51-5.98,19.93-15.88,22.77-34.79h-20.78v-3.32h21.2c.12-1.39,.24-2.84,.3-4.29,.18-3.68,.24-8.03,.3-12.02l6.16,.18c0,4.77-.12,9.12-.36,13.77l-.18,2.36h22.77v3.32h-21.26c4.47,17.33,15.88,25.91,24.1,29.53Z"/>
      <path class="cls-1" d="M418.42,142.02l5.68,3.44c-4.83,2.78-15.16,5.19-24.22,6.34l-.66-2.11c7.97-2.05,12.8-3.74,19.21-7.67Zm32.19-37.5v10.63h-5.19v-7.91h-39.68v7.97h-5.19v-10.69h13.11c-1.33-3.02-2.6-5.44-3.99-7.67l1.69-1.27c2.54,1.63,5.19,4.11,7.19,6.7l-3.32,2.23h7.49v-9.9h5.32v9.9h5.25c1.39-2.84,2.42-5.92,3.08-8.52l5.56,2.48c-2.05,2.6-3.93,4.47-5.74,6.04h14.43Zm-43.3,17.27h36.06v19.93l-36.06,.06v-19.99Zm33.28-11.9v8.88h-30.5v-8.88h30.5Zm-28.08,14.62v3.08h25.67v-3.08h-25.67Zm25.67,8.76v-3.14h-25.67v3.14h25.67Zm0,5.74v-3.2h-25.67v3.26l25.67-.06Zm-2.66-26.45h-20.35v3.56h20.35v-3.56Zm-7.37,29.59c6.58,.6,15.46,1.69,22.41,4.11l-2.54,5.38c-5.44-2.54-13.89-5.38-20.41-7.37l.54-2.11Z"/>
    </g>
    <g>
      <path class="cls-1" d="M96.17,14.53l2.24,.48c-.87,5.15-3.28,9.3-7.48,11.45l-.53-.87c2.07-1.34,3.84-4,4.87-7.14-1.43,.73-2.88,1.26-4.42,1.68l-.78-2.44,1.79-.08c.9-1.15,1.85-2.91,2.63-4.7-1.23,.48-2.18,.76-3.19,1.01l-.08-.31c-.62,.45-1.18,.84-1.71,1.2v9.27c0,2.3-2.27,3.33-5.54,.78l.28-.92c2.63,.67,2.97,.42,2.97-.78v-7.03c-.64,.34-1.37,.67-2.21,1.01l-.95-2.69c1.2-.25,2.21-.48,3.16-.73V7.78h-2.86v-1.26h2.86V.39h2.3V6.52h2.6v1.26h-2.6v5.29l1.43-.53-.25-.92h1.18c.73-1.4,1.71-4.31,1.96-6.13l2.38,.76c-.95,1.99-2.04,3.98-3.14,5.32,.67-.03,1.32-.11,2.04-.22,.28-.73,.53-1.43,.7-2.07l2.18,.98c-1.34,2.6-2.77,5.1-4.65,7.2,.81-.11,1.57-.25,2.38-.45,.2-.81,.34-1.62,.45-2.46Zm12.74-9.41h-17.47v-1.26h8.29c-1.04-1.15-2.1-2.1-3.14-2.94l.45-.92c1.57,.45,3.3,1.23,4.73,2.21l-1.18,1.65h8.32v1.26Zm.06,17.89v1.29h-7.84v2.07h-2.18V12.49c-.45,.59-.92,1.12-1.43,1.6l-.73-.64c1.6-2.04,2.72-5.54,3.28-7.87l2.24,.7c-.34,1.01-.81,2.1-1.34,3.14h3.02c-.25-1.01-.62-2.18-1.09-3.5l.87-.48c1.06,1.06,1.9,2.32,2.38,3.39l-1.37,.59h4.06v1.26h-3.39v3.19h2.8v1.26h-2.8v3.28h2.8v1.26h-2.8v3.36h3.53Zm-5.71-12.35h-2.13v3.19h2.13v-3.19Zm0,4.45h-2.13v3.28h2.13v-3.28Zm0,4.54h-2.13v3.36h2.13v-3.36Z"/>
      <path class="cls-1" d="M134.87,6.16h-9.91v-1.85h12.66v1.76l-8.68,17.92h-2.94l8.88-17.67v-.17Z"/>
      <path class="cls-1" d="M156.15,11.51c0,7.22-1.29,12.01-4.17,15.04l-.76-.67c2.3-3.64,2.3-8.15,2.3-15.37V4.42h11.84c-1.51-1.26-3.08-2.44-4.45-3.39l.42-.92c1.88,.5,4.37,1.4,6.19,2.49l-1.23,1.82h9.41v1.26h-19.54v5.82Zm20.08,12.26v1.29h-21.33v-1.29h9.35v-3.89h-7.28v-1.26h7.28v-2.83l-1.93,1.09c-.5-1.4-1.2-3.08-1.9-4.45-.84,2.16-1.99,4-3.39,5.52l-.76-.64c1.54-2.6,2.41-6.36,2.69-9.94l2.74,.62c-.2,1.12-.48,2.16-.81,3.14,1.29,1.18,2.55,2.55,3.36,3.95V6.47h2.52v12.15h7.59v1.26h-7.59v3.89h9.46Zm-4.09-15.85c-.2,1.06-.42,2.1-.73,3.11,1.51,1.29,3.16,3,4.06,4.56l-2.21,1.34c-.56-1.46-1.46-3.25-2.27-4.68-.76,1.96-1.76,3.72-3.19,5.35l-.81-.62c1.54-2.77,2.21-6.08,2.44-9.66l2.72,.59Z"/>
      <path class="cls-1" d="M209.32,12.21v1.26h-23.8v-1.26h8.06V5.82h-6.83v-1.26h6.86c-.64-1.29-1.57-2.74-2.18-3.56l.67-.76c1.23,.81,3.11,2.46,3.98,3.58l-.95,.73h3.95c.78-1.34,1.54-3.05,2.02-4.4l2.6,1.23c-.59,.87-1.79,2.16-2.88,3.16h7.36v1.26h-7.08v6.38h8.23Zm-16.86-1.71l-2.04,1.26c-.59-1.57-1.48-3.5-2.16-4.79l.78-.62c1.15,.98,2.8,3.02,3.42,4.14Zm-3.02,4.84h16.07v10.72h-2.52v-1.37h-11.14v1.48h-2.41V15.34Zm2.41,4.03h11.14v-2.77h-11.14v2.77Zm0,4.06h11.14v-2.8h-11.14v2.8Zm6.89-17.61h-2.86v6.38h2.86V5.82Zm3.61,5.43c.78-1.37,1.6-3.36,2.02-4.79l2.35,1.15c-.67,1.15-2.72,3.44-3.53,4.14l-.84-.5Z"/>
      <path class="cls-1" d="M242.87,23.44v1.54h-23.91v-1.54h14.08c1.04-3.75,2.07-8.9,2.6-14.14l3.25,.78c-.92,4.4-2.88,9.74-4.56,13.36h8.54Zm-1.01-15.62h-21.81v-1.4h10.36c-.78-1.74-1.99-4.23-2.88-5.74l.81-.64c1.82,1.4,3.86,3.61,5.01,5.43l-1.6,.95h10.11v1.4Zm-18.76,2.07l1.06-.36c2.13,3.56,3.92,8.34,4.56,12.12l-3.16,.64c-.39-4.28-1.26-8.43-2.46-12.4Z"/>
      <path class="cls-1" d="M259.47,4.59h-7.11v-1.26h7.11V.39h2.46V3.33l5.68-.03V.39h2.46V3.33h6.8v1.23h-6.8v2.49h-2.46v-2.49l-5.68,.03v2.58h-2.46v-2.58Zm1.82,14.08c1.43,1.79,2.69,4.09,3.22,5.85l-2.3,.84c-.08-.59-.28-1.4-.5-2.27-2.44,1.04-6.08,1.99-8.04,2.32l-.76-2.86c.73,.03,1.51,.03,2.32,.03,1.4-1.76,2.83-3.98,4.09-6.24-1.99,.64-4,1.15-5.43,1.4l-.62-2.49c.53,.03,1.15,.03,1.79,.03,.98-1.93,2.38-5.15,2.97-8.06l2.69,.92c-1.32,2.91-3,5.21-4.56,7.11,1.32-.06,2.69-.14,3.89-.25,.7-1.37,1.32-2.77,1.79-4.03l2.44,1.2c-1.79,3.67-5.15,7.98-7.67,10.36,1.6-.08,3.28-.25,4.82-.45-.31-1.09-.64-2.16-.98-2.94l.84-.48Zm13.52,7.08c-.22-.73-.62-1.82-1.09-2.94-2.58,1.01-6.05,1.93-8.46,2.38l-.78-2.74c.53,.03,1.2,.03,1.93,0,1.37-1.71,2.91-4.06,4.2-6.38-2.07,.67-4.34,1.23-5.96,1.48l-.62-2.46h1.76c.95-1.93,2.07-4.84,2.72-7.67l2.74,.9c-1.23,2.69-2.77,4.82-4.31,6.75,1.48-.06,3.05-.17,4.37-.31,.78-1.54,1.43-3,1.85-4.26l2.46,1.15c-1.71,3.56-4.87,7.92-7.78,10.75,1.82-.11,3.81-.31,5.46-.56-.42-.95-.87-1.85-1.26-2.58l.76-.59c1.74,1.6,3.47,3.89,4.45,5.85l-2.44,1.23Z"/>
      <path class="cls-1" d="M307.29,25.42c-1.62,.08-3.28,.06-4.98-.03-2.27-.11-2.88-1.23-2.88-3.05v-5.99h-2.91c-.42,5.88-2.52,8.82-10.47,10.16l-.34-.95c6.19-1.88,7.84-4.59,8.15-9.21h-3.92v-7.5h6.94v-3.11h-10.44v-1.54h10.44V.14h2.63V4.2h10.5v1.54h-10.5v3.11h6.86v7.5h-4.42v5.32c0,.9,.28,1.34,1.2,1.43,1.46,.14,2.52,.14,3.98-.03,1.48-.17,1.82-.78,1.71-4.9h.98c1.79,6.3,.48,7.08-2.52,7.25Zm-14.84-10.33h11.4v-4.98h-11.4v4.98Z"/>
      <path class="cls-1" d="M344.79,23.1l-2.04,3.19c-2.69-1.23-8.62-6.55-10.08-16.35-1.46,8.51-6.83,14.22-12.88,16.55l-.5-.95c4.87-2.77,9.24-7.36,10.56-16.13h-9.63v-1.54h9.83c.06-.64,.11-1.32,.14-1.99,.08-1.71,.11-3.72,.14-5.57l2.86,.08c0,2.21-.06,4.23-.17,6.38l-.08,1.09h10.56v1.54h-9.86c2.07,8.04,7.36,12.01,11.17,13.69Z"/>
      <path class="cls-1" d="M377.99,23.41l-1.37,2.88c-1.68-.22-7.92-1.76-10.75-7.17-1.74,4.54-6.05,6.69-12.54,7.59l-.31-.95c5.66-1.23,8.82-3.47,10.11-6.89h-9.69v-1.26h10.08c.22-.9,.31-1.85,.34-2.88l2.86,.25c-.06,.95-.17,1.82-.36,2.63h3.44c-.64-.67-1.51-1.57-2.27-2.24l.39-.7c1.01,.34,2.46,.98,3.58,1.79l-.92,1.15h7.08v1.26h-10.67c3.19,3.89,9.52,4.42,11,4.54Zm-21.76-13.38h-2.44v-1.2h6.47v-2.49h-2.55v1.34h-2.24V.95h2.24V5.12h2.55V.53h2.35v15.62h-2.35v-6.13h-1.76c-.06,2.8-1.43,5.52-4.31,6.78l-.5-.78c1.82-1.23,2.46-3.19,2.55-5.99Zm16.83-6.8h-4.56c-.17,.17-.36,.34-.56,.5,.7,.31,1.54,.73,2.21,1.2l-1.2,1.32c-.5-.64-1.2-1.43-1.74-1.96-.48,.36-.98,.7-1.54,1.04,.56,.36,1.2,.9,1.74,1.48l-1.43,1.06c-.39-.78-.76-1.48-1.15-2.1-.5,.28-1.06,.5-1.62,.73l-.39-.78c2.8-1.68,4.2-3.53,5.21-5.4l2.35,.78c-.25,.34-.5,.67-.78,1.01h3.89l.5-.34,2.38,1.32c-1.54,1.93-4.68,4.56-9.69,6.1h5.71v-1.99h2.3v1.99h3.02v1.2h-3.02v3.3c0,1.96-2.07,3.02-5.35,.7l.28-.87c2.6,.56,2.77,.36,2.77-.73v-2.41h-7.81v-.64c-.5,.11-1.04,.22-1.57,.31l-.22-.95c4.56-.92,8.43-3.61,10.28-5.88Zm-3.36,9.27l-1.32,1.65c-.76-.92-1.79-1.99-2.66-2.8l.45-.76c1.09,.39,2.63,1.18,3.53,1.9Z"/>
      <path class="cls-1" d="M50.08,59.8h10.22v1.54h-22.9v-1.54h10v-5.04h-7.11v-1.4h7.11v-4.56h-6.05v-.78c-1.48,.87-3.16,1.65-4.96,2.27l-.42-.95c5.85-2.83,9.41-7.17,10.64-10.08h-6.3l-.03-1.4h9.74c1.06,3.5,5.43,7.42,11.68,9.02l-1.99,3.05c-1.06-.48-2.3-1.06-3.53-1.88v.76h-6.1v4.56h7.2v1.4h-7.2v5.04Zm5.38-12.26c-2.24-1.62-4.48-4.03-6.05-7.9-1.12,2.55-3.67,5.52-7.28,7.87l13.33,.03Z"/>
      <path class="cls-1" d="M79.85,52.52c-3.3,2.63-6.64,4.51-8.9,5.54l-1.23-2.8c1.37-.36,2.63-.76,3.84-1.18v-6.8h-3.28v-1.26h3.28v-5.85h-3.64v-1.26h9.91v1.26h-3.86v5.85h3.05v1.26h-3.05v5.91c1.15-.48,2.24-.98,3.36-1.54l.53,.87Zm12.82,7.25c-1.85-1.96-4.62-6.33-4.93-16.49h-.64v16.58c0,2.6-2.66,3.5-6.92,.53l.34-.95c3.7,1.01,4.12,.62,4.12-.67v-6.27c-1.74,2.24-4.48,4.76-5.91,5.82l-1.65-2.46c2.13-1.06,4.34-2.44,7.56-5.04v-7.53h-6.13v-1.26h6.13v-5.71h2.46v5.71h7.42v1.26h-5.74c.17,1.96,.39,3.67,.78,5.24,.81-1.04,1.68-2.3,2.52-3.84l2.21,1.65c-1.12,1.23-3.08,2.66-4.4,3.47,.92,2.91,2.49,5.21,5.21,7.31l-2.44,2.66Zm-11.17-8.76c-.59-2.07-1.37-4.2-2.07-5.96l.81-.48c1.37,1.51,2.6,3.19,3.61,5.24l-2.35,1.2Zm10.14-9.55c-.87-1.23-2.24-2.86-3.36-4.14l.62-.76c1.23,.59,3.16,1.68,4.56,3.08l-1.82,1.82Z"/>
      <path class="cls-1" d="M112.8,52.46l.45,.92c-2.49,1.88-5.52,3.72-8.74,5.29l-1.12-2.72c.87-.2,2.24-.62,3.78-1.18v-9.44h-3.39v-1.26h3.39v-6.86h2.46v6.86h3.42v1.26h-3.42v8.48c1.06-.42,2.16-.9,3.16-1.37Zm12.46,8.71c-2.44,.17-4.65,.17-7.06,0-3.11-.22-4.34-1.06-4.34-3.95v-9.38c-.81,.28-1.6,.59-2.38,.87l-.42-1.18c.92-.34,1.85-.67,2.8-1.04v-7.7h2.41v6.78l2.83-1.09v-8.04h2.3v7.11c1.04-.42,2.04-.81,3.05-1.23l.42-.67,2.72,.7c-.42,2.83-1.9,8.96-2.97,11.23l-.98-.25c.48-2.35,.98-8.18,.98-9.72-1.06,.45-2.13,.87-3.22,1.32v10.89h-2.3v-10l-2.83,1.09v10.05c0,1.43,.9,1.76,2.13,1.88,2.35,.22,4.4,.14,6.72,0,1.48-.08,1.68-.84,1.6-5.21l.98-.06c1.85,6.13,1.12,7.34-2.44,7.59Z"/>
      <path class="cls-1" d="M143.44,47.48v14.81h-2.35v-13.3c-.73,2.16-1.99,4.79-3.56,6.97l-.78-.62c1.37-2.66,3.14-7.11,3.89-11.65h-3.3v-1.26h3.75v-6.05h2.35v6.05h3.14v1.26h-3.14v1.93c1.32,1.46,2.77,3.3,3.61,5.1l-2.02,.98c-.45-1.4-1.06-2.94-1.6-4.23Zm1.37,13.47l-.59-.84c1.43-1.18,3.44-3.44,4.65-5.77l2.27,1.26c-1.9,2.44-4.42,4.31-6.33,5.35Zm10.28-7.03v5.43c0,3.14-2.46,4.14-6.52,1.43l.28-.95c3.39,.84,3.75,.53,3.75-.78l.03-5.12h-6.83v-1.26h16.13v1.26h-6.83Zm-3.98-14.62h-4.98v-1.26h15.71v1.26h-4.98v2.24h4.14v6.55h-13.89v-6.55h4v-2.24Zm-3.47,11.56v-1.18h12.46v1.18h-12.46Zm1.71-3.98h1.76v-4.14h-1.76v4.14Zm5.49-7.59h-1.71v2.24h1.71v-2.24Zm-1.71,7.59h1.71v-4.14h-1.71v4.14Zm9.44,12.49l-2.04,1.76c-.92-1.46-2.86-4.14-4.4-6.02l.64-.7c2.07,1.37,4.59,3.47,5.8,4.96Zm-5.71-16.63v4.14h1.85v-4.14h-1.85Z"/>
      <path class="cls-1" d="M177.79,51.54v2.13h-7.31v-2.13h7.31Z"/>
      <path class="cls-1" d="M188.43,54l.98,.11c0,3.3-.34,6.13-.87,7.95l-2.58-1.06c1.04-1.68,1.9-4,2.46-7Zm.2-3.72c1.29-1.43,2.55-3.19,3.67-5.21-1.65,.48-3.53,.87-4.9,1.06l-.5-2.44c.59,.06,1.15,.08,1.68,.11,1.01-2.07,1.88-4.62,2.55-7.7l2.6,.98c-1.04,2.49-2.63,5.04-3.95,6.75,1.06,.03,2.1-.03,3.22-.08,.53-1.12,1.06-2.32,1.51-3.61l2.41,1.06c-1.37,2.91-4.23,6.78-6.86,9.02,1.4-.08,2.8-.22,4.2-.45-.25-.7-.53-1.4-.81-1.99l.81-.59c1.2,1.26,2.49,3.25,3.19,4.79l-2.13,1.06c-.2-.7-.45-1.54-.73-2.38-2.63,1.01-5.63,1.93-7.28,2.18l-.64-2.58c.64,.03,1.32,.03,1.96,0Zm2.94,3.64c.78,2.16,1.29,4.82,1.54,6.5l-2.49,.42c.11-1.76,.17-4.48-.03-6.75l.98-.17Zm1.99-.84c1.15,1.68,2.21,3.86,2.88,5.49l-2.35,.92c-.31-1.85-.84-4.14-1.4-5.94l.87-.48Zm17.89,3.44l-1.82,2.3c-1.48-1.68-3.56-3.61-5.49-5.21v5.85c0,3.14-2.91,3.7-6.44,.92l.28-.9c3.3,.9,3.75,.64,3.75-.67v-4.68c-1.32,1.23-2.97,2.44-4.79,3.58l-1.23-2.38c2.07-.7,3.92-1.48,6.02-2.72v-5.26h-6.3v-1.26h8.43c.17-.64,.36-1.37,.53-2.1h-4.68l-.56,1.48-2.04-.48c1.01-2.77,1.76-5.68,2.46-8.68l2.27,.48c-.14,.59-.31,1.15-.45,1.71h3.78l.5-.36,2.27,.81c-.56,2.24-1.09,4.73-1.79,7.14h4.45v1.26h-6.47v5.01l.62,.25c1.34-1.34,2.46-3.05,3.3-4.59l2.07,1.57c-1.12,1.26-2.86,2.58-4.4,3.5,2.1,1.01,4.28,2.27,5.71,3.42Zm-12.54-3.3c-.76-1.76-1.6-3.42-2.32-4.45l.73-.67c1.06,.78,2.72,2.44,3.61,3.72l-2.02,1.4Zm5.77-10.44c.25-1.15,.48-2.27,.62-3.05h-4.23c-.31,1.01-.59,2.02-.92,3.02l4.54,.03Z"/>
      <path class="cls-1" d="M245.08,59.35l-1.46,3.02c-2.69-.42-8.54-2.21-10.89-7.98-1.62,4.48-5.68,7.08-12.71,8.15l-.31-.95c6.02-1.51,8.9-3.95,10.19-7.2h-9.24v-1.26h9.63c.22-.9,.36-1.85,.42-2.86l2.8,.22c-.06,.92-.2,1.82-.42,2.63h10.81v1.26h-10.02c3.02,4.06,8.12,4.68,11.2,4.96Zm-.84-9.6h-23.83v-1.26h10.53v-2.74h-7.78v-1.26h7.78v-2.66h-9.55v-1.26h6.94c-1.01-1.2-2.46-2.74-3.5-3.67l.53-.87c1.57,.62,4.23,2.04,5.54,3.08l-1.32,1.46h4.17c.98-1.4,1.82-3.25,2.27-4.7l2.77,1.34c-1.01,1.29-2.16,2.41-3.39,3.36h7.81v1.26h-9.77v2.66h8.04v1.26h-8.04v2.74h10.78v1.26Z"/>
      <path class="cls-1" d="M257.31,62.32h-2.46v-24.72h21.84v24.64h-2.46v-1.34h-16.91v1.43Zm16.91-23.46h-16.91v20.78h16.91v-20.78Zm-3.28,5.49h-3.98v1.57h6.69v1.26h-15.76v-1.26h6.66v-1.57h-4.2v-4.28h10.58v4.28Zm1.57,4.17v9.46h-13.58v-9.46h13.58Zm-2.35,8.2v-6.94h-8.88v6.94h8.88Zm-1.51-13.55v-1.93h-5.99v1.93h5.99Zm.06,7.76v4.37h-5.99v-4.37h5.99Zm-2.02,3.3v-2.24h-1.96v2.24h1.96Z"/>
      <path class="cls-1" d="M311.77,60.11v1.26h-24.61v-1.26h10.92v-2.69h-8.74v-1.26h8.74v-2.38h-7.56v-8.62h7.56v-2.16h-10.33v-1.26h10.33v-2.24c-3.05,.2-6.05,.25-8.29,.25l-.2-1.01c5.4-.2,11.37-1.01,16.44-2.66l2.32,2.21c-2.02,.48-4.79,.81-7.7,1.04v2.41h10.78v1.26h-10.78v2.16h7.64v8.62h-7.64v2.38h8.9v1.26h-8.9v2.69h11.12Zm-13.69-13.69h-5.04v2.38h5.04v-2.38Zm0,3.64h-5.04v2.46h5.04v-2.46Zm2.58-3.64v2.38h5.12v-2.38h-5.12Zm5.12,3.64h-5.12v2.46h5.12v-2.46Z"/>
      <path class="cls-1" d="M327.34,59.74v-1.43l-2.16-.03v2.6h-2.3v-10.08c-.73,1.43-1.4,2.49-1.85,3l-.81-.62c1.23-2.02,3.22-8.09,3.61-14.06h-3.11v-1.26h10.42v1.26h-4.79c-.22,2.6-.9,5.21-1.71,7.5l4.98-.03v13.13h-2.3Zm0-2.72v-9.13h-2.16v9.13h2.16Zm9.02-5.49c-.06,.73-.14,1.4-.28,2.04h7.56c-.06,2.24-.28,4.73-.62,6.16-.76,3.19-3.98,3.08-7.08,.42l.39-.92c3.86,1.29,4.12,.64,4.37-.53,.14-.62,.34-1.57,.42-3.86h-5.38c-1.34,4.2-4.56,6.58-7.84,7.73l-.48-.9c2.44-1.26,5.66-3.78,6.38-10.14h-3.75v-1.26h8.26c-.81-.62-2.24-1.68-3.33-2.46l.39-.92c1.29,.28,3.22,.95,4.62,1.82l-1.04,1.57h6.5v1.26h-9.1Zm1.29-11.7c-1.01-.9-2.63-2.1-3.67-2.8l.36-.92c1.65,.39,3.72,1.23,5.12,2.13l-1.06,1.6h6.36v1.26h-4.06l1.93,.73c-.64,.95-1.88,2.49-2.83,3.47h5.04v4.06h-2.3v-2.8h-9.69v2.83h-2.3v-4.09h4.06c-.56-1.29-1.26-2.69-1.93-3.89l.34-.31h-2.77v-1.26h7.39Zm2.32,1.26h-6.13c1.12,.92,2.3,2.27,3.05,3.36l-1.34,.84h3c.56-1.2,1.12-3,1.43-4.2Z"/>
      <path class="cls-1" d="M354.22,51.18l-.39-.92c2.66-1.26,4.82-3.02,6.5-4.87-.95-1.37-2.38-3.28-3.28-4.31l.59-.73c1.26,.78,2.88,1.99,4.12,3.22,1.04-1.43,1.76-2.88,2.21-4.14h-7.42v-1.2h7.39l.59-.53,2.58,1.23c-.59,1.68-1.76,3.72-3.42,5.68h6.38c-1.43-2.02-2.58-4.68-3.36-8.18l.98-.25c.5,1.57,1.04,2.91,1.68,4.06,.81-.98,1.54-2.02,2.24-3.22l2.16,1.34c-.9,.95-2.41,2.1-3.75,2.97,.56,.84,1.18,1.57,1.85,2.21,1.04-1.15,2.1-2.58,2.94-3.98l2.24,1.4c-1.06,1.09-2.91,2.44-4.31,3.3,1.79,1.43,4.03,2.38,6.83,3.19l-1.46,2.94c-2.66-.98-5.07-2.3-7.03-4.54h-8.54c-2.16,2.21-4.96,4.23-8.32,5.32Zm15.57,8.96h8.74v1.29h-23.72v-1.29h8.18c-.78-1.48-1.71-3.02-2.58-4.23l.7-.73c1.48,1.01,2.8,1.99,4.42,3.95l-1.32,1.01h4.03c.78-1.54,1.34-3.05,1.79-4.93l2.8,1.06c-.87,1.48-1.9,2.77-3.05,3.86Zm-10.11-11.45h14.08v6.16h-14.08v-6.16Zm2.46,4.9h8.99v-3.64h-8.99v3.64Z"/>
      <path class="cls-1" d="M397.15,51.34c-2.55,1.99-5.32,3.7-8.48,5.1l-1.2-2.63c1.12-.22,2.46-.64,3.84-1.12v-8.32h-3.33v-1.26h3.33v-6.55h2.41v6.55h3.19v1.26h-3.19v7.39c1.06-.45,2.07-.9,2.91-1.34l.53,.92Zm5.1-2.46c-.36,.7-.84,1.43-1.43,2.13h11.14c-.03,2.52-.17,6.55-.7,9.21-.5,2.49-2.97,3.47-7,.34l.36-.92c3.19,1.09,3.98,.76,4.2-.22,.22-.92,.59-3.81,.64-7.14h-1.43c-1.65,5.04-6.44,8.32-10.67,9.83l-.48-.9c3.19-1.57,7.28-4.62,8.74-8.93h-1.71c-1.74,3.5-5.49,5.99-8.96,7.34l-.45-.92c2.72-1.32,5.71-3.86,6.97-6.41h-1.79c-1.48,1.51-3.33,2.86-5.21,3.81l-.5-.9c2.41-1.48,4.51-3.92,5.66-6.3h-4.14v-1.26h17.25v1.26h-10.5Zm7.9-3h-12.12v-8.23h12.12v8.23Zm-9.77-6.97v2.21h7.42v-2.21h-7.42Zm7.42,5.71v-2.3h-7.42v2.3h7.42Z"/>
    </g>
  </g>
</svg>