<?xml version="1.0" encoding="UTF-8"?>
<svg id="_圖層_2" data-name="圖層 2" xmlns="http://www.w3.org/2000/svg" viewBox="0 0 193.42 31.99">
  <defs>
    <style>
      .cls-1 {
        fill: #4d4d4d;
      }
    </style>
  </defs>
  <g id="_圖層_1-2" data-name="圖層 1">
    <g>
      <path class="cls-1" d="M6.46,19.85c-1.56,3.57-4.22,6.97-5.61,8.16l-.85-.85c1.16-1.46,2.79-4.93,3.5-8.26l2.96,.95Zm10.3-2.75h-6.02l-.03,11.32c0,3.67-3.23,4.45-7.62,.71l.58-1.05c3.57,1.02,4.11,.95,4.11-1.09l-.03-9.89H1.19v-1.53H7.75v-4.25h-3.74v-1.26c-.95,.88-1.97,1.7-3.16,2.52l-.68-.85C3.4,8.64,5.81,4.73,7.31,.07l3.43,.99-.71,1.22c2.86,1.6,5.4,3.5,7,5.07l-2.24,2.38c-1.43-2.01-3.09-4.15-5.47-6.26-1.33,2.11-2.89,4.28-5,6.32H14.21v1.53h-3.47v4.25h6.02v1.53Zm-3.81,1.77c1.67,1.84,3.5,5,4.39,7.17l-3.13,1.12c-.44-2.28-1.29-5.41-2.24-7.75l.99-.54Zm14.28,1.9v10.71h-3.06v-10.1l-7.96,1.56-.34-1.53,8.3-1.63V.31h3.06V19.21l2.96-.58,.27,1.5-3.23,.65Zm-6.66-11.05c-1.29-2.24-2.65-4.18-4.32-6.26l.85-.85c2.28,1.46,4.15,2.96,5.85,4.96l-2.38,2.14Zm-3.37,1.36c2.14,1.39,3.88,2.62,5.71,4.86l-2.41,2.07c-1.29-2.21-2.58-4.08-4.15-6.08l.85-.85Z"/>
      <path class="cls-1" d="M48.82,13.53V31.48h-2.86V15.94c-1.09,3.13-2.96,6.08-4.38,7.99l-.95-.75c1.6-2.82,3.98-8.33,4.86-14.14h-4.01v-1.53h4.49V.27h2.86V7.51h3.33v1.53h-3.33v1.67c1.56,1.94,3.13,4.18,4.18,6.39l-2.65,1.33c-.48-1.77-.99-3.33-1.53-4.9Zm9.55,11.63l2.75,2.14c-2.21,1.43-6.59,3.64-10.81,4.66l-.44-1.12c3.54-1.6,6.05-3.23,8.5-5.68Zm12.41-15.77h-18.09v-1.53h7.14V3.64h-6.05v-1.53h15.33v1.53h-6.36V7.85h8.02v1.53Zm-17.17,15.33V11.42h15.47v13.29h-15.47Zm2.86-9.35h9.76v-2.41h-9.76v2.41Zm0,3.94h9.76v-2.55h-9.76v2.55Zm0,3.88h9.76v-2.48h-9.76v2.48Zm15.4,5.92l-1.77,2.89c-2.75-2.21-5.17-3.71-8.19-5.47l.44-1.12c3.43,.82,6.46,1.97,9.52,3.71Z"/>
      <path class="cls-1" d="M111.52,27.03v1.87h-29.13v-1.87h12.95V5.68h-11.15v-1.77h25.4v1.77h-10.91V27.03h12.85Z"/>
      <path class="cls-1" d="M130.49,8.53V31.52h-2.92V12.99c-1.6,2.04-3.23,3.64-4.69,4.76l-.82-.92c2.65-2.89,5.98-8.16,8.4-16.83l3.23,1.12c-.88,2.79-1.97,5.24-3.2,7.41Zm12.44-.71v5.68h8.67v1.53h-8.67v5.95h8.77v1.53h-8.77v9.01h-2.99V7.82h-2.11c-1.53,2.72-3.47,5.24-5.54,7.14l-.88-.85c2.86-3.43,4.9-8.6,5.78-13.84l3.33,1.02c-.41,1.63-1.05,3.33-1.87,5h14.04v1.53h-9.76Z"/>
      <path class="cls-1" d="M182.88,12.68c-1.8,1.39-3.81,2.65-5.88,3.77h12.38v15.2h-2.99v-2.35h-12.71v2.48h-2.99v-12.48c-2.31,.85-4.73,1.56-7.17,2.11l-.37-1.19c5.61-1.56,10.84-4.05,15.43-7.55h-14.52v-1.6h11.59V6.12h-7.92v-1.53h7.92V.03h3.13V4.59h7.14v.92c.85-1.05,1.67-2.14,2.41-3.3l2.92,1.67c-1.7,2.62-3.84,5.03-6.36,7.21h8.53v1.6h-10.54Zm-9.01,5.3l-.2,.1v3.81h12.71v-3.91h-12.51Zm12.51,5.44h-12.71v4.35h12.71v-4.35Zm-5.85-12.34c1.73-1.5,3.37-3.16,4.86-4.96h-6.63v4.96h1.77Z"/>
    </g>
  </g>
</svg>