<?xml version="1.0" encoding="UTF-8"?>
<svg id="_圖層_2" data-name="圖層 2" xmlns="http://www.w3.org/2000/svg" viewBox="0 0 152.86 32.43">
  <defs>
    <style>
      .cls-1 {
        fill: #4d4d4d;
      }
    </style>
  </defs>
  <g id="_圖層_1-2" data-name="圖層 1">
    <g>
      <path class="cls-1" d="M9.21,15.13v16.93h-2.92v-14.79c-1.26,2.92-2.96,5.78-5.44,8.46l-.85-.78c2.62-3.77,4.56-8.84,5.71-13.8H.61v-1.53H6.29V4.69c-1.87,.34-3.71,.58-5.27,.71l-.24-1.16c3.81-.88,7.38-2.04,10.84-4.25l2.41,2.65c-1.43,.54-3.09,1.02-4.83,1.43v5.54h4.83v1.53h-4.83v2.01c1.8,1.29,4.15,3.26,5.27,4.56l-2.41,2.24c-.68-1.33-1.8-3.16-2.86-4.83Zm16.86,5.75v10.84h-2.99v-10.17c-3.64,.82-7.31,1.63-10.95,2.38l-.51-1.53c3.81-.78,7.65-1.6,11.46-2.45V.48h2.99V19.28c1.39-.34,2.82-.65,4.22-.99l.41,1.5c-1.53,.37-3.09,.75-4.62,1.09ZM14.82,11.97c2.41,1.43,4.28,2.86,6.26,5.07l-2.58,2.28c-1.39-2.45-2.82-4.25-4.52-6.46l.85-.88Zm4.45-1.6c-1.6-2.24-2.96-3.91-4.76-5.92l.75-.92c2.35,1.26,4.32,2.55,6.32,4.56l-2.31,2.28Z"/>
      <path class="cls-1" d="M49.27,18.6l-.03,10.3c0,2.96-2.35,4.28-7.48,.99l.34-1.12c3.57,.85,4.28,.65,4.28-.95v-7.99c-1.39,.54-2.79,.99-4.22,1.43l-.99-3.33c1.87-.27,3.57-.51,5.2-.85v-7.17h-4.86v-1.53h4.86V.48h2.92l-.03,7.89h4.05v1.53h-4.05v6.56c.99-.24,2.01-.54,3.03-.85l.44,1.16c-1.16,.68-2.31,1.29-3.47,1.84Zm20.47,13.05c-3.26-1.12-6.15-2.65-8.53-4.93-2.82,2.38-6.46,4.01-11.39,5.24l-.41-1.16c4.59-1.63,7.79-3.6,10.1-5.95-2.01-2.55-3.47-5.81-4.28-10.1h-2.28v-1.53h6.39V7.62h-6.8v-1.53h6.8V.48h3.06V6.09h7.82v1.53h-7.82v5.61h2.41l.82-.54,3.09,1.53c-1.46,4.45-3.13,7.85-5.44,10.47,2.28,1.5,5.07,2.52,8.53,3.43l-2.07,3.54Zm-8.6-8.67c1.8-2.38,2.92-5.13,3.81-8.23h-8.5c1.09,3.64,2.58,6.25,4.69,8.23Z"/>
      <path class="cls-1" d="M91.8,22.27v9.66h-2.99v-8.74c-1.26,1.94-3.23,4.28-6.36,6.39l-.75-.95c2.41-2.04,5.17-6.05,6.39-9.21h-5.44v-1.46h6.15v-3.33h2.99v3.33h5.71v1.46h-5.71v1.09c1.67,1.02,3.74,2.38,5.47,4.25l-2.18,2.11c-1.09-1.73-2.24-3.2-3.3-4.59Zm6.29-8.33h-15.91v-1.53h4.45c-.58-1.67-1.43-3.84-2.14-5.3l1.02-.68c1.33,1.26,2.96,3.37,3.84,4.96l-1.97,1.02h3.98c.65-1.9,1.16-4.42,1.36-6.05l3.06,.99c-.78,1.63-1.97,3.64-3.09,5.07h5.41v1.53Zm-.82-7.75h-14.58v-1.5h7.1c-1.19-1.29-2.45-2.52-3.77-3.67l.61-1.02c1.77,.61,3.84,1.56,5.68,2.86l-1.39,1.84h6.36v1.5Zm14.92,6.9h-3.5V31.79h-2.99V13.09h-3.88v1.36c0,8.77-1.77,14.25-5.98,17.85l-.92-.82c3.23-3.98,3.84-8.74,3.84-15.91V2.99l2.82,.75c2.62-.75,4.73-1.8,6.94-3.4l2.92,2.48c-3.06,1.09-6.22,1.84-9.62,2.14v6.59h10.37v1.53Z"/>
      <path class="cls-1" d="M136.41,11.15v-1.9h-9.38V3.26h9.38V.31h2.99V3.26h9.52v5.98h-9.52v1.9h13.46v1.53h-29.92v-1.53h13.46Zm-2.38,15.13l3.16,2.04c-2.62,1.5-8.6,3.37-13.7,4.11l-.37-1.19c4.49-1.26,7.85-2.79,10.91-4.96Zm14.62-11.93v11.76h-21.25V14.35h21.25Zm-12.24-9.55h-6.46v2.92h6.46v-2.92Zm9.32,11.08h-15.37v1.84h15.37v-1.84Zm0,3.3h-15.37v1.94h15.37v-1.94Zm0,3.4h-15.37v2.01h15.37v-2.01Zm-6.63,5.13l.31-1.19c3.67,.44,8.67,1.26,12.58,2.79l-1.5,3.03c-3.06-1.63-7.82-3.37-11.39-4.62Zm6.9-22.91h-6.59v2.92h6.59v-2.92Z"/>
    </g>
  </g>
</svg>