<?xml version="1.0" encoding="UTF-8"?>
<svg id="_圖層_2" data-name="圖層 2" xmlns="http://www.w3.org/2000/svg" viewBox="0 0 453.7 151.54">
  <defs>
    <style>
      .cls-1 {
        fill: #474647;
      }
    </style>
  </defs>
  <g id="_圖層_1-2" data-name="圖層 1">
    <g>
      <path class="cls-1" d="M13.23,108.84v41.79h-5.19v-30.86c-1.93,3.08-4.11,5.86-6.52,8.21l-1.51-1.45c5.68-8.46,9.18-18.9,10.87-31.89l5.8,1.21c-.85,4.65-1.99,9-3.44,12.98Zm39.14,41.67c-6.4-.66-14.43-2.54-21.74-7.19-3.32,3.56-8.21,6.1-14.92,8.21l-.91-1.99c5.8-2.42,9.66-5.25,12.2-8.82-2.84-2.3-5.5-5.07-7.79-8.52l1.63-1.45c2.42,2.72,5.13,4.89,8.09,6.64,1.09-2.29,1.75-4.89,2.17-7.85h-12.56v-21.92h13.11v-5.98h-14.19v-2.72H52.6v2.72h-15.4v5.98h13.17v21.92h-13.77c-.54,3.99-1.57,7.31-3.26,10.15,6.89,2.9,14.49,3.99,21.68,4.29l-2.66,6.52Zm-28.63-33.52h7.91v-6.64h-7.91v6.64Zm7.67,9.84c.18-2.05,.24-4.17,.24-6.52v-.72h-7.91v7.25h7.67Zm13.77-7.25h-7.97v.79c0,2.29-.06,4.47-.24,6.46h8.21v-7.25Zm-7.97-9.24v6.64h7.97v-6.64h-7.97Z"/>
      <path class="cls-1" d="M79.59,144.47c0,5.25-4.17,7.61-13.29,1.75l.6-1.99c6.34,1.51,7.61,1.15,7.61-1.69v-13.59c-1.81,.79-3.56,1.45-5.13,2.05l-2.05-5.8c2.17-.3,4.65-.79,7.19-1.33v-13.17h-7.37v-2.72h7.37v-13.11h5.07v13.11h6.82v2.72h-6.82v11.96c2.42-.6,4.71-1.39,6.82-2.23l.85,1.99c-2.48,1.57-5.07,3.02-7.67,4.23v17.82Zm41.67-.72l-1.51,5.5c-3.26,.36-8.64,.42-11.9,.24-7.07-.36-13.47-1.33-17.33-9.96-2.36,4.47-5.74,8.33-10.81,11.48l-1.33-1.69c6.46-5.13,8.33-12.92,9.42-20.29l5.86,1.39c-.48,2.23-1.09,4.35-1.93,6.4,1.75,3.2,3.44,5.01,5.86,6.04v-16h-9.84v-2.72h9.84v-5.19h-13.17v-2.72h13.17v-4.71h-9.3v-2.72h9.3v-4.59h-13.89v-2.72h13.89v-6.52h5.19v6.52h16.85v2.72h-16.85v4.59h10.75v7.43h6.4v2.72h-6.4v7.91h-10.75v6.22h14.86v2.72h-14.86v8.21c1.69,.18,3.62,.3,5.86,.36,3.14,.12,8.64-.06,12.62-.6Zm-18.48-32.25v4.71h5.68v-4.71h-5.68Zm5.68,7.43h-5.68v5.19h5.68v-5.19Z"/>
      <path class="cls-1" d="M183.52,150.57c-9.06-2.42-16.43-5.68-22.65-11.11-6.95,5.92-15.34,9.12-26.27,11.17l-.79-1.99c10.33-3.14,17.88-6.95,23.67-12.62-3.62-3.99-6.82-8.94-9.66-15.22l1.87-1.15c3.81,5.56,7.31,9.72,10.87,12.92,3.08-3.87,5.62-8.4,7.79-14.01l5.92,2.78c-2.96,5.86-6.1,10.63-9.6,14.43,6.04,4.11,12.86,6.1,22.29,7.85l-3.44,6.95Zm-48.32-23.19l-1.09-1.87c5.92-4.35,11.17-10.15,15.1-17.09l5.5,3.38c-6.58,7.97-12.26,11.84-19.51,15.58Zm50.01-19.81h-50.61v-3.32h25.12c-2.66-2.72-6.76-6.4-9.3-8.52l1.09-1.93c3.99,1.33,9.84,4.11,13.47,6.76l-2.84,3.68h23.07v3.32Zm-18.18,1.33c6.34,2.66,13.41,7.13,19.02,12.02l-4.59,4.89c-5.25-6.16-10.99-11.48-15.58-14.98l1.15-1.93Z"/>
      <path class="cls-1" d="M254.24,142.24l-1.51,6.1c-6.46,.54-18.6,.73-24.1,.42-9.24-.54-13.23-1.45-17.51-8.7-2.11,3.87-4.95,8.03-8.09,11.23l-3.68-3.74c3.08-2.35,6.64-5.5,8.7-8.21v-13.77h-7.97v-2.78h13.53v16.06c3.56,5.01,7.43,4.89,15.34,5.07,7.85,.18,18.36-.72,25.31-1.69Zm-45.17-24.16c-1.99-2.6-6.04-7.19-8.58-9.9l1.21-1.81c3.08,1.51,8.03,4.41,11.29,7.25l-3.93,4.47Zm-6.28-21.68l1.15-1.81c3.14,1.33,8.46,4.35,11.6,7.07l-3.87,4.41c-2.6-3.08-5.98-6.82-8.88-9.66Zm21.14,43.91l-5.19-.06v-30.62h16.31c-2.6-1.81-5.86-3.99-9.06-5.86l.72-2.11c3.38,.91,6.58,1.93,9.48,3.14,2.05-1.69,3.38-3.02,4.71-4.53l-21.98,.18v-2.66l22.65-.18,1.69-.97,5.56,3.74c-3.74,2.9-6.52,4.41-9.78,5.68l1.39,.72-1.87,2.84h11.72v24.7c0,6.52-6.52,6.7-12.08,2.6l.54-2.05c5.68,1.39,6.34,.72,6.34-2.11v-4.11h-8.03v11.17h-5.07v-11.11h-8.03v11.6Zm0-27.96v5.38h8.03v-5.38h-8.03Zm8.03,13.71v-5.74h-8.03v5.74h8.03Zm13.11-13.71h-8.03v5.38h8.03v-5.38Zm0,13.71v-5.74h-8.03v5.74h8.03Z"/>
      <path class="cls-1" d="M283.52,133.6v17.15h-5.31v-15.52c-2.23,3.44-5.74,7.61-11.29,11.35l-1.33-1.69c4.29-3.62,9.18-10.75,11.35-16.37h-9.66v-2.6h10.93v-5.92h5.31v5.92h10.15v2.6h-10.15v1.93c2.96,1.81,6.64,4.23,9.72,7.55l-3.87,3.74c-1.93-3.08-3.99-5.68-5.86-8.15Zm11.17-14.8h-28.26v-2.72h7.91c-1.03-2.96-2.54-6.82-3.8-9.42l1.81-1.21c2.36,2.23,5.25,5.98,6.82,8.82l-3.5,1.81h7.07c1.15-3.38,2.05-7.85,2.42-10.75l5.44,1.75c-1.39,2.9-3.5,6.46-5.5,9h9.6v2.72Zm-1.45-13.77h-25.91v-2.66h12.62c-2.11-2.29-4.35-4.47-6.7-6.52l1.09-1.81c3.14,1.09,6.82,2.78,10.09,5.07l-2.48,3.26h11.29v2.66Zm26.51,12.26h-6.22v33.22h-5.31v-33.22h-6.89v2.42c0,15.58-3.14,25.31-10.63,31.71l-1.63-1.45c5.74-7.07,6.82-15.52,6.82-28.26v-22.35l5.01,1.33c4.65-1.33,8.39-3.2,12.32-6.04l5.19,4.41c-5.44,1.93-11.05,3.26-17.09,3.81v11.72h18.42v2.72Z"/>
      <path class="cls-1" d="M352.42,129.44l.97,1.99c-5.38,4.05-11.9,8.03-18.84,11.41l-2.42-5.86c1.87-.42,4.83-1.33,8.15-2.54v-20.35h-7.31v-2.72h7.31v-14.8h5.31v14.8h7.37v2.72h-7.37v18.3c2.29-.91,4.65-1.93,6.82-2.96Zm26.88,18.78c-5.25,.36-10.03,.36-15.22,0-6.7-.48-9.36-2.29-9.36-8.52v-20.23c-1.75,.6-3.44,1.27-5.13,1.87l-.91-2.54c1.99-.72,3.99-1.45,6.04-2.23v-16.61h5.19v14.62l6.1-2.36v-17.33h4.95v15.34c2.23-.91,4.41-1.75,6.58-2.66l.91-1.45,5.86,1.51c-.91,6.1-4.11,19.33-6.4,24.22l-2.11-.54c1.03-5.07,2.11-17.63,2.11-20.96-2.29,.97-4.59,1.87-6.95,2.84v23.49h-4.95v-21.56l-6.1,2.36v21.68c0,3.08,1.93,3.8,4.59,4.05,5.07,.48,9.48,.3,14.49,0,3.2-.18,3.62-1.81,3.44-11.23l2.11-.12c3.99,13.23,2.42,15.82-5.25,16.37Z"/>
      <path class="cls-1" d="M412.45,118.69v31.95h-5.07v-28.69c-1.57,4.65-4.29,10.33-7.67,15.04l-1.69-1.33c2.96-5.74,6.76-15.34,8.39-25.12h-7.13v-2.72h8.09v-13.05h5.07v13.05h6.76v2.72h-6.76v4.17c2.84,3.14,5.98,7.13,7.79,10.99l-4.35,2.11c-.97-3.02-2.29-6.34-3.44-9.12Zm2.96,29.05l-1.27-1.81c3.08-2.54,7.43-7.43,10.03-12.44l4.89,2.72c-4.11,5.25-9.54,9.3-13.65,11.54Zm22.16-15.16v11.72c0,6.76-5.31,8.94-14.07,3.08l.6-2.05c7.31,1.81,8.09,1.15,8.09-1.69l.06-11.05h-14.74v-2.72h34.79v2.72h-14.74Zm-8.58-31.53h-10.75v-2.72h33.88v2.72h-10.75v4.83h8.94v14.13h-29.96v-14.13h8.64v-4.83Zm-7.49,24.94v-2.54h26.88v2.54h-26.88Zm3.68-8.58h3.8v-8.94h-3.8v8.94Zm11.84-16.37h-3.68v4.83h3.68v-4.83Zm-3.68,16.37h3.68v-8.94h-3.68v8.94Zm20.35,26.94l-4.41,3.8c-1.99-3.14-6.16-8.94-9.48-12.98l1.39-1.51c4.47,2.96,9.9,7.49,12.5,10.69Zm-12.32-35.87v8.94h3.99v-8.94h-3.99Z"/>
    </g>
    <g>
      <path class="cls-1" d="M116.38,19.8v1.57h-2.6V12.66h10v-2.35h-8.29V3.58h8.29V.22h2.63V3.58h8.37v6.72h-8.37v2.35h10.14v8.71h-2.58v-1.57h-7.56v6.58h-2.63v-6.58h-7.39Zm7.39-5.88h-7.39v4.62h7.39v-4.62Zm0-9.07h-5.77v4.2h5.77V4.84Zm8.48,0h-5.85v4.2h5.85V4.84Zm1.71,9.07h-7.56v4.62h7.56v-4.62Z"/>
      <path class="cls-1" d="M150.26,20.83v-6.3h-3.7v-1.29h6.16v7.36c1.65,2.3,3.5,2.35,7.17,2.44,3.64,.08,8.51-.34,11.73-.78l-.7,2.83c-3,.25-8.62,.34-11.17,.2-4.28-.25-6.13-.87-8.12-4.12-1.01,1.79-2.3,3.72-3.75,5.21l-1.6-1.65c1.46-1.09,3.16-2.63,3.98-3.89Zm-3.11-14.22l.56-.84c1.4,.7,3.56,1.9,5.07,3.22l-1.82,2.07c-.92-1.23-2.63-3.22-3.81-4.45Zm1.29-5.52l.53-.84c1.37,.62,3.72,1.82,5.15,3.08l-1.79,2.04c-1.09-1.43-2.49-2.97-3.89-4.28Zm5.77,16.97v-1.26h6.94v-2.04h-5.6V6.36h5.6v-2.1h-6.3v-1.26h6.3V.08h2.46V3h6.52v1.26h-6.52v2.1h5.63V14.76h-5.63v2.04h7.17v1.26h-7.17v3.81h-2.46v-3.81h-6.94Zm6.94-10.44h-3.25v2.27h3.25v-2.27Zm0,3.53h-3.25v2.35h3.25v-2.35Zm5.74-3.53h-3.28v2.27h3.28v-2.27Zm0,3.53h-3.28v2.35h3.28v-2.35Z"/>
      <path class="cls-1" d="M205.37,22.96l-2.04,3.19c-2.69-1.23-8.62-6.55-10.08-16.35-1.46,8.51-6.83,14.22-12.88,16.55l-.5-.95c4.87-2.77,9.24-7.36,10.56-16.13h-9.63v-1.54h9.83c.06-.64,.11-1.32,.14-1.99,.08-1.71,.11-3.72,.14-5.57l2.86,.08c0,2.21-.06,4.23-.17,6.38l-.08,1.09h10.56v1.54h-9.86c2.07,8.04,7.36,12.01,11.17,13.69Z"/>
      <path class="cls-1" d="M237.62,11.76l-2.55,1.74c-.56-1.12-1.23-2.35-2.02-3.64-4.54,.95-11.62,1.99-17.58,2.52l-.81-3.08c1.29,.06,2.58,.08,3.89,.08,2.16-2.69,4.06-6.47,5.26-9.38l2.91,1.4c-1.76,2.58-4.09,5.71-6.52,7.98,4.48-.03,8.9-.31,12.21-.59-.9-1.37-1.88-2.83-3-4.31l.81-.7c2.72,2.21,6.13,5.99,7.39,7.98Zm-19.94,2.88h16.6v11.56h-2.63v-2.07h-11.34v2.04h-2.63V14.64Zm2.63,8.2h11.34v-6.94h-11.34v6.94Z"/>
      <path class="cls-1" d="M251.51,15.74v2.07h-2.58V5.49h9.24V.17h2.69V5.49h9.32v12.15h-2.58v-1.9h-6.75v10.61h-2.69V15.74h-6.66Zm6.66-8.85h-6.66v7.5h6.66V6.89Zm9.44,0h-6.75v7.5h6.75V6.89Z"/>
      <path class="cls-1" d="M283.63,17.95c.17,3.25-.14,6.19-.73,8.01l-2.66-1.15c1.15-1.68,1.96-3.92,2.38-6.92l1.01,.06Zm20.83,5.88c0,2.24-2.02,3.67-6.41,.67l.36-.92c3.19,.9,3.64,.67,3.64-.45V3.05h-9.02V26.26h-2.35v-9.83l-2.07,.81c-.11-.59-.28-1.26-.48-1.96-2.46,.84-5.1,1.43-6.72,1.68l-.64-2.63c.7,.03,1.4,.03,2.1,.03,1.04-1.4,1.99-3.08,2.88-5.04-1.54,.48-3.14,.87-4.4,1.06l-.5-2.58c.5,.03,.98,.08,1.46,.08,.95-2.1,1.82-4.65,2.58-7.81l2.55,.78c-1.12,2.58-2.66,5.35-3.95,7.08,.95,0,1.9,0,2.91-.06,.48-1.12,.95-2.3,1.43-3.56l2.44,1.06c-1.43,2.86-3.67,6.58-6.08,8.96,1.2-.03,2.44-.11,3.61-.2-.25-.81-.53-1.6-.78-2.3l.92-.45c1.15,1.4,2.16,3.11,2.74,4.65V1.79h13.72l.06,22.04Zm-19.04-6.16c.78,2.16,1.57,4.98,1.79,6.66l-2.49,.34c.06-1.76-.08-4.56-.25-6.83l.95-.17Zm2.1-.64c1.15,1.62,2.38,4,2.97,5.63l-2.27,.84c-.39-1.85-1.01-4.34-1.6-6.13l.9-.34Zm10.36,4.28c-2.77,0-3.25-.59-3.25-2.52v-3.95h-1.09v-1.18h3.5c-.45-1.34-.92-2.55-1.34-3.47l.45-.28h-2.69v-1.18h4.34c.48-1.51,.98-3.39,1.23-5.26l2.21,.7c-.7,1.65-1.46,3.25-2.35,4.56h2.72v1.18h-4.79c.87,.98,1.65,2.07,2.24,3.19l-1.26,.56h3.78v1.18h-4.76v3.25c0,1.12,.36,1.29,1.68,1.29,.7,0,1.26,.03,2.07-.76l1.18,1.43c-.98,1.18-2.13,1.26-3.86,1.26Zm-.76-13.52l-1.99,.64c-.31-1.65-.62-2.94-1.06-4.54l.9-.36c.9,1.32,1.6,2.63,2.16,4.26Z"/>
      <path class="cls-1" d="M317.53,17.86c.11,3.3-.25,6.22-.84,8.04l-2.52-1.06c.98-1.68,1.9-4.09,2.38-7.08l.98,.11Zm-.81-3.72c1.29-1.57,2.32-3.05,3.33-5.12-1.6,.53-3.44,.92-4.96,1.18l-.5-2.32c.62,0,1.26,.03,1.93,.03,1.01-2.35,1.9-5.24,2.44-7.84l2.41,.76c-.92,2.49-2.38,5.18-3.64,7.06,1.04,0,2.04-.03,2.94-.11,.42-.98,.9-2.1,1.37-3.42l2.32,.98c-1.79,3.7-4.03,6.61-6.13,8.6,1.32-.2,2.63-.45,3.86-.76-.22-.62-.48-1.23-.76-1.88l.84-.5c1.09,1.26,1.93,2.49,2.74,4.06l-2.04,.98c-.11-.59-.28-1.12-.45-1.65-2.41,1.18-5.35,2.24-7.34,2.66l-.67-2.52c.76-.03,1.51-.08,2.3-.17Zm3.08,3.33c.78,1.99,1.68,5.01,1.99,6.58l-2.52,.45c-.06-1.76-.17-4.73-.45-6.83l.98-.2Zm2.41-.73c.98,1.26,2.32,3.5,3.11,5.29l-2.16,.98c-.39-1.57-1.15-4.31-1.79-5.82l.84-.45Zm17.39-3.11l-1.46,2.72c-1.57-.48-4.31-1.48-6.72-3.7-2.04,1.85-4.54,3.28-7.67,4.54l-.42-.92c2.86-1.43,5.07-3.11,6.75-5.04-.95-1.15-1.76-2.52-2.38-4.2-.95,1.43-2.02,2.69-3.33,3.84l-.73-.67c2.04-2.24,3.56-6.22,4.34-10.14l2.8,.95c-.39,.92-.78,1.79-1.18,2.6h4.2l.5-.34,2.46,1.2c-1.04,2.69-2.3,4.87-3.89,6.69,2.46,1.51,5.04,2.07,6.72,2.46Zm-13.52,2.77h10.64v9.66h-2.38v-1.9h-5.94v1.93h-2.32v-9.69Zm5.07-6.52c1.12-1.57,1.93-3.28,2.52-5.07h-4.68c-.22,.48-.48,.92-.76,1.34,.81,1.57,1.82,2.77,2.91,3.72Zm-2.74,12.99h5.94v-5.21h-5.94v5.21Z"/>
      <path class="cls-1" d="M68.36,49.94v9.77c0,2.44-1.93,3.53-6.16,.81l.28-.92c2.94,.7,3.47,.5,3.47-.81v-7.2c-.95,.59-1.85,1.09-2.6,1.51l-1.09-2.63c1.01-.28,2.32-.76,3.7-1.37v-5.8h-3.36v-1.26h3.36v-5.71h2.41v5.71h3v1.26h-3v4.65c.98-.53,1.93-1.06,2.77-1.62l.62,.81c-.92,.92-2.13,1.9-3.39,2.8Zm19.15,8.46l-.78,2.83c-2.07,.17-4.28,.17-6.27,0-2.55-.22-5.01-1.65-6.66-4.68-1.06,2.27-2.52,4.14-4.31,5.6l-.7-.67c2.16-2.46,3.58-6.66,3.95-10.14l2.52,.53c-.22,1.2-.53,2.32-.92,3.36,1.04,1.51,1.99,2.38,3.11,2.88v-8.18h-6.64v-1.26h15.82v1.26h-6.78v3.02h5.57v1.26h-5.57v4.48c.2,0,.39,.03,.62,.03,2.04,.08,4.65,.03,7.06-.34Zm-2.52-11.76h-11.9v-9.07h11.9v9.07Zm-2.46-7.81h-6.97v2.55h6.97v-2.55Zm0,3.81h-6.97v2.74h6.97v-2.74Z"/>
      <path class="cls-1" d="M120.64,47.06v1.54h-6.36v13.69h-2.63v-13.69h-6.24c-.34,7.08-3,11.42-8.6,13.89l-.53-.95c4.87-3.19,6.1-7.03,6.41-12.94h-6.24v-1.54h6.27v-5.71c-1.93,.62-3.95,1.09-5.88,1.4l-.25-1.04c4.9-1.46,7.7-2.94,11-5.43l2.77,1.82c-1.4,.84-3.11,1.62-4.93,2.32v6.64h6.22v-10.61h2.63v10.61h6.36Z"/>
      <path class="cls-1" d="M129.85,51.88l-.42-.92c2.74-1.4,4.98-2.86,5.99-6.36h-5.1v-1.26h5.4c.14-.84,.25-1.79,.28-2.86h-2.04c-.78,1.06-1.62,2.02-2.38,2.66l-.7-.7c1.18-1.76,2.18-4.26,2.63-6.5l2.69,.7c-.34,.78-.84,1.68-1.4,2.58h8.01v1.26h-4.23c-.06,1.04-.14,1.99-.31,2.86h5.15v1.26h-5.49c-.08,.28-.2,.56-.28,.84,2.04,.64,4.06,1.54,5.43,2.44l-1.48,2.21c-1.12-1.09-2.69-2.35-4.45-3.58-1.46,2.69-3.98,4.26-7.31,5.38Zm4.4-1.34h15.79v11.51h-2.46v-1.79h-10.86v1.93h-2.46v-11.65Zm2.46,4h10.86v-2.74h-10.86v2.74Zm0,4.45h10.86v-3.19h-10.86v3.19Zm16.58-20.27v10.67h-2.41v-1.9h-4.51v2.18h-2.41v-10.95h9.32Zm-2.41,7.5v-6.24h-4.51v6.24h4.51Z"/>
      <path class="cls-1" d="M167.12,54.54l.95,.28c-.36,2.49-1.37,4.93-2.86,6.64l-2.13-1.93c1.76-1.23,3.3-2.63,4.03-4.98Zm15.2-3.61h-18.9v-1.26h18.9v-1.32h-16.18v-1.15h18.59v2.46h3.16v1.26h-3.16v2.63h-18.76v-1.15h16.35v-1.48Zm-13.69-6.1h-4.7v-1.15h4.7v-1.57h-3.75v-1.15h3.75v-1.46h-4.37v-1.15h4.37v-1.99h2.35v1.99h3.7v1.15h-3.7v1.46h3.39v1.15h-3.39v1.57h3.7v1.15h-3.7v1.68h-2.35v-1.68Zm13.13,10.81c1.26,4.23,.2,5.4-2.13,5.68-1.65,.2-3.98,.25-5.71,.11-2.58-.2-4.23-.45-4.23-2.52v-4.54h2.46v3.22c0,1.12,.39,1.48,1.96,1.6,1.88,.14,3.75,.08,4.96-.08,1.37-.2,1.65-.5,1.68-3.47h1.01Zm-8.18-.5l.36-.92c1.48,.31,3.28,.73,5.18,1.85l-1.37,2.18c-1.18-1.06-2.74-2.21-4.17-3.11Zm6.24-10.3h-4.09v-1.15h4.09v-1.57h-3.53v-1.15h3.53v-1.46h-4.09v-1.15h4.09v-1.99h2.35v1.99h4.56v1.15h-4.56v1.46h4.14v1.15h-4.14v1.57h5.21v1.15h-5.21v1.68h-2.35v-1.68Zm8.32,14.22l-2.21,1.68c-1.01-2.16-1.93-3.72-3.19-5.66l.73-.59c1.4,.98,3.16,2.49,4.68,4.56Z"/>
      <path class="cls-1" d="M217.94,60.89c-.95-.81-1.71-1.96-2.32-3.36-1.76,2.02-3.98,3.56-6.75,4.65l-.45-.87c2.83-1.48,4.87-3.5,6.44-5.94-1.12-3.89-1.4-8.82-1.48-13.1h-5.4v4.37h4.82c0,2.18,.14,5.99-.14,8.15-.34,2.69-2.35,2.97-5.01,.92l.31-.81c1.9,.45,2.18,.5,2.38-.39,.08-.36,.2-2.88,.17-6.61h-2.52v1.43c0,5.88-1.88,9.77-5.29,12.88l-.7-.67c2.1-2.32,3.11-5.74,3.44-9.24-2.49,1.88-4.65,3.19-7.84,4.82l-1.12-2.72c.92-.2,2.04-.5,3.3-.92v-8.15h-2.94v-1.26h2.94v-7.11l2.41-.03v7.11l2.83,.03v1.26l-2.83-.03v7.34c.9-.36,1.79-.76,2.66-1.18l.59,.84c.08-1.01,.14-2.02,.14-3v-8.29h7.81v-4.76h2.3v4.76h3.14c-.53-1.06-1.4-2.35-2.3-3.5l.67-.78c1.37,.78,2.74,1.85,3.81,2.86l-1.71,1.43h1.88v1.26h-5.46c.03,3.3,.22,6.89,.76,9.94,.98-2.32,1.65-4.93,2.13-7.76l2.49,.73c-.84,4.06-2.04,7.45-3.84,10.19,.34,1.01,.76,1.88,1.23,2.58,1.34,1.99,1.93,.81,1.93-2.88h.9c1.74,5.35-.34,8.37-3.36,5.82Z"/>
      <path class="cls-1" d="M244.12,41.85v4.59h8.09v10c0,3-3.05,3.5-6.75,.92l.28-.95c3.39,.73,3.89,.48,3.89-.78v-7.92h-5.52v14.64h-2.63v-14.64h-5.4v12.07h-2.58v-13.33h7.98v-4.59h-10.95v-1.4h12.32c-1.32-1.4-2.86-2.8-4.03-3.81l.45-.92c1.9,.62,4.26,1.79,5.94,2.97l-1.37,1.76h11.17v1.4h-10.89Z"/>
      <path class="cls-1" d="M269.88,42.8v19.29h-2.41v-14.59c-1.06,1.65-2.16,2.94-3.14,3.84l-.73-.73c1.9-2.6,4.17-7.2,5.4-14.5l2.74,.64c-.5,2.24-1.15,4.26-1.88,6.05Zm14.78,17.47c-2.32-1.96-4.09-6.05-4.79-13.16h-4.14v8.37c1.57-.34,3.14-.76,4.34-1.2l.39,.95c-2.44,1.65-5.74,2.8-8.23,3.67l-.95-2.69c.62-.06,1.32-.17,2.04-.28v-17.36l2.3,.59c3.19-.5,7.28-1.74,9.35-3.02l2.3,2.3c-1.34,.5-3.28,.92-5.29,1.23-.03,2.27,.06,4.34,.22,6.19h6.05v1.26h-5.94c.62,5.38,1.93,8.85,3.33,10.42,1.34,1.54,1.79,.62,1.9-3.33h1.01c1.51,5.18-.45,9.04-3.89,6.08Zm-12.77-.28h11.45v1.26h-11.45v-1.26Zm7.87-14.14c-.14-1.79-.2-3.75-.2-5.88-1.37,.14-2.69,.22-3.84,.28v5.6h4.03Z"/>
      <path class="cls-1" d="M306.22,57.7h-4.2v2.94h-2.3v-9.86c-.7,1.4-1.34,2.44-1.79,2.94l-.76-.59c1.6-2.49,3.16-8.09,3.47-13.66h-2.69v-1.26h9.27v1.26h-4.03c-.17,2.24-.78,4.68-1.6,6.92l4.62-.03v11.34Zm-2.3-10.05h-1.9v8.79h1.9v-8.79Zm.92,14.34l-.64-.7c4.03-4.4,3.22-10.98,3.25-15.57h14.31v1.26h-11.82c.08,4-.14,11.03-5.1,15.01Zm16.13-18.2h-13.13l.03-6.02h2.24v4.76h3.19v-6.27h2.35v6.27h3.08v-4.68h2.24v5.94Zm1.71,15.76l-1.79,2.69c-1.54-.98-3.78-4.12-4.51-8.74-.9,4.2-3.16,7-7.78,8.88l-.45-.81c3.14-1.71,4.68-3.81,5.4-6.44l-1.85,.76c-.34-1.48-.87-3.53-1.51-5.29l.87-.39c1.04,1.32,2.07,2.94,2.66,4.26,.42-1.9,.5-4.09,.5-6.52l2.66,.17c-.06,1.2-.11,2.32-.2,3.42,.22,.92,.5,1.79,.84,2.55,.81-1.26,1.51-2.8,1.96-4.09l2.35,1.32c-1.29,1.65-2.41,2.74-3.81,3.81,1.12,2.02,2.72,3.44,4.65,4.45Z"/>
      <path class="cls-1" d="M334.95,56.55v-6.13h-3.5v-1.26h5.91v7.34c1.54,2.3,5.07,2.49,7.56,2.49,3.64,0,8.48-.28,11.7-.7l-1.01,2.74c-3,.2-7.45,.22-10.84,.14-5.07-.11-7.34-2.04-8.51-4.23-.92,1.99-2.27,4.06-3.53,5.49l-1.71-1.74c1.26-.98,2.97-2.8,3.92-4.14Zm-3.19-13.92l.53-.87c1.57,.78,3.67,1.99,5.15,3.36l-1.79,1.99c-.95-1.29-2.58-3.22-3.89-4.48Zm.87-5.63l.5-.81c1.54,.62,3.67,1.82,5.15,3.11l-1.76,1.99c-1.06-1.34-2.46-2.88-3.89-4.28Zm13.33,2.83h2.41v2.16h6.1v1.26h-6.1v1.68h5.52v7.39h-5.52v1.74h7.28v1.26h-7.28v2.94h-2.41v-2.94h-7.03v-1.26h7.03v-1.74h-5.46v-7.39h5.46v-1.68h-6.3v-1.26h6.3v-2.16Zm9.1-2.21v3.81h-2.35v-2.55h-11.28v2.55h-2.35v-3.81h15.99Zm-9.1,8.48h-3.22v1.85h3.22v-1.85Zm0,2.97h-3.22v2.07h3.22v-2.07Zm5.68-2.97h-3.28v1.85h3.28v-1.85Zm0,2.97h-3.28v2.07h3.28v-2.07Z"/>
      <path class="cls-1" d="M390.25,43.62l-1.6,2.58c-.98-.62-2.18-1.48-3.33-2.69v1.26h-7.36v-.73c-1.01,.95-2.1,1.79-3.25,2.52l-.11-.17v6.64h-3.47v2.38h3.98v1.26h-3.98v5.38h-2.35v-5.38h-4.2v-1.26h4.2v-2.38h-3.5v-9.46h3.5v-2.18h-3.89v-1.26h3.89v-3.84h2.35v3.84h4.09v1.26h-4.09v2.18h3.47v1.79c2.38-2.21,4.26-4.82,5.74-9.46l2.46,.87-.34,.87c2.07,3.42,5.38,4.98,7.78,5.99Zm-21.22,1.2h-1.57v2.83h1.57v-2.83Zm0,4h-1.57v2.94h1.57v-2.94Zm3.44-4h-1.6v2.83h1.6v-2.83Zm0,4h-1.6v2.94h1.6v-2.94Zm2.97-2.04h6.44v12.85c0,3.05-2.27,2.58-4.03,1.4l.25-.9c1.57,.39,1.6,.11,1.6-1.09v-3.28h-2.18v6.3h-2.07v-15.29Zm2.07,1.26v2.44h2.18v-2.44h-2.18Zm2.18,6.5v-2.83h-2.18v2.83h2.18Zm5.63-11.03c-1.23-1.26-2.41-2.83-3.36-4.79-.9,1.79-2.07,3.39-3.44,4.79h6.8Zm.59,3.05h2.3v12.8c0,2.69-1.96,4.06-5.6,1.32l.28-.95c2.69,.67,3.02,.53,3.02-1.15v-12.01Zm-.98,1.4v9.27h-1.96v-9.27h1.96Z"/>
    </g>
  </g>
</svg>