<?xml version="1.0" encoding="UTF-8"?>
<svg id="_圖層_2" data-name="圖層 2" xmlns="http://www.w3.org/2000/svg" viewBox="0 0 460.07 24.91">
  <defs>
    <style>
      .cls-1 {
        fill: #fff;
      }
    </style>
  </defs>
  <g id="_圖層_3" data-name="圖層 3">
    <g>
      <path class="cls-1" d="M23.84,20.8l-.94,2.5c-2.78,.18-7.36,.26-10.5,.13-5.33-.21-6.81-1.43-7.9-3.46-.86,1.85-1.74,3.22-2.91,4.55l-1.59-1.61c1.17-.91,2.37-2.05,3.25-3.3v-6.11H.23v-1.17H5.54v7.23c1.43,2.13,4.68,1.82,6.99,1.82,3.38,0,8.32-.18,11.31-.57ZM.52,6.32l.49-.81c1.46,.65,3.41,1.85,4.78,3.12l-1.66,1.85c-.88-1.2-2.39-2.99-3.61-4.16ZM1.59,1.43l.47-.75c1.43,.57,3.41,1.69,4.78,2.89l-1.64,1.85c-.96-1.25-2.26-2.68-3.61-3.98ZM11,18.12v-2.42c-1.38,.68-2.78,1.22-3.93,1.51l-.34-.83c2.39-.99,4.21-2.18,5.64-3.56h-3.59v-4.42h11.99v4.42h-5.38c-.55,.55-1.35,1.14-2.26,1.69v3.17c1.04-.23,2.08-.49,3.04-.75l.26,.86c-2.08,1.09-5.69,2.42-7.59,2.81l-.62-2.11c.88-.08,1.82-.21,2.78-.36ZM22.7,7.02H7.2v-1.14h6.37V3.87h-5.33v-1.14h5.33V.36h2.29V2.73h5.51v1.14h-5.51v2h6.84v1.14Zm-11.62,4.68h7.41v-2.18h-7.41v2.18Zm11.83,2.7c-1.01,.73-2.11,1.27-3.17,1.72,1.2,.62,2.31,1.33,3.09,1.98l-1.59,2.03c-1.38-1.64-4.52-4.08-6.21-5.12l.39-.78c.94,.31,2.05,.78,3.15,1.3,.94-.73,1.98-1.72,2.68-2.68l1.66,1.56Z"/>
      <path class="cls-1" d="M43.42,.36h2.24V9.33c0,7.15-.78,12.71-8.03,15.29l-.42-.86c4.63-2.37,5.82-5.72,6.11-10.11-.91,.96-1.9,1.82-3.2,2.68l-.78-1.46v6.4h-2.18v-1.53h-2.6v2.7h-2.24V1.59h7.02V13.94c1.33-.47,2.68-1.09,4.06-1.95,.03-.73,.03-1.46,.03-2.24v-.31l-2.05,.91c-.42-1.66-1.27-4.52-1.82-6.01l.83-.44c1.09,1.33,2.39,3.38,3.04,4.81V.36Zm-8.87,6.45h2.6V2.76h-2.6V6.81Zm0,5.59h2.6V7.98h-2.6v4.42Zm2.6,6.16v-4.99h-2.6v4.99h2.6Zm15.34,5.15c-.65,.05-2.29,.08-3.04,0-1.85-.18-2.26-.78-2.26-2.86V.36h2.24v7.7c.78-1.14,1.43-2.47,2.08-4.03l2.29,1.35c-1.04,1.51-2.94,3.28-4.37,4.29v2.05c2.03,.94,3.59,1.82,4.97,2.99l-1.64,2c-1.12-1.27-2.11-2.37-3.33-3.48v7.2c0,.99,.1,1.25,1.61,1.25,1.69,0,1.82-.34,1.85-4.08h.94c1.25,4.65,.81,5.9-1.33,6.11Z"/>
      <path class="cls-1" d="M84.63,1.33V24.31h-2.29v-1.33h-16.3v1.4h-2.29V1.33h20.88Zm-2.29,1.17h-16.3V21.81h16.3V2.5Zm-15.16,17.13l-.75-2.11c2.78-.47,6.03-1.4,8.06-2.16l.34,.83c-1.92,1.22-5.17,2.68-7.64,3.43Zm7.25-12.06h-7.9v-1.17h7.83c-.05-1.04-.08-2.13-.08-3.28h2.08c0,1.07,0,2.16,.05,3.28h2.5c-.49-1.01-1.2-2.29-1.66-3.07l.73-.55c.86,.62,2.16,1.92,2.81,2.83l-1.12,.78h2.21v1.17h-5.41c.13,2.11,.34,4.19,.73,5.95,.57-1.33,1.04-2.86,1.51-4.73l2,.73c-.83,2.65-1.69,4.71-2.78,6.37,.42,.96,.91,1.72,1.53,2.13s.68-.96,.68-3.59h.94c1.25,4.06,.6,7.7-2.21,5.88-.94-.6-1.69-1.51-2.29-2.68-1.35,1.43-3.02,2.52-5.28,3.56l-.44-.81c2.26-1.38,3.82-2.68,4.99-4.39-.75-2.16-1.2-4.99-1.4-8.42Zm-7.1,7.44v-5.67h6.27v5.67h-6.27Zm1.92-1.09h2.42v-3.48h-2.42v3.48Z"/>
      <path class="cls-1" d="M99.5,14.92c-.1-1.64-.49-3.09-1.74-5.33,.47-1.53,.99-4.52,1.27-6.84h-1.92V24.49h-2.18V1.09l2.18,.57h1.79l.57-.39,2.18,.96c-1.09,3.25-2.16,5.88-3.02,7.2,1.74,2,2.68,3.93,2.89,6.08,.31,3.15-1.59,4.19-4.16,2.52l.23-.88c1.82,.36,2.05,.05,1.9-2.24Zm.36,8.29l-.57-.73c1.64-1.4,3.67-3.9,4.76-6.32l2.24,1.2c-1.61,2.37-4.65,4.76-6.42,5.85Zm-.1-14.46c1.87-2.6,2.91-5.59,3.56-8.74l2.13,.55c-.18,.65-.44,1.33-.73,2.03h1.69l.57-.36,1.95,.83c-.78,3.07-1.92,5.49-3.48,7.44h7.25v1.14h-7.67v-.65c-.91,1.07-1.98,1.95-3.17,2.76l-.52-.75c1.07-.96,1.98-2.03,2.73-3.15-.57-.78-1.38-1.72-2.03-2.42-.52,.7-1.09,1.35-1.69,1.9l-.6-.57Zm10.27,13.05c.03,3.09-2.86,3.61-6.27,.83l.36-.86c3.15,.96,3.61,.86,3.61-.6v-5.85h-5.56v-1.17h13.83v1.17h-5.98v6.47Zm-5.07-13.47c.21-.39,.39-.81,.57-1.22-.65-.62-1.43-1.27-2.13-1.79-.26,.49-.55,.96-.86,1.4,.78,.44,1.69,1.04,2.42,1.61Zm-.7-4.65l-.42,.86c.7,.26,1.53,.62,2.26,1.04,.21-.65,.36-1.27,.47-1.9h-2.31Zm4.37-3.33l.94-.16c.52,2.73,1.43,4.76,2.57,6.32,.78-1.14,1.3-2.13,1.72-3.38h-3.3l-.03-1.09h3.25l.6-.39,2.08,1.2c-1.51,2.47-2.5,3.43-3.72,4.39,1.3,1.56,2.86,2.63,4.45,3.51l-1.59,2.26c-3.38-2.39-5.82-5.64-6.97-12.66Zm8.74,20.9l-1.98,1.72c-.73-1.25-2.68-4.06-4.29-6.01l.65-.68c2.13,1.46,4.52,3.59,5.62,4.97Z"/>
      <path class="cls-1" d="M131.46,12.56v11.86h-2.24V13.94c-1.17,1.17-2.52,2.18-3.98,3.02l-.49-.78c4-3.12,5.72-6.68,6.66-9.98h-5.9v-1.17h4.08c-.49-1.12-1.48-3.15-2.29-4.42l.62-.55c1.33,1.01,2.76,2.29,3.82,3.64l-1.79,1.33h1.61l.44-.39,2.24,1.01c-.6,1.92-1.48,3.74-2.63,5.41,1.48,.99,2.63,2.13,3.59,3.28l-1.92,1.69c-.62-1.3-1.12-2.34-1.82-3.46Zm13.39,11.31c-3.35,0-3.64-.62-3.64-2.65v-5.9h-.99c-.36,5.1-3.17,7.72-7.83,9.36l-.42-.86c3.9-1.82,5.72-4.63,5.95-8.5h-2.52V1.72h10.74V15.31h-2.7v5.41c0,.86,.21,1.07,1.53,1.07,1.43,0,1.66-.31,1.66-3.93h.94c1.2,4.68,.91,6.01-2.73,6.01Zm-7.31-18.04h6.42V2.89h-6.42v2.94Zm0,4.21h6.42v-3.04h-6.42v3.04Zm0,4.11h6.42v-2.94h-6.42v2.94Z"/>
      <path class="cls-1" d="M168.56,19.55c-3.41,1.66-8.32,3.15-11.83,3.74l-.65-2.5c1.56-.1,3.3-.31,5.12-.62v-3.46h-4.45v-1.17h4.45v-2.91h-3.93V1.48h9.98V12.64h-3.87v2.91h4.5v1.17h-4.5v3.07c1.66-.31,3.3-.7,4.86-1.12l.31,.88Zm-9.15-13.16h1.79V2.65h-1.79v3.74Zm1.79,5.07v-3.9h-1.79v3.9h1.79Zm2.18-5.07h1.74V2.65h-1.74v3.74Zm0,5.07h1.74v-3.9h-1.74v3.9Zm15.55-1.04c-.81,1.51-2.47,3.87-3.41,4.68l-.73-.49c.55-1.22,1.14-2.89,1.4-3.82h-2.08v11.21c0,2.42-2.24,3.43-6.5,.73l.26-.88c3.51,.86,3.95,.49,3.95-.73V10.79h-4.08v-1.17h5.62c-1.07-1.35-2.63-2.99-4.03-4.29l.44-.7c1.04,.52,2.13,1.12,3.2,1.82,.96-1.14,2.26-3.02,2.76-4.03h-7.51V1.25h7.62l.52-.34,2.47,1.53c-1.25,1.51-3.25,3.33-5.04,4.55,.57,.39,1.09,.83,1.59,1.27l-1.35,1.35h2.21l.49-.42,2.21,1.22Z"/>
      <path class="cls-1" d="M197.24,17.52l-.55-.73c1.98-.78,3.09-2.44,3.3-4.16-.18,.1-.73,.13-.88,.13-1.22,0-2.08-.81-2.08-2.08s.88-2.08,2.11-2.08c1.59,0,2.63,.96,2.63,2.91,0,2.89-1.85,5.46-4.52,6.01Z"/>
      <path class="cls-1" d="M226.8,2.83c-.44,.7-.96,1.38-1.51,2.03,1.04,.7,2.05,1.59,2.99,2.63l-1.38,1.17h4.39v6.99h-8.01c-.08,.7-.18,1.35-.31,1.98h8.74v6.71h-2.24v-1.33h-5.04v1.46h-2.08v-4.65c-.75,2.08-1.87,3.61-3.22,4.73l-.68-.65c2.21-2.83,2.73-5.77,2.73-12.4v-2.91c-.7,.52-1.43,.96-2.16,1.38l-.55-.73c2.86-2.39,5.69-5.75,6.81-9.15l2.57,.81c-.16,.34-.31,.65-.49,.99,2.11,1.22,4.19,2.76,5.17,3.82l-1.72,1.74c-.99-1.38-2.5-3.09-4.03-4.6Zm-2.29,2.91c-.88,.91-1.87,1.77-2.91,2.55l1.69,.36h3.04c-.57-.99-1.22-2.03-1.82-2.91Zm4.6,8.76v-1.77h-5.64c0,.62-.03,1.2-.08,1.77h5.72Zm0-4.68h-5.67l.03,1.74h5.64v-1.74Zm-4.68,8.97v3.15h5.04v-3.15h-5.04ZM240.37,.42V21.61c0,3.28-2.6,3.87-6.97,1.07l.31-.88c3.48,.83,4.34,.99,4.34-.68V.42h2.31Zm-4.52,18.02h-2.13V3.12h2.13v15.31Z"/>
      <path class="cls-1" d="M273.34,20.85l-.65,2.63c-2.78,.23-8.27,.23-10.63,.1-3.98-.23-5.69-.81-7.54-3.82-.94,1.66-2.13,3.46-3.48,4.84l-1.48-1.53c1.35-1.01,2.94-2.44,3.69-3.61v-5.85h-3.43v-1.2h5.72v6.84c1.53,2.13,3.25,2.18,6.66,2.26,3.38,.08,8.16-.23,11.15-.65Zm-19.45-10.48c-.86-1.14-2.44-2.99-3.54-4.13l.52-.78c1.3,.65,3.3,1.77,4.71,2.99l-1.69,1.92Zm-1.98-9.26l.49-.78c1.27,.57,3.46,1.69,4.78,2.86l-1.66,1.9c-1.01-1.33-2.31-2.76-3.61-3.98Zm6.45,7.59l-.73-.55c1.35-2.47,1.77-4.97,2.11-7.38l2.44,.49c-.13,.75-.49,1.9-1.01,3.12h2.44V.26h2.39V4.39h5.07v1.17h-5.07v3.64h6.45v1.17h-15.42v-1.17h6.58v-3.64h-3.02c-.6,1.14-1.35,2.26-2.24,3.15Zm10.12,11.23v-1.59h-7.28v1.64h-2.29v-7.7h11.86v7.64h-2.29Zm0-2.76v-3.72h-7.28v3.72h7.28Z"/>
      <path class="cls-1" d="M304.04,3.56v1.17h-22.8v-1.17h11.36c-1.22-.83-2.91-1.87-4.21-2.6l.31-.88c1.69,.29,4.47,1.01,5.85,1.69l-1.04,1.79h10.53Zm-21.45,8.94h20.07v9.26c0,3.2-2.7,3.61-6.92,1.25l.26-.91c3.69,.73,4.26,.55,4.26-1.12v-7.31h-15.34v10.82h-2.34V12.51Zm16.3-6.32v4.78h-12.79V6.19h12.79Zm-3.67,15.29v-1.35h-5.2v1.74h-2.18v-6.58h9.57v6.19h-2.18Zm1.48-14.12h-8.45v2.44h8.45v-2.44Zm-1.48,11.65v-2.6h-5.2v2.6h5.2Z"/>
      <path class="cls-1" d="M312.62,14.17l-.62-.68c1.66-1.87,3.15-4.5,3.82-6.97l2.31,.99c-1.25,2.37-3.07,4.81-5.51,6.66Zm6.89,3.9c-1.79,2.99-4.21,5.17-6.94,6.6l-.52-.81c2.83-2.05,4.65-4.37,5.93-7.33-1.14-1.09-2.29-2.08-3.33-2.86l.47-.81c1.17,.55,2.34,1.22,3.51,1.95,.44-1.27,.78-2.65,1.09-4.19l2.42,.7c-.39,1.77-.94,3.35-1.59,4.81,1.46,1.09,2.84,2.31,4.01,3.67l-2.08,1.98c-.83-1.27-1.87-2.52-2.96-3.72Zm5.59-12.25h-12.77v-1.17h6.34c-.99-1.38-2.08-2.68-3.17-3.82l.57-.75c1.38,.62,3.35,1.82,4.68,3.12l-1.4,1.46h5.75v1.17Zm-4.86,.6c1.35,.65,3.12,1.69,4.58,3.2l-1.69,1.72c-.99-1.48-2.26-3.02-3.41-4.16l.52-.75Zm15.39,15.39l-1.95,2.63c-1.33-.96-3.12-2.47-4.6-4.99-1.79,2.26-4.19,4.06-7.15,5.2l-.47-.83c2.86-1.72,5.07-3.77,6.63-6.32-.81-1.85-1.46-4.13-1.74-6.94-.65,1.38-1.43,2.57-2.29,3.51l-.73-.57c1.72-3.12,2.76-7.64,3.3-13.23l2.57,.47c-.26,1.85-.68,3.72-1.2,5.51h7.31v1.17h-1.98c-.18,3.74-1.17,7.25-2.96,10.19,1.59,2.05,3.51,3.38,5.25,4.21Zm-6.53-6.21c1.01-2.31,1.61-5.02,1.79-8.19h-3.25c-.16,.47-.34,.91-.49,1.38,.26,2.76,.99,4.99,1.95,6.81Z"/>
      <path class="cls-1" d="M350.38,14.69c0,3.12-.15,5.36-.6,6.97-.88,3.22-3.51,3.72-6.11,.88l.36-.86c2.47,1.04,3.15,.96,3.67-1.09,.42-1.61,.57-4,.52-7.02v-.36c-1.01,1.79-2.29,3.3-4.65,4.78l-.47-.7c2.65-2.63,3.85-4.94,4.81-8.32-.11-.75-.26-1.46-.47-2.13-1.04,1.2-2.37,2.34-3.95,3.17l-.42-.75c1.38-1.07,2.57-2.52,3.56-4.24-.6-1.12-1.46-2.21-2.65-3.43l.6-.7c1.14,.81,2.08,1.72,2.83,2.68,.44-.99,.86-2.03,1.2-3.12l2.16,1.04c-.36,.78-1.07,2.29-2.18,3.9,1.46,2.78,1.79,6.01,1.79,9.31Zm15.13,9.91c-2.76-.39-4.89-1.09-6.6-2.03-2.31,1.12-5.12,1.82-8.55,2.08l-.23-.88c3.04-.44,5.36-1.25,7.18-2.24-1.3-.99-2.31-2.16-3.15-3.43h-3.12v-1.17h10.66l.57-.39,2.37,1.2c-.99,1.38-2.13,2.52-3.46,3.51,1.46,.36,3.25,.68,5.51,.94l-1.17,2.42Zm-13.1-8.14v-6.66c-.52,.52-1.04,.99-1.54,1.4l-.62-.7c1.53-1.72,2.5-3.9,3.2-5.82l2.11,.91c-.23,.47-.52,.94-.83,1.4h4.31c-.52-.78-1.06-1.51-1.66-2.21l.52-.73c1.04,.52,2.08,1.22,2.86,2.03l-.94,.91h5.82v1.12h-5.36v1.4h4.63v1.09h-4.63v1.38h4.63v1.09h-4.63v1.38h5.64v1.12h-11.34v.88h-2.18Zm2.34-13h-3.62v-1.17h3.62V.39h2.13v1.9h3.64V.39h2.13v1.9h3.8v1.17h-3.8v1.66h-2.13v-1.66h-3.64v1.46h-2.13v-1.46Zm3.41,4.65h-3.56v1.4h3.56v-1.4Zm0,2.5h-3.56v1.38h3.56v-1.38Zm0,2.47h-3.56v1.38h3.56v-1.38Zm.75,7.41c.99-.75,1.79-1.56,2.47-2.39h-5.93c1.07,1.04,2.11,1.79,3.46,2.39Z"/>
      <path class="cls-1" d="M388.18,14.72l-1.9,1.79c-1.06-1.77-2.34-3.48-3.28-4.71v12.56h-2.39V13.26c-1.25,2.24-3.46,5.12-5.69,6.89l-.62-.75c1.93-2.24,4.79-6.42,6.03-10.56h-5.43v-1.17h5.72v-3.54c-1.48,.23-2.96,.39-4.58,.52l-.16-.91c3.95-.75,6.5-1.72,9.15-3.38l2,2.05c-1.4,.55-2.73,.94-4.03,1.25V7.67h4.89v1.17h-4.89v1.61c1.59,.99,3.41,2.34,5.17,4.26Zm2.76,3.87h-2.18V2.29h2.18V18.59ZM396.11,.42V21.24c0,3.28-2.13,4.16-6.92,1.07l.31-.88c3.48,.83,4.26,.99,4.26-.68V.42h2.34Z"/>
      <path class="cls-1" d="M411.11,6.66V24.39h-2.18V10.69c-1.04,1.56-2.08,2.76-3.02,3.56l-.68-.65c1.85-2.39,4.29-7.18,5.38-13.6l2.52,.62c-.52,2.24-1.22,4.26-2.03,6.03Zm6.73,13.47l2.26,1.4c-1.82,1.3-5.43,2.76-8.04,3.25l-.26-.88c2.73-1.04,4.71-2.44,6.03-3.77Zm5.8-17.03v1.69h4.29v4.86h-14.56V4.78h4.24v-1.69h-4.47V1.92h15.31v1.17h-4.81Zm-9.18,16.72V10.89h12.25v8.92h-12.25Zm1.09-11.28h2.05v-2.63h-2.05v2.63Zm1.09,4.94h7.83v-1.46h-7.83v1.46Zm0,2.57h7.83v-1.53h-7.83v1.53Zm0,2.65h7.83v-1.61h-7.83v1.61Zm4.92-15.6h-1.87v1.69h1.87v-1.69Zm-1.87,5.43h1.87v-2.63h-1.87v2.63Zm9.23,14.22l-1.27,2.16c-1.87-1.4-4.42-2.78-6.01-3.64l.29-.91c1.74,.36,4.84,1.2,6.99,2.39Zm-5.28-16.85v2.63h2.11v-2.63h-2.11Z"/>
      <path class="cls-1" d="M442.34,7.18V24.39h-2.24V11.15c-.75,1.07-1.59,2.08-2.57,3.04l-.68-.65c2.62-3.9,4.08-7.88,4.96-13.47l2.57,.55c-.49,2.31-1.14,4.5-2.05,6.55Zm17.73,15.19v1.17h-16.67v-1.17h2.37V7.51h4c.13-.88,.29-1.9,.42-2.91h-5.77v-1.17h5.93c.16-1.09,.29-2.18,.39-3.09l2.42,.26c-.16,1.04-.31,1.98-.42,2.83h6.34v1.17h-6.53c-.13,1.04-.26,2-.42,2.91h5.46v14.85h2.47Zm-4.6-13.68h-7.67v2.42h7.67v-2.42Zm0,3.51h-7.67v2.57h7.67v-2.57Zm0,3.67h-7.67v2.65h7.67v-2.65Zm0,3.74h-7.67v2.76h7.67v-2.76Z"/>
    </g>
  </g>
</svg>