<?xml version="1.0" encoding="UTF-8"?>
<svg id="_圖層_2" data-name="圖層 2" xmlns="http://www.w3.org/2000/svg" viewBox="0 0 501.02 129.52">
  <defs>
    <style>
      .cls-1 {
        fill: #fff;
      }
    </style>
  </defs>
  <g id="_圖層_3" data-name="圖層 3">
    <g>
      <path class="cls-1" d="M20.11,18.14c-1.64,3.46-4.38,7.94-5.63,9.33l-1.4-.67c.82-2.12,1.59-5.05,2.02-7.75h-3.46v21.6c0,3.9-3.32,6.4-11.07,1.64l.58-1.73c5.53,1.49,6.25,1.15,6.25-.96V19.05H0v-2.07H10.82c-1.68-2.17-3.94-4.76-6.06-7.07l1.01-1.3c1.35,.72,3.03,1.73,4.67,2.79,1.25-2.12,2.55-4.76,3.08-6.5H1.49V2.89H13.62l1.11-.77,4.28,2.5c-1.92,2.79-4.57,5.92-6.83,7.99,.96,.72,1.83,1.44,2.5,2.17l-2.17,2.21h2.55l1.01-.82,4.04,1.97Zm6.01,17.85l3.9,2.74c-4.23,3.32-9.86,6.06-14.82,7.41l-.67-1.59c3.9-1.83,8.32-4.86,11.59-8.56Zm2.26-30.31h-8.76V3.51h22.8v2.17h-9.38c-1.11,2.02-2.41,4.09-3.37,5.44h10.01v23.96H20.78V11.11h6.78c.34-1.68,.63-3.85,.82-5.44Zm7.17,7.6h-10.73v4.86h10.73v-4.86Zm0,7.02h-10.73v5.15h10.73v-5.15Zm0,7.31h-10.73v5.29h10.73v-5.29Zm8.13,13.9l-2.74,4.09c-2.36-2.17-6.54-5.49-10.3-7.99l.72-1.59c4.19,1.2,8.28,2.93,12.32,5.48Z"/>
      <path class="cls-1" d="M58.69,30.65c.24,5.68-.29,11.02-1.49,14.14l-4.43-1.88c1.78-2.89,3.42-7.31,4.19-12.46l1.73,.19Zm8.61-11.5c2.36,2.55,5.1,6.21,6.49,8.95l-3.85,2.07c-.43-1.39-1.01-2.98-1.64-4.57-4.52,1.64-10.1,3.13-14.39,3.8l-.96-4.62c1.15,.05,2.36,.05,3.61,0,2.31-2.6,4.28-5.29,6.3-8.76-2.74,.87-5.73,1.59-8.37,1.97l-.87-4.09c1.01,.05,2.02,.05,2.98,.05,1.78-3.71,3.75-9.09,4.96-13.71l4.43,1.54c-2.07,4.43-4.86,9-7.31,12.17,1.92-.1,3.8-.19,5.53-.34,1.01-1.88,2.02-3.95,3.13-6.3l4.19,2.07c-3.56,6.25-8.32,11.69-12.46,15.3,2.84-.19,5.77-.48,8.47-.82-.58-1.4-1.15-2.69-1.73-3.8l1.49-.91Zm-4.67,10.78c1.59,3.8,3.08,8.56,3.66,12.08l-4.43,.67c0-3.42-.43-8.52-.91-12.37l1.68-.38Zm4.23-1.44c2.07,2.36,4.76,6.83,5.97,9.53l-3.95,1.68c-.82-3.17-2.21-7.46-3.56-10.49l1.54-.72Zm26.85-18.67c-.05,16.36-.53,25.35-1.3,29.92-1.06,6.25-6.83,7.46-15.44,.43l.72-1.59c7.6,2.6,9.67,3.22,10.39-.67,.53-2.79,1.2-10.25,1.2-25.93h-12.41c-1.49,2.89-3.42,5.82-5.92,8.47l-1.4-1.11c3.66-6.4,5.44-12.41,6.59-19.15l4.71,1.15c-.53,2.17-1.44,5.2-2.93,8.47h15.78Zm-12.51,21.65c-1.59-4.14-3.7-8.76-5.92-12.85l1.4-1.06c3.37,3.17,6.69,7.46,8.9,11.5l-4.38,2.41Z"/>
      <path class="cls-1" d="M149.18,36.37l-3.27,5.63c-5.2-2.65-12.56-8.76-16.41-16.79v20.25h-4.62V25.4c-3.8,6.74-11.26,12.94-18.38,16.55l-.96-1.59c7.89-5.34,13.09-11.4,16.55-17.75h-14.96v-2.65h17.75v-7.6h-14.39v-2.41h14.39V.67h4.62V9.96h14.19v2.41h-14.19v7.6h17.85v2.65h-16.98c4.76,6.88,12.51,11.55,18.81,13.76Z"/>
      <path class="cls-1" d="M201.13,36.9l-3.18,5.29c-6.35-3.66-11.69-8.61-15.73-16.07v19.2h-4.43V27.86c-3.75,5.15-10.1,10.92-17.95,14.43l-.77-1.59c5.87-3.27,12.99-10.2,16.74-16.36l-2.65,1.83c-.91-2.36-1.97-4.57-2.89-6.4-1.59,4.14-4.04,7.79-8.42,11.26l-1.15-1.3c4.57-5.39,6.3-10.78,6.88-18.14l4.57,.87c-.29,1.68-.63,3.27-1.06,4.81,1.92,1.78,4.09,3.95,5.39,5.92,.53-.96,.96-1.88,1.3-2.74V10.25h-16.98v-2.65h16.98V.53h4.43V7.6h17.18v2.65h-17.18v12.03c.63,.87,1.25,1.68,1.88,2.41,2.6-3.9,3.85-7.5,4.62-13.18l4.52,1.16c-.53,1.78-1.11,3.42-1.78,4.91,2.84,2.02,5.48,4.47,7.07,6.3l-3.37,3.13c-1.4-2.5-3.08-5.15-4.71-7.36-1.4,2.65-3.03,4.76-5.05,6.59,4.62,5.2,9.43,8.18,15.73,10.68Z"/>
      <path class="cls-1" d="M229.75,32.38l-1.01-1.35c3.66-1.44,5.73-4.52,6.11-7.7-.34,.19-1.35,.24-1.64,.24-2.26,0-3.85-1.49-3.85-3.85s1.64-3.85,3.9-3.85c2.94,0,4.86,1.78,4.86,5.39,0,5.34-3.42,10.1-8.37,11.11Z"/>
      <path class="cls-1" d="M273.72,28.96c-1.73,5.24-5.48,10.3-8.23,12.89l-1.2-1.15c1.78-2.79,4.33-7.84,5.44-13.04l3.99,1.3Zm14.91-19.05h-23.91v-2.17h12.12c-1.59-1.97-4.14-4.76-5.63-6.21l.91-1.54c2.55,1.06,6.69,3.51,8.47,5.1l-2.36,2.65h10.39v2.17Zm-9.33,15.06v15.25c0,4.62-2.55,7.02-10.68,2.31l.63-1.59c5.77,1.11,6.01,.43,6.01-1.73v-14.24h-7.07V13.57h17.27v11.4h-6.16Zm-7.07-2.17h9.24v-7.07h-9.24v7.07Zm11.02,16.36c-.58-2.98-1.92-7.89-3.08-11.07l1.49-.77c1.92,2.45,4.43,6.88,5.68,9.96l-4.09,1.88Zm12.36-22.28c-.67,15.54-3.46,22.66-12.17,28.77l-1.15-1.3c6.83-6.3,8.61-13.33,9.09-27.47h-4.76v-2.17h4.81c.1-4.09,.1-8.76,.1-14.14h4.23c.05,5.34,.05,10.01-.1,14.14h11.21v2.17h-11.26Zm6.64,27.52c-5.53,0-6.69-.96-6.69-4.57V20.25h3.94v17.32c0,2.36-.05,2.94,2.65,2.94s2.45-.77,2.21-9.43h1.73c3.03,11.4,1.78,13.33-3.85,13.33Zm-.39-31.37c-1.01-2.93-2.5-6.4-3.9-9.19l1.4-.96c2.31,1.97,4.76,5.29,6.25,8.08l-3.75,2.07Z"/>
      <path class="cls-1" d="M360.75,38.63l-1.64,5.05c-3.42,.29-9.04,.29-12.89,.05-5.77-.34-13.76-2.02-17.32-9.62-1.64,4.71-4.62,8.71-10.73,11.74l-.96-1.49c6.64-5.05,7.6-9.81,8.42-18.04l4.91,.58c-.24,1.73-.58,3.42-.96,5,2.07,3.42,4.52,5.24,7.7,6.25v-14.15h-18.86v-2.41h41.28v2.41h-17.8v5.44h14.14v2.17h-14.14v7.46c1.54,.14,3.27,.24,5.15,.34,3.75,.14,9.29-.05,13.71-.77Zm-8.32-20.5h-26.75V2.74h26.75v15.4Zm-4.33-13.23h-18.09v4.43h18.09V4.91Zm0,6.59h-18.09v4.47h18.09v-4.47Z"/>
      <path class="cls-1" d="M387.97,30.84c-4.04,3.03-11.64,6.59-16.36,8.13l-1.92-4.91c2.45-.38,4.86-.91,7.26-1.54v-13.33h-5.73v-2.17h5.73V5.77h-6.3V3.61h16.6v2.17h-6.16v11.26h5.39v2.17h-5.39v12.17c2.17-.62,4.23-1.35,6.16-2.12l.72,1.59Zm22.47,13.04c-2.36,.34-4.52,.34-7.17,0-2.79-.34-3.66-1.92-3.66-4.52v-11.45h-2.02c-.34,9.43-5.77,15.68-16.17,17.66l-.63-1.64c8.95-2.69,12.32-8.23,12.56-16.02h-4.81V2.45h20.45V27.9h-5.24v10.1c0,1.25,.24,1.92,1.64,2.12,1.11,.14,2.12,.14,3.27,0,1.73-.19,1.78-1.88,1.64-8.23h1.68c2.94,9.77,1.35,11.55-1.54,11.98Zm-17.85-34.01h12.37V4.62h-12.37v5.24Zm0,7.84h12.37v-5.77h-12.37v5.77Zm0,8.03h12.37v-5.97h-12.37v5.97Z"/>
      <path class="cls-1" d="M465.57,8.85v2.65h-24.87c-1.68,3.22-3.61,6.3-5.68,9.09v24.68h-4.52V25.98c-2.36,2.55-4.76,4.57-7.02,6.01l-1.06-1.49c3.17-2.74,8.9-9.67,13.23-19h-10.83v-2.65h11.93c1.11-2.69,2.07-5.53,2.79-8.52l5.15,1.35c-.72,2.45-1.68,4.86-2.74,7.17h23.62Zm-13.13,31.46h12.27v2.65h-28.05v-2.65h11.26v-13.62h-9.62v-2.31h9.62V14.1h4.52v10.3h9.67v2.31h-9.67v13.62Z"/>
      <path class="cls-1" d="M497.61,43.3c-1.92-.05-3.46-1.54-3.46-3.37,0-1.92,1.54-3.37,3.46-3.42,1.88-.05,3.37,1.49,3.42,3.42,.05,1.83-1.54,3.42-3.42,3.37Zm-1.64-10.44l-1.2-28.58h5.63l-1.3,28.58h-3.13Z"/>
    </g>
    <g>
      <path class="cls-1" d="M12.24,103.38c0-4.39,.55-8.22,1.66-11.5,1.11-3.28,2.63-6.01,4.55-8.19,1.93-2.18,4.12-3.81,6.58-4.9,2.46-1.08,5.04-1.63,7.75-1.63s5.29,.54,7.75,1.63c2.46,1.08,4.65,2.72,6.56,4.9,1.91,2.18,3.42,4.91,4.52,8.19,1.1,3.28,1.65,7.11,1.65,11.5,0,4.67-.55,8.66-1.65,11.98-1.1,3.32-2.6,6.01-4.52,8.09-1.91,2.08-4.1,3.61-6.56,4.59-2.46,.98-5.04,1.47-7.75,1.47s-5.29-.49-7.75-1.47c-2.46-.98-4.66-2.51-6.58-4.59-1.93-2.08-3.44-4.78-4.55-8.09s-1.66-7.31-1.66-11.98Zm11.48,0c0,3.65,.37,6.66,1.11,9.03,.74,2.37,1.79,4.14,3.14,5.3,1.35,1.16,2.96,1.74,4.82,1.74s3.46-.58,4.8-1.74c1.34-1.16,2.37-2.93,3.1-5.32,.73-2.38,1.09-5.39,1.09-9.01,0-3.42-.36-6.33-1.09-8.72-.73-2.4-1.76-4.23-3.1-5.51s-2.94-1.91-4.8-1.91-3.47,.64-4.82,1.91c-1.35,1.28-2.4,3.11-3.14,5.51-.74,2.4-1.11,5.31-1.11,8.72Z"/>
      <path class="cls-1" d="M92.29,78.09v29.89h5.85v9.99h-5.85v10.64h-11.4v-10.64h-20.82v-9.07l19.09-30.8h13.13Zm-11.4,29.89v-15.23h-.08l-9.22,15.23h9.3Z"/>
      <path class="cls-1" d="M107.94,116.13v-9.87h19.71v9.87h-19.71Z"/>
      <path class="cls-1" d="M158.03,86.89c-1.68,0-3.17,.4-4.46,1.21s-2.37,1.74-3.25,2.81c-.88,1.07-1.55,2.05-2.01,2.93-.46,.88-.71,1.4-.77,1.55l-9.8-4.48c.05-.33,.29-1,.73-2.01,.43-1.01,1.12-2.17,2.07-3.5,.94-1.33,2.19-2.61,3.73-3.86,1.54-1.25,3.45-2.29,5.72-3.12,2.27-.83,4.95-1.24,8.04-1.24,3.57,0,6.54,.51,8.9,1.53,2.36,1.02,4.22,2.35,5.59,4s2.34,3.42,2.93,5.34c.59,1.91,.88,3.75,.88,5.51,0,2.19-.44,4.32-1.32,6.37-.88,2.05-2.02,3.99-3.42,5.82-1.4,1.82-2.91,3.5-4.52,5.01-1.61,1.52-3.14,2.84-4.61,3.98-1.47,1.13-2.71,2.03-3.73,2.7-1.02,.66-1.63,1.07-1.84,1.22h19.02v9.95h-36.24v-9.07c.38-.28,1.25-.91,2.6-1.88,1.35-.97,2.98-2.18,4.88-3.63s3.88-3.05,5.93-4.8c2.05-1.75,3.97-3.55,5.74-5.42,1.77-1.86,3.22-3.69,4.34-5.47,1.12-1.79,1.68-3.43,1.68-4.94,0-2.37-.59-4.05-1.78-5.03-1.19-.98-2.86-1.47-5.03-1.47Z"/>
      <path class="cls-1" d="M186.62,88.19c.28-1.02,.83-2.17,1.65-3.44,.82-1.28,1.93-2.49,3.35-3.63,1.42-1.15,3.15-2.09,5.2-2.83,2.05-.74,4.43-1.11,7.14-1.11,3.21,0,6.07,.59,8.55,1.78s4.44,2.84,5.87,4.96c1.43,2.12,2.14,4.59,2.14,7.42,0,1.71-.31,3.27-.92,4.69s-1.4,2.6-2.37,3.54c-.97,.94-1.99,1.56-3.06,1.84,1.25,.15,2.51,.73,3.77,1.72s2.33,2.32,3.21,3.98c.88,1.66,1.32,3.61,1.32,5.85,0,3.21-.81,6.07-2.43,8.55s-3.83,4.45-6.64,5.87c-2.81,1.43-6.02,2.14-9.64,2.14s-6.93-.66-9.55-1.99c-2.62-1.33-4.69-2.95-6.24-4.86-1.54-1.91-2.57-3.76-3.08-5.55l10.48-5.21c.31,1.1,.82,2.25,1.55,3.44,.73,1.2,1.66,2.21,2.81,3.04,1.15,.83,2.47,1.24,3.98,1.24s2.88-.31,3.98-.92c1.1-.61,1.95-1.45,2.54-2.51,.6-1.06,.9-2.28,.9-3.65s-.34-2.62-1.01-3.56c-.68-.94-1.58-1.65-2.7-2.1-1.12-.46-2.36-.69-3.71-.69h-1v-8.19h1.3c1.17,0,2.23-.24,3.18-.71,.94-.47,1.69-1.15,2.24-2.03,.55-.88,.82-1.92,.82-3.12,0-1.61-.55-2.98-1.65-4.11-1.1-1.13-2.69-1.7-4.78-1.7-1.28,0-2.39,.22-3.35,.67-.96,.45-1.75,1.01-2.39,1.68-.64,.68-1.14,1.37-1.51,2.07-.37,.7-.61,1.31-.71,1.82l-9.26-4.4Z"/>
      <path class="cls-1" d="M238.01,92.59l-8.04,4.21v-10.87l14.08-7.84h5.4v50.51h-11.44v-36.01Z"/>
      <path class="cls-1" d="M269.35,114.37c.23,.71,.55,1.4,.96,2.07,.41,.66,.92,1.26,1.53,1.8s1.35,.96,2.22,1.26c.87,.31,1.89,.46,3.06,.46,2.37,0,4.22-.76,5.53-2.28s1.96-3.49,1.93-5.91c-.03-2.32-.66-4.15-1.89-5.47-1.24-1.33-2.93-1.99-5.07-1.99-1.38,0-2.56,.24-3.56,.73-1,.49-1.81,1.05-2.43,1.68-.63,.64-1.07,1.22-1.32,1.76l-9.45-3.44,4.48-26.94h28.39v9.95h-18.79l-1.57,9.53c.13-.18,.53-.46,1.21-.84s1.57-.73,2.68-1.05c1.11-.32,2.37-.48,3.77-.48,2.5,0,4.9,.55,7.19,1.65s4.18,2.82,5.66,5.17c1.48,2.35,2.22,5.38,2.22,9.11s-.8,6.97-2.39,9.74c-1.59,2.77-3.78,4.9-6.56,6.41-2.78,1.5-5.97,2.26-9.57,2.26-2.73,0-5.12-.33-7.17-.98-2.05-.65-3.81-1.51-5.26-2.58s-2.63-2.24-3.54-3.5c-.91-1.26-1.59-2.51-2.05-3.73l9.8-4.36Z"/>
      <path class="cls-1" d="M307.16,116.13v-9.87h19.71v9.87h-19.71Z"/>
      <path class="cls-1" d="M342.67,128.6l15.57-18.21c-.31,.31-.84,.61-1.61,.9-.76,.29-1.77,.44-3.02,.44-2.63,0-5.16-.68-7.6-2.03-2.44-1.35-4.44-3.28-6.01-5.8-1.57-2.51-2.35-5.52-2.35-9.01s.85-6.49,2.54-9.15c1.7-2.65,3.96-4.75,6.79-6.28,2.83-1.53,5.97-2.3,9.41-2.3s6.7,.72,9.53,2.16,5.1,3.52,6.79,6.24,2.54,5.96,2.54,9.74c0,4.16-.68,7.66-2.03,10.5-1.35,2.84-2.9,5.31-4.63,7.4l-12.55,15.38h-13.39Zm13.81-26.02c1.48,0,2.82-.36,4.04-1.09,1.21-.73,2.18-1.7,2.91-2.91,.73-1.21,1.09-2.56,1.09-4.04s-.36-2.83-1.09-4.06c-.73-1.22-1.7-2.19-2.93-2.91-1.22-.71-2.58-1.07-4.06-1.07s-2.83,.36-4.04,1.09c-1.21,.73-2.18,1.7-2.91,2.91-.73,1.21-1.09,2.56-1.09,4.04s.36,2.83,1.09,4.04c.73,1.21,1.7,2.18,2.93,2.91,1.22,.73,2.58,1.09,4.06,1.09Z"/>
      <path class="cls-1" d="M391.69,92.59l-8.04,4.21v-10.87l14.08-7.84h5.4v50.51h-11.44v-36.01Z"/>
      <path class="cls-1" d="M420.58,92.59l-8.04,4.21v-10.87l14.08-7.84h5.4v50.51h-11.44v-36.01Z"/>
      <path class="cls-1" d="M449.47,92.59l-8.04,4.21v-10.87l14.08-7.84h5.4v50.51h-11.44v-36.01Z"/>
    </g>
  </g>
</svg>