<?xml version="1.0" encoding="UTF-8"?>
<svg id="_圖層_2" data-name="圖層 2" xmlns="http://www.w3.org/2000/svg" xmlns:xlink="http://www.w3.org/1999/xlink" viewBox="0 0 1266.55 235.95">
  <defs>
    <style>
      .cls-1 {
        fill: #fff;
      }

      .cls-2 {
        filter: url(#drop-shadow-1);
      }

      .cls-3 {
        filter: url(#drop-shadow-2);
      }
    </style>
    <filter id="drop-shadow-1" filterUnits="userSpaceOnUse">
      <feOffset dx="1.66" dy="1.66"/>
      <feGaussianBlur result="blur" stdDeviation="4.16"/>
      <feFlood flood-color="#000" flood-opacity=".4"/>
      <feComposite in2="blur" operator="in"/>
      <feComposite in="SourceGraphic"/>
    </filter>
    <filter id="drop-shadow-2" filterUnits="userSpaceOnUse">
      <feOffset dx="1.66" dy="1.66"/>
      <feGaussianBlur result="blur-2" stdDeviation="4.16"/>
      <feFlood flood-color="#000" flood-opacity=".4"/>
      <feComposite in2="blur-2" operator="in"/>
      <feComposite in="SourceGraphic"/>
    </filter>
  </defs>
  <g id="_圖層_1-2" data-name="圖層 1">
    <g>
      <g class="cls-2">
        <path class="cls-1" d="M90.2,46.97l-10.01,6.82c-2.2-4.4-4.84-9.24-7.92-14.3-17.82,3.74-45.65,7.81-69.08,9.9L0,37.29c5.06,.22,10.12,.33,15.29,.33C23.76,27.06,31.24,12.21,35.97,.77l11.44,5.5c-6.93,10.12-16.06,22.44-25.63,31.35,17.6-.11,34.98-1.21,47.96-2.31-3.52-5.39-7.37-11.11-11.77-16.94l3.19-2.75c10.67,8.69,24.09,23.54,29.04,31.35ZM11.88,58.3H77.11v45.43h-10.34v-8.14H22.22v8.03H11.88V58.3Zm10.34,32.23h44.55v-27.28H22.22v27.28Z"/>
        <path class="cls-1" d="M133.76,62.59v8.14h-10.12V22.33h36.3V1.43h10.56V22.33h36.63v47.74h-10.12v-7.48h-26.51v41.69h-10.56V62.59h-26.18Zm26.18-34.76h-26.18v29.48h26.18V27.83Zm37.07,0h-26.51v29.48h26.51V27.83Z"/>
        <path class="cls-1" d="M288.86,15.29v20.57c14.74,7.26,26.18,14.52,36.96,23.76l-8.69,10.34c-8.58-10.12-17.6-19.58-28.27-28.6v62.48h-10.56V15.29h-37.73v-6.05h94.6v6.05h-46.31Z"/>
        <path class="cls-1" d="M453.31,44.11v7.15h-91.63v-7.15h91.63Z"/>
        <path class="cls-1" d="M508.75,4.18c-2.2,9.35-4.51,17.38-7.37,24.53V103.62h-9.24V46.31c-3.3,4.84-7.15,9.46-11.88,14.19l-2.86-2.64c11-16.39,16.39-32.67,20.46-56.21l10.89,2.53Zm64.9,4.95V103.62h-9.9v-7.7h-43.34v7.7h-9.68V9.13h62.92Zm-9.9,4.95h-43.34V90.97h43.34V14.08Zm-26.51,23.43h-13.75v-4.95h13.75v-14.41h9.24v14.41h14.3v4.95h-14.3v14.74h11.44v28.6h-31.9v-28.6h11.22v-14.74Zm-2.64,19.69v18.7h14.74v-18.7h-14.74Z"/>
        <path class="cls-1" d="M615.34,55.88c-1.43,0-3.08,.11-4.84,.33v-7.59c12.21-.88,20.02-8.14,20.79-15.73,.66-6.93-4.51-10.78-12.87-10.78s-13.75,3.52-18.26,6.93v-9.02c2.53-1.21,9.46-4.29,20.13-4.29,17.27,0,22.99,11,22.22,17.71-.99,9.02-10.23,14.63-17.49,17.27v.66c9.79,.77,20.46,7.59,21.01,18.26,.88,10.23-5.94,23.65-24.86,25.74-7.04,.77-15.29,.22-22.22-1.76l-.66-5.06c7.59,1.32,15.62,1.43,20.35,.66,14.74-2.53,16.39-14.3,15.84-18.92,.22-9.13-10.12-14.63-19.14-14.41Z"/>
        <path class="cls-1" d="M668.69,55.99c0-25.96,11.88-40.04,27.94-40.04s26.62,14.3,26.62,38.94c0,26.29-10.34,40.92-27.72,40.81-15.51-.11-26.84-14.19-26.84-39.71Zm43.12-.66c0-19.03-4.84-33.11-15.84-33.11-9.35,0-15.84,12.76-15.84,33.88s6.05,33.33,15.73,33.33c10.89,0,15.95-14.3,15.95-34.1Z"/>
        <path class="cls-1" d="M842.05,67.54v5.5h-38.5v31.46h-10.34v-31.46h-47.41v-5.5h17.71v-28.82h29.7V21.45h-22.33c-5.39,9.13-12.21,17.71-19.47,23.98l-2.86-2.86c8.91-11.22,15.62-27.39,18.81-42.57l11.77,3.41c-1.43,4.18-3.19,8.47-5.39,12.76h61.38v5.28h-31.57v17.27h28.6v4.95h-28.6v23.87h38.5Zm-48.84-23.87h-19.8v23.87h19.8v-23.87Z"/>
        <path class="cls-1" d="M88.55,137.94v97.24h-9.68v-5.61H9.9v5.94H.22v-97.57H88.55Zm-9.68,4.95H9.9v81.73H78.87v-81.73ZM14.74,215.38l-3.19-8.91c11.77-1.98,25.52-5.94,34.1-9.13l1.43,3.52c-8.14,5.17-21.89,11.33-32.34,14.52Zm30.69-51.04H11.99v-4.95H45.1c-.22-4.4-.33-9.02-.33-13.86h8.8c0,4.51,0,9.13,.22,13.86h10.56c-2.09-4.29-5.06-9.68-7.04-12.98l3.08-2.31c3.63,2.64,9.13,8.14,11.88,11.99l-4.73,3.3h9.35v4.95h-22.88c.55,8.91,1.43,17.71,3.08,25.19,2.42-5.61,4.4-12.1,6.38-20.02l8.47,3.08c-3.52,11.22-7.15,19.91-11.77,26.95,1.76,4.07,3.85,7.26,6.49,9.02,2.64,1.76,2.86-4.07,2.86-15.18h3.96c5.28,17.16,2.53,32.56-9.35,24.86-3.96-2.53-7.15-6.38-9.68-11.33-5.72,6.05-12.76,10.67-22.33,15.07l-1.87-3.41c9.57-5.83,16.17-11.33,21.12-18.59-3.19-9.13-5.06-21.12-5.94-35.64Zm-30.03,31.46v-23.98h26.51v23.98H15.4Zm8.14-4.62h10.23v-14.74h-10.23v14.74Z"/>
        <path class="cls-1" d="M140.47,195.47c-.44-6.93-2.09-13.09-7.37-22.55,1.98-6.49,4.18-19.14,5.39-28.93h-8.14v91.96h-9.24v-99l9.24,2.42h7.59l2.42-1.65,9.24,4.07c-4.62,13.75-9.13,24.86-12.76,30.47,7.37,8.47,11.33,16.61,12.21,25.74,1.32,13.31-6.71,17.71-17.6,10.67l.99-3.74c7.7,1.54,8.69,.22,8.03-9.46Zm1.54,35.09l-2.42-3.08c6.93-5.94,15.51-16.5,20.13-26.73l9.46,5.06c-6.82,10.01-19.69,20.13-27.17,24.75Zm-.44-61.16c7.92-11,12.32-23.65,15.07-36.96l9.02,2.31c-.77,2.75-1.87,5.61-3.08,8.58h7.15l2.42-1.54,8.25,3.52c-3.3,12.98-8.14,23.21-14.74,31.46h30.69v4.84h-32.45v-2.75c-3.85,4.51-8.36,8.25-13.42,11.66l-2.2-3.19c4.51-4.07,8.36-8.58,11.55-13.31-2.42-3.3-5.83-7.26-8.58-10.23-2.2,2.97-4.62,5.72-7.15,8.03l-2.53-2.42Zm43.45,55.22c.11,13.09-12.1,15.29-26.51,3.52l1.54-3.63c13.31,4.07,15.29,3.63,15.29-2.53v-24.75h-23.54v-4.95h58.52v4.95h-25.3v27.39Zm-21.45-56.98c.88-1.65,1.65-3.41,2.42-5.17-2.75-2.64-6.05-5.39-9.02-7.59-1.1,2.09-2.31,4.07-3.63,5.94,3.3,1.87,7.15,4.4,10.23,6.82Zm-2.97-19.69l-1.76,3.63c2.97,1.1,6.49,2.64,9.57,4.4,.88-2.75,1.54-5.39,1.98-8.03h-9.79Zm18.48-14.08l3.96-.66c2.2,11.55,6.05,20.13,10.89,26.73,3.3-4.84,5.5-9.02,7.26-14.3h-13.97l-.11-4.62h13.75l2.53-1.65,8.8,5.06c-6.38,10.45-10.56,14.52-15.73,18.59,5.5,6.6,12.1,11.11,18.81,14.85l-6.71,9.57c-14.3-10.12-24.64-23.87-29.48-53.57Zm36.96,88.44l-8.36,7.26c-3.08-5.28-11.33-17.16-18.15-25.41l2.75-2.86c9.02,6.16,19.14,15.18,23.76,21.01Z"/>
        <path class="cls-1" d="M279.07,162.47c-4.73,23.98-17.82,50.82-39.82,64.35l-2.42-3.41c19.03-16.61,27.5-38.94,30.36-57.42l-25.85,.11v-4.95l25.3-.11,2.2-2.2,10.23,3.63Zm58.19,54.01l-8.03,11.99c-12.1-7.48-28.16-26.62-36.08-61.93v56.21c0,14.63-10.78,17.82-30.03,4.73l1.32-3.85c16.61,4.07,18.81,2.97,18.81-3.85v-85.69h9.9v11.88c1.76,9.9,4.4,19.8,8.36,29.04,6.71-5.83,15.07-14.63,20.57-23.54l10.01,8.03c-8.91,8.36-20.79,15.4-28.82,19.58,7.26,15.51,18.15,28.93,33.99,37.4Z"/>
        <path class="cls-1" d="M359.92,159.61c6.82,3.08,15.18,7.7,21.67,12.54l-7.15,8.8c-3.96-5.39-11.11-13.09-16.5-18.26l1.98-3.08Zm3.52-25.74c5.5,2.53,14.19,8.03,19.47,12.54l-7.37,8.03c-4.07-5.72-10.34-13.31-14.41-17.49l2.31-3.08Zm13.86,51.15l3.74,1.1c-2.09,13.53-5.39,33.44-8.69,44.77l-11.11-4.73c5.83-11.77,11.22-27.17,16.06-41.14Zm47.63-32.56v11.66h26.51v63.25c0,10.45-12.54,9.57-23.54,2.64l1.1-3.63c11.33,2.53,12.76,1.32,12.76-2.2v-55.11h-43.12v66.44h-9.68v-71.39h26.07v-11.66h-29.81v-4.95h29.81v-13.97h9.9v13.97h30.36v4.95h-30.36Zm14.19,54.56h-14.41v22.66h-9.46v-22.66h-14.63v-4.73h14.63v-9.68h-13.64v-4.73h8.36c-1.98-5.5-4.73-11.44-6.93-15.84l3.08-2.09c3.52,3.3,8.69,9.68,11.11,14.19l-7.04,3.74h12.21c1.87-5.39,3.3-11.66,4.29-17.49l8.69,3.3c-1.87,4.18-5.72,10.34-8.47,14.19h11.66v4.73h-13.86v9.68h14.41v4.73Z"/>
        <path class="cls-1" d="M480.81,195.14l-1.65-3.63c10.78-5.5,19.58-11.22,23.54-24.97h-20.02v-4.95h21.23c.55-3.3,.99-7.04,1.1-11.22h-8.03c-3.08,4.18-6.38,7.92-9.35,10.45l-2.75-2.75c4.62-6.93,8.58-16.72,10.34-25.52l10.56,2.75c-1.32,3.08-3.3,6.6-5.5,10.12h31.46v4.95h-16.61c-.22,4.07-.55,7.81-1.21,11.22h20.24v4.95h-21.56c-.33,1.1-.77,2.2-1.1,3.3,8.03,2.53,15.95,6.05,21.34,9.57l-5.83,8.69c-4.4-4.29-10.56-9.24-17.49-14.08-5.72,10.56-15.62,16.72-28.71,21.12Zm17.27-5.28h62.04v45.21h-9.68v-7.04h-42.68v7.59h-9.68v-45.76Zm9.68,15.73h42.68v-10.78h-42.68v10.78Zm0,17.49h42.68v-12.54h-42.68v12.54Zm65.12-79.64v41.91h-9.46v-7.48h-17.71v8.58h-9.46v-43.01h36.63Zm-9.46,29.48v-24.53h-17.71v24.53h17.71Z"/>
        <path class="cls-1" d="M616.22,205.59l3.74,1.1c-1.43,9.79-5.39,19.36-11.22,26.07l-8.36-7.59c6.93-4.84,12.98-10.34,15.84-19.58Zm59.73-14.19h-74.25v-4.95h74.25v-5.17h-63.58v-4.51h73.04v9.68h12.43v4.95h-12.43v10.34h-73.7v-4.51h64.24v-5.83Zm-53.79-23.98h-18.48v-4.51h18.48v-6.16h-14.74v-4.51h14.74v-5.72h-17.16v-4.51h17.16v-7.81h9.24v7.81h14.52v4.51h-14.52v5.72h13.31v4.51h-13.31v6.16h14.52v4.51h-14.52v6.6h-9.24v-6.6Zm51.59,42.46c4.95,16.61,.77,21.23-8.36,22.33-6.49,.77-15.62,.99-22.44,.44-10.12-.77-16.61-1.76-16.61-9.9v-17.82h9.68v12.65c0,4.4,1.54,5.83,7.7,6.27,7.37,.55,14.74,.33,19.47-.33,5.39-.77,6.49-1.98,6.6-13.64h3.96Zm-32.12-1.98l1.43-3.63c5.83,1.21,12.87,2.86,20.35,7.26l-5.39,8.58c-4.62-4.18-10.78-8.69-16.39-12.21Zm24.53-40.48h-16.06v-4.51h16.06v-6.16h-13.86v-4.51h13.86v-5.72h-16.06v-4.51h16.06v-7.81h9.24v7.81h17.93v4.51h-17.93v5.72h16.28v4.51h-16.28v6.16h20.46v4.51h-20.46v6.6h-9.24v-6.6Zm32.67,55.88l-8.69,6.6c-3.96-8.47-7.59-14.63-12.54-22.22l2.86-2.31c5.5,3.85,12.43,9.79,18.37,17.93Z"/>
        <path class="cls-1" d="M804.87,230.56c-3.74-3.19-6.71-7.7-9.13-13.2-6.93,7.92-15.62,13.97-26.51,18.26l-1.76-3.41c11.11-5.83,19.14-13.75,25.3-23.32-4.4-15.29-5.5-34.65-5.83-51.48h-21.23v17.16h18.92c0,8.58,.55,23.54-.55,32.01-1.32,10.56-9.24,11.66-19.69,3.63l1.21-3.19c7.48,1.76,8.58,1.98,9.35-1.54,.33-1.43,.77-11.33,.66-25.96h-9.9v5.61c0,23.1-7.37,38.39-20.79,50.6l-2.75-2.64c8.25-9.13,12.21-22.55,13.53-36.3-9.79,7.37-18.26,12.54-30.8,18.92l-4.4-10.67c3.63-.77,8.03-1.98,12.98-3.63v-32.01h-11.55v-4.95h11.55v-27.94l9.46-.11v27.94l11.11,.11v4.95l-11.11-.11v28.82c3.52-1.43,7.04-2.97,10.45-4.62l2.31,3.3c.33-3.96,.55-7.92,.55-11.77v-32.56h30.69v-18.7h9.02v18.7h12.32c-2.09-4.18-5.5-9.24-9.02-13.75l2.64-3.08c5.39,3.08,10.78,7.26,14.96,11.22l-6.71,5.61h7.37v4.95h-21.45c.11,12.98,.88,27.06,2.97,39.05,3.85-9.13,6.49-19.36,8.36-30.47l9.79,2.86c-3.3,15.95-8.03,29.26-15.07,40.04,1.32,3.96,2.97,7.37,4.84,10.12,5.28,7.81,7.59,3.19,7.59-11.33h3.52c6.82,21.01-1.32,32.89-13.2,22.88Z"/>
      </g>
      <g class="cls-3">
        <path class="cls-1" d="M956.97,61.7h9.12v1.37h-20.44v-1.37h8.92v-4.5h-6.35v-1.25h6.35v-4.07h-5.4v-.7c-1.32,.77-2.82,1.47-4.42,2.02l-.38-.85c5.22-2.52,8.4-6.4,9.5-9h-5.62l-.02-1.25h8.7c.95,3.12,4.85,6.62,10.42,8.05l-1.77,2.72c-.95-.42-2.05-.95-3.15-1.67v.67h-5.45v4.07h6.42v1.25h-6.42v4.5Zm4.8-10.95c-2-1.45-4-3.6-5.4-7.05-1,2.27-3.27,4.92-6.5,7.02l11.9,.02Z"/>
        <path class="cls-1" d="M983.55,55.2c-2.95,2.35-5.92,4.02-7.95,4.95l-1.1-2.5c1.22-.32,2.35-.67,3.42-1.05v-6.07h-2.92v-1.12h2.92v-5.22h-3.25v-1.12h8.85v1.12h-3.45v5.22h2.72v1.12h-2.72v5.27c1.02-.42,2-.87,3-1.37l.47,.77Zm11.45,6.47c-1.65-1.75-4.12-5.65-4.4-14.72h-.58v14.8c0,2.32-2.37,3.12-6.17,.47l.3-.85c3.3,.9,3.67,.55,3.67-.6v-5.6c-1.55,2-4,4.25-5.27,5.2l-1.47-2.2c1.9-.95,3.88-2.17,6.75-4.5v-6.72h-5.47v-1.12h5.47v-5.1h2.2v5.1h6.62v1.12h-5.12c.15,1.75,.35,3.27,.7,4.67,.73-.92,1.5-2.05,2.25-3.42l1.97,1.47c-1,1.1-2.75,2.37-3.92,3.1,.83,2.6,2.22,4.65,4.65,6.52l-2.17,2.37Zm-9.97-7.82c-.52-1.85-1.22-3.75-1.85-5.32l.73-.43c1.22,1.35,2.32,2.85,3.22,4.67l-2.1,1.07Zm9.05-8.52c-.77-1.1-2-2.55-3-3.7l.55-.67c1.1,.52,2.82,1.5,4.07,2.75l-1.62,1.62Z"/>
        <path class="cls-1" d="M1027.3,61.3l-1.3,2.7c-2.4-.38-7.62-1.97-9.72-7.12-1.45,4-5.07,6.32-11.35,7.27l-.27-.85c5.37-1.35,7.95-3.52,9.1-6.42h-8.25v-1.12h8.6c.2-.8,.33-1.65,.38-2.55l2.5,.2c-.05,.82-.18,1.62-.38,2.35h9.65v1.12h-8.95c2.7,3.62,7.25,4.17,10,4.42Zm-.75-8.57h-21.27v-1.12h9.4v-2.45h-6.95v-1.12h6.95v-2.37h-8.52v-1.12h6.2c-.9-1.07-2.2-2.45-3.12-3.27l.47-.77c1.4,.55,3.77,1.82,4.95,2.75l-1.17,1.3h3.72c.88-1.25,1.62-2.9,2.02-4.2l2.47,1.2c-.9,1.15-1.92,2.15-3.02,3h6.97v1.12h-8.72v2.37h7.17v1.12h-7.17v2.45h9.62v1.12Z"/>
        <path class="cls-1" d="M1056.6,58.65h-9.07v2.87c0,2.25-1.97,3.55-6.4,.95l.22-.85c3.62,.8,3.92,.43,3.92-1.05v-1.92h-10.15v-1.12h10.15v-1.8l1.67,.25c.92-.52,1.85-1.25,2.57-1.87h-10.57v-1.12h11.15l.67-.3,2.02,1.62c-1.6,1.12-3.75,2-5.27,2.45v.77h9.07v1.12Zm-19.07-3.57h-2.2v-4.45h2.2c-.08-2.85-.17-5.72-.33-8.57l1.97,.42c.95-.42,1.72-1,2.72-1.95l1.3,1.4c-.97,.5-2.57,1.12-3.97,1.35,0,.45,.02,.9,.05,1.35h3.32v1.12h-3.27c.02,.65,.02,1.32,.05,1.97h3.4v1.12h-3.37c.02,.6,.05,1.17,.05,1.77h3.7l-.3-.65c.85-.47,1.6-1.05,2.22-1.72-.5-.43-1.02-.82-1.6-1.22l.38-.7c.73,.32,1.4,.62,2.05,.97,.42-.52,.8-1.1,1.15-1.7l1.55,1.1c-.38,.45-.82,.92-1.35,1.42,.55,.37,1.08,.77,1.6,1.25l-1.15,1.25h4.47c.05-.57,.08-1.12,.1-1.7h-3.4v-1.12h3.45c.02-.6,.07-1.22,.1-1.82h-3.37v-1.12h3.4l.07-1.92h-3.65v-1.12h3.45l.47-.47,1.82,.45c-.17,2.9-.32,5.92-.55,8.85h2.27v4.37h-2.2v-3.25h-16.62v3.32Zm7.6-11.9c-.53-.52-1.08-1.02-1.58-1.42l.38-.72c.62,.3,1.27,.7,1.95,1.12,.33-.52,.62-1.05,.88-1.55l1.67,.92c-.33,.5-.75,1.02-1.25,1.55,.53,.4,1,.8,1.47,1.22l-1.32,1.35c-.33-.43-.75-.97-1.25-1.5-.82,.7-1.72,1.32-2.57,1.77l-.45-.62c.78-.62,1.47-1.35,2.08-2.12Zm-1.58,7.45h3.85c-.42-.52-.88-1.02-1.33-1.47-.77,.6-1.62,1.12-2.52,1.47Z"/>
        <path class="cls-1" d="M1087.1,60.75l-.85,2.65c-4.42,.3-9.9,.35-12.82-.55-1.65-.5-3.12-1.35-4.32-2.65-1.1,1.62-2.45,2.97-4.05,4.02l-.55-.72c1.15-.95,2.45-2.42,3.52-4.65-.92-1.42-1.6-3.2-2-5.45l.87-.25c.42,1.62,.97,3.02,1.77,4.2,.65-1.77,1.17-3.95,1.45-6.62h-2.17c-.4,.72-.77,1.35-1.07,1.72l-1.77-.75c1.17-1.92,2.9-5.3,4-8.12h-4.12v-1.07h6.9c-.67,1.85-2.07,4.8-3.3,7.1h1.5l.4-.4,1.97,.75c-.33,3.35-1.15,6.35-2.52,8.87,.78,.72,1.7,1.27,2.8,1.7,3.25,1.22,9.52,.8,14.37,.22Zm-9.47-13.55h-5.47v-1.07h5.47v-2h-4.3v-1.12h4.3v-2.22h2.15v2.22h4.87v3.12h2.02v1.07h-2.02v3.37h-4.87v1.97h5.1v1.12h-5.1v2.32h6.25v1.12h-6.25v3.3h-2.15v-3.3h-5.5v-1.12h5.5v-2.32h-4.6v-1.12h4.6v-1.97h-4.42v-1.12h4.42v-2.25Zm2.15-1.07h2.9v-2h-2.9v2Zm0,3.32h2.9v-2.25h-2.9v2.25Z"/>
        <path class="cls-1" d="M1095,47.88l-.52-.7c1.97-1.85,3.25-3.82,4.1-6.67l2.4,.67c-.25,.57-.62,1.25-1.12,1.95h6.4v1.12h-4.27c.6,.57,1.25,1.37,1.85,2.25l-1.85,.67c-.3-.97-.65-1.95-1.15-2.92h-1.83c-1.07,1.3-2.45,2.62-4,3.62Zm22.29,12.85l-1.33,2.47c-2.52-.4-6.75-2.57-9.02-5.9v6.72h-2.15v-6.65c-1.77,2.62-6.22,4.85-9.97,5.72l-.3-.8c3.67-1.37,6.25-2.9,8.22-5.27h-7.5v-1.12h9.55v-2.12c-.6,.4-1.3,.72-2.1,1.05l-.42-.8c1.1-.67,1.8-1.27,2.22-1.97-1.95,.85-5.87,1.95-8.57,2.37l-.57-2.07c1.42-.07,2.65-.17,3.8-.3v-3.32h-3.47v-1.12h9.05v1.12h-3.47v3.05c1.05-.18,2.12-.38,3.3-.65l.15,.55c.5-1.07,.5-2.37,.5-4.32h7.77v3.75c0,.92,.17,1.07,1.22,1.07,1.15,0,1.35-.23,1.25-2.77h.9c1.25,4.02,.25,4.55-2.2,4.57-2.72,.03-3.25-.5-3.25-2.62v-2.87h-3.6c0,2.57-.8,4.07-2.3,5.15h1.95v2.27h9.6v1.12h-8.7c2.8,2.42,5.95,3.15,9.45,3.7Zm-12.47-14.35c1.55-1.65,2.62-3.7,3.32-5.95l2.3,.77c-.33,.65-.72,1.3-1.15,1.9h7.55v1.12h-4.85c.65,.52,1.22,1.15,1.82,1.97l-1.82,.75c-.38-.92-.72-1.77-1.27-2.72h-2.3c-1.05,1.22-2.17,2.2-3.02,2.8l-.57-.65Zm2.92,2.9l.75-.3c.82,1.25,1.5,2.67,1.85,3.95l-1.8,.47c-.12-1.17-.45-2.75-.8-4.12Z"/>
        <path class="cls-1" d="M1132.97,55.15l.4,.82c-2.22,1.67-4.92,3.32-7.8,4.72l-1-2.42c.78-.18,2-.55,3.37-1.05v-8.42h-3.02v-1.12h3.02v-6.12h2.2v6.12h3.05v1.12h-3.05v7.57c.95-.37,1.92-.8,2.82-1.22Zm11.12,7.77c-2.17,.15-4.15,.15-6.3,0-2.77-.2-3.87-.95-3.87-3.52v-8.37c-.72,.25-1.42,.52-2.12,.77l-.38-1.05c.82-.3,1.65-.6,2.5-.92v-6.87h2.15v6.05l2.52-.97v-7.17h2.05v6.35c.92-.38,1.82-.72,2.72-1.1l.37-.6,2.42,.62c-.38,2.52-1.7,8-2.65,10.02l-.88-.22c.42-2.1,.88-7.3,.88-8.67-.95,.4-1.9,.77-2.87,1.17v9.72h-2.05v-8.92l-2.52,.97v8.97c0,1.27,.8,1.57,1.9,1.67,2.1,.2,3.92,.12,6,0,1.32-.08,1.5-.75,1.42-4.65l.87-.05c1.65,5.47,1,6.55-2.17,6.77Z"/>
        <path class="cls-1" d="M1160.33,50.7v13.22h-2.1v-11.87c-.65,1.92-1.77,4.27-3.17,6.22l-.7-.55c1.22-2.37,2.8-6.35,3.47-10.4h-2.95v-1.12h3.35v-5.4h2.1v5.4h2.8v1.12h-2.8v1.72c1.17,1.3,2.47,2.95,3.22,4.55l-1.8,.87c-.4-1.25-.95-2.62-1.42-3.77Zm1.22,12.02l-.53-.75c1.28-1.05,3.07-3.07,4.15-5.15l2.02,1.12c-1.7,2.17-3.95,3.85-5.65,4.77Zm9.17-6.27v4.85c0,2.8-2.2,3.7-5.82,1.27l.25-.85c3.02,.75,3.35,.47,3.35-.7l.02-4.57h-6.1v-1.12h14.4v1.12h-6.1Zm-3.55-13.05h-4.45v-1.12h14.02v1.12h-4.45v2h3.7v5.85h-12.4v-5.85h3.57v-2Zm-3.1,10.32v-1.05h11.12v1.05h-11.12Zm1.52-3.55h1.57v-3.7h-1.57v3.7Zm4.9-6.77h-1.52v2h1.52v-2Zm-1.52,6.77h1.52v-3.7h-1.52v3.7Zm8.42,11.15l-1.82,1.57c-.83-1.3-2.55-3.7-3.92-5.37l.57-.62c1.85,1.22,4.1,3.1,5.17,4.42Zm-5.1-14.85v3.7h1.65v-3.7h-1.65Z"/>
        <path class="cls-1" d="M966.97,91.93v1.15h-22.17v-1.15h2.77v-4.42c-.32,.32-.67,.6-1.05,.85l-1.35-1.9c1.72-.75,3-1.55,3.95-3.7l.85,.32c-.38,1.67-1.1,3.1-2.17,4.2h16.2v4.65h2.97Zm-12.35-15.25h-9.47v-1.12h9.47v-1.65h-6.85v-1.07h6.85v-2.07h2.15v2.07h7v2.72h2.97v1.12h-2.97v2.92h-7v1.7h9.42v1.12h-20.62v-1.12h9.05v-1.7h-7v-1.07h7v-1.85Zm-2.27,11.75h-2.67v3.5h2.67v-3.5Zm-.23-5.27l.7-.35c.88,.92,1.67,2.1,2.27,3.4l-1.87,.72c-.28-1.22-.75-2.8-1.1-3.77Zm4.97,5.27h-2.7v3.5h2.7v-3.5Zm-.33-12.87h4.85v-1.65h-4.85v1.65Zm0,2.97h4.85v-1.85h-4.85v1.85Zm1.3,4.25c1.02,.92,1.9,2.02,2.57,3.22l-1.8,.9c-.35-1.15-1-2.77-1.47-3.72l.7-.4Zm3.77,5.65h-2.7v3.5h2.7v-3.5Zm4.92-1.87l-1.77,1.52c-.7-1.4-2.05-3.35-3.1-4.75l.55-.52c1.55,.95,3.35,2.4,4.32,3.75Z"/>
        <path class="cls-1" d="M993.6,93.13c-.7-.65-1.3-1.7-1.8-3.1-1.25,1.4-2.92,2.67-5.17,3.67l-.45-.75c1.3-.65,2.35-1.47,3.25-2.37h-5.05v1.42h-1.7v-12.1h6.85v1.07h-2.2v2.05h2.1v4.15h-2.1v2.32h2.42v.72c.57-.65,1.07-1.32,1.5-2-.65-2.52-1.05-5.8-1.15-9.72h-8.4v5.52c0,4.47-.57,7.85-3.62,10.15l-.7-.57c1.6-2.3,2.15-3.55,2.25-7.65h-1.5c0,2.65,.08,4.1-2.57,6.5l-.72-.52c1.62-2.15,1.57-3.65,1.57-5.97h-1.42v-1.12h4.67v-2.6h-1.88v1h-1.72v-5.85h1.72v3.72h1.88v-3.72h10.4v-1.45l1.85,.05c0,.48,0,.95,.02,1.4h2.05c-.5-.88-1.35-2.1-1.85-2.6l.6-.65c.72,.35,2.2,1.45,2.97,2.25l-1.08,1h2.2v1.12h-4.87c.1,2.57,.32,4.95,.65,6.92,.83-2.2,1.08-4.15,1.22-5.02l2.1,.65c-.45,1.9-1.07,4.57-2.72,7.15,.28,.95,.55,1.72,.88,2.27,1.2,2.15,1.8,1.1,1.77-2h.78c1.5,4.4-.17,7.32-3.02,4.65Zm-12.37-19.07h-6.07v-1.12h6.07v-2.05h2.15v2.05h4.37v-2.05h2.15v2.05h6.62v1.12h-6.62v1.77h-2.15v-1.77h-4.37v2.12h-2.15v-2.12Zm3.15,8.97h1.45v-2.05h-1.45v2.05Zm0,3.07h3.57v-2h-3.57v2Zm1.45,1.07h-1.45v2.32h1.45v-2.32Z"/>
        <path class="cls-1" d="M1027.45,84.98l-1.6,2.3c-2.1-.95-4.67-2.62-6.22-5.72h-7.02c-1.55,3.05-4.3,5.12-7.75,6.45l-.42-.77c2.97-1.72,4.62-3.55,5.57-5.67h-5.15v-1.12h2.52c-.12-2.87-.25-5.52-.42-8.57l2.02,.45c1.1-.52,2.07-1.12,2.85-1.8l1.42,1.6c-1.05,.45-2.8,.9-4.15,1.1l.05,1.35h3.05v1.05h-3l.08,1.92h3.07v1.05h-3.05l.08,1.85h3.42c.2-.92,.33-1.87,.43-2.85l1.85,.18c-.17,1.2-.27,1.87-.45,2.67h1.82c.17-1.25,.38-2.85,.55-4.22h-1.95c-.05,.27-.12,.55-.17,.8l-1.85-.18c.42-1.82,.77-4.42,1.02-6.22l1.88,.15c-.08,.52-.15,1.15-.25,1.77h3.27v1.05h-3.42c-.08,.52-.17,1.05-.27,1.57h3.67c-.17,1.57-.45,3.72-.65,5.27h3.87l.1-1.75h-2.55v-1.05h2.6l.08-2.02h-2.55v-1.05h2.6l.1-1.95h-2.97v-1.05h5.1l-.5,8.87h2.65v1.12h-6.07c2.07,2.22,4.55,2.87,6.72,3.42Zm-10.52,3.4h7.75v1.12h-7.75v4.37h-2.15v-4.37h-7.45v-1.12h7.45v-2.42h-4.15v-1.12h4.15v-2.55h2.15v2.55h4.4v1.12h-4.4v2.42Z"/>
        <path class="cls-1" d="M1050.47,87.55v-1.82h-4.02v2.25h-2.25v-9.45h-3.92v12.15h16.17v1.2h-16.17v2.15l-2.35,.03v-15.52h-3.22v-1.25h3.22v-5h2.35v5h3.92v-6.27h2.25v6.27h4.02v-6.12h2.25v6.12h4.12v1.25h-4.12v9.02h-2.25Zm0-2.95v-6.07h-4.02v6.07h4.02Z"/>
        <path class="cls-1" d="M1071.97,85.1c-.45-1.05-.92-2.05-1.42-3.07v11.95h-2.15v-10.45c-.75,1.92-1.67,3.85-3.27,5.92l-.67-.6c1.82-3.27,2.7-6.42,3.52-9.95h-3.25v-1.12h3.67v-3.75c-1.2,.25-2.4,.43-3.5,.52l-.17-.9c2.85-.67,5.15-1.65,7.27-3l1.88,1.8c-1.02,.42-2.17,.77-3.32,1.07v4.25h3.02v1.12h-3.02v1.57c1.3,1.1,2.55,2.32,3.22,3.4l-1.8,1.22Zm15.02,3h-1.65v3.77c0,1.95-2.12,2.97-6.02,.67l.23-.85c3.17,.65,3.6,.35,3.6-.75v-2.85h-7.15v5.87h-2.1v-5.87h-1.58v-1.12h1.58v-6.82h4.57v-1.97h2.2v1.95h4.67v6.85h1.65v1.12Zm-13.87-14.92c4.35-.45,7.75-1.32,10.67-2.55l2.2,1.75c-2.17,.55-4.9,1-7.42,1.27,.9,.92,1.67,2.02,2.45,3.62l-1.95,.75c-.3-1.2-.7-2.57-1.3-4l.6-.35c-1.9,.22-3.7,.35-5.05,.38l-.2-.88Zm.65,1.27l.75-.38c1.1,1.22,2.12,2.7,2.7,4.02l-1.95,.8c-.3-1.27-.9-2.92-1.5-4.45Zm4.7,9v-2.17h-2.47v2.17h2.47Zm0,1.07h-2.47v2.45h2.47v-2.45Zm2.2-3.27v2.2l2.47-.03v-2.17h-2.47Zm2.47,5.72v-2.47l-2.47,.03v2.45h2.47Zm-1.3-8.6c.58-1.3,1.17-3.02,1.6-5l2.22,.85c-1.17,2.25-2.25,3.55-3.17,4.57l-.65-.43Z"/>
        <path class="cls-1" d="M1116.87,80.25h-21.97v-1.12h9.87v-1.47h-7.25v-1.07h7.25v-1.37h-8.57v-1.12h6.1c-.3-.92-.83-1.9-1.47-3l.75-.62c1.03,.67,2.08,1.65,2.92,2.82l-1.38,.8h4.6c.43-1.07,.8-2.67,.98-3.75l2.47,.9c-.67,1-1.45,2-2.2,2.85h6.52v1.12h-8.52v1.37h7.32v1.07h-7.32v1.47h9.9v1.12Zm-15.9,6.45c-.9,2.02-2.87,5.6-3.97,7.2l-1.95-1.7c1.22-1.07,3.7-3.95,5.17-5.97l.75,.47Zm-5.45-3.42c1.25,.42,2.65,1.05,3.8,1.95l-1.4,1.77c-.7-.97-1.7-2.07-2.8-3.05l.4-.67Zm4.97,1c-.7-.97-1.67-2.07-2.8-3.02l.42-.67c1.25,.42,2.58,1.05,3.77,1.97l-1.4,1.72Zm16.7,7.42l-1.35,2.27c-2.75-1.22-5.9-3.27-6.77-7.07-.87,3.02-3.65,5.9-8.62,7.2l-.38-.77c5.07-1.95,6.97-5.47,7.27-8.95h-1.85c-1,1.52-2.27,3-3.6,3.97l-.52-.52c2.07-2.47,3-5.12,3.47-7.42l2.32,.65c-.22,.67-.57,1.42-1,2.2h6.72l.53-.48,2.3,1.3c-.97,1.37-2.4,2.85-3.67,3.72l-.67-.55c.75-1.1,1.15-1.9,1.47-2.87h-3.32c0,.2-.02,.38-.02,.57,.95,4.92,6.32,6.37,7.7,6.75Z"/>
        <path class="cls-1" d="M1129.75,75.56h4.52v17.42h-2.2v-2.27h-4.3v2.75h-2.2v-17.9h2.97c.35-1.6,.65-3.72,.77-5.02l2.7,.57c-.52,1.37-1.47,3.15-2.27,4.45Zm2.32,1.12h-4.3v5.52h4.3v-5.52Zm0,12.9v-6.25h-4.3v6.25h4.3Zm13.92-13.97c-.05,8.75-.2,12.95-.6,15.32-.55,3.25-3.47,4.17-8.17,.12l.42-.8c4.02,1.62,5.15,1.75,5.47-.28,.22-1.45,.52-4.77,.55-13.25h-5.25c-.77,1.92-1.82,3.95-3.3,5.82l-.73-.55c1.8-3.52,2.67-8.12,3.07-11.4l2.62,.52c-.23,1.15-.62,2.72-1.25,4.47h7.15Zm-6.07,11.4c-.83-2.37-1.8-4.47-2.85-6.45l.72-.57c1.65,1.52,3.45,3.8,4.4,5.75l-2.27,1.27Z"/>
        <path class="cls-1" d="M1154.78,80.58l-.38-.82c2.82-1.1,5.57-2.97,7.52-5.35h-6.32v-1.12h7.17c.58-.85,1.05-1.77,1.37-2.72l2.67,.52c-.4,.8-.88,1.52-1.35,2.2h10.62v1.12h-7.42c2.52,2.02,6.05,2.87,8.82,3.15l-1.25,2.42c-2.82-.75-6.47-2.52-8.87-5.57h-2.8c-2.85,3.32-6.62,5.1-9.8,6.17Zm15.4,1.17h6.42v1.12h-7.92c-1.25,.87-2.62,1.65-4.05,2.32h9.4v8.85h-2.2v-1.47h-9.52v1.47h-2.2v-7c-1.62,.57-3.25,1.05-4.8,1.47l-.32-.85c3.65-1.12,7.4-2.72,10.45-4.8h-10.25v-1.12h8.7v-2.37h-3.47v-1.12h3.47v-2.55h2.25v2.55h3.5v.92c.3-.37,.57-.75,.82-1.12l2.17,1.17c-.7,.92-1.55,1.75-2.45,2.52Zm1.65,4.57h-9.52v2h9.52v-2Zm0,3.07h-9.52v2.05h9.52v-2.05Zm-4.85-7.65c.92-.75,1.77-1.52,2.47-2.37h-3.32v2.37h.85Z"/>
        <path class="cls-1" d="M1186.73,86.53l.88,.1c0,2.95-.3,5.47-.77,7.1l-2.3-.95c.92-1.5,1.7-3.57,2.2-6.25Zm.17-3.32c1.15-1.27,2.27-2.85,3.27-4.65-1.47,.43-3.15,.77-4.37,.95l-.45-2.17c.52,.05,1.02,.07,1.5,.1,.9-1.85,1.67-4.12,2.27-6.87l2.32,.87c-.92,2.22-2.35,4.5-3.52,6.02,.95,.02,1.87-.03,2.87-.07,.47-1,.95-2.07,1.35-3.22l2.15,.95c-1.22,2.6-3.77,6.05-6.12,8.05,1.25-.07,2.5-.2,3.75-.4-.23-.62-.48-1.25-.73-1.77l.73-.52c1.07,1.12,2.22,2.9,2.85,4.27l-1.9,.95c-.17-.62-.4-1.37-.65-2.12-2.35,.9-5.02,1.72-6.5,1.95l-.57-2.3c.57,.02,1.17,.02,1.75,0Zm2.62,3.25c.7,1.92,1.15,4.3,1.37,5.8l-2.22,.37c.1-1.57,.15-4-.02-6.02l.88-.15Zm1.77-.75c1.02,1.5,1.97,3.45,2.57,4.9l-2.1,.82c-.27-1.65-.75-3.7-1.25-5.3l.78-.43Zm15.97,3.07l-1.62,2.05c-1.33-1.5-3.17-3.22-4.9-4.65v5.22c0,2.8-2.6,3.3-5.75,.82l.25-.8c2.95,.8,3.35,.57,3.35-.6v-4.17c-1.17,1.1-2.65,2.17-4.27,3.2l-1.1-2.12c1.85-.62,3.5-1.32,5.37-2.42v-4.7h-5.62v-1.12h7.52c.15-.57,.33-1.22,.48-1.87h-4.17l-.5,1.32-1.83-.43c.9-2.47,1.58-5.07,2.2-7.75l2.03,.42c-.12,.52-.28,1.02-.4,1.52h3.37l.45-.32,2.02,.72c-.5,2-.97,4.22-1.6,6.37h3.97v1.12h-5.77v4.47l.55,.22c1.2-1.2,2.2-2.72,2.95-4.1l1.85,1.4c-1,1.12-2.55,2.3-3.92,3.12,1.88,.9,3.82,2.02,5.1,3.05Zm-11.2-2.95c-.67-1.57-1.42-3.05-2.07-3.97l.65-.6c.95,.7,2.42,2.17,3.22,3.32l-1.8,1.25Zm5.15-9.32c.22-1.02,.42-2.02,.55-2.72h-3.77c-.28,.9-.53,1.8-.83,2.7l4.05,.02Z"/>
        <path class="cls-1" d="M1220.9,82.55v11.4h-2.15v-10.07c-1.12,1.12-2.42,2.1-3.82,2.9l-.47-.75c3.85-3,5.5-6.42,6.4-9.6h-5.67v-1.12h3.92c-.48-1.07-1.42-3.02-2.2-4.25l.6-.52c1.27,.97,2.65,2.2,3.67,3.5l-1.72,1.27h1.55l.42-.37,2.15,.97c-.58,1.85-1.42,3.6-2.52,5.2,1.42,.95,2.52,2.05,3.45,3.15l-1.85,1.62c-.6-1.25-1.08-2.25-1.75-3.32Zm12.87,10.87c-3.22,0-3.5-.6-3.5-2.55v-5.67h-.95c-.35,4.9-3.05,7.42-7.52,9l-.4-.82c3.75-1.75,5.5-4.45,5.72-8.17h-2.42v-13.07h10.32v13.07h-2.6v5.2c0,.82,.2,1.02,1.47,1.02,1.38,0,1.6-.3,1.6-3.77h.9c1.15,4.5,.88,5.77-2.62,5.77Zm-7.02-17.35h6.17v-2.82h-6.17v2.82Zm0,4.05h6.17v-2.92h-6.17v2.92Zm0,3.95h6.17v-2.82h-6.17v2.82Z"/>
        <path class="cls-1" d="M1256.57,89.28c-3.27,1.6-8,3.02-11.37,3.6l-.62-2.4c1.5-.1,3.17-.3,4.92-.6v-3.32h-4.27v-1.12h4.27v-2.8h-3.77v-10.72h9.6v10.72h-3.72v2.8h4.32v1.12h-4.32v2.95c1.6-.3,3.17-.67,4.67-1.07l.3,.85Zm-8.8-12.65h1.72v-3.6h-1.72v3.6Zm1.72,4.87v-3.75h-1.72v3.75h1.72Zm2.1-4.87h1.67v-3.6h-1.67v3.6Zm0,4.87h1.67v-3.75h-1.67v3.75Zm14.95-1c-.77,1.45-2.37,3.72-3.27,4.5l-.7-.47c.52-1.17,1.1-2.77,1.35-3.67h-2v10.77c0,2.32-2.15,3.3-6.25,.7l.25-.85c3.37,.82,3.8,.47,3.8-.7v-9.92h-3.92v-1.12h5.4c-1.02-1.3-2.52-2.87-3.87-4.12l.42-.67c1,.5,2.05,1.07,3.07,1.75,.92-1.1,2.17-2.9,2.65-3.87h-7.22v-1.12h7.32l.5-.32,2.38,1.47c-1.2,1.45-3.12,3.2-4.85,4.37,.55,.37,1.05,.8,1.53,1.22l-1.3,1.3h2.12l.48-.4,2.12,1.17Z"/>
        <path class="cls-1" d="M966.85,132.83v1.12h-6.1v1.8h-2.15v-1.8h-5.4v1.8h-2.15v-1.8h-6.12v-1.12h6.12v-2.05h2.15v2.05h5.4v-2.05h2.15v2.05h6.1Zm-9.9,11.72h8.9v7.1c0,2.22-1.95,3.25-6.5,.95l.2-.95c3.6,.72,4.1,.4,4.1-1.17v-4.8h-6.7v2.65c.95-.07,1.88-.15,2.65-.23-.25-.57-.5-1.12-.72-1.55l.75-.5c1.2,1.1,2.5,2.75,3.17,3.85l-1.92,1.17c-.22-.57-.55-1.32-.88-2.1-3.25,.97-8.2,1.9-10.45,2.12l-.55-2.4c1.55,0,3.62-.07,5.7-.22v-2.82h-6.8v8.32h-2.2v-9.42h9v-1.55h-6.6v-6.62h15.32v6.62h-6.47v1.55Zm-6.75-5.42h4.5v-1.62h-4.5v1.62Zm4.5,2.75v-1.62h-4.5v1.62h4.5Zm2.25-2.75h4.37v-1.62h-4.37v1.62Zm0,2.75h4.37v-1.62h-4.37v1.62Z"/>
        <path class="cls-1" d="M983.32,145.43l.27,.82c-2.37,1.42-5.25,2.77-8.27,3.87l-.7-2.5c.78-.1,1.97-.32,3.37-.65v-8.15h-3.07v-1.12h3.07v-6.77h2.15v6.77h3.02v1.12h-3.02v7.57c1.07-.3,2.15-.62,3.17-.97Zm13.52-1.97v1.12h-6.32v9.42h-2.25v-9.42h-6.37v-1.12h6.37v-9.9h-5.57v-1.12h13.3v1.12h-5.47v9.9h6.32Zm-9.5-2.25l-2.2,.8c-.55-2.22-1.22-4.62-1.97-6.6l.83-.38c1.15,1.57,2.47,3.77,3.35,6.17Zm3.8,.52c.97-2.07,1.82-4.75,2.22-7l2.35,.95c-.92,2.2-2.65,5.02-3.77,6.45l-.8-.4Z"/>
        <path class="cls-1" d="M1006.73,146.53l.88,.1c0,2.95-.3,5.47-.77,7.1l-2.3-.95c.92-1.5,1.7-3.57,2.2-6.25Zm.17-3.32c1.15-1.27,2.27-2.85,3.27-4.65-1.47,.43-3.15,.77-4.37,.95l-.45-2.17c.52,.05,1.02,.07,1.5,.1,.9-1.85,1.67-4.12,2.27-6.87l2.32,.87c-.92,2.22-2.35,4.5-3.52,6.02,.95,.02,1.87-.03,2.87-.07,.47-1,.95-2.07,1.35-3.22l2.15,.95c-1.22,2.6-3.77,6.05-6.12,8.05,1.25-.07,2.5-.2,3.75-.4-.23-.62-.48-1.25-.73-1.77l.73-.52c1.07,1.12,2.22,2.9,2.85,4.27l-1.9,.95c-.17-.62-.4-1.37-.65-2.12-2.35,.9-5.02,1.72-6.5,1.95l-.57-2.3c.57,.02,1.17,.02,1.75,0Zm2.62,3.25c.7,1.92,1.15,4.3,1.37,5.8l-2.22,.37c.1-1.57,.15-4-.02-6.02l.88-.15Zm1.77-.75c1.02,1.5,1.97,3.45,2.57,4.9l-2.1,.82c-.27-1.65-.75-3.7-1.25-5.3l.78-.43Zm15.97,3.07l-1.62,2.05c-1.33-1.5-3.17-3.22-4.9-4.65v5.22c0,2.8-2.6,3.3-5.75,.82l.25-.8c2.95,.8,3.35,.57,3.35-.6v-4.17c-1.17,1.1-2.65,2.17-4.27,3.2l-1.1-2.12c1.85-.62,3.5-1.32,5.37-2.42v-4.7h-5.62v-1.12h7.52c.15-.57,.33-1.22,.48-1.87h-4.17l-.5,1.32-1.83-.43c.9-2.47,1.58-5.07,2.2-7.75l2.03,.42c-.12,.52-.28,1.02-.4,1.52h3.37l.45-.32,2.02,.72c-.5,2-.97,4.22-1.6,6.37h3.97v1.12h-5.77v4.47l.55,.22c1.2-1.2,2.2-2.72,2.95-4.1l1.85,1.4c-1,1.12-2.55,2.3-3.92,3.12,1.88,.9,3.82,2.02,5.1,3.05Zm-11.2-2.95c-.67-1.57-1.42-3.05-2.07-3.97l.65-.6c.95,.7,2.42,2.17,3.22,3.32l-1.8,1.25Zm5.15-9.32c.22-1.02,.42-2.02,.55-2.72h-3.77c-.28,.9-.53,1.8-.83,2.7l4.05,.02Z"/>
        <path class="cls-1" d="M1036.23,131.83h6.6v19.67c0,2.2-2.5,3.05-5.55,.47l.3-.8c2.15,.7,3.1,.68,3.1-.42v-6.3h-2.4c-.35,4.32-1.4,7.95-2.82,9.82l-.75-.47c1.35-3.5,1.52-6.77,1.52-13.07v-8.9Zm2.15,9.7c0,.6-.02,1.2-.05,1.8h2.35v-4.67h-2.3v2.87Zm0-3.97h2.3v-4.6h-2.3v4.6Zm12.7-1.6v3.25h4.72v9.37c0,1.87-1.7,3.1-4.55,.65l.3-.8c2,.62,2.1,.4,2.1-.77v-7.32h-2.57v13.55h-2.2v-13.55h-2.42v10.77h-2.15v-11.9h4.57v-3.25h-5.52v-1.12h6.8c-1.2-1.17-2.6-2.37-3.6-3.1l.4-.82c1.67,.52,3.42,1.27,5,2.27l-1.22,1.65h6.27v1.12h-5.92Z"/>
        <path class="cls-1" d="M1073.47,142.13c0-1.3,1.05-2.35,2.38-2.35s2.35,1.05,2.35,2.35-1.05,2.35-2.35,2.35-2.38-1.05-2.38-2.35Z"/>
        <path class="cls-1" d="M1102.62,132.73v17.6h-2.15v-1.95h-2.7v2.57h-2.15v-18.22h7Zm-2.15,1.12h-2.7v5.77h2.7v-5.77Zm0,6.9h-2.7v6.5h2.7v-6.5Zm10.92,10.02v-6.15h-8.27v-1.12h8.27v-2.77h2.27v2.77h3.22v1.12h-3.22v6.92c0,2.27-1.97,3.65-6.17,.57l.3-.85c3.2,.97,3.6,.75,3.6-.5Zm-7.87-11.75h4.97v-3.5h-4.47v-1.12h4.47v-3.52h2.3v3.52h4.77v1.12h-4.77v3.5h5.8v1.12h-13.07v-1.12Zm1.05,6.67l.67-.57c1.27,.9,2.85,2.27,3.9,3.72l-1.95,1.37c-.6-1.27-1.72-3.17-2.62-4.52Z"/>
        <path class="cls-1" d="M1130.8,137.03v16.95h-2.25v-13.72c-1,1.22-2.12,2.4-3.38,3.47l-.6-.72c2.65-3.02,5-7.17,6.45-12.4l2.47,.82c-.67,1.82-1.55,3.75-2.7,5.6Zm15,9.2c2.1,5.97,.78,8.9-3.17,6.92-2.7-1.35-4.8-4.82-5.72-12.87-1.65,.25-3.32,.5-4.97,.72l-.23-1.4c1.67-.22,3.37-.47,5.07-.72-.22-2.35-.33-4.92-.42-7.65h2.3c.1,2.77,.23,5.25,.4,7.3,2.55-.38,5.12-.8,7.7-1.25l.2,1.37c-2.57,.45-5.17,.87-7.77,1.27,.58,5.12,1.92,9.45,4.2,10.7,1.72,.95,1.6-.92,1.5-4.4h.92Zm-2.25-9.37c-1.05-1.65-2.27-3.22-3.45-4.72l.57-.7c1.67,.97,3.22,2.12,4.8,3.65l-1.92,1.77Z"/>
        <path class="cls-1" d="M1164.15,141.73c-.95,.6-2.2,1.3-3.5,1.95v8.22c0,2.17-2.35,2.97-5.8,.77l.25-.87c2.72,.6,3.4,.4,3.4-.95v-6.12c-1.07,.5-2.1,.92-2.95,1.22l-.9-2.35c1.12-.2,2.47-.52,3.85-.9v-5.1h-3.52v-1.12h3.52v-5.62h2.15v5.62h2.95v1.12h-2.95v4.45c1.22-.38,2.33-.8,3.12-1.15l.37,.82Zm9.27-.77c-1.3,.07-3.72,.12-5.02,.05-3.3-.2-4.22-.47-4.22-3.32v-6.85h2.25v4.52c2.22-.87,4.87-2.27,6.8-3.85l2.12,1.75c-2.45,1.32-6.35,2.6-8.92,3.17v.87c0,1.2,.17,1.52,2.25,1.67,1,.07,3.3,.05,4.5-.05,1.52-.12,1.72-.7,1.7-3.82l.9-.02c1.27,4.6,.9,5.67-2.35,5.87Zm-9.1,1.82h11.52v11.1h-2.2v-1.7h-7.12v1.77h-2.2v-11.17Zm2.2,4.1h7.12v-2.97h-7.12v2.97Zm0,4.17h7.12v-3.05h-7.12v3.05Z"/>
        <path class="cls-1" d="M1190.33,140.7v13.22h-2.1v-11.87c-.65,1.92-1.77,4.27-3.17,6.22l-.7-.55c1.22-2.37,2.8-6.35,3.47-10.4h-2.95v-1.12h3.35v-5.4h2.1v5.4h2.8v1.12h-2.8v1.72c1.17,1.3,2.47,2.95,3.22,4.55l-1.8,.87c-.4-1.25-.95-2.62-1.42-3.77Zm1.22,12.02l-.53-.75c1.28-1.05,3.07-3.07,4.15-5.15l2.02,1.12c-1.7,2.17-3.95,3.85-5.65,4.77Zm9.17-6.27v4.85c0,2.8-2.2,3.7-5.82,1.27l.25-.85c3.02,.75,3.35,.47,3.35-.7l.02-4.57h-6.1v-1.12h14.4v1.12h-6.1Zm-3.55-13.05h-4.45v-1.12h14.02v1.12h-4.45v2h3.7v5.85h-12.4v-5.85h3.57v-2Zm-3.1,10.32v-1.05h11.12v1.05h-11.12Zm1.52-3.55h1.57v-3.7h-1.57v3.7Zm4.9-6.77h-1.52v2h1.52v-2Zm-1.52,6.77h1.52v-3.7h-1.52v3.7Zm8.42,11.15l-1.82,1.57c-.83-1.3-2.55-3.7-3.92-5.37l.57-.62c1.85,1.22,4.1,3.1,5.17,4.42Zm-5.1-14.85v3.7h1.65v-3.7h-1.65Z"/>
        <path class="cls-1" d="M967.17,180.58l-.88,2.45c-4.52,.4-11.35,.3-13.87-.55-2.4-.75-3.85-2.17-4.65-4.02-.5,2.4-1.35,4.22-2.52,5.57l-.77-.5c1.32-2.42,1.85-5.65,1.67-11.3l2.15,.05c0,1.72-.08,3.25-.28,4.62,.5,1.05,1,1.77,1.6,2.32v-8.87h-4.75v-1.1h4.6v-3.35h-3.9v-1.07h3.9v-4.05h2.2v4.05h3.82v1.07h-3.82v3.35h4.8c1.3-1.42,2.02-3.2,2.12-5.87h-3.3v-1.12h10.72c-.12,3.22-.28,5.35-.6,6.7-.42,1.75-2.3,2.67-5.62,.03l.35-.77c2.55,.85,3.12,.72,3.32-.3,.22-1.12,.35-2.52,.38-4.52h-3.05c-.27,4-2.4,6.62-5.6,8.17l-.5-.75,.6-.45h-3.47v3.57h3.7v1.07h-3.7v5.42c.1,.05,.2,.07,.3,.1,2.7,.77,9.4,.8,15.05,.05Zm-3.8-.7v-1.55h-5.2v1.82h-2.15v-8.57h9.5v8.3h-2.15Zm0-2.67v-4.5h-5.2v4.5h5.2Z"/>
        <path class="cls-1" d="M997.32,180.48l-.87,2.55c-3.15,.15-6.27,.23-9.42,.2-5.75-.05-8.25-2.05-9.27-5.1-.47,2.55-1.35,4.47-2.6,5.9l-.78-.5c1.25-2.42,1.85-5.65,1.67-11.3l2.15,.05c0,1.52-.05,2.92-.2,4.17,.4,.92,.83,1.65,1.3,2.22v-8.57h-4.42v-1.1h4.05v-3.35h-3.45v-1.07h3.45v-3.62h2.15v3.62h3.88v1.07h-3.88v3.35h4.45v1.1h-4.07v3.65h3.55v1.07h-3.55v5.47c1.4,.57,3.17,.68,5.57,.68,4.15,0,7.82-.25,10.3-.5Zm-11.4-15.12h3.97l-.08-4.35h2c-.03,1.4-.03,2.87,.02,4.35h5v1.12h-4.97c.1,2.35,.35,4.62,.8,6.47,.72-1.5,1.32-3.17,1.77-4.92l1.97,.8c-1,2.6-1.92,4.65-3,6.32,.1,.23,.2,.42,.32,.62,1.3,2.17,1.83,1.55,1.75-1.87h.8c1.42,4.45,.05,7.47-2.9,4.7-.5-.47-.95-1.05-1.32-1.7-1.1,1.25-2.42,2.3-4.15,3.3l-.47-.7c1.5-1.07,2.8-2.5,3.9-4.17-.95-2.5-1.28-5.7-1.4-8.85h-1.92v8.57c.65-.32,1.32-.7,2.02-1.15l.5,.8c-1.85,1.8-4.2,3.22-5.87,3.97l-1.08-2.12c.8-.18,1.58-.37,2.33-.65v-10.55Zm8-.35c-.38-1.57-.62-2.47-1.08-3.55l.75-.43c.83,.85,1.57,1.97,2.17,3.12l-1.85,.85Z"/>
        <path class="cls-1" d="M1024.9,179.08l1.27,1.7c-.9,1.22-2.47,1.6-4.67,1.75-1.45,.1-3.95,.1-5.4,0-3.32-.23-4.12-.7-4.12-4.12v-7.7l-6.77,1.02-.25-1.35c2.25-.35,4.62-.7,7.02-1.07v-8.42h2.4v8.05c4.12-.62,8.3-1.27,12.17-1.92l.28,1.35c-3.95,.65-8.22,1.32-12.45,1.97v7.77c0,1.8,.25,2.17,1.95,2.3,1.4,.1,3.82,.1,5.22,0,2.2-.15,2.67-.32,3.35-1.32Z"/>
        <path class="cls-1" d="M1038.55,177.53l2.32,1.3c-1.75,2.32-3.75,4.1-5.6,5.27l-.6-.67c1.47-1.47,3-3.95,3.88-5.9Zm8.57-.35h-12.2v-1.12h2.38v-10.47h-2.1v-1.12h2.1v-3.57h2.15v3.57h3.4v-3.57h2.15v3.57h2.02v1.12h-2.02v10.47h2.12v1.12Zm-4.27-11.6h-3.4v2.57h3.4v-2.57Zm0,3.65h-3.4v2.75h3.4v-2.75Zm0,3.82h-3.4v3h3.4v-3Zm3.32,7.6l-1.78,1.57c-.87-1.5-1.87-2.82-2.85-4.05l.6-.68c1.32,.72,2.97,2,4.02,3.15Zm9.52-18.65v19.42c0,2.25-2.02,3.67-6.22,.7l.28-.85c3.42,.8,3.75,.6,3.75-.7v-5.92h-3.52c-.33,3.77-1.35,6.97-4.6,9.47l-.62-.67c3.07-3.2,3.17-7.47,3.17-13.77v-7.67h7.77Zm-2.2,11.52v-4.77h-3.38v.52c0,1.47,0,2.9-.07,4.25h3.45Zm-3.38-10.4v4.5h3.38v-4.5h-3.38Z"/>
        <path class="cls-1" d="M1073.47,172.13c0-1.3,1.05-2.35,2.38-2.35s2.35,1.05,2.35,2.35-1.05,2.35-2.35,2.35-2.38-1.05-2.38-2.35Z"/>
        <path class="cls-1" d="M1101.95,176.88v7.1h-2.2v-6.42c-.92,1.42-2.37,3.15-4.67,4.7l-.55-.7c1.77-1.5,3.8-4.45,4.7-6.77h-4v-1.07h4.52v-2.45h2.2v2.45h4.2v1.07h-4.2v.8c1.22,.75,2.75,1.75,4.02,3.12l-1.6,1.55c-.8-1.27-1.65-2.35-2.42-3.37Zm4.62-6.12h-11.7v-1.12h3.27c-.42-1.22-1.05-2.82-1.57-3.9l.75-.5c.98,.92,2.17,2.47,2.83,3.65l-1.45,.75h2.92c.47-1.4,.85-3.25,1-4.45l2.25,.72c-.58,1.2-1.45,2.67-2.27,3.72h3.97v1.12Zm-.6-5.7h-10.72v-1.1h5.22c-.88-.95-1.8-1.85-2.77-2.7l.45-.75c1.3,.45,2.82,1.15,4.17,2.1l-1.02,1.35h4.67v1.1Zm10.97,5.07h-2.57v13.75h-2.2v-13.75h-2.85v1c0,6.45-1.3,10.47-4.4,13.12l-.67-.6c2.37-2.92,2.82-6.42,2.82-11.7v-9.25l2.07,.55c1.92-.55,3.47-1.32,5.1-2.5l2.15,1.82c-2.25,.8-4.57,1.35-7.07,1.57v4.85h7.62v1.12Z"/>
        <path class="cls-1" d="M1147.17,180.4l-.88,2.65c-3.15,.2-6.12,.22-9.27,.12-5.52-.17-8-2.1-9.07-4.95-.47,2.45-1.32,4.3-2.55,5.7l-.78-.5c1.25-2.42,1.85-5.65,1.67-11.3l2.15,.05c0,1.62-.08,3.1-.22,4.42,.55,1.15,1.15,2,1.85,2.65v-8.97h-4.9v-1.1h4.72v-3.35h-4.12v-1.07h4.12v-3.92h2.2v3.92h3.62v1.07h-3.62v3.35h4.27v1.1h-4.1v3.65h3.65v1.07h-3.65v5.5c1.3,.43,2.85,.52,4.75,.52,4.15,.03,7.67-.27,10.15-.62Zm-10.4-4.72v-12.9h8.07v8.85h-2.1v-1.2h-3.82v4.92c0,1.42,.1,1.57,1.3,1.7,1.02,.1,1.77,.12,2.8,0,1.33-.15,1.55-.4,1.47-3.92h.83c1.52,4.97,.72,5.6-2.02,5.82-1.2,.1-2.3,.12-3.5,.03-2.42-.2-3.02-.7-3.02-3.3Zm2.15-6.35h3.82v-5.47h-3.82v5.47Z"/>
        <path class="cls-1" d="M1176.95,179.68l-1.05,2.92c-2.4,.22-4.37,.3-7.42,.22-5.27-.12-7.45-2.4-8.52-4.97-1.3-3.15-1.2,1.12-2.62,5.55l-2.62-1.37c3.02-4.77,3.87-9.22,5.82-5.42,.1,.22,.23,.42,.35,.65,3.55-2.37,7.67-6.25,9.67-9.92h-14.55v-1.37h14.57l1.02-.67,2.75,1.57c-3.72,5.55-8.12,8.8-12.95,11.25,.97,1.27,2.7,2.35,7.17,2.35,3.05,0,5.85-.38,8.37-.77Zm-16.25-18.52l.5-.82c1.78,.65,4.52,1.95,6.22,3.25l-1.82,2.22c-1.57-1.75-3.32-3.22-4.9-4.65Z"/>
        <path class="cls-1" d="M1207.22,170.75l-1.17,2.45c-2.42-.5-6.47-2.42-9.07-6.1v4.7h-2.25v-4.7c-1.75,2.7-5.45,5.12-9.85,6.35l-.38-.8c3.9-1.52,6.12-3.37,7.85-5.77h-6.95v-1.12h9.32v-1.8c-2.82,.2-5.65,.27-7.67,.15l-.12-.87c6.67-.22,11.47-1.27,14.95-2.67l2.15,1.92c-1.67,.55-4.27,.97-7.05,1.27v2h9.37v1.12h-8.2c2.97,2.57,6.02,3.3,9.07,3.87Zm-7.47,5.02h5.12c-.5,3.02-1,4.82-1.45,5.92-1.1,2.7-3.57,3.17-7.5-.3l.42-.8c3.8,1.52,4.47,1.32,5.12-.35,.3-.77,.55-1.87,.83-3.35h-2.92c-.18,.55-.38,1.07-.55,1.55l-2.22-.45c.57-1.42,1.07-2.97,1.42-4.4h-3.85c-.65,6.62-4.95,9.47-8.9,10.57l-.38-.8c3.55-1.57,6.45-4.17,6.92-9.77h-3.65v-1.12h12.45c-.22,1.05-.52,2.2-.87,3.3Z"/>
      </g>
    </g>
  </g>
</svg>