<?xml version="1.0" encoding="UTF-8"?>
<svg id="_圖層_2" data-name="圖層 2" xmlns="http://www.w3.org/2000/svg" xmlns:xlink="http://www.w3.org/1999/xlink" viewBox="0 0 825.07 141.95">
  <defs>
    <style>
      .cls-1 {
        fill: #fff;
      }

      .cls-2 {
        filter: url(#drop-shadow-1);
      }

      .cls-3 {
        filter: url(#drop-shadow-2);
      }
    </style>
    <filter id="drop-shadow-1" filterUnits="userSpaceOnUse">
      <feOffset dx="2.52" dy="2.52"/>
      <feGaussianBlur result="blur" stdDeviation="6.3"/>
      <feFlood flood-color="#000" flood-opacity=".4"/>
      <feComposite in2="blur" operator="in"/>
      <feComposite in="SourceGraphic"/>
    </filter>
    <filter id="drop-shadow-2" filterUnits="userSpaceOnUse">
      <feOffset dx="1.66" dy="1.66"/>
      <feGaussianBlur result="blur-2" stdDeviation="4.16"/>
      <feFlood flood-color="#000" flood-opacity=".4"/>
      <feComposite in2="blur-2" operator="in"/>
      <feComposite in="SourceGraphic"/>
    </filter>
  </defs>
  <g id="_圖層_1-2" data-name="圖層 1">
    <g>
      <g class="cls-2">
        <path class="cls-1" d="M26.62,90.53c0,10.45-9.57,14.41-26.62,3.41l1.32-3.74c13.53,3.3,15.18,2.53,15.18-2.64V12.98H.55v-4.95H37.51v4.95h-10.89V90.53Zm28.71-9.68l9.13,6.93c-10.23,7.7-26.07,14.41-37.51,17.16l-1.54-3.74c10.56-4.4,22.33-12.21,29.92-20.35ZM61.27,11.33h-22.22V6.38h56.54v4.95h-23.43c-2.53,4.95-5.61,10.56-7.7,14.08h26.4v54.23H40.48V25.41h19.14c.66-4.18,1.32-10.12,1.65-14.08Zm19.91,19.03h-31.02v11.22h31.02v-11.22Zm0,16.17h-31.02v11.66h31.02v-11.66Zm0,16.61h-31.02v11.55h31.02v-11.55Zm18.48,31.57l-6.38,9.35c-6.27-5.5-16.72-13.53-24.86-18.81l1.65-3.63c10.01,3.19,20.57,7.59,29.59,13.09Z"/>
        <path class="cls-1" d="M219.23,91.63l-6.6,11.33c-13.97-3.3-32.89-12.32-41.14-34.54-6.71,21.78-25.41,31.68-48.95,35.97l-1.21-3.74c20.79-5.83,34.54-15.84,39.71-33.88h-37.84v-4.95h39.05c.77-3.74,1.1-7.92,1.21-12.32l10.78,.66c-.11,4.18-.44,8.03-1.1,11.66h43.45v4.95h-41.69c8.91,17.6,29.15,22.44,44.33,24.86ZM124.52,49.28l-2.64-3.08c8.36-7.37,19.25-20.57,24.53-35.09l10.67,4.84c-7.59,14.08-20.35,26.18-32.56,33.33Zm28.05-14.74c11.33,3.52,14.74,4.51,14.74-2.64V1.1h10.45V34.54c-.11,12.65-10.45,17.05-26.73,3.52l1.54-3.52Zm56.1,10.23c-4.51-7.48-14.74-21.67-23.1-30.03l2.64-3.08c10.78,6.38,23.54,17.71,29.81,25.3l-9.35,7.81Z"/>
        <path class="cls-1" d="M335.06,5.61V102.85h-9.68v-5.61h-68.97v5.94h-9.68V5.61h88.33Zm-9.68,4.95h-68.97V92.29h68.97V10.56Zm-64.13,72.49l-3.19-8.91c11.77-1.98,25.52-5.94,34.1-9.13l1.43,3.52c-8.14,5.17-21.89,11.33-32.34,14.52Zm30.69-51.04h-33.44v-4.95h33.11c-.22-4.4-.33-9.02-.33-13.86h8.8c0,4.51,0,9.13,.22,13.86h10.56c-2.09-4.29-5.06-9.68-7.04-12.98l3.08-2.31c3.63,2.64,9.13,8.14,11.88,11.99l-4.73,3.3h9.35v4.95h-22.88c.55,8.91,1.43,17.71,3.08,25.19,2.42-5.61,4.4-12.1,6.38-20.02l8.47,3.08c-3.52,11.22-7.15,19.91-11.77,26.95,1.76,4.07,3.85,7.26,6.49,9.02,2.64,1.76,2.86-4.07,2.86-15.18h3.96c5.28,17.16,2.53,32.56-9.35,24.86-3.96-2.53-7.15-6.38-9.68-11.33-5.72,6.05-12.76,10.67-22.33,15.07l-1.87-3.41c9.57-5.83,16.17-11.33,21.12-18.59-3.19-9.13-5.06-21.12-5.94-35.64Zm-30.03,31.46v-23.98h26.51v23.98h-26.51Zm8.14-4.62h10.23v-14.74h-10.23v14.74Z"/>
        <path class="cls-1" d="M386.98,63.14c-.44-6.93-2.09-13.09-7.37-22.55,1.98-6.49,4.18-19.14,5.39-28.93h-8.14V103.62h-9.24V4.62l9.24,2.42h7.59l2.42-1.65,9.24,4.07c-4.62,13.75-9.13,24.86-12.76,30.47,7.37,8.47,11.33,16.61,12.21,25.74,1.32,13.31-6.71,17.71-17.6,10.67l.99-3.74c7.7,1.54,8.69,.22,8.03-9.46Zm1.54,35.09l-2.42-3.08c6.93-5.94,15.51-16.5,20.13-26.73l9.46,5.06c-6.82,10.01-19.69,20.13-27.17,24.75Zm-.44-61.16c7.92-11,12.32-23.65,15.07-36.96l9.02,2.31c-.77,2.75-1.87,5.61-3.08,8.58h7.15l2.42-1.54,8.25,3.52c-3.3,12.98-8.14,23.21-14.74,31.46h30.69v4.84h-32.45v-2.75c-3.85,4.51-8.36,8.25-13.42,11.66l-2.2-3.19c4.51-4.07,8.36-8.58,11.55-13.31-2.42-3.3-5.83-7.26-8.58-10.23-2.2,2.97-4.62,5.72-7.15,8.03l-2.53-2.42Zm43.45,55.22c.11,13.09-12.1,15.29-26.51,3.52l1.54-3.63c13.31,4.07,15.29,3.63,15.29-2.53v-24.75h-23.54v-4.95h58.52v4.95h-25.3v27.39Zm-21.45-56.98c.88-1.65,1.65-3.41,2.42-5.17-2.75-2.64-6.05-5.39-9.02-7.59-1.1,2.09-2.31,4.07-3.63,5.94,3.3,1.87,7.15,4.4,10.23,6.82Zm-2.97-19.69l-1.76,3.63c2.97,1.1,6.49,2.64,9.57,4.4,.88-2.75,1.54-5.39,1.98-8.03h-9.79Zm18.48-14.08l3.96-.66c2.2,11.55,6.05,20.13,10.89,26.73,3.3-4.84,5.5-9.02,7.26-14.3h-13.97l-.11-4.62h13.75l2.53-1.65,8.8,5.06c-6.38,10.45-10.56,14.52-15.73,18.59,5.5,6.6,12.1,11.11,18.81,14.85l-6.71,9.57c-14.3-10.12-24.64-23.87-29.48-53.57Zm36.96,88.44l-8.36,7.26c-3.08-5.28-11.33-17.16-18.15-25.41l2.75-2.86c9.02,6.16,19.14,15.18,23.76,21.01Z"/>
        <path class="cls-1" d="M581.24,19.8h-27.94l5.72,2.31c-4.07,5.61-9.02,10.89-12.87,14.3h28.93v55.88c0,11.11-10.45,15.4-27.5,4.4l1.32-3.85c13.31,3.08,16.28,2.42,16.28-3.85v-29.48h-13.53c-11,0-13.42-1.65-13.31-9.02l.11-9.13h-9.02c-1.32,13.75-11.22,19.47-24.75,22.99l-1.65-3.63c11.44-4.95,16.06-8.25,16.72-19.36h-17.38v61.82h-9.9V36.41h25.19c-1.76-4.95-4.29-11-6.93-15.29l1.98-1.32h-28.05v-4.95h49.17c-4.95-3.52-12.76-8.14-17.6-11.11l1.32-3.74c7.26,1.32,18.04,3.74,24.31,6.82l-4.84,8.03h44.22v4.95Zm-36.19,69.85v-4.51h-23.1v6.27h-9.02v-27.61h41.69v25.85h-9.57Zm2.53-69.85h-32.23c4.51,3.63,8.36,7.81,12.1,13.2l-5.83,3.41h19.58c2.31-4.62,4.84-11.11,6.38-16.61Zm-1.98,60.39v-11.44h-23.65v11.44h23.65Zm19.58-38.83h-17.93v7.81c0,2.2,.22,3.08,3.52,3.08h14.41v-10.89Z"/>
        <path class="cls-1" d="M704.44,87.78l-5.61,11.33c-10.23-2.2-30.03-10.56-40.26-22.44l.11,26.73h-9.68v-25.41c-7.81,7.92-24.75,17.16-43.56,21.12l-1.32-3.74c12.87-4.51,28.38-11.99,38.06-22.99h-34.87v-4.95h41.69v-7.7h-30.8v-4.73h30.8v-7.04h-36.96v-4.95h27.17c-2.53-4.29-5.72-8.8-8.8-12.76l1.1-1.43h-22.55v-4.95h16.61c-1.65-4.4-5.5-11.55-9.02-17.71l3.19-2.53c5.72,4.4,11.77,10.56,15.18,15.51l-7.48,4.73h12.54V.77h9.46V23.87h9.68V.77h9.46V23.87h3.3c2.97-4.84,6.05-14.19,7.92-20.68l10.34,5.06c-3.08,4.73-8.14,11.22-12.76,15.62h22v4.95h-30.14l7.37,3.52c-3.08,3.96-7.26,7.81-10.78,10.67h30.8v4.95h-38.28v7.04h32.23v4.73h-32.12v7.7h42.35v4.95h-39.71c13.97,10.12,35.42,14.41,43.34,15.4Zm-55.66-48.29l-4.29,3.52h15.4c1.98-3.74,4.51-9.68,5.94-14.19h-30.14c4.73,2.86,9.57,6.71,13.09,10.67Z"/>
        <path class="cls-1" d="M809.38,98.23c-3.74-3.19-6.71-7.7-9.13-13.2-6.93,7.92-15.62,13.97-26.51,18.26l-1.76-3.41c11.11-5.83,19.14-13.75,25.3-23.32-4.4-15.29-5.5-34.65-5.83-51.48h-21.23v17.16h18.92c0,8.58,.55,23.54-.55,32.01-1.32,10.56-9.24,11.66-19.69,3.63l1.21-3.19c7.48,1.76,8.58,1.98,9.35-1.54,.33-1.43,.77-11.33,.66-25.96h-9.9v5.61c0,23.1-7.37,38.39-20.79,50.6l-2.75-2.64c8.25-9.13,12.21-22.55,13.53-36.3-9.79,7.37-18.26,12.54-30.8,18.92l-4.4-10.67c3.63-.77,8.03-1.98,12.98-3.63V37.07h-11.55v-4.95h11.55V4.18l9.46-.11v27.94l11.11,.11v4.95l-11.11-.11v28.82c3.52-1.43,7.04-2.97,10.45-4.62l2.31,3.3c.33-3.96,.55-7.92,.55-11.77V20.13h30.69V1.43h9.02V20.13h12.32c-2.09-4.18-5.5-9.24-9.02-13.75l2.64-3.08c5.39,3.08,10.78,7.26,14.96,11.22l-6.71,5.61h7.37v4.95h-21.45c.11,12.98,.88,27.06,2.97,39.05,3.85-9.13,6.49-19.36,8.36-30.47l9.79,2.86c-3.3,15.95-8.03,29.26-15.07,40.04,1.32,3.96,2.97,7.37,4.84,10.12,5.28,7.81,7.59,3.19,7.59-11.33h3.52c6.82,21.01-1.32,32.89-13.2,22.88Z"/>
      </g>
      <g class="cls-3">
        <path class="cls-1" d="M141.35,139.52l-.17-1.15c5.52,.3,7.95-.9,8.1-4.65,.12-3-1.35-3.85-2.87-3.85s-2.52,.45-3,1.05l-1.67-.27,.33-8.75h9v1.65h-6.85l-.2,5.57,.1,.1c.47-.27,1.55-.87,2.82-.85,2.6,.02,4.95,1.77,4.95,5,0,5.27-4.07,6.8-10.52,6.15Z"/>
        <path class="cls-1" d="M159.25,130.72c0-5.9,2.7-9.1,6.35-9.1s6.05,3.25,6.05,8.85c0,5.97-2.35,9.3-6.3,9.27-3.52-.02-6.1-3.22-6.1-9.02Zm9.8-.15c0-4.32-1.1-7.52-3.6-7.52-2.12,0-3.6,2.9-3.6,7.7s1.38,7.57,3.57,7.57c2.47,0,3.62-3.25,3.62-7.75Z"/>
        <path class="cls-1" d="M178.65,130.72c0-5.9,2.7-9.1,6.35-9.1s6.05,3.25,6.05,8.85c0,5.97-2.35,9.3-6.3,9.27-3.52-.02-6.1-3.22-6.1-9.02Zm9.8-.15c0-4.32-1.1-7.52-3.6-7.52-2.12,0-3.6,2.9-3.6,7.7s1.37,7.57,3.57,7.57c2.47,0,3.62-3.25,3.62-7.75Z"/>
        <path class="cls-1" d="M203.4,124.58v16.95h-2.15v-13c-.72,1.07-1.58,2.1-2.57,3.02l-.65-.62c2.45-3.3,4.15-8.9,4.92-12.62l2.4,.68c-.47,1.67-1.07,3.62-1.95,5.6Zm3.15,10l.8,.17c-.18,2.3-.55,4.32-1.88,5.97l-1.9-1.42c1.47-1.17,2.42-2.82,2.97-4.72Zm1.35-12.57h-2.27v-1.12h6.6c-1-.7-2-1.32-3.07-1.97l.3-.8c1.32,.27,3.15,.62,4.7,1.37l-.8,1.4h6.12v1.12h-2.92l.58,.2c-.72,1.12-1.72,2.17-2.5,2.92h5.87v1.12h-15.82v-1.12h5c-.62-1.07-1.27-2.05-1.95-2.92l.17-.2Zm10.92,11.55h-12.67v-6.1h12.67v6.1Zm-2.32,2.12c1.62,3.92,.88,5.15-1.57,5.32-1.48,.1-2.75,.1-4.3,.02-1.2-.05-2.5-.25-2.5-2.4v-3.9h2.1v3.12c0,1.02,.22,1.12,1.05,1.2,.88,.08,2.32,.08,3.22-.02,1.2-.12,1.33-.45,1.15-3.35h.85Zm.12-7.15h-8.27v1.42h8.27v-1.42Zm0,2.42h-8.27v1.52h8.27v-1.52Zm-1.85-8.95h-5.8c.95,.62,1.9,1.42,2.62,2.25l-1.08,.88h3.15c.45-1,.82-2.02,1.1-3.12Zm-4.05,12.57l.42-.7c1.12,.48,2.6,1.22,3.9,2.32l-1.3,1.62c-.9-1.1-2.22-2.5-3.02-3.25Zm10.27,4.72l-2.05,.9c-.45-1.62-1.17-3.7-1.92-5.32l.7-.38c1.42,1.4,2.7,3.47,3.27,4.8Z"/>
        <path class="cls-1" d="M237.85,136.22l.37,.82c-2,1.3-6.15,2.87-9.37,3.77l-.75-2.5c.45-.05,.9-.12,1.35-.2v-8.42h1.95v8.1c.42-.08,.85-.15,1.25-.25v-10.32h-2.95v-7.52h7.45v7.52h-2.35v4.22h3.17v1.12h-3.17v4.5c1.12-.27,2.17-.55,3.05-.85Zm-6.1-10.12h3.35v-5.27h-3.35v5.27Zm19.32,.85l-1.28,2.15c-2.32-.9-4.45-3.07-5.67-6.25h-1.08c-.67,1.5-1.5,2.7-2.4,3.67h5.42v1.12h-5.55v-.98c-1.22,1.27-2.6,2.17-3.92,2.82l-.42-.65c1.87-1.15,3.6-2.97,4.75-6h-3.05v-1.12h3.42c.3-1,.53-2.12,.7-3.37l2.3,.35c-.2,1.1-.48,2.12-.8,3.02h6.45v1.12h-4.82c1.5,2.25,3.3,3.3,5.95,4.1Zm-12.9,2.95h10.92v1.12h-6.07c-.3,.8-.65,1.62-1.02,2.47h6.85c-.33,3.05-.55,4.55-.92,5.72-.78,2.4-2.88,3.45-6.65,.3l.35-.8c3.37,1.17,3.85,1,4.22-.2,.22-.72,.5-2.12,.65-3.9h-5c-.35,.75-.72,1.5-1.12,2.15l-1.97-.67c.92-1.57,1.7-3.42,2.3-5.07h-2.52v-1.12Z"/>
        <path class="cls-1" d="M279.57,119.35v22.09h-2.2v-1.27h-15.67v1.35h-2.2v-22.17h20.07Zm-2.2,1.12h-15.67v18.57h15.67v-18.57Zm-14.57,16.47l-.73-2.02c2.67-.45,5.8-1.35,7.75-2.07l.33,.8c-1.85,1.17-4.97,2.57-7.35,3.3Zm6.97-11.6h-7.6v-1.12h7.52c-.05-1-.07-2.05-.07-3.15h2c0,1.02,0,2.07,.05,3.15h2.4c-.47-.97-1.15-2.2-1.6-2.95l.7-.52c.83,.6,2.07,1.85,2.7,2.72l-1.07,.75h2.12v1.12h-5.2c.12,2.02,.32,4.02,.7,5.72,.55-1.27,1-2.75,1.45-4.55l1.92,.7c-.8,2.55-1.62,4.52-2.67,6.12,.4,.92,.88,1.65,1.47,2.05s.65-.92,.65-3.45h.9c1.2,3.9,.57,7.4-2.12,5.65-.9-.57-1.62-1.45-2.2-2.57-1.3,1.37-2.9,2.42-5.07,3.42l-.42-.77c2.17-1.32,3.67-2.57,4.8-4.22-.72-2.07-1.15-4.8-1.35-8.1Zm-6.82,7.15v-5.45h6.02v5.45h-6.02Zm1.85-1.05h2.32v-3.35h-2.32v3.35Z"/>
        <path class="cls-1" d="M310.79,138.35l-.85,2.65c-4.42,.3-9.9,.35-12.82-.55-1.65-.5-3.12-1.35-4.32-2.65-1.1,1.62-2.45,2.97-4.05,4.02l-.55-.73c1.15-.95,2.45-2.42,3.52-4.65-.92-1.42-1.6-3.2-2-5.45l.87-.25c.42,1.62,.97,3.02,1.77,4.2,.65-1.77,1.17-3.95,1.45-6.62h-2.17c-.4,.72-.77,1.35-1.07,1.72l-1.77-.75c1.17-1.92,2.9-5.3,4-8.12h-4.12v-1.07h6.9c-.67,1.85-2.07,4.8-3.3,7.1h1.5l.4-.4,1.97,.75c-.33,3.35-1.15,6.35-2.52,8.87,.78,.73,1.7,1.27,2.8,1.7,3.25,1.22,9.52,.8,14.37,.23Zm-9.47-13.55h-5.47v-1.07h5.47v-2h-4.3v-1.12h4.3v-2.22h2.15v2.22h4.87v3.12h2.02v1.07h-2.02v3.37h-4.87v1.97h5.1v1.12h-5.1v2.32h6.25v1.12h-6.25v3.3h-2.15v-3.3h-5.5v-1.12h5.5v-2.32h-4.6v-1.12h4.6v-1.97h-4.42v-1.12h4.42v-2.25Zm2.15-1.07h2.9v-2h-2.9v2Zm0,3.32h2.9v-2.25h-2.9v2.25Z"/>
        <path class="cls-1" d="M328.42,123.95h-9.95v-1.12h4.55c-.7-1.47-1.62-3.15-2.17-4.1l.67-.58c1.12,.88,2.67,2.52,3.55,3.85l-1.25,.82h4.62l-.03,1.12Zm-1.35,2.42v.97h-7.57v-.97h7.57Zm0,4.42h-7.57v-.97h7.57v.97Zm.15,8.9h-5.5v1.7h-2.15v-8.07h7.65v6.37Zm-2.1-5.27h-3.4v4.17h3.4v-4.17Zm14.47,7.1c-1.55-.4-3.97-1.45-6.1-3.47-1.77,1.57-3.97,2.87-6.75,3.75l-.38-.82c2.58-1.12,4.52-2.6,5.95-4.2-1.27-1.55-2.35-3.52-2.92-6h-1.5v-1.12h7.6l.62-.43,2.3,.95c-.73,2.27-1.88,4.5-3.52,6.45,2.27,1.45,4.72,1.97,6.1,2.27l-1.4,2.62Zm-10.1-19.42v-2.2h6.92v5.05c0,.77,.12,1.1,1.03,1.1,.77,0,1.22-.08,1.87-.7l.95,1.72c-.62,.65-1.67,.98-3.2,.98-2.3,0-2.85-.62-2.85-2.75v-4.27h-2.47v1.15c0,4.12-1.45,5.67-4.4,7.05l-.45-.77c2.12-1.65,2.6-2.3,2.6-6.35Zm3.87,13.35c1.12-1.57,1.8-3.22,2.17-4.67h-5.2c.67,2.02,1.75,3.55,3.02,4.67Z"/>
        <path class="cls-1" d="M356.62,129.8c-.82,.55-1.7,1.05-2.57,1.52v8.15c0,2.17-2.22,2.87-5.5,.73l.25-.82c2.62,.57,3.1,.47,3.1-.7v-6.25c-.92,.43-1.82,.83-2.72,1.17l-.9-2.4c1.15-.25,2.4-.55,3.62-.9v-5.15h-3.35v-1.12h3.35v-5.52h2.15v5.52h2.9v1.12h-2.9v4.52l2.25-.73,.32,.85Zm10.97,10.92c-2.3,.15-5.02,.15-7.95,0-2.2-.12-2.77-1.07-2.77-2.62v-10.77h12.1v6.3h-10v3.9c0,.97,.4,1.17,1.27,1.22,2.83,.15,5,.17,7.2,0,1.27-.1,1.55-.25,1.55-3.57h.9c1.35,4.65,.22,5.37-2.3,5.55Zm-.08-15h-9.32v-5.97h9.32v5.97Zm-8.55,6.77h2.97v-4.05h-2.97v4.05Zm6.45-11.62h-5.17v3.72h5.17v-3.72Zm-1.52,11.62h3v-4.05h-3v4.05Z"/>
        <path class="cls-1" d="M382.17,129.32c-.9-1.32-2.77-3.37-3.8-4.5l.48-.77c1.5,.75,3.55,1.97,5,3.27l-1.67,2Zm1.77,1.2c-.83,3.55-1.85,7.65-2.75,9.9l-2.45-1.35c1.33-2.32,3.02-5.77,4.35-8.9l.85,.35Zm-.58-6.87c-1-1.38-2.47-3.17-3.57-4.35l.5-.75c1.45,.65,3.62,2.05,4.8,3.25l-1.72,1.85Zm17.4,15.87v1.12h-17v-1.12h7.52v-7.7h-5.67v-1.12h5.67v-6.07h-6.55v-1.12h7.7c-.97-1.42-2.32-3.27-3.4-4.62l.6-.67c1.47,.9,3.82,2.65,5.02,3.92l-1.5,1.37h7.12v1.12h-6.6v6.07h5.95v1.12h-5.95v7.7h7.07Z"/>
        <path class="cls-1" d="M411,134.22c.08,2.95-.17,5.45-.72,7.07l-2.27-.97c.92-1.5,1.75-3.52,2.17-6.2l.83,.1Zm-.75-3.35c.97-1.4,1.9-2.97,2.75-4.8-1.37,.47-2.82,.85-4.05,1.12l-.55-2.05c.5,.02,1,.02,1.5,.02,.82-1.87,1.57-4.22,2.17-6.97l2.27,.67c-1.02,2.22-2.37,4.67-3.47,6.27,.88-.02,1.75-.1,2.6-.15,.4-.9,.77-1.85,1.12-2.85l2.15,.95c-1.3,2.57-3.35,5.6-5.35,7.72,1-.07,2-.17,3.1-.32-.25-.62-.5-1.22-.75-1.77l.75-.43c1.05,1.15,2.1,2.62,2.7,3.95l-1.77,.85c-.17-.52-.38-1.12-.6-1.72-2.1,.85-4.37,1.52-5.87,1.85l-.65-2.3c.65,0,1.3,0,1.95-.05Zm2.57,2.9c.7,1.92,1.35,4.52,1.62,6.02l-2.2,.42c-.02-1.57-.1-4.27-.25-6.3l.82-.15Zm3.97,3.22l-1.83,.72c-.32-1.57-.65-2.82-1.1-4.35l.8-.33c.92,1.35,1.5,2.45,2.12,3.95Zm2.07-2.8c.05,2.17-.15,3.97-.95,5.9l-2.05-1.12c1.1-1.55,1.7-2.75,2.12-4.92l.88,.15Zm3.4-2.45h-4.82v-10.62h4.4c.25-.9,.4-1.85,.6-3.05l2.3,.5c-.6,.95-1.22,1.87-1.8,2.55h6.8v10.62h-6.7c1.17,.67,2.47,1.67,3.57,2.8l-1.62,1.57c-1-1.55-2.17-2.95-3.1-3.97l.38-.4Zm5.05,4.37c1,3.35,.42,4.55-1.47,4.65-1.28,.08-2.42,.08-3.45,0-2.4-.17-2.85-.9-2.85-2.9v-5.05h2.15v4.75c0,.92,.35,1.2,1.2,1.25,.7,.05,1.58,.1,2.42,0,.97-.12,1.17-.15,1.1-2.7h.9Zm-7.75-5.5h.78l-.22-.48c1.12-.75,2.12-1.52,3.05-2.65-.5-.4-1-.75-1.52-1.12-.48,.57-.95,1.05-1.42,1.5l-.62-.55c.4-.52,.75-1.07,1.05-1.62-.28-.2-.58-.38-.85-.55l.33-.7c.32,.12,.65,.27,.95,.4,.4-.8,.7-1.65,1-2.6h-2.5v8.37Zm8.07-8.37h-4.77l1.12,.35c-.18,.4-.35,.75-.53,1.1h1.52l.4-.38,1.77,.8c-.53,1.22-1.1,2.2-1.72,3.02,.7,.45,1.4,.92,2.12,1.47l-1.3,1.5c-.62-.6-1.28-1.15-1.92-1.7-1.1,1.05-2.22,1.7-3.32,2.2h6.62v-8.37Zm-5.25,3.2c.52,.25,1.07,.52,1.6,.82,.32-.5,.62-1.05,.9-1.7h-1.92c-.2,.3-.38,.6-.57,.87Zm8.65,12.85l-1.88,.95c-.52-1.7-1.1-3.4-1.85-5l.67-.42c1.17,1.27,2.3,2.8,3.05,4.47Z"/>
        <path class="cls-1" d="M443.97,131.62v7.62c0,2.17-1.77,3.15-5.55,.72l.25-.82c2.62,.62,3.15,.47,3.15-.7v-5.62c-.9,.45-1.75,.85-2.5,1.2l-1.02-2.15c1.12-.3,2.35-.65,3.52-1.02v-5.82h-3.25v-1.12h3.25v-5.45h2.15v5.45h2.9v1.12h-2.9v5.05c.73-.27,1.42-.58,2.03-.88l.5,.75c-.72,.57-1.6,1.12-2.52,1.67Zm15.25,9.82c-2.67-.6-4.87-1.57-6.62-3.15-2.12,1.6-4.77,2.75-7.95,3.32l-.25-.85c2.97-.88,5.25-2.2,7-3.75-1.33-1.6-2.32-3.67-3-6.37h-1.6v-1.1l8.62-.02,.5-.38,2.27,1.05c-.82,2.6-2.17,4.87-4.02,6.72,1.75,1.02,3.9,1.52,6.47,1.87l-1.42,2.65Zm-10.82-21.62h7.6v4.97c0,.98,.12,1.27,1.62,1.3,1,.02,1.47-.25,1.95-.62l1.05,1.7c-.65,.6-1.3,.92-2.45,.92-3.67,0-4.32-.25-4.32-2.82v-4.32h-3.27c.05,4.3-.9,6.77-4.35,8.05l-.45-.82c2.32-1.55,2.65-3.35,2.62-8.35Zm.9,10.82c.85,2.32,1.95,3.97,3.3,5.17,1.42-1.62,2.35-3.4,2.9-5.17h-6.2Z"/>
        <path class="cls-1" d="M476.7,137.47l2.27,1.45c-1.92,1.1-6.27,2.52-10.02,3.02l-.27-.88c3.3-.9,5.77-2,8.02-3.6Zm-6.5-8.57l-1.33-1.82c2.08-1.3,3.77-2.57,5.4-4.1l.65,.55c-1.27,1.82-2.65,3.55-4.72,5.37Zm3.47-6.4c-1.65-1.2-2.92-2.12-4.1-2.82l.3-.85c1.25,.23,3.27,.73,5.07,1.67l-1.28,2Zm-1.77,5.65l15.52,.03v9.07h-15.52v-9.1Zm2.2,2.67h11.12v-1.55h-11.12v1.55Zm0,2.52h11.12v-1.47h-11.12v1.47Zm0,2.77h11.12v-1.72h-11.12v1.72Zm1.47-11.47l-.6-.62c1.42-1.62,2.25-3.3,2.95-5.92l2.15,.57c-.17,.52-.38,1-.6,1.47h7.47l.42-.35,2.17,1.22c-.87,1.32-2.17,2.5-3.57,3.37l-.65-.55c.72-1,1.08-1.62,1.5-2.65h-3.25c-.12,.55-.4,1.38-.57,1.77,2.15,2.52,4.82,2.82,7.37,2.97l-1.2,2.32c-2.15-.38-4.87-1.35-6.75-4.45-1.62,2.45-4.45,3.72-7.77,4.05l-.25-.85c3.9-.92,5.87-2.82,6.67-5.82h-2.2c-.85,1.35-1.95,2.47-3.3,3.45Zm5.07,12.95c2.7,.3,6.5,.92,9.37,2.05l-1.22,2.22c-2.25-1.2-5.75-2.47-8.37-3.4l.22-.88Z"/>
        <path class="cls-1" d="M521.09,126.55l-1.5,2.67c-1.9-.65-6.77-2.9-9.82-8.22-.57,.82-1.22,1.65-1.95,2.45,1.12,.75,2.5,1.87,3.7,3.25l-2,1.55c-.77-1.45-1.65-2.9-2.45-4.02-2.32,2.27-5.3,4.3-8.42,5.62l-.45-.8c5.02-2.95,8.32-6.95,10.05-10.95l2.62,.97c-.15,.33-.35,.67-.52,1,3.55,4.6,8.12,5.8,10.75,6.47Zm-9.12,7.02h5.05v7.92h-2.35v-1.52h-10.12v1.57h-2.35v-7.97h8.37c.7-1.15,1.5-2.82,1.97-4.07h-10.45v-1.12h10.45l.62-.52,2.52,1.3c-.97,1.7-2.62,3.47-3.72,4.42Zm2.7,1.12h-10.12v4.15h10.12v-4.15Z"/>
        <path class="cls-1" d="M550.99,126.15l-1.45,2.45c-3.32-1.4-7.25-4.12-9.72-7.75-3.15,4.05-7.2,6.65-11.32,8.37l-.4-.82c3.5-1.8,7.85-5.37,10.25-10.35l2.75,1.02c-.23,.35-.45,.67-.67,.98,3.42,3.67,7.6,5.25,10.57,6.1Zm-10.32,13.25h8.77v1.37h-19.82v-1.37h8.65v-7.55h-7.7v-1.12h7.7v-3.32l-4.05-.02v-1.12l10.6,.02v1.12h-4.15v3.32h7.72v1.12h-7.72v7.55Zm-3.72-1.82l-2.25,1.25c-.73-1.9-1.67-3.9-2.62-5.67l.7-.57c1.45,1.35,3.07,3.32,4.17,5Zm4.8,.67c1.05-1.5,2.27-3.8,3-5.67l2.35,1.37c-1.35,1.82-3.3,3.82-4.7,4.9l-.65-.6Z"/>
        <path class="cls-1" d="M580.32,139.42v1.12h-21.47v-1.12h9.65v-1.62h-7.6v-1.12h7.6v-1.67h-6.45v-6.35h15.27v6.35h-6.62v1.67h7.85v1.12h-7.85v1.62h9.62Zm-.45-12.07h-20.54v-1.12h20.54v1.12Zm-3.1-2.47h-14.15v-5.57h14.15v5.57Zm-8.27,9v-1.52h-4.35l-.03,1.52h4.37Zm-4.35-2.6h4.35v-1.5h-4.35v1.5Zm10.57-10.85h-10.05v1.07h10.05v-1.07Zm0,2.15h-10.05v1.17h10.05v-1.17Zm-4.02,8.7h4.52v-1.5h-4.52v1.5Zm0,2.6h4.5l.03-1.52h-4.52v1.52Z"/>
        <path class="cls-1" d="M609.92,140.97c-1.97-.1-6.72,0-11.3-2.57-2.3,2.45-5.7,3.05-8.92,3.5l-.22-.92c2.95-.65,5.7-1.32,7.5-3.62-1.4-.97-2.72-2.25-3.92-3.87l.65-.62c1.35,1.35,2.72,2.37,4.1,3.15,.48-.97,.85-2.15,1.05-3.6h-6.72v-9.17h6.92v-2.55h-9.57v-1.25h20.89v1.25h-8.97v2.55h6.6v9.17h-6.8c-.27,1.87-.77,3.35-1.47,4.52,3.97,1.62,7.9,1.47,11.27,1.45l-1.08,2.6Zm-15.55-13.85h4.67v-2.77h-4.67v2.77Zm4.6,4.15c.05-.62,.08-1.32,.08-2.05v-.97h-4.67v3.02h4.6Zm6.77-3.02h-4.35v1.02c0,.7-.03,1.37-.08,2h4.42v-3.02Zm-4.35-3.9v2.77h4.35v-2.77h-4.35Z"/>
        <path class="cls-1" d="M640.92,130.77l-1.32,2.32c-2.2-1.1-3.7-2.45-5.07-5.15h-2.65c-1.3,2.27-3.15,3.97-5.6,5.35l-.3-.5v6.17c0,2.2-2.1,3.22-5.07,1l.3-.85c2.45,.67,2.72,.42,2.72-.67v-6.32h-2.07c-.28,4.7-1.22,7.75-2.9,9.6l-.72-.52c1-1.97,1.65-4.02,1.65-12.95v-8.62h6.1v12.75c1.72-1.35,3-2.72,3.9-4.42h-3.32v-1.12h3.87c.25-.62,.45-1.27,.62-2l-3.8,.03v-1.12l4.05-.02c.28-1.55,.4-3.35,.43-5.47l2.35,.07c-.05,2.02-.25,3.8-.6,5.4l6.42-.05v1.12l-6.72,.05c-.2,.7-.45,1.38-.72,2h7.85v1.12h-4.62c1.7,1.82,3.47,2.37,5.25,2.82Zm-17,.23v-4.9h-2v2.95c0,.67,0,1.35-.03,1.97l2.02-.02Zm-2-6.02h2v-4.22h-2v4.22Zm11.07,7.75h5.2c-.12,2.92-.2,5.4-.5,6.95-.37,2-2.25,2.95-5.7,.3l.3-.8c2.67,.8,3.17,.7,3.4-.45,.2-1.07,.3-3.2,.33-4.87h-3.2c-.75,3.9-2.67,6.3-6.45,7.95l-.45-.75c3-1.97,4.22-3.97,4.75-7.2h-3.17l.03-1.12h3.27c.1-.88,.17-1.85,.2-2.92l2.2,.12c-.03,1-.08,1.92-.2,2.8Zm-4.25-9.32c-.38-1.3-1-2.92-1.52-4.15l.75-.48c1.05,1,2.03,2.32,2.77,3.65l-2,.98Zm7.12,.1l-.75-.4c.53-1.25,.95-2.57,1.33-4.17l2.32,.88c-.83,1.47-1.9,2.7-2.9,3.7Z"/>
        <path class="cls-1" d="M656.52,123.55h-8.85v-1.65h11.3v1.57l-7.75,16h-2.62l7.92-15.77v-.15Z"/>
        <path class="cls-1" d="M670.05,135.12l2.32,1.3c-1.75,2.32-3.75,4.1-5.6,5.27l-.6-.67c1.47-1.47,3-3.95,3.88-5.9Zm8.57-.35h-12.2v-1.12h2.38v-10.47h-2.1v-1.12h2.1v-3.57h2.15v3.57h3.4v-3.57h2.15v3.57h2.02v1.12h-2.02v10.47h2.12v1.12Zm-4.27-11.6h-3.4v2.57h3.4v-2.57Zm0,3.65h-3.4v2.75h3.4v-2.75Zm0,3.82h-3.4v3h3.4v-3Zm3.32,7.6l-1.78,1.57c-.87-1.5-1.87-2.82-2.85-4.05l.6-.68c1.32,.73,2.97,2,4.02,3.15Zm9.52-18.65v19.42c0,2.25-2.02,3.67-6.22,.7l.28-.85c3.42,.8,3.75,.6,3.75-.7v-5.92h-3.52c-.33,3.77-1.35,6.97-4.6,9.47l-.62-.67c3.07-3.2,3.17-7.47,3.17-13.77v-7.67h7.77Zm-2.2,11.52v-4.77h-3.38v.52c0,1.47,0,2.9-.07,4.25h3.45Zm-3.38-10.4v4.5h3.38v-4.5h-3.38Z"/>
      </g>
    </g>
  </g>
</svg>