<?xml version="1.0" encoding="UTF-8"?>
<svg id="_圖層_2" data-name="圖層 2" xmlns="http://www.w3.org/2000/svg" viewBox="0 0 70.31 31.8">
  <defs>
    <style>
      .cls-1 {
        fill: #4d4d4d;
      }
    </style>
  </defs>
  <g id="_圖層_1-2" data-name="圖層 1">
    <g>
      <path class="cls-1" d="M29.2,24.65h-12.34v3.91c0,3.06-2.69,4.83-8.7,1.29l.31-1.16c4.93,1.09,5.34,.58,5.34-1.43v-2.62H0v-1.53H13.8v-2.45l2.28,.34c1.26-.71,2.52-1.7,3.5-2.55H5.2v-1.53h15.16l.92-.41,2.75,2.21c-2.18,1.53-5.1,2.72-7.17,3.33v1.05h12.34v1.53ZM3.26,19.79H.27v-6.05H3.26c-.1-3.88-.24-7.79-.44-11.66l2.69,.58c1.29-.58,2.35-1.36,3.71-2.65l1.77,1.9c-1.33,.68-3.5,1.53-5.41,1.84,0,.61,.03,1.22,.07,1.84h4.52v1.53H5.71c.03,.88,.03,1.8,.07,2.69h4.62v1.53H5.81c.03,.82,.07,1.6,.07,2.41h5.03l-.41-.88c1.16-.65,2.18-1.43,3.03-2.35-.68-.58-1.39-1.12-2.18-1.67l.51-.95c.99,.44,1.9,.85,2.79,1.33,.58-.71,1.09-1.5,1.56-2.31l2.11,1.5c-.51,.61-1.12,1.26-1.84,1.94,.75,.51,1.46,1.05,2.18,1.7l-1.56,1.7h6.08c.07-.78,.1-1.53,.14-2.31h-4.62v-1.53h4.69c.03-.82,.1-1.67,.14-2.48h-4.59v-1.53h4.62l.1-2.62h-4.96V1.73h4.69l.65-.65,2.48,.61c-.24,3.94-.44,8.06-.75,12.03h3.09v5.95h-2.99v-4.42H3.26v4.52ZM13.6,3.6c-.71-.71-1.46-1.39-2.14-1.94l.51-.99c.85,.41,1.73,.95,2.65,1.53,.44-.71,.85-1.43,1.19-2.11l2.28,1.26c-.44,.68-1.02,1.39-1.7,2.11,.71,.54,1.36,1.09,2,1.67l-1.8,1.84c-.44-.58-1.02-1.33-1.7-2.04-1.12,.95-2.35,1.8-3.5,2.41l-.61-.85c1.05-.85,2.01-1.84,2.82-2.89Zm-2.14,10.13h5.24c-.58-.71-1.19-1.39-1.8-2.01-1.05,.82-2.21,1.53-3.43,2.01Z"/>
      <path class="cls-1" d="M70.31,28.32v1.87h-28.96v-1.87h12.99v-8.64h-9.83v-1.7h9.83v-7.41h-6.56c-1.5,2.79-3.33,5.27-5.37,7.04l-.92-.78c2.69-3.67,4.73-8.77,5.75-15.03l3.47,.99c-.51,2.11-1.22,4.18-2.14,6.15h5.78V.44h3.2V8.94h10.5v1.63h-10.5v7.41h9.69v1.7h-9.69v8.64h12.78Z"/>
    </g>
  </g>
</svg>