<?xml version="1.0" encoding="UTF-8"?>
<svg id="_圖層_2" data-name="圖層 2" xmlns="http://www.w3.org/2000/svg" viewBox="0 0 451.64 148.24">
  <defs>
    <style>
      .cls-1 {
        fill: #474647;
      }
    </style>
  </defs>
  <g id="_圖層_1-2" data-name="圖層 1">
    <g>
      <path class="cls-1" d="M.91,125.17l-.91-1.99c5.92-3.02,10.75-6.16,12.92-13.71H1.93v-2.72H13.59c.3-1.81,.54-3.87,.6-6.16h-4.41c-1.69,2.29-3.5,4.35-5.13,5.74l-1.51-1.51c2.54-3.8,4.71-9.18,5.68-14.01l5.8,1.51c-.72,1.69-1.81,3.62-3.02,5.56H28.87v2.72h-9.12c-.12,2.23-.3,4.29-.66,6.16h11.11v2.72h-11.84c-.18,.6-.42,1.21-.6,1.81,4.41,1.39,8.76,3.32,11.72,5.25l-3.2,4.77c-2.42-2.36-5.8-5.07-9.6-7.73-3.14,5.8-8.58,9.18-15.76,11.6Zm9.48-2.9H44.45v24.82h-5.31v-3.87H15.7v4.17h-5.31v-25.12Zm5.31,8.64h23.43v-5.92H15.7v5.92Zm0,9.6h23.43v-6.89H15.7v6.89Zm35.75-43.73v23.01h-5.19v-4.11h-9.72v4.71h-5.19v-23.61h20.11Zm-5.19,16.19v-13.47h-9.72v13.47h9.72Z"/>
      <path class="cls-1" d="M75.24,130.91l2.05,.6c-.79,5.38-2.96,10.63-6.16,14.31l-4.59-4.17c3.8-2.66,7.13-5.68,8.7-10.75Zm32.79-7.79h-40.77v-2.72h40.77v-2.84h-34.91v-2.48h40.1v5.31h6.82v2.72h-6.82v5.68h-40.46v-2.48h35.27v-3.2Zm-29.53-13.17h-10.15v-2.48h10.15v-3.38h-8.09v-2.48h8.09v-3.14h-9.42v-2.48h9.42v-4.29h5.07v4.29h7.97v2.48h-7.97v3.14h7.31v2.48h-7.31v3.38h7.97v2.48h-7.97v3.62h-5.07v-3.62Zm28.33,23.31c2.72,9.12,.42,11.66-4.59,12.26-3.56,.42-8.58,.54-12.32,.24-5.56-.42-9.12-.97-9.12-5.44v-9.78h5.31v6.95c0,2.42,.85,3.2,4.23,3.44,4.05,.3,8.09,.18,10.69-.18,2.96-.42,3.56-1.09,3.62-7.49h2.17Zm-17.64-1.09l.79-1.99c3.2,.66,7.07,1.57,11.17,3.99l-2.96,4.71c-2.54-2.29-5.92-4.77-9-6.7Zm13.47-22.23h-8.82v-2.48h8.82v-3.38h-7.61v-2.48h7.61v-3.14h-8.82v-2.48h8.82v-4.29h5.07v4.29h9.84v2.48h-9.84v3.14h8.94v2.48h-8.94v3.38h11.23v2.48h-11.23v3.62h-5.07v-3.62Zm17.94,30.68l-4.77,3.62c-2.17-4.65-4.17-8.03-6.88-12.2l1.57-1.27c3.02,2.11,6.82,5.38,10.09,9.84Z"/>
      <path class="cls-1" d="M186.78,140.03l-3.87,7.01c-9.36-3.14-16.79-7.25-22.47-12.98-6.46,6.04-15.04,10.57-26.33,13.35l-.66-2.05c10.33-3.08,18.18-8.09,23.98-14.68-5.07-6.34-8.4-14.37-10.27-24.76h-12.98v-3.02h26.88c-2.54-3.5-6.4-7.85-9.24-10.45l1.21-1.81c4.47,1.75,9.3,4.47,13.35,7.85l-4.29,4.41h23.86v3.02h-10.27c-2.29,9.48-5.98,17.7-11.66,24.4,5.92,4.77,13.35,7.55,22.77,9.72Zm-26.39-13.04c4.35-6.04,7.19-13.17,8.94-21.08h-19.87c2.78,9.36,6.28,16.06,10.93,21.08Z"/>
      <path class="cls-1" d="M218.24,132.96v9.24c0,5.01-6.28,7.97-14.49,1.21l.91-1.99c7.07,2.29,8.46,1.69,8.46-1.27v-5.74c-4.53,1.21-8.88,2.17-11.96,2.66l-1.39-5.31c3.68-.3,8.52-.91,13.35-1.63v-5.68l3.38,.66c1.51-1.69,2.78-3.68,3.74-5.56h-6.76c-4.47,4.05-9.06,7.31-13.35,9.66l-1.21-1.75c3.08-2.11,6.46-4.71,9.72-7.91h-5.92v-2.72h8.58c1.63-1.75,3.26-3.68,4.77-5.74h-16.55v-2.72h10.81v-6.58h-8.64v-2.72h8.64v-7.31h5.19v7.31h7.01v1.21c1.09-2.29,2.11-4.83,2.96-7.43l5.19,2.05c-1.81,4.83-4.35,9.36-7.31,13.47h6.52v2.72h-8.58c-1.57,2.05-3.32,3.93-5.07,5.74h4.29l1.21-.85,4.95,3.32c-1.81,2.17-5.31,4.95-8.46,6.89v3.08c4.11-.79,8.03-1.63,10.99-2.48l.54,1.99c-2.9,1.39-7.13,2.84-11.54,4.17Zm-.24-24.58c1.33-2.05,2.66-4.23,3.8-6.58h-6.28v6.58h2.48Zm35.27,33.64l-4.29,6.04c-3.74-3.2-7.19-6.64-9.78-11.78-4.11,4.83-9.78,8.64-17.45,11.17l-.91-1.99c7.55-3.32,12.86-7.85,16.43-13.65-1.69-4.71-2.84-10.69-3.26-18.66-1.63,3.68-3.38,7.01-5.31,9.54l-1.81-1.15c3.74-6.76,6.46-18.78,7.43-30.2l5.86,1.21c-.79,4.11-1.81,8.27-3.02,12.2h15.04v2.72h-3.44c-.42,9.42-2.29,17.7-6.4,24.46,2.72,3.99,6.34,7.25,10.93,10.09Zm-13.59-14.86c2.29-5.62,3.44-12.2,3.62-19.69h-7.07c-.12,.36-.24,.72-.42,1.09,.36,7.55,1.63,13.59,3.87,18.6Z"/>
      <path class="cls-1" d="M276.57,108.62c-2.42,4.71-5.25,8.7-8.7,11.96l-1.51-1.51c4.47-6.34,8.21-16.19,10.33-27.96l5.8,1.39-1.09,3.87c4.11,3.62,8.46,8.4,10.57,11.78v-3.87h7.55c.42-2.05,.79-4.65,1.03-6.58h-12.56v-2.72h30.26v2.72h-12.02c-1.21,2.42-2.66,4.83-3.8,6.58h12.44v30.26h-22.89v-25.31l-4.23,2.9c-1.93-4.41-4.47-8.94-7.19-13.11-.85,2.36-1.69,4.65-2.72,6.82,2.96,2.54,5.92,5.62,7.85,9l-4.65,2.84c-1.27-3.38-2.9-6.4-4.47-9.06Zm9.36,34l-4.59,3.32c-2.48-4.95-6.7-10.75-10.21-14.98l1.33-1.57c2.42,1.69,4.83,3.62,7.01,5.68,1.63-3.5,3.32-8.46,4.35-12.56h-14.07v-2.72h13.83l1.45-1.03,5.19,2.48c-1.81,5.31-5.56,11.6-8.94,15.64,1.75,1.81,3.32,3.74,4.65,5.74Zm12.2-7.31l4.83,3.44c-5.13,4.29-12.5,7.73-18.48,9.48l-.85-1.99c5.5-2.66,10.15-6.04,14.49-10.93Zm-1.09-22.23h12.62v-6.1h-12.62v6.1Zm0,9.12h12.62v-6.4h-12.62v6.4Zm0,9.6h12.62v-6.89h-12.62v6.89Zm23.07,11.23l-3.68,4.89c-2.6-2.72-7.79-7.19-12.38-10.51l1.03-1.93c4.89,1.75,10.39,4.23,15.04,7.55Z"/>
      <path class="cls-1" d="M341.43,142.2l.6-2.11c6.95,1.51,8.03,1.09,8.03-1.21v-18.9h-8.4c-.18,15.34-1.15,20.35-7.97,27.78l-1.69-1.51c4.41-6.7,5.01-14.62,4.77-26.27h-4.17v-2.66h4.11c-.06-.36-.06-.73-.06-1.09l-.06-16h6.64c.54-3.14,1.03-6.76,1.15-9l6.04,1.09c-1.21,2.6-2.78,5.5-4.53,7.91h9.12v39.8c0,6.58-6.22,7.13-13.59,2.17Zm8.64-24.88v-14.37h-8.33c-.06,5.56,0,10.33-.06,14.37h8.4Zm-1.27-2.48l-4.59,.85c-.18-3.44-.66-7.37-1.03-10.57l2.05-.48c1.51,2.96,2.96,7.13,3.56,10.21Zm-4.77,20.05c.06-3.44-.48-8.46-.79-11.84l2.05-.54c1.45,2.96,3.32,8.82,3.68,11.6l-4.95,.79Zm36.48,10.57c-6.4,0-7.55-1.15-7.55-7.55v-22.95h-7.37v5.68c.12,9.54-.48,22.16-11.72,27.6l-1.21-1.75c7.37-5.56,7.85-12.5,7.73-24.64v-9.6h17.88v25.37c0,2.48,.6,2.9,2.66,2.9s2.05-1.93,1.87-10.87h2.17c3.81,15.22,1.51,15.82-4.47,15.82Zm4.59-40.77h-28.93v-2.72h14.01c-2.66-3.26-5.92-6.82-8.21-9.12l1.21-1.87c3.5,1.51,8.33,4.29,11.66,7.25l-3.14,3.74h13.41v2.72Z"/>
      <path class="cls-1" d="M414.02,115.63v32.25h-5.44v-26.51c-3.14,2.9-6.34,5.38-9.06,6.88l-1.21-1.81c7.19-6.16,13.41-14.98,17.33-23.55l5.19,2.78c-1.51,3.2-3.99,6.64-6.82,9.96Zm-12.62-4.83l-1.33-1.69c5.86-5.38,10.45-12.2,13.23-18.36l5.13,2.84c-4.41,6.88-10.93,13.47-17.03,17.21Zm50.25,2.72h-10.57v27.84c0,6.52-5.98,8.76-17.15,2.36l.66-2.11c9.9,2.05,10.81,1.33,10.81-2.05v-26.03h-14.8v-2.72h31.04v2.72Zm-2.72-14.68h-25.37v-2.72h25.37v2.72Z"/>
    </g>
    <g>
      <path class="cls-1" d="M150.22,21.29h-18.31v1.13h-2.11V1.18h19.73v1.08h-17.62V20.21h18.31v1.08Zm-13.99-11.76l-1.61,1.39c-.65-1.27-1.3-2.26-2.04-3.34l.55-.62c.94,.55,2.14,1.42,3.1,2.57Zm-3.55,8.57c1.08-2.11,1.97-4.49,2.71-6.36l.82,.31c-.34,1.97-.86,4.54-1.63,6.96l-1.9-.91Zm4.99-12.75l-1.54,1.54c-.65-1.08-1.61-2.42-2.38-3.29l.53-.67c1.06,.55,2.47,1.51,3.38,2.42Zm.7,13.9V10.22c-.43,.53-.86,1.01-1.34,1.44l-.62-.53c1.73-2.71,2.57-5.16,3.34-8.42l2.16,.74c-.38,1.08-.82,2.14-1.3,3.12h3.24c-.38-1.08-.89-2.16-1.34-2.95l.7-.5c.89,.7,1.73,1.56,2.5,2.69l-1.2,.77h4.32v1.08h-3.86v2.04h3.22v1.03h-3.22v2.23h3.22v1.03h-3.22v2.52h4.08v1.08h-8.59v1.66h-2.06Zm4.56-11.59h-2.5v2.04h2.5v-2.04Zm0,3.07h-2.5v2.23h2.5v-2.23Zm0,3.26h-2.5v2.52h2.5v-2.52Z"/>
      <path class="cls-1" d="M167.35,19.92l-1.99,1.13c-.55-1.61-1.15-2.9-1.9-4.3-1.3,2.5-3.41,4.3-5.11,5.11l-.53-.7c1.85-1.61,3.6-4.06,4.32-7.63l2.3,.6c-.12,.58-.31,1.13-.53,1.66,1.39,1.25,2.57,2.57,3.43,4.13Zm-6.74-17.86h-1.97V.98h11.62v1.08h-1.75V11.14h-2.06v-2.09c-3.07,1.03-5.54,1.54-7.32,1.75l-.41-2.04c.62-.02,1.25-.02,1.9-.07V2.06Zm8.9,10.9l.07,9.6h-2.11V13.1c-3.36,.19-6.5,.22-8.06,.14l-.1-.86c5.76-.26,11.81-.94,15.43-2.33l2.09,1.78c-1.94,.55-4.61,.91-7.32,1.13Zm-6.84-9.5h3.77v-1.39h-3.77v1.39Zm0,2.5h3.77v-1.42h-3.77v1.42Zm0,1.08v1.51c1.13-.1,2.35-.24,3.77-.46v-1.06h-3.77Zm6.72-4.66h5.98l.46-.31,1.87,.82c-.5,1.56-1.37,3.05-2.54,4.3,1.22,.6,2.52,.94,3.74,1.25l-1.01,2.14c-1.2-.26-2.71-.96-4.1-2.14-1.27,1.01-2.83,1.8-4.63,2.3l-.31-.77c1.58-.72,2.88-1.61,3.86-2.59-.91-1.03-1.66-2.35-2.09-3.96h-1.22v-1.03Zm7.75,18.89c-.84-1.75-1.75-3.12-2.66-4.3-.91,2.14-2.23,3.65-4.01,4.56l-.53-.67c2.09-1.92,2.78-4.49,3.22-7.63l2.3,.53c-.17,.79-.36,1.51-.58,2.21,1.51,1.08,3.02,2.45,4.08,3.89l-1.82,1.42Zm-1.85-17.86h-3.89c.55,1.27,1.34,2.21,2.28,2.88,.72-.91,1.25-1.9,1.61-2.88Z"/>
      <path class="cls-1" d="M191.23,6.46l.05,16.06h-2.02V10.44c-.72,1.13-1.46,2.11-2.28,2.9l-.6-.62c1.9-2.78,3.6-7.63,4.39-12.6l2.16,.55c-.43,2.11-1.01,4.06-1.7,5.78Zm16.01,15.96c-2.52-.19-5.02-.84-7.18-1.99-2.23,1.22-4.9,1.85-8.02,2.11l-.22-.79c3-.46,5.21-1.27,6.84-2.21-.91-.62-1.7-1.37-2.42-2.23-1.06,.89-2.35,1.75-3.82,2.35l-.36-.67c2.26-1.39,3.67-2.98,4.56-4.42-.55-.19-.84-.58-.84-1.49v-2.18h1.56v1.7c0,.58,.14,.77,1.13,.86,.72,.07,1.97,.07,2.64,0,.94-.1,.94-.34,.91-1.92h.72c.65,2.38,.55,3.12-1.18,3.24-.91,.05-2.14,.05-3.05,.02-.17,.26-.38,.58-.65,.89h4.15l.58-.31,1.97,.89c-.89,1.3-1.9,2.35-3.02,3.19,2.18,.74,4.39,.94,6.46,.98l-.77,1.97Zm-8.66-19.78h-5.45V1.56h13.49v1.08h-5.93c-.36,.53-.77,1.03-1.15,1.49h5.28v5.26h2.54v3.29h-1.78v-2.21h-11.81v2.28h-1.78v-3.36h2.4V4.13h4.01c.07-.5,.12-1.06,.17-1.49Zm-5.86,12.07c.72-.84,1.56-2.16,1.97-3.26l.7,.22c-.17,1.18-.84,3-1.37,3.86l-1.3-.82Zm10.22-9.62h-6.67v.82h6.67v-.82Zm-6.67,2.57h6.67v-.89h-6.67v.89Zm6.67,1.73v-.86h-6.67v.86h6.67Zm-3.12,9.41c1.01-.74,1.7-1.49,2.14-2.14h-4.99l-.17,.17c.98,.84,1.99,1.46,3.02,1.97Zm-1.87-7.39l.22-.58c.79,.17,2.02,.53,3.02,1.03l-.79,1.25c-.65-.55-1.78-1.25-2.45-1.7Zm8.09,2.45l-1.27,.91c-.53-1.1-1.13-2.26-1.68-3.17l.48-.43c.79,.62,1.85,1.73,2.47,2.69Z"/>
      <path class="cls-1" d="M215.43,10.13c2.47-2.83,1.99-4.82,1.99-9l2.04,.38c1.78-.26,3-.67,4.68-1.42l1.92,1.58c-2.42,.43-4.37,.62-6.43,.72-.02,.55-.05,1.08-.1,1.56h6.65v1.08h-2.57v3.48h-2.02v-3.48h-2.18c-.48,2.9-1.63,4.37-3.38,5.69l-.6-.6Zm7.75,8.42l2.3,1.37c-1.85,1.06-6.02,2.5-9.62,2.95l-.26-.84c3.17-.82,5.42-1.94,7.58-3.48Zm-4.58-9.43h15.15v9.26h-15.15V9.12Zm2.11,2.66h10.92v-1.58h-10.92v1.58Zm0,2.62h10.92v-1.58h-10.92v1.58Zm0,2.9h10.92v-1.87h-10.92v1.87Zm15.84-13.35v1.08h-3.38v3.48l-2.02-.02v-3.46h-2.47c-.48,1.75-1.49,2.69-3.5,3.84l-.53-.7c2.16-1.8,2.21-3.5,2.18-7.1l1.85,.43c1.87-.29,3.07-.67,4.8-1.44l2.04,1.68c-2.45,.38-4.44,.6-6.53,.65-.02,.58-.07,1.1-.12,1.56h7.68Zm-9.36,14.76c2.5,.29,6.24,.91,9,1.94l-.98,2.14c-2.21-1.03-5.69-2.35-8.23-3.24l.22-.84Z"/>
      <path class="cls-1" d="M265.97,19.73l-1.75,2.74c-2.3-1.06-7.39-5.62-8.64-14.02-1.25,7.3-5.86,12.19-11.04,14.19l-.43-.82c4.18-2.38,7.92-6.31,9.05-13.83h-8.26v-1.32h8.42c.05-.55,.1-1.13,.12-1.7,.07-1.46,.1-3.19,.12-4.78l2.45,.07c0,1.9-.05,3.62-.14,5.47l-.07,.94h9.05v1.32h-8.45c1.78,6.89,6.31,10.3,9.58,11.74Z"/>
      <path class="cls-1" d="M293.96,17.4h-8.71v2.76c0,2.16-1.9,3.41-6.14,.91l.22-.82c3.48,.77,3.77,.41,3.77-1.01v-1.85h-9.75v-1.08h9.75v-1.73l1.61,.24c.89-.5,1.78-1.2,2.47-1.8h-10.15v-1.08h10.71l.65-.29,1.94,1.56c-1.54,1.08-3.6,1.92-5.06,2.35v.74h8.71v1.08Zm-18.31-3.43h-2.11v-4.27h2.11c-.07-2.74-.17-5.5-.31-8.23l1.9,.41c.91-.41,1.66-.96,2.62-1.87l1.25,1.34c-.94,.48-2.47,1.08-3.82,1.3,0,.43,.02,.86,.05,1.3h3.19v1.08h-3.14c.02,.62,.02,1.27,.05,1.9h3.26v1.08h-3.24c.02,.58,.05,1.13,.05,1.7h3.55l-.29-.62c.82-.46,1.54-1.01,2.14-1.66-.48-.41-.98-.79-1.54-1.18l.36-.67c.7,.31,1.34,.6,1.97,.94,.41-.5,.77-1.06,1.1-1.63l1.49,1.06c-.36,.43-.79,.89-1.3,1.37,.53,.36,1.03,.74,1.54,1.2l-1.1,1.2h4.3c.05-.55,.07-1.08,.1-1.63h-3.26v-1.08h3.31c.02-.58,.07-1.18,.1-1.75h-3.24v-1.08h3.26l.07-1.85h-3.5V1.22h3.31l.46-.46,1.75,.43c-.17,2.78-.31,5.69-.53,8.5h2.18v4.2h-2.11v-3.12h-15.96v3.19Zm7.3-11.43c-.5-.5-1.03-.98-1.51-1.37l.36-.7c.6,.29,1.22,.67,1.87,1.08,.31-.5,.6-1.01,.84-1.49l1.61,.89c-.31,.48-.72,.98-1.2,1.49,.5,.38,.96,.77,1.42,1.18l-1.27,1.3c-.31-.41-.72-.94-1.2-1.44-.79,.67-1.66,1.27-2.47,1.7l-.43-.6c.74-.6,1.42-1.3,1.99-2.04Zm-1.51,7.15h3.7c-.41-.5-.84-.98-1.27-1.42-.74,.58-1.56,1.08-2.42,1.42Z"/>
      <path class="cls-1" d="M319.95,21.39c-.82-.7-1.46-1.68-1.99-2.88-1.51,1.73-3.41,3.05-5.78,3.98l-.38-.74c2.42-1.27,4.18-3,5.52-5.09-.96-3.34-1.2-7.56-1.27-11.23h-4.63v3.74h4.13c0,1.87,.12,5.14-.12,6.98-.29,2.3-2.02,2.54-4.3,.79l.26-.7c1.63,.38,1.87,.43,2.04-.34,.07-.31,.17-2.47,.14-5.66h-2.16v1.22c0,5.04-1.61,8.38-4.54,11.04l-.6-.58c1.8-1.99,2.66-4.92,2.95-7.92-2.14,1.61-3.98,2.74-6.72,4.13l-.96-2.33c.79-.17,1.75-.43,2.83-.79v-6.98h-2.52v-1.08h2.52V.86l2.06-.02V6.94l2.42,.02v1.08l-2.42-.02v6.29c.77-.31,1.54-.65,2.28-1.01l.5,.72c.07-.86,.12-1.73,.12-2.57V4.34h6.7V.26h1.97V4.34h2.69c-.46-.91-1.2-2.02-1.97-3l.58-.67c1.18,.67,2.35,1.58,3.26,2.45l-1.46,1.22h1.61v1.08h-4.68c.02,2.83,.19,5.9,.65,8.52,.84-1.99,1.42-4.22,1.82-6.65l2.14,.62c-.72,3.48-1.75,6.38-3.29,8.74,.29,.86,.65,1.61,1.06,2.21,1.15,1.7,1.66,.7,1.66-2.47h.77c1.49,4.58-.29,7.18-2.88,4.99Z"/>
      <path class="cls-1" d="M121.35,45.53v1.32h-5.45v11.74h-2.26v-11.74h-5.35c-.29,6.07-2.57,9.79-7.37,11.91l-.46-.82c4.18-2.74,5.23-6.02,5.5-11.09h-5.35v-1.32h5.38v-4.9c-1.66,.53-3.38,.94-5.04,1.2l-.22-.89c4.2-1.25,6.6-2.52,9.43-4.66l2.38,1.56c-1.2,.72-2.66,1.39-4.22,1.99v5.69h5.33v-9.1h2.26v9.1h5.45Z"/>
      <path class="cls-1" d="M131.79,51.55c.12,2.83-.38,5.3-.91,6.86l-2.23-.94c.96-1.44,1.92-3.46,2.3-6.02l.84,.1Zm-.96-2.95c1.25-1.46,2.16-2.95,3.05-4.75-1.34,.46-2.83,.89-4.2,1.1l-.5-1.99h1.49c.94-1.87,1.85-4.37,2.42-6.86l2.23,.74c-.96,2.23-2.26,4.27-3.67,6.1,.96-.05,1.92-.1,2.76-.19,.38-.82,.74-1.7,1.15-2.66l1.97,.98c-2.02,3.62-3.55,5.62-5.62,7.46,1.32-.1,2.54-.26,3.77-.48-.19-.6-.38-1.18-.6-1.78l.7-.36c.98,1.22,1.7,2.35,2.35,3.98l-1.78,.74c-.14-.65-.29-1.22-.46-1.78-2.02,.86-4.03,1.49-6.41,1.94l-.58-2.16c.67,0,1.3-.02,1.92-.05Zm2.78,2.52c.62,1.66,1.2,3.48,1.51,5.3l-2.11,.31c.05-2.02-.02-3.7-.19-5.47l.79-.14Zm17.04,5.14l-1.66,2.45c-1.49-.77-3.26-1.94-4.8-3.82-1.82,1.73-4.08,2.93-6.94,3.89l-.36-.77c2.74-1.27,4.75-2.76,6.26-4.58-1.22-1.97-2.18-4.51-2.5-7.9h-.02c-.43,5.28-1.61,9.65-4.75,12.26l-.62-.58c.7-.77,1.25-1.68,1.68-2.69l-.91,.43c-.38-1.63-.74-2.9-1.27-4.3l.72-.34c.72,.91,1.42,1.9,1.97,2.9,1.18-3.65,1.3-8.54,1.3-14.47h-2.11v-1.08h10.37c-.43,2.4-.77,4.46-1.32,6.77h1.01l.46-.46,2.14,.89c-.91,3.6-2.09,6.29-3.65,8.35,1.44,1.3,3.12,2.18,5.02,3.02Zm-9.79-17.5c0,1.97-.05,3.86-.14,5.69h2.9c.48-2.3,.79-4.2,.98-5.69h-3.74Zm3.46,13.08c1.1-1.82,1.85-3.89,2.38-6.31h-5.21c.65,2.76,1.61,4.78,2.83,6.31Z"/>
      <path class="cls-1" d="M166.8,53.38l.36,.79c-1.92,1.25-5.9,2.76-9,3.62l-.72-2.4c.43-.05,.86-.12,1.3-.19v-8.09h1.87v7.78c.41-.07,.82-.14,1.2-.24v-9.91h-2.83v-7.22h7.15v7.22h-2.26v4.06h3.05v1.08h-3.05v4.32c1.08-.26,2.09-.53,2.93-.82Zm-5.86-9.72h3.22v-5.06h-3.22v5.06Zm18.55,.82l-1.22,2.06c-2.23-.86-4.27-2.95-5.45-6h-1.03c-.65,1.44-1.44,2.59-2.3,3.53h5.21v1.08h-5.33v-.94c-1.18,1.22-2.5,2.09-3.77,2.71l-.41-.62c1.8-1.1,3.46-2.86,4.56-5.76h-2.93v-1.08h3.29c.29-.96,.5-2.04,.67-3.24l2.21,.34c-.19,1.06-.46,2.04-.77,2.9h6.19v1.08h-4.63c1.44,2.16,3.17,3.17,5.71,3.94Zm-12.38,2.83h10.49v1.08h-5.83c-.29,.77-.62,1.56-.98,2.38h6.58c-.31,2.93-.53,4.37-.89,5.5-.74,2.3-2.76,3.31-6.38,.29l.34-.77c3.24,1.13,3.7,.96,4.06-.19,.22-.7,.48-2.04,.62-3.74h-4.8c-.34,.72-.7,1.44-1.08,2.06l-1.9-.65c.89-1.51,1.63-3.29,2.21-4.87h-2.42v-1.08Z"/>
      <path class="cls-1" d="M190.8,43.08c-.96,1.87-2.09,3.46-3.46,4.75l-.6-.6c1.78-2.52,3.26-6.43,4.1-11.11l2.3,.55-.43,1.54c1.63,1.44,3.36,3.34,4.2,4.68v-1.54h3c.17-.82,.31-1.85,.41-2.62h-4.99v-1.08h12.02v1.08h-4.78c-.48,.96-1.06,1.92-1.51,2.62h4.94v12.03h-9.1v-10.06l-1.68,1.15c-.77-1.75-1.78-3.55-2.86-5.21-.34,.94-.67,1.85-1.08,2.71,1.18,1.01,2.35,2.23,3.12,3.58l-1.85,1.13c-.5-1.34-1.15-2.54-1.78-3.6Zm3.72,13.51l-1.82,1.32c-.98-1.97-2.66-4.27-4.06-5.95l.53-.62c.96,.67,1.92,1.44,2.78,2.26,.65-1.39,1.32-3.36,1.73-4.99h-5.59v-1.08h5.5l.58-.41,2.06,.98c-.72,2.11-2.21,4.61-3.55,6.22,.7,.72,1.32,1.49,1.85,2.28Zm4.85-2.9l1.92,1.37c-2.04,1.7-4.97,3.07-7.34,3.77l-.34-.79c2.18-1.06,4.03-2.4,5.76-4.34Zm-.43-8.83h5.02v-2.42h-5.02v2.42Zm0,3.62h5.02v-2.54h-5.02v2.54Zm0,3.82h5.02v-2.74h-5.02v2.74Zm9.17,4.46l-1.46,1.94c-1.03-1.08-3.1-2.86-4.92-4.18l.41-.77c1.94,.7,4.13,1.68,5.98,3Z"/>
      <path class="cls-1" d="M222.77,50.93c-2.26,1.44-3.96,2.35-6.79,3.55l-.79-2.38c.89-.12,1.92-.31,3.07-.62v-8.23h-2.71v-1.08h2.71v-5.5h2.04v5.5h2.57v1.08h-2.57v7.63c.67-.22,1.37-.48,2.11-.77l.36,.82Zm7.08,1.15c-2.57,1.56-5.09,2.69-7.66,3.5l-.77-2.16c2.14-.34,5.21-1.03,8.11-2.09l.31,.74Zm3.43,5.06c-.77-.72-1.44-1.8-1.97-3.24-2.42,2.69-5.04,3.74-6.77,4.42l-.31-.77c1.73-.94,4.34-2.42,6.48-5.59-.67-2.71-1.03-6.24-1.06-10.46h-6.86v-1.08h6.86v-4.15h2.04v4.15h2.59c-.48-.94-1.22-2.09-2.02-3.24l.5-.55c1.18,.72,2.3,1.61,3.22,2.47l-1.58,1.32h2.18v1.08h-4.9c.02,3.19,.22,5.71,.53,7.7,.67-1.51,1.25-3.31,1.63-5.42l2.16,.74c-.82,3.17-1.94,5.59-3.19,7.46,.41,1.42,.86,2.38,1.32,2.95,1.2,1.66,1.44,0,1.25-2.52h.77c1.85,4.15,.02,7.37-2.88,4.73Zm-4.56-13.27v6.77h-5.38v-6.77h5.38Zm-1.68,1.08h-2.06v4.61h2.06v-4.61Z"/>
      <path class="cls-1" d="M251.69,38.57c-.41,.65-.89,1.27-1.39,1.87,.96,.65,1.9,1.46,2.76,2.42l-1.27,1.08h4.06v6.46h-7.39c-.07,.65-.17,1.25-.29,1.82h8.06v6.19h-2.06v-1.22h-4.66v1.34h-1.92v-4.3c-.7,1.92-1.73,3.34-2.98,4.37l-.62-.6c2.04-2.62,2.52-5.33,2.52-11.45v-2.69c-.65,.48-1.32,.89-1.99,1.27l-.5-.67c2.64-2.21,5.26-5.3,6.29-8.45l2.38,.74c-.14,.31-.29,.6-.46,.91,1.94,1.13,3.86,2.54,4.78,3.53l-1.58,1.61c-.91-1.27-2.3-2.86-3.72-4.25Zm-2.11,2.69c-.82,.84-1.73,1.63-2.69,2.35l1.56,.34h2.81c-.53-.91-1.13-1.87-1.68-2.69Zm4.25,8.09v-1.63h-5.21c0,.58-.02,1.1-.07,1.63h5.28Zm0-4.32h-5.23l.02,1.61h5.21v-1.61Zm-4.32,8.28v2.9h4.66v-2.9h-4.66Zm14.71-16.97v19.56c0,3.02-2.4,3.58-6.43,.98l.29-.82c3.22,.77,4.01,.91,4.01-.62v-19.11h2.14Zm-4.18,16.63h-1.97v-14.14h1.97v14.14Z"/>
      <path class="cls-1" d="M279.89,51.7v6.82h-2.11v-6.17c-.89,1.37-2.28,3.02-4.49,4.51l-.53-.67c1.7-1.44,3.65-4.27,4.51-6.5h-3.84v-1.03h4.34v-2.35h2.11v2.35h4.03v1.03h-4.03v.77c1.18,.72,2.64,1.68,3.86,3l-1.54,1.49c-.77-1.22-1.58-2.26-2.33-3.24Zm4.44-5.88h-11.23v-1.08h3.14c-.41-1.18-1.01-2.71-1.51-3.74l.72-.48c.94,.89,2.09,2.38,2.71,3.5l-1.39,.72h2.81c.46-1.34,.82-3.12,.96-4.27l2.16,.7c-.55,1.15-1.39,2.57-2.18,3.58h3.82v1.08Zm-.58-5.47h-10.3v-1.06h5.02c-.84-.91-1.73-1.78-2.66-2.59l.43-.72c1.25,.43,2.71,1.1,4.01,2.02l-.98,1.3h4.49v1.06Zm10.54,4.87h-2.47v13.2h-2.11v-13.2h-2.74v.96c0,6.19-1.25,10.06-4.22,12.6l-.65-.58c2.28-2.81,2.71-6.17,2.71-11.23v-8.88l1.99,.53c1.85-.53,3.34-1.27,4.9-2.4l2.06,1.75c-2.16,.77-4.39,1.3-6.79,1.51v4.66h7.32v1.08Z"/>
      <path class="cls-1" d="M309.22,52.75v3.67c0,1.99-2.5,3.17-5.76,.48l.36-.79c2.81,.91,3.36,.67,3.36-.5v-2.28c-1.8,.48-3.53,.86-4.75,1.06l-.55-2.11c1.46-.12,3.38-.36,5.3-.65v-2.26l1.34,.26c.6-.67,1.1-1.46,1.49-2.21h-2.69c-1.78,1.61-3.6,2.9-5.3,3.84l-.48-.7c1.22-.84,2.57-1.87,3.86-3.14h-2.35v-1.08h3.41c.65-.7,1.3-1.46,1.9-2.28h-6.58v-1.08h4.3v-2.62h-3.43v-1.08h3.43v-2.9h2.06v2.9h2.78v.48c.43-.91,.84-1.92,1.18-2.95l2.06,.82c-.72,1.92-1.73,3.72-2.9,5.35h2.59v1.08h-3.41c-.62,.82-1.32,1.56-2.02,2.28h1.7l.48-.34,1.97,1.32c-.72,.86-2.11,1.97-3.36,2.74v1.22c1.63-.31,3.19-.65,4.37-.98l.22,.79c-1.15,.55-2.83,1.13-4.58,1.66Zm-.1-9.77c.53-.82,1.06-1.68,1.51-2.62h-2.5v2.62h.98Zm14.02,13.37l-1.7,2.4c-1.49-1.27-2.86-2.64-3.89-4.68-1.63,1.92-3.89,3.43-6.94,4.44l-.36-.79c3-1.32,5.11-3.12,6.53-5.42-.67-1.87-1.13-4.25-1.3-7.42-.65,1.46-1.34,2.78-2.11,3.79l-.72-.46c1.49-2.69,2.57-7.46,2.95-12l2.33,.48c-.31,1.63-.72,3.29-1.2,4.85h5.98v1.08h-1.37c-.17,3.74-.91,7.03-2.54,9.72,1.08,1.58,2.52,2.88,4.34,4.01Zm-5.4-5.9c.91-2.23,1.37-4.85,1.44-7.82h-2.81c-.05,.14-.1,.29-.17,.43,.14,3,.65,5.4,1.54,7.39Z"/>
      <path class="cls-1" d="M351.55,53.4h-8.71v2.76c0,2.16-1.9,3.41-6.14,.91l.22-.82c3.48,.77,3.77,.41,3.77-1.01v-1.85h-9.75v-1.08h9.75v-1.73l1.61,.24c.89-.5,1.78-1.2,2.47-1.8h-10.15v-1.08h10.71l.65-.29,1.94,1.56c-1.54,1.08-3.6,1.92-5.06,2.35v.74h8.71v1.08Zm-18.31-3.43h-2.11v-4.27h2.11c-.07-2.74-.17-5.5-.31-8.23l1.9,.41c.91-.41,1.66-.96,2.62-1.87l1.25,1.34c-.94,.48-2.47,1.08-3.82,1.3,0,.43,.02,.86,.05,1.3h3.19v1.08h-3.14c.02,.62,.02,1.27,.05,1.9h3.26v1.08h-3.24c.02,.58,.05,1.13,.05,1.7h3.55l-.29-.62c.82-.46,1.54-1.01,2.14-1.66-.48-.41-.98-.79-1.54-1.18l.36-.67c.7,.31,1.34,.6,1.97,.94,.41-.5,.77-1.06,1.1-1.63l1.49,1.06c-.36,.43-.79,.89-1.3,1.37,.53,.36,1.03,.74,1.54,1.2l-1.1,1.2h4.3c.05-.55,.07-1.08,.1-1.63h-3.26v-1.08h3.31c.02-.58,.07-1.18,.1-1.75h-3.24v-1.08h3.26l.07-1.85h-3.5v-1.08h3.31l.46-.46,1.75,.43c-.17,2.78-.31,5.69-.53,8.5h2.18v4.2h-2.11v-3.12h-15.96v3.19Zm7.3-11.43c-.5-.5-1.03-.98-1.51-1.37l.36-.7c.6,.29,1.22,.67,1.87,1.08,.31-.5,.6-1.01,.84-1.49l1.61,.89c-.31,.48-.72,.98-1.2,1.49,.5,.38,.96,.77,1.42,1.18l-1.27,1.3c-.31-.41-.72-.94-1.2-1.44-.79,.67-1.66,1.27-2.47,1.7l-.43-.6c.74-.6,1.42-1.3,1.99-2.04Zm-1.51,7.15h3.7c-.41-.5-.84-.98-1.27-1.42-.74,.58-1.56,1.08-2.42,1.42Z"/>
    </g>
  </g>
</svg>