<?xml version="1.0" encoding="UTF-8"?>
<svg id="_圖層_2" data-name="圖層 2" xmlns="http://www.w3.org/2000/svg" viewBox="0 0 733.19 460.07">
  <defs>
    <style>
      .cls-1 {
        fill: #fff;
      }
    </style>
  </defs>
  <g id="_圖層_1-2" data-name="圖層 1">
    <g>
      <g>
        <path class="cls-1" d="M109.66,73.38c-11.76,59.64-44.32,126.39-99.03,160.04l-6.02-8.48c47.33-41.31,68.39-96.85,75.51-142.81l-64.29,.27v-12.31l62.92-.27,5.47-5.47,25.44,9.03ZM254.39,207.7l-19.97,29.82c-30.09-18.6-70.04-66.21-89.73-154.02V223.3c0,36.39-26.81,44.32-74.69,11.76l3.28-9.58c41.31,10.12,46.78,7.39,46.78-9.57V2.8h24.62v29.55c4.38,24.62,10.94,49.24,20.79,72.22,16.69-14.5,37.48-36.39,51.16-58.55l24.9,19.97c-22.16,20.79-51.71,38.3-71.68,48.7,18.06,38.57,45.14,71.95,84.53,93.02Z"/>
        <path class="cls-1" d="M283.39,66.27c16.96,7.66,37.75,19.15,53.89,31.19l-17.78,21.89c-9.85-13.41-27.63-32.56-41.04-45.41l4.92-7.66ZM292.15,2.25c13.68,6.29,35.29,19.97,48.42,31.19l-18.33,19.97c-10.12-14.23-25.72-33.1-35.84-43.5l5.75-7.66Zm34.47,127.21l9.3,2.74c-5.2,33.65-13.41,83.17-21.61,111.34l-27.63-11.76c14.5-29.27,27.9-67.57,39.94-102.32Zm118.46-80.98v29h65.93V234.79c0,25.99-31.19,23.8-58.54,6.57l2.74-9.03c28.18,6.29,31.73,3.28,31.73-5.47V89.79h-107.24V255.03h-24.07V77.48h64.84v-29h-74.14v-12.31h74.14V1.43h24.62V36.17h75.51v12.31h-75.51Zm35.29,135.69h-35.84v56.36h-23.53v-56.36h-36.39v-11.76h36.39v-24.07h-33.92v-11.76h20.79c-4.92-13.68-11.76-28.45-17.24-39.39l7.66-5.2c8.75,8.21,21.61,24.07,27.63,35.29l-17.51,9.3h30.37c4.65-13.41,8.21-29,10.67-43.5l21.61,8.21c-4.65,10.4-14.23,25.72-21.07,35.29h29v11.76h-34.47v24.07h35.84v11.76Z"/>
      </g>
      <g>
        <path class="cls-1" d="M694.76,4.69c-1.97,5.34-4.69,11.06-7.69,16.4h32.33v60.07h-8.81v-8.15h-41.8v8.15h-8.81V21.09h22.31c.75-4.4,1.5-11.25,1.97-16.4h-35.8V0h82V4.69h-35.71Zm15.84,20.62h-41.8v18.18h41.8V25.3Zm0,22.4h-41.8v20.99h41.8v-20.99Z"/>
        <path class="cls-1" d="M676.21,151.54h-16.59v7.59h-7.87v-60.73h24.46v53.14Zm-7.69-48.92h-8.9v44.7h8.9v-44.7Zm64.67,57.64l-6.84,8.53c-6.09-4.69-15.74-16.21-20.06-31.86v37.49h-8.62v-36.27c-4.87,9.84-15.37,23.34-28.49,31.4l-1.97-2.81c11.9-9.75,20.24-22.49,26.62-36.83h-15.75v-4.22h19.59v-15.56h-16.49v-4.22h16.49v-17.34h8.62v17.34h17.15v4.22h-17.15v15.56h21.46v4.22h-20.24c4.59,12.75,14.43,23.34,25.68,30.36Z"/>
        <path class="cls-1" d="M660.84,227.82l3.19,1.12c-2.34,12.93-6.56,30.08-9.18,37.77l-8.72-4.31c4.4-8.53,10.87-23.71,14.71-34.58Zm-12.18-24.55c4.97,2.53,11.62,6.56,16.03,10.78l-5.81,6.75c-3.65-5.15-8.62-10.59-12.09-14.71l1.87-2.81Zm10.78-4.4c-3.47-4.41-8.81-10.31-12.09-13.59l1.69-2.91c4.78,1.87,12,6,16.31,9.84l-5.9,6.65Zm38.99,48.73l-11.43-.09v21.18h-7.87v-21.18h-14.15v-4.22h14.15v-8.53h-11.06v-29.62h11.06v-7.59h-13.59v-4.31h13.59v-11.62h7.87v11.62h12.56v4.31h-12.56v7.59h11.15v29.62h-11.15v8.53h11.43v4.31Zm-23.06-29.99h15.46v-8.25h-15.46v8.25Zm15.46,12.93v-8.81h-15.46v8.81h15.46Zm37.21-42.92v72.63c0,8.62-8.06,11.34-20.9,3.28l.94-3.19c10.78,2.62,12.09,1.5,12.09-2.72v-23.99h-10.59c-1.03,15.74-5.15,25.77-14.9,36.27l-2.53-2.16c8.34-12.65,10.12-20.9,10.12-44.7v-35.43h25.77Zm-7.87,23.8h-10.22v11.62c0,2.25,0,4.5-.09,6.56h10.31v-18.18Zm0-19.59h-10.22v15.56h10.22v-15.56Z"/>
        <path class="cls-1" d="M730.66,352.55v5.15h-79.85v-5.15h35.8v-23.8h-27.08v-4.69h27.08v-20.43h-18.09c-4.12,7.69-9.18,14.53-14.81,19.4l-2.53-2.16c7.4-10.12,13.03-24.18,15.84-41.42l9.56,2.72c-1.41,5.81-3.37,11.53-5.9,16.96h15.93v-23.43h8.81v23.43h28.96v4.5h-28.96v20.43h26.71v4.69h-26.71v23.8h35.24Z"/>
        <path class="cls-1" d="M661.12,408.31c-3.37-4.97-10.4-12.75-14.34-16.96l1.97-2.91c5.44,2.72,13.5,7.69,18.84,12.56l-6.47,7.31Zm4.5,4.22l3.19,1.03c-1.87,11.43-6.65,30.93-9.75,40.58l-9.84-4.5c5.15-10.03,11.9-24.84,16.4-37.11Zm-.94-24.55c-3.84-5.15-9.47-11.81-13.5-16.21l2.16-2.81c5.06,2.53,13.12,7.69,17.9,12.18l-6.56,6.84Zm40.49,14.62v16.21h20.15v36.83h-8.43v-6.56h-31.77v7.03h-8.44v-37.3h19.68v-16.21h-25.3v-4.22h25.3v-14.81c-8.53,1.22-16.49,2.06-21.27,2.34l-.66-3.47c10.87-1.59,31.77-6.56,43.49-12.65l8.43,7.59c-5.62,1.78-13.31,3.47-21.18,4.78v16.21h26.34v4.22h-26.34Zm-20.06,20.43v21.74h31.77v-21.74h-31.77Z"/>
      </g>
      <g>
        <path class="cls-1" d="M159.53,426.82l-11.96,20.58c-19-9.67-45.91-32.01-59.98-61.39v74.05h-16.89v-73.35c-13.9,24.62-41.16,47.31-67.19,60.51l-3.52-5.8c28.85-19.52,47.84-41.69,60.51-64.9H5.8v-9.67H70.71v-27.79H18.12v-8.79h52.59v-33.95h16.89v33.95h51.89v8.79h-51.89v27.79h65.25v9.67h-62.09c17.41,25.15,45.73,42.21,68.77,50.3Z"/>
        <path class="cls-1" d="M331.91,428.76l-11.61,19.35c-23.22-13.37-42.74-31.48-57.52-58.75v70.18h-16.18v-63.85c-13.72,18.82-36.94,39.93-65.61,52.77l-2.81-5.8c21.46-11.96,47.49-37.29,61.21-59.8l-9.67,6.68c-3.34-8.62-7.21-16.71-10.55-23.39-5.8,15.13-14.77,28.49-30.78,41.16l-4.22-4.75c16.71-19.7,23.04-39.4,25.15-66.31l16.71,3.17c-1.06,6.16-2.29,11.96-3.87,17.59,7.04,6.51,14.95,14.42,19.7,21.63,1.93-3.52,3.52-6.86,4.75-10.03v-37.29h-62.09v-9.67h62.09v-25.86h16.18v25.86h62.79v9.67h-62.79v43.97c2.29,3.17,4.57,6.16,6.86,8.79,9.5-14.25,14.07-27.44,16.89-48.19l16.53,4.22c-1.93,6.51-4.05,12.49-6.51,17.94,10.38,7.39,20.05,16.36,25.86,23.04l-12.31,11.43c-5.1-9.15-11.26-18.82-17.24-26.91-5.1,9.67-11.08,17.41-18.47,24.1,16.89,19,34.47,29.9,57.52,39.05Z"/>
        <path class="cls-1" d="M485.99,450.75c-5.98-5.1-10.73-12.31-14.6-21.11-11.08,12.66-24.98,22.34-42.39,29.2l-2.81-5.45c17.77-9.32,30.6-21.99,40.45-37.29-7.04-24.45-8.79-55.4-9.32-82.32h-33.95v27.44h30.25c0,13.72,.88,37.64-.88,51.18-2.11,16.89-14.77,18.64-31.48,5.8l1.94-5.1c11.96,2.81,13.72,3.17,14.95-2.46,.53-2.29,1.23-18.12,1.06-41.51h-15.83v8.97c0,36.94-11.78,61.38-33.24,80.91l-4.4-4.22c13.19-14.6,19.52-36.06,21.63-58.04-15.65,11.78-29.2,20.05-49.25,30.25l-7.04-17.06c5.8-1.23,12.84-3.17,20.75-5.8v-51.18h-18.47v-7.92h18.47v-44.68l15.13-.18v44.68l17.76,.18v7.92l-17.76-.18v46.08c5.63-2.29,11.26-4.75,16.71-7.39l3.69,5.28c.53-6.33,.88-12.66,.88-18.82v-52.06h49.07v-29.9h14.42v29.9h19.7c-3.34-6.68-8.79-14.77-14.42-21.99l4.22-4.92c8.62,4.92,17.24,11.61,23.92,17.94l-10.73,8.97h11.78v7.91h-34.3c.18,20.75,1.41,43.27,4.75,62.44,6.16-14.6,10.38-30.96,13.37-48.72l15.65,4.57c-5.28,25.5-12.84,46.79-24.1,64.02,2.11,6.33,4.75,11.78,7.74,16.18,8.44,12.49,12.14,5.1,12.14-18.12h5.63c10.91,33.59-2.11,52.59-21.11,36.58Z"/>
      </g>
    </g>
  </g>
</svg>