<?xml version="1.0" encoding="UTF-8"?>
<svg id="_圖層_2" data-name="圖層 2" xmlns="http://www.w3.org/2000/svg" viewBox="0 0 539.29 154.81">
  <defs>
    <style>
      .cls-1 {
        fill: #fff;
      }
    </style>
  </defs>
  <g id="_圖層_3" data-name="圖層 3">
    <g>
      <path class="cls-1" d="M16.35,38.96v21.96c0,6.26-5.11,9.07-15.99,2.09l.72-2.38c7.56,1.8,9.07,1.37,9.07-2.02v-16.2c-2.59,1.3-5.04,2.45-7.2,3.46l-2.95-6.19c3.24-.86,6.77-1.87,10.15-2.95V19.95H.79v-3.24H10.15V1.01h6.19v15.7h8.35v3.24h-8.35v14.54c2.09-.79,4.1-1.66,5.83-2.52l1.44,2.16c-2.09,1.66-4.61,3.24-7.27,4.82Zm43.92,28.3c-7.7-1.73-14.04-4.54-19.08-9.07-6.12,4.61-13.75,7.92-22.9,9.58l-.72-2.45c8.57-2.52,15.12-6.34,20.16-10.8-3.82-4.61-6.7-10.58-8.64-18.36h-4.61v-3.17l24.84-.07,1.44-1.08,6.55,3.02c-2.38,7.49-6.26,14.04-11.59,19.37,5.04,2.95,11.23,4.39,18.65,5.4l-4.1,7.63ZM29.09,4.97h21.89v14.33c0,2.81,.36,3.67,4.68,3.74,2.88,.07,4.25-.72,5.62-1.8l3.02,4.9c-1.87,1.73-3.74,2.66-7.06,2.66-10.58,0-12.46-.72-12.46-8.14V8.21h-9.43c.14,12.38-2.59,19.51-12.53,23.19l-1.3-2.38c6.7-4.46,7.63-9.65,7.56-24.05Zm2.59,31.18c2.45,6.7,5.62,11.45,9.5,14.91,4.1-4.68,6.77-9.79,8.35-14.91H31.68Z"/>
      <path class="cls-1" d="M103.39,55.8l6.55,4.18c-5.54,3.17-18.07,7.27-28.87,8.71l-.79-2.52c9.5-2.59,16.63-5.76,23.11-10.37Zm-18.72-24.7l-3.82-5.26c5.98-3.74,10.87-7.42,15.55-11.81l1.87,1.58c-3.67,5.26-7.63,10.23-13.61,15.48Zm10.01-18.43c-4.75-3.46-8.42-6.12-11.81-8.14l.86-2.45c3.6,.65,9.43,2.09,14.62,4.83l-3.67,5.76Zm-5.11,16.27l44.72,.07v26.14h-44.72V28.95Zm6.34,7.71h32.04v-4.46h-32.04v4.46Zm0,7.27h32.04v-4.25h-32.04v4.25Zm0,7.99h32.04v-4.97h-32.04v4.97Zm4.25-33.05l-1.73-1.8c4.1-4.68,6.48-9.5,8.5-17.07l6.19,1.66c-.5,1.51-1.08,2.88-1.73,4.25h21.53l1.22-1.01,6.26,3.53c-2.52,3.82-6.26,7.2-10.3,9.72l-1.87-1.58c2.09-2.88,3.1-4.68,4.32-7.63h-9.36c-.36,1.58-1.15,3.96-1.66,5.11,6.19,7.27,13.9,8.14,21.24,8.57l-3.46,6.7c-6.19-1.08-14.04-3.89-19.44-12.82-4.68,7.06-12.82,10.73-22.39,11.67l-.72-2.45c11.23-2.66,16.92-8.14,19.23-16.78h-6.34c-2.45,3.89-5.62,7.13-9.5,9.94Zm14.62,37.3c7.78,.86,18.72,2.66,27,5.9l-3.53,6.41c-6.48-3.46-16.56-7.13-24.12-9.79l.65-2.52Z"/>
      <path class="cls-1" d="M223.71,54.44l-4.9,8.42c-7.78-3.96-18.79-13.1-24.55-25.13v30.31h-6.91v-30.03c-5.69,10.08-16.85,19.37-27.51,24.77l-1.44-2.38c11.81-7.99,19.59-17.07,24.77-26.57h-22.39v-3.96h26.57v-11.38h-21.53v-3.6h21.53V1.01h6.91V14.91h21.24v3.6h-21.24v11.38h26.71v3.96h-25.42c7.13,10.3,18.72,17.28,28.15,20.59Z"/>
      <path class="cls-1" d="M301.47,55.23l-4.75,7.92c-9.5-5.47-17.5-12.89-23.55-24.05v28.73h-6.62v-26.14c-5.62,7.71-15.12,16.35-26.86,21.6l-1.15-2.38c8.78-4.9,19.44-15.26,25.06-24.48l-3.96,2.74c-1.37-3.53-2.95-6.84-4.32-9.58-2.38,6.19-6.05,11.67-12.6,16.85l-1.73-1.94c6.84-8.06,9.43-16.13,10.3-27.15l6.84,1.3c-.43,2.52-.94,4.9-1.58,7.2,2.88,2.66,6.12,5.9,8.06,8.86,.79-1.44,1.44-2.81,1.94-4.1V15.34h-25.42v-3.96h25.42V.79h6.62V11.38h25.71v3.96h-25.71v18c.94,1.3,1.87,2.52,2.81,3.6,3.89-5.83,5.76-11.23,6.91-19.73l6.77,1.73c-.79,2.66-1.66,5.11-2.66,7.34,4.25,3.02,8.21,6.7,10.58,9.43l-5.04,4.68c-2.09-3.74-4.61-7.7-7.06-11.02-2.09,3.96-4.54,7.13-7.56,9.86,6.91,7.78,14.11,12.24,23.55,15.99Z"/>
      <path class="cls-1" d="M371.74,64.23c-2.45-2.09-4.39-5.04-5.98-8.64-4.54,5.18-10.22,9.14-17.35,11.95l-1.15-2.23c7.27-3.82,12.53-9,16.56-15.27-2.88-10.01-3.6-22.68-3.82-33.7h-13.9v11.23h12.38c0,5.62,.36,15.41-.36,20.95-.86,6.91-6.05,7.63-12.89,2.38l.79-2.09c4.9,1.15,5.62,1.3,6.12-1.01,.22-.94,.5-7.42,.43-16.99h-6.48v3.67c0,15.12-4.83,25.13-13.61,33.12l-1.8-1.73c5.4-5.98,7.99-14.76,8.86-23.76-6.41,4.82-11.95,8.21-20.16,12.38l-2.88-6.98c2.38-.5,5.26-1.3,8.5-2.38V24.19h-7.56v-3.24h7.56V2.66l6.19-.07V20.88l7.27,.07v3.24l-7.27-.07v18.87c2.3-.94,4.61-1.94,6.84-3.02l1.51,2.16c.22-2.59,.36-5.18,.36-7.71V13.11h20.09V.86h5.91V13.11h8.06c-1.37-2.74-3.6-6.05-5.9-9l1.73-2.02c3.53,2.02,7.06,4.75,9.79,7.34l-4.39,3.67h4.82v3.24h-14.04c.07,8.5,.58,17.71,1.94,25.56,2.52-5.98,4.25-12.67,5.47-19.95l6.41,1.87c-2.16,10.44-5.26,19.15-9.86,26.21,.86,2.59,1.94,4.83,3.17,6.62,3.46,5.11,4.97,2.09,4.97-7.42h2.3c4.46,13.75-.86,21.53-8.64,14.98Z"/>
      <path class="cls-1" d="M62.86,117.65v3.24H1.8v-3.24H62.86Zm-2.95-22.9H4.75v-3.24H59.91v3.24Zm-46.37,15.19c3.82-.29,7.56-.72,10.3-1.22-.65-1.73-1.37-3.38-2.23-4.97l2.02-1.51c3.17,3.24,5.54,6.7,8.14,10.8l-5.54,3.02c-.43-1.66-.94-3.31-1.44-4.9-5.4,2.3-12.82,4.32-16.99,5.54l-2.02-6.34c1.15,0,2.38-.07,3.67-.14,2.74-3.74,5.4-9.86,6.48-14.98l6.77,2.3c-2.45,4.54-5.83,9.14-9.14,12.38Zm-2.52,15.55H53.57v27.79h-6.62v-4.03H17.21v4.32h-6.19v-28.08Zm6.19,10.15h29.74v-6.91H17.21v6.91Zm0,10.3h29.74v-7.06H17.21v7.06Zm24.7-36c3.82-.29,7.56-.72,10.3-1.22-.65-1.73-1.37-3.38-2.23-4.97l2.09-1.58c3.17,3.24,5.69,6.77,8.28,10.87l-5.76,3.02c-.43-1.66-.94-3.31-1.44-4.9-5.4,2.3-12.82,4.32-16.99,5.54l-2.02-6.34c1.15,0,2.38-.07,3.67-.14,2.74-3.74,5.4-9.86,6.48-14.98l6.77,2.3c-2.45,4.54-5.83,9.14-9.15,12.38Z"/>
      <path class="cls-1" d="M143.14,115.06v3.96h-16.35v35.21h-6.77v-35.21h-16.06c-.86,18.22-7.7,29.38-22.11,35.71l-1.37-2.45c12.53-8.21,15.7-18.07,16.49-33.27h-16.06v-3.96h16.13v-14.69c-4.97,1.58-10.15,2.81-15.12,3.6l-.65-2.66c12.6-3.74,19.8-7.56,28.3-13.97l7.13,4.68c-3.6,2.16-7.99,4.18-12.67,5.98v17.07h15.99v-27.29h6.77v27.29h16.35Z"/>
      <path class="cls-1" d="M219.68,90v63.65h-6.34v-3.67h-45.15v3.89h-6.34v-63.87h57.82Zm-6.34,3.24h-45.15v53.5h45.15v-53.5Zm-41.98,47.45l-2.09-5.83c7.7-1.3,16.71-3.89,22.32-5.98l.94,2.3c-5.33,3.38-14.33,7.42-21.17,9.5Zm20.09-33.41h-21.89v-3.24h21.67c-.14-2.88-.22-5.9-.22-9.07h5.76c0,2.95,0,5.98,.14,9.07h6.91c-1.37-2.81-3.31-6.34-4.61-8.5l2.02-1.51c2.38,1.73,5.98,5.33,7.78,7.85l-3.1,2.16h6.12v3.24h-14.98c.36,5.83,.94,11.59,2.02,16.49,1.58-3.67,2.88-7.92,4.18-13.1l5.54,2.02c-2.3,7.34-4.68,13.03-7.71,17.64,1.15,2.66,2.52,4.75,4.25,5.9,1.73,1.15,1.87-2.66,1.87-9.94h2.59c3.46,11.23,1.66,21.31-6.12,16.27-2.59-1.66-4.68-4.18-6.34-7.42-3.74,3.96-8.35,6.99-14.62,9.87l-1.22-2.23c6.26-3.82,10.58-7.42,13.83-12.17-2.09-5.98-3.31-13.83-3.89-23.33Zm-19.66,20.59v-15.7h17.35v15.7h-17.35Zm5.33-3.02h6.7v-9.65h-6.7v9.65Z"/>
      <path class="cls-1" d="M253.66,127.66c-.29-4.54-1.37-8.57-4.82-14.76,1.3-4.25,2.74-12.53,3.53-18.94h-5.33v60.2h-6.05V89.35l6.05,1.58h4.97l1.58-1.08,6.05,2.67c-3.02,9-5.98,16.27-8.35,19.95,4.82,5.54,7.42,10.87,7.99,16.85,.86,8.71-4.39,11.59-11.52,6.98l.65-2.45c5.04,1.01,5.69,.14,5.26-6.19Zm1.01,22.97l-1.58-2.02c4.54-3.89,10.15-10.8,13.18-17.5l6.19,3.31c-4.46,6.55-12.89,13.18-17.79,16.2Zm-.29-40.04c5.18-7.2,8.06-15.48,9.86-24.19l5.9,1.51c-.5,1.8-1.22,3.67-2.02,5.62h4.68l1.58-1.01,5.4,2.3c-2.16,8.5-5.33,15.19-9.65,20.59h20.09v3.17h-21.24v-1.8c-2.52,2.95-5.47,5.4-8.78,7.63l-1.44-2.09c2.95-2.67,5.47-5.62,7.56-8.71-1.58-2.16-3.82-4.75-5.62-6.7-1.44,1.94-3.02,3.75-4.68,5.26l-1.66-1.58Zm28.44,36.15c.07,8.57-7.92,10.01-17.35,2.3l1.01-2.38c8.71,2.66,10.01,2.38,10.01-1.66v-16.2h-15.41v-3.24h38.31v3.24h-16.56v17.93Zm-14.04-37.3c.58-1.08,1.08-2.23,1.58-3.38-1.8-1.73-3.96-3.53-5.9-4.97-.72,1.37-1.51,2.66-2.38,3.89,2.16,1.22,4.68,2.88,6.7,4.46Zm-1.94-12.89l-1.15,2.38c1.94,.72,4.25,1.73,6.26,2.88,.58-1.8,1.01-3.53,1.3-5.26h-6.41Zm12.1-9.22l2.59-.43c1.44,7.56,3.96,13.18,7.13,17.5,2.16-3.17,3.6-5.91,4.75-9.36h-9.15l-.07-3.02h9l1.66-1.08,5.76,3.31c-4.18,6.84-6.91,9.5-10.3,12.17,3.6,4.32,7.92,7.27,12.31,9.72l-4.39,6.26c-9.36-6.62-16.13-15.62-19.3-35.07Zm24.19,57.89l-5.47,4.75c-2.02-3.46-7.42-11.23-11.88-16.63l1.8-1.87c5.9,4.03,12.53,9.94,15.55,13.75Z"/>
      <path class="cls-1" d="M325.66,133.13c.36,8.5-1.15,15.91-2.74,20.59l-6.7-2.81c2.88-4.32,5.76-10.37,6.91-18.07l2.52,.29Zm-2.88-8.86c3.74-4.39,6.48-8.86,9.14-14.26-4.03,1.37-8.5,2.66-12.6,3.31l-1.51-5.98h4.46c2.81-5.62,5.54-13.11,7.27-20.59l6.7,2.23c-2.88,6.7-6.77,12.82-11.02,18.29,2.88-.14,5.76-.29,8.28-.58,1.15-2.45,2.23-5.11,3.46-7.99l5.91,2.95c-6.05,10.87-10.66,16.85-16.85,22.39,3.96-.29,7.63-.79,11.3-1.44-.58-1.8-1.15-3.53-1.8-5.33l2.09-1.08c2.95,3.67,5.11,7.06,7.06,11.95l-5.33,2.23c-.43-1.94-.86-3.67-1.37-5.33-6.05,2.59-12.1,4.46-19.23,5.83l-1.73-6.48c2.02,0,3.89-.07,5.76-.14Zm8.35,7.56c1.87,4.97,3.6,10.44,4.54,15.91l-6.34,.94c.14-6.05-.07-11.09-.58-16.42l2.38-.43Zm51.12,15.41l-4.97,7.34c-4.46-2.3-9.79-5.83-14.4-11.45-5.47,5.18-12.24,8.78-20.81,11.67l-1.08-2.3c8.21-3.82,14.26-8.28,18.79-13.75-3.67-5.9-6.55-13.54-7.49-23.69h-.07c-1.3,15.84-4.82,28.95-14.26,36.8l-1.87-1.73c2.09-2.3,3.74-5.04,5.04-8.06l-2.74,1.3c-1.15-4.9-2.23-8.71-3.82-12.89l2.16-1.01c2.16,2.74,4.25,5.69,5.9,8.71,3.53-10.95,3.89-25.63,3.89-43.42h-6.34v-3.24h31.11c-1.3,7.2-2.3,13.39-3.96,20.31h3.02l1.37-1.37,6.41,2.67c-2.74,10.8-6.26,18.87-10.94,25.06,4.32,3.89,9.36,6.55,15.05,9.07Zm-29.38-52.49c0,5.91-.14,11.59-.43,17.07h8.71c1.44-6.91,2.38-12.6,2.95-17.07h-11.23Zm10.37,39.24c3.31-5.47,5.54-11.67,7.13-18.94h-15.62c1.94,8.28,4.82,14.33,8.5,18.94Z"/>
      <path class="cls-1" d="M414.58,116.07v38.45h-6.48v-31.61c-3.74,3.46-7.56,6.41-10.8,8.21l-1.44-2.16c8.57-7.34,15.99-17.86,20.67-28.08l6.19,3.31c-1.8,3.82-4.75,7.92-8.14,11.88Zm-15.05-5.76l-1.58-2.02c6.98-6.41,12.46-14.54,15.77-21.89l6.12,3.38c-5.26,8.21-13.03,16.06-20.31,20.52Zm59.91,3.24h-12.6v33.2c0,7.78-7.13,10.44-20.45,2.81l.79-2.52c11.81,2.45,12.89,1.58,12.89-2.45v-31.03h-17.64v-3.24h37.01v3.24Zm-3.24-17.5h-30.24v-3.24h30.24v3.24Z"/>
      <path class="cls-1" d="M539.29,141.92l-4.75,6.91c-7.42-4.54-13.32-12.67-16.92-23.83-1.3,.58-2.74,1.15-4.18,1.73,1.66,4.46,2.59,9.15,2.52,13.32-.29,15.7-8.78,17.35-20.09,8.93l1.01-2.45c10.01,3.17,12.38,2.09,12.6-9.58,0-.72,0-1.51-.07-2.3-5.04,5.04-15.12,11.23-31.18,15.27l-.86-2.45c13.68-4.82,23.91-11.81,30.82-20.16-.29-1.15-.58-2.3-.94-3.38-7.34,5.69-18,9.94-28.23,12.53l-.86-2.45c10.44-3.75,19.95-9.15,26.64-16.06-.43-.94-.94-1.73-1.44-2.52-6.7,3.82-15.12,6.62-22.68,8.21l-.72-2.45c11.3-3.82,16.85-7.13,21.6-11.74h-14.69v-3.24h41.55v3.24h-16.99c-1.51,1.58-3.38,3.02-5.4,4.39,2.45,2.74,4.68,6.41,6.41,10.44,5.33-3.74,8.86-7.49,12.1-11.95l6.26,4.25c-3.6,2.95-6.99,5.33-10.8,7.27,4.54,8.71,12.1,15.05,19.3,18.07Zm-55.01-31.61h-6.34v-13.97h31.32c-3.6-2.45-8.35-5.47-12.1-7.78l.94-2.45c4.61,.86,12.24,3.17,16.42,5.33l-2.81,4.9h25.71v13.97h-6.34v-10.73h-46.8v10.73Z"/>
    </g>
  </g>
</svg>