<?xml version="1.0" encoding="UTF-8"?>
<svg id="_圖層_2" data-name="圖層 2" xmlns="http://www.w3.org/2000/svg" viewBox="0 0 72.25 32.2">
  <defs>
    <style>
      .cls-1 {
        fill: #4d4d4d;
      }
    </style>
  </defs>
  <g id="_圖層_1-2" data-name="圖層 1">
    <g>
      <path class="cls-1" d="M6.97,12c-.14,12.34-2.89,16.42-6.02,19.82l-.95-.78c2.41-3.43,3.84-7.31,3.84-17.78V2.45l2.89,.68c5.64-.2,13.5-1.43,17.95-3.13l3.13,2.82c-6.09,1.22-14.93,1.67-20.84,1.53v1.6H28.05v6.05H6.97Zm9.21,6.09c-.04,1.02-.14,2.04-.34,3.06h11.18c-.17,4.05-.54,6.8-.99,8.26-.82,2.65-3.26,3.71-8.6,.27l.44-1.16c4.9,1.46,5.24,.71,5.54-1.16,.24-1.43,.41-2.99,.48-4.69H15.5c-1.19,4.11-4.05,7.79-10.23,9.52l-.51-1.09c6.83-3.06,8.09-7.51,8.4-13.02H7.75v-1.53h12.31c-1.87-1.16-3.91-2.21-5.71-3.06l.31-1.16c1.73,.17,5.1,.65,7.41,1.53l-1.26,2.69h9.35v1.53h-13.97ZM6.97,7.48v2.99H25.06v-2.99H6.97Z"/>
      <path class="cls-1" d="M72.25,26.96l-1.94,3.47c-3.26-1.09-8.3-4.39-12.31-9.89v11.39h-3.13v-11.01c-3.5,4.59-8.33,7.65-13.46,9.79l-.54-1.12c4.01-2.14,9.11-6.19,11.97-10.3h-7.28V8.67h9.31v-2.79h-12.21v-1.7h12.21V.14h3.13V4.18h12.65v1.7h-12.65v2.79h9.35v10.57h-8.67c4.49,4.28,9.11,6.7,13.57,7.72Zm-23.66-13.84h6.29v-2.96h-6.29v2.96Zm0,4.62h6.29v-3.13h-6.29v3.13Zm9.42-7.58v2.96h6.36v-2.96h-6.36Zm6.36,4.42h-6.36v3.16h6.36v-3.16Z"/>
    </g>
  </g>
</svg>