<?xml version="1.0" encoding="UTF-8"?>
<svg id="_圖層_2" data-name="圖層 2" xmlns="http://www.w3.org/2000/svg" viewBox="0 0 451.94 151.88">
  <defs>
    <style>
      .cls-1 {
        fill: #474647;
      }
    </style>
  </defs>
  <g id="_圖層_1-2" data-name="圖層 1">
    <g>
      <path class="cls-1" d="M53.03,105.08h-15.34l3.14,1.27c-2.23,3.08-4.95,5.98-7.07,7.85h15.88v30.68c0,6.1-5.74,8.46-15.1,2.42l.72-2.11c7.31,1.69,8.94,1.33,8.94-2.11v-16.19h-7.43c-6.04,0-7.37-.91-7.31-4.95l.06-5.01h-4.95c-.72,7.55-6.16,10.69-13.59,12.62l-.91-1.99c6.28-2.72,8.82-4.53,9.18-10.63H9.72v33.94H4.29v-36.66h13.83c-.97-2.72-2.36-6.04-3.8-8.4l1.09-.72H0v-2.72H27c-2.72-1.93-7.01-4.47-9.66-6.1l.72-2.05c3.99,.73,9.9,2.05,13.35,3.74l-2.66,4.41h24.28v2.72Zm-19.87,38.35v-2.48h-12.68v3.44h-4.95v-15.16h22.89v14.19h-5.25Zm1.39-38.35H16.85c2.48,1.99,4.59,4.29,6.64,7.25l-3.2,1.87h10.75c1.27-2.54,2.66-6.1,3.5-9.12Zm-1.09,33.16v-6.28h-12.98v6.28h12.98Zm10.75-21.32h-9.84v4.29c0,1.21,.12,1.69,1.93,1.69h7.91v-5.98Z"/>
      <path class="cls-1" d="M83.52,125.13c1.27-2.17,2.36-4.83,3.02-7.25h-3.62v27.48c0,5.68-5.68,8.15-13.04,2.05l.72-1.99c6.1,1.75,7.25,1.75,7.25-1.15v-16.06c-2.36,4.89-5.74,9.54-10.75,13.89l-1.45-1.75c5.92-6.58,9.6-14.13,11.6-22.47h-10.75v-2.72h12.74c-2.36-3.93-4.65-6.95-7.43-10.27l1.33-1.51c2.24,1.33,4.29,2.84,6.22,4.47,2.11-2.23,3.87-4.53,5.32-7.19h-16.79v-2.72h16.97l1.51-.91,5.13,3.32c-2.84,3.74-6.46,6.64-10.33,9.12,1.03,.97,2.05,2.05,3.08,3.2l-3.14,2.48h5.38l1.57-1.09,4.95,2.84c-1.93,3.99-5.25,7.19-7.91,9.48l-1.57-1.27Zm20.17,3.14h12.86c-.36,7.97-.85,13.77-1.93,17.82-1.27,4.65-7.13,6.58-14.62,0l.91-1.99c7.01,2.54,8.21,2.05,8.88-.66,.72-2.84,1.15-7.49,1.33-12.44h-7.97c-2.42,11.17-8.76,17.76-18.36,20.59l-.91-1.93c8.46-4.11,12.38-9.72,13.95-18.66h-10.57l.06-2.72h10.93c.18-1.69,.36-3.5,.42-5.44l5.5,.3c-.12,1.81-.24,3.5-.48,5.13Zm16.61-8.64l-2.78,5.74c-4.89-1.45-9.24-3.56-12.86-6.82-4.35,3.5-9.78,5.98-15.76,7.67l-.73-2.05c5.38-1.93,10.09-4.83,13.71-8.46-1.99-2.36-3.68-5.19-5.13-8.58-1.45,1.99-3.2,3.99-5.19,5.86l-1.57-1.33c3.93-5.98,5.74-10.87,7.13-17.33l5.38,1.51c-.6,1.87-1.39,3.8-2.29,5.68h19.02v2.72h-5.19c-1.21,4.53-3.38,8.33-6.28,11.47,3.14,1.69,7.19,2.9,12.56,3.93Zm-16.25-6.4c2.11-2.66,3.62-5.68,4.41-9h-9.78l-.54,.91c1.69,3.38,3.5,5.98,5.92,8.09Z"/>
      <path class="cls-1" d="M139.07,133.1c.24,7.13-.42,13.35-1.81,17.27l-5.92-2.42c2.29-3.62,4.53-8.64,5.62-15.1l2.11,.24Zm-2.36-8.15c3.02-3.2,5.86-6.95,8.46-11.54-3.68,1.21-8.21,2.29-11.05,2.78l-1.09-5.5c1.33,.12,2.66,.18,3.99,.24,2.11-4.47,4.05-9.84,5.5-16.49l5.5,1.81c-2.23,5.44-5.68,10.99-8.46,14.74,2.36,0,4.71-.12,7.13-.3,1.09-2.17,2.17-4.59,3.14-7.13l5.38,2.29c-3.14,6.34-9.54,14.31-15.34,18.96,3.2-.18,6.52-.6,9.72-1.09-.54-1.57-1.15-3.14-1.75-4.53l1.81-.91c2.54,2.78,4.95,6.64,6.52,10.03l-4.59,2.11c-.36-1.33-.79-2.96-1.33-4.59-5.62,2.23-12.86,4.47-16.06,4.95l-1.51-5.92c1.33,.06,2.66,.06,4.05,.06Zm7.25,7.43c1.69,4.53,3.44,10.33,4.17,14.19l-5.56,.97c0-3.68-.24-9.72-.54-14.8l1.93-.36Zm11.9,9.96l-4.89,1.99c-.84-3.99-2.11-8.94-3.2-12.86l1.81-.73c2.48,3.62,4.89,8.09,6.28,11.6Zm30.32,3.87v2.72h-33.34v-2.72h14.19v-12.8h-11.6v-2.72h28.51v2.72h-11.6v12.8h13.83Zm-1.03-44.27h-30.98v-2.72h30.98v2.72Zm-27.6,13.47c2.66,2.96,5.62,6.64,7.43,10.63l-5.56,2.48c-1.45-5.19-2.54-9.66-4.77-13.05,1.45-2.29,3.74-9.24,4.35-12.08l5.68,2.23c-2.29,3.99-4.23,6.52-7.13,9.78Zm11.72,13.11c-1.27-4.59-3.32-10.15-5.07-13.05,.72-1.21,3.08-6.64,4.53-12.02l5.44,2.29c-2.78,4.77-5.44,8.03-7.13,9.66,2.96,2.96,5.86,6.64,7.85,10.63l-5.62,2.48Zm9.84-.06c-1.39-4.41-4.05-10.39-5.74-12.98,1.15-1.69,3.5-7.49,4.77-12.02l5.5,2.42c-2.54,3.99-4.41,6.52-7.37,9.54,3.14,2.96,6.34,6.52,8.33,10.51l-5.5,2.54Z"/>
      <path class="cls-1" d="M198.67,112.87c1.45-.18,2.96-.42,4.47-.66v-12.86l5.25,.85c4.23-1.27,7.67-3.14,11.17-5.62l4.35,4.11c-5.5,1.93-10.57,3.08-15.4,3.68v8.76c3.75-.85,7.37-1.81,10.57-2.9-.72-1.69-1.63-3.44-2.48-4.95l1.81-1.21c3.02,2.78,5.74,6.22,7.55,9.54l-4.53,2.6c-.36-1.15-.85-2.48-1.45-3.87-5.25,3.08-13.95,6.64-19.27,8.09l-2.05-5.56Zm20.23,28.08l5.32,3.44c-4.65,2.78-14.74,6.16-23.8,7.49l-.66-2.11c7.97-2.23,13.71-4.95,19.14-8.82Zm-11.72-23.25h37.5v22.95h-37.5v-22.95Zm5.19,6.46h27.12v-3.74h-27.12v3.74Zm0,6.58h27.12v-3.99h-27.12v3.99Zm0,7.19h27.12v-4.59h-27.12v4.59Zm20.53-36.84h-6.46v-2.72h24.1c-.18,6.82-.36,8.94-.67,11.96-.79,7.55-6.04,8.03-13.83,2.17l.97-2.05c6.34,2.05,7.25,1.69,7.61-.97,.3-2.11,.36-4.17,.42-8.39h-6.88c-.85,7.19-5.8,13.65-13.95,16.31l-.97-1.87c5.31-3.14,8.64-7.13,9.66-14.43Zm17.88,45.24l-3.02,5.38c-5.44-2.9-13.53-6.04-19.87-8.21l.54-2.11c6.64,.73,15.4,2.17,22.35,4.95Z"/>
      <path class="cls-1" d="M282.79,133.83v17.15h-5.31v-15.52c-2.23,3.44-5.74,7.61-11.29,11.35l-1.33-1.69c4.29-3.62,9.18-10.75,11.35-16.37h-9.66v-2.6h10.93v-5.92h5.31v5.92h10.15v2.6h-10.15v1.93c2.96,1.81,6.64,4.23,9.72,7.55l-3.87,3.74c-1.93-3.08-3.99-5.68-5.86-8.15Zm11.17-14.8h-28.26v-2.72h7.91c-1.03-2.96-2.54-6.82-3.8-9.42l1.81-1.21c2.36,2.23,5.25,5.98,6.82,8.82l-3.5,1.81h7.07c1.15-3.38,2.05-7.85,2.42-10.75l5.44,1.75c-1.39,2.9-3.5,6.46-5.5,9h9.6v2.72Zm-1.45-13.77h-25.91v-2.66h12.62c-2.11-2.29-4.35-4.47-6.7-6.52l1.09-1.81c3.14,1.09,6.82,2.78,10.09,5.07l-2.48,3.26h11.29v2.66Zm26.51,12.26h-6.22v33.22h-5.31v-33.22h-6.88v2.42c0,15.58-3.14,25.31-10.63,31.71l-1.63-1.45c5.74-7.07,6.82-15.52,6.82-28.26v-22.35l5.01,1.33c4.65-1.33,8.39-3.2,12.32-6.04l5.19,4.41c-5.44,1.93-11.05,3.26-17.09,3.81v11.72h18.42v2.72Z"/>
      <path class="cls-1" d="M355.92,144.46l-5.01,2.84c-1.39-4.05-2.9-7.31-4.77-10.81-3.26,6.28-8.58,10.81-12.86,12.86l-1.33-1.75c4.65-4.05,9.06-10.21,10.87-19.21l5.8,1.51c-.3,1.45-.79,2.84-1.33,4.17,3.5,3.14,6.46,6.46,8.64,10.39Zm-16.97-44.93h-4.95v-2.72h29.23v2.72h-4.41v22.83h-5.19v-5.25c-7.73,2.6-13.95,3.87-18.42,4.41l-1.03-5.13c1.57-.06,3.14-.06,4.77-.18v-16.67Zm22.41,27.42l.18,24.16h-5.32v-23.8c-8.46,.48-16.37,.54-20.29,.36l-.24-2.17c14.5-.66,29.71-2.36,38.83-5.86l5.25,4.47c-4.89,1.39-11.6,2.29-18.42,2.84Zm-17.21-23.92h9.48v-3.5h-9.48v3.5Zm0,6.28h9.48v-3.56h-9.48v3.56Zm0,2.72v3.81c2.84-.24,5.92-.6,9.48-1.15v-2.66h-9.48Zm16.91-11.72h15.04l1.15-.79,4.71,2.05c-1.27,3.93-3.44,7.67-6.4,10.81,3.08,1.51,6.34,2.36,9.42,3.14l-2.54,5.38c-3.02-.66-6.83-2.42-10.33-5.38-3.2,2.54-7.13,4.53-11.66,5.8l-.79-1.93c3.99-1.81,7.25-4.05,9.72-6.52-2.29-2.6-4.17-5.92-5.25-9.96h-3.08v-2.6Zm19.51,47.53c-2.11-4.41-4.41-7.85-6.7-10.81-2.29,5.38-5.62,9.18-10.09,11.48l-1.33-1.69c5.25-4.83,7.01-11.29,8.09-19.21l5.8,1.33c-.42,1.99-.91,3.8-1.45,5.56,3.8,2.72,7.61,6.16,10.27,9.78l-4.59,3.56Zm-4.65-44.93h-9.78c1.39,3.2,3.38,5.56,5.74,7.25,1.81-2.29,3.14-4.77,4.05-7.25Z"/>
      <path class="cls-1" d="M405.8,126.76c-1.45-3.08-3.56-6.46-5.86-9.18l1.33-1.69c3.08,1.69,6.58,4.47,8.94,6.95l-4.41,3.93Zm7.67-.66c-2.42,9-5.31,18.84-7.97,24.58l-5.5-3.32c3.5-4.95,8.52-14.5,11.35-21.98l2.11,.73Zm-.06-22.65h-12.98v-2.72h12.98v-5.68h5.19v5.68h12.98v-5.68h5.19v5.68h13.04v2.72h-13.04v5.19h-5.19v-5.19h-12.98v5.38h-5.19v-5.38Zm-6.16,3.62c2.9,1.69,6.4,4.47,8.7,6.95l-4.29,3.68c-1.39-2.9-3.68-6.64-5.8-9l1.39-1.63Zm25.37,20.47c-3.44,2.48-7.37,4.23-11.84,5.74h23.74v17.21h-5.19v-3.2h-13.83v3.87h-5.19v-17.7c-1.99,.66-4.17,1.27-6.46,1.87l-.66-2.05c6.34-2.17,11.78-5.13,16.12-8.76-1.69-1.75-3.2-3.81-4.65-6.28-2.17,3.44-4.89,6.58-8.52,9.36l-1.51-1.57c4.89-5.01,8.03-12.14,9.78-19.51l5.07,1.75-1.27,3.26h9.72l1.27-.72,4.95,2.6c-2.48,4.77-5.13,8.4-8.09,11.29,5.07,2.42,10.69,3.56,15.88,4.17l-3.08,5.62c-6.64-1.69-11.9-3.62-16.25-6.95Zm-7.13,17.03h13.83v-8.58h-13.83v8.58Zm6.28-22.35c2.36-2.42,4.29-5.07,5.74-8.03h-10.57c-.36,.79-.79,1.51-1.21,2.29,1.75,2.29,3.81,4.17,6.04,5.74Z"/>
    </g>
    <g>
      <path class="cls-1" d="M154.15,23.66l-1.43,2.86c-3.05-.9-8.12-3.39-9.83-9.94h-2.88v5.82c1.79-.17,3.47-.39,4.68-.59l.22,1.01c-2.52,1.12-7.11,2.24-10.11,2.66l-.81-2.72c1.04,0,2.3-.06,3.61-.14v-6.05h-3.42c-.53,4.56-1.71,7.64-3.89,10l-.81-.64c2.63-4.62,2.46-10.33,2.46-18.59V1.82h19.52V7.06h-16.94v2.1c0,2.3-.06,4.34-.22,6.16h4.62v-3.61h-3.84v-1.26h3.84v-2.74h2.41v2.74h3.89v-2.74h2.41v2.74h4.84v1.26h-4.84v3.61h5.85v1.26h-9.49c.59,1.54,1.43,2.72,2.35,3.64,1.18-.87,2.49-2.07,3.42-3.28l2.24,1.74c-1.82,1.04-3.53,1.76-4.87,2.24,2.21,1.74,4.87,2.32,7.03,2.74Zm-19.63-17.86h14.42V3.08h-14.42v2.72Zm6.8,9.52h3.89v-3.61h-3.89v3.61Z"/>
      <path class="cls-1" d="M165.8,5.29h-2.63v-1.26h6.78c-.95-1.09-2.04-2.27-3.05-3.02l.53-.87c1.43,.5,3.44,1.43,4.76,2.38l-1.4,1.51h5.35v1.26h-7.98v4.84c0,.95,.28,1.51,1.15,1.6,1.18,.11,2.6,.08,3.16,0,1.12-.17,1.54-.45,1.88-.76l1.09,1.6c-.34,.39-1.04,1.04-2.77,1.18-.98,.08-2.74,.06-4,0-2.27-.11-2.86-1.12-2.86-3.58V5.29Zm11.34,18.98h10.53v1.26h-24.08v-1.26h11.09v-3.53h-9.04v-1.26h9.04v-2.74c-2.86,.25-5.88,.36-8.71,.31l-.17-.95c7.78-.5,13.44-1.15,17.19-3.19l2.07,2.18c-2.04,.59-4.84,1.09-7.92,1.43v2.97h8.82v1.26h-8.82v3.53Zm2.63-24.28l2.52,.78c-.42,.87-1.01,1.76-1.68,2.63h4.62l.53-.39,2.55,1.18c-2.58,5.91-6.05,8.46-12.99,10.39l-.39-.92c4.65-1.68,9.1-5.1,10.33-8.99h-5.71c-.17,.2-.36,.39-.53,.56,1.18,.5,2.41,1.09,3.72,2.1l-1.65,1.68c-.92-1.29-1.71-2.1-2.77-3.11-.36,.34-.73,.67-1.12,.98,.9,.59,2.16,1.6,3.22,2.88l-1.76,1.34c-.64-1.51-1.4-2.6-2.18-3.67-.81,.62-1.65,1.12-2.46,1.54l-.48-.87c2.94-2.21,5.49-5.68,6.24-8.12Z"/>
      <path class="cls-1" d="M222.02,21.31l-1.9,3.28c-3.02-1.54-7.31-5.1-9.55-9.77v11.79h-2.69V14.92c-2.21,3.92-6.55,7.53-10.7,9.63l-.56-.92c4.59-3.11,7.62-6.64,9.63-10.33h-8.71v-1.54h10.33V7.34h-8.37v-1.4h8.37V.53h2.69V5.94h8.26v1.4h-8.26v4.42h10.39v1.54h-9.88c2.77,4,7.28,6.72,10.95,8.01Z"/>
      <path class="cls-1" d="M255.06,21.62l-1.85,3.08c-3.7-2.13-6.8-5.01-9.16-9.35v11.17h-2.58v-10.16c-2.18,3-5.88,6.36-10.44,8.4l-.45-.92c3.42-1.9,7.56-5.94,9.74-9.52l-1.54,1.06c-.53-1.37-1.15-2.66-1.68-3.72-.92,2.41-2.35,4.54-4.9,6.55l-.67-.76c2.66-3.14,3.67-6.27,4-10.56l2.66,.5c-.17,.98-.36,1.9-.62,2.8,1.12,1.04,2.38,2.3,3.14,3.44,.31-.56,.56-1.09,.76-1.6V6.1h-9.88v-1.54h9.88V.45h2.58V4.56h10v1.54h-10v7c.36,.5,.73,.98,1.09,1.4,1.51-2.27,2.24-4.37,2.69-7.67l2.63,.67c-.31,1.04-.64,1.99-1.04,2.86,1.65,1.18,3.19,2.6,4.12,3.67l-1.96,1.82c-.81-1.46-1.79-3-2.74-4.28-.81,1.54-1.76,2.77-2.94,3.84,2.69,3.02,5.49,4.76,9.16,6.22Z"/>
      <path class="cls-1" d="M269.65,7.28V26.38h-2.35V11.62c-1.12,1.68-2.24,2.97-3.25,3.84l-.73-.7c1.99-2.58,4.62-7.73,5.8-14.64l2.72,.67c-.56,2.41-1.32,4.59-2.18,6.5Zm7.25,14.5l2.44,1.51c-1.96,1.4-5.85,2.97-8.65,3.5l-.28-.95c2.94-1.12,5.07-2.63,6.5-4.06Zm6.24-18.34v1.82h4.62v5.24h-15.68V5.26h4.56v-1.82h-4.82v-1.26h16.49v1.26h-5.18Zm-9.88,18V11.84h13.19v9.6h-13.19Zm1.18-12.15h2.21v-2.83h-2.21v2.83Zm1.18,5.32h8.43v-1.57h-8.43v1.57Zm0,2.77h8.43v-1.65h-8.43v1.65Zm0,2.86h8.43v-1.74h-8.43v1.74Zm5.29-16.8h-2.02v1.82h2.02v-1.82Zm-2.02,5.85h2.02v-2.83h-2.02v2.83Zm9.94,15.32l-1.37,2.32c-2.02-1.51-4.76-3-6.47-3.92l.31-.98c1.88,.39,5.21,1.29,7.53,2.58Zm-5.68-18.14v2.83h2.27v-2.83h-2.27Z"/>
      <path class="cls-1" d="M303.28,7.84V26.38h-2.41V12.12c-.81,1.15-1.71,2.24-2.77,3.28l-.73-.7c2.83-4.2,4.4-8.48,5.35-14.5l2.77,.59c-.53,2.49-1.23,4.84-2.21,7.06Zm19.1,16.35v1.26h-17.95v-1.26h2.55V8.2h4.31c.14-.95,.31-2.04,.45-3.14h-6.22v-1.26h6.38c.17-1.18,.31-2.35,.42-3.33l2.6,.28c-.17,1.12-.34,2.13-.45,3.05h6.83v1.26h-7.03c-.14,1.12-.28,2.16-.45,3.14h5.88v15.99h2.66Zm-4.96-14.73h-8.26v2.6h8.26v-2.6Zm0,3.78h-8.26v2.77h8.26v-2.77Zm0,3.95h-8.26v2.86h8.26v-2.86Zm0,4.03h-8.26v2.97h8.26v-2.97Z"/>
      <path class="cls-1" d="M123.49,53.39c-.34,3.28-.7,5.12-1.18,6.78-.73,2.55-3.19,3-6.75-.06l.45-.9c3.11,1.29,3.72,1.18,4.17-.14,.31-.92,.64-2.46,.84-4.48h-3.72c-.11,.62-.25,1.2-.39,1.76l-2.21-.34c.56-2.16,.87-3.98,1.2-6.41h5.46v-3.16h-2.3c-1.74,1.09-3.7,1.99-5.94,2.74l-.42-.9c1.76-.76,3.98-1.99,5.91-3.61-.92-1.29-2.18-2.86-3.08-3.86l.59-.73c1.34,.73,2.94,1.85,4.2,3,1.01-1.12,1.88-2.32,2.41-3.64l-7.9-.08v-1.2l7.98,.08,.67-.5,2.41,1.32c-1.34,2.52-3.02,4.54-5.12,6.19h2.77v5.57h-5.66c-.08,.78-.22,1.68-.36,2.58h5.96Zm7.31,4.73c1.82,1.01,3.78,1.51,5.63,1.88l-1.32,2.46c-2.04-.73-4.03-1.57-5.77-3-1.71,1.37-3.81,2.41-6.52,3.22l-.34-.84c2.32-.95,4.17-2.16,5.6-3.58-1.06-1.15-2.02-2.63-2.77-4.56h-1.32v-1.18h7.03l.7-.45,2.3,1.12c-.95,1.96-1.96,3.58-3.22,4.93Zm7.06-12.15l-1.37,2.63c-1.65-.67-3.19-1.43-4.62-2.44v2.27c0,.84,.48,1.09,1.62,1.01,.81-.06,1.26-.11,1.82-.81l1.09,1.74c-.59,.81-1.57,1.15-3.25,1.15-2.63,0-3.36-.64-3.36-2.32v-2.74h-2.41c-.03,3.08-.59,4.87-3.89,6.19l-.48-.81c2.32-1.74,2.21-3.05,2.18-6.64h5.4c-2.21-1.9-4-4.56-5.24-8.48l.98-.31c.7,1.51,1.43,2.77,2.21,3.86,.73-.84,1.32-1.74,1.99-2.88l2.16,1.34c-1.01,.84-2.24,1.74-3.47,2.44,.59,.67,1.18,1.26,1.85,1.76,.81-.84,1.62-1.85,2.38-3.08l2.13,1.4c-1.04,.92-2.38,1.79-3.53,2.41,1.6,1.01,3.47,1.74,5.8,2.32Zm-11.54,7.73c.81,1.43,1.79,2.52,2.86,3.36,.81-1.06,1.43-2.18,1.85-3.36h-4.7Z"/>
      <path class="cls-1" d="M170.95,59.66l-1.43,2.86c-3.05-.9-8.12-3.39-9.83-9.94h-2.88v5.82c1.79-.17,3.47-.39,4.68-.59l.22,1.01c-2.52,1.12-7.11,2.24-10.11,2.66l-.81-2.72c1.04,0,2.3-.06,3.61-.14v-6.05h-3.42c-.53,4.56-1.71,7.64-3.89,10l-.81-.64c2.63-4.62,2.46-10.33,2.46-18.59v-5.52h19.52v5.24h-16.94v2.1c0,2.3-.06,4.34-.22,6.16h4.62v-3.61h-3.84v-1.26h3.84v-2.74h2.41v2.74h3.89v-2.74h2.41v2.74h4.84v1.26h-4.84v3.61h5.85v1.26h-9.49c.59,1.54,1.43,2.72,2.35,3.64,1.18-.87,2.49-2.07,3.42-3.28l2.24,1.74c-1.82,1.04-3.53,1.76-4.87,2.24,2.21,1.74,4.87,2.32,7.03,2.74Zm-19.63-17.86h14.42v-2.72h-14.42v2.72Zm6.8,9.52h3.89v-3.61h-3.89v3.61Z"/>
      <path class="cls-1" d="M204.72,41.18v1.26h-24.39v-1.26h7.67c-.73-1.54-1.65-3.08-2.52-4.45l.78-.64c1.46,1.01,3.08,2.58,4.34,4.31l-1.23,.78h5.52c.84-1.62,1.57-3.47,2.04-4.98l3.05,1.2c-1.15,1.46-2.41,2.74-3.58,3.78h8.32Zm-22.34,3.84h9.94v14.76c0,2.52-2.38,3.36-6.08,1.06l.28-.98c2.88,.62,3.33,.56,3.33-.81v-4.09h-4.98l.03,7.5h-2.52v-17.44Zm2.46,1.26v3.05h5.01v-3.05h-5.01Zm5.01,7.42v-3.11h-4.98v3.11h4.98Zm7.34,3.78h-2.35v-12.82h2.35v12.82Zm2.83-13.89h2.52v16.16c0,2.77-2.32,3.98-6.83,.95l.34-.95c3.33,.9,3.98,.73,3.98-.56v-15.6Z"/>
      <path class="cls-1" d="M238.38,48.66v1.18h-12.43c-.34,6.92-2.55,10.7-4.23,12.68l-.78-.59c1.43-2.3,2.63-6.3,2.63-13.8v-5.12c-.59,.42-1.18,.76-1.68,1.04l-.2-.34v14.7h-4.7v2.3h-2.35v-22.29h7.06v4.59c1.48-1.18,3.72-4.03,4.59-6.92l2.6,.87c-.28,.53-.59,1.06-.92,1.54h3.28l.78-.34,2.24,1.4c-.92,.98-1.74,1.62-2.69,2.21h6.78v1.23h-4.17v1.29c0,.5,.08,.7,1.06,.7s1.65-.08,2.18-.53l.84,1.51c-.67,.59-1.82,.7-3.42,.7-2.24,0-2.8-.28-2.8-2.58v-1.09h-1.74c-.2,2.38-1.74,4.28-4.03,5.18l-.31-.5v.98h5.32c-.42-1.04-.98-2.21-1.37-3l.59-.53c.98,.73,1.99,1.82,2.72,2.88l-1.06,.64h6.22Zm-18.98-8.99h-2.41v4.73h2.41v-4.73Zm0,5.99h-2.41v4.98h2.41v-4.98Zm0,6.24h-2.41v5.24h2.41v-5.24Zm5.71-10.14h4.82c.45-.64,.98-1.34,1.26-2.02h-4.14c-.62,.76-1.26,1.43-1.93,2.02Zm3.11,1.23h-2.24v4.28c1.57-1.18,2.16-2.72,2.24-4.28Zm-2.02,13.47h11.09v5.88h-2.3v-1.51h-6.5v1.57h-2.3v-5.94Zm11.03-4.09h-11v-1.12h11v1.12Zm-11,1.43h11v1.12h-11v-1.12Zm2.27,5.96h6.5v-2.24h-6.5v2.24Z"/>
      <path class="cls-1" d="M255.26,54.48v7.95h-2.46v-7.2c-1.04,1.6-2.66,3.53-5.24,5.26l-.62-.78c1.99-1.68,4.26-4.98,5.26-7.59h-4.48v-1.2h5.07v-2.74h2.46v2.74h4.7v1.2h-4.7v.9c1.37,.84,3.08,1.96,4.51,3.5l-1.79,1.74c-.9-1.43-1.85-2.63-2.72-3.78Zm5.18-6.86h-13.1v-1.26h3.67c-.48-1.37-1.18-3.16-1.76-4.37l.84-.56c1.09,1.04,2.44,2.77,3.16,4.09l-1.62,.84h3.28c.53-1.57,.95-3.64,1.12-4.98l2.52,.81c-.64,1.34-1.62,3-2.55,4.17h4.45v1.26Zm-.67-6.38h-12.01v-1.23h5.85c-.98-1.06-2.02-2.07-3.11-3.02l.5-.84c1.46,.5,3.16,1.29,4.68,2.35l-1.15,1.51h5.24v1.23Zm12.29,5.68h-2.88v15.4h-2.46v-15.4h-3.19v1.12c0,7.22-1.46,11.73-4.93,14.7l-.76-.67c2.66-3.28,3.16-7.2,3.16-13.1v-10.36l2.32,.62c2.16-.62,3.89-1.48,5.71-2.8l2.41,2.04c-2.52,.9-5.12,1.51-7.92,1.76v5.43h8.54v1.26Z"/>
      <path class="cls-1" d="M305.86,59.74l-1.48,2.8c-4.09-1.15-8.29-2.8-10.64-7.36-1.85,4.42-6.08,6.19-12.15,7.48l-.39-.92c5.82-1.71,9.02-4.26,10.28-7.64h-9.46v-1.26h9.83c.2-.87,.28-1.79,.25-2.77h.22l-.25-.36c3.81-2.69,4.03-6.19,4.17-10.14h-2.18v-1.26h9.83c-.08,4.26-.22,8.01-.53,9.94-.53,3.28-3.36,3.3-6.5,.78l.42-.92c3.16,.98,3.53,.7,3.72-.76,.17-1.2,.36-4.14,.39-7.78h-2.69c-.22,4.31-.76,8.15-5.21,10.56l1.29,.03c-.06,.98-.14,1.88-.31,2.69h10.28v1.26h-10.33c2.72,3.86,6.97,5.12,11.45,5.66Zm-19.38-12.88v-2.58h-3.98v-1.26h3.98v-2.32h-4.59v-1.26h4.59v-2.88l2.41-.03v2.91h4.82v1.26h-4.82v2.32h4.28v1.26h-4.28v2.35c1.65-.17,3.22-.39,4.54-.62l.22,.98c-1.06,.45-2.74,.98-4.76,1.46v2.97h-2.41v-2.46c-1.51,.31-3.11,.56-4.7,.73l-.42-2.58c1.65-.03,3.42-.11,5.12-.25Z"/>
      <path class="cls-1" d="M320.05,47.28l-.03,15.01h-2.27v-12.1c-.5,1.82-1.29,3.89-2.77,6.24l-.81-.62c1.26-2.72,2.58-7.34,3.25-11.96h-2.58v-1.2h2.94v-6.05h2.27v6.05h1.88v1.23h-1.88v1.68c1.29,1.32,2.27,2.58,2.83,3.61l-1.76,1.01c-.28-.84-.67-1.93-1.06-2.91Zm12.26,4.82c.28,1.32,.62,2.41,.95,3.3,.73-.87,1.43-1.85,2.07-2.94l2.07,1.2c-.76,1.34-1.82,2.63-3.14,3.81,.64,1.04,1.32,1.54,1.82,1.79,1.09,.5,1.51,.48,1.9-2.97l.87,.11c.87,4.76-.5,6.33-2.77,5.57-1.51-.5-2.74-1.48-3.75-3.05-2.13,1.43-4.7,2.58-7.62,3.19l-.36-.84c2.52-.84,4.93-2.07,7.11-4.03-.62-1.4-1.09-3.11-1.48-5.15h-3.14c-.06,.36-.08,.76-.14,1.12,1.79,1.06,3.02,2.02,3.89,2.86l-1.68,1.74c-.5-.78-1.48-2.18-2.44-3.39-.64,3.16-2.13,6.1-5.29,8.01l-.56-.78c1.93-1.62,3.5-4.4,3.92-9.55h-2.88v-1.26h2.97c.03-.7,.03-1.43,.03-2.21h2.3c0,.73,0,1.46-.03,2.21h2.86c-.59-3.75-.87-8.48-.9-14.39l2.32,.08c-.11,6.36,.25,10.98,.84,14.31h2.83c-.31-.7-.87-1.82-1.37-2.72-.39,.11-.73,.2-.98,.25l-.62-1.96c.36,0,.76,0,1.12-.03,.84-1.32,1.4-2.35,1.85-3.39-1.01,.48-1.82,.76-2.72,.98l-.53-2.16h1.06c.5-1.57,.98-3.47,1.2-5.04l2.18,.64c-.73,1.6-1.54,3.14-2.32,4.4,.56-.03,1.12-.06,1.68-.11,.22-.59,.45-1.2,.73-1.9l2.07,.92c-1.15,2.13-2.52,3.95-4.06,5.57,.84-.08,1.71-.22,2.55-.39l-.42-1.23,.7-.28c.98,1.18,1.68,2.52,2.1,3.7l-1.76,.56c-.11-.7-.25-1.32-.39-1.93-.84,.42-1.68,.78-2.44,1.06,.92,.81,1.76,1.74,2.18,2.35l-1.04,.7h3.53v1.26h-6.89Zm-8.88-5.46c.67-1.12,1.2-2.13,1.65-3.16-.92,.42-1.6,.59-2.38,.81l-.5-2.02c.34,.03,.64,.03,.95,.06,.56-1.65,1.06-3.86,1.32-5.52l2.21,.62c-.76,1.74-1.68,3.53-2.55,4.9,.5-.03,.98-.06,1.48-.11,.28-.7,.56-1.4,.81-2.16l2.02,.9c-1.12,2.04-2.44,4-3.84,5.6,.76-.08,1.48-.17,2.24-.31-.11-.45-.25-.9-.39-1.34l.7-.34c.98,1.34,1.51,2.44,1.9,3.72l-1.65,.53-.34-1.68c-1.88,.95-3.42,1.37-4.23,1.51l-.64-1.99c.42,0,.81,0,1.23-.03Z"/>
    </g>
  </g>
</svg>